<?xml version="1.0" encoding="utf-8"?>
<!-- Generator: Adobe Illustrator 23.0.6, SVG Export Plug-In . SVG Version: 6.00 Build 0)  -->
<svg version="1.1" id="Calque_1" xmlns="http://www.w3.org/2000/svg" xmlns:xlink="http://www.w3.org/1999/xlink" x="0px" y="0px"
	 viewBox="0 0 506 450" style="enable-background:new 0 0 506 450;" xml:space="preserve">
<style type="text/css">
	.st0{fill:#FF6E00;}
</style>
<g>
	<path d="M116,199.6v-94.5c-4,2.8-8.4,4.2-13.3,4.2c-12.1,0-21-7.9-21-19.4c0-11.4,8.2-16.8,9.1-16.3c4.2,3.3,8.4,5.1,14.2,5.1
		c10,0,18.2-7,19.8-17.5h10c10,0,15.2,5.4,15.2,15.9v122.4c0,10.5-5.1,15.9-15.2,15.9h-4.2C121.1,215.4,116,210.1,116,199.6z"/>
	<path d="M177.5,145.9V131c0-43.6,25.2-71.1,66.2-71.1s66,27.3,66,70.9v14.9c0,43.6-25,71.1-66.2,71.1S177.5,189.8,177.5,145.9z
		 M275.3,148v-19.4c0-26.6-11.4-41.3-31.7-41.3s-31.3,14.2-31.3,41v19.4c0,26.6,11.2,41,31.5,41S275.3,174.4,275.3,148z"/>
</g>
<g>
	<path d="M219.5,359.7H288c11.7,0,16.3,4.7,16.3,12.8v1.6c0,8.9-4.4,13.8-16.3,13.8h-79.3c-15.4,0-20.8-3.5-20.8-17.5v-7.2
		c0-28.7,25-43.1,46.4-53.4c18.7-8.9,34.5-14.7,34.5-28c0-12.8-9.1-20.3-25.4-20.3c-19.4,0-29.2,12.8-32.7,26.6
		c0,0.7-22.4,1.4-22.4-15.9c0-18.7,20.1-38.5,57.1-38.5c36.2,0,56.7,17.7,56.7,46.9c0,27.8-20.5,37.8-42.9,47.1
		C238.6,336.6,222.7,343.8,219.5,359.7z"/>
	<path d="M387.2,373.7v-22.6h-55.7c-12.1,0-19.4-6.3-19.4-14.7v-5.8c0.2-6.1,2.3-10.5,7.2-18l46.2-64.4
		c6.8-10.5,11.4-12.8,28.5-12.8c17.7,0,24.7,5.8,24.7,22.4v67.2h11.7c10.5,0,14.7,3.7,14.7,12.4v1.2c0,8.9-4.2,12.6-14.7,12.6h-11.7
		v22.6c0,10.5-4.4,15.9-14.5,15.9h-3C392.1,389.5,387.2,383.5,387.2,373.7z M342.4,325.6h46.2v-65.3L342.4,325.6z"/>
</g>
<path class="st0" d="M136.1,322.3H95.6c-7.4,0-13.5-6.1-13.5-13.5v0c0-7.4,6.1-13.5,13.5-13.5h40.5c7.4,0,13.5,6.1,13.5,13.5v0
	C149.6,316.2,143.5,322.3,136.1,322.3z"/>
<path class="st0" d="M385.8,152.2h-40.5c-7.4,0-13.5-6.1-13.5-13.5v0c0-7.4,6.1-13.5,13.5-13.5h40.5c7.4,0,13.5,6.1,13.5,13.5v0
	C399.3,146.1,393.2,152.2,385.8,152.2z"/>
</svg>
