<svg xmlns="http://www.w3.org/2000/svg" viewBox="0 0 444.28321 206.33767"><title>petite-maisonFichier 8</title><g id="Calque_2" data-name="Calque 2"><g id="fond"><g id="petite_maison" data-name="petite maison"><polygon points="44.603 203.207 236.578 203.207 236.578 38.854 44.603 94.099 44.603 203.207" style="fill:#ffc441"/><path d="M27.82154,96.20112h3.6319v8.55867s0,1.35137,4.47,2.02705,9.77817,1.12614,9.77817,9.68481v84.911s-.089,3.21834-1.95563,4.955l-3.144-.73045,1.22939-1.98223a7.09463,7.09463,0,0,0,.45293-3.39064c-.06471-2.50386-.22285-86.54482-.22285-86.54482s.26234-3.17242-3.5416-3.70115-10.64062-1.05748-10.6983-4.54713S27.82154,96.20112,27.82154,96.20112Z" style="fill:#e3deca"/><rect x="116.47818" y="96.26863" width="91.81221" height="70.16098" style="fill:#fcf8f0"/><rect x="111.27092" y="166.42961" width="99.76014" height="3.83693" style="fill:#f99a04"/><polygon points="236.578 13.501 236.578 203.207 441.795 203.207 441.795 71.877 236.578 13.501" style="fill:#ffc441"/><polygon points="206.497 16.764 443.898 82.455 444.283 65.809 208.033 0 206.497 16.764" style="fill:#f99a04"/><rect x="245.8842" y="96.26863" width="43.1561" height="106.9386" style="fill:#fcf8f0"/><rect x="253.53085" y="104.34864" width="9.09967" height="88.29249" style="fill:#ffc441"/><rect x="247.86584" y="145.39693" width="2.17288" height="12.26127" style="fill:#f99a04"/><rect x="248.95228" y="148.26824" width="9.15715" height="1.08644" style="fill:#f99a04"/><rect x="338.78758" y="114.81746" width="59.44433" height="45.42612" style="fill:#fcf8f0"/><rect x="335.41611" y="160.24358" width="67.93543" height="2.48424" style="fill:#f99a04"/><polygon points="236.578 33.782 236.578 45.84 7.237 109.972 3.34 104.491 0 99.557 236.578 33.782" style="fill:#f99a04"/><path d="M218.72422,18.2027h3.95437V32.77764s0,2.3013,4.86691,3.452,10.64636,1.91775,10.64636,16.49269V197.32105s-.09694,5.48066-2.12927,8.43812l-3.42319-1.24391,1.33855-3.37562s.5636-1.51014.49315-5.77408-.24264-147.38107-.24264-147.38107.28563-5.40245-3.85605-6.30286-11.58539-1.80081-11.64819-7.7435S218.72422,18.2027,218.72422,18.2027Z" style="fill:#e3deca"/></g></g></g></svg>