<svg xmlns="http://www.w3.org/2000/svg" viewBox="0 0 409.50084 222.8914"><title>moyenne-maisonFichier 10</title><g id="Calque_2" data-name="Calque 2"><g id="panneau_photovoltaique" data-name="panneau photovoltaique"><g id="photovoltaique"><polygon points="40.992 219.573 215.682 219.573 215.682 70.018 40.992 120.289 40.992 219.573" style="fill:#f75b59"/><path d="M25.7214,122.20146h3.30489v7.78807s0,1.22969,4.06755,1.84454,8.89777,1.02474,8.89777,8.81281v77.2658s-.081,2.92857-1.77956,4.50888l-2.86095-.66469,1.1187-1.80374a6.45577,6.45577,0,0,0,.41215-3.08536c-.05888-2.27842-.20278-78.75252-.20278-78.75252s.23872-2.88678-3.22273-3.36791-9.68256-.96225-9.735-4.13771S25.7214,122.20146,25.7214,122.20146Z" style="fill:#d3d3d3"/><ellipse cx="38.79488" cy="222.09376" rx="0.77892" ry="1.49928" transform="translate(-186.48845 230.93135) rotate(-82.33815)" style="fill:#ccc8b8"/><polygon points="215.682 65.402 215.682 76.375 6.99 134.732 3.444 129.745 0.405 125.256 215.682 65.402" style="fill:#f2f2f2;stroke:#fcf8f0;stroke-miterlimit:10;stroke-width:0.503631923169224px"/><rect x="106.39559" y="122.2629" width="83.54564" height="63.84384" style="fill:#f2f2f2"/><rect x="101.65718" y="186.10673" width="90.77795" height="3.49146" style="fill:#f54441"/><rect x="215.68216" y="6.78297" width="186.73934" height="212.79001" style="fill:#f75b59"/><path d="M189.98019,10.92285h5.519V27.31743s0,2.58861,6.79257,3.88292,14.85873,2.15718,14.85873,18.55176V212.40355s-.1353,6.1649-2.97175,9.4916l-4.77761-1.39922,1.86816-3.797s.78659-1.69868.68827-6.49495-.33864-165.78113-.33864-165.78113.39864-6.07692-5.38175-7.08974-16.16929-2.02564-16.25693-8.71026S189.98019,10.92285,189.98019,10.92285Z" style="fill:#d3d3d3"/><ellipse cx="211.8121" cy="221.33693" rx="1.32598" ry="2.50461" transform="translate(-36.62068 400.60086) rotate(-82.07315)" style="fill:#ccc8b8"/><rect x="289.41662" y="122.2629" width="39.27042" height="97.31009" style="fill:#f54441"/><rect x="296.37478" y="129.6154" width="8.28035" height="80.34283" style="fill:#f2f2f2"/><rect x="291.21983" y="166.96779" width="1.97724" height="11.15729" style="fill:#79787d"/><rect x="292.20845" y="169.58057" width="8.33266" height="0.98862" style="fill:#79787d"/><rect x="178.9459" y="0.25099" width="230.30394" height="13.77665" style="fill:#f2f2f2;stroke:#fcf8f0;stroke-miterlimit:10;stroke-width:0.501986105589973px"/><rect x="231.37719" y="129.6154" width="43.51341" height="56.56773" style="fill:#f2f2f2"/><rect x="228.90927" y="186.18313" width="47.28024" height="1.81847" style="fill:#f54441"/><rect x="346.32966" y="129.6154" width="43.51341" height="56.56773" style="fill:#f2f2f2"/><rect x="343.86174" y="186.18313" width="47.28024" height="1.81847" style="fill:#f54441"/><rect x="346.32966" y="40.82501" width="43.51341" height="56.56773" style="fill:#f2f2f2"/><rect x="343.86174" y="97.39274" width="47.28024" height="1.81847" style="fill:#f54441"/><rect x="287.85384" y="40.82501" width="43.51341" height="56.56773" style="fill:#f2f2f2"/><rect x="285.38592" y="97.39274" width="47.28024" height="1.81847" style="fill:#f54441"/><rect x="228.87823" y="40.82501" width="43.51341" height="56.56773" style="fill:#f2f2f2"/><rect x="226.4103" y="97.39274" width="47.28024" height="1.81847" style="fill:#f54441"/></g></g></g></svg>