<svg xmlns="http://www.w3.org/2000/svg" xmlns:xlink="http://www.w3.org/1999/xlink" viewBox="0 0 1440 1024"><defs><style>.cls-1{fill:url(#Dégradé_sans_nom_26);}.cls-2{fill:#94c6e4;}.cls-3{fill:#cae2f1;}.cls-4{fill:#80bbde;}.cls-5{fill:#e5eec9;}.cls-6{fill:#8dc2e2;}.cls-7{fill:#fcfcfc;}.cls-15,.cls-17,.cls-8{fill:none;}.cls-8{stroke:#0177be;}.cls-15,.cls-8{stroke-miterlimit:10;}.cls-9{fill:#c5e567;}.cls-10{fill:#5e7e8f;}.cls-11{fill:#76b6dc;}.cls-12{fill:#52a3d3;}.cls-13{fill:#9db56b;}.cls-14{fill:#b6c891;}.cls-15{stroke:#f2f2f2;}.cls-16{fill:#f98c8b;}.cls-17{stroke:#fff;stroke-linecap:round;stroke-linejoin:round;stroke-width:0.5px;}</style><linearGradient id="Dégradé_sans_nom_26" x1="963.84" y1="622.81" x2="963.84" y2="619.12" gradientUnits="userSpaceOnUse"><stop offset="0" stop-color="#fbc36b"/><stop offset="1" stop-color="#faaf39"/></linearGradient></defs><title>Planche3-Maison</title><g id="ciel"><path class="cls-1" d="M959.17,621s2.25-1.85,2.94-1.85.85.33,1.79.26.27-.19,1.3-.26,2.15,1.32,3.07,1.32-1.14,2.17-2.18,2.31-4.15,0-5.27,0S959.17,621,959.17,621Z"/></g><g id="fond"><rect class="cls-2" x="1003.96" y="535.57" width="106.86" height="264.02"/><rect id="fenetre" class="cls-3" x="1014.83" y="548.57" width="14.92" height="22.62"/><rect id="fenetre-2" data-name="fenetre" class="cls-3" x="1037.79" y="548.57" width="14.92" height="22.62"/><rect id="fenetre-3" data-name="fenetre" class="cls-3" x="1060.75" y="548.57" width="14.92" height="22.62"/><rect id="fenetre-4" data-name="fenetre" class="cls-3" x="1083.71" y="548.57" width="14.92" height="22.62"/><rect id="fenetre-5" data-name="fenetre" class="cls-3" x="1014.83" y="578.95" width="14.92" height="22.62"/><rect id="fenetre-6" data-name="fenetre" class="cls-3" x="1037.79" y="578.95" width="14.92" height="22.62"/><rect id="fenetre-7" data-name="fenetre" class="cls-3" x="1060.75" y="578.95" width="14.92" height="22.62"/><rect id="fenetre-8" data-name="fenetre" class="cls-3" x="1083.71" y="578.95" width="14.92" height="22.62"/><rect id="fenetre-9" data-name="fenetre" class="cls-3" x="1014.83" y="609.34" width="14.92" height="22.62"/><rect id="fenetre-10" data-name="fenetre" class="cls-3" x="1037.79" y="609.34" width="14.92" height="22.62"/><rect id="fenetre-11" data-name="fenetre" class="cls-3" x="1060.75" y="609.34" width="14.92" height="22.62"/><rect id="fenetre-12" data-name="fenetre" class="cls-3" x="1083.71" y="609.34" width="14.92" height="22.62"/><rect id="fenetre-13" data-name="fenetre" class="cls-3" x="1014.83" y="639.72" width="14.92" height="22.62"/><rect id="fenetre-14" data-name="fenetre" class="cls-3" x="1037.79" y="639.72" width="14.92" height="22.62"/><rect id="fenetre-15" data-name="fenetre" class="cls-3" x="1060.75" y="639.72" width="14.92" height="22.62"/><rect id="fenetre-16" data-name="fenetre" class="cls-3" x="1083.71" y="639.72" width="14.92" height="22.62"/><rect id="fenetre-17" data-name="fenetre" class="cls-3" x="1014.83" y="670.11" width="14.92" height="22.62"/><rect id="fenetre-18" data-name="fenetre" class="cls-3" x="1037.79" y="670.11" width="14.92" height="22.62"/><rect id="fenetre-19" data-name="fenetre" class="cls-3" x="1060.75" y="670.11" width="14.92" height="22.62"/><rect id="fenetre-20" data-name="fenetre" class="cls-3" x="1083.71" y="670.11" width="14.92" height="22.62"/><rect id="fenetre-21" data-name="fenetre" class="cls-3" x="1014.83" y="700.49" width="14.92" height="22.62"/><rect id="fenetre-22" data-name="fenetre" class="cls-3" x="1037.79" y="700.49" width="14.92" height="22.62"/><rect id="fenetre-23" data-name="fenetre" class="cls-3" x="1060.75" y="700.49" width="14.92" height="22.62"/><rect id="fenetre-24" data-name="fenetre" class="cls-3" x="1083.71" y="700.49" width="14.92" height="22.62"/><rect id="fenetre-25" data-name="fenetre" class="cls-3" x="1014.83" y="730.88" width="14.92" height="22.62"/><rect id="fenetre-26" data-name="fenetre" class="cls-3" x="1037.79" y="730.88" width="14.92" height="22.62"/><rect id="fenetre-27" data-name="fenetre" class="cls-3" x="1060.75" y="730.88" width="14.92" height="22.62"/><rect id="fenetre-28" data-name="fenetre" class="cls-3" x="1083.71" y="730.88" width="14.92" height="22.62"/><rect id="fenetre-29" data-name="fenetre" class="cls-3" x="1014.83" y="761.26" width="14.92" height="22.62"/><rect id="fenetre-30" data-name="fenetre" class="cls-3" x="1037.79" y="761.26" width="14.92" height="22.62"/><rect id="fenetre-31" data-name="fenetre" class="cls-3" x="1060.75" y="761.26" width="14.92" height="22.62"/><rect id="fenetre-32" data-name="fenetre" class="cls-3" x="1083.71" y="761.26" width="14.92" height="22.62"/><path class="cls-4" d="M-483.53,834.32s313.33-40.58,861.62-36.19,928.24-18,1348.59-10.4,584.85,12.77,1251.93-1c1136.77-23.38,1188,66.93,310.7,89.89s-1453,7.14-2284.54,10.28S-483.53,834.32-483.53,834.32Z"/><path class="cls-5" d="M-956.61,892.83c4.53-3,9-6.15,13.38-9.33,23.46-17,102.27-68.29,218.64-84.78,140.24-19.88,214.59,21.6,365.7-7.58s291.35.94,361.47,7.58S262.29,858,397.33,860.6,945.61,785,1065.07,790.41s167.17,3.43,403.34,119.5c0,0-211.46,87.16-530.89,81.71C620.74,986.21-1180.58,1042.19-956.61,892.83Z"/><g id="pont"><rect class="cls-6" x="498.11" y="761.63" width="317" height="5.75" transform="translate(-3.66 3.16) rotate(-0.28)"/><rect class="cls-7" x="574.53" y="757.91" width="4.5" height="2.06" transform="translate(-3.64 2.78) rotate(-0.28)"/><rect class="cls-7" x="574.51" y="753.79" width="4.5" height="2.06" transform="translate(-3.62 2.78) rotate(-0.28)"/><rect class="cls-7" x="574.49" y="749.67" width="4.5" height="2.06" transform="translate(-3.6 2.78) rotate(-0.28)"/><rect class="cls-7" x="574.47" y="745.55" width="4.5" height="2.06" transform="translate(-3.58 2.78) rotate(-0.28)"/><rect class="cls-7" x="574.45" y="741.43" width="4.5" height="2.06" transform="translate(-3.56 2.78) rotate(-0.28)"/><rect class="cls-7" x="574.43" y="737.31" width="4.5" height="2.06" transform="translate(-3.54 2.78) rotate(-0.28)"/><rect class="cls-7" x="574.41" y="733.19" width="4.5" height="2.06" transform="translate(-3.52 2.78) rotate(-0.28)"/><rect class="cls-7" x="574.39" y="729.07" width="4.5" height="2.06" transform="translate(-3.5 2.78) rotate(-0.28)"/><rect class="cls-7" x="574.37" y="724.95" width="4.5" height="2.06" transform="translate(-3.48 2.78) rotate(-0.28)"/><line class="cls-8" x1="574.36" y1="725.29" x2="516.76" y2="762.32"/><line class="cls-8" x1="574.61" y1="728.05" x2="534.12" y2="762.21"/><line class="cls-8" x1="574.39" y1="731.14" x2="554.33" y2="762.12"/><line class="cls-8" x1="578.72" y1="725.26" x2="636.67" y2="761.75"/><line class="cls-8" x1="578.49" y1="728.04" x2="619.31" y2="761.8"/><line class="cls-8" x1="578.74" y1="731.12" x2="599.1" y2="761.9"/><line class="cls-8" x1="734.94" y1="724.95" x2="677.33" y2="761.55"/><line class="cls-8" x1="735.19" y1="727.28" x2="694.69" y2="761.44"/><line class="cls-8" x1="734.97" y1="730.37" x2="714.9" y2="761.35"/><line class="cls-8" x1="739.29" y1="724.93" x2="797.24" y2="760.98"/><line class="cls-8" x1="739.07" y1="727.26" x2="779.89" y2="761.03"/><line class="cls-8" x1="739.32" y1="730.35" x2="759.68" y2="761.13"/><rect class="cls-7" x="735.1" y="757.14" width="4.5" height="2.06" transform="translate(-3.63 3.55) rotate(-0.28)"/><rect class="cls-7" x="735.08" y="753.02" width="4.5" height="2.06" transform="translate(-3.61 3.55) rotate(-0.28)"/><rect class="cls-7" x="735.06" y="748.9" width="4.5" height="2.06" transform="translate(-3.59 3.55) rotate(-0.28)"/><rect class="cls-7" x="735.04" y="744.78" width="4.5" height="2.06" transform="translate(-3.57 3.55) rotate(-0.28)"/><rect class="cls-7" x="735.02" y="740.66" width="4.5" height="2.06" transform="translate(-3.55 3.55) rotate(-0.28)"/><rect class="cls-7" x="735" y="736.54" width="4.5" height="2.06" transform="translate(-3.53 3.55) rotate(-0.28)"/><rect class="cls-7" x="734.98" y="732.42" width="4.5" height="2.06" transform="translate(-3.51 3.55) rotate(-0.28)"/><rect class="cls-7" x="734.96" y="728.3" width="4.5" height="2.06" transform="translate(-3.49 3.55) rotate(-0.28)"/><rect class="cls-6" x="574.54" y="759.97" width="4.5" height="2.06" transform="translate(-3.65 2.78) rotate(-0.28)"/><rect class="cls-6" x="574.52" y="755.85" width="4.5" height="2.06" transform="translate(-3.63 2.78) rotate(-0.28)"/><rect class="cls-6" x="574.5" y="751.73" width="4.5" height="2.06" transform="translate(-3.61 2.78) rotate(-0.28)"/><rect class="cls-6" x="574.48" y="747.61" width="4.5" height="2.06" transform="translate(-3.59 2.78) rotate(-0.28)"/><rect class="cls-6" x="574.46" y="743.49" width="4.5" height="2.06" transform="translate(-3.57 2.78) rotate(-0.28)"/><rect class="cls-6" x="574.44" y="739.37" width="4.5" height="2.06" transform="translate(-3.55 2.78) rotate(-0.28)"/><rect class="cls-6" x="574.42" y="735.25" width="4.5" height="2.06" transform="translate(-3.53 2.78) rotate(-0.28)"/><rect class="cls-6" x="574.4" y="731.13" width="4.5" height="2.06" transform="translate(-3.51 2.78) rotate(-0.28)"/><rect class="cls-6" x="574.38" y="727.01" width="4.5" height="2.06" transform="translate(-3.49 2.78) rotate(-0.28)"/><rect class="cls-6" x="735.11" y="759.2" width="4.5" height="2.06" transform="translate(-3.64 3.55) rotate(-0.28)"/><rect class="cls-6" x="735.09" y="755.08" width="4.5" height="2.06" transform="translate(-3.62 3.55) rotate(-0.28)"/><rect class="cls-6" x="735.07" y="750.96" width="4.5" height="2.06" transform="translate(-3.6 3.55) rotate(-0.28)"/><rect class="cls-6" x="735.05" y="746.84" width="4.5" height="2.06" transform="translate(-3.58 3.55) rotate(-0.28)"/><rect class="cls-6" x="735.03" y="742.72" width="4.5" height="2.06" transform="translate(-3.56 3.55) rotate(-0.28)"/><rect class="cls-6" x="735.01" y="738.6" width="4.5" height="2.06" transform="translate(-3.54 3.55) rotate(-0.28)"/><rect class="cls-6" x="734.99" y="734.48" width="4.5" height="2.06" transform="translate(-3.52 3.55) rotate(-0.28)"/><rect class="cls-6" x="734.97" y="730.36" width="4.5" height="2.06" transform="translate(-3.5 3.55) rotate(-0.28)"/><rect class="cls-6" x="734.95" y="726.24" width="4.5" height="2.06" transform="translate(-3.48 3.55) rotate(-0.28)"/><rect class="cls-7" x="734.94" y="724.18" width="4.5" height="2.06" transform="translate(-3.47 3.55) rotate(-0.28)"/><rect class="cls-6" x="573.73" y="767.75" width="6.8" height="21.83" transform="translate(-3.73 2.78) rotate(-0.28)"/><rect class="cls-6" x="571.03" y="789.58" width="12.96" height="8.71" transform="translate(-3.8 2.78) rotate(-0.28)"/><rect class="cls-6" x="506.53" y="768.08" width="6.8" height="21.83" transform="matrix(1, 0, 0, 1, -3.73, 2.46)"/><rect class="cls-6" x="503.83" y="789.9" width="12.96" height="8.71" transform="translate(-3.81 2.46) rotate(-0.28)"/><rect class="cls-6" x="733.95" y="766.98" width="6.8" height="21.83" transform="matrix(1, 0, 0, 1, -3.73, 3.55)"/><rect class="cls-6" x="731.25" y="788.81" width="12.96" height="8.71" transform="translate(-3.8 3.55) rotate(-0.28)"/><rect class="cls-6" x="801.15" y="766.66" width="6.8" height="21.83" transform="translate(-3.72 3.87) rotate(-0.28)"/><rect class="cls-6" x="798.45" y="788.49" width="12.96" height="8.71" transform="translate(-3.8 3.87) rotate(-0.28)"/></g><path class="cls-9" d="M10095.47,868.65c-100.15,9.72-1429.67,6.91-1557.49,6.91-158.45,0-801.57,21.63-924,8.4-724.87-78.35-3263.11-75.91-3814.13-30.84-142,11.61-696.57-15.57-1004.39,4.4s-507.89-13.32-754.14-20.19-514.37,41.78-760.62,43.22-593.77-16.38-1086.28-23-946.53-20.19-946.53-20.19c-364.78,0-566.78,107-686.81,117.33v72.2l12963.65,1V870.19C11523.6,870.3,10096.55,868.55,10095.47,868.65Z"/><rect class="cls-6" x="881.28" y="666.82" width="49.39" height="144.01"/><rect id="fenetre-33" data-name="fenetre" class="cls-3" x="886.31" y="673.91" width="6.9" height="12.34"/><rect id="fenetre-34" data-name="fenetre" class="cls-3" x="896.92" y="673.91" width="6.9" height="12.34"/><rect id="fenetre-35" data-name="fenetre" class="cls-3" x="907.53" y="673.91" width="6.9" height="12.34"/><rect id="fenetre-36" data-name="fenetre" class="cls-3" x="918.14" y="673.91" width="6.9" height="12.34"/><rect id="fenetre-37" data-name="fenetre" class="cls-3" x="886.31" y="690.48" width="6.9" height="12.34"/><rect id="fenetre-38" data-name="fenetre" class="cls-3" x="896.92" y="690.48" width="6.9" height="12.34"/><rect id="fenetre-39" data-name="fenetre" class="cls-3" x="907.53" y="690.48" width="6.9" height="12.34"/><rect id="fenetre-40" data-name="fenetre" class="cls-3" x="918.14" y="690.48" width="6.9" height="12.34"/><rect id="fenetre-41" data-name="fenetre" class="cls-3" x="886.31" y="707.05" width="6.9" height="12.34"/><rect id="fenetre-42" data-name="fenetre" class="cls-3" x="896.92" y="707.05" width="6.9" height="12.34"/><rect id="fenetre-43" data-name="fenetre" class="cls-3" x="907.53" y="707.05" width="6.9" height="12.34"/><rect id="fenetre-44" data-name="fenetre" class="cls-3" x="918.14" y="707.05" width="6.9" height="12.34"/><rect id="fenetre-45" data-name="fenetre" class="cls-3" x="886.31" y="723.63" width="6.9" height="12.34"/><rect id="fenetre-46" data-name="fenetre" class="cls-3" x="896.92" y="723.63" width="6.9" height="12.34"/><rect id="fenetre-47" data-name="fenetre" class="cls-3" x="907.53" y="723.63" width="6.9" height="12.34"/><rect id="fenetre-48" data-name="fenetre" class="cls-3" x="918.14" y="723.63" width="6.9" height="12.34"/><rect id="fenetre-49" data-name="fenetre" class="cls-3" x="886.31" y="740.2" width="6.9" height="12.34"/><rect id="fenetre-50" data-name="fenetre" class="cls-3" x="896.92" y="740.2" width="6.9" height="12.34"/><rect id="fenetre-51" data-name="fenetre" class="cls-3" x="907.53" y="740.2" width="6.9" height="12.34"/><rect id="fenetre-52" data-name="fenetre" class="cls-3" x="918.14" y="740.2" width="6.9" height="12.34"/><rect id="fenetre-53" data-name="fenetre" class="cls-3" x="886.31" y="756.78" width="6.9" height="12.34"/><rect id="fenetre-54" data-name="fenetre" class="cls-3" x="896.92" y="756.78" width="6.9" height="12.34"/><rect id="fenetre-55" data-name="fenetre" class="cls-3" x="907.53" y="756.78" width="6.9" height="12.34"/><rect id="fenetre-56" data-name="fenetre" class="cls-3" x="918.14" y="756.78" width="6.9" height="12.34"/><rect id="fenetre-57" data-name="fenetre" class="cls-3" x="886.31" y="773.35" width="6.9" height="12.34"/><rect id="fenetre-58" data-name="fenetre" class="cls-3" x="896.92" y="773.35" width="6.9" height="12.34"/><rect id="fenetre-59" data-name="fenetre" class="cls-3" x="907.53" y="773.35" width="6.9" height="12.34"/><rect id="fenetre-60" data-name="fenetre" class="cls-3" x="918.14" y="773.35" width="6.9" height="12.34"/><rect id="fenetre-61" data-name="fenetre" class="cls-3" x="886.31" y="789.93" width="6.9" height="12.34"/><rect id="fenetre-62" data-name="fenetre" class="cls-3" x="896.92" y="789.93" width="6.9" height="12.34"/><rect id="fenetre-63" data-name="fenetre" class="cls-3" x="907.53" y="789.93" width="6.9" height="12.34"/><rect id="fenetre-64" data-name="fenetre" class="cls-3" x="918.14" y="789.93" width="6.9" height="12.34"/><rect class="cls-6" x="944.75" y="579.82" width="75.17" height="219.18"/><rect id="fenetre-65" data-name="fenetre" class="cls-3" x="952.4" y="590.61" width="10.5" height="18.78"/><rect id="fenetre-66" data-name="fenetre" class="cls-3" x="968.55" y="590.61" width="10.5" height="18.78"/><rect id="fenetre-67" data-name="fenetre" class="cls-3" x="984.7" y="590.61" width="10.5" height="18.78"/><rect id="fenetre-68" data-name="fenetre" class="cls-3" x="1000.85" y="590.61" width="10.5" height="18.78"/><rect id="fenetre-69" data-name="fenetre" class="cls-3" x="952.4" y="615.84" width="10.5" height="18.78"/><rect id="fenetre-70" data-name="fenetre" class="cls-3" x="968.55" y="615.84" width="10.5" height="18.78"/><rect id="fenetre-71" data-name="fenetre" class="cls-3" x="984.7" y="615.84" width="10.5" height="18.78"/><rect id="fenetre-72" data-name="fenetre" class="cls-3" x="1000.85" y="615.84" width="10.5" height="18.78"/><rect id="fenetre-73" data-name="fenetre" class="cls-3" x="952.4" y="641.06" width="10.5" height="18.78"/><rect id="fenetre-74" data-name="fenetre" class="cls-3" x="968.55" y="641.06" width="10.5" height="18.78"/><rect id="fenetre-75" data-name="fenetre" class="cls-3" x="984.7" y="641.06" width="10.5" height="18.78"/><rect id="fenetre-76" data-name="fenetre" class="cls-3" x="1000.85" y="641.06" width="10.5" height="18.78"/><rect id="fenetre-77" data-name="fenetre" class="cls-3" x="952.4" y="666.29" width="10.5" height="18.78"/><rect id="fenetre-78" data-name="fenetre" class="cls-3" x="968.55" y="666.29" width="10.5" height="18.78"/><rect id="fenetre-79" data-name="fenetre" class="cls-3" x="984.7" y="666.29" width="10.5" height="18.78"/><rect id="fenetre-80" data-name="fenetre" class="cls-3" x="1000.85" y="666.29" width="10.5" height="18.78"/><rect id="fenetre-81" data-name="fenetre" class="cls-3" x="952.4" y="691.52" width="10.5" height="18.78"/><rect id="fenetre-82" data-name="fenetre" class="cls-3" x="968.55" y="691.52" width="10.5" height="18.78"/><rect id="fenetre-83" data-name="fenetre" class="cls-3" x="984.7" y="691.52" width="10.5" height="18.78"/><rect id="fenetre-84" data-name="fenetre" class="cls-3" x="1000.85" y="691.52" width="10.5" height="18.78"/><rect id="fenetre-85" data-name="fenetre" class="cls-3" x="952.4" y="716.74" width="10.5" height="18.78"/><rect id="fenetre-86" data-name="fenetre" class="cls-3" x="968.55" y="716.74" width="10.5" height="18.78"/><rect id="fenetre-87" data-name="fenetre" class="cls-3" x="984.7" y="716.74" width="10.5" height="18.78"/><rect id="fenetre-88" data-name="fenetre" class="cls-3" x="1000.85" y="716.74" width="10.5" height="18.78"/><rect id="fenetre-89" data-name="fenetre" class="cls-3" x="952.4" y="741.97" width="10.5" height="18.78"/><rect id="fenetre-90" data-name="fenetre" class="cls-3" x="968.55" y="741.97" width="10.5" height="18.78"/><rect id="fenetre-91" data-name="fenetre" class="cls-3" x="984.7" y="741.97" width="10.5" height="18.78"/><rect id="fenetre-92" data-name="fenetre" class="cls-3" x="1000.85" y="741.97" width="10.5" height="18.78"/><rect id="fenetre-93" data-name="fenetre" class="cls-3" x="952.4" y="767.19" width="10.5" height="18.78"/><rect id="fenetre-94" data-name="fenetre" class="cls-3" x="968.55" y="767.19" width="10.5" height="18.78"/><rect id="fenetre-95" data-name="fenetre" class="cls-3" x="984.7" y="767.19" width="10.5" height="18.78"/><rect id="fenetre-96" data-name="fenetre" class="cls-3" x="1000.85" y="767.19" width="10.5" height="18.78"/></g><g id="ECOLE"><rect class="cls-10" x="153.54" y="818.72" width="4.35" height="30.56"/><polygon class="cls-11" points="155.72 742.11 155.72 818.72 130.82 818.72 155.72 742.11"/><polyline class="cls-12" points="180.61 818.48 155.72 741.87 155.72 818.48"/><rect class="cls-10" x="1130.85" y="783.43" width="1.82" height="13.52"/><polygon class="cls-13" points="1131.76 749.53 1131.76 783.43 1121.35 783.43 1131.76 749.53"/><polyline class="cls-14" points="1142.18 783.33 1131.76 749.43 1131.76 783.33"/><rect class="cls-10" x="1266.23" y="812.4" width="6.4" height="47.6"/><polygon class="cls-13" points="1269.43 693.1 1269.43 812.4 1232.78 812.4 1269.43 693.1"/><polyline class="cls-14" points="1306.09 812.04 1269.43 692.73 1269.43 812.04"/><rect class="cls-10" x="97.44" y="812.57" width="1.82" height="13.52"/><polygon class="cls-13" points="98.35 778.67 98.35 812.57 87.94 812.57 98.35 778.67"/><polyline class="cls-14" points="108.77 812.46 98.35 778.56 98.35 812.46"/><rect class="cls-6" x="17.68" y="572.37" width="70.58" height="249.43"/><rect id="fenetre-97" data-name="fenetre" class="cls-3" x="28.7" y="591.83" width="11.85" height="218.59"/><rect id="fenetre-98" data-name="fenetre" class="cls-3" x="46.92" y="591.83" width="11.85" height="218.59"/><rect id="fenetre-99" data-name="fenetre" class="cls-3" x="65.15" y="591.83" width="11.85" height="218.59"/><rect class="cls-6" x="5.68" y="675.16" width="54.17" height="157.94"/><rect id="fenetre-100" data-name="fenetre" class="cls-3" x="11.19" y="682.93" width="7.56" height="13.53"/><rect id="fenetre-101" data-name="fenetre" class="cls-3" x="22.83" y="682.93" width="7.56" height="13.53"/><rect id="fenetre-102" data-name="fenetre" class="cls-3" x="34.47" y="682.93" width="7.56" height="13.53"/><rect id="fenetre-103" data-name="fenetre" class="cls-3" x="46.11" y="682.93" width="7.56" height="13.53"/><rect id="fenetre-104" data-name="fenetre" class="cls-3" x="11.19" y="701.11" width="7.56" height="13.53"/><rect id="fenetre-105" data-name="fenetre" class="cls-3" x="22.83" y="701.11" width="7.56" height="13.53"/><rect id="fenetre-106" data-name="fenetre" class="cls-3" x="34.47" y="701.11" width="7.56" height="13.53"/><rect id="fenetre-107" data-name="fenetre" class="cls-3" x="46.11" y="701.11" width="7.56" height="13.53"/><rect id="fenetre-108" data-name="fenetre" class="cls-3" x="11.19" y="719.29" width="7.56" height="13.53"/><rect id="fenetre-109" data-name="fenetre" class="cls-3" x="22.83" y="719.29" width="7.56" height="13.53"/><rect id="fenetre-110" data-name="fenetre" class="cls-3" x="34.47" y="719.29" width="7.56" height="13.53"/><rect id="fenetre-111" data-name="fenetre" class="cls-3" x="46.11" y="719.29" width="7.56" height="13.53"/><rect id="fenetre-112" data-name="fenetre" class="cls-3" x="11.19" y="737.47" width="7.56" height="13.53"/><rect id="fenetre-113" data-name="fenetre" class="cls-3" x="22.83" y="737.47" width="7.56" height="13.53"/><rect id="fenetre-114" data-name="fenetre" class="cls-3" x="34.47" y="737.47" width="7.56" height="13.53"/><rect id="fenetre-115" data-name="fenetre" class="cls-3" x="46.11" y="737.47" width="7.56" height="13.53"/><rect id="fenetre-116" data-name="fenetre" class="cls-3" x="11.19" y="755.64" width="7.56" height="13.53"/><rect id="fenetre-117" data-name="fenetre" class="cls-3" x="22.83" y="755.64" width="7.56" height="13.53"/><rect id="fenetre-118" data-name="fenetre" class="cls-3" x="34.47" y="755.64" width="7.56" height="13.53"/><rect id="fenetre-119" data-name="fenetre" class="cls-3" x="46.11" y="755.64" width="7.56" height="13.53"/><rect id="fenetre-120" data-name="fenetre" class="cls-3" x="11.19" y="773.82" width="7.56" height="13.53"/><rect id="fenetre-121" data-name="fenetre" class="cls-3" x="22.83" y="773.82" width="7.56" height="13.53"/><rect id="fenetre-122" data-name="fenetre" class="cls-3" x="34.47" y="773.82" width="7.56" height="13.53"/><rect id="fenetre-123" data-name="fenetre" class="cls-3" x="46.11" y="773.82" width="7.56" height="13.53"/><rect id="fenetre-124" data-name="fenetre" class="cls-3" x="11.19" y="792" width="7.56" height="13.53"/><rect id="fenetre-125" data-name="fenetre" class="cls-3" x="22.83" y="792" width="7.56" height="13.53"/><rect id="fenetre-126" data-name="fenetre" class="cls-3" x="34.47" y="792" width="7.56" height="13.53"/><rect id="fenetre-127" data-name="fenetre" class="cls-3" x="46.11" y="792" width="7.56" height="13.53"/><rect id="fenetre-128" data-name="fenetre" class="cls-3" x="11.19" y="810.17" width="7.56" height="13.53"/><rect id="fenetre-129" data-name="fenetre" class="cls-3" x="22.83" y="810.17" width="7.56" height="13.53"/><rect id="fenetre-130" data-name="fenetre" class="cls-3" x="34.47" y="810.17" width="7.56" height="13.53"/><rect id="fenetre-131" data-name="fenetre" class="cls-3" x="46.11" y="810.17" width="7.56" height="13.53"/><rect class="cls-10" x="151.83" y="847.62" width="12.12" height="85.42"/><polygon class="cls-13" points="157.89 633.5 157.89 847.62 88.53 847.62 157.89 633.5"/><polyline class="cls-14" points="227.25 846.96 157.89 632.84 157.89 846.96"/><polygon class="cls-13" points="1484.51 464.05 1484.51 815.62 1370.62 815.62 1484.51 464.05"/><path class="cls-13" d="M781.41,777.17s-11.75-1.42-15.72,22.78c-3.59,21.89,7.22,25.77,15.72,25.77Z"/><path class="cls-14" d="M781.41,777.17s11.75-1.42,15.72,22.78c3.59,21.89-7.22,25.77-15.72,25.77Z"/><rect class="cls-10" x="779.71" y="825.72" width="3.45" height="21.02"/><path class="cls-13" d="M1101.73,759.21S1090,757.8,1086,782c-3.59,21.88,7.22,25.76,15.72,25.76Z"/><path class="cls-14" d="M1101.73,759.21s11.75-1.41,15.72,22.79c3.59,21.88-7.22,25.76-15.72,25.76Z"/><rect class="cls-10" x="1100.03" y="807.76" width="3.45" height="21.02"/><path class="cls-13" d="M1168.1,757.4s-8.8-1.07-11.78,17.08c-2.7,16.41,5.41,19.33,11.78,19.33Z"/><path class="cls-14" d="M1168.1,757.4s8.81-1.07,11.79,17.08c2.7,16.41-5.41,19.33-11.79,19.33Z"/><rect class="cls-10" x="1166.83" y="793.81" width="2.59" height="15.77"/><path class="cls-13" d="M841.65,743.59s-10.18-1.72-13.63,27.67c-3.11,26.57,6.26,31.29,13.63,31.29Z"/><path class="cls-14" d="M841.65,743.59s10.19-1.72,13.63,27.67c3.12,26.57-6.26,31.29-13.63,31.29Z"/><rect class="cls-10" x="840.18" y="802.55" width="2.99" height="25.53"/><path class="cls-13" d="M79.52,800.94s-5.64-.68-7.54,10.94c-1.73,10.5,3.46,12.37,7.54,12.37Z"/><path class="cls-14" d="M79.52,800.94s5.64-.68,7.55,10.94c1.72,10.5-3.47,12.37-7.55,12.37Z"/><rect class="cls-10" x="78.71" y="824.25" width="1.65" height="10.09"/><path class="cls-13" d="M1345.35,762.23s-32.63-3.93-43.66,63.28c-10,60.77,20,71.57,43.66,71.57Z"/><path class="cls-14" d="M1345.35,762.23S1378,758.3,1389,825.51c10,60.77-20,71.57-43.65,71.57Z"/><rect class="cls-10" x="1340.63" y="897.08" width="9.58" height="58.39"/></g><g id="bateau"><line class="cls-15" x1="305.3" y1="815.79" x2="226.79" y2="815.79"/><line class="cls-15" x1="302.22" y1="820.86" x2="250.73" y2="820.86"/><line class="cls-15" x1="292.57" y1="810.03" x2="255.09" y2="810.72"/><line class="cls-15" x1="523.87" y1="817.89" x2="602.38" y2="817.89"/><line class="cls-15" x1="526.94" y1="812.81" x2="578.44" y2="812.81"/><line class="cls-15" x1="536.59" y1="823.64" x2="574.07" y2="822.96"/></g><g id="borne"><path class="cls-16" d="M449.94,669.19c.35-.89.65-1.75.89-2.56A14.7,14.7,0,0,0,449.94,669.19Z"/><path class="cls-17" d="M1009.5,653.31a126.72,126.72,0,0,0-1,20.27"/><path class="cls-17" d="M509.37,674.82a135.24,135.24,0,0,0-1.11,21.84"/></g></svg>