<svg id="fond" xmlns="http://www.w3.org/2000/svg" viewBox="0 0 1440 1024"><title>FOND HOME</title><path d="M1430.53,795.67c-70.12-6.63-200.3-35.71-351.41-6.53s-225.46-12.3-365.7,7.58c-116.37,16.49-195.19,67.79-218.65,84.78-4.4,3.18-8.84,6.31-13.37,9.33C351.55,977.42,892.34,995,1440,995.53V796.75C1436.65,796.32,1433.48,796,1430.53,795.67Z" style="fill:#dcefa2"/><rect x="1081.9" y="373.31" width="138.41" height="403.58" style="fill:#b0d5eb"/><rect id="fenetre" x="1095.98" y="393.17" width="19.33" height="34.58" style="fill:#cae2f1"/><rect id="fenetre-2" data-name="fenetre" x="1125.72" y="393.17" width="19.33" height="34.58" style="fill:#cae2f1"/><rect id="fenetre-3" data-name="fenetre" x="1155.46" y="393.17" width="19.33" height="34.58" style="fill:#cae2f1"/><rect id="fenetre-4" data-name="fenetre" x="1185.2" y="393.17" width="19.33" height="34.58" style="fill:#cae2f1"/><rect id="fenetre-5" data-name="fenetre" x="1095.98" y="439.62" width="19.33" height="34.58" style="fill:#cae2f1"/><rect id="fenetre-6" data-name="fenetre" x="1125.72" y="439.62" width="19.33" height="34.58" style="fill:#cae2f1"/><rect id="fenetre-7" data-name="fenetre" x="1155.46" y="439.62" width="19.33" height="34.58" style="fill:#cae2f1"/><rect id="fenetre-8" data-name="fenetre" x="1185.2" y="439.62" width="19.33" height="34.58" style="fill:#cae2f1"/><rect id="fenetre-9" data-name="fenetre" x="1095.98" y="486.07" width="19.33" height="34.58" style="fill:#cae2f1"/><rect id="fenetre-10" data-name="fenetre" x="1125.72" y="486.07" width="19.33" height="34.58" style="fill:#cae2f1"/><rect id="fenetre-11" data-name="fenetre" x="1155.46" y="486.07" width="19.33" height="34.58" style="fill:#cae2f1"/><rect id="fenetre-12" data-name="fenetre" x="1185.2" y="486.07" width="19.33" height="34.58" style="fill:#cae2f1"/><rect id="fenetre-13" data-name="fenetre" x="1095.98" y="532.52" width="19.33" height="34.58" style="fill:#cae2f1"/><rect id="fenetre-14" data-name="fenetre" x="1125.72" y="532.52" width="19.33" height="34.58" style="fill:#cae2f1"/><rect id="fenetre-15" data-name="fenetre" x="1155.46" y="532.52" width="19.33" height="34.58" style="fill:#cae2f1"/><rect id="fenetre-16" data-name="fenetre" x="1185.2" y="532.52" width="19.33" height="34.58" style="fill:#cae2f1"/><rect id="fenetre-17" data-name="fenetre" x="1095.98" y="578.97" width="19.33" height="34.58" style="fill:#cae2f1"/><rect id="fenetre-18" data-name="fenetre" x="1125.72" y="578.97" width="19.33" height="34.58" style="fill:#cae2f1"/><rect id="fenetre-19" data-name="fenetre" x="1155.46" y="578.97" width="19.33" height="34.58" style="fill:#cae2f1"/><rect id="fenetre-20" data-name="fenetre" x="1185.2" y="578.97" width="19.33" height="34.58" style="fill:#cae2f1"/><rect id="fenetre-21" data-name="fenetre" x="1095.98" y="625.42" width="19.33" height="34.58" style="fill:#cae2f1"/><rect id="fenetre-22" data-name="fenetre" x="1125.72" y="625.42" width="19.33" height="34.58" style="fill:#cae2f1"/><rect id="fenetre-23" data-name="fenetre" x="1155.46" y="625.42" width="19.33" height="34.58" style="fill:#cae2f1"/><rect id="fenetre-24" data-name="fenetre" x="1185.2" y="625.42" width="19.33" height="34.58" style="fill:#cae2f1"/><rect id="fenetre-25" data-name="fenetre" x="1095.98" y="671.86" width="19.33" height="34.58" style="fill:#cae2f1"/><rect id="fenetre-26" data-name="fenetre" x="1125.72" y="671.86" width="19.33" height="34.58" style="fill:#cae2f1"/><rect id="fenetre-27" data-name="fenetre" x="1155.46" y="671.86" width="19.33" height="34.58" style="fill:#cae2f1"/><rect id="fenetre-28" data-name="fenetre" x="1185.2" y="671.86" width="19.33" height="34.58" style="fill:#cae2f1"/><rect id="fenetre-29" data-name="fenetre" x="1095.98" y="718.31" width="19.33" height="34.58" style="fill:#cae2f1"/><rect id="fenetre-30" data-name="fenetre" x="1125.72" y="718.31" width="19.33" height="34.58" style="fill:#cae2f1"/><rect id="fenetre-31" data-name="fenetre" x="1155.46" y="718.31" width="19.33" height="34.58" style="fill:#cae2f1"/><rect id="fenetre-32" data-name="fenetre" x="1185.2" y="718.31" width="19.33" height="34.58" style="fill:#cae2f1"/><rect x="994.11" y="627.26" width="70.58" height="151.88" style="fill:#b0d5eb"/><rect id="fenetre-33" data-name="fenetre" x="1005.13" y="639.11" width="11.85" height="133.1" style="fill:#cae2f1"/><rect id="fenetre-34" data-name="fenetre" x="1023.35" y="639.11" width="11.85" height="133.1" style="fill:#cae2f1"/><rect id="fenetre-35" data-name="fenetre" x="1041.58" y="639.11" width="11.85" height="133.1" style="fill:#cae2f1"/><rect x="1214.93" y="770.98" width="8.46" height="70.64" style="fill:#3b6177"/><path d="M1227.14,662.89a12.85,12.85,0,0,0-12-.68c-5.34,2.49-13.25,8.88-19.6,25.31-8.9,23-26.13,66.26,3,84.83,14.16,9,32.86,8.73,45.83-1.93,13.57-11.14,23.62-35-1.35-86C1243,684.39,1237.6,669,1227.14,662.89Z" style="fill:#afcc5a"/><path d="M670.81,835.33C306,835.33,120,940.38,0,950.69V1024l1440,.75c.49-56.75.17-112,0-171.38C1027.2,846.33,670.81,835.33,670.81,835.33Z" style="fill:#b7df41"/><g id="ecole_batiment" data-name="ecole batiment"><rect x="609.9" y="761.85" width="107.76" height="88.28" style="fill:#ffc441"/><rect x="615.32" y="767.31" width="11.21" height="29.47" style="fill:#fcf8f0"/><rect x="615.32" y="767.31" width="11.21" height="9.17" style="fill:#e3deca"/><rect x="613.84" y="796.79" width="14.04" height="1.63" style="fill:#e3deca"/><rect x="632.71" y="767.41" width="11.21" height="29.47" style="fill:#fcf8f0"/><rect x="632.71" y="767.41" width="11.21" height="9.17" style="fill:#e3deca"/><rect x="631.24" y="796.88" width="14.04" height="1.63" style="fill:#e3deca"/><rect x="649.47" y="767.41" width="11.21" height="29.47" style="fill:#fcf8f0"/><rect x="649.47" y="767.41" width="11.21" height="9.17" style="fill:#e3deca"/><rect x="648" y="796.88" width="14.04" height="1.63" style="fill:#e3deca"/><rect x="666.23" y="767.41" width="11.21" height="29.47" style="fill:#fcf8f0"/><rect x="666.23" y="767.41" width="11.21" height="9.17" style="fill:#e3deca"/><rect x="664.75" y="796.88" width="14.04" height="1.63" style="fill:#e3deca"/><rect x="682.99" y="767.41" width="11.21" height="29.47" style="fill:#fcf8f0"/><rect x="682.99" y="767.41" width="11.21" height="9.17" style="fill:#e3deca"/><rect x="681.51" y="796.88" width="14.04" height="1.63" style="fill:#e3deca"/><rect x="699.75" y="767.41" width="11.21" height="29.47" style="fill:#fcf8f0"/><rect x="699.75" y="767.41" width="11.21" height="9.17" style="fill:#e3deca"/><rect x="698.27" y="796.88" width="14.04" height="1.63" style="fill:#e3deca"/><rect x="615.32" y="814.24" width="11.21" height="29.47" style="fill:#fcf8f0"/><rect x="615.32" y="814.24" width="11.21" height="9.17" style="fill:#e3deca"/><rect x="613.98" y="843.58" width="14.04" height="1.63" style="fill:#e3deca"/><rect x="632.71" y="814.33" width="11.21" height="29.47" style="fill:#fcf8f0"/><rect x="632.71" y="814.33" width="11.21" height="9.17" style="fill:#e3deca"/><rect x="631.37" y="843.68" width="14.04" height="1.63" style="fill:#e3deca"/><rect x="682.69" y="814.24" width="11.21" height="29.47" style="fill:#fcf8f0"/><rect x="682.69" y="814.24" width="11.21" height="9.17" style="fill:#e3deca"/><rect x="681.35" y="843.58" width="14.04" height="1.63" style="fill:#e3deca"/><rect x="700.08" y="814.33" width="11.21" height="29.47" style="fill:#fcf8f0"/><rect x="700.08" y="814.33" width="11.21" height="9.17" style="fill:#e3deca"/><rect x="698.74" y="843.68" width="14.04" height="1.63" style="fill:#e3deca"/><rect x="653.46" y="814.24" width="20.64" height="35.89" style="fill:#fcf8f0"/><polygon points="604.09 763.53 722.47 763.53 712.06 755.05 616.3 755.05 604.09 763.53" style="fill:#f99a04"/><rect x="717.66" y="806.64" width="60.08" height="43.48" style="fill:#ffc441"/><rect x="723.91" y="814.24" width="11.21" height="29.47" style="fill:#fcf8f0"/><rect x="723.91" y="814.24" width="11.21" height="9.17" style="fill:#e3deca"/><rect x="722.44" y="843.71" width="14.04" height="1.63" style="fill:#e3deca"/><rect x="741.31" y="814.33" width="11.21" height="29.47" style="fill:#fcf8f0"/><rect x="741.31" y="814.33" width="11.21" height="9.17" style="fill:#e3deca"/><rect x="739.83" y="843.8" width="14.04" height="1.63" style="fill:#e3deca"/><rect x="759.07" y="814.33" width="11.21" height="29.47" style="fill:#fcf8f0"/><rect x="759.07" y="814.33" width="11.21" height="9.17" style="fill:#e3deca"/><rect x="757.59" y="843.8" width="14.04" height="1.63" style="fill:#e3deca"/><polygon points="717.66 810.48 782.15 810.48 775.81 802.41 717.53 802.41 717.66 810.48" style="fill:#f99a04"/><rect id="facade_gauche" data-name="facade gauche" x="550.08" y="806.64" width="60.08" height="43.48" style="fill:#ffc441"/><rect id="fenetre-36" data-name="fenetre" x="556.33" y="814.24" width="11.21" height="29.47" style="fill:#fcf8f0"/><rect id="rideau" x="556.33" y="814.24" width="11.21" height="9.17" style="fill:#e3deca"/><rect id="rebord_f" data-name="rebord f" x="554.85" y="843.71" width="14.04" height="1.63" style="fill:#e3deca"/><rect id="fenetre-37" data-name="fenetre" x="573.73" y="814.33" width="11.21" height="29.47" style="fill:#fcf8f0"/><rect id="rideau-2" data-name="rideau" x="573.73" y="814.33" width="11.21" height="9.17" style="fill:#e3deca"/><rect id="rebord_f-2" data-name="rebord f" x="572.25" y="843.8" width="14.04" height="1.63" style="fill:#e3deca"/><rect id="fenetre-38" data-name="fenetre" x="591.49" y="814.33" width="11.21" height="29.47" style="fill:#fcf8f0"/><rect id="rideau-3" data-name="rideau" x="591.49" y="814.33" width="11.21" height="9.17" style="fill:#e3deca"/><rect id="rebord_f-3" data-name="rebord f" x="590.01" y="843.8" width="14.04" height="1.63" style="fill:#e3deca"/><polygon points="610.11 809.25 545.62 809.25 551.96 801.18 610.24 801.18 610.11 809.25" style="fill:#f99a04"/><rect x="645.28" y="802.41" width="37.71" height="8.16" style="fill:#fcf8f0"/><text transform="translate(654.01 808.98)" style="font-size:7.37313985824585px;font-family:MyriadPro-Regular, Myriad Pro">E<tspan x="3.63" y="0" style="letter-spacing:-0.020993112734311415em">C</tspan><tspan x="7.75" y="0">OLE</tspan></text></g><polygon points="758.16 785.45 855.14 785.45 806.65 609.78 758.16 785.45" style="fill:#598104"/><rect x="803.99" y="785.45" width="9.97" height="70.08" style="fill:#004b78"/><g id="GRANDE_MAISOn" data-name="GRANDE MAISOn"><polygon points="1255.11 799.02 1284.36 799.02 1284.36 773.98 1255.11 782.4 1255.11 799.02" style="fill:#fbc74f"/><path d="M1252.55,782.72h.55V784s0,.21.68.31,1.49.17,1.49,1.48v12.93a1.23,1.23,0,0,1-.29.76l-.48-.11.18-.3a1.1,1.1,0,0,0,.07-.52c0-.38,0-13.19,0-13.19a.54.54,0,0,0-.54-.56c-.58-.08-1.62-.16-1.63-.69S1252.55,782.72,1252.55,782.72Z" style="fill:#a1a0a4"/><polygon points="1284.36 773.21 1284.36 775.05 1249.41 784.82 1248.82 783.98 1248.31 783.23 1284.36 773.21" style="fill:#d3d3d3"/><rect x="1266.06" y="782.73" width="13.99" height="10.69" style="fill:#d1eced"/><rect x="1265.26" y="793.42" width="15.2" height="0.58" style="fill:#0177be"/><rect x="1284.36" y="763.39" width="46.04" height="35.63" style="fill:#fbb84f"/><path d="M1280.05,764.09h.93v2.74s0,.44,1.13.65,2.49.36,2.49,3.11v27.23a3,3,0,0,1-.5,1.59l-.8-.23.32-.64a2.79,2.79,0,0,0,.11-1.09c0-.8,0-27.75,0-27.75a1.13,1.13,0,0,0-.91-1.19c-1-.17-2.7-.34-2.72-1.46S1280.05,764.09,1280.05,764.09Z" style="fill:#a1a0a4"/><ellipse cx="1283.71" cy="799.32" rx="0.22" ry="0.42" transform="translate(314.99 1960.53) rotate(-82.07)" style="fill:#ccc8b8"/><rect x="1296.7" y="782.73" width="6.58" height="16.29" style="fill:#4da0d1"/><rect x="1297.87" y="783.96" width="1.39" height="13.45" style="fill:#d1eced"/><rect x="1297" y="790.21" width="0.33" height="1.87" style="fill:#00324e"/><rect x="1297.17" y="790.65" width="1.4" height="0.17" style="fill:#00324e"/><rect x="1278.2" y="762.3" width="52.19" height="2.31" style="fill:#d3d3d3"/><rect x="1286.98" y="783.96" width="7.29" height="9.47" style="fill:#d1eced"/><rect x="1286.57" y="793.43" width="7.92" height="0.3" style="fill:#0177be"/><rect x="1307.9" y="769.09" width="7.29" height="9.47" style="fill:#d1eced"/><rect x="1307.49" y="778.57" width="7.92" height="0.3" style="fill:#0177be"/><rect x="1298.81" y="769.09" width="2.88" height="9.47" style="fill:#d1eced"/><rect x="1298.54" y="778.57" width="3.42" height="0.3" style="fill:#0177be"/><rect x="1286.56" y="769.09" width="7.29" height="9.47" style="fill:#d1eced"/><rect x="1286.15" y="778.57" width="7.92" height="0.3" style="fill:#0177be"/><rect x="1305.82" y="782.33" width="21.71" height="16.75" style="fill:#d1eced"/><line x1="1316.97" y1="782.33" x2="1316.97" y2="799.07" style="fill:none;stroke:#00324e;stroke-miterlimit:10;stroke-width:0.083677991633957px"/><rect x="1305.82" y="790.21" width="0.33" height="1.87" style="fill:#00324e"/><rect x="1305.56" y="791.15" width="1.4" height="0.17" transform="translate(1490.52 -724.82) rotate(65.73)" style="fill:#00324e"/><rect x="1327.2" y="790.21" width="0.33" height="1.87" transform="translate(2654.73 1582.3) rotate(-180)" style="fill:#00324e"/><rect x="1326.39" y="791.15" width="1.4" height="0.17" transform="translate(2593.95 -93.22) rotate(114.27)" style="fill:#00324e"/><rect x="1318.78" y="769.09" width="7.29" height="9.47" style="fill:#d1eced"/><rect x="1318.37" y="778.57" width="7.92" height="0.3" style="fill:#0177be"/><rect x="1330.39" y="779.01" width="27.33" height="20.01" style="fill:#fbc74f"/><rect x="1336.02" y="784.82" width="17.34" height="14.21" style="fill:#4da0d1"/><path d="M1360.08,780.09h-.56v1.46s0,.23-.7.35-1.53.19-1.53,1.66v14.53a1.4,1.4,0,0,0,.3.84l.49-.12-.19-.34a1.32,1.32,0,0,1-.07-.58c0-.43,0-14.81,0-14.81a.59.59,0,0,1,.55-.63c.6-.09,1.67-.18,1.67-.78S1360.08,780.09,1360.08,780.09Z" style="fill:#a1a0a4"/><ellipse cx="1357.84" cy="798.87" rx="0.26" ry="0.15" transform="translate(-108.31 222.39) rotate(-9.01)" style="fill:#ccc8b8"/><rect x="1330.4" y="778.32" width="31.16" height="2.31" style="fill:#d3d3d3"/></g><g id="petite_maison" data-name="petite maison"><polygon points="822.32 901.2 1001.24 901.2 1001.24 748.02 822.32 799.51 822.32 901.2" style="fill:#00324e"/><path d="M806.68,801.47h3.38v8s0,1.26,4.17,1.89,9.11,1,9.11,9V899.5s-.08,3-1.82,4.62l-2.93-.69,1.14-1.84a6.54,6.54,0,0,0,.43-3.16c-.06-2.34-.21-80.66-.21-80.66s.24-3-3.3-3.45-9.92-1-10-4.24S806.68,801.47,806.68,801.47Z" style="fill:#79787d"/><ellipse cx="820.07" cy="903.78" rx="0.8" ry="1.54" transform="matrix(0.13, -0.99, 0.99, 0.13, -184.98, 1596.03)" style="fill:#ccc8b8"/><polygon points="1001.24 743.29 1001.24 754.53 787.49 814.3 783.86 809.19 780.75 804.59 1001.24 743.29" style="fill:#d3d3d3"/><rect x="889.31" y="801.53" width="85.57" height="65.39" style="fill:#cae2f1"/><rect x="884.45" y="866.92" width="92.98" height="3.58" style="fill:#004b78"/><polygon points="1001.24 724.39 1001.24 901.2 1192.51 901.2 1192.51 778.79 1001.24 724.39" style="fill:#0177be"/><path d="M984.6,728.77h3.69v13.58s0,2.15,4.53,3.22,9.93,1.79,9.93,15.37V895.71s-.09,5.11-2,7.87l-3.19-1.16,1.25-3.15a17.21,17.21,0,0,0,.46-5.38c-.07-4-.23-137.36-.23-137.36s.27-5-3.59-5.88-10.8-1.68-10.86-7.21S984.6,728.77,984.6,728.77Z" style="fill:#79787d"/><ellipse cx="999.18" cy="903" rx="1.33" ry="1.71" transform="translate(-220.72 1473.63) rotate(-67.17)" style="fill:#ccc8b8"/><polygon points="973.21 727.43 1194.47 788.65 1194.83 773.14 974.64 711.8 973.21 727.43" style="fill:#d3d3d3"/><rect x="1004.92" y="801.53" width="40.22" height="99.67" style="fill:#004b78"/><rect x="1012.04" y="809.06" width="8.48" height="82.29" style="fill:#cae2f1"/><rect x="1006.76" y="847.32" width="2.03" height="11.43" style="fill:#083c61"/><rect x="1007.78" y="849.99" width="8.53" height="1.01" style="fill:#083c61"/><rect x="1096.5" y="818.82" width="55.4" height="42.34" style="fill:#cae2f1"/><rect x="1093.36" y="861.15" width="63.32" height="2.32" style="fill:#004b78"/></g><rect x="1360.26" y="776.5" width="2.05" height="17.08" style="fill:#3b6177"/><path d="M1363.21,750.37a3.1,3.1,0,0,0-2.91-.16c-1.29.6-3.2,2.14-4.73,6.11-2.16,5.57-6.32,16,.73,20.51a9.49,9.49,0,0,0,11.08-.47c3.28-2.69,5.71-8.47-.33-20.79C1367.05,755.57,1365.74,751.86,1363.21,750.37Z" style="fill:#afcc5a"/><rect x="750.05" y="818.27" width="12.46" height="104.05" style="fill:#004b78"/><path d="M768,659.07a18.93,18.93,0,0,0-17.73-1c-7.86,3.66-19.51,13.07-28.86,37.27-13.11,33.94-38.5,97.59,4.47,124.94,20.86,13.28,48.39,12.86,67.5-2.84,20-16.41,34.78-51.6-2-126.7C791.42,690.74,783.43,668.12,768,659.07Z" style="fill:#88b309"/></svg>