<svg id="Calque_1" data-name="Calque 1" xmlns="http://www.w3.org/2000/svg" viewBox="0 0 4081.89 2902.68"><title>MODELE HOME</title><path d="M4078.94,2634.67c0-5.4-1-19.17.38-24.56,1.35-43.15-1.35-85,0-128.1a74.13,74.13,0,0,0,2.57-16.68c.57-65.2,0-130.56,0-195.33-4.48-.51-4.34-.46-8.52-.85-199-18.84-597-104.32-1025.9-21.5s-639.87-34.93-1037.89,21.5c-330.26,46.82-553.95,192.41-620.54,240.62-12.48,9-25.09,17.91-38,26.48-366.4,244.34,1183.12,295.05,2728.51,297.11C4079.52,2764.68,4078.35,2703.06,4078.94,2634.67Z" style="fill:#dde7af"/><rect x="3055.39" y="1067.47" width="392.81" height="1145.41" style="fill:#c5d2ed"/><rect id="fenetre" x="3095.37" y="1123.85" width="54.86" height="98.15" style="fill:#d8e0f3"/><rect id="fenetre-2" data-name="fenetre" x="3179.77" y="1123.85" width="54.86" height="98.15" style="fill:#d8e0f3"/><rect id="fenetre-3" data-name="fenetre" x="3264.17" y="1123.85" width="54.86" height="98.15" style="fill:#d8e0f3"/><rect id="fenetre-4" data-name="fenetre" x="3348.57" y="1123.85" width="54.86" height="98.15" style="fill:#d8e0f3"/><rect id="fenetre-5" data-name="fenetre" x="3095.37" y="1255.68" width="54.86" height="98.15" style="fill:#d8e0f3"/><rect id="fenetre-6" data-name="fenetre" x="3179.77" y="1255.68" width="54.86" height="98.15" style="fill:#d8e0f3"/><rect id="fenetre-7" data-name="fenetre" x="3264.17" y="1255.68" width="54.86" height="98.15" style="fill:#d8e0f3"/><rect id="fenetre-8" data-name="fenetre" x="3348.57" y="1255.68" width="54.86" height="98.15" style="fill:#d8e0f3"/><rect id="fenetre-9" data-name="fenetre" x="3095.37" y="1387.5" width="54.86" height="98.15" style="fill:#d8e0f3"/><rect id="fenetre-10" data-name="fenetre" x="3179.77" y="1387.5" width="54.86" height="98.15" style="fill:#d8e0f3"/><rect id="fenetre-11" data-name="fenetre" x="3264.17" y="1387.5" width="54.86" height="98.15" style="fill:#d8e0f3"/><rect id="fenetre-12" data-name="fenetre" x="3348.57" y="1387.5" width="54.86" height="98.15" style="fill:#d8e0f3"/><rect id="fenetre-13" data-name="fenetre" x="3095.37" y="1519.33" width="54.86" height="98.15" style="fill:#d8e0f3"/><rect id="fenetre-14" data-name="fenetre" x="3179.77" y="1519.33" width="54.86" height="98.15" style="fill:#d8e0f3"/><rect id="fenetre-15" data-name="fenetre" x="3264.17" y="1519.33" width="54.86" height="98.15" style="fill:#d8e0f3"/><rect id="fenetre-16" data-name="fenetre" x="3348.57" y="1519.33" width="54.86" height="98.15" style="fill:#d8e0f3"/><rect id="fenetre-17" data-name="fenetre" x="3095.37" y="1651.15" width="54.86" height="98.15" style="fill:#d8e0f3"/><rect id="fenetre-18" data-name="fenetre" x="3179.77" y="1651.15" width="54.86" height="98.15" style="fill:#d8e0f3"/><rect id="fenetre-19" data-name="fenetre" x="3264.17" y="1651.15" width="54.86" height="98.15" style="fill:#d8e0f3"/><rect id="fenetre-20" data-name="fenetre" x="3348.57" y="1651.15" width="54.86" height="98.15" style="fill:#d8e0f3"/><rect id="fenetre-21" data-name="fenetre" x="3095.37" y="1782.97" width="54.86" height="98.15" style="fill:#d8e0f3"/><rect id="fenetre-22" data-name="fenetre" x="3179.77" y="1782.97" width="54.86" height="98.15" style="fill:#d8e0f3"/><rect id="fenetre-23" data-name="fenetre" x="3264.17" y="1782.97" width="54.86" height="98.15" style="fill:#d8e0f3"/><rect id="fenetre-24" data-name="fenetre" x="3348.57" y="1782.97" width="54.86" height="98.15" style="fill:#d8e0f3"/><rect id="fenetre-25" data-name="fenetre" x="3095.37" y="1914.8" width="54.86" height="98.15" style="fill:#d8e0f3"/><rect id="fenetre-26" data-name="fenetre" x="3179.77" y="1914.8" width="54.86" height="98.15" style="fill:#d8e0f3"/><rect id="fenetre-27" data-name="fenetre" x="3264.17" y="1914.8" width="54.86" height="98.15" style="fill:#d8e0f3"/><rect id="fenetre-28" data-name="fenetre" x="3348.57" y="1914.8" width="54.86" height="98.15" style="fill:#d8e0f3"/><rect id="fenetre-29" data-name="fenetre" x="3095.37" y="2046.62" width="54.86" height="98.15" style="fill:#d8e0f3"/><rect id="fenetre-30" data-name="fenetre" x="3179.77" y="2046.62" width="54.86" height="98.15" style="fill:#d8e0f3"/><rect id="fenetre-31" data-name="fenetre" x="3264.17" y="2046.62" width="54.86" height="98.15" style="fill:#d8e0f3"/><rect id="fenetre-32" data-name="fenetre" x="3348.57" y="2046.62" width="54.86" height="98.15" style="fill:#d8e0f3"/><rect x="2806.25" y="1788.22" width="200.3" height="431.05" style="fill:#c5d2ed"/><rect id="fenetre-33" data-name="fenetre" x="2837.52" y="1821.85" width="33.62" height="377.76" style="fill:#d8e0f3"/><rect id="fenetre-34" data-name="fenetre" x="2889.24" y="1821.85" width="33.62" height="377.76" style="fill:#d8e0f3"/><rect id="fenetre-35" data-name="fenetre" x="2940.96" y="1821.85" width="33.62" height="377.76" style="fill:#d8e0f3"/><rect x="3432.96" y="2196.1" width="24.02" height="200.5" style="fill:#3f516a"/><path d="M3467.61,1889.34a36.49,36.49,0,0,0-34.17-1.94c-15.15,7.06-37.6,25.2-55.62,71.83-25.26,65.39-74.18,188.05,8.61,240.76,40.2,25.59,93.26,24.77,130.09-5.48,38.5-31.63,67-99.43-3.85-244.15C3512.67,1950.36,3497.29,1906.77,3467.61,1889.34Z" style="fill:#b4cb72"/><path d="M4079.32,2610.11c-1.35,5.39-5.39,12.13-5.39,17.53-.85,98.71-.63,198-.35,297.07q.14-19.78.35-39.53c0-1.35,5.39-4,5.39-5.39,1-132.39.47-265.6.16-398.35-.05.19-.11.38-.16.57C4078,2525.16,4080.67,2567,4079.32,2610.11Z" style="fill:#b5cf48"/><path d="M1631.21,2902.68c351-.16,1288.38.38,2450.68,0V2427.81c-1181-20-2133-49.08-2133-49.08-1033.4,0-1605,17.84-1948.89,46.67v477.28" style="fill:#b5cf48"/><rect x="1715.81" y="2170.18" width="305.84" height="250.54" style="fill:#fcc342"/><rect x="1731.2" y="2185.7" width="31.82" height="83.64" style="fill:#fcf9f1"/><rect x="1731.2" y="2185.7" width="31.82" height="26.02" style="fill:#e2deca"/><rect x="1727.01" y="2269.34" width="39.85" height="4.63" style="fill:#e2deca"/><rect x="1780.57" y="2185.96" width="31.82" height="83.64" style="fill:#fcf9f1"/><rect x="1780.57" y="2185.96" width="31.82" height="26.02" style="fill:#e2deca"/><rect x="1776.37" y="2269.61" width="39.85" height="4.63" style="fill:#e2deca"/><rect x="1828.13" y="2185.96" width="31.82" height="83.64" style="fill:#fcf9f1"/><rect x="1828.13" y="2185.96" width="31.82" height="26.02" style="fill:#e2deca"/><rect x="1823.94" y="2269.61" width="39.85" height="4.63" style="fill:#e2deca"/><rect x="1875.69" y="2185.96" width="31.82" height="83.64" style="fill:#fcf9f1"/><rect x="1875.69" y="2185.96" width="31.82" height="26.02" style="fill:#e2deca"/><rect x="1871.5" y="2269.61" width="39.85" height="4.63" style="fill:#e2deca"/><rect x="1923.25" y="2185.96" width="31.82" height="83.64" style="fill:#fcf9f1"/><rect x="1923.25" y="2185.96" width="31.82" height="26.02" style="fill:#e2deca"/><rect x="1919.06" y="2269.61" width="39.85" height="4.63" style="fill:#e2deca"/><rect x="1970.81" y="2185.96" width="31.82" height="83.64" style="fill:#fcf9f1"/><rect x="1970.81" y="2185.96" width="31.82" height="26.02" style="fill:#e2deca"/><rect x="1966.62" y="2269.61" width="39.85" height="4.63" style="fill:#e2deca"/><rect x="1731.2" y="2318.87" width="31.82" height="83.64" style="fill:#fcf9f1"/><rect x="1731.2" y="2318.87" width="31.82" height="26.02" style="fill:#e2deca"/><rect x="1727.4" y="2402.16" width="39.85" height="4.63" style="fill:#e2deca"/><rect x="1780.57" y="2319.14" width="31.82" height="83.64" style="fill:#fcf9f1"/><rect x="1780.57" y="2319.14" width="31.82" height="26.02" style="fill:#e2deca"/><rect x="1776.76" y="2402.43" width="39.85" height="4.63" style="fill:#e2deca"/><rect x="1922.4" y="2318.87" width="31.82" height="83.64" style="fill:#fcf9f1"/><rect x="1922.4" y="2318.87" width="31.82" height="26.02" style="fill:#e2deca"/><rect x="1918.59" y="2402.16" width="39.85" height="4.63" style="fill:#e2deca"/><rect x="1971.76" y="2319.14" width="31.82" height="83.64" style="fill:#fcf9f1"/><rect x="1971.76" y="2319.14" width="31.82" height="26.02" style="fill:#e2deca"/><rect x="1967.96" y="2402.43" width="39.85" height="4.63" style="fill:#e2deca"/><rect x="1839.43" y="2318.87" width="58.59" height="101.85" style="fill:#fcf9f1"/><polygon points="1699.32 2174.95 2035.3 2174.95 2005.75 2150.89 1733.98 2150.89 1699.32 2174.95" style="fill:#f49913"/><rect x="2021.64" y="2297.31" width="170.52" height="123.41" style="fill:#fcc342"/><rect x="2039.4" y="2318.87" width="31.82" height="83.64" style="fill:#fcf9f1"/><rect x="2039.4" y="2318.87" width="31.82" height="26.02" style="fill:#e2deca"/><rect x="2035.21" y="2402.51" width="39.85" height="4.63" style="fill:#e2deca"/><rect x="2088.77" y="2319.14" width="31.82" height="83.64" style="fill:#fcf9f1"/><rect x="2088.77" y="2319.14" width="31.82" height="26.02" style="fill:#e2deca"/><rect x="2084.57" y="2402.78" width="39.85" height="4.63" style="fill:#e2deca"/><rect x="2139.18" y="2319.14" width="31.82" height="83.64" style="fill:#fcf9f1"/><rect x="2139.18" y="2319.14" width="31.82" height="26.02" style="fill:#e2deca"/><rect x="2134.99" y="2402.78" width="39.85" height="4.63" style="fill:#e2deca"/><polygon points="2021.64 2308.2 2204.68 2308.2 2186.69 2285.31 2021.28 2285.31 2021.64 2308.2" style="fill:#f49913"/><rect id="facade_gauche" data-name="facade gauche" x="1546.03" y="2297.31" width="170.52" height="123.41" style="fill:#fcc342"/><rect id="fenetre-36" data-name="fenetre" x="1563.79" y="2318.87" width="31.82" height="83.64" style="fill:#fcf9f1"/><rect id="rideau" x="1563.79" y="2318.87" width="31.82" height="26.02" style="fill:#e2deca"/><rect id="rebord_f" data-name="rebord f" x="1559.59" y="2402.51" width="39.85" height="4.63" style="fill:#e2deca"/><rect id="fenetre-37" data-name="fenetre" x="1613.15" y="2319.14" width="31.82" height="83.64" style="fill:#fcf9f1"/><rect id="rideau-2" data-name="rideau" x="1613.15" y="2319.14" width="31.82" height="26.02" style="fill:#e2deca"/><rect id="rebord_f-2" data-name="rebord f" x="1608.96" y="2402.78" width="39.85" height="4.63" style="fill:#e2deca"/><rect id="fenetre-38" data-name="fenetre" x="1663.57" y="2319.14" width="31.82" height="83.64" style="fill:#fcf9f1"/><rect id="rideau-3" data-name="rideau" x="1663.57" y="2319.14" width="31.82" height="26.02" style="fill:#e2deca"/><rect id="rebord_f-3" data-name="rebord f" x="1659.37" y="2402.78" width="39.85" height="4.63" style="fill:#e2deca"/><polygon points="1716.41 2304.7 1533.38 2304.7 1551.37 2281.82 1716.78 2281.82 1716.41 2304.7" style="fill:#f49913"/><rect x="1816.23" y="2285.31" width="107.03" height="23.16" style="fill:#fcf9f1"/><text transform="translate(1841.01 2303.93)" style="font-size:20.925710678100586px;fill:#010101;font-family:MyriadPro-Regular, Myriad Pro">E<tspan x="10.3" y="0" style="letter-spacing:-0.02100063083926232em">C</tspan><tspan x="21.99" y="0">OLE</tspan></text><polygon points="2136.6 2237.17 2411.85 2237.17 2274.22 1738.61 2136.6 2237.17" style="fill:#5a822e"/><rect x="2266.66" y="2237.17" width="28.29" height="198.9" style="fill:#004c79"/><polygon points="3546.98 2275.69 3629.99 2275.69 3629.99 2204.62 3546.98 2228.51 3546.98 2275.69" style="fill:#fcc769"/><path d="M3539.72,2229.42h1.57v3.7s0,.58,1.93.88,4.23.48,4.23,4.18v36.72a3.46,3.46,0,0,1-.84,2.14l-1.36-.31.53-.86a3.1,3.1,0,0,0,.19-1.47c0-1.08-.09-37.42-.09-37.42a1.55,1.55,0,0,0-1.53-1.6c-1.65-.23-4.6-.46-4.63-2S3539.72,2229.42,3539.72,2229.42Z" style="fill:#9d9b9f"/><polygon points="3629.99 2202.43 3629.99 2207.64 3530.82 2235.37 3529.13 2233 3527.69 2230.87 3629.99 2202.43" style="fill:#d3d3d3"/><rect x="3578.06" y="2229.45" width="39.7" height="30.34" style="fill:#d2eaec"/><rect x="3575.81" y="2259.79" width="43.14" height="1.66" style="fill:#0877bd"/><rect x="3629.99" y="2174.57" width="130.65" height="101.12" style="fill:#fab965"/><path d="M3617.78,2176.54h2.62v7.79s0,1.23,3.23,1.84,7.06,1,7.06,8.82v77.29s-.07,2.93-1.41,4.51l-2.27-.66.88-1.81a7.75,7.75,0,0,0,.33-3.08c0-2.28-.16-78.78-.16-78.78a3.18,3.18,0,0,0-2.56-3.37c-2.75-.48-7.68-1-7.72-4.14S3617.78,2176.54,3617.78,2176.54Z" style="fill:#9d9b9f"/><ellipse cx="3628.15" cy="2276.53" rx="0.63" ry="1.19" transform="translate(873.02 5556.06) rotate(-82.07)" style="fill:#ccc8b8"/><rect x="3665.03" y="2229.45" width="18.66" height="46.24" style="fill:#719cd2"/><rect x="3668.33" y="2232.94" width="3.93" height="38.18" style="fill:#d2eaec"/><rect x="3665.89" y="2250.69" width="0.94" height="5.3" style="fill:#0d334d"/><rect x="3666.36" y="2251.93" width="3.96" height="0.47" style="fill:#0d334d"/><rect x="3612.53" y="2171.47" width="148.11" height="6.55" style="fill:#d3d3d3"/><rect x="3637.45" y="2232.94" width="20.68" height="26.88" style="fill:#d2eaec"/><rect x="3636.28" y="2259.82" width="22.47" height="0.86" style="fill:#0877bd"/><rect x="3696.82" y="2190.75" width="20.68" height="26.88" style="fill:#d2eaec"/><rect x="3695.65" y="2217.63" width="22.47" height="0.86" style="fill:#0877bd"/><rect x="3671.01" y="2190.75" width="8.16" height="26.88" style="fill:#d2eaec"/><rect x="3670.24" y="2217.63" width="9.69" height="0.86" style="fill:#0877bd"/><rect x="3636.26" y="2190.75" width="20.68" height="26.88" style="fill:#d2eaec"/><rect x="3635.09" y="2217.63" width="22.47" height="0.86" style="fill:#0877bd"/><rect x="3690.9" y="2228.31" width="61.63" height="47.53" style="fill:#d2eaec"/><line x1="3722.57" y1="2228.31" x2="3722.57" y2="2275.84" style="fill:none;stroke:#0d334d;stroke-miterlimit:10;stroke-width:0.23748650310175px"/><rect x="3690.9" y="2250.69" width="0.94" height="5.3" style="fill:#0d334d"/><rect x="3690.18" y="2253.36" width="3.96" height="0.47" transform="translate(4228.6 -2038.61) rotate(65.73)" style="fill:#0d334d"/><rect x="3751.59" y="2250.69" width="0.94" height="5.3" transform="translate(7504.12 4506.68) rotate(-180)" style="fill:#0d334d"/><rect x="3749.29" y="2253.36" width="3.96" height="0.47" transform="translate(7347.81 -239.51) rotate(114.27)" style="fill:#0d334d"/><rect x="3727.7" y="2190.75" width="20.68" height="26.88" style="fill:#d2eaec"/><rect x="3726.53" y="2217.63" width="22.47" height="0.86" style="fill:#0877bd"/><rect x="3760.64" y="2218.9" width="77.57" height="56.79" style="fill:#fcc769"/><rect x="3776.6" y="2235.37" width="49.22" height="40.32" style="fill:#719cd2"/><path d="M3844.92,2222h-1.62v4.16s0,.65-2,1-4.35.55-4.35,4.71V2273a4.09,4.09,0,0,0,.87,2.41l1.4-.36-.55-1a3.73,3.73,0,0,1-.2-1.65c0-1.21.1-42,.1-42a1.7,1.7,0,0,1,1.57-1.79c1.69-.26,4.73-.52,4.76-2.21S3844.92,2222,3844.92,2222Z" style="fill:#9d9b9f"/><ellipse cx="3838.53" cy="2275.26" rx="0.73" ry="0.41" transform="translate(-308.83 628.9) rotate(-9.01)" style="fill:#ccc8b8"/><rect x="3760.68" y="2216.93" width="88.43" height="6.55" style="fill:#d3d3d3"/><polygon points="2318.68 2565.67 2826.49 2565.67 2826.49 2130.93 2318.68 2277.06 2318.68 2565.67" style="fill:#0d334e"/><path d="M2274.29,2282.62h9.61v22.64s0,3.58,11.82,5.36,25.87,3,25.87,25.62v224.61s-.24,8.51-5.18,13.1l-8.31-1.93,3.25-5.24s1.37-2.35,1.2-9-.59-228.93-.59-228.93.69-8.39-9.37-9.79-28.15-2.79-28.3-12S2274.29,2282.62,2274.29,2282.62Z" style="fill:#79797e"/><ellipse cx="2312.29" cy="2573" rx="2.26" ry="4.36" transform="matrix(0.13, -0.99, 0.99, 0.13, -546.03, 4521.6)" style="fill:#ccc8b8"/><polygon points="2826.49 2117.51 2826.49 2149.41 2219.84 2319.05 2209.53 2304.55 2200.7 2291.5 2826.49 2117.51" style="fill:#d3d3d3"/><rect x="2508.8" y="2282.8" width="242.86" height="185.59" style="fill:#d8e0f3"/><rect x="2495.03" y="2468.39" width="263.88" height="10.15" style="fill:#004c79"/><polygon points="2826.49 2063.87 2826.49 2565.67 3369.32 2565.67 3369.32 2218.28 2826.49 2063.87" style="fill:#0877bd"/><path d="M2779.26,2076.3h10.46v38.56s0,6.08,12.88,9.13,28.16,5.07,28.16,43.62V2550.1s-.26,14.5-5.64,22.32l-9-3.29,3.54-8.93s1.49-4,1.31-15.27-.65-389.85-.65-389.85.76-14.29-10.2-16.67-30.64-4.76-30.81-20.48S2779.26,2076.3,2779.26,2076.3Z" style="fill:#79797e"/><ellipse cx="2820.64" cy="2570.8" rx="3.76" ry="4.86" transform="translate(-643.06 4173.25) rotate(-67.17)" style="fill:#ccc8b8"/><polygon points="2746.92 2072.5 3374.89 2246.26 3375.91 2202.23 2750.98 2028.15 2746.92 2072.5" style="fill:#d3d3d3"/><rect x="2836.91" y="2282.8" width="114.16" height="282.87" style="fill:#004c79"/><rect x="2857.14" y="2304.18" width="24.07" height="233.55" style="fill:#d8e0f3"/><rect x="2842.16" y="2412.76" width="5.75" height="32.43" style="fill:#0b3c60"/><rect x="2845.03" y="2420.35" width="24.22" height="2.87" style="fill:#0b3c60"/><rect x="3096.85" y="2331.87" width="157.24" height="120.16" style="fill:#d8e0f3"/><rect x="3087.93" y="2452.03" width="179.7" height="6.57" style="fill:#004c79"/><rect x="3845.42" y="2211.77" width="5.81" height="48.47" style="fill:#3f516a"/><path d="M3853.8,2137.61a8.83,8.83,0,0,0-8.26-.47c-3.67,1.71-9.09,6.09-13.45,17.37-6.11,15.8-17.93,45.45,2.08,58.2,9.72,6.18,22.55,6,31.45-1.33,9.31-7.64,16.2-24-.93-59C3864.69,2152.36,3861,2141.83,3853.8,2137.61Z" style="fill:#b4cb72"/><rect x="2113.58" y="2330.31" width="35.37" height="295.3" style="fill:#004c79"/><path d="M2164.61,1878.5c-15.52-9.12-34-10.45-50.31-2.85-22.33,10.38-55.39,37.11-81.93,105.79-37.21,96.31-109.26,277,12.68,354.59,59.21,37.69,137.36,36.49,191.6-8.06,56.71-46.59,98.7-146.45-5.67-359.6C2231,1968.37,2208.32,1904.18,2164.61,1878.5Z" style="fill:#88b326"/><rect x="292.85" y="2256.12" width="983.48" height="222.73" rx="46.32" ry="46.32" style="fill:#0d334d"/><path d="M3609.4,527.45a42.78,42.78,0,0,0,24.22,7.1h178.83s36.81-.23,35.34-36.49-36.26-33.32-36.26-33.32,6.86-26.45-20.58-39.68c0,0-17.15-10.78-38.21,0,0,0-26.95-32.34-65.17-25-38.86,7.47-48.51,29.89-53.41,54.87,0,0-39.68-1.47-40.66,41.16A35.62,35.62,0,0,0,3609.4,527.45Z" style="fill:#dae1f4"/><path d="M1581.1,553.75s17.2-29.93,53.09-28.31c0,0,35.88,1.62,43.16,28.31,0,0,22.65-10.51,40.45,7.28a34.73,34.73,0,0,1,12.13,28.31s28.31,11.33,23.46,44.49-44.49,30.73-44.49,30.73-25.08,21.92-55.81,0c0,0-29.12,22.61-52.58,1.58,0,0-50.9,27.36-78.21-24-9.42-17.71-10.7-39-1.86-57C1528.52,568.72,1545.51,552.54,1581.1,553.75Z" style="fill:#dae1f4"/><path d="M3427.7,589.71h165.4c12.17,0,24.15-4.25,33-12.63,7.64-7.26,14-18.28,12.81-34.64,0,0-3.63-34.54-35.45-38.18,0,0-1.82-22.73-30-14.55,0,0-6.36-18.18-28.18-10.9,0,0-2.73-44.55-51.82-44.55s-50.91,40.91-50.91,40.91-31.82-9.09-37.27,27.27c0,0-29.09,3.64-32.73,41.82-1.95,20.45,11.24,32,23.9,38.38A69.74,69.74,0,0,0,3427.7,589.71Z" style="fill:#dae1f4"/><path d="M1740.84,622.06s14.13-30.69,65.58-24.25c0,0,7.06-31.5,55.49-33.65s61.54,29,61.54,29,23.21-11.77,51.46,6.85c0,0,15.13,9.12,15.13,22.1,0,0,47.42,20.14,30.27,51.64s-52.46,28.64-72.64,26.49c0,0-33.3,48.68-104.93,14.32,0,0-43.38,34.36-88.78-10,0,0-46.78,15.32-74.09-14-12.3-13.2-15.43-30-6.86-44.58C1680.86,632.52,1699,619,1740.84,622.06Z" style="fill:#dae1f4"/><path d="M2380.67,409.94s17.24-39.62,80-31.3c0,0,8.62-40.66,67.72-43.43s75.1,37.36,75.1,37.36,28.32-15.18,62.79,8.84c0,0,18.47,11.78,18.47,28.53,0,0,57.87,26,36.94,66.66s-64,37-88.65,34.19c0,0-40.63,62.84-128,18.48,0,0-53,44.36-108.35-12.93,0,0-57.09,19.77-90.41-18.07-15-17-18.83-38.68-8.37-57.54C2307.48,423.45,2329.66,406,2380.67,409.94Z" style="fill:#dae1f4"/><path d="M2874,756.72h165.4c12.18,0,24.15-4.26,33-12.64,7.63-7.25,14-18.27,12.81-34.64,0,0-3.64-34.54-35.46-38.18,0,0-1.82-22.72-30-14.54,0,0-6.36-18.18-28.18-10.91,0,0-2.73-44.55-51.82-44.55s-50.9,40.91-50.9,40.91-31.82-9.09-37.28,27.27c0,0-29.09,3.64-32.72,41.82-1.95,20.46,11.23,32,23.89,38.39A69.74,69.74,0,0,0,2874,756.72Z" style="fill:#dae1f4"/><path d="M241.25,276.52s10-30.69,46.54-24.25c0,0,5-31.5,39.37-33.65s43.67,28.95,43.67,28.95,16.47-11.76,36.51,6.85c0,0,10.74,9.12,10.74,22.1,0,0,33.65,20.14,21.48,51.64S402.33,356.8,388,354.65c0,0-23.62,48.68-74.45,14.32,0,0-30.79,34.36-63-10,0,0-33.2,15.32-52.57-14-8.73-13.2-11-30-4.87-44.58C198.69,287,211.58,273.43,241.25,276.52Z" style="fill:#dae1f4"/><path d="M951,349.6s17.24-39.61,80-31.3c0,0,8.62-40.66,67.72-43.43s75.1,37.37,75.1,37.37,28.32-15.19,62.79,8.84c0,0,18.47,11.77,18.47,28.52,0,0,57.86,26,36.93,66.66s-64,37-88.64,34.19c0,0-40.63,62.84-128,18.49,0,0-52.94,44.35-108.34-12.94,0,0-57.09,19.77-90.41-18.06-15-17.05-18.83-38.69-8.38-57.55C877.78,363.11,900,345.61,951,349.6Z" style="fill:#dae1f4"/><path d="M0,715.06H154.77c19.19,0,38.07-4.26,52-12.64,12-7.25,22-18.27,20.2-34.64,0,0-5.73-34.54-55.9-38.18,0,0-2.86-22.72-47.3-14.54,0,0-10-18.18-44.43-10.91,0,0-1.92-44.55-79.32-44.55Z" style="fill:#dae1f4"/><path d="M4081.89,689.74C4059.25,701.86,4058,719.9,4058,719.9s-48.32-9.09-56.61,27.27c0,0-44.18,3.64-49.7,41.82-3,20.45,17.06,32,36.29,38.38,14.7,4.85,31.07,7.07,47.51,7.07h45.25C4080.72,786.18,4081.6,738,4081.89,689.74Z" style="fill:#dae1f4"/><text transform="translate(306.1 1175.55)" style="font-size:140px;fill:#88b326;font-family:NeoSansStd-Medium, Neo Sans Std">La <tspan x="183.96" y="0" style="letter-spacing:-0.021986607142857145em">R</tspan><tspan x="272.3" y="0">égion </tspan><tspan x="670.17" y="0" style="letter-spacing:-0.021990094866071428em">P</tspan><tspan x="754.73" y="0" style="letter-spacing:-0.024993024553571427em">a</tspan><tspan x="827.95" y="0">ys de la </tspan><tspan x="1355.75" y="0" style="letter-spacing:-0.015000697544642857em">L</tspan><tspan x="1425.89" y="0">oi</tspan><tspan x="1543.76" y="0" style="letter-spacing:-0.018994140625em">r</tspan><tspan x="1593.6" y="0">e</tspan><tspan style="font-size:120px"><tspan x="0" y="157">pour la t</tspan><tspan x="461.16" y="157" style="letter-spacing:-0.02398681640625em">r</tspan><tspan x="503.28" y="157">ansition éne</tspan><tspan x="1190.39" y="157" style="letter-spacing:-0.018998209635416666em">r</tspan><tspan x="1233.11" y="157">g</tspan><tspan x="1303.19" y="157" style="letter-spacing:-0.019986979166666665em">é</tspan><tspan x="1369.67" y="157">tique</tspan></tspan></text><text transform="translate(313.41 1576.31)" style="font-size:56px;fill:#1d1d1b;font-family:AvantGarde-Book, ITC Avant Garde Gothic">Suivez la jou<tspan x="326.92" y="0" style="letter-spacing:0.02099609375em">r</tspan><tspan x="344.95" y="0">née de Monsieur Mo</tspan><tspan x="903.88" y="0" style="letter-spacing:-0.00390625em">r</tspan><tspan x="920.52" y="0">eau et Madame Dubois </tspan><tspan x="0" y="78">et découv</tspan><tspan x="283.64" y="78" style="letter-spacing:-0.00390625em">r</tspan><tspan x="300.27" y="78">ez comment la </tspan><tspan x="723.96" y="78" style="font-family:AvantGarde-Demi, ITC Avant Garde Gothic">Région Pays de la Loire </tspan><tspan x="0" y="156">les accompagne pour une consommation d’éne</tspan><tspan x="1336.65" y="156" style="letter-spacing:0.0009765625em">r</tspan><tspan x="1353.56" y="156">gie plus verte.</tspan></text><text transform="translate(416.17 2394.05)" style="font-size:72px;fill:#fff;font-family:AvantGarde-Bold, ITC Avant Garde Gothic;font-weight:700">Démar<tspan x="246.53" y="0" style="letter-spacing:-0.004001193576388889em">r</tspan><tspan x="272.37" y="0">er l’a</tspan><tspan x="461.15" y="0" style="letter-spacing:-0.019985622829861112em">v</tspan><tspan x="502.34" y="0">entu</tspan><tspan x="665.27" y="0" style="letter-spacing:-0.004001193576388889em">r</tspan><tspan x="691.12" y="0">e</tspan></text></svg>