<svg xmlns="http://www.w3.org/2000/svg" viewBox="0 0 252.53 163.14"><title>Nuage 1Fichier 7</title><g id="Calque_2" data-name="Calque 2"><g id="Calque_1-2" data-name="Calque 1"><path d="M51.57,58s10-30.69,46.53-24.25c0,0,5-31.5,39.38-33.64s43.67,28.94,43.67,28.94,16.46-11.76,36.51,6.85c0,0,10.74,9.12,10.74,22.1,0,0,33.65,20.14,21.48,51.64s-37.23,28.64-51.55,26.49c0,0-23.62,48.68-74.46,14.32,0,0-30.78,34.36-63-10,0,0-33.19,15.32-52.57-14-8.72-13.2-11-30-4.87-44.58C9,68.47,21.9,54.91,51.57,58Z" style="fill:#dae1f4"/></g></g></svg>