<svg xmlns="http://www.w3.org/2000/svg" viewBox="0 0 509.58 201.81"><title>Nuage 3 Fichier 9</title><g id="Calque_2" data-name="Calque 2"><g id="Calque_1-2" data-name="Calque 1"><path d="M66.63,28.37S83.83-1.55,119.72.06c0,0,35.88,1.62,43.16,28.31,0,0,22.65-10.51,40.45,7.28A34.73,34.73,0,0,1,215.46,64s28.31,11.33,23.46,44.49-44.49,30.74-44.49,30.74-25.08,21.91-55.81,0c0,0-29.12,22.6-52.58,1.57,0,0-50.9,27.36-78.21-24-9.42-17.71-10.7-39-1.86-57C14.05,43.34,31,27.16,66.63,28.37Z" style="fill:#dae1f4"/><path d="M226.37,96.68S240.5,66,292,72.43c0,0,7.06-31.5,55.49-33.65s61.54,29,61.54,29S432.19,56,460.44,74.58c0,0,15.13,9.12,15.13,22.1,0,0,47.42,20.14,30.27,51.64S453.38,177,433.2,174.81c0,0-33.3,48.68-104.93,14.32,0,0-43.38,34.36-88.78-10,0,0-46.78,15.33-74.09-14-12.3-13.2-15.43-30-6.86-44.58C166.39,107.14,184.56,93.59,226.37,96.68Z" style="fill:#dae1f4"/></g></g></svg>