<svg xmlns="http://www.w3.org/2000/svg" viewBox="0 0 434.29 210.58"><title>Nuage 2Fichier 8</title><g id="Calque_2" data-name="Calque 2"><g id="Calque_1-2" data-name="Calque 1"><path d="M88.68,74.87s17.24-39.62,80-31.3c0,0,8.62-40.66,67.71-43.43S311.53,37.5,311.53,37.5s28.32-15.18,62.79,8.84c0,0,18.47,11.78,18.47,28.53,0,0,57.86,26,36.93,66.66s-64,37-88.64,34.19c0,0-40.63,62.84-128,18.48,0,0-52.94,44.36-108.34-12.93,0,0-57.09,19.77-90.41-18.07-15-17-18.83-38.68-8.38-57.54C15.49,88.38,37.66,70.88,88.68,74.87Z" style="fill:#dae1f4"/></g></g></svg>