<svg xmlns="http://www.w3.org/2000/svg" viewBox="0 0 266.69 155.45"><title>Nuage 3 Fichier 10</title><g id="Calque_2" data-name="Calque 2"><g id="Calque_1-2" data-name="Calque 1"><path d="M55.37,155.45h165.4c12.17,0,24.15-4.25,33-12.63,7.64-7.26,14-18.28,12.81-34.64,0,0-3.63-34.54-35.45-38.18,0,0-1.82-22.73-30-14.55,0,0-6.36-18.18-28.18-10.91,0,0-2.73-44.54-51.82-44.54S70.19,40.91,70.19,40.91,38.37,31.82,32.92,68.18c0,0-29.09,3.64-32.73,41.82-1.95,20.45,11.24,32,23.9,38.38A69.74,69.74,0,0,0,55.37,155.45Z" style="fill:#dae1f4"/></g></g></svg>