<?xml version="1.0" encoding="utf-8"?>
<!-- Generator: Adobe Illustrator 23.1.1, SVG Export Plug-In . SVG Version: 6.00 Build 0)  -->
<svg version="1.1" id="Calque_1" xmlns="http://www.w3.org/2000/svg" xmlns:xlink="http://www.w3.org/1999/xlink" x="0px" y="0px"
	 viewBox="0 0 90.71 104.88" style="enable-background:new 0 0 90.71 104.88;" xml:space="preserve">
<style type="text/css">
	.st0{fill:none;stroke:#0D4239;stroke-width:1.75;stroke-miterlimit:10;}
	.st1{fill:#0D4239;}
	.st2{fill:#FFFFFF;stroke:#0D4239;stroke-width:1.75;stroke-miterlimit:10;}
	.st3{fill:none;stroke:#0D4239;stroke-width:1.75;stroke-linejoin:round;stroke-miterlimit:10;}
</style>
<path class="st0" d="M20.57,90.57c0,0-9.13-6.4-6.24-10.99c0.46-0.73,1.3-1.49,1.84-1.86c1.87-1.28,4.38-1.1,6.14,0.33
	c3.48,2.82,12.23,9.29,18.5,8.43c3.16-0.44,6.36-2.17,9.07-4.1c3.55-2.54,6.49-5.81,8.93-9.42c2.11-3.12,5.97-7.58,10.2-5.97
	c6.57,2.49,1.16,9.81,1.16,9.81l-0.72,1.12"/>
<path class="st1" d="M55.62,88.75c0,0-4.41-2.3-1.93-5.03s5.35-0.87,5.98-4.09c0.63-3.23,1.08-5.39,3.24-5.5
	c2.1-0.11,4.54,4.72,7.17,3.65c2.62-1.07,2.53-4.09,6.04-2.92c3.52,1.17,1.18,5.37,2.39,6.15s4.27-0.68,4.72,1.68
	c0.45,2.37-1.57,5.09-1.57,5.09"/>
<path class="st2" d="M7.7,89.22l75.67-2.4c0,0-3.61,13.2-22.92,15.32l-25.89,0.82C34.56,102.96,13.44,103.63,7.7,89.22z"/>
<polyline class="st0" points="14.34,79.57 9.18,77.52 14.2,72.16 16.77,77.37 "/>
<polyline class="st0" points="68.74,66.88 69.35,61.17 75.23,64.8 70.67,67.88 "/>
<path class="st3" d="M35.04,73.58c0,0-10.83-15.21-9.62-20.78l1.53-5.09L7.8,4.64C7.68,4.38,7.7,4.07,7.85,3.82l0,0
	C9,1.92,11.33,1.11,13.41,1.87l0,0c0.06,0.02,0.12,0.08,0.14,0.14l15.07,45.02l4.63,2.83c0,0,3.81,0.15,7.46,21.47l-6.94-15.86
	l-1.36-0.81l-0.17,1.54l5.61,16.32l-7.06-15.84l-1.31-0.8l-0.27,1.51L35.04,73.58z"/>
</svg>
