<?xml version="1.0" encoding="utf-8"?>
<!-- Generator: Adobe Illustrator 23.1.1, SVG Export Plug-In . SVG Version: 6.00 Build 0)  -->
<svg version="1.1" id="Calque_1" xmlns="http://www.w3.org/2000/svg" xmlns:xlink="http://www.w3.org/1999/xlink" x="0px" y="0px"
	 viewBox="0 0 90.71 104.88" style="enable-background:new 0 0 90.71 104.88;" xml:space="preserve">
<style type="text/css">
	.st0{fill:none;stroke:#0D4239;stroke-width:2;stroke-linejoin:round;stroke-miterlimit:10;}
	.st1{fill:#FFFFFF;stroke:#0D4239;stroke-width:2;stroke-linejoin:round;stroke-miterlimit:10;}
</style>
<path class="st0" d="M32.77,16.36l-1.94,0.71c-17.25-0.74-15.03,5.05-15.03,5.05c-8.34-4.26-12.15,1.1-12.15,1.1l-2.18,0.67
	l0.49,2.35c-2.07,7.33,6.6,10.81,6.6,10.81c-3.75,8.52,4.1,10.44,4.1,10.44l10.33,29.31c0,0-4.91,6.41,3.35,10.7
	c0,0-4.57,8.15,1.64,12.55l1.09,2.14l2.12-0.85c0,0,6.33,1.79,10.15-6.76c0,0,1.9,5.9,14.87-5.49l1.95-0.67"/>
<path class="st0" d="M58.17,88.41l1.73-0.6c17.25,0.7,15.01-5.09,15.01-5.09c8.35,4.24,12.14-1.13,12.14-1.13l2.18-0.67l-0.5-2.35
	c2.05-7.33-6.62-10.79-6.62-10.79c3.73-8.53-4.12-10.43-4.12-10.43L67.68,28.11c0,0,4.93-6.4-3.33-10.71c0,0,4.59-8.13-1.61-12.56
	l-1.08-2.14l-2.12,0.84c0,0-6.33-1.81-10.17,6.73c0,0-1.88-5.91-14.88,5.46l-1.73,0.62"/>
<rect x="25" y="22.56" transform="matrix(0.9431 -0.3325 0.3325 0.9431 -14.9602 18.1706)" class="st1" width="41.22" height="60.47"/>
<path class="st0" d="M36.23,88.16c0,0,9.87-29.41,38.87-13.71"/>
<circle class="st0" cx="47.8" cy="58.99" r="8.59"/>
</svg>
