<?xml version="1.0" encoding="utf-8"?>
<!-- Generator: Adobe Illustrator 23.1.1, SVG Export Plug-In . SVG Version: 6.00 Build 0)  -->
<svg version="1.1" id="Calque_1" xmlns="http://www.w3.org/2000/svg" xmlns:xlink="http://www.w3.org/1999/xlink" x="0px" y="0px"
	 viewBox="0 0 90.71 104.88" style="enable-background:new 0 0 90.71 104.88;" xml:space="preserve">
<style type="text/css">
	.st0{fill:none;stroke:#0D4239;stroke-width:2;stroke-linejoin:round;stroke-miterlimit:10;}
	.st1{fill:#0D4239;}
	.st2{fill:#FFFFFF;stroke:#0D4239;stroke-width:2;stroke-linejoin:round;stroke-miterlimit:10;}
</style>
<path class="st0" d="M18.06,85.23l24.94,6.33c0,0-9.78-7.12-10.26-11.87C32.74,79.68,27.41,85.87,18.06,85.23z"/>
<path class="st0" d="M32.74,79.68l7.51-29.59c0,0-1.55-9.36-13.05-18.44c-9.88-7.8-7.65-17.07-7.65-17.07l54.74,13.89
	c0,0-3.12,10.31-15.64,11.92c-12.52,1.62-18.4,9.71-18.4,9.71"/>
<path class="st1" d="M21.18,24.49l47.23,11.98c0,0-3.79,3.29-9.75,3.92c-5.96,0.63-12.92,3.28-18.4,9.71c0,0-2.17-10.64-13.05-18.44
	C27.2,31.65,22.39,27.58,21.18,24.49z"/>
<circle class="st2" cx="59.2" cy="24.73" r="5.85"/>
</svg>
