<?xml version="1.0" encoding="utf-8"?>
<!-- Generator: Adobe Illustrator 23.1.1, SVG Export Plug-In . SVG Version: 6.00 Build 0)  -->
<svg version="1.1" id="Calque_1" xmlns="http://www.w3.org/2000/svg" xmlns:xlink="http://www.w3.org/1999/xlink" x="0px" y="0px"
	 viewBox="0 0 90.71 104.88" style="enable-background:new 0 0 90.71 104.88;" xml:space="preserve">
<style type="text/css">
	.st0{fill:#FFFFFF;stroke:#FFFFFF;stroke-width:0.75;stroke-miterlimit:10;}
</style>
<g>
	<path class="st0" d="M44.35,81.45c-2.58,0-5.21-0.51-7.85-1.55c-5.61-2.19-10.56-6.65-13.94-12.55L3.48,34.02l40.8-1.14
		c5.65-0.16,10.83,1.24,14.93,4.03c5.28,3.6,8.38,8.68,9.21,15.09l0,0c1.09,8.42-2.47,17.19-9.53,23.45
		C54.4,79.43,49.47,81.45,44.35,81.45z M6.83,35.9l17.44,30.48c3.15,5.51,7.75,9.66,12.94,11.69c7.26,2.83,14.12,1.45,20.38-4.1
		c6.57-5.83,9.89-13.94,8.88-21.72l0,0c-0.76-5.83-3.57-10.44-8.37-13.71c-3.75-2.56-8.49-3.83-13.76-3.69L6.83,35.9z"/>
</g>
<g>
	<polygon class="st0" points="81.58,76.45 64.34,67.13 4.7,35.83 5.62,34.09 65.27,65.39 82.52,74.72 	"/>
</g>
<g>
	<polygon class="st0" points="28.43,73.99 27.75,72.14 56.01,61.67 47.77,34.38 49.66,33.81 58.43,62.88 	"/>
</g>
<g>
	<polygon class="st0" points="21.72,64.2 21.01,62.36 41.92,54.28 36.29,34.33 38.19,33.8 44.31,55.47 	"/>
</g>
<g>
	<polygon class="st0" points="16.06,54.28 15.32,52.45 28.46,47.2 25.36,34.61 27.28,34.13 30.79,48.4 	"/>
</g>
</svg>
