<?xml version="1.0" encoding="utf-8"?>
<!-- Generator: Adobe Illustrator 23.1.1, SVG Export Plug-In . SVG Version: 6.00 Build 0)  -->
<svg version="1.1" id="Calque_1" xmlns="http://www.w3.org/2000/svg" xmlns:xlink="http://www.w3.org/1999/xlink" x="0px" y="0px"
	 viewBox="0 0 90.71 104.88" style="enable-background:new 0 0 90.71 104.88;" xml:space="preserve">
<style type="text/css">
	.st0{fill:#FFFFFF;stroke:#FFFFFF;stroke-width:0.5;stroke-miterlimit:10;}
</style>
<g>
	<path class="st0" d="M62.88,62.64c-0.97,1.87-2.33,3.58-4.08,5.11C55.1,71,50,72.91,44.46,73.13L13.1,74.41L27.64,44.4
		c2.01-4.16,4.98-7.38,8.55-9.31c4.6-2.47,9.45-2.81,14.41-1l0,0c6.52,2.38,11.53,8.27,13.41,15.74
		C65.2,54.6,64.81,58.93,62.88,62.64z M15.72,72.69l28.67-1.16c5.18-0.21,9.92-1.98,13.35-4.98c4.79-4.2,6.37-9.69,4.71-16.32
		c-1.75-6.96-6.38-12.42-12.4-14.62l0,0c-4.51-1.65-8.91-1.34-13.09,0.9c-3.27,1.76-5.98,4.71-7.86,8.59L15.72,72.69z"/>
</g>
<g>
	<polygon class="st0" points="73.28,33.77 60.03,42.76 14.87,74.21 13.95,72.88 59.11,41.43 72.37,32.44 	"/>
</g>
<g>
	<polygon class="st0" points="51.47,71.38 49.87,71.18 52.93,46.74 30.04,42.44 30.34,40.85 54.72,45.44 	"/>
</g>
<g>
	<polygon class="st0" points="41.85,72.55 40.25,72.38 42.26,54.17 25.68,50.74 26.01,49.16 44.03,52.89 	"/>
</g>
<g>
	<polygon class="st0" points="32.52,72.92 30.92,72.76 32.06,61.26 21.76,58.77 22.14,57.2 33.8,60.03 	"/>
</g>
</svg>
