<?xml version="1.0" encoding="utf-8"?>
<!-- Generator: Adobe Illustrator 23.1.1, SVG Export Plug-In . SVG Version: 6.00 Build 0)  -->
<svg version="1.1" id="Calque_1" xmlns="http://www.w3.org/2000/svg" xmlns:xlink="http://www.w3.org/1999/xlink" x="0px" y="0px"
	 viewBox="0 0 90.71 104.88" style="enable-background:new 0 0 90.71 104.88;" xml:space="preserve">
<style type="text/css">
	.st0{fill:#FFFFFF;}
	.st1{fill:none;stroke:#FFFFFF;stroke-width:2;stroke-miterlimit:10;}
	.st2{fill:none;stroke:#FFFFFF;stroke-width:2;stroke-linejoin:round;stroke-miterlimit:10;}
</style>
<path class="st0" d="M9.01,75.35l34-44.55c0,0-2.21-15.17-0.81-17.45c0,0,6.09,8.21,12.56,10.78l3.01,8.8
	c1.54,4.51,0.96,9.51-1.76,13.43c-3.24,4.67-9.19,11-20.03,17.59C14.41,77.07,9.01,75.35,9.01,75.35z"/>
<path class="st1" d="M17.7,93.82l10.57,4.79L48.22,54.6L34.13,65.06C34.13,65.06,33.23,67.83,17.7,93.82z"/>
<polyline class="st1" points="50.88,52.47 54.32,57.36 63.98,53.17 "/>
<path class="st1" d="M42.83,15.3c0,0,1.39-12.99,10.42-7.81c0,0,5.71,3.74,1.31,11.46l-0.82,5.44"/>
<circle class="st0" cx="50.58" cy="13.09" r="0.89"/>
<path class="st2" d="M55.39,9.99c0,0,3.39,5.73,16.46,12.06l-15.96-6.23C55.89,15.82,56.97,12.05,55.39,9.99z"/>
</svg>
