<?xml version="1.0" encoding="utf-8"?>
<!-- Generator: Adobe Illustrator 23.1.1, SVG Export Plug-In . SVG Version: 6.00 Build 0)  -->
<svg version="1.1" id="Calque_1" xmlns="http://www.w3.org/2000/svg" xmlns:xlink="http://www.w3.org/1999/xlink" x="0px" y="0px"
	 viewBox="0 0 90.71 104.88" style="enable-background:new 0 0 90.71 104.88;" xml:space="preserve">
<style type="text/css">
	.st0{fill:#FFFFFF;}
	.st1{fill:none;stroke:#FFFFFF;stroke-width:2;stroke-miterlimit:10;}
</style>
<path class="st0" d="M21.45,87.25l47.82-1.56c0,0-5.61,12.81-11.83,12.83c-6.22,0.01-7.96,4.41-11.54,4.52
	c-3.58,0.12-4.98-2.29-7.27-3.16c-2.29-0.87-6.66-1.86-8.56-2.36S22.91,91.73,21.45,87.25z"/>
<path class="st1" d="M44.83,70.18c0,0,4.88-13.39,19.44-20.89s17.4-9.49,17.4-9.49s0.77,7.57-17.46,17.72S44.95,73.86,44.95,73.86
	L44.83,70.18z"/>
<path class="st1" d="M44.47,59.39c0,0-2.76-5.26-20.77-14.36S9.34,31.36,9.34,31.36s30.92,10.46,35.05,25.36L44.47,59.39z"/>
<path class="st1" d="M43.87,41.04c0,0,2.71-9.11,18.34-17.64c0,0,9.3-4.54,9.5-12c0,0-24.4,7.16-27.98,25.41L43.87,41.04z"/>
<path class="st1" d="M47.16,9.19c3.43-3.27,8.88-4.81,8.88-4.81c-2.62,9.49-13.06,9.05-13.06,9.05s4.61-0.54,4.16-4.87
	c0,0,0.04-2.65-4.12-4.62l-0.04,0c-4.02,2.24-3.94,4.63-3.94,4.63c-0.17,4.34,3.94,4.85,3.94,4.85l2.39,73.05"/>
<path class="st1" d="M42.97,13.42c0,0-11.7,0.17-13.28-8.56c0,0,7.75,1.38,9.42,4.99"/>
<path class="st0" d="M29.32,4.47c0,0,3.47-0.56,9.61,1.66c0,0,1.45-3.2,4.01-4.3c0,0,2.11,0.89,4.19,4.03c0,0,4.48-2.57,9.4-1.88
	c0,0-8.77,3.54-9.14,4.86c0,0-0.27-3.01-4.47-5.04c0,0-3.7,2.02-4.08,5.26C38.83,9.06,36.6,5.74,29.32,4.47z"/>
</svg>
