<?xml version="1.0" encoding="utf-8"?>
<!-- Generator: Adobe Illustrator 23.1.1, SVG Export Plug-In . SVG Version: 6.00 Build 0)  -->
<svg version="1.1" id="Calque_1" xmlns="http://www.w3.org/2000/svg" xmlns:xlink="http://www.w3.org/1999/xlink" x="0px" y="0px"
	 viewBox="0 0 90.71 104.88" style="enable-background:new 0 0 90.71 104.88;" xml:space="preserve">
<style type="text/css">
	.st0{fill:#FFFFFF;stroke:#FFFFFF;stroke-miterlimit:10;}
	.st1{fill:none;stroke:#FFFFFF;stroke-width:2;stroke-miterlimit:10;}
</style>
<polygon class="st0" points="9.54,10.28 26.03,34.92 32.25,30.56 15.55,6.05 "/>
<path class="st1" d="M34.88,63.96c0,0,1.21-17.39,20.24-15.28"/>
<g>
	<path class="st1" d="M61.83,52.59c2.44,1.48,4.64,2.86,6.53,4.08c5.86,3.77,10.28,9.51,11.99,16.26c0.34,1.33,0.57,2.66,0.63,3.92
		c0.33,6.71-3.97,17.36-16.79,21.31c-12.98,4-21.96-6.95-23.33-9.34c-0.42-0.73-0.86-1.87-1.3-3.3c3.69-1.64,6.02-5.56,5.41-9.75
		c-0.68-4.68-4.76-7.98-9.37-7.87c-1.95-10.45-3.61-21.13-4.21-23.17c-1.16-3.93-3.95-8.91-3.95-8.91l5.13-3.76
		c2.11,2.69,4.07,5.64,6.77,7.41C46.23,44,53.14,47.32,61.83,52.59z"/>
	<path class="st1" d="M35.6,67.89C35.66,68.18,35.55,67.61,35.6,67.89c-4.8,0.07-9.85,4.35-8.94,10.54
		c0.99,6.75,8.02,9.39,12.9,7.08c0.06,0.19-0.06-0.18,0,0c-0.76,0.34-1.55,0.61-2.41,0.74c-5.06,0.74-9.75-2.76-10.49-7.82
		c-0.74-5.06,2.76-9.75,7.82-10.49C34.86,67.89,35.23,67.9,35.6,67.89z"/>
</g>
</svg>
