<svg id="Calque_1" data-name="Calque 1" xmlns="http://www.w3.org/2000/svg" viewBox="0 0 150 150"><defs><style>.cls-1{fill:#fff;opacity:0;}</style></defs><title>Sound_On</title><path d="M47.45,58.75h-25L19.24,62V90l3.25,3.25h25l34.16,24.39L86.74,115V37l-5.13-2.64Zm-21.71,6.5h19.5v21.5H25.74Zm54.5,43.43L51.74,88.33V63.67l28.5-20.35Z"/><path d="M117.06,40.83l-4.41,4.78a39.86,39.86,0,0,1-.18,58.77l4.38,4.8a46.36,46.36,0,0,0,.21-68.35Z"/><path d="M102,50.28l-4.14,5a25.44,25.44,0,0,1-.18,39.41l4.09,5A31.92,31.92,0,0,0,102,50.28Z"/><rect class="cls-1" width="150" height="150"/></svg>