<?xml version="1.0" encoding="utf-8"?>
<!-- Generator: Adobe Illustrator 23.1.1, SVG Export Plug-In . SVG Version: 6.00 Build 0)  -->
<svg version="1.1" id="Calque_1" xmlns="http://www.w3.org/2000/svg" xmlns:xlink="http://www.w3.org/1999/xlink" x="0px" y="0px"
	 viewBox="0 0 90.71 104.88" style="enable-background:new 0 0 90.71 104.88;" xml:space="preserve">
<style type="text/css">
	.st0{fill:none;stroke:#FFFFFF;stroke-width:2;stroke-miterlimit:10;}
	.st1{fill:#FFFFFF;stroke:#FFFFFF;stroke-width:2;stroke-miterlimit:10;}
</style>
<ellipse transform="matrix(0.9525 -0.3045 0.3045 0.9525 -8.5233 9.1113)" class="st0" cx="24.95" cy="31.88" rx="21.04" ry="15.35"/>
<ellipse transform="matrix(0.9525 -0.3045 0.3045 0.9525 -21.2274 23.7249)" class="st0" cx="65.45" cy="79.92" rx="20.91" ry="14.97"/>
<polyline class="st0" points="24.95,31.88 54.64,22.41 68.75,51.78 65.45,79.92 51.43,63.07 "/>
<line class="st0" x1="50.62" y1="23.69" x2="48.28" y2="54.63"/>
<ellipse transform="matrix(0.9525 -0.3045 0.3045 0.9525 -15.8148 17.5776)" class="st0" cx="48.44" cy="59.49" rx="6.52" ry="5.04"/>
<polyline class="st0" points="41.95,61.02 39.48,61.6 40.29,59.47 "/>
<polyline class="st0" points="44.36,71.46 42.62,69.37 48.37,59.61 "/>
<path class="st1" d="M54.36,56.81l22.65-7.53l1.46,1.75c1.44,1.73,3.58,2.7,5.83,2.64l2.05-0.05l-7.3-8.77
	c-1.15-1.38-3.18-1.6-4.6-0.51l-0.95,0.73l3.51,4.21"/>
<path class="st0" d="M76.47,26.11l-1.11-3.18c0,0-17.3,3.55-20.72-0.52c-3.42-4.07,11.39-10.69,11.39-10.69l-3.11-2.37"/>
<path class="st0" d="M73.5,45.07"/>
</svg>
