<?xml version="1.0" encoding="utf-8"?>
<!-- Generator: Adobe Illustrator 23.1.1, SVG Export Plug-In . SVG Version: 6.00 Build 0)  -->
<svg version="1.1" xmlns="http://www.w3.org/2000/svg" xmlns:xlink="http://www.w3.org/1999/xlink" x="0px" y="0px"
	 viewBox="0 0 2932.4 2549.3" style="enable-background:new 0 0 2932.4 2549.3;" xml:space="preserve">
<style type="text/css">
	.st0{display:none;}
	.st1{display:inline;}
	.st2{fill:#0F4239;}
	.st3{fill:none;stroke:#302E2F;stroke-width:4;stroke-linejoin:round;stroke-miterlimit:10;}
	.st4{fill:#FFFFFF;stroke:#302E2F;stroke-width:3;stroke-linejoin:round;stroke-miterlimit:10;}
	.st5{fill:#5BB678;stroke:#302E2F;stroke-width:3;stroke-miterlimit:10;}
	.st6{fill:#0E4239;stroke:#302E2F;stroke-width:3;stroke-miterlimit:10;}
	.st7{fill:#FFFFFF;stroke:#302E2F;stroke-width:3;stroke-miterlimit:10;}
	.st8{fill:#302E2F;stroke:#302E2F;stroke-width:2;stroke-linejoin:round;stroke-miterlimit:10;}
	.st9{fill:#0E4239;stroke:#302E2F;stroke-width:3;stroke-linecap:round;stroke-linejoin:round;stroke-miterlimit:10;}
	.st10{fill:#FFFFFF;stroke:#302E2F;stroke-width:3;stroke-linecap:round;stroke-miterlimit:10;}
	.st11{fill:#0E4138;stroke:#302E2F;stroke-width:4;stroke-linejoin:round;stroke-miterlimit:10;}
	.st12{fill:#FFFFFF;stroke:#302E2F;stroke-width:4;stroke-miterlimit:10;}
	.st13{fill:#302E2F;stroke:#302E2F;stroke-width:4;stroke-miterlimit:10;}
	.st14{fill:#FFFFFF;stroke:#302E2F;stroke-width:4;stroke-linejoin:round;stroke-miterlimit:10;}
	.st15{fill:none;stroke:#302E2F;stroke-width:4;stroke-miterlimit:10;}
	.st16{fill:none;stroke:#302E2F;stroke-width:4;stroke-linecap:round;stroke-miterlimit:10;}
	.st17{fill:#179389;stroke:#302E2F;stroke-width:4;stroke-miterlimit:10;}
	.st18{fill:#0E4138;stroke:#302E2F;stroke-width:2;stroke-linejoin:round;stroke-miterlimit:10;}
	.st19{fill:none;stroke:#302E2F;stroke-width:4;stroke-linecap:round;stroke-linejoin:round;stroke-miterlimit:10;}
	.st20{fill:#42AF6F;stroke:#302E2F;stroke-width:3;stroke-miterlimit:10;}
	.st21{fill:#0E4138;stroke:#302E2F;stroke-width:3;stroke-linejoin:round;stroke-miterlimit:10;}
	.st22{fill:#0E4239;stroke:#302E2F;stroke-width:4;stroke-linecap:round;stroke-linejoin:round;stroke-miterlimit:10;}
	.st23{fill:#FFFFFF;stroke:#302E2F;stroke-width:4;stroke-linecap:round;stroke-miterlimit:10;}
	.st24{fill:#5BB678;stroke:#302E2F;stroke-width:4;stroke-miterlimit:10;}
	.st25{fill:#0E4239;stroke:#302E2F;stroke-width:4;stroke-miterlimit:10;}
	.st26{fill:#302E2F;stroke:#302E2F;stroke-width:4;stroke-linejoin:round;stroke-miterlimit:10;}
	.st27{fill:none;}
	.st28{fill:#5BB678;stroke:#302E2F;stroke-width:4;stroke-linecap:round;stroke-linejoin:round;stroke-miterlimit:10;}
	.st29{fill:#FFFFFF;stroke:#302E2F;stroke-width:3;stroke-linecap:round;stroke-linejoin:round;stroke-miterlimit:10;}
	.st30{fill:#179389;stroke:#302E2F;stroke-width:3;stroke-linecap:round;stroke-linejoin:round;stroke-miterlimit:10;}
	.st31{fill:#302E2E;stroke:#302E2E;stroke-width:3;stroke-linecap:round;stroke-linejoin:round;stroke-miterlimit:10;}
	.st32{fill:#0E4239;stroke:#302E2F;stroke-width:3;stroke-linejoin:round;stroke-miterlimit:10;}
	.st33{fill:#302E2E;}
	.st34{fill:none;stroke:#302E2E;stroke-width:3;stroke-miterlimit:10;}
	.st35{fill:#FFFFFF;stroke:#302E2E;stroke-width:3;stroke-miterlimit:10;}
	.st36{fill:#302E2E;stroke:#302E2E;stroke-width:3;stroke-linejoin:round;stroke-miterlimit:10;}
	.st37{fill:#FFFFFF;stroke:#302E2E;stroke-width:3;stroke-linejoin:round;stroke-miterlimit:10;}
	.st38{fill:#179389;stroke:#302E2F;stroke-width:3;stroke-miterlimit:10;}
	.st39{fill:#302E2E;stroke:#302E2E;stroke-width:3;stroke-miterlimit:10;}
</style>
<g id="Calque_1" class="st0">
	<g class="st1">
		<g id="couleurs">
			<rect x="4256.2" y="1090.9" class="st2" width="188.3" height="152.5"/>
		</g>
		<g id="Calque_5">
		</g>
		<polygon class="st3" points="3518.1,1533.4 3352.5,1462.1 3352.5,1766.9 3518.1,1899.3 		"/>
		<polygon class="st4" points="3009.8,1484.4 3352.5,1462.1 3352.5,1766.9 3024.5,1810.6 		"/>
		<polygon class="st3" points="3943.6,1501.7 3743.2,1438.9 3743.2,1717.9 3943.6,1845.7 		"/>
		<polygon class="st4" points="3352.5,1462.1 3743.2,1438.9 3743.2,1715.5 3352.5,1766.9 		"/>
		<path class="st5" d="M3064,1680.2c0,0,15.3,12.3-7.9,135.9c-18.5,98.5,276.3,102.9,420.9,88c40-4.1,70.2-32.2,70.5-65.7
			c0.5-46.4-16.1-113.4-95-175.2C3313.4,1554.3,3064,1680.2,3064,1680.2z"/>
		<path class="st6" d="M3159.9,1594.5c0,0-96.1,40.7-114.4,79.7s10.8,63.7,68.7,29.2c57.9-34.6,75.1,3.2,109.2,0.6
			c34.1-2.5,62.5-13.3,79.7,6.7s64.2,36.3,85.4,20.8s51-36.9,86.7-13.4c35.7,23.4,46.9-3.8,35.4-21.4
			c-11.5-17.7-70.2-95.3-104.3-103.4S3159.9,1594.5,3159.9,1594.5z"/>
		<path class="st5" d="M3245.8,1570.8c-22.6,2.6-46.3-1.2-69.1,2.3c-28.6,4.3-73.3,32-72.5,42.7c1.3,18.2,98.1-24.7,94.4-8.2
			c-3.7,16.4,2.2,41.9,72.4,33.3s29.5-30.3,77.9-35.3c48.4-4.9,71.1,35.8,89.7,30.8c18.6-5,21.8-23.8-31.8-50.3
			c-49-24.3-133.9-10.8-105-18.4C3319.7,1563,3279.4,1567,3245.8,1570.8z"/>
		<polygon class="st4" points="3009.8,1484.4 3024.5,1810.6 3105.3,1975.5 3091.5,1569.3 		"/>
		<polygon class="st4" points="3102.3,1975.5 3518.1,1909.5 3518.1,1730 3098.7,1781 		"/>
		<polygon class="st4" points="3518.1,1909.5 3943.5,1846.6 3945.7,1677.1 3519.1,1730.2 		"/>
		<polygon class="st4" points="3519.1,1730.1 3945.7,1677.1 3947,1501.4 3517.4,1538 		"/>
		<polygon class="st4" points="3352.5,1462.1 3738.6,1434.8 3947,1501.4 3517.4,1538 		"/>
		<polygon class="st4" points="3009.8,1484.4 3352.5,1462.1 3444.3,1234.2 3050.5,1242.7 		"/>
		<path class="st7" d="M3250.3,1581.9c0,0,5.9-15.6,23-24.1c17.1-8.6,20.4-10.8,20.4-10.8s0.8,8.8-20.6,20.4
			c-21.4,11.6-22.7,18.8-22.7,18.8L3250.3,1581.9z"/>
		<path class="st7" d="M3250,1569.3c0,0-3.2-6.2-24-17c-20.9-10.8-16.6-16.1-16.6-16.1s35.9,12.6,40.6,30.1V1569.3z"/>
		<path class="st7" d="M3249.6,1547.8c0,0,3.3-10.6,21.6-20.3c0,0,10.9-5.2,11.2-13.9c0,0-28.6,8-33,29.3L3249.6,1547.8z"/>
		<path class="st7" d="M3248.9,1515.6c0,0-11,0-8.8-10.5c1.6-7.5,8.5-8.1,8.5-8.1"/>
		<path class="st7" d="M3250.7,1600.9l-1.8-85.2c0,0-0.1-0.1-0.4-0.2c-4.7-2.2-5.7-8.4-2.1-12.1c0.3-0.3,0.7-0.7,1-1h0.5
			c0.7,0.3,1.3,0.7,1.8,1c4.4,3,3.9,9.8-0.9,12.3c-0.1,0.1,0,0,0,0s8.6-0.2,8.3-8.3c-0.3-9.4-8.6-10.4-8.6-10.4s-2.2,2.6-0.6,5.4"/>
		<polygon class="st8" points="3281.4,1768.8 3281.4,1779.7 3338.4,1772.3 3338.4,1762 		"/>
		<polygon class="st8" points="3714.7,1719.2 3714.7,1730.1 3771.8,1722.8 3771.8,1712.4 		"/>
		<polygon class="st8" points="3714.7,1681.3 3714.7,1692.2 3771.8,1684.9 3771.8,1674.6 		"/>
		<polygon class="st8" points="3666.7,1511 3677.8,1513.9 3730.1,1509.5 3719,1507 		"/>
		<polygon class="st8" points="3366.6,2012.8 3242.7,1953.2 3466.4,1920.9 		"/>
		<polygon class="st4" points="3366.6,2012.8 3781.3,1943.1 3750.2,1766.8 3338.9,1823.7 		"/>
		<polygon class="st8" points="3608,1950.9 3611.1,1961.4 3554.2,1970.1 3551.3,1960.2 		"/>
		<path class="st9" d="M3109.4,1921.7c0,0,5.5-37.1,26.5-38c12.1-0.5-23.2,5.3-19.6,83.2"/>
		<path class="st10" d="M3117.2,1991.7c0,0,1.3-95.4-32.5-128.4c-33.8-32.9,33.9,44.4,15.6,113.5l-1.7,10.8"/>
		<path class="st10" d="M3108.7,1991.9c0,0-20.9-69-47-78.8s15.5,12.7,33,78.8"/>
	</g>
	
		<image style="display:inline;overflow:visible;" width="810" height="810" xlink:href="C84E1514DB38D11D.png"  transform="matrix(1 0 0 1 3161 212.3)">
	</image>
	
		<image style="display:inline;overflow:visible;" width="153" height="359" xlink:href="../../../../Capture d’écran 2020-02-10 à 15.52.42.png"  transform="matrix(1.899 0 0 1.899 4180.8398 60.2048)">
	</image>
</g>
<g id="immeuble_G">
	<g id="immeuble1">
		<path class="st11" d="M1764.5,1087.8l-182.9,29.4l-6.4,0.4l-3.8-0.2l-7.5-2l-6.2-3.5l-3.1-4.6l-0.2-2.4l1.3-2.2l5.4-5.7l6.9-3.6
			c0,0,14.7-1.1,52-9.6c61.7-14,89.4-50.5,89.4-50.5s65-65.8,6.9-143.5s-162.2-64-162.2-64l-0.1-1.2l-432.8,70.2v577.9h865.9V1052
			L1764.5,1087.8z"/>
		<polygon class="st12" points="1193.4,883.3 1193.4,927.3 1328.8,927.3 1328.8,861.6 		"/>
		<polygon class="st12" points="1387.2,852.2 1387.2,927.3 1522.6,927.3 1522.6,830.4 		"/>
		<path class="st12" d="M1598.3,826.4H1581v100.8h135.4v-37.4C1680.5,843.6,1629.1,830.2,1598.3,826.4z"/>
		<rect x="1193.4" y="912.3" class="st13" width="135.4" height="14.9"/>
		<rect x="1387.2" y="912.3" class="st13" width="135.4" height="14.9"/>
		<rect x="1581" y="912.3" class="st13" width="135.4" height="14.9"/>
		<rect x="1433" y="1127.3" class="st14" width="242.3" height="345.6"/>
		<line class="st15" x1="1554.2" y1="1100.3" x2="1554.2" y2="1472.8"/>
		<line class="st16" x1="643.4" y1="1472.8" x2="1776.1" y2="1472.8"/>
		<g>
			<path class="st17" d="M1554.3,1106.5L1554.3,1106.5L1554.3,1106.5z"/>
			<path class="st17" d="M1694.9,1099c-0.2,0-114.3,18.4-119.7,18.7c-5.4,0.3-11.3-2.2-11.3-2.2s-2.7-1.2-6.2-3.5s-3.4-5.5-3.4-5.5
				c-0.6-2.4,3.5-6.9,4.3-7.6s5.6-3.8,5.6-3.8s9.3-4.4,41.6-8.4c32.2-4,61.3-20.4,61.4-20.5c-29.8-27.3-69.5-44-113.1-44
				c-92.4,0-167.3,74.9-167.3,167.3h334.6C1721.5,1156.2,1711.8,1125.1,1694.9,1099z"/>
			<path class="st17" d="M1554.6,1107.5C1554.6,1107.6,1554.6,1107.6,1554.6,1107.5L1554.6,1107.5z"/>
			<path class="st17" d="M1554.4,1106.8c0,0.1,0.1,0.2,0.1,0.3C1554.4,1107,1554.4,1106.9,1554.4,1106.8z"/>
		</g>
	</g>
</g>
<g id="immeuble_bulle">
	<path class="st11" d="M1119.2,409.2v303.3l119.3-18.4c0,0,56.5-7.1,49.2-59.2c-6.4-45.4-59.5-42.8-73.1-41.4
		c-2.8,0.3-5.6-0.7-7.4-2.8c-1.7-2-2.6-4.1,0.7-7.6c0,0,1.2-1.7,6.5-2.7c11.7-2.1,42.8-6.1,121.7-18.9c0,0,49.5-11.8,41.9-57.7
		c0,0-9.2-40.4-63-41.7l-10.7,1l-44.3,7.3c0,0-2.3,0.2-3.5-0.8c-1.5-1.3-1.6-4.8,2.6-6.1l24.6-4.2c0,0,38.8-12.9,28.8-45.9
		c-10-32.9-55.9-25.5-55.9-25.5L1119.2,409.2z"/>
	<path class="st12" d="M1191.9,413.5H1313c0,0,12.5,31.8-29.8,46l-24,4c0,0-5.1,1-2.9,5.1c0,0,1.4,3.5,5.7,2.2
		c4.3-1.3,58.7-11.1,66.2-7.6v36.3h-136.4V413.5z"/>
	<rect x="1191.9" y="499.4" class="st13" width="136.4" height="15.6"/>
	<path class="st12" d="M1191.9,701.4v-82.1h88.9c0,0,26,39.8-17.5,65.6c-9.4,5.6-20,9.1-30.8,10.7L1191.9,701.4z"/>
</g>
<g id="imm_dd">
	<path class="st18" d="M2465.1,1592.5v-230.8l191.5-31.8c0,0,90.9-17.9,165.1,38.7c74.2,56.6,62.1,125.2,62.1,125.2
		s1.7,49.9-60.1,98.7L2465.1,1592.5z"/>
	<path class="st12" d="M2609.9,1338.3l49.2-7.7c0,0,99.4-17.8,175.2,49.1c75.8,66.9,43.8,141.7,43.8,141.7s-10.7,42.3-55,72.1
		h-213.2V1338.3z"/>
	<line class="st15" x1="2759.7" y1="1337.6" x2="2759.7" y2="1592.5"/>
</g>
<g id="immeuble_D">
	<path class="st17" d="M1760.3,1088.5v505h704.8v-230.8v-1.1l-223.4,35.9c-6.1,1-12.5,0.1-16-3.9c-3.6-4.1-8.1-13,4.3-18.1
		c5.2-2.1,10.7-3.7,16.4-4.8c116.8-22.3,191.1-113.6,166.8-206.9c-23.8-91.5-133.4-151.8-249.3-139.7l-73.9,11.8L1760.3,1088.5z"/>
	<path class="st12" d="M2254.8,1396.2v195.9h-284.2v-416.9h284.2V1369l-12.4,2.7c-1.8,0.4-3.6,0.9-5.3,1.6l-8,3.1
		c-1.7,0.7-3.1,1.9-4,3.5l0,0c-1.5,2.8-2,6.1-1.5,9.2l0,0c0.3,1.6,1.1,3,2.3,4l1.5,1.3c1.6,1.2,3.2,1.9,5.1,2.5l0,0
		c3.4,0.6,6.8,0.7,10.3,0.4L2254.8,1396.2z"/>
	<line class="st19" x1="2112.7" y1="1218.2" x2="2112.7" y2="1592.1"/>
	<polygon class="st12" points="2254.8,1164.1 2024.5,1164.1 1970.6,1164.1 1898.5,1272.3 2327,1272.3 	"/>
	<polygon class="st13" points="2012.1,1164.1 1964.8,1272.3 2019.4,1272.3 2040.7,1164.1 	"/>
	<polygon class="st13" points="2215.6,1164.1 2261.9,1272.3 2207.3,1272.3 2186,1164.1 	"/>
	<polygon class="st13" points="2093.7,1164.1 2079.4,1272.3 2147.3,1272.3 2137.3,1164.1 	"/>
	<line class="st16" x1="1675.4" y1="1593.5" x2="2823.7" y2="1593.5"/>
</g>
<g id="arbre_buissons">
	<path class="st20" d="M1114.7,1321.6c0,0-15.4-20-32.9-33.2c-6.9-5.2-19.3-21.4-22-31c-4-14.3-4.7-29.4-2.5-44.1
		c6.7-44.9,33.1-180.8,46.5-207.8c16.3-32.6,27.8-32.4,49.1,0c21.3,32.4,51.6,172.8,42.1,237.9c-7.4,50.8-57.4,57.9-69.5,78.2"/>
	<path class="st7" d="M1093.4,1497.6c0,0,23.3-132.4,22.4-217.8s-1.8-116.8-14.7-187.3c0,0-0.1-3.7,2,0c2.2,4.1,15.3,93.8,20.1,88.5
		s19.9-29.3,22.9-41.1c0,0,2.3-5.1,2.3,0.7c0,4.8-19.9,45.2-20.8,51.9c-0.9,6.7-4.6,57.1,0.5,305.1"/>
	<path class="st21" d="M1069.5,1497.6c0,0-40.2-40.7-40.2-72.7c0-41.1,46,41.7,46,41.7s-12-60.1,0.3-74.4
		c21.4-24.7,20.6,68.7,20.6,68.7s6.9-43.8,23.2-43.8s-15.2,80.4-15.2,80.4H1069.5z"/>
	<path class="st4" d="M1105.9,1497.6c0,0-28.6-18.5-13.3-32.9c15.4-14.4,24.7,16.5,24.7,16.5s-16.9-33.4,0-38.3
		c16.9-4.9,11,27.4,11,27.4s4.2-22.1,15.7-14c11.4,8-5.5,26.7-5.5,26.7s10.2-23.3,23.7-12.9c13.5,10.4-14.8,27.6-14.8,27.6H1105.9z"
		/>
</g>
<g id="compost_D">
	<path class="st22" d="M1186.3,2089c-13.7-51.9-38.1-48.4-30.1-50.5c14-3.8,25.3,19.5,25.3,19.5"/>
	<path class="st22" d="M1202.3,2099l-3.4-6.8c-26.3-41.6,2.1-106.3-13.3-77.7c-15.4,28.6,5.3,90.9,5.3,90.9"/>
	<path class="st23" d="M1206.5,2103.1c3-46.9,28.1-67.6,11.7-57.6c-16.4,10-21.2,59.4-21.2,59.4"/>
	<rect id="fond_2_" x="1217.5" y="1693.2" class="st14" width="338.7" height="352.3"/>
	<polygon id="côté_gauche_1_" class="st14" points="1197.5,1722.1 1217.5,1693.2 1217.5,2045.5 1197.5,2115.8 	"/>
	<path class="st24" d="M1269.2,1857.6c-33.8,11.1-64.5,35.5-68.1,70.9c-0.3,2.9-0.3,6.5,0,10.1c3.4,42.7,27.7,79.3,67.9,94.1
		c74.1,27.2,192.1,6.8,273.4-1.6c11.5-6.7,6.2-30.5,6.4-57c0.4-36.7,25.6-55.5-36.7-104.3C1442,1814.8,1336.4,1835.5,1269.2,1857.6z
		"/>
	<path class="st25" d="M1556.2,1873.8c-18.4-23.2-46.9-54.8-65.9-59.3c-27-6.4-194.6,1-194.6,1s-75.9,32.1-90.3,63s8.6,50.3,54.2,23
		c45.7-27.3,59.3,2.5,86.3,0.5c26.9-2,49.4-10.5,62.9,5.3c13.6,15.8,50.7,28.7,67.5,16.4c16.8-12.2,40.3-29.1,68.4-10.6
		c4.3,2.8,8.1,4.7,11.5,5.7V1873.8z"/>
	<path class="st24" d="M1364.1,1808.1c-17.8,1.8-39-2.7-57-0.3c-22.6,3-56,19.3-55.4,26.8c1,12.8,77.5-17.3,74.6-5.8
		s1.8,29.4,57.2,23.4c55.4-6,23.3-21.3,61.5-24.8c38.3-3.5,56.1,25.2,70.8,21.7c14.1-3.4,17.2-14.5-20.2-32c-3.4-1.6-6.9-3-10.6-4
		c-31-9.2-73.2-8.9-76.2-8.7C1409.6,1804.4,1390.6,1805.4,1364.1,1808.1z"/>
	<polygon class="st26" points="1644.9,2138.9 1266.3,2138.9 1264.4,2115.6 1646.4,2115.5 	"/>
	<rect id="devant_bas_3_" x="1197.5" y="1919" class="st14" width="358.6" height="196.9"/>
	<polygon id="devant_haut_1_" class="st14" points="1644.9,2139 1266.3,2139 1288,2009.2 1626.3,2009.2 	"/>
	<polygon id="couvercle_2_" class="st14" points="1217.5,1693.2 1556.2,1693.2 1576.1,1644.4 1197.5,1644.4 	"/>
	<path class="st7" d="M1382.3,1804.7c0,0,4-10.7,15.8-16.6s14-7.5,14-7.5s0.6,6.1-14.2,14.1c-14.7,8-15.6,12.9-15.6,12.9
		L1382.3,1804.7z"/>
	<path class="st7" d="M1382.1,1796c0,0-2.2-4.2-16.5-11.7s-11.4-11.1-11.4-11.1s24.7,8.7,27.9,20.7V1796z"/>
	<path class="st7" d="M1381.8,1781.3c0,0,2.3-7.3,14.9-14c0,0,7.5-3.6,7.7-9.5c0,0-19.6,5.5-22.7,20.1L1381.8,1781.3z"/>
	<path class="st7" d="M1381.3,1759.1c0,0-7.6,0-6-7.2c1.1-5.2,5.8-5.6,5.8-5.6"/>
	<path class="st7" d="M1382.5,1817.7l-1.2-58.7c0,0-0.1,0-0.3-0.1c-3.2-1.5-3.9-5.8-1.5-8.3c0.2-0.2,0.4-0.4,0.7-0.7h0.4
		c0.5,0.2,0.9,0.5,1.2,0.7c3.1,2,2.7,6.7-0.6,8.4c-0.1,0,0,0,0,0s5.9-0.2,5.7-5.7c-0.2-6.4-5.9-7.1-5.9-7.1s-1.5,1.8-0.4,3.7"/>
	<path class="st23" d="M1202.5,2085.5c0,0,3.8-25.5,18.3-26.2c8.3-0.4-16,3.7-13.5,57.2"/>
	<path class="st23" d="M1207.9,2119.8c0,0-4.5-66.3-27.8-88.9c-23.3-22.7,18.3,30.5,16.2,78.7l-1.2,7.5"/>
	<path class="st23" d="M1202,2119.9c0,0-14.4-47.5-32.3-54.2c-18-6.7,10.7,8.8,22.7,54.2"/>
	<rect x="1362.5" y="1937" class="st26" width="45" height="7.1"/>
	<polygon class="st26" points="1485.4,2128 1440.4,2128 1441.4,2121.9 1484.5,2121.9 	"/>
</g>
<g id="compost_G">
	<g id="G_x5F_composteur">
		<rect id="fond_1_" x="1557" y="1693.2" class="st27" width="338.7" height="352.3"/>
		<polygon id="côté_droit_1_" class="st4" points="1892.9,1693.2 1912.8,1722.1 1912.8,2115.8 1892.9,2045.5 		"/>
		<polygon id="couvercle_1_" class="st14" points="1556.2,1693.2 1893.4,1693.2 1913.2,1719.6 1556.2,1719.6 		"/>
		<rect id="devant_bas_1_" x="1554.2" y="1919" class="st14" width="358.6" height="196.9"/>
		<rect x="1711" y="1937" class="st26" width="45" height="7.1"/>
		<rect id="devant_bas_2_" x="1553.3" y="1718.4" class="st14" width="358.6" height="199.6"/>
		<rect x="1711" y="1889.5" class="st26" width="45" height="7.1"/>
	</g>
</g>
<g id="perso_3">
	<path class="st28" d="M1039.4,2167.1v43.8h60.5c0,0,2.7-6.9-22.7-16.8c-25.4-10-14.8-45-14.8-45L1039.4,2167.1z"/>
	<path class="st28" d="M998.2,2167.1v43.8h60.5c0,0,2.7-6.9-22.7-16.8s-14.8-45-14.8-45L998.2,2167.1z"/>
	<polygon class="st22" points="978.7,1914.2 977.9,1868.5 1086.3,1868.5 1085.1,1897.2 	"/>
	<polyline class="st22" points="1030.9,1959.4 1022.2,2169.9 983.6,2169.9 979.8,1968 1082.9,1951 1074,2169.9 1039.5,2169.9 
		1032.9,1959 	"/>
	<path class="st29" d="M1100.1,1894.3c-2.4-18.7-0.1-143.9-0.1-143.9s10.3,0.2,15.2,11.2c3.2,7.1,1.7,23.3,2.1,31.5
		c1.3,21.2-8.1,62.1-6.9,67.6c1.2,5.5,2.4,14.1,0.9,19.2c-0.9,3-3.5,9.9-6.1,14L1100.1,1894.3z"/>
	<path class="st29" d="M1015.9,1683c0,0,15.4,1.2,18.6-5c3.2-6.2,5.3-28.8,5.3-28.8l17.7,7.1l4.6,12.2c0,0-5.8,12.3,1.6,14.5
		c7.4,2.1,14.6,3.6,14.6,3.6l10.1,25.3l-76.7-6.9L1015.9,1683z"/>
	<path class="st30" d="M936.6,1796.6c0,0,30.7-97.7,79.3-113.6c0,0,35.8,21,62.4,3.6c0,0,34.3,17.4,43.5,88.5l-27.6,0.5l3.6,92.9
		H975.7l2.1-74.5L936.6,1796.6z"/>
	<path class="st29" d="M943.2,1796.1c0,0-2,32.1,19,28c21-4.1,85.5-44.5,91.1-44.5c5.6,0,14.3-0.8,18.9-4s18.4-15,14.1-18
		C1082,1754.6,943.2,1796.1,943.2,1796.1z"/>
	<path class="st29" d="M1069.6,1618.7c0,0,19.4,19,4.1,49.1c-2.1,4.2-6.7,6.7-11.3,6c-7.1-1-17.5-7.7-28.1-33
		C1034.3,1640.8,1044.2,1612,1069.6,1618.7z"/>
	<path class="st22" d="M1054.8,1636.5c0,0-15.2-1.2-15.2,3.7c0,4.8,4.6,6.7,4.6,6.7s0.2,20.5-7.4,8.3c-7.6-12.2-15.2-33,4.1-39.2
		s44,0,44.9,2.8c0.9,2.8-1.8,6.9-20.3,5.5C1047.2,1622.9,1054.8,1636.5,1054.8,1636.5z"/>
</g>
<g id="bulles_1_">
	<g id="bulles">
		<path class="st15" d="M2880.4,1451.7c-21.6-83.2-124.8-136.8-230.5-119.8l-184.8,29.7v1.1v230.8h-704.8v-505l329.7-52.6l73.9-11.8
			c-5.2,0.5-10.4,1.2-15.6,2.1l-566.7,91.1c-7.4,1.2-15.2,0.1-21.3-3.4c-9.1-5.2-6.4-10.8-1.7-14.9c4.3-3.8,10.2-6.2,16.6-7.3
			l30.7-4.9c90.9-14.6,149.5-84.4,130.9-155.9s-107.3-117.6-198.1-103L458.1,1001.6c-90.9,14.6-149.5,84.4-130.9,155.9
			s107.3,117.6,198.1,103l438.4-69.9c1.8-0.3,6-1.1,9.3,0.6c6.7,3.5,8.7,10.5,7.9,14.8c-1.1,6.2-10.8,9.6-18.7,10.8l-38.7,6.2
			c-121.1,19.5-298.4,62.3-290.2,214.3c24.4,162.3,278.1,148.1,399.2,128.6l44.7-7.2c7-1.1,14.3,1.2,17.9,6c2,2.6,2.9,6,0.9,10.1
			c-2.4,4.8-8,8.2-14.4,9.2l-631.2,101.5c-105.7,17-173.9,98.2-152.3,181.3c21.6,83.2,124.8,136.8,230.5,119.8l581.5-93.5
			c0,0,29.8-4.8,37.9,18.8c8.1,23.6-24.6,32.6-24.6,32.6l-130.1,20.9c-92.8,14.9-152.6,86.2-133.6,159.2s109.5,120.1,202.3,105.1
			l426.2-68.5c1.6-0.1,3.2-0.2,4.7-0.3c56.9-3.7,82.1,54.3,35,79.7c-47.2,25.5-72.9,71.5-60.8,118.4c16.2,62.5,93.8,102.8,173.2,90
			l741.5-119.2c79.4-12.8,130.6-73.8,114.4-136.3c-14.5-55.8-77.9-93.9-147.9-92.3c-12.1,0.3-24-1.6-34.8-5.4
			c-9.3-4-18.2-10.7-23.3-22.2c-14.2-31.9,34-46.8,34-46.8l164.5-26.4c92.8-14.9,152.6-86.2,133.6-159.2S2512.8,1721.1,2420,1736
			l-39.5,6.4l-24.1,3.9c-18.3,1.5-40.6-0.4-43.1-17.9c-3.6-24.8,32.1-33.6,44.7-35.9l370-59.5
			C2833.8,1616,2902,1534.9,2880.4,1451.7z"/>
		<g id="bulle2">
			<path class="st15" d="M1378.1,503.8L1378.1,503.8c-6.3-27.5-38.4-45.7-71.9-40.5l-45.8,7.1c-4.6,0.6-4.8-3.6-4.3-5
				s3.1-1.9,3.1-1.9l0,0l18.3-2.8c24.6-3.8,40.8-23.3,36.2-43.5l0,0c-4.6-20.2-28.3-33.6-52.9-29.8l-286.4,44.2
				c-24.6,3.8-40.8,23.3-36.2,43.5l0,0c4.6,20.2,28.3,33.6,52.9,29.8l32.3-5c4.1-0.6,6.9,3.6,3.8,5.9c-0.1,0.1-0.3,0.2-0.4,0.3
				l-0.2,0.1c-0.5,0.3-1.1,0.5-1.7,0.6l-175.1,27c-33.4,5.2-55.5,31.7-49.2,59.2l0,0c6.3,27.5,38.5,45.7,71.9,40.5l88.1-13.6
				c0,0,11.3-2.1,12.3,3.5c1.5,8.4-11.5,10.3-11.5,10.3c-33.4,5.2-55.5,31.7-49.2,59.2l0,0c6.3,27.5,38.5,45.7,71.9,40.5l254.4-39.2
				c33.4-5.2,55.5-31.7,49.2-59.2l0,0c-6.3-27.5-38.5-46.8-71.9-41.7c-1.3,0.2-4.1,0.2-5.3-0.2c-4.2-1.2-11.5-9,4.3-12.4l0,0
				l114-17.6C1362.3,557.8,1384.4,531.3,1378.1,503.8z"/>
		</g>
		<g id="bulle3">
			<path class="st15" d="M295.5,392.8l89.3-12.7c2.6-0.4,15.2-2.9,12.6-12.8c-1.5-5.4-5.3-7.3-8.9-7.8c-1.6-0.2-3.2-0.2-4.8,0
				l-6.6,0.9c-29.8,4.2-56.8-12.3-60.3-36.9l0,0c-3.5-24.6,17.9-48,47.7-52.2l296.9-42.2c29.8-4.2,56.8,12.3,60.3,36.9l0,0
				c3.5,24.6-17.8,48-47.7,52.2l-105.5,13.2c-12.9,1.9-48.8,4.5-53.8,13.6c-3.3,6.1-1.8,15.6,23.9,13.1l12-1.7
				c36.8-5.2,70.2,15.1,74.5,45.5l0,0c4.3,30.4-22,59.2-58.9,64.5l-255.1,36.2c-36.8,5.2-70.2-15.1-74.5-45.5l0,0
				C232.3,426.8,258.7,398,295.5,392.8z"/>
		</g>
	</g>
</g>
<g id="nuage">
	<path class="st14" d="M425.4,431.2h194.4c0,0,18.9-31.1-10.4-58.4c0,0-7.7,20.5-17.7,13.9s-2.7-16-19.9-20.8
		c-11.5-3.2-25.7,4.2-32,18.8c-11.3,26.2-30.4,17.1-52.3-9.9C462.2,343.7,391.8,377.9,425.4,431.2z"/>
</g>
<g id="fleur_1">
	<path class="st14" d="M1740.7,1574.5c0,0,6-15.9,23.5-24.7s20.9-11.1,20.9-11.1s0.8,9.1-21.1,20.9c-21.9,11.9-23.2,19.3-23.2,19.3
		L1740.7,1574.5z"/>
	<path class="st14" d="M1740.4,1561.6c0,0-3.2-6.3-24.6-17.4s-17-16.5-17-16.5s36.8,12.9,41.6,30.8V1561.6z"/>
	<path class="st14" d="M1739.9,1539.7c0,0,3.4-10.9,22.2-20.8c0,0,11.2-5.3,11.5-14.2c0,0-29.3,8.2-33.8,30L1739.9,1539.7z"/>
	<path class="st14" d="M1739.2,1506.6c0,0-14,0-15.8-10.4C1723.5,1496.2,1736.4,1498.9,1739.2,1506.6"/>
	<circle class="st14" cx="1739.2" cy="1501.4" r="4.3"/>
	<path class="st3" d="M1744.3,1501.6c4.1-3.9,10.7-5.6,10.7-5.6c-3.3,11.3-15.7,10.6-15.7,10.6s5.5-0.6,5-5.8c0,0,0.1-3.2-4.9-5.6
		h-0.1c-4.8,2.6-4.8,5.5-4.8,5.5c-0.3,5.2,4.6,5.9,4.6,5.9l1.9,87.4"/>
</g>
<g id="perso_2">
	<path class="st31" d="M1698.9,2308.9v78.5h-34.7c0,0-2.7-10.2,8.3-30.6c11-20.4,3.8-55.2,3.8-55.2L1698.9,2308.9z"/>
	<path class="st31" d="M1755.8,2327.2l2.1,60.3h82.8c0,0,3.4-13.2-32.3-26.7c-35.6-13.6-30.9-59-30.9-59L1755.8,2327.2z"/>
	<path class="st29" d="M1694.3,2008.1h67.4l53.6,323h-82.9l-7.2-225.3l-12.2,225.3h-64.5C1648.5,2331.1,1654.1,2085.4,1694.3,2008.1
		z"/>
	<path class="st29" d="M1699.1,1918.6h51.2l-3.5-40.5c0,0-10.1-2.7-11.8-15h-15.6c0,0,0.5,12.9-17.3,15.2
		C1684.3,1880.6,1699.1,1918.6,1699.1,1918.6z"/>
	<polygon class="st31" points="1690.5,2018.9 1751.4,2018.9 1757.9,1914.1 1685,1912.1 	"/>
	<path class="st29" d="M1645.5,2080.7c0,0-2,25.3-5.9,32.7c-3.9,7.4,1.7,19.1,9,23.6l10.3-58.3L1645.5,2080.7z"/>
	<path class="st29" d="M1801.7,2077c0,0,2,25.3,5.9,32.7c3.9,7.4-1.7,19.1-9,23.6l-10.3-58.3L1801.7,2077z"/>
	<path class="st30" d="M1743.7,1877.7c0,0,28.8,2.5,42,15.6c15.5,15.3,42,201.9,42,201.9h-45.9l-11.3-77.2l-30,3L1743.7,1877.7z"/>
	<path class="st30" d="M1706.4,1877.7c0,0-28.6,2.7-42,15.6c-19.6,18.8-41.7,201.9-41.7,201.9h45.9l11-77.2l30,3L1706.4,1877.7z"/>
	<path class="st29" d="M1752.8,1836.8c-1.7,17.1-17.8,31.6-27.9,30.5c-9.5-1-22.9-17.9-21.2-35c1.7-17.1,15-28.3,27.5-27
		C1745.5,1806.8,1754.6,1819.7,1752.8,1836.8z"/>
	<line class="st29" x1="1770.6" y1="2018" x2="1761.2" y2="1931"/>
	<line class="st29" x1="1679.5" y1="2018" x2="1691.4" y2="1921.8"/>
	<polygon class="st30" points="1743.7,1877.7 1774.1,1899 1754.7,1918.6 1765.9,1921.8 1740.6,2021 	"/>
	<polygon class="st30" points="1706.7,1878 1675.9,1898.7 1694.9,1918.7 1683.7,1921.7 1709.5,2021 	"/>
	<path class="st32" d="M1734.7,1805.3c0,0,16.1-35.5,31.2-9.3c15,26.2-6.4,60.9,18.3,73.3c0,0-23.9,14.8-33.8-19.7L1734.7,1805.3z"
		/>
	<path class="st32" d="M1707.9,1819.1l18.4,13c0,0,2.4-6.4,7.2-3.1c5,3.5-0.2,8.5-0.2,8.5l13.1,16c0,0,14.2-19.6,2.8-37.1
		c-4.3-6.6-11.5-11.1-19.4-11.2C1723.3,1805.2,1715.1,1808,1707.9,1819.1z"/>
</g>
<g id="perso_1">
	<path class="st24" d="M2044.7,2057.7c0,0-3.4,10.8,0.4,24.1c3.8,13.3,0.2,17.4,0.2,17.4l-71.5-5.2c0,0-1.2-15.6,13.3-14.9
		c14.5,0.7,29.5,4.6,30.6-8.5C2018.7,2057.7,2027.1,2051.6,2044.7,2057.7z"/>
	<g>
		<path class="st33" d="M1970.2,2096.9c0.1-1.2,0.7-2.3,1.6-3.1s2.1-1.2,3.3-1.1l68.6,5.6c2.6,0.2,4.5,2.5,4.3,5.1l-0.6,7.5
			l-77.8-6.4L1970.2,2096.9z M2045,2103.2c0.1-0.9-0.6-1.7-1.5-1.8l0,0l-68.6-5.6c-0.4,0-0.8,0.1-1.1,0.4c-0.3,0.3-0.5,0.6-0.5,1
			l-0.4,4.6l71.7,5.9L2045,2103.2z"/>
	</g>
	<path class="st24" d="M2164.2,2182.3h34.5c0,0,4-11.5-1.8-19.7c-3.9-5.6-4.9-9.6-5.1-11.6c-0.1-0.8-0.8-1.5-1.7-1.5h-24.3
		c0,0,0.2,10.8-2.9,14.5C2158.9,2168.8,2161.1,2178.7,2164.2,2182.3z"/>
	<path class="st34" d="M2200.6,2194.2h-38.1v-6.2c0-2.7,2.2-4.8,4.8-4.8h28.4c2.7,0,4.8,2.2,4.8,4.8v6.2H2200.6z"/>
	<path class="st25" d="M2104.1,1837.6l-78.6,85.2c-5.7,6.1-9.2,14-10.1,22.3l-12.8,120.9l49.8,3.8l15.4-108.8
		c1.2-8.3,5-15.9,10.8-21.9l113.1-102.6L2104.1,1837.6z"/>
	<polygon class="st6" points="2199.7,1822.4 2204.6,2155.2 2153,2155.2 2135.2,1822.4 	"/>
	<g>
		<g>
			<path class="st33" d="M2198.2,1824.3c0,3,0.1,5.9,0.1,8.9c0.1,8,0.2,16.1,0.3,24.1c0.2,11.8,0.3,23.7,0.5,35.5
				c0.2,14.5,0.4,29,0.6,43.5c0.2,15.9,0.4,31.8,0.6,47.7c0.2,16,0.4,32,0.6,47.9c0.2,14.9,0.4,29.9,0.6,44.8
				c0.2,12.6,0.3,25.3,0.5,37.9c0.1,9.1,0.2,18.1,0.4,27.2c0.1,4.3-0.1,8.6,0.2,12.9c0,0.2,0,0.4,0,0.5c0.7-0.7,1.4-1.4,2.1-2.1
				c-15,0.1-30,0.2-45,0.3c-2.1,0-4.2,0-6.3,0c0.7,0.7,1.4,1.4,2.1,2.1c-1.2-21.9-2.5-43.9-3.7-65.8c-1.1-18.9-2.1-37.8-3.2-56.6
				c-0.9-15.9-1.8-31.8-2.7-47.7c-0.7-13.3-1.5-26.5-2.2-39.8c-0.6-10.8-1.2-21.5-1.8-32.3c-0.5-8.5-0.9-17.1-1.4-25.6
				c-0.3-6.6-0.7-13.1-1-19.7c-0.2-4.8-0.5-9.6-0.7-14.5c-0.2-3.3-0.3-6.5-0.4-9.8c-0.1-2-0.1-4-0.2-5.9c0-0.3,0-0.6,0-0.9
				c0-2.7-4.2-2.7-4.2,0c0,1.7,0.1,3.4,0.1,5c0.1,2.9,0.2,5.9,0.4,8.8c0.2,4.4,0.4,8.8,0.6,13.2c0.3,6.1,0.6,12.3,0.9,18.4
				c0.4,8,0.9,16.1,1.3,24.1c0.6,10.2,1.1,20.4,1.7,30.6c0.7,12.6,1.4,25.2,2.1,37.8c0.8,15.3,1.7,30.6,2.6,45.8
				c1,18.1,2,36.1,3,54.2c1.2,21.2,2.4,42.5,3.6,63.7c0.3,5.6,0.6,11.3,0.9,16.9c0.1,1.1,0.9,2.1,2.1,2.1c15-0.1,30-0.2,45-0.3
				c2.1,0,4.2,0,6.3,0c1.1,0,2.1-1,2.1-2.1c0-3-0.1-5.9-0.1-8.9c-0.1-8-0.2-16.1-0.3-24.1c-0.2-11.8-0.3-23.7-0.5-35.5
				c-0.2-14.5-0.4-29-0.6-43.5c-0.2-15.9-0.4-31.8-0.6-47.6c-0.2-16-0.4-32-0.6-47.9c-0.2-14.9-0.4-29.9-0.6-44.8
				c-0.2-12.6-0.3-25.3-0.5-37.9c-0.1-9.1-0.2-18.1-0.4-27.2c-0.1-4.3,0-8.6-0.2-12.9c0-0.2,0-0.4,0-0.5
				C2202.4,1821.6,2198.2,1821.5,2198.2,1824.3L2198.2,1824.3z"/>
		</g>
	</g>
	<polygon class="st35" points="1984.4,2185.3 1939.5,2185.3 1924,2106.1 1998.3,2106.1 	"/>
	<path class="st35" d="M1961.4,2127L1961.4,2127c-2.4,0-4.3-1.9-4.3-4.3v-359.8c0-2.4,1.9-4.3,4.3-4.3l0,0c2.4,0,4.3,1.9,4.3,4.3
		v359.8C1965.7,2125,1963.8,2127,1961.4,2127z"/>
	<path class="st35" d="M1917.8,2189c0,0,5.5-16.6,27.6-7.4c0,0,16-14.7,23.3-6.1c7.4,8.6,8,11.7,12.3,9.8c4.3-1.8,16-5.5,21.5,9.8"
		/>
	<path class="st36" d="M1980.9,1759.6c2.3,0.6,4.6,1.4,6.8,2.4l47.9,23l0,0c0,0,7.2-6,11.8-10.6c15.6-15.4,30.1-1.6,22.8,15.3
		c-3,6.8-9.5,16.7-18.9,21.9c-6.4,3.5-14.4,2.6-20-2.1l-56.2-44.9h-28.9c0,0-0.6-6.1,16-10.4
		C1969.5,1752.3,1973.8,1757.7,1980.9,1759.6z"/>
	<path class="st37" d="M2099.6,1694.5c0,0-24.4,4.8-63.7,83l36.7,14.1C2072.6,1791.6,2135.5,1683.3,2099.6,1694.5z"/>
	<path class="st36" d="M2215.2,1757.1l31.9,118.5c0,0-11.8-0.3-14.3-13.8c-1.5-7.9-6.2-26.6-10.6-34.7c-16-29.5-30.3-60.7-39.6-65.2
		C2171.2,1756.5,2205,1731,2215.2,1757.1z"/>
	<path class="st37" d="M2121.2,1688.6c-14.8,3-29.9,7.4-32.3,13.6c-2.9,7.6-15.1,140.9-15.1,140.9h136.3c0,0-5.5-26.2-18.4-69.9
		h33.3c-26.6-70.7-47.2-77.5-47.2-77.5c-2-1.8-18.2-8.3-28.4-8.4L2121.2,1688.6z"/>
	<path class="st38" d="M2103.7,1680.6c0,0-3.6-56,31.5-56.1c34.7-0.1,33.2,54.8,33.2,54.8L2103.7,1680.6z"/>
	<ellipse class="st39" cx="2135.2" cy="1652.3" rx="20.9" ry="6.1"/>
	<path class="st39" d="M2127.8,1667.7c0,0,0,11.7-4.9,20.9c-3.2,6.1,8.8,11.1,18.1,9c6-1.4,9.8-7.3,5.9-12.1
		c-2.5-3.1-6.5-10-7.4-19.6C2137.7,1646.2,2128.4,1660.9,2127.8,1667.7z"/>
	<ellipse class="st39" cx="2135.2" cy="1651.1" rx="17.2" ry="23.3"/>
	<path class="st38" d="M2114.3,1658.4c0,0,32.2-5.8,37.1-28.7c0,0-7-5.6-16.2-5.2s-19.6,3.1-26.7,20.8c0,0-6.4,15.8-4.9,35.3"/>
	<line class="st31" x1="2191.7" y1="1773.2" x2="2172.9" y2="1728.1"/>
</g>
</svg>
