<?xml version="1.0" encoding="utf-8"?>
<!-- Generator: Adobe Illustrator 24.0.3, SVG Export Plug-In . SVG Version: 6.00 Build 0)  -->
<svg version="1.1" id="Calque_1" xmlns="http://www.w3.org/2000/svg" xmlns:xlink="http://www.w3.org/1999/xlink" x="0px" y="0px"
	 viewBox="0 0 841.9 595.3" style="enable-background:new 0 0 841.9 595.3;" xml:space="preserve">
<style type="text/css">
	.st0{fill:#010202;}
	.st1{fill:#0F4239;}
	.st2{fill:#FFFFFF;stroke:#302E2F;stroke-width:2;stroke-miterlimit:10;}
	.st3{fill:#302E2F;stroke:#302E2F;stroke-width:2;stroke-linejoin:round;stroke-miterlimit:10;}
	.st4{fill:#0E4239;stroke:#302E2F;stroke-width:2;stroke-linejoin:round;stroke-miterlimit:10;}
	.st5{fill:#43B06F;stroke:#302E2F;stroke-width:2;stroke-miterlimit:10;}
	.st6{fill:none;stroke:#302E2F;stroke-width:2;stroke-miterlimit:10;}
	.st7{fill:#0E4239;stroke:#302E2F;stroke-width:2;stroke-miterlimit:10;}
	.st8{fill:#FAB431;stroke:#302E2F;stroke-width:2;stroke-miterlimit:10;}
</style>
<g id="Calque_1_1_">
	<circle class="st0" cx="420.9" cy="145" r="2.2"/>
</g>
<g id="couleurs">
	
		<image style="overflow:visible;enable-background:new    ;" width="79" height="78" id="Capture_d_x2019_écran_2020-01-17_à_14.35.14_xA0_Image_2_" xlink:href="EB4A16CFEA61CFE4.png"  transform="matrix(0.8466 0 0 0.8466 928.4373 653.3586)">
	</image>
	
		<image style="overflow:visible;enable-background:new    ;" width="107" height="92" id="Capture_d_x2019_écran_2020-01-17_à_14.29.08_xA0_Image_3_" xlink:href="EB4A16CFEA61CFEF.png"  transform="matrix(0.8416 0 0 0.8416 915.9963 171.6875)">
	</image>
	
		<image style="overflow:visible;enable-background:new    ;" width="97" height="102" id="Capture_d_x2019_écran_2020-01-17_à_14.28.58_xA0_Image_2_" xlink:href="EB4A16CFEA61CFE1.png"  transform="matrix(0.8408 0 0 0.8408 920.6712 54.7432)">
	</image>
	<rect x="905.7" y="-55.1" class="st1" width="106.3" height="86.1"/>
	
		<image style="overflow:visible;enable-background:new    ;" width="102" height="72" id="Capture_d_x2019_écran_2020-01-17_à_14.29.25_xA0_Image_2_" xlink:href="EB4A16CFEA61CFE2.png"  transform="matrix(0.8408 0 0 0.8408 918.5692 277.0421)">
	</image>
	
		<image style="overflow:visible;enable-background:new    ;" width="104" height="76" id="Capture_d_x2019_écran_2020-01-17_à_14.33.50_xA0_Image_3_" xlink:href="EB4A16CFEA61CFE3.png"  transform="matrix(0.8411 0 0 0.8411 917.7115 363.6825)">
	</image>
	
		<image style="overflow:visible;enable-background:new    ;" width="90" height="90" id="Capture_d_x2019_écran_2020-01-17_à_14.35.00_xA0_Image_2_" xlink:href="EB4A16CFEA61CFE7.png"  transform="matrix(0.8385 0 0 0.8385 918.5692 452.6766)">
	</image>
	
		<image style="overflow:visible;enable-background:new    ;" width="97" height="86" id="Capture_d_x2019_écran_2020-01-17_à_14.35.06_xA0_Image_3_" xlink:href="EB4A16CFEA61CFE0.png"  transform="matrix(0.8488 0 0 0.8488 920.2844 559.4011)">
	</image>
</g>
<g id="Calque_2_1_">
</g>
<g id="bureau">
</g>
<g id="écran">
</g>
<g id="Calque_7">
	<polygon class="st2" points="800.7,265.2 841.6,585.1 756,264.9 	"/>
	<polygon class="st3" points="800.7,265.2 814.2,270.9 841.6,585.1 	"/>
	<polygon class="st2" points="136.7,265.2 95.8,585.1 181.4,264.9 	"/>
	<polygon class="st3" points="136.7,265.2 123.2,270.9 95.8,585.1 	"/>
	<polygon class="st4" points="22.5,307.1 922.5,307.1 803.5,263.8 139.1,263.8 	"/>
	<rect x="22.9" y="307.1" class="st2" width="899.2" height="6.7"/>
	<polygon class="st5" points="876.7,314.4 911.9,651.1 809.5,314.4 	"/>
	<polygon class="st5" points="56.1,314.4 17.6,642.5 123.3,314.4 	"/>
	<path class="st3" d="M81.5,583.7"/>
	<polygon class="st2" points="261.1,299.1 582.4,299.1 539.9,283.6 302.7,283.6 	"/>
	<rect x="262.1" y="14.9" class="st2" width="319.4" height="213.6"/>
	<path class="st2" d="M451.9,228.6h-31.7h-1.5H387c-3.1,26.1-19.7,46.3-19.7,46.3h45.6h12.9h45.6C471.5,274.8,455,254.7,451.9,228.6
		z"/>
	<rect x="262.1" y="32.9" class="st2" width="319.4" height="9.3"/>
	<ellipse class="st2" cx="268.7" cy="37.5" rx="1.3" ry="1.4"/>
	<ellipse class="st2" cx="276.1" cy="37.5" rx="1.3" ry="1.4"/>
	<ellipse class="st2" cx="283.6" cy="37.5" rx="1.3" ry="1.4"/>
	<rect x="262.1" y="14.9" class="st5" width="319.4" height="17.9"/>
	<rect x="262.1" y="210.6" class="st5" width="319.4" height="17.9"/>
	<polygon class="st2" points="745.3,256.5 797.6,176.4 804.1,179.7 776.3,261.5 	"/>
	<path class="st2" d="M785.4,278.5c-0.4-13.5-15.6-24.4-34.2-24.4c-18.7,0-33.8,10.9-34.2,24.4H785.4z"/>
	<line class="st6" x1="805.3" y1="177.9" x2="746" y2="109.2"/>
	<ellipse class="st7" cx="800.9" cy="178.3" rx="4.5" ry="4.7"/>
	<ellipse class="st7" cx="743.2" cy="112.4" rx="4.5" ry="4.7"/>
	<ellipse class="st8" cx="720.3" cy="145.7" rx="13.4" ry="13.9"/>
	<path class="st2" d="M749.4,167.5c10.4-16.8,6.2-39.2-9.7-50.3s-37.4-6.9-48.5,9.5L749.4,167.5z"/>
</g>
</svg>
