<?xml version="1.0" encoding="utf-8"?>
<!-- Generator: Adobe Illustrator 23.1.1, SVG Export Plug-In . SVG Version: 6.00 Build 0)  -->
<svg version="1.1" id="Calque_1" xmlns="http://www.w3.org/2000/svg" xmlns:xlink="http://www.w3.org/1999/xlink" x="0px" y="0px"
	 viewBox="0 0 700 700" style="enable-background:new 0 0 700 700;" xml:space="preserve">
<style type="text/css">
	.st0{clip-path:url(#SVGID_2_);fill:#302E2E;}
	.st1{clip-path:url(#SVGID_4_);fill:#302E2E;}
	.st2{clip-path:url(#SVGID_4_);fill:none;stroke:#302E2E;stroke-width:5;stroke-miterlimit:10;}
	.st3{fill:#FAB430;}
	.st4{fill:none;stroke:#302E2E;stroke-width:4;stroke-miterlimit:10;}
	.st5{clip-path:url(#SVGID_6_);fill:#302E2E;}
	.st6{clip-path:url(#SVGID_10_);fill:#302E2E;}
	.st7{clip-path:url(#SVGID_10_);fill:#FFFFFF;}
	.st8{clip-path:url(#SVGID_10_);fill:none;stroke:#302E2E;stroke-width:4;stroke-miterlimit:10;}
	.st9{clip-path:url(#SVGID_12_);fill:#FFFFFF;}
	.st10{clip-path:url(#SVGID_12_);fill:none;stroke:#302E2E;stroke-width:4;stroke-miterlimit:10;}
	.st11{clip-path:url(#SVGID_16_);fill:#302E2E;}
	.st12{clip-path:url(#SVGID_16_);fill:none;stroke:#302E2E;stroke-width:4;stroke-miterlimit:10;}
	.st13{clip-path:url(#SVGID_16_);fill:#FFFFFF;}
	.st14{fill:#2D59A5;}
	.st15{clip-path:url(#SVGID_18_);fill:#302E2E;}
	.st16{clip-path:url(#SVGID_18_);fill:none;stroke:#302E2E;stroke-width:0.25;stroke-miterlimit:10;}
	.st17{clip-path:url(#SVGID_20_);fill:#302E2E;}
	.st18{clip-path:url(#SVGID_20_);fill:none;stroke:#302E2E;stroke-width:4;stroke-miterlimit:10;}
	.st19{clip-path:url(#SVGID_22_);fill:#302E2E;}
	.st20{clip-path:url(#SVGID_22_);fill:none;stroke:#302E2E;stroke-width:4;stroke-miterlimit:10;}
	.st21{clip-path:url(#SVGID_24_);fill:#2D59A5;}
	.st22{clip-path:url(#SVGID_24_);fill:none;stroke:#302E2E;stroke-width:4;stroke-miterlimit:10;}
	.st23{fill:none;stroke:#302E2E;stroke-width:4;stroke-linecap:round;stroke-miterlimit:10;}
</style>
<g>
	<g>
		<defs>
			<rect id="SVGID_1_" x="-71.2" y="208.1" width="857" height="1080"/>
		</defs>
		<clipPath id="SVGID_2_">
			<use xlink:href="#SVGID_1_"  style="overflow:visible;"/>
		</clipPath>
		<path class="st0" d="M293,1150.6c0,0-4,18.1,4,39c8,21,2.8,28.3,2.8,28.3l-116.7,1.8c0,0-4.2-25.1,19.4-26.1
			c23.6-1,48.5,3.2,48.4-18.1C250.8,1154.2,263.5,1143.2,293,1150.6"/>
		<path class="st0" d="M299.4,1188.7c8.2,21.6,3.1,29.8,2.5,30.6l-0.7,1l-120.1,1.8l-0.4-2.1c-0.1-0.5-2.1-12.9,4.8-21.4
			c3.8-4.7,9.5-7.3,16.9-7.6c2.8-0.1,5.5-0.2,8.2-0.3c22.5-0.6,37.9-2.6,37.9-18.2c-0.1-11.3,5.4-17.1,11.1-21.6
			c6.8-5.4,17.9-6,34-2l1.7,0.4C290.4,1167.3,299.4,1188.7,299.4,1188.7 M294.7,1190.5c-6.7-17.5-3.4-31.9-4-37
			c-13.5-3.2-22.7-2.7-28,1.5c-4.4,3.4-9.3,8-9.2,17.6c0.1,21.3-22.1,22.7-42.7,23.2c-2.7,0.1-5.4,0.1-8.1,0.3
			c-5.9,0.2-10.4,2.2-13.3,5.7c-4,4.9-4.2,11.9-4,15.3l112.8-1.7C299.1,1212.9,300.4,1205.4,294.7,1190.5"/>
		<path class="st0" d="M177.8,1224.9c0-2,0.7-3.9,2.1-5.3c1.4-1.4,3.3-2.2,5.2-2.2l112.1-0.8c4.2,0,7.7,3.4,7.8,7.7l0.1,12.2
			l-127.2,0.9L177.8,1224.9z M300,1224.3c0-1.5-1.2-2.7-2.7-2.7h0l-112.1,0.8c-0.7,0-1.3,0.3-1.7,0.7c-0.5,0.5-0.7,1.1-0.7,1.7
			l0.1,7.5l117.2-0.8L300,1224.3z"/>
	</g>
	<g>
		<defs>
			<rect id="SVGID_3_" x="-71.2" y="208.1" width="857" height="1080"/>
		</defs>
		<clipPath id="SVGID_4_">
			<use xlink:href="#SVGID_3_"  style="overflow:visible;"/>
		</clipPath>
		<path class="st1" d="M390.9,1216.2h56.2c0,0,6.4-18.7-2.9-32.2c-6.3-9.1-7.9-15.6-8.3-18.8c-0.2-1.4-1.3-2.4-2.7-2.4h-39.6
			c0,0,0.3,17.6-4.8,23.6C382.3,1194.2,386,1210.3,390.9,1216.2"/>
		<path class="st2" d="M390.9,1216.2h56.2c0,0,6.4-18.7-2.9-32.2c-6.3-9.1-7.9-15.6-8.3-18.8c-0.2-1.4-1.3-2.4-2.7-2.4h-39.6
			c0,0,0.3,17.6-4.8,23.6C382.3,1194.2,386,1210.3,390.9,1216.2z"/>
		<path class="st2" d="M450.3,1235.6h-62v-13.2c0-2.7,2.2-4.8,4.8-4.8h52.3c2.7,0,4.8,2.2,4.8,4.8V1235.6z"/>
	</g>
	<polygon class="st3" points="276,624.8 228.7,1164.9 315.5,1170.7 371.8,631.3 	"/>
	<polygon class="st4" points="276,624.8 228.7,1164.9 315.5,1170.7 371.8,631.3 	"/>
	<polygon class="st3" points="448.8,630.1 456.8,1172.1 372.8,1172.1 343.8,630.1 	"/>
	<g>
		<defs>
			<rect id="SVGID_5_" x="-71.2" y="208.1" width="857" height="1080"/>
		</defs>
		<clipPath id="SVGID_6_">
			<use xlink:href="#SVGID_5_"  style="overflow:visible;"/>
		</clipPath>
		<path class="st5" d="M447.7,633.1c0.2,17.9,0.5,35.8,0.7,53.6c0.6,42.9,1.1,85.9,1.7,128.8c0.7,51.9,1.3,103.9,2,155.8
			c0.6,44.9,1.2,89.7,1.7,134.6c0.2,14.8,0.4,29.5,0.6,44.3c0.1,4.5,0.1,9.1,0.2,13.6c0,2.1-0.5,5.2,0.1,7.3c0.1,0.3,0,0.6,0,0.9
			c0.7-0.7,1.4-1.4,2.1-2.1c-27.8,0.2-55.7,0.3-83.5,0.5c0.7,0.7,1.4,1.4,2.1,2.1c-3.6-63.3-7.1-126.5-10.7-189.8
			c-2.2-39.9-4.5-79.8-6.7-119.7c-1.3-22.4-2.5-44.7-3.7-67.1c-0.6-10.6-1.1-21.3-1.6-31.9c-0.2-4.7-0.1-9.4-0.3-14.1
			c0-0.5,0-0.9,0-1.4c0-2.7-4.2-2.7-4.2,0c0,4.4,0.1,8.7,0.3,13.1c0.3,9.6,0.9,19.1,1.4,28.7c1.1,20.6,2.2,41.2,3.4,61.7
			c2.1,37.4,4.2,74.8,6.3,112.2c3.4,60,6.8,120,10.1,180c0.5,9.4,1.1,18.8,1.6,28.3c0.1,1.1,0.9,2.1,2.1,2.1
			c27.8-0.2,55.7-0.3,83.5-0.5c1.1,0,2.1-1,2.1-2.1c-0.2-17.9-0.5-35.8-0.7-53.6l-1.7-128.8c-0.7-51.9-1.4-103.9-2-155.8
			c-0.6-44.9-1.2-89.7-1.7-134.6c-0.2-14.8-0.4-29.5-0.6-44.3c-0.1-6.9,0.3-14-0.3-20.9c0-0.3,0-0.6,0-0.9
			C451.8,630.4,447.6,630.4,447.7,633.1"/>
	</g>
	<g>
		<defs>
			<rect id="SVGID_7_" x="-71.2" y="208.1" width="857" height="1080"/>
		</defs>
		<clipPath id="SVGID_8_">
			<use xlink:href="#SVGID_7_"  style="overflow:visible;"/>
		</clipPath>
	</g>
	<g>
		<defs>
			<rect id="SVGID_9_" x="-71.2" y="208.1" width="857" height="1080"/>
		</defs>
		<clipPath id="SVGID_10_">
			<use xlink:href="#SVGID_9_"  style="overflow:visible;"/>
		</clipPath>
		<path class="st6" d="M222.1,566l15,199.4c0,0,17.7-7.3,13.7-29.3c-2.4-12.9-6-44-4-59c7.2-54.1,0.4-101.9,12-114
			C273,548.1,222.6,520.3,222.1,566"/>
		<path class="st6" d="M219.8,566c1.7,22.4,3.4,44.9,5.1,67.3c2.7,35.8,5.4,71.6,8.1,107.3c0.6,8.2,1.2,16.5,1.9,24.7
			c0.1,1.8,1.8,2.6,3.4,1.9c4.9-2.1,9.1-6.4,11.7-10.9c5.6-9.6,3-19.8,1.5-30.2c-1.8-13.1-3.2-26.5-3-39.7
			c0.1-6.8,1.1-13.4,1.8-20.2c0.9-9,1.5-17.9,2-26.9c0.7-15,0.8-29.9,1.5-44.9c0.5-8.9,0.3-20.6,5.4-28.4c3.1-4.7,5.8-8.1,3.3-14
			c-2.3-5.3-7.4-9.1-12.6-11.3c-6.2-2.6-13.5-3.2-19.5,0.4C221.9,546.2,220,557,219.8,566c-0.1,2.9,4.4,2.9,4.5,0
			c0.2-7.5,1.5-17.3,8.9-21.3c4.9-2.6,11-1.7,15.9,0.7c4.1,2,9.2,5.8,9.9,10.7c0.3,2.3-0.6,3.8-2,5.6c-1.9,2.4-3.2,4.9-4.2,7.8
			c-2.8,8.4-3.1,17.7-3.5,26.4c-0.6,13.3-0.7,26.7-1.3,40c-0.6,15-2.7,29.8-3.7,44.8c-0.8,11.2,0.2,22.6,1.4,33.8
			c1.7,16,10,40.7-9.6,49l3.4,1.9c-1.7-22.4-3.4-44.9-5.1-67.3c-2.7-35.8-5.4-71.6-8.1-107.3c-0.6-8.2-1.2-16.5-1.9-24.7
			C224.1,563.1,219.6,563.1,219.8,566"/>
		<path class="st7" d="M269.8,436.1c0,0-44,34.1-58,175.9h64C275.8,612.1,317.8,398.1,269.8,436.1"/>
		<path class="st8" d="M269.8,436.1c0,0-44,34.1-58,175.9h64C275.8,612.1,317.8,398.1,269.8,436.1z"/>
	</g>
	<g>
		<defs>
			<rect id="SVGID_11_" x="-71.2" y="208.1" width="857" height="1080"/>
		</defs>
		<clipPath id="SVGID_12_">
			<use xlink:href="#SVGID_11_"  style="overflow:visible;"/>
		</clipPath>
		<path class="st9" d="M243.8,698.1h235c0,0-25-250-50-268.4c-25-18.4-56-24.6-85-24.6s-69,18.4-74,30.7S243.8,698.1,243.8,698.1"/>
		<path class="st10" d="M243.8,698.1h235c0,0-25-250-50-268.4c-25-18.4-56-24.6-85-24.6s-69,18.4-74,30.7S243.8,698.1,243.8,698.1z"
			/>
	</g>
	<g>
		<defs>
			<rect id="SVGID_13_" x="-71.2" y="208.1" width="857" height="1080"/>
		</defs>
		<clipPath id="SVGID_14_">
			<use xlink:href="#SVGID_13_"  style="overflow:visible;"/>
		</clipPath>
	</g>
	<g>
		<defs>
			<rect id="SVGID_15_" x="-71.2" y="208.1" width="857" height="1080"/>
		</defs>
		<clipPath id="SVGID_16_">
			<use xlink:href="#SVGID_15_"  style="overflow:visible;"/>
		</clipPath>
		<path class="st11" d="M275.8,526.1l168.6,43.6c0,0-8.6-17.6,0.4-27.6s45-6,54,14s23,69-11,76s-141-68-156-71
			S291.8,571.1,275.8,526.1"/>
		<path class="st12" d="M275.8,526.1l168.6,43.6c0,0-8.6-17.6,0.4-27.6s45-6,54,14s23,69-11,76s-141-68-156-71
			S291.8,571.1,275.8,526.1z"/>
		<path class="st13" d="M424.8,426.1c0,0,73,15,93,165l-84-24C433.8,567.1,402.8,451.1,424.8,426.1"/>
		<path class="st11" d="M423.2,427.8c8.8,1.2,17.5,6.8,24.4,12c22.7,17.3,37.5,43.9,47.7,70c10.5,26.6,16.9,54.6,21.5,82.8
			c0.9-0.9,1.7-1.7,2.6-2.6c-24.8-7.3-49.5-14.6-74.3-21.9c-3.6-1-7.1-2.1-10.7-3.1c0.5,0.5,1,1,1.5,1.5
			c-6.8-24.6-12.3-49.9-15.1-75.2c-0.3-2.7-4.5-2.7-4.2,0c2.3,20.1,6.3,39.9,11,59.5c1.2,5.2,2.3,10.5,3.9,15.6
			c0.6,1.8,1.2,2.4,2.9,3c8.1,2.9,16.7,4.9,25,7.4c12.1,3.6,24.2,7.1,36.3,10.7c7.5,2.2,15.1,4.4,22.6,6.6c1.7,0.5,2.8-1.1,2.6-2.6
			c-7-43.3-18.3-88.5-43.4-125.3c-11-16.2-25.5-31.6-43.8-39.5c-3-1.3-6.1-2.6-9.4-3C421.6,423.4,420.5,427.4,423.2,427.8"/>
	</g>
	<polygon class="st14" points="343.3,324.6 325.1,294.1 363.1,294.1 	"/>
	<polygon class="st4" points="343.3,324.6 325.1,294.1 363.1,294.1 	"/>
	<g>
		<defs>
			<rect id="SVGID_17_" x="-71.2" y="208.1" width="857" height="1080"/>
		</defs>
		<clipPath id="SVGID_18_">
			<use xlink:href="#SVGID_17_"  style="overflow:visible;"/>
		</clipPath>
		<path class="st15" d="M377.8,353.1c0,5.5-15.2,10-34,10c-18.8,0-34-4.5-34-10c0-5.5,15.2-10,34-10
			C362.5,343.1,377.8,347.5,377.8,353.1"/>
		<ellipse class="st16" cx="343.8" cy="353.1" rx="34" ry="10"/>
	</g>
	<g>
		<defs>
			<rect id="SVGID_19_" x="-71.2" y="208.1" width="857" height="1080"/>
		</defs>
		<clipPath id="SVGID_20_">
			<use xlink:href="#SVGID_19_"  style="overflow:visible;"/>
		</clipPath>
		<path class="st17" d="M331.8,378.1c0,0,0,19-8,34c-5.3,9.9,14.3,18.1,29.4,14.7c9.8-2.2,15.9-11.8,9.6-19.7
			c-4.1-5.1-10.5-16.3-12-32C347.8,343.1,332.8,367.1,331.8,378.1"/>
		<path class="st18" d="M331.8,378.1c0,0,0,19-8,34c-5.3,9.9,14.3,18.1,29.4,14.7c9.8-2.2,15.9-11.8,9.6-19.7
			c-4.1-5.1-10.5-16.3-12-32C347.8,343.1,332.8,367.1,331.8,378.1z"/>
	</g>
	<g>
		<defs>
			<rect id="SVGID_21_" x="-71.2" y="208.1" width="857" height="1080"/>
		</defs>
		<clipPath id="SVGID_22_">
			<use xlink:href="#SVGID_21_"  style="overflow:visible;"/>
		</clipPath>
		<path class="st19" d="M371.8,351.1c0,21-12.5,38-28,38c-15.5,0-28-17-28-38s12.5-38,28-38C359.2,313.1,371.8,330.1,371.8,351.1"/>
		<ellipse class="st20" cx="343.8" cy="351.1" rx="28" ry="38"/>
	</g>
	<g>
		<defs>
			<rect id="SVGID_23_" x="-71.2" y="208.1" width="857" height="1080"/>
		</defs>
		<clipPath id="SVGID_24_">
			<use xlink:href="#SVGID_23_"  style="overflow:visible;"/>
		</clipPath>
		<path class="st21" d="M311.8,349.6c0,0,30-18,64,0c0,0-1-42-32-42S311.8,349.6,311.8,349.6"/>
		<path class="st22" d="M311.8,349.6c0,0,30-18,64,0c0,0-1-42-32-42S311.8,349.6,311.8,349.6z"/>
	</g>
</g>
<line class="st23" x1="125.8" y1="698" x2="563.2" y2="698"/>
</svg>
