<?xml version="1.0" encoding="utf-8"?>
<!-- Generator: Adobe Illustrator 23.1.1, SVG Export Plug-In . SVG Version: 6.00 Build 0)  -->
<svg version="1.1" xmlns="http://www.w3.org/2000/svg" xmlns:xlink="http://www.w3.org/1999/xlink" x="0px" y="0px"
	 viewBox="0 0 1702.26 1080" style="enable-background:new 0 0 1702.26 1080;" xml:space="preserve">
<style type="text/css">
	.st0{fill:#0E4239;stroke:#302E2F;stroke-width:4;stroke-linejoin:round;stroke-miterlimit:10;}
	.st1{fill:#18948A;stroke:#302E2F;stroke-width:4;stroke-miterlimit:10;}
	.st2{fill:#FFFFFF;stroke:#302E2F;stroke-width:4;stroke-miterlimit:10;}
	.st3{fill:#FFFFFF;stroke:#302E2F;stroke-width:4;stroke-linejoin:round;stroke-miterlimit:10;}
	.st4{display:none;}
	.st5{display:inline;fill:#0E4239;stroke:#302E2F;stroke-width:4;stroke-linejoin:round;stroke-miterlimit:10;}
	.st6{display:inline;fill:#FFFFFF;stroke:#302E2F;stroke-width:4;stroke-miterlimit:10;}
	.st7{display:inline;}
	.st8{fill:#302E2F;stroke:#302E2F;stroke-width:4;stroke-miterlimit:10;}
	.st9{display:inline;fill:#FFFFFF;stroke:#302E2F;stroke-width:4;stroke-linejoin:round;stroke-miterlimit:10;}
	.st10{display:inline;fill:#18948A;stroke:#302E2F;stroke-width:4;stroke-miterlimit:10;}
	.st11{display:inline;fill:#18948A;stroke:#302E2F;stroke-width:4;stroke-linejoin:round;stroke-miterlimit:10;}
	.st12{display:inline;fill:#0F4239;stroke:#302E2F;stroke-width:4;stroke-miterlimit:10;}
	.st13{display:inline;fill:#18948A;stroke:#0F4239;stroke-width:4;stroke-miterlimit:10;}
	.st14{display:inline;fill:#0E4239;stroke:#302E2F;stroke-width:4;stroke-miterlimit:10;}
	
		.st15{display:inline;fill:#0E4239;stroke:#302E2F;stroke-width:4;stroke-linecap:round;stroke-linejoin:round;stroke-miterlimit:10;}
	.st16{display:inline;fill:#302E2F;stroke:#302E2F;stroke-width:4;stroke-miterlimit:10;}
	.st17{display:inline;fill:#FFFFFF;stroke:#302E2F;stroke-width:4;stroke-linecap:round;stroke-miterlimit:10;}
	.st18{display:inline;fill:#42B06F;stroke:#302E2F;stroke-width:4;stroke-miterlimit:10;}
</style>
<g id="plan3_x5F_D">
	<rect x="929.44" y="-420.78" class="st0" width="571.07" height="1527.35"/>
	<rect x="1019.77" y="-290.83" class="st1" width="70.8" height="114.68"/>
	<polygon class="st2" points="1008.66,-319.5 1100.51,-319.5 1090.57,-290.83 1019.77,-290.83 	"/>
	<rect x="1339.96" y="-290.83" class="st1" width="70.8" height="114.68"/>
	<polygon class="st2" points="1329.43,-319.5 1421.29,-319.5 1411.34,-290.83 1340.55,-290.83 	"/>
	<rect x="1179.87" y="-290.83" class="st1" width="70.8" height="114.68"/>
	<polygon class="st2" points="1169.34,-319.5 1261.2,-319.5 1251.25,-290.83 1180.45,-290.83 	"/>
	<rect x="1019.77" y="-88.16" class="st1" width="70.8" height="114.68"/>
	<polygon class="st2" points="1008.66,-116.83 1100.51,-116.83 1090.57,-88.16 1019.77,-88.16 	"/>
	<rect x="1339.96" y="-88.16" class="st1" width="70.8" height="114.68"/>
	<polygon class="st2" points="1329.43,-116.83 1421.29,-116.83 1411.34,-88.16 1340.55,-88.16 	"/>
	<rect x="1179.87" y="-88.16" class="st1" width="70.8" height="114.68"/>
	<polygon class="st2" points="1169.34,-116.83 1261.2,-116.83 1251.25,-88.16 1180.45,-88.16 	"/>
	<rect x="1019.77" y="143.17" class="st1" width="70.8" height="114.68"/>
	<polygon class="st2" points="1008.66,114.5 1100.51,114.5 1090.57,143.17 1019.77,143.17 	"/>
	<rect x="1339.96" y="143.17" class="st1" width="70.8" height="114.68"/>
	<polygon class="st2" points="1329.43,114.5 1421.29,114.5 1411.34,143.17 1340.55,143.17 	"/>
	<rect x="1179.87" y="143.17" class="st1" width="70.8" height="114.68"/>
	<polygon class="st2" points="1169.34,114.5 1261.2,114.5 1251.25,143.17 1180.45,143.17 	"/>
	<rect x="1019.77" y="374.5" class="st1" width="70.8" height="114.68"/>
	<polygon class="st2" points="1008.66,345.83 1100.51,345.83 1090.57,374.5 1019.77,374.5 	"/>
	<rect x="1339.96" y="374.5" class="st1" width="70.8" height="114.68"/>
	<polygon class="st2" points="1329.43,345.83 1421.29,345.83 1411.34,374.5 1340.55,374.5 	"/>
	<rect x="1179.87" y="374.5" class="st1" width="70.8" height="114.68"/>
	<polygon class="st2" points="1169.34,345.83 1261.2,345.83 1251.25,374.5 1180.45,374.5 	"/>
	<rect x="1019.77" y="605.84" class="st1" width="70.8" height="114.68"/>
	<polygon class="st2" points="1008.66,577.17 1100.51,577.17 1090.57,605.84 1019.77,605.84 	"/>
	<rect x="1339.96" y="605.84" class="st1" width="70.8" height="114.68"/>
	<polygon class="st2" points="1329.43,577.17 1421.29,577.17 1411.34,605.84 1340.55,605.84 	"/>
	<rect x="1179.87" y="605.84" class="st1" width="70.8" height="114.68"/>
	<polygon class="st2" points="1169.34,577.17 1261.2,577.17 1251.25,605.84 1180.45,605.84 	"/>
	<rect x="1077.65" y="801.62" class="st3" width="275.23" height="304.96"/>
	<line class="st2" x1="1215.27" y1="801.62" x2="1215.27" y2="1106.57"/>
</g>
<g id="plan3_x5F_G" class="st4">
	<rect x="194.79" y="-319.37" class="st5" width="672.27" height="1411.51"/>
	<rect x="250.81" y="-203.21" class="st6" width="105.14" height="78.29"/>
	<rect x="401.28" y="-203.21" class="st6" width="105.14" height="78.29"/>
	<rect x="551.75" y="-203.21" class="st6" width="105.14" height="78.29"/>
	<rect x="250.81" y="-44.51" class="st6" width="105.14" height="78.29"/>
	<rect x="401.28" y="-44.51" class="st6" width="105.14" height="78.29"/>
	<rect x="551.75" y="-44.51" class="st6" width="105.14" height="78.29"/>
	<rect x="704.63" y="-203.21" class="st6" width="105.14" height="78.29"/>
	<rect x="704.63" y="-44.51" class="st6" width="105.14" height="78.29"/>
	<rect x="250.81" y="114.18" class="st6" width="105.14" height="78.29"/>
	<rect x="401.28" y="114.18" class="st6" width="105.14" height="78.29"/>
	<rect x="551.75" y="114.18" class="st6" width="105.14" height="78.29"/>
	<rect x="250.81" y="272.88" class="st6" width="105.14" height="78.29"/>
	<rect x="401.28" y="272.88" class="st6" width="105.14" height="78.29"/>
	<rect x="551.75" y="272.88" class="st6" width="105.14" height="78.29"/>
	<rect x="704.63" y="114.18" class="st6" width="105.14" height="78.29"/>
	<rect x="704.63" y="272.88" class="st6" width="105.14" height="78.29"/>
	<rect x="250.81" y="431.57" class="st6" width="105.14" height="78.29"/>
	<rect x="401.28" y="431.57" class="st6" width="105.14" height="78.29"/>
	<rect x="551.75" y="431.57" class="st6" width="105.14" height="78.29"/>
	<rect x="250.81" y="590.27" class="st6" width="105.14" height="78.29"/>
	<rect x="401.28" y="590.27" class="st6" width="105.14" height="78.29"/>
	<rect x="551.75" y="590.27" class="st6" width="105.14" height="78.29"/>
	<rect x="704.63" y="431.57" class="st6" width="105.14" height="78.29"/>
	<rect x="704.63" y="590.27" class="st6" width="105.14" height="78.29"/>
	<g class="st7">
		<rect x="250.81" y="-136.51" class="st8" width="105.14" height="11.59"/>
		<rect x="250.81" y="22.18" class="st8" width="105.14" height="11.59"/>
		<rect x="401.28" y="-136.51" class="st8" width="105.14" height="11.59"/>
		<rect x="401.28" y="22.18" class="st8" width="105.14" height="11.59"/>
		<rect x="551.75" y="-136.51" class="st8" width="105.14" height="11.59"/>
		<rect x="551.75" y="22.18" class="st8" width="105.14" height="11.59"/>
		<rect x="704.63" y="-136.51" class="st8" width="105.14" height="11.59"/>
		<rect x="704.63" y="22.18" class="st8" width="105.14" height="11.59"/>
		<rect x="250.81" y="180.88" class="st8" width="105.14" height="11.59"/>
		<rect x="250.81" y="339.57" class="st8" width="105.14" height="11.59"/>
		<rect x="401.28" y="180.88" class="st8" width="105.14" height="11.59"/>
		<rect x="401.28" y="339.57" class="st8" width="105.14" height="11.59"/>
		<rect x="551.75" y="180.88" class="st8" width="105.14" height="11.59"/>
		<rect x="551.75" y="339.57" class="st8" width="105.14" height="11.59"/>
		<rect x="704.63" y="180.88" class="st8" width="105.14" height="11.59"/>
		<rect x="704.63" y="339.57" class="st8" width="105.14" height="11.59"/>
		<rect x="250.81" y="498.27" class="st8" width="105.14" height="11.59"/>
		<rect x="250.81" y="656.97" class="st8" width="105.14" height="11.59"/>
		<rect x="401.28" y="498.27" class="st8" width="105.14" height="11.59"/>
		<rect x="401.28" y="656.97" class="st8" width="105.14" height="11.59"/>
		<rect x="551.75" y="498.27" class="st8" width="105.14" height="11.59"/>
		<rect x="551.75" y="656.97" class="st8" width="105.14" height="11.59"/>
		<rect x="704.63" y="498.27" class="st8" width="105.14" height="11.59"/>
		<rect x="704.63" y="656.97" class="st8" width="105.14" height="11.59"/>
	</g>
	<rect x="436.85" y="802.93" class="st9" width="188.14" height="289.21"/>
	<line class="st6" x1="530.92" y1="802.93" x2="530.92" y2="1092.14"/>
	<path class="st10" d="M530.93,742.31c-71.75,0-129.91,58.16-129.91,129.91h259.81C660.83,800.47,602.67,742.31,530.93,742.31z"/>
	<rect x="194.79" y="-355.81" class="st11" width="672.27" height="72.87"/>
</g>
<g id="plan2_x5F_G" class="st4">
	<polyline class="st10" points="593.87,1081.52 593.87,130.98 -69.43,130.98 -69.43,1081.52 	"/>
	<rect x="-69.43" y="69.72" class="st12" width="663.3" height="61.27"/>
	<rect x="-11.81" y="254.51" class="st6" width="71.4" height="115.65"/>
	<polygon class="st12" points="-23.02,225.6 69.62,225.6 59.59,254.51 -11.81,254.51 	"/>
	<rect x="226.3" y="254.51" class="st6" width="71.4" height="115.65"/>
	<polygon class="st12" points="215.09,225.6 307.72,225.6 297.69,254.51 226.3,254.51 	"/>
	<rect x="105.14" y="254.51" class="st6" width="71.4" height="115.65"/>
	<polygon class="st12" points="93.93,225.6 186.56,225.6 176.53,254.51 105.14,254.51 	"/>
	<rect x="466.03" y="254.51" class="st6" width="71.4" height="115.65"/>
	<polygon class="st12" points="454.82,225.6 547.45,225.6 537.42,254.51 466.03,254.51 	"/>
	<rect x="347.17" y="254.51" class="st6" width="71.4" height="115.65"/>
	<polygon class="st12" points="335.96,225.6 428.59,225.6 418.56,254.51 347.17,254.51 	"/>
	<rect x="-11.81" y="458.21" class="st6" width="71.4" height="115.65"/>
	<polygon class="st12" points="-23.02,429.29 69.62,429.29 59.59,458.21 -11.81,458.21 	"/>
	<rect x="226.3" y="458.21" class="st6" width="71.4" height="115.65"/>
	<polygon class="st12" points="215.09,429.29 307.72,429.29 297.69,458.21 226.3,458.21 	"/>
	<rect x="105.14" y="458.21" class="st6" width="71.4" height="115.65"/>
	<polygon class="st12" points="93.93,429.29 186.56,429.29 176.53,458.21 105.14,458.21 	"/>
	<rect x="466.03" y="458.21" class="st6" width="71.4" height="115.65"/>
	<polygon class="st12" points="454.82,429.29 547.45,429.29 537.42,458.21 466.03,458.21 	"/>
	<rect x="347.17" y="458.21" class="st6" width="71.4" height="115.65"/>
	<polygon class="st12" points="335.96,429.29 428.59,429.29 418.56,458.21 347.17,458.21 	"/>
	<rect x="-11.81" y="661.9" class="st6" width="71.4" height="115.65"/>
	<polygon class="st12" points="-23.02,632.99 69.62,632.99 59.59,661.9 -11.81,661.9 	"/>
	<rect x="226.3" y="661.9" class="st6" width="71.4" height="115.65"/>
	<polygon class="st12" points="215.09,632.99 307.72,632.99 297.69,661.9 226.3,661.9 	"/>
	<rect x="105.14" y="661.9" class="st6" width="71.4" height="115.65"/>
	<polygon class="st12" points="93.93,632.99 186.56,632.99 176.53,661.9 105.14,661.9 	"/>
	<rect x="466.03" y="661.9" class="st6" width="71.4" height="115.65"/>
	<polygon class="st12" points="454.82,632.99 547.45,632.99 537.42,661.9 466.03,661.9 	"/>
	<rect x="347.17" y="661.9" class="st6" width="71.4" height="115.65"/>
	<polygon class="st12" points="335.96,632.99 428.59,632.99 418.56,661.9 347.17,661.9 	"/>
	<rect x="190.15" y="857.69" class="st6" width="144.13" height="221.55"/>
	<line class="st13" x1="262.22" y1="859.99" x2="262.22" y2="1081.54"/>
	<path class="st12" d="M262.22,813.55c-54.96,0-99.52,44.56-99.52,99.52h199.04C361.73,858.11,317.18,813.55,262.22,813.55z"/>
</g>
<g id="plan2_x5F_D" class="st4">
	<polyline class="st10" points="1722.43,1126.87 1722.43,148.68 1330.77,148.68 1330.77,1126.87 	"/>
	<rect x="1330.77" y="85.63" class="st6" width="391.66" height="63.05"/>
	<line class="st6" x1="1722.43" y1="744.33" x2="1330.64" y2="744.33"/>
	<rect x="1413.73" y="542.69" class="st6" width="73.47" height="119.01"/>
	<polygon class="st12" points="1402.19,512.93 1497.53,512.93 1487.2,542.69 1413.73,542.69 	"/>
	<rect x="1569.18" y="542.69" class="st6" width="73.47" height="119.01"/>
	<polygon class="st12" points="1557.64,512.93 1652.97,512.93 1642.65,542.69 1569.18,542.69 	"/>
	<rect x="1370.12" y="275.8" class="st6" width="73.47" height="119.01"/>
	<polygon class="st12" points="1358.58,246.05 1453.92,246.05 1443.59,275.8 1370.12,275.8 	"/>
	<rect x="1612.79" y="275.8" class="st6" width="73.47" height="119.01"/>
	<polygon class="st12" points="1601.25,246.05 1696.58,246.05 1686.26,275.8 1612.79,275.8 	"/>
	<rect x="1490.47" y="275.8" class="st6" width="73.47" height="119.01"/>
	<polygon class="st12" points="1478.93,246.05 1574.27,246.05 1563.94,275.8 1490.47,275.8 	"/>
	<rect x="1383.69" y="860.32" class="st6" width="181.62" height="163.79"/>
	<rect x="1605.91" y="860.32" class="st6" width="72.1" height="163.79"/>
</g>
<g id="plan_x5F_G" class="st4">
	<rect x="346.64" y="369.79" class="st6" width="413.89" height="718.55"/>
	<rect x="343.8" y="323.48" class="st6" width="419.58" height="46.31"/>
	<line class="st6" x1="346.64" y1="809.46" x2="760.53" y2="809.46"/>
	<rect x="410.69" y="657.17" class="st10" width="53.97" height="87.42"/>
	<polygon class="st14" points="402.22,635.32 472.24,635.32 464.66,657.17 410.69,657.17 	"/>
	<rect x="527.05" y="657.17" class="st10" width="53.97" height="87.42"/>
	<polygon class="st14" points="519.02,635.32 589.05,635.32 581.46,657.17 527.49,657.17 	"/>
	<rect x="643.4" y="657.17" class="st10" width="53.97" height="87.42"/>
	<polygon class="st14" points="634.93,635.32 704.96,635.32 697.37,657.17 643.4,657.17 	"/>
	<rect x="387.75" y="463.17" class="st10" width="53.97" height="87.42"/>
	<polygon class="st14" points="379.27,441.32 449.3,441.32 441.72,463.17 387.75,463.17 	"/>
	<rect x="573.48" y="463.17" class="st10" width="53.97" height="87.42"/>
	<polygon class="st14" points="565.45,441.32 635.48,441.32 627.9,463.17 573.93,463.17 	"/>
	<rect x="666.35" y="463.17" class="st10" width="53.97" height="87.42"/>
	<polygon class="st14" points="657.87,441.32 727.9,441.32 720.32,463.17 666.35,463.17 	"/>
	<rect x="480.61" y="463.17" class="st10" width="53.97" height="87.42"/>
	<polygon class="st14" points="472.58,441.32 542.61,441.32 535.03,463.17 481.06,463.17 	"/>
	<rect x="393.44" y="892.55" class="st12" width="133.42" height="120.31"/>
	<rect x="581.02" y="892.55" class="st12" width="133.42" height="120.31"/>
</g>
<g id="plan1_x5F_D" class="st4">
	<rect x="998.14" y="647.34" class="st6" width="376.98" height="442.71"/>
	<rect x="1110.62" y="866.29" class="st6" width="152.02" height="223.01"/>
	<line class="st15" x1="1186.63" y1="889.29" x2="1186.63" y2="1089.3"/>
	<polygon class="st6" points="1262.64,860.37 1139.46,860.37 1110.62,860.37 1072.03,918.21 1301.23,918.21 	"/>
	<polygon class="st16" points="1132.8,860.37 1107.53,918.21 1136.72,918.21 1148.13,860.37 	"/>
	<polygon class="st16" points="1241.67,860.37 1266.41,918.21 1237.21,918.21 1225.81,860.37 	"/>
	<polygon class="st16" points="1176.46,860.37 1168.81,918.21 1205.12,918.21 1199.78,860.37 	"/>
	<rect x="961.61" y="617.05" class="st10" width="450.03" height="30.3"/>
	<rect x="1395.57" y="712" class="st10" width="52.41" height="99"/>
	<line class="st17" x1="1346.83" y1="742.06" x2="1395.57" y2="742.06"/>
	<line class="st17" x1="1346.83" y1="780.92" x2="1395.57" y2="780.92"/>
	<path class="st18" d="M1402.93,712c0,0,4.26,37.98,45.05,39.41V712H1402.93z"/>
	<path class="st12" d="M1405.39,721.47"/>
	<path class="st12" d="M1113.33,747.01c0-12.67-13.77-22.95-30.76-22.95c-16.99,0-30.76,10.27-30.76,22.95
		c0,0.15,0.03,0.29,0.03,0.43h-0.03v36.93h61.51v-36.93h-0.03C1113.31,747.3,1113.33,747.16,1113.33,747.01z"/>
	<path class="st12" d="M1213.47,747.01c0-12.67-13.77-22.95-30.76-22.95c-16.99,0-30.76,10.27-30.76,22.95
		c0,0.15,0.03,0.29,0.03,0.43h-0.03v36.93h61.51v-36.93h-0.03C1213.45,747.3,1213.47,747.16,1213.47,747.01z"/>
	<path class="st12" d="M1313.62,747.01c0-12.67-13.77-22.95-30.76-22.95c-16.99,0-30.76,10.27-30.76,22.95
		c0,0.15,0.03,0.29,0.03,0.43h-0.03v36.93h61.51v-36.93h-0.03C1313.59,747.3,1313.62,747.16,1313.62,747.01z"/>
</g>
</svg>
