<?xml version="1.0" encoding="utf-8"?>
<!-- Generator: Adobe Illustrator 23.0.1, SVG Export Plug-In . SVG Version: 6.00 Build 0)  -->
<svg version="1.1" id="Calque_1" xmlns="http://www.w3.org/2000/svg" xmlns:xlink="http://www.w3.org/1999/xlink" x="0px" y="0px"
	 viewBox="0 0 360 650" style="enable-background:new 0 0 360 650;" xml:space="preserve">
<style type="text/css">
	.st0{fill:#312F2F;}
	.st1{fill:#FAB532;}
	.st2{fill:#2E5AA6;}
	.st3{fill:#FFFFFF;}
</style>
<g>
	<path class="st0" d="M255.11,153.69l32.91-9.14c0,0,7.31-14.63,18.28-14.63c0,0,0,18.28-12.8,23.77s-45.71,25.6-45.71,25.6
		S240.49,162.83,255.11,153.69z"/>
</g>
<g>
	<path class="st0" d="M258.77,559.58c0,0,3.66,12.8,3.66,29.25s5.48,20.11,5.48,20.11l80.45-29.25c0,0-3.66-18.28-20.11-12.8
		c-16.45,5.48-31.08,12.8-36.57-1.83C286.2,550.44,277.05,546.78,258.77,559.58z"/>
	<path class="st0" d="M267.67,610.98l-0.77-0.51c-0.64-0.43-6.3-4.69-6.3-21.63c0-15.98-3.55-28.63-3.59-28.75l-0.36-1.25l1.07-0.75
		c9.94-6.96,17.72-9.42,23.81-7.54c5.07,1.57,8.95,6.11,11.86,13.88c4.02,10.73,13.02,8.16,28.58,2.7c1.86-0.65,3.77-1.32,5.69-1.96
		c5.17-1.72,9.74-1.46,13.59,0.77c6.95,4.03,8.82,13.02,8.89,13.4l0.31,1.54L267.67,610.98z M260.87,560.36
		c0.92,3.67,3.39,14.76,3.39,28.48c0,11.67,2.87,16.47,4.11,18l77.78-28.29c-0.77-2.42-2.72-7.14-6.74-9.47
		c-2.9-1.68-6.46-1.83-10.58-0.46c-1.91,0.64-3.79,1.3-5.64,1.94c-14.27,5-27.75,9.73-33.22-4.86c-2.49-6.64-5.6-10.46-9.52-11.67
		C275.71,552.57,269.3,554.63,260.87,560.36z"/>
</g>
<g>
	<path class="st0" d="M269.19,623.07l-3.14-8.4c-1.09-2.92,0.4-6.18,3.32-7.27l77.02-28.76c1.36-0.51,2.85-0.46,4.17,0.15
		c1.32,0.61,2.33,1.69,2.84,3.05l3.21,8.6L269.19,623.07z M348.3,581.95c-0.21,0-0.42,0.04-0.63,0.11l-77.02,28.76
		c-1.03,0.39-1.56,1.54-1.17,2.57l1.86,4.98l80.57-30.08l-1.93-5.17c-0.17-0.45-0.5-0.81-0.94-1.01
		C348.81,582.01,348.55,581.95,348.3,581.95z"/>
</g>
<g>
	<path class="st0" d="M24.08,570.53c0,0-1.14,13.26-7,28.64s-2.04,20.75-2.04,20.75l85.59,1.31c0,0,3.09-18.39-14.24-19.12
		s-33.6,0.89-33.52-14.73C52.96,571.75,45.72,565.08,24.08,570.53z"/>
	<path class="st0" d="M102.17,623.08l-88.09-1.35l-0.54-0.75c-0.45-0.63-4.22-6.63,1.82-22.46c5.7-14.96,6.88-28.01,6.89-28.14
		l0.11-1.3l1.26-0.32c11.77-2.96,19.92-2.49,24.93,1.44c4.18,3.27,6.18,8.9,6.14,17.19c-0.06,11.45,9.26,12.26,25.75,12.7
		c1.97,0.05,3.99,0.11,6.02,0.19c5.44,0.23,9.62,2.1,12.43,5.56c5.06,6.24,3.6,15.31,3.54,15.69L102.17,623.08z M16.22,618.1
		l82.75,1.27c0.14-2.54,0-7.65-2.93-11.25c-2.11-2.6-5.39-4.01-9.73-4.19c-2.01-0.09-4-0.14-5.96-0.19
		c-15.12-0.4-29.4-0.78-29.31-16.37c0.04-7.09-1.51-11.76-4.74-14.29c-3.9-3.06-10.64-3.41-20.55-1.07
		c-0.44,3.76-2.09,15-6.97,27.82C14.63,610.73,15.59,616.21,16.22,618.1z"/>
</g>
<g>
	<path class="st0" d="M104.52,634.21l-93.32-0.64l0.06-8.97c0.02-3.12,2.61-5.61,5.69-5.62l82.21,0.56
		c1.46,0.01,2.82,0.59,3.84,1.62c1.02,1.04,1.58,2.41,1.57,3.87L104.52,634.21z M14.88,629.94l86,0.59l0.04-5.52
		c0-0.48-0.18-0.93-0.52-1.27c-0.34-0.34-0.79-0.53-1.26-0.53l-82.21-0.56c0,0-0.01,0-0.01,0c-1.1,0-1.99,0.89-2,1.98L14.88,629.94z
		"/>
</g>
<g>
	<path class="st1" d="M6.46,587c0,0,31.08-12.8,58.51,0c0,0,122.5-246.83,135.3-358.35h-80.45C119.82,228.65,114.33,343.84,6.46,587
		z"/>
	<path class="st0" d="M2.94,590.42l1.85-4.16c55.62-125.38,83.44-215.96,96.98-269.87c14.67-58.41,16.21-87.54,16.22-87.83
		l0.08-1.74h84.24l-0.23,2.04C189.39,339.43,67.83,585.35,66.61,587.82l-0.79,1.6l-1.62-0.76c-26.35-12.3-56.74-0.09-57.04,0.03
		L2.94,590.42z M37.52,579.44c8.39,0,17.61,1.31,26.59,5.17c10.4-21.18,120.84-247.94,134.1-354.14h-76.68
		c-1.24,15.31-13.5,131.07-111.67,353.38C15.28,582.11,25.55,579.44,37.52,579.44z"/>
</g>
<g>
	<path class="st1" d="M119.82,228.65h80.45c0,0,14.63,144.44,107.87,329.1c0,0-43.88,7.31-58.51,18.28
		C249.63,576.03,121.65,369.43,119.82,228.65z"/>
	<path class="st0" d="M249.13,578.7l-1.05-1.7c-1.28-2.07-128.27-208.65-130.09-348.32l-0.02-1.85h83.95l0.17,1.64
		c0.04,0.36,3.83,36.72,18.94,95.12c13.95,53.9,40.67,138.13,88.74,233.34l1.12,2.22l-2.45,0.41c-0.43,0.07-43.61,7.37-57.71,17.94
		L249.13,578.7z M121.68,230.48c2.76,132.02,116.54,323.21,128.5,342.95c14.02-9.11,46.04-15.39,55.22-17.05
		c-47.54-94.63-74.05-178.29-87.93-231.96c-13.37-51.67-17.91-86.2-18.83-93.93H121.68z"/>
</g>
<g>
	<path class="st0" d="M154.86,91.53c0,0,5.18-12.8,3.35-25.6c0,0,12.8-1.83,18.28,12.8c0,0,0,12.8,3.66,31.08L154.86,91.53z"/>
</g>
<g>
	<path class="st0" d="M174.67,27.53c0,0,23.77,0,27.43,29.25c3.66,29.25-16.46,27.43-20.11,25.6c-3.66-1.83-29.25-9.14-27.43-32.91
		C156.38,25.7,174.67,27.53,174.67,27.53z"/>
</g>
<g>
	<path class="st2" d="M156.74,37.18c0,0,3.3-11.48-14.98-18.79l-5.49,14.63C136.27,33.02,149.07,36.68,156.74,37.18z"/>
	<path class="st0" d="M158.09,39.11l-1.47-0.1c-7.77-0.52-20.32-4.08-20.85-4.23l-1.91-0.54L140.7,16l1.74,0.69
		c19.59,7.84,16.21,20.46,16.06,21L158.09,39.11z M138.69,31.78c3.46,0.92,10.89,2.79,16.47,3.42c0.06-2.89-1.19-9.36-12.36-14.39
		L138.69,31.78z"/>
</g>
<g>
	<path class="st2" d="M169.18,27.53c0,0-25.6,7.31-10.97,38.4c0,0,25.6-3.66,40.22-23.77C198.44,42.16,189.29,22.05,169.18,27.53"/>
	<path class="st0" d="M157.13,67.93l-0.57-1.22c-5.2-11.05-6.09-20.52-2.63-28.13c4.43-9.76,14.33-12.68,14.75-12.8l0.02-0.01
		c11.19-3.05,19.16,1.4,23.88,5.66c5.02,4.54,7.42,9.75,7.52,9.97l0.44,0.97l-0.63,0.86c-14.91,20.5-40.37,24.35-41.44,24.5
		L157.13,67.93z M169.68,29.29c-0.3,0.09-8.78,2.73-12.44,10.84c-2.84,6.3-2.16,14.29,2.04,23.75c5.25-1.06,24.84-5.96,37.01-21.9
		C194.26,38.2,185.81,24.91,169.68,29.29z"/>
</g>
<g>
	<polygon class="st0" points="181.98,126.26 207.58,153.69 266.08,148.2 251.46,199.4 189.29,195.74 	"/>
	<path class="st0" d="M252.81,201.31l-65.17-3.83l-8.05-76.45l28.71,30.76l60.28-5.65L252.81,201.31z M190.95,194.01l59.15,3.48
		l13.49-47.21l-56.74,5.32l-22.48-24.09L190.95,194.01z"/>
</g>
<g>
	<path class="st3" d="M81.42,241.45h128.04c0,0-3.71-137.13-45.76-155.41S81.42,241.45,81.42,241.45z"/>
	<path class="st0" d="M211.34,243.28H79.12l0.52-2.24c1.3-5.6,32.2-137.41,68.99-155.94c5.37-2.71,10.69-2.95,15.8-0.73
		c18.04,7.84,31.41,36.76,39.72,85.93c6.13,36.27,7.13,70.76,7.14,71.1L211.34,243.28z M83.74,239.62h123.82
		c-0.66-16.47-6.71-135.43-44.6-151.9c-4.12-1.79-8.28-1.58-12.69,0.64C117.52,104.85,88.04,221.88,83.74,239.62z"/>
</g>
<g>
	<path class="st3" d="M165.53,215.85c0,0,23.77-113.36-7.31-127.98s-56.68,84.1-62.16,127.98h-8.03c0,0,19.58-104.87,53.74-126.16
		c9.77-6.09,22.71-2.84,28.61,7.04c9.28,15.54,19.47,53.22,2.47,126.43L165.53,215.85z"/>
	<path class="st0" d="M173.88,226.79l-10.34-10.34l0.2-0.97c0.06-0.28,5.94-28.59,7.97-58.29c2.63-38.64-2.3-62.03-14.27-67.66
		c-0.87-0.41-1.73-0.72-2.6-0.93c-2.7-0.34-5.39-0.09-7.94,0.73c-0.52,0.22-1.05,0.48-1.57,0.77c-23.77,13.09-42.93,89.77-47.46,126
		l-0.2,1.6H85.82l0.4-2.16c0.05-0.26,5.02-26.66,14.11-55.31c12.3-38.75,25.91-62.99,40.46-72.06c1.54-0.96,3.17-1.72,4.86-2.27
		c3.29-1.36,6.58-1.66,9.85-0.89c0.78,0.11,1.56,0.25,2.34,0.44c5.96,1.44,10.96,5.13,14.09,10.37c7,11.73,21.28,47.67,2.69,127.78
		L173.88,226.79z M167.52,215.26l4.28,4.28c14.91-66.4,6.72-100.88-0.07-116.16C182.73,137.22,169.46,205.66,167.52,215.26z
		 M90.24,214.02h4.2c3.01-22.83,10.96-58.41,22.11-86.47C101.51,160.67,92.28,203.93,90.24,214.02z"/>
</g>
<g>
	<polygon class="st3" points="178.32,325.55 88.74,325.55 85.08,210.37 178.32,210.37 	"/>
	<path class="st0" d="M180.15,327.38H86.96l-3.77-118.84h96.96V327.38z M90.51,323.72h85.99V212.2H86.97L90.51,323.72z"/>
</g>
<g>
	<path class="st0" d="M107.02,192.08c0,0-7.31,29.25,0,76.79s16.46,67.65,25.6,67.65s20.11-10.97,20.11-10.97h-18.28
		c0,0-9.14-76.79-1.83-133.47C132.62,192.08,118.9,180.2,107.02,192.08z"/>
</g>
<g>
	<g>
		<path class="st3" d="M163.7,106.76L163.7,106.76c0-7.94-6.06-14.88-13.99-15.22c-2.74-0.12-5.31,0.52-7.55,1.72
			c0.22-0.14,0.2-0.13,0,0c-0.55,0.3-1.07,0.63-1.58,1c-30.43,19.19-40.87,114.28-40.87,114.28c21.94-7.31,54.85,3.66,54.85,3.66
			c-1.57-47,6.26-88.63,8.54-99.58C163.49,110.68,163.7,108.73,163.7,106.76z"/>
		<path class="st0" d="M156.47,214.76l-2.49-0.83c-0.32-0.11-32.6-10.69-53.69-3.66l-2.71,0.9l0.31-2.84
			c0.03-0.24,2.7-24.19,9.07-50.18c8.63-35.21,19.61-57.23,32.65-65.45c0.54-0.39,1.12-0.75,1.69-1.06
			c0.05-0.03,0.18-0.11,0.36-0.19c2.51-1.27,5.3-1.87,8.13-1.75c8.68,0.37,15.74,8.02,15.74,17.04c0,2.08-0.22,4.17-0.64,6.23
			c-2.39,11.5-10.05,52.62-8.5,99.15L156.47,214.76z M117.63,204.18c14.74,0,29.31,3.82,35.02,5.51
			c-1.21-45.87,6.29-86.06,8.65-97.45c0.38-1.81,0.57-3.66,0.57-5.49c0-7.1-5.49-13.1-12.24-13.39c-2.32-0.11-4.59,0.42-6.6,1.51h0
			c-0.48,0.26-0.94,0.56-1.38,0.87c-26.57,16.75-37.78,94.59-39.78,110.25C106.86,204.69,112.26,204.18,117.63,204.18z"/>
	</g>
</g>
</svg>
