<svg width="406" height="316" viewBox="0 0 406 316" fill="none" xmlns="http://www.w3.org/2000/svg">
<path d="M383.955 314.386H22.0451C10.4866 314.386 1 304.9 1 293.341V22.0451C1 10.4866 10.4866 1 22.0451 1H383.955C395.513 1 405 10.4866 405 22.0451V293.232C405 304.9 395.513 314.386 383.955 314.386Z" fill="#5A8D8C" stroke="#456A6F" stroke-width="2" stroke-miterlimit="10"/>
<path d="M89.3587 230.048C85.2439 239.928 92.5032 250.815 103.206 250.815H283.925C296.505 250.815 303.497 236.261 295.635 226.44L267.798 191.671C262.893 185.545 254.096 184.235 247.619 188.666L218.287 208.732C211.072 213.668 201.182 211.413 196.819 203.838L155.955 132.883C149.752 122.111 133.889 123.126 129.11 134.602L89.3587 230.048Z" fill="white"/>
<path d="M287.126 140.574C308.143 140.574 325.181 123.536 325.181 102.518C325.181 81.501 308.143 64.4629 287.126 64.4629C266.108 64.4629 249.07 81.501 249.07 102.518C249.07 123.536 266.108 140.574 287.126 140.574Z" fill="white"/>
</svg>
