<svg width="1053" height="590" viewBox="0 0 1053 590" fill="none" xmlns="http://www.w3.org/2000/svg">
<path d="M103 272.5C139.5 402 69.9998 436 22.4998 479C-15.2194 513.146 6.3422 565.88 22.1478 588.5H1036C950 563.3 979.167 465.333 1004.5 419.5C1109.5 170 1036 -15.4828 801.5 2.99994C634 16.2019 673 311 546 318C419 325 444.5 125.5 310.5 96.5C176.5 67.5 66.4999 143 103 272.5Z" fill="url(#paint0_linear)" fill-opacity="0.4"/>
<path d="M22.4998 589C22.3828 588.835 22.2655 588.668 22.1478 588.5M22.1478 588.5C6.3422 565.881 -15.2194 513.146 22.4998 479C69.9998 436 139.5 402 103 272.5C66.4999 143 176.5 67.5 310.5 96.5C444.5 125.5 419 325 546 318C673 311 634 16.2019 801.5 2.99994C1036 -15.4828 1109.5 170 1004.5 419.5C979.167 465.333 950 563.3 1036 588.5H22.1478Z" stroke="#5A8D8C" stroke-width="2"/>
<defs>
<linearGradient id="paint0_linear" x1="526.398" y1="1.73047" x2="526.398" y2="589" gradientUnits="userSpaceOnUse">
<stop stop-color="#71C0A0"/>
<stop offset="1" stop-color="#FDE8D5"/>
</linearGradient>
</defs>
</svg>
