<svg xmlns="http://www.w3.org/2000/svg" viewBox="0 0 1440 1024"><title>FOND ECOLE</title><g id="fond"><path d="M1277.38,779.2c-7.85,3.08-91.76,37.37-99.85,40.29-98.15,35.44,11.38,56.31,262.47,68.79-.62-53.49.88-103.64,0-157.22C1351,750.31,1302.44,769.38,1277.38,779.2Z" style="fill:#c0cfa0"/><path d="M1440.28,783.49c-10.54.12-8.51,0-18.9-.06-240.91-2.52-579.11-53.36-704.2-59.77s-375.27-35.51-644.85-7.32c-38,4-39,4.61-72.33,6.22V929.74c467.06,1.54,978.19-4.27,1440.28-10.26C1439.77,874.19,1440.93,828.81,1440.28,783.49Z" style="fill:#c0cfa0"/><path d="M1440,888.28c-55.23.39-80.42-.59-97.76-.59-158.45,0-810.14,7.5-932.61-5.73C299.24,870,181.07,861.58,0,853.26V1024l1439.27-.66C1438.75,977.64,1440.53,933.93,1440,888.28Z" style="fill:#b7df41"/></g><g id="ECOLE"><path d="M1440.16,884.14,1440,1024H0S6.25,851.06,165.54,809.91C312.4,772,384.73,774.5,536.11,734c49.27-13.19,92.43-12.37,128.23-5.26,81.32,16.15,165.46-16.44,246.16,2.61,207.42,49,531.65,32.15,529.66,152.8" style="fill:#96969a"/><rect x="499.99" y="414.58" width="481.41" height="394.38" style="fill:#ffc441"/><rect x="524.23" y="439.01" width="50.08" height="131.66" style="fill:#fcf8f0"/><rect x="524.23" y="439.01" width="50.08" height="40.96" style="fill:#e3deca"/><rect x="517.62" y="570.67" width="62.73" height="7.29" style="fill:#e3deca"/><rect x="601.93" y="439.43" width="50.08" height="131.66" style="fill:#fcf8f0"/><rect x="601.93" y="439.43" width="50.08" height="40.96" style="fill:#e3deca"/><rect x="595.33" y="571.09" width="62.73" height="7.29" style="fill:#e3deca"/><rect x="676.79" y="439.43" width="50.08" height="131.66" style="fill:#fcf8f0"/><rect x="676.79" y="439.43" width="50.08" height="40.96" style="fill:#e3deca"/><rect x="670.19" y="571.09" width="62.73" height="7.29" style="fill:#e3deca"/><rect x="751.66" y="439.43" width="50.08" height="131.66" style="fill:#fcf8f0"/><rect x="751.66" y="439.43" width="50.08" height="40.96" style="fill:#e3deca"/><rect x="745.06" y="571.09" width="62.73" height="7.29" style="fill:#e3deca"/><rect x="826.52" y="439.43" width="50.08" height="131.66" style="fill:#fcf8f0"/><rect x="826.52" y="439.43" width="50.08" height="40.96" style="fill:#e3deca"/><rect x="819.92" y="571.09" width="62.73" height="7.29" style="fill:#e3deca"/><rect x="901.39" y="439.43" width="50.08" height="131.66" style="fill:#fcf8f0"/><rect x="901.39" y="439.43" width="50.08" height="40.96" style="fill:#e3deca"/><rect x="894.79" y="571.09" width="62.73" height="7.29" style="fill:#e3deca"/><rect x="524.23" y="648.63" width="50.08" height="131.66" style="fill:#fcf8f0"/><rect x="524.23" y="648.63" width="50.08" height="40.96" style="fill:#e3deca"/><rect x="518.23" y="779.74" width="62.73" height="7.29" style="fill:#e3deca"/><rect x="601.93" y="649.05" width="50.08" height="131.66" style="fill:#fcf8f0"/><rect x="601.93" y="649.05" width="50.08" height="40.96" style="fill:#e3deca"/><rect x="595.93" y="780.15" width="62.73" height="7.29" style="fill:#e3deca"/><rect x="825.18" y="648.63" width="50.08" height="131.66" style="fill:#fcf8f0"/><rect x="825.18" y="648.63" width="50.08" height="40.96" style="fill:#e3deca"/><rect x="819.19" y="779.74" width="62.73" height="7.29" style="fill:#e3deca"/><rect x="902.89" y="649.05" width="50.08" height="131.66" style="fill:#fcf8f0"/><rect x="902.89" y="649.05" width="50.08" height="40.96" style="fill:#e3deca"/><rect x="896.89" y="780.15" width="62.73" height="7.29" style="fill:#e3deca"/><rect x="694.58" y="648.63" width="92.23" height="160.33" style="fill:#fcf8f0"/><polygon points="474.03 422.08 1002.9 422.08 956.38 384.22 528.59 384.22 474.03 422.08" style="fill:#f99a04"/><rect x="981.4" y="614.7" width="268.42" height="194.26" style="fill:#ffc441"/><rect x="1009.35" y="648.63" width="50.08" height="131.66" style="fill:#fcf8f0"/><rect x="1009.35" y="648.63" width="50.08" height="40.96" style="fill:#e3deca"/><rect x="1002.75" y="780.29" width="62.73" height="7.29" style="fill:#e3deca"/><rect x="1087.05" y="649.05" width="50.08" height="131.66" style="fill:#fcf8f0"/><rect x="1087.05" y="649.05" width="50.08" height="40.96" style="fill:#e3deca"/><rect x="1080.45" y="780.71" width="62.73" height="7.29" style="fill:#e3deca"/><rect x="1166.41" y="649.05" width="50.08" height="131.66" style="fill:#fcf8f0"/><rect x="1166.41" y="649.05" width="50.08" height="40.96" style="fill:#e3deca"/><rect x="1159.81" y="780.71" width="62.73" height="7.29" style="fill:#e3deca"/><polygon points="981.4 631.83 1269.51 631.83 1241.2 595.8 980.83 595.8 981.4 631.83" style="fill:#f99a04"/><rect id="facade_gauche" data-name="facade gauche" x="232.75" y="614.7" width="268.42" height="194.26" style="fill:#ffc441"/><rect id="fenetre" x="260.7" y="648.63" width="50.08" height="131.66" style="fill:#fcf8f0"/><rect id="rideau" x="260.7" y="648.63" width="50.08" height="40.96" style="fill:#e3deca"/><rect id="rebord_f" data-name="rebord f" x="254.1" y="780.29" width="62.73" height="7.29" style="fill:#e3deca"/><rect id="fenetre-2" data-name="fenetre" x="338.4" y="649.05" width="50.08" height="131.66" style="fill:#fcf8f0"/><rect id="rideau-2" data-name="rideau" x="338.4" y="649.05" width="50.08" height="40.96" style="fill:#e3deca"/><rect id="rebord_f-2" data-name="rebord f" x="331.8" y="780.71" width="62.73" height="7.29" style="fill:#e3deca"/><rect id="fenetre-3" data-name="fenetre" x="417.76" y="649.05" width="50.08" height="131.66" style="fill:#fcf8f0"/><rect id="rideau-3" data-name="rideau" x="417.76" y="649.05" width="50.08" height="40.96" style="fill:#e3deca"/><rect id="rebord_f-3" data-name="rebord f" x="411.16" y="780.71" width="62.73" height="7.29" style="fill:#e3deca"/><polygon points="500.95 626.33 212.84 626.33 241.15 590.31 501.52 590.31 500.95 626.33" style="fill:#f99a04"/><rect x="658.06" y="595.8" width="168.47" height="36.46" style="fill:#fcf8f0"/><text transform="translate(697.07 625.12)" style="font-size:32.9386100769043px;font-family:MyriadPro-Regular, Myriad Pro">E<tspan x="16.21" y="0" style="letter-spacing:-0.02099075365917751em">C</tspan><tspan x="34.62" y="0">OLE</tspan></text><polyline points="1039.35 831.59 1039.35 888.83 1043.08 898.57" style="fill:none;stroke:#00324e;stroke-miterlimit:10;stroke-width:1.59121100622546px"/><line x1="1063.34" y1="889.78" x2="1063.16" y2="831.59" style="fill:none;stroke:#00324e;stroke-miterlimit:10;stroke-width:1.59121100622546px"/><line x1="1039.35" y1="888.83" x2="1034.99" y2="898.57" style="fill:none;stroke:#00324e;stroke-miterlimit:10;stroke-width:1.59121100622546px"/><polyline points="1059.39 898.57 1063.34 889.78 1066.93 898.57" style="fill:none;stroke:#00324e;stroke-miterlimit:10;stroke-width:1.59121100622546px"/><polygon points="909.36 944.59 462.11 944.59 483.56 848.77 885.34 848.77 909.36 944.59" style="fill:#d3d3d3"/><ellipse cx="679.09" cy="891.96" rx="17.04" ry="10.4" style="fill:none;stroke:#fcf8f0;stroke-miterlimit:10;stroke-width:0.947042176017492px"/><line x1="679.09" y1="902.36" x2="679.09" y2="944.59" style="fill:none;stroke:#fcf8f0;stroke-miterlimit:10;stroke-width:0.947042176017492px"/><line x1="679.09" y1="848.77" x2="679.09" y2="881.56" style="fill:none;stroke:#fcf8f0;stroke-miterlimit:10;stroke-width:0.947042176017492px"/><polyline points="468.69 912.22 501.95 912.38 508.45 873.42 477.46 873.1" style="fill:none;stroke:#fcf8f0;stroke-miterlimit:10;stroke-width:0.947042176017492px"/><polygon points="468.5 912.38 468.5 879.88 477.18 850.22 477.18 873.1 462.11 873.1 462.11 850.22 455.71 879.88 455.71 912.38 468.5 912.38" style="fill:none;stroke:#fcf8f0;stroke-linecap:round;stroke-linejoin:round;stroke-width:0.861374962920675px"/><line x1="468.5" y1="879.79" x2="455.71" y2="879.79" style="fill:none;stroke:#fcf8f0;stroke-linecap:round;stroke-linejoin:round;stroke-width:0.875013142623264px"/><line x1="462.11" y1="850.22" x2="477.18" y2="850.22" style="fill:none;stroke:#fcf8f0;stroke-linecap:round;stroke-linejoin:round;stroke-width:0.861374962920675px"/><polyline points="900.28 912.48 867.02 912.64 860.52 873.68 891.51 873.35" style="fill:none;stroke:#fcf8f0;stroke-miterlimit:10;stroke-width:0.947042176017492px"/><polygon points="900.47 912.64 900.47 880.14 891.79 850.48 891.79 873.35 902.64 873.35 901.84 850.48 913.26 880.14 913.26 912.64 900.47 912.64" style="fill:none;stroke:#fcf8f0;stroke-linecap:round;stroke-linejoin:round;stroke-width:0.861374962920675px"/><line x1="900.47" y1="880.05" x2="913.26" y2="880.05" style="fill:none;stroke:#fcf8f0;stroke-linecap:round;stroke-linejoin:round;stroke-width:0.875013142623264px"/><line x1="901.84" y1="850.48" x2="891.79" y2="850.48" style="fill:none;stroke:#fcf8f0;stroke-linecap:round;stroke-linejoin:round;stroke-width:0.861374962920675px"/><polyline points="906.21 932.03 846.01 932.38 836.24 858.74 887.67 858.06" style="fill:none;stroke:#fcf8f0;stroke-miterlimit:10;stroke-width:0.947042176017492px"/><path d="M842.13,903.14c-9.41,0-18.87-4.65-18.87-10.4s6-10.4,15.38-10.4" style="fill:none;stroke:#fcf8f0;stroke-miterlimit:10;stroke-width:0.947042176017492px"/><polyline points="481.47 858.09 530.69 858.74 520.92 932.38 464.91 932.05" style="fill:none;stroke:#fcf8f0;stroke-miterlimit:10;stroke-width:0.94704215779382px"/><path d="M524.8,903.14c9.41,0,18.87-4.65,18.87-10.4s-6-10.4-15.38-10.4" style="fill:none;stroke:#fcf8f0;stroke-miterlimit:10;stroke-width:0.947042176017492px"/><g id="marele"><polygon points="301.47 929.74 317.25 920.28 301.47 911.37 309.36 906.72 293.85 897.81 285.69 902.27 270.09 893.17 278.07 888.7 262.29 879.43 254.59 883.98 238.9 874.79 246.51 870.52 230.92 861.43 223.12 865.7 207.53 856.78 191.93 865.88 207.28 874.98 199.36 879.25 215.14 888.7 223.31 883.89 239.27 893.26 230.92 898 246.33 906.72 254.59 902.08 270.31 911.53 262.53 915.77 278.07 924.73 286.24 920.28 301.47 929.74" style="fill:none;stroke:#fff;stroke-miterlimit:10;stroke-width:0.250215523989189px"/><line x1="286.24" y1="920.28" x2="301.47" y2="911.37" style="fill:none;stroke:#fff;stroke-miterlimit:10;stroke-width:0.250215523989189px"/><line x1="270.31" y1="911.53" x2="285.69" y2="902.27" style="fill:none;stroke:#fff;stroke-miterlimit:10;stroke-width:0.250215523989189px"/><line x1="254.59" y1="902.08" x2="270.09" y2="893.17" style="fill:none;stroke:#fff;stroke-miterlimit:10;stroke-width:0.250215523989189px"/><line x1="239.27" y1="893.26" x2="254.59" y2="883.98" style="fill:none;stroke:#fff;stroke-miterlimit:10;stroke-width:0.250215523989189px"/><line x1="223.31" y1="883.89" x2="238.9" y2="874.79" style="fill:none;stroke:#fff;stroke-miterlimit:10;stroke-width:0.250215523989189px"/><line x1="207.29" y1="874.98" x2="223.12" y2="865.7" style="fill:none;stroke:#fff;stroke-miterlimit:10;stroke-width:0.250215523989189px"/><line x1="215.2" y1="870.34" x2="230.65" y2="879.61" style="fill:none;stroke:#fff;stroke-miterlimit:10;stroke-width:0.250215523989189px"/><line x1="246.8" y1="888.7" x2="262.34" y2="897.63" style="fill:none;stroke:#fff;stroke-miterlimit:10;stroke-width:0.250215523989189px"/><line x1="278" y1="906.9" x2="293.85" y2="915.82" style="fill:none;stroke:#fff;stroke-miterlimit:10;stroke-width:0.250215523989189px"/><polygon points="298.04 920.01 298.75 920.28 299.05 919.26 303.98 922.14 304.71 921.71 299.1 918.44 298.46 918.83 298.04 920.01" style="fill:#fffbf5"/><path d="M290.3,906.48l-.87-.34s1.31-1.76,3-1.49,2,1,1.55,1.59a2.86,2.86,0,0,1,3,.46s1.77,1.6-2.46,2.61l-.45-.45s3.11-.67,2-1.75-2.93.06-3.25.3l-.68-.45s1.87-1,.4-1.57S290.3,906.48,290.3,906.48Z" style="fill:#fffbf5"/><path d="M273.79,915.33l.92.25s.81-1.53,2-1.25,2.14.67,1.76,4l.43.33,3.73-2.16L282,916l-2.52,1.38s-.05-3.35-1.74-3.88S274.63,913.47,273.79,915.33Z" style="fill:#fffbf5"/><path d="M272.75,902.27l.76-.44-.76-.38-.68.45-3.51-2-1,.57,1.17,3.32.49.57,2.68-1.62,1.66,1,.68-.56Zm-3.36,1.14-.79-2.64,2.68,1.5Z" style="fill:#fffbf5"/><path d="M245,895.41l.52.42L243.57,897l1.12,1s2.51-1.77,4.33-.32-.33,2.72-2.09,2.93l-.29-.45s3.22-1,1.62-2-3.27.45-3.63.69L242.17,897Z" style="fill:#fffbf5"/><path d="M264.72,887.26c-2.86-.54-3.3,1.44-3.3,1.44-1.56-1.35.47-2.45.47-2.45l-.58-.42c-2.54.84-1.74,3.29.47,4.14a5.71,5.71,0,0,0,3.89.18C266.77,889.81,267.57,887.81,264.72,887.26Zm-.23,2.6c-.84.11-2.71-.22-2.38-1.24.19-.57.89-.75,1.46-.8a2.65,2.65,0,0,1,1.51.32C266.42,888.92,265.43,889.73,264.49,889.86Z" style="fill:#fffbf5"/><polygon points="234.46 883.31 237.96 881.4 238.56 881.4 241.2 885.83 240.42 886.32 237.83 882.13 235.05 883.86 234.46 883.31" style="fill:#fffbf5"/><path d="M234.51,870.49a4.5,4.5,0,0,0-5.54-2.37s-1.94.65-1.06,2a2.21,2.21,0,0,0,.92.74c1,.44,3.12,1.1,4-1.22,0,0,1.28.89.34,1.89a7,7,0,0,1-.93.68l.8.55S234.94,871.53,234.51,870.49Zm-3-.19s-2.22.82-2.82-.78a.53.53,0,0,1,.19-.63,2.25,2.25,0,0,1,1.73-.29C232.14,868.85,232.75,869.69,231.55,870.3Z" style="fill:#fffbf5"/><path d="M218.68,879.34c-.87-1-2.87-.51-2.87-.51a1,1,0,0,0-.49-1.15,3.53,3.53,0,0,0-3.23-.1,1.66,1.66,0,0,0-.45.42,1.22,1.22,0,0,0,.64,1.92,5.13,5.13,0,0,0,1.78.08c-.47.66.8,2.69,3.35,1.57S218.68,879.34,218.68,879.34Zm-4.5,0c-1.47.35-2.47-.72-1.37-1.28a1.91,1.91,0,0,1,1.83,0S215.81,879,214.18,879.34Zm3,1.69c-.92.28-1.89.13-2.18-.57a.59.59,0,0,1,.09-.6c.2-.24.67-.52,1.74-.52C218.68,879.34,218.08,880.77,217.18,881Z" style="fill:#fffbf5"/><polygon points="201.65 866.77 202.37 867.04 202.66 866.02 207.59 868.9 208.32 868.47 202.71 865.2 202.07 865.59 201.65 866.77" style="fill:#fffbf5"/><path d="M210.37,863.11c-2-.8-3.89-.66-4.28.32s.89,2.4,2.86,3.2,3.89.66,4.29-.32S212.35,863.91,210.37,863.11Zm2,2.84c-.3.72-1.73.83-3.2.23s-2.42-1.66-2.13-2.39,1.72-.83,3.19-.23S212.62,865.22,212.33,866Z" style="fill:#fffbf5"/></g><ellipse cx="217.82" cy="961.24" rx="10.87" ry="3.28" style="fill:#79787d"/><circle cx="216.86" cy="947.67" r="13.57" style="fill:#f99a04;stroke:#000;stroke-linecap:round;stroke-linejoin:round;stroke-width:0.183502114752287px"/><path d="M212.54,934.81s5.61-.62,9.63,5.71c0,0,8.26,8.7,2.89,18" style="fill:none;stroke:#000;stroke-linecap:round;stroke-linejoin:round;stroke-width:0.183502114752287px"/><path d="M206.26,939.21s10.73-2.36,12.18-5" style="fill:none;stroke:#000;stroke-linecap:round;stroke-linejoin:round;stroke-width:0.183502114752287px"/><path d="M204.46,953.16s3.47-18.83,22.41-14.64" style="fill:none;stroke:#000;stroke-linecap:round;stroke-linejoin:round;stroke-width:0.183502114752287px"/><path d="M230.43,947.67s-3.68-9.73-8.84-5-6.56,15.22-9.24,17.84" style="fill:none;stroke:#000;stroke-linecap:round;stroke-linejoin:round;stroke-width:0.183502114752287px"/><ellipse cx="1080.4" cy="921.56" rx="80.66" ry="5.73" style="fill:#79787d"/><line x1="1032.09" y1="898.9" x2="1069.41" y2="898.57" style="fill:none;stroke:#f31512;stroke-linecap:round;stroke-linejoin:round;stroke-width:3.05582731038948px"/><polyline points="1085.68 831.59 1085.68 888.83 1089.41 898.57" style="fill:none;stroke:#00324e;stroke-miterlimit:10;stroke-width:1.59121100622546px"/><path d="M1014.4,920.12l8.1-73.68a21.41,21.41,0,0,1,2.86-8.77c1.77-2.92,4.55-5.89,8.57-6.08,4.43-.21,7.23,3.63,8.86,7.14a25.85,25.85,0,0,1,2.15,8l8.14,73.38" style="fill:none;stroke:#f99a04;stroke-linecap:round;stroke-linejoin:round;stroke-width:4.77363301867637px"/><path d="M1100.38,920.12l8.1-73.68a21.41,21.41,0,0,1,2.86-8.77c1.77-2.92,4.55-5.89,8.57-6.08,4.43-.21,7.23,3.63,8.85,7.14a25.86,25.86,0,0,1,2.16,8l8.14,73.38" style="fill:none;stroke:#f99a04;stroke-linecap:round;stroke-linejoin:round;stroke-width:4.77363301867637px"/><line x1="1109.68" y1="889.78" x2="1109.5" y2="831.59" style="fill:none;stroke:#00324e;stroke-miterlimit:10;stroke-width:1.59121100622546px"/><line x1="1036.01" y1="831.59" x2="1121.99" y2="831.59" style="fill:none;stroke:#f99a04;stroke-linecap:round;stroke-linejoin:round;stroke-width:4.77363301867637px"/><line x1="1085.68" y1="888.83" x2="1081.33" y2="898.57" style="fill:none;stroke:#00324e;stroke-miterlimit:10;stroke-width:1.59121100622546px"/><polyline points="1105.73 898.57 1109.68 889.78 1113.27 898.57" style="fill:none;stroke:#00324e;stroke-miterlimit:10;stroke-width:1.59121100622546px"/><line x1="1079" y1="899.06" x2="1116.33" y2="898.73" style="fill:none;stroke:#f31512;stroke-linecap:round;stroke-linejoin:round;stroke-width:3.05582731038948px"/><rect x="1228.77" y="780.95" width="7.34" height="61.28" style="fill:#00324e"/><polygon points="1195.03 790.63 1266.43 790.63 1230.73 661.29 1195.03 790.63" style="fill:#598104"/><polygon points="61.3 788.03 170.09 788.03 115.69 590.96 61.3 788.03" style="fill:#598104"/><rect x="45.8" y="800.55" width="15.54" height="129.77" style="fill:#00324e"/><path d="M.6,795.83A66,66,0,0,0,10,803.06c26,16.56,60.37,16,84.2-3.54,24.92-20.48,43.38-64.36-2.49-158,0,0-10-28.21-29.16-39.5a23.62,23.62,0,0,0-22.12-1.25C30.64,605.3,11.66,626.68,0,656.86" style="fill:#88b309"/><rect x="1146.05" y="853.65" width="10.44" height="87.15" style="fill:#00324e"/><circle cx="1151.27" cy="806.02" r="58.77" style="fill:#b7df41"/><rect x="112.7" y="788.03" width="11.18" height="78.62" style="fill:#00324e"/><circle cx="365.27" cy="712.67" r="38.96" style="fill:#b7df41"/><rect x="1286.58" y="771.85" width="6.9" height="81.37" style="fill:#00324e"/><circle cx="1290.56" cy="738.88" r="30.19" style="fill:#88b309"/><ellipse cx="1290.86" cy="772.64" rx="42.72" ry="31.18" style="fill:#88b309"/><rect x="360.13" y="755.23" width="8.9" height="105" style="fill:#00324e"/><ellipse cx="365.65" cy="756.25" rx="55.13" ry="40.24" style="fill:#b7df41"/><rect x="1419.61" y="843.73" width="13.43" height="112.12" style="fill:#00324e"/><path d="M1440,676.5a38.64,38.64,0,0,0-5.9-4.32,20.4,20.4,0,0,0-19.11-1.09c-8.48,3.95-21,14.1-31.11,40.17-14.12,36.57-41.48,105.16,4.82,134.64a64.32,64.32,0,0,0,51.3,8" style="fill:#88b309"/></g></svg>