<svg version="1.1" id="Calque_1" xmlns="http://www.w3.org/2000/svg" x="0" y="0" viewBox="0 0 390 360" xml:space="preserve"><style>.st1{fill:#1d1d1d}.st2{fill:#ff6e00}.st4{fill:#ffe000}.st5{fill:#fff}</style><switch><g><path d="M330.9 39.9h-2.3c-.9 0-1.9 0-2.8.1-1.3 0-2.6.1-3.8.1-1.6 0-3.2.1-4.8.1-1.9 0-3.8.1-5.7.1-2.2 0-4.3.1-6.5.1-2.4 0-4.8.1-7.3.1-2.7.1-5.3.1-8 .2-2.9.1-5.7.1-8.6.2-3 .1-6.1.1-9.1.2-3.2.1-6.4.1-9.6.2-3.4.1-6.7.1-10.1.2-3.5.1-7 .1-10.4.2-3.6.1-7.2.1-10.7.2-3.7.1-7.3.1-11 .2s-7.4.1-11.1.2c-3.8.1-7.5.1-11.3.2-3.8.1-7.5.1-11.3.2-3.8.1-7.5.1-11.3.2-3.7.1-7.5.1-11.2.2-3.7.1-7.4.1-11 .2-3.6.1-7.2.1-10.8.2-3.5.1-7 .1-10.5.2-3.4.1-6.8.1-10.2.2-3.3.1-6.5.1-9.8.2-3.1.1-6.2.1-9.3.2-2.9.1-5.8.1-8.7.2-2.7.1-5.4.1-8.1.2-2.5 0-5 .1-7.4.1-2.2 0-4.5.1-6.7.1-2 0-3.9.1-5.9.1-1.7 0-3.3.1-5 .1-6.3.1-13.1.1-17.9 4.6-5.9 5.6-7.2 13-7.3 20.8V316.2c0 6.9 5.6 12.4 12.4 12.4h271.7c12.5-.1 22.5-10.4 22.5-22.9v-220" fill="#83c1ff"/><path class="st1" d="M328.3 40.4c4.1-.1-2.2-.2 2.6-.2-.5.2-1.3.3-2.6.2zM341.6 99.1c.8 13.1 0 30.3.5 44.6 0 1.7-.4-.4-.3 3.3.6 13.9.2 35.7-.2 52.6l-.1-1c-.1 3.2.3 7.1.3 10.6-.1 0-.1-1.1-.2-.3.2.9.1 6.2.3 7.6-.1 1.3-.3 1.2-.4 3l.3 2c.6 5.4 0 13.2.3 20.6-.1-.4-.1-1.1-.2-.5.4 11.9.3 26.7.5 40-.1-.5-.3-1-.4-.2.3.7.4 4.8.4 8.3-.3 1.6.3 6.1.1 10.3l-.1-.4c.3 3.1-.1 4.6.2 7.1-.1.7-.2 1.3-.4 2 .1.7-.1 1.8-.5 3.1-.2.6-.4 1.3-.7 1.9-.3.6-.4 1.3-.7 1.9h.1c-.2.6-.5 1.1-.7 1.5-.2.4-.5.8-.7 1.2-.5.8-1 1.4-1.7 2.4l-.2.1c-1.6 2.1-3.3 3.4-4.4 4.2-1.2.8-1.8 1.2-1.7 1.3-.9.4.2-.3 1.2-1 .9-.7 1.7-1.4.4-.7-3.4 2.6-7.6 4.2-12 4.4-4.4.2-8.7.1-13.1.1h-26.1c-2-.1-3.2-.2-3.7-.3-1.7.1-6.5.1-8.1.2.6 0-1.1-.2-2-.2-3.1-.1-3.4.4-6.9.2 1.4-.1 1.8-.2 1.4-.3-2.9.2-6.9.2-10.4.3.5-.1 1.4-.1 1.3-.2-3.8.3-6.9-.1-10.3.1l1.3-.2c-5.4-.2-1.6.4-6.2.3 1.1-.1.7-.1.9-.2-4.3.3-11.4.2-15.7.3.3 0 .2-.1.2-.1-4.7 0-9.6-.1-14.8.1-1.9-.1.6-.5-4.4-.4.2.4-8.5.2-5.5.6-4.3-.1-11-.2-13.8-.1 1.9-.1-2.1-.5 1.5-.5l-2.7-.2c.4-.2 2.8.1 1.9-.1-1.8 0-6.9.2-8.5.1-3.3.2-6.3.7-11.6.7 2.5-.1-1.4-.4.3-.5l-7.4.7c-1.8 0-.4-.3-2.9-.2.1.1-1 .2-1.8.2-.7 0-7.4.1-8.1-.3-.8-.1 2.9-.1.9-.2-3.3 0-3.4.1-6.7.1h-.1c-2.2-.1-6.4.2-4 .4 1.5 0-.6-.2 1.7-.1-1.5.2-5.3.3-8.6.3 1.1-.1 1-.2 1.4-.3-4.4.3-9.1.4-14 .5-.1.2 1.8-.3 2.6-.2-6.3-.2-13 .3-18.2 0 .9 0 .5.2.4.2-3 0-2.9-.3-4.9-.2-.2-.1-2.5 0-4.5.1-1 .1-.5-.1 1.2-.1-2.8.1-14.2.4-20.7.1.1.1-4 .4-5.5.3l.6-.2c-1.4-.1-5 0-5.3-.2-3.2.3 12.4-.2 8 0-1.1-.2-6.1.4-5.1.1-3 0-6 .3-8.8.1.8 0 2.5-.3 0-.3-4.3 0-1.2.1-4.7.2l-2.2.1c0 .1-.3.1-.6.1h-1.2c-.8-.1-1.4-.2-.5.1-.3-.1-2-.3-3.4-.9-1.5-.6-2.6-1.4-2.3-1.4l.7.1c-1.7-1-2.8-1.7-3.9-2.8-.1-.2-.4-.7-.3-.6-.1 0-.4-.2-.7-.7-.3-.4-.6-1-.9-1.7-.6-1.4-.9-3.1-1.2-4.2v-3.3-3.4c0-2.2.1-4.2.2-5.1-.1-3-.3-5.7-.2-9.1 0 .7.1 1.6.2 1.8.1-2.1 0-2.7-.1-4.6.1.4.3-4.3.4-6.7-.1-3-.4-2-.5-2.3.4-2.7-.3-8.4.1-11.8.1 1 .2 4.3.3 1.9.4-2.7-.3-5.5-.1-9.9l-.4 1.1c.2-2-.2-6.5.2-6-.1-1.5.1-5.2-.2-4.7.3-7.2-.2-17.5.5-22-.1-1 0-3.6-.2-3.1-.2 1.7.1 2.4 0 3 0-.9-.1-1.1-.2-1.2.1-2.2.1-4 .4-1.9.2-5-.6-5.1-.5-11.5.1.3.2-.2.2-2.1l-.3-3.5c.1-4.1.3-2.3.6-2.4 0-2.2 0-4.9-.2-5.9l.3-2.7c-.2 1.9-.2-1.8-.2-2.8l.1 1c.1-.4 0-2.9 0-4.2-.2.3-.2 2.9-.3 4.3-.1-1.1-.1-2.9-.2-4.3.2.5.2-3.6.2-5.3.1-2-.2-2.3-.2-2.8.1-.1 0-3.3.2-1.7 0 .7-.1 1.6 0 2.7.1-1.3.3-1.2.2-3.9-.1-2.1-.5.5-.3-3.4.1 1 .2 1.2.2 2l.1-3.7-.2-.2c.1-.5.1-.2.1-.4-.2-1.1-.1-5.6-.3-6.4 0-1.8.2-3.9.2-5.6v.3c.1-2.2 0-5-.1-6.8v.1c0-1.2 0-4-.1-5.4.2-3 .8-1 .6-4.3 0-3-.4-4.7-.6-3.5.2-5.4-.2-11.6.1-16.6-.1-.8-.1-.3-.2-1.9.1-8-.3-16.8.2-23.1.1 2.3.2.2.3.1-.2-1.9.2-2.3-.1-3-.2.2-.3 0-.4 2.2-.1-4.7-.1-12 .1-14.6-.1 1.3-.2.3-.2-.7.3.3.4-3.2.3-5.8l-.8-.7.2-1.7c-.1-1-.4-1.1-.2-3.8.1-.1.2-.3.2-.8-.1-1.4-.2-3-.3-4.7-.1-1.7-.1-3.4.1-4.9.1-.8.3-1.7.5-2.5.1-1.3.3-3.5-.1-1.2.8-5.2 2.4-8.4 3.4-9.8 1-2.1 2.4-4.3 4.4-6.2 2-2 4.9-3.3 7.8-4 2.9-.7 5.8-.8 8.6-.9 2.8 0 5.5-.1 8-.1l-.4.1c2.7.1 1.4-.3 3.3-.2-.9.2 2.1.3-.1.5 3.9.1 5-.4 7.6-.5.4-.2-2 .2-1.6-.1.4-.1 5.4 0 6-.3 1 .1.2.3-.3.5l2.4-.2c2.9.3-6.6.7-3.6 1.1l2.2-.1c2.1.3-5.8.5-.3.5 2.4-.2 4.4-.7 2.3-.7 5-.2 2.3-.7 7.7-.8 1.5.1-4.3.1-3.3.3 2.5.2 5.1-.2 7.3-.2-2.5-.1-.4-.4 1.2-.5 2.7.1-1.8.3 2.1.3.6-.2 4.2-.4 1.1-.4 1.4-.4 4 0 6.1-.3 1.3.2-4 .7.3.7-.7-.2 5.2-.5 3-.8 1.7 0 1.8.2.6.4 2.4.1 5.8-.6 6.5-.1l.8-.3c.7.1 1.8.1 3 .2 2.1 0 6.7-.5 6.6-.1.7-.1 5.5-.1 3.6-.4-3-.1-3.4.3-5.1-.1 2.1.3 4.3-.1 6-.3l.3.1c1-.1 3.4-.1 4-.3-.8.1-.4.2.4.2l1.1-.3c4.2-.2 1 .4 5 .2l-3.1.2c.7-.1 2.1.1 4 0 .7-.2 2.2-.5 2.8-.7 2.3-.1 1 .2 3.3 0l-2.9.3c-.4.1 2 .3 5 .2 1.9-.1 5-.5 1.9-.5 1.5 0 3.7.1 2.5.2 3.5-.1-.5-.2 2.5-.4 1.2.1 5 .2 7.3.4l-3.1.4h2.1c-2.7.3 1.4.2-.1.5 1.4 0 3.1-.1 4.5-.2-4.1-.4 4.6-.8 3.4-1.2 5.7-.2 3.6 1 9.5.2-1-.1 1.8-.5-1.8-.3 3.5 0 2.4-.5 6.6-.4-3.1.2 3.3.4-1.1.7.3-.2-2.5-.1-3.2 0 1.5.1-.3.4 3.3.4 2.2-.1 5.2-.2 4.8-.4-.1-.3-3.4.1-2-.2 4.4-.2 5.1.2 6.9-.3-2.8.1-3.5-.2-3.4-.3l3.2-.2-.6.2c5.2 0 1.5-.3 6.5-.4l2.4.3c-1.2.3-7.3 0-6.4.5 3.3 0 4.3-.3 7.4-.2-.7 0-1.6.1-2.3.1 1.2 0 2.3.6 7 .1 2.4-.2.6-.2.7-.4 5.2-.2 6.8-.4 10.1-.5-.7.4 5.9-.1 2.2.3-1.7-.2-9.3 0-11.1.4 1.9.4-4.1 0-5.2.5 4.2-.1 4 .3 4.7.6 1.2 0 2.3-.1 3-.2.5-.3-1-.2-1.1-.5 4.7 0 9.2-.3 11.8-.5 1.6.1 1.1.3-.8.4 5.6-.2 11.5-.3 16.8-.3-3.4-.3 5.9-.2 3.6-.5-2.8 0-5.3-.3-3.7-.5 1.8 0-.1.2.7.2 2.2-.3 3.5.3 5.7-.1-5.1.2-1 .5-1.9.8 3.7-.2-.2.2 3.5.2 3.7-.2 8.1-.5 12.2-.6 5.1.2 12.9-.2 17.5-.3 2.4.1.8.5 3.4.5 3-.1-2.3-.3 2.2-.3l-.4.1c1.4-.1 8.2.1 9.6-.5l-1.4.4c.8 0 1.6-.1 2.3-.1 0 .1 1 .2-.3.3 2.8.2 5.8-.2 8.8-.2l-1.9-.2c5.2-.3 8.6-.1 13.6-.3l-.1.2 3-.2c-.7.2 2 .3 3.6.1l-7.7.7c-2.1-.1 2.3-.3 1-.5-1.1-.2-5.8 0-6.5.2 1.8 0 1.9-.1 3.2-.2.6.3-2.1.3-3.4.6.9 0 2.2 0 2.4-.1-1.8.2-3.7.2-6.7.3 2.1-.2-1.1-.2-.3-.3-.2.3-3.1.4-6.9.4-2.7-.3-7 .3-11.4.3 1.8-.3 4-.6 6.6-.7-2.7-.1-3 .1-5.8 0-1.3.2-2.3.6-5.8.8l-.2-.2c-3.2.2-3.2.5-7.3.5-7 0-14.3.2-19.6.3l-.2-.2c-3 .5-9.9.4-13.9.6-6.8-.1-14.8.5-18.3.2-12.1.4-22.6.8-35.1.9l2.1-.3c-2.2.3-1.5-.1-3.7-.1 2.5.2-3 .4-4.6.6-5.6-.1-12.7.3-17.6.6l-.2-.2c-5 .5-10.9.3-17.1.3-.7-.1-1.8-.2-3.7-.2-3.4.4-5.1.4-10.1.7-3.6.1-9.5.1-13.1 0-13.6.7-27.4.7-41.5 1.3l-1-.2c-3.4.2-7 .3-10.7.4-3.7.1-7.4 0-10.9.6-1.7.3-3.4.7-4.9 1.4-1.5.7-2.8 1.6-3.9 2.7-2.3 2.2-3.8 5-4.7 7.5v-1.1c-.7 1.6-1.2 3.5-1.4 5-.2 1.5-.1 2.4 0 1.9-.3 1.7-.4 4-.4 6 0 2.1 0 4.1-.1 5.2-.1 3.7.2 4.6.2 7.7-.2 7.5-.1 10.3 0 17.4v-1.8c-.1-.8-.3-.8-.3.9.1 2.6-.1 9.7.4 7.1-.3 7.6.2 17.6-.2 25 .1-.6.2 1.2.2 2 0 6.6-.3 13.6 0 18.9-.1 1.1-.2-1.7-.2 1 .1 1.6.2 0 .2 2 .2 10.7-.3 21.8-.2 31.5.3 17.4.1 35.5.2 52.1l-.1-.2c.4 5.6-.4 13.1.2 17.5-.1 1.3 0 5-.2 4.1.3 4.4-.2 12.4.1 18.8 0-.6 0-.9-.1-1.6-.2 6.5.1 12.2-.1 19 0-.7-.1-2-.2-2.2-.2 2.6.4 6.3-.1 7.7 0 1.5.2 1.1.2.1 0 3.7-.1 7.6-.1 11.4 0 2 0 3.7.5 5.3.5 1.6 1.5 3.1 2.7 4.4 1.2 1.2 2.7 2.1 4.4 2.6 1.7.6 3.3.5 5.3.5 3.9 0 7.8-.1 11.7-.1 11.2.3.7.8 9.5.4.7.1.5-.2.6-.1 3.4-.1 5.3.5 7.7.3-1-.3 1.6-.2 1.6-.3 6.8.2 8.2.4 13.6.2l-.4.2c6.3-.4 13.6-.2 19-.7 34.8-.1 68.2-.3 102.2-.4 33.6.1 66.4-.1 100.5.1 4.1.2 5.9.3 8-.1 1-.3 2-.5 3.2-1 1.2-.5 2.6-1.2 4.3-2.4-.2.2-.7.5-.2.3.1-.1.3-.4.8-.8.2-.2.5-.4.7-.6.3-.2.5-.5.8-.7.3-.3.5-.5.8-.7.2-.3.4-.5.6-.8.4-.5.7-.8.7-1.1 1.8-2.3 3.1-4.8 3.8-7.6.8-2.7.8-5.4.7-8.6V283c0 2.1.3 3.1.3.6l-.2-2.6.1-.4c0-1.7-.2-3.5-.3-1.8-.3-32.6.4-64.6.3-96.5.1-7.6 0-18.4-.1-26.6.4-24.4.8-46.4.5-71.2.1 1.2 1 4.4 1.2 14.6zM323.4 40.6c-.9-.1-3.7-.2-1.5-.4.4.1 1.8.2 1.5.4z"/><path class="st1" d="M247.6 40.4c-.1.1-1.1 0-1.3-.1.9 0 1.8-.2 2.6-.1-1 0-.8.1-1.3.2zM228.3 40.7c.3-.2 4.4-.3 6.9-.4l-6.9.4zM210.2 40.4c-1.6-.1-1.1-.2 1-.2.1.1-.5.1-1 .2zM209 40.8c-1.5 0-2.2 0-3-.1 0 .1 3.4-.2 3 .1zM169.8 41.1c-.9 0-3 .2-3.9 0 1 .1 4.6-.2 3.9 0zM151.6 41.7h-1.5c-1.1 0 .1-.2 1-.2l.5.2zM34.2 269.2l-.1-1.9.1.2zM126.3 329.9c2-.1 1.4.1 1.7.2-1.8-.1.7-.3-1.7-.2zM204.6 329.1h-.6l.2-.3z"/><path class="st2" d="M336.5 40.5l2.6 272.5"/><path class="st1" d="M337 41.2c-.1-1-.3.5-.1-.7.1.2.2.4.1.7zM339.4 309.6c-.8-3.2-.1-7.5-.6-11 0-.4.4.1.3-.8-.6-3.4-.3-8.8.1-13l.1.3c.1-.8-.3-1.8-.3-2.6.1 0 .1.3.2.1-.2-.2-.1-1.5-.3-1.9.1-.3.3-.3.4-.7l-.3-.5c-.7-1.3 0-3.2-.3-5.1.1.1.1.3.2.1-.4-2.9-.4-6.6-.6-9.9.1.1.3.2.4.1-.3-.2-.4-1.2-.4-2 .3-.4-.3-1.5-.1-2.5l.1.1c-.3-.8.2-1.1-.2-1.7l.2-.5c-.4-.3.2-1.1 0-1.7h-.1c-.1-.6.1-.9 0-1.5v-.1c-.1-1.3.1-2-.2-2 .3-.5.1 1.2.5.5-.4-4.2-.3-8.6-.4-12.9.1-.5.2-.8.3-.9-.1-.4-.1-1.6-.2-2 0 .1.2-.3.2-.5.1-.8-.4-.8-.2-1.7.1.3.2.5.3.3-.3-.7-.2-1.7-.3-2.6.1.1.1.3.2.3-.3-.9 0-1.7-.1-2.5l.2.3c.2-1.3-.4-.4-.3-1.5.1.3.1.2.2.2-.3-1.1-.3-2.8-.4-3.9 0 .1.1 0 .1 0-.1-1.2 0-2.4-.1-3.7.1-.5.5.1.4-1.1-.4 0-.2-2.1-.6-1.4.1-1.1.2-2.7 0-3.4.1.5.4-.5.5.4l.2-.7c.2.1 0 .7.1.5 0-.4-.2-1.7-.1-2.1-.2-.8-.7-1.5-.7-2.9.2.6.4-.4.5.1l-.7-1.8c0-.4.3-.1.2-.7-.1 0-.2-.2-.2-.4s-.1-1.8.3-2c.1-.2.1.7.2.2 0-.8-.1-.8-.1-1.6 0-.5-.2-1.6-.4-1 0 .4.2-.1.1.4-.2-.4-.3-1.3-.3-2.1.1.3.2.2.3.4-.3-1.1-.4-2.2-.5-3.4-.2 0 .3.4.2.6.2-1.6-.4-3.2 0-4.5 0 .2-.2.1-.2.1 0-.7.3-.7.2-1.2.1 0-.1-.6-.1-1.1-.1-.3.1-.1.1.3-.1-.7-.4-3.5-.2-5.1-.1 0-.4-1-.4-1.4l.2.1c.1-.3 0-1.2.2-1.3-.3-.8.3 3 0 2 .2-.3-.4-1.5-.1-1.3 0-.7-.3-1.5-.1-2.2 0 .2.3.6.3 0-.1-1.1-.1-.3-.2-1.2l-.1-.5c-.2 0 0-.9-.2-.6.2-.1-.1-1.5.2-1.4l.3.1c0-.5-.3-.7-.4-1.1 0-.1.1-.2.1-.2-.4-.1 0-1.1-.3-1.6.1-1 0-2.4.3-2.9-.1-.7-.3-1.4-.2-2.3 0 .2.1.4.2.4.1-.5 0-.7-.1-1.1.1.1.2-1.1.4-1.6-.1-.7-.4-.5-.5-.6.4-.7-.3-2.1.1-2.9.1.3.2 1.1.3.5.4-.7-.3-1.3-.1-2.4l-.4.3c.2-.5-.2-1.6.1-1.5-.1-.4.1-1.3-.2-1.2.3-1.8-.2-4.3.4-5.4-.1-.3 0-.9-.2-.8-.2.4.1.6 0 .7 0-.2-.1-.3-.2-.3.1-.6.1-1 .4-.5.2-1.2-.6-1.3-.5-2.8.1.1.2 0 .2-.5l-.3-.9c0-1 .3-.6.6-.6 0-.5 0-1.2-.2-1.4l.3-.7c-.2.5-.2-.4-.2-.7l.1.3c.1-.1 0-.7 0-1-.2.1-.2.7-.3 1.1-.1-.3-.1-.7-.2-1.1.2.1.2-.9.2-1.3 0-.5-.2-.6-.2-.7.1 0 0-.8.2-.4 0 .2-.1.4 0 .7.1-.3.3-.3.1-1-.1-.5-.5.1-.3-.8.1.3.2.3.3.5l.1-.9h-.2c.1-.1.1 0 .1-.1-.2-.3-.1-1.4-.4-1.6 0-.5.1-1 .2-1.4v.1c.1-.5 0-1.2-.1-1.7 0-.3 0-1-.2-1.3.2-.7.8-.3.6-1.1 0-.7-.4-1.2-.6-.9.1-1.3-.2-2.9.1-4.1-.1-.2-.1-.1-.2-.5.1-2-.3-4.1.1-5.7.1.6.2 0 .3 0-.2-.5.2-.6-.1-.7-.2 0-.3 0-.4.6-.1-1.2-.1-2.9 0-3.6-.1.3-.2.1-.2-.2.3.1.4-.8.2-1.4l-.2-.1.2-.4c-.1-.3-.4-.3-.2-.9.1 0 .2-.1.2-.2-.2-.7-.4-1.6-.3-2.4l.3-.6c0-.3-.2-.8-.3-.3.2-1.3.2-2.1.4-2.5-.6-2.1-.7-5.3-.7-7.8l.1.1c.1-.7-.3-.3-.2-.8.1.2.3-.5.5 0 .1-1-.3-1.2-.3-1.9-.2-.1.1.5-.1.4-.1-.1.1-1.3-.2-1.5.1-.2.3-.1.4.1l-.1-.6c.3-.7.6 1.6 1 .9l-.1-.5c.3-.5.4 1.4.4.1-.1-.6-.6-1.1-.7-.6-.1-1.2-.7-.6-.7-1.9.2-.4.1 1.1.3.8.2-.6-.1-1.2-.1-1.8-.1.6-.4.1-.5-.3.1-.7.3.4.3-.5-.2-.2-.3-1-.4-.3-.4-.3.1-1-.2-1.5.3-.3.6 1 .8-.1-.3.2-.4-1.3-.7-.7.1-.4.3-.5.4-.2.2-.6-.5-1.4 0-1.6l-.3-.2c.1-.2.1-.4.3-.7 0-.5-.4-1.7 0-1.6 0-.2 0-1.3-.3-.9-.2.7.2.8-.2 1.3.3-.5 0-1.1-.2-1.5l.2-.1c-.1-.3 0-.8-.2-1 .1.2.2.1.2-.1l-.2-.3c-.1-1 .4-.2.3-1.2l.2.8c0-.2.2-.5.1-1-.2-.2-.5-.5-.6-.7-.1-.6.2-.3 0-.8l.3.7c.1.1.3-.5.3-1.2-.1-.5-.4-1.2-.5-.5 0-.4.1-.9.3-.6-.1-.9-.2.1-.4-.6.1-.3.3-1.2.5-1.8l.4.8v-.5c.3.7.2-.3.5 0 0-.3-.1-.8-.1-1.1-.5 1-.7-1.1-1.1-.8-.1-1.4 1.1-.9.4-2.3-.1.2-.5-.4-.3.4 0-.9-.4-.6-.3-1.6.2.8.4-.8.7.3-.1-.1-.1.6-.1.8.2-.4.4.1.4-.8 0-.5-.1-1.3-.3-1.2-.3 0 0 .8-.2.5-.1-1.1.3-1.3-.2-1.7 0 .7-.2.9-.4.8l-.1-.8.2.2c.1-1.3-.3-.4-.3-1.6l.6-.5c.3.3-.1 1.8.4 1.6 0-.8-.2-1.1-.1-1.8 0 .2.1.4.1.6 0-.3.6-.6.3-1.7-.1-.6-.2-.2-.3-.2-.1-1.3-.2-1.7-.3-2.5.3.2 0-1.5.4-.6-.2.4-.2 2.3.2 2.7.4-.5 0 1 .4 1.3 0-1 .4-1 .7-1.2 0-.3-.1-.6-.1-.7-.2-.1-.2.3-.5.3.1-1.2-.1-2.3-.3-2.9.1-.4.4-.3.4.2-.1-1.4-.1-2.8 0-4.1-.4.8-.1-1.5-.4-.9-.1.7-.4 1.3-.5.9 0-.4.2 0 .3-.2-.2-.6.3-.9 0-1.4.1 1.3.5.2.8.5-.2-.9.2 0 .2-.9-.2-.9-.3-2-.4-3 .3-1.3 0-3.2 0-4.3.2-.6.5-.2.6-.8 0-.7-.4.6-.2-.6l.1.1c-.1-.3.2-2-.3-2.4l.4.3c0-.2-.1-.4-.1-.6.1 0 .2-.3.3.1.3-.7-.1-1.4-.1-2.2l-.2.5c-.2-1.3 0-2.1-.1-3.4h.2l-.1-.7c.2.2.3-.5.2-.9l.6 1.9c-.1.5-.3-.6-.5-.2-.2.3-.1 1.4.1 1.6 0-.4 0-.5-.1-.8.3-.1.3.5.5.8 0-.2.1-.6 0-.6.2.4.2.9.2 1.6-.1-.5-.2.3-.3.1.3.1.4.8.3 1.7-.3.7.2 1.7.1 2.8-.3-.4-.5-1-.6-1.6-.1.7 0 .7-.1 1.4.2.3.5.6.7 1.4h-.2c.1.8.4.8.4 1.8-.1 1.7-.1 3.5-.1 4.8l-.2.1c.4.7.2 2.4.4 3.4-.2 1.7.2 3.7-.1 4.5.2 3 .4 5.6.3 8.6l-.3-.5c.2.5-.2.4-.1.9.2-.6.3.7.5 1.1-.2 1.4.1 3.1.3 4.3h-.2c.4 1.2.1 2.7 0 4.2-.1.2-.3.5-.2.9.3.8.3 1.3.5 2.5 0 .9-.1 2.3-.2 3.2.5 3.3.2 6.8.5 10.2l-.2.3c.5 3.4.1 7.5.4 10.4l-.4-.3c-.1.9.1 2.1.4 1.8-.1.9.2 2.3-.1 2.8-.1.9.2 1.1.3 1.9-.1 1.9-.1 2.5 0 4.3v-.4c-.1-.2-.3-.2-.3.2.1.6-.1 2.4.4 1.7-.3 1.9.3 4.3-.1 6.2.1-.2.2.3.3.5 0 1.6-.2 3.4 0 4.7-.1.3-.2-.4-.2.3.1.4.2 0 .3.5.3 2.6-.2 5.4-.1 7.8.3 4.3.2 8.7.3 12.8h-.1c.4 1.4-.4 3.2.2 4.3-.1.3 0 1.2-.2 1 .3 1.1-.2 3.1.1 4.6 0-.1 0-.2-.1-.4-.2 1.6.1 3-.1 4.7 0-.2-.1-.5-.2-.5-.2.7.4 1.5 0 1.9 0 .4.2.3.2 0-.1 3.7.2 7.6.3 11.5-.3 2.8-.8.2-.4 2.3-.1.2.2.1.1.2.1.8-.5 1.3-.3 1.9.3-.2.2.4.3.4-.2 1.7-.4 2-.2 3.4l-.2-.1c.4 1.6.2 3.4.7 4.7.2 8.6.5 16.8.7 25.2 0 8.3.3 16.4.1 24.8-.4 2-.4 2.1-.2 4.3-.1-.1-.1-.2-.1-.1.3.1 0 1.5.4 1.7 0 3.1.1 6 .1 9.2 0-.5-.3-.8-.3-.2l.2.6-.1.1c.1.4.2.9.3.4.4 8-.2 15.9-.1 23.8-.1 1.9 0 4.5.1 6.6-.4 6-.7 11.4-.3 17.6-.6.3-1.4-.4-1.7-3zM337.1 42.4c-.2.2-.2.9-.5.4.2-.1.3-.5.5-.4z"/><path class="st1" d="M335.6 61.1l-.1.3c0-.2-.2-.4-.1-.6 0 .2.1.2.2.3zM335.5 65.9c-.1-.1-.3-1.1-.3-1.7l.3 1.7zM335 70.3c-.1.4-.2.3-.2-.2.1-.1.1.1.2.2zM335.3 70.6c0 .4-.1.6-.2.7.2.1 0-.8.2-.7zM335 80.3c0 .2.1.7 0 1 .1-.3-.2-1.2 0-1zM335.2 84.8v.4c-.1.3-.2 0-.2-.2l.2-.2zM336.6 166.5l-.1-.5.2.1zM336.9 202.3c.1.5-.1.3-.2.4.1-.4.3.2.2-.4zM337.9 221.6v-.1h.3z"/><g><path d="M66.2 43.7S32.8 145 109.3 182.2s169.5 18.6 200.5 72.3l31 53.7-2.1-268.7-272.5 4.2z" fill="#110f44"/><path class="st1" d="M66 46.1c1-3.4-.8 1.8.6-2.3 0 .6-.2 1.3-.6 2.3z"/><path class="st1" d="M78.1 43.9c11.6-.9 26.8-.4 39.5-1.1 1.5-.1-.4.4 3 .3 12.3-.8 31.6-.7 46.6-.5l-.9.1c2.9 0 6.3-.4 9.4-.4 0 .1-1 .1-.3.2.8-.2 5.5-.2 6.7-.4 1.2.1 1.1.3 2.6.3l1.7-.3c4.8-.7 11.7-.1 18.2-.6-.3.1-1 .1-.4.2 10.5-.5 23.7-.7 35.5-1-.5.1-.9.3-.2.4.6-.3 4.2-.4 7.4-.5 1.4.3 5.4-.3 9.1-.2l-.3.1c2.7-.3 4.1.1 6.3-.3l1.7.2c1.2-.4 4 .2 6.2-.1l-.1-.1c2.1-.1 3.2.1 5.2 0h.2c4.6-.2 7.3 0 7.2-.3 1.6.2-4.5.2-1.9.5 15.2-.6 30.9-.7 46.3-1 1.7.1 2.9.1 3.2.2.8 0 2.2-.1 3.6-.1s2.8-.1 3.6-.2c-.5 0 .6.1 1.4.1v.4c-.1 2.8.4 3 .3 6.1-.1-1.2-.2-1.6-.3-1.2.3 2.6.3 6.1.4 9.2-.1-.5-.1-1.2-.2-1.1.3 3.4 0 6.2.2 9.1l-.2-1.1c-.2 4.8.4 1.4.3 5.5-.1-1-.1-.6-.2-.8.4 3.8.3 10.1.4 13.9 0-.2-.1-.2-.1-.2.1 4.2 0 8.5.2 13.1-.1 1.7-.5-.5-.4 3.9.4-.2.2 7.5.6 4.9 0 3.8-.1 9.8 0 12.3-.2-1.7-.4 1.8-.5-1.3l-.2 2.4c-.2-.4 0-2.4-.2-1.7 0 1.6.2 6.2.2 7.6.3 2.9.7 5.6.8 10.3-.2-2.2-.4 1.3-.5-.2l.8 6.6c0 1.6-.3.3-.2 2.6.1-.1.2.9.3 1.6 0 .6.1 6.5-.2 7.2-.1.7-.1-2.6-.2-.8 0 2.9.2 3 .2 5.9v.1c0 1.9.2 5.6.4 3.6 0-1.3-.2.5-.1-1.5.2 1.3.3 4.7.3 7.6-.1-1-.2-.9-.3-1.3.3 3.9.4 8 .6 12.4.2.1-.3-1.6-.2-2.3-.2 5.6.4 11.5.1 16.2 0-.8.2-.4.2-.4 0 2.7-.3 2.6-.1 4.3-.1.2.1 2.2.1 4 .1.9-.1.5-.1-1.1.1 2.5.4 12.6.3 18.4.1-.1.4 3.6.4 4.9l-.2-.5c-.1 1.2.1 4.5-.1 4.7.3 2.8-.3-11-.1-7.1-.2 1 .4 5.4.1 4.5 0 2.7.3 5.3.1 7.8 0-.7-.3-2.2-.3 0 .1 3.8.1 1.1.2 4.2l.1 1.9c.2.1 0 3.4.2 2-.2.5.2 5.5-.2 5.1l-.3-.5c0 1.6.3 2.7.5 4 0 .2-.1.6-.1.6.4.3 0 3.9.4 5.9-.1 3.5.1 8.8-.2 10.4.2 2.7.3 5.1.3 8.1 0-.6-.1-1.4-.2-1.6-.1 1.9 0 2.4.1 4.1-.1-.4-.2 3.8-.4 5.9.2 2.6.4 1.7.5 2-.4 2.4.3 7.4 0 10.5-.1-.9-.2-3.8-.3-1.7-.4 2.4.4 4.9.2 8.8l.4-1c-.1.4-.1 1-.1 1.6 0 .6 0 1.3.1 1.9 0 1.8.1 3.2-.1 2.8.1 1 .1 2.7.1 4.1 0 1.4 0 2.5.2 2.7v3c-1.2-2.2-2.5-4.4-3.8-6.6-1.1-2-2.3-3.9-3.4-5.8-1.6-2.7-2.9-5.2-3.6-6.9-.5-.8-1.6-2.8-1.5-2.3.6 1.4 1.2 1.8 1.3 2.3-.4-.7-.6-.8-.7-.9-.9-1.8-1.7-3.1-.5-1.6-2-3.9-2.8-3.6-5.5-8.6.3.1.1-.3-.8-1.7l-1.8-2.6c-1.8-3.2-.7-2-.6-2.2-1-1.7-2.2-3.7-2.8-4.4l-.9-2.2c.7 1.6-.9-1.3-1.4-2.1l.5.8c-.1-.4-1.3-2.3-1.9-3.2 0 .3 1.1 2.3 1.7 3.4-.6-.8-1.3-2.2-2.1-3.2.4.3-1.4-2.8-2.2-4.2-.8-1.6-1.2-1.6-1.4-2.1.1-.1-1.4-2.5-.6-1.4.3.5.6 1.3 1.2 2.1-.5-1.1-.2-1.1-1.6-3.1-1-1.5-.1.6-1.8-2.4.5.7.7.8 1.1 1.4-.5-1-1.1-1.8-1.6-2.8h-.3c-.2-.4 0-.2-.1-.3-.4-.3-1-1.4-1.7-2.3-.7-.9-1.5-1.8-1.8-2-.5-.6-1-1.3-1.5-2-.5-.6-1.1-1.3-1.6-1.8l.2.2c-.6-.7-1.3-1.5-2.1-2.3-.8-.7-1.6-1.3-2.2-1.8h.1c-.4-.3-1-.9-1.7-1.5s-1.5-1.1-2-1.4c-2-1.7-.2-1.2-2.6-2.7-2.2-1.4-3.7-1.9-2.9-1.2-1.9-1.4-4.2-2.5-6.4-3.7-1.1-.6-2.2-1.1-3.3-1.6-1.1-.5-2.1-1.1-3.1-1.6-.7-.2-.3 0-1.6-.5-6.4-2.8-13.9-4.8-19.2-6.7 2 .5.2-.2.2-.3-1.7-.3-1.9-.7-2.6-.5.1.2-.1.3 1.8.9-2-.5-4.6-1.1-6.9-1.7-2.3-.5-4.5-1.1-5.6-1.4 1.1.3.2.2-.7.1.4-.3-2.7-.9-5-1.3l-.4.1-1.5-.5c-.9-.1-1.1.2-3.3-.4-.1-.1-.2-.2-.6-.3-2.4-.3-5.8-.6-8.4-1.3l-2.1-.7c-1.1-.2-3-.3-1.1.1-4.4-.9-7.3-1.4-8.6-1.9-7.7-.7-18.8-2.5-27.7-4.3l.3-.1c-2.4-.6-1.3 0-2.9-.4.8 0-1.8-.6.1-.5-3.4-.8-4.4-.6-6.7-1-.4.1 1.8.2 1.3.4-.4 0-4.7-1.1-5.3-1-.8-.3-.1-.4.4-.4l-2.1-.3c-1.2-.5.2-.3 1.7-.1 1.5.1 2.9.3 1.6-.2l-1.9-.4c-1.8-.7 5.1.7.4-.4-2.1-.3-4-.3-2.1.2-4.3-.9-2.2.2-6.8-.9-.6-.2.3 0 1.3.2s2 .4 1.6.2c-2.1-.7-4.4-.9-6.3-1.5 2.1.6.2.5-1.2.2-2.3-.7 1.6.1-1.7-.7-.6 0-3.7-.7-1.1.1-1.3 0-3.4-1-5.3-1.3-1-.6 3.6.3 0-.8.5.4-4.6-1-2.8 0-1.4-.5-1.5-.7-.4-.6-2-.8-5.1-1-5.6-1.7h-.8c-.6-.3-1.5-.7-2.5-1.1-.9-.3-2.3-.7-3.5-1.1-1.2-.4-2.1-.7-2-.9-.6-.2-4.6-1.7-3.1-.8 2.4 1.1 2.9.9 4.2 1.7-1.7-.9-3.6-1.3-5.1-1.7l-.2-.2c-.4-.1-1.1-.4-1.8-.6-.7-.2-1.3-.5-1.6-.5.7.2.4-.1-.3-.4l-1-.1c-3.5-1.3-.7-.7-4-2l2.6.9c-.6-.2-1.6-.9-3.2-1.5-.7-.1-1.9-.4-2.5-.5-1.9-.8-.7-.6-2.6-1.2l2.5.9c.4.1-1.5-1.1-3.9-2.2-1.6-.7-4.1-1.8-1.7-.3-1.2-.7-2.9-1.7-1.8-1.3-2.8-1.4.3.4-2.2-.8-.4-.3-1.4-.9-2.4-1.7-1-.8-2.1-1.6-2.9-2.2l2.5 1.2-1.6-1c2.2 1.1-.9-.8.4-.4-1-.7-2.4-1.5-3.4-2.1 1.4 1.2.4.8-.8.1-1.2-.7-2.6-1.6-2.3-1.1-2.1-1.5-2.5-2.2-3.1-2.9-.5-.7-1-1.4-3.2-2.9.6.7-1.5-.8 1 1.3-1.2-1.1-1.6-1.4-2.2-1.7-.5-.4-1.1-.7-2.3-2.2 2 1.9-1.7-2.5 1.2.3-.3-.1 1.5 1.6 2 2-.8-1 .5-.1-1.9-2.4-1.4-1.4-3.2-3.4-3.1-2.9-.1.2 2.1 2.2 1 1.4-1.4-1.4-2.1-2.3-2.7-3-.5-.7-.9-1.1-1.6-1.6 1.6 2 1.8 2.6 1.6 2.7-.7-.7-1.3-1.5-1.9-2.2l.5.3c-1.4-1.9-1.7-2.1-2-2.3-.1-.1-.3-.2-.5-.5-.3-.3-.7-.8-1.3-1.8l-.9-2c.4.4 1.3 1.8 2.1 2.9.9 1.1 1.6 2 1.5 1.6-1.9-2.3-2.5-3-4-5.4.4.5.9 1.2 1.2 1.7-.3-.4-.4-1-.9-1.8-.4-.8-1.1-1.9-2.3-3.7-1.2-1.8-.4-.4-.6-.4-2.4-4-3-5.3-4.4-8.1.5.5-2-5-.4-2 .1.8 1 2.7 1.9 4.6.5.9.9 1.9 1.4 2.7.5.8.9 1.4 1.2 1.7-.2-.8.2 0 .8 1.1.6 1.1 1.4 2.5 1.9 2.8-.5-.8-.8-1.4-1.1-1.9-.2-.5-.3-.8-.4-1.1-.1-.5 0-.7-.1-1-.5-.9-1.1-1.7-1.4-2.2-.4-.3.2.9.1 1.1-.2-.5-.5-.9-.7-1.4-.2-.5-.4-.9-.7-1.4-.4-.9-.9-1.8-1.3-2.6-.9-1.6-1.5-3.1-2-4.1-.4-1.4 0-1 .6.5-.5-1.2-.9-2.3-1.4-3.5l-1.2-3.6c-.8-2.4-1.4-4.9-1.9-7.2.2 1.5-.2.3-.5-1.1-.3-1.4-.6-2.9-.6-1.9.4 2.5.7 4.7.2 3.4-.4-1.6.2 0 .1-.7-.7-1.9-.3-3.2-1-5 1 4.4.7.8 1.1 1.5-.8-3.2.2.1-.4-3.1-.3-1.6-.7-3.4-1-5.2-.3-1.8-.5-3.7-.8-5.5-.1-4.5-.7-11.5-.5-15.6.2-2.1.5-.7.6-3 .1-2.7-.5 2-.1-2l.1.4c-.1-1.2.7-7.3.3-8.5.1.4.2.8.3 1.3.1-.7.1-1.4.1-2 .1 0 .3-.9.3.3.3-1.2.4-2.5.5-3.8.1-1.3.2-2.7.4-4L60 70c.4-4.6 1.2-7.6 2-11.9l.2.2.4-2.6c.1.7.7-1.7.9-3.1-.3 2.3-.6 4.5-.9 6.8-.5 1.8.1-2.1-.3-1-.4.9-1.1 5-1 5.7.3-1.5.3-1.6.4-2.8.4-.5-.1 1.9 0 3.1.1-.8.4-1.9.4-2.1-.2 1.6-.4 3.2-.8 5.9.1-1.8-.3.9-.3.3.3.3-.1 2.8-.5 6.1-.6 2.3-.4 6.2-.7 10-.2-1.6-.3-3.6-.2-5.9-.3 2.4-.2 2.7-.5 5.1.2 1.2.4 2 .4 5.2l-.2.2c.1 2.9.3 2.9.3 6.5 0 3.1.2 6.2.4 9.2.3 2.9.5 5.7.9 8l-.2.2c.2.6.4 1.5.6 2.5.2 1 .4 2.1.7 3.2.2 1.1.4 2.3.7 3.4.3 1.1.6 2.1.8 2.9.2.7.3 1.5.5 2.2.2.7.5 1.5.7 2.2.5 1.5.9 3 1.5 4.3 1.1 2.7 2 5.1 2.5 6.5.6 1.2 1.2 2.4 1.7 3.5.6 1.1 1.3 2.2 1.9 3.3.3.5.6 1.1 1 1.6.3.6.6 1.1 1 1.6l2.1 3.1c.4.5.7 1 1.1 1.5l1.2 1.5 2.4 3c.8 1 1.8 1.9 2.6 2.9.4.5.9 1 1.4 1.5.5.5.9 1 1.4 1.4l-.8-.5-.7-.6c.7.7 1 .9 1.1 1.1.2.3.4.5 1.1 1.2-1.5-1.7 2.2 1.6 3.3 2.4.9.9 1.9 1.6 3 2.5 1.1.8 2.1 1.7 3.3 2.4 2.3 1.4 4.6 2.8 6.5 3.8v.3c2 .9 4.1 2 6.4 3.2 2.3 1.1 4.7 2.3 7.2 3.5.5.3 1.4.9 2.9 1.5 1.4.4 2.5.8 3.7 1.2 1.2.4 2.6.9 4.7 1.6 3 1.2 7.9 2.8 10.9 4 11.6 3.2 23.4 6.3 35.7 8.6l.8.4c12 1.9 26.6 4.8 36.8 6.3l-1.1.2c3.2.7 7.3 1.1 6.5.7 3.2.7 8 1.2 10 1.9 3.3.7 4 .6 6.8 1.1 3.3.7 5.5 1.2 7.7 1.7s4.3.9 7.4 1.7l-1.5-.4c-.7-.1-.8.1.7.5 1.2.2 3.3.8 4.8 1.2 1.5.4 2.5.6 1.4.1 3.2 1 7 2.1 10.7 3.3 1.9.7 3.7 1.3 5.5 2 1.7.7 3.4 1.5 4.9 2.2-.5-.4 1.1.3 1.7.6 5.5 2.4 10.7 6 14.7 8.6.7.6-1.3-.7.6.8 1.2.8.1-.1 1.6.9.5.4 1 .7 1.5 1.1l1.4 1.2c.9.8 1.8 1.6 2.7 2.5.8.9 1.7 1.8 2.5 2.7l1.2 1.4c.4.5.7 1 1.1 1.5.7 1 1.4 1.9 2.2 2.9.7 1 1.3 2 1.9 3 .6 1 1.3 2 1.8 2.9.6 1 1.1 1.9 1.6 2.9 7.9 13.2 15.8 27.2 23.2 39.9l-.2-.1c.5.8 1 1.6 1.5 2.5l.4.7.1.2.2.3c.2.5.6 1.2.8 1.6 0-.4-.1-1-.2-1.5.1 0 0-.8.2-.5v-.2-.2-.4-1.9-4.2c0-3 .1-6.2-.1-9 0 .5 0 .8.1 1.4.2-5.7-.2-10.8 0-16.9 0 .6.1 1.7.2 1.9.2-2.3-.5-5.5 0-6.8 0-1.3-.2-1-.2-.1.1-13.3-.3-27.4-.5-41.2.2-9.9.8-.6.4-8.4.1-.6-.2-.5-.1-.6-.2-3 .5-4.7.2-6.8-.3.9-.2-1.4-.3-1.5.1-6.1.4-7.3.1-12l.2.4c-.5-5.6-.3-12.1-.8-16.8-.4-30.9-.7-60.5-1.1-90.6-.1-15-.2-29.8-.3-44.6l-18.9.3c-7 .1-14.1.1-21.3.2-7.1-.3-7.6-.3-15.4 0 .3-.1.8-.1.3-.1-.4.3-5.5.1-6.2.4-11.2.1-21.5.4-33 .5 1.8-.1 2.7-.3.6-.3l-2.3.2-.4-.1c-1.5.1-3.1.3-1.6.3-28.9.7-57.3.5-85.6 1-6.7 0-16.3.2-23.6.4-21.6-.1-41.1-.2-63.1.5.2 0 3.1-.9 12.1-1.3z"/><path class="st1" d="M64.9 50.3c-.4.7-1 3.1-.8 1.1.3-.2.8-1.4.8-1.1zM59.9 117c.1.1.1 1 .1 1.2-.2-.8-.5-1.6-.5-2.2.1.7.2.6.4 1zM64.1 133.8c-.2-.2-1.5-3.7-2.1-5.8.7 1.9 1.4 3.8 2.1 5.8zM70.4 148.8c.6 1.3.3 1-.6-.7 0-.2.3.4.6.7zM71.2 149.6c.3.6.6 1 .7 1.4.2.4.3.7.5 1 .1-.1-.4-.7-.8-1.3-.3-.6-.6-1.2-.4-1.1zM94.7 175.8c.7.5 2.3 1.4 2.9 1.9-.7-.5-3.6-2-2.9-1.9zM109 183.9c.5.2.7.3 1.2.6.8.5-.1.1-.9-.2l-.3-.4zM341.7 293.9l.1 1.7-.2-.2zM340.7 165.1c-.1-1.7.1-1.2.1-1.5.1 1.6-.2-.6-.1 1.5zM339.4 95.7v.5l-.3-.1z"/></g><g><path class="st4" d="M94.6 43.3s-30 90.8 38.6 124.1 151.9 16.7 179.7 64.9l27.8 48.2-1.9-240.9-244.2 3.7z"/><path class="st1" d="M94.5 45.5c.8-3.1-.7 1.6.5-2-.1.4-.2 1-.5 2z"/><path class="st1" d="M105.3 43.5c10.4-.9 24-.4 35.4-1 1.3-.1-.3.4 2.7.3 11-.8 28.4-.7 41.8-.4l-.8.1c2.6 0 5.7-.4 8.4-.4 0 .1-.9.1-.2.2.7-.2 4.9-.2 6-.4 1.1.1 1 .3 2.4.3l1.5-.3c4.3-.7 10.5-.1 16.3-.5-.3.1-.9.1-.4.2 9.4-.5 21.2-.6 31.8-.9-.4.1-.8.3-.2.4.5-.3 3.8-.4 6.6-.5 1.3.3 4.8-.3 8.2-.2l-.3.1c2.4-.3 3.6.1 5.6-.3l1.6.2c1.1-.4 3.6.2 5.6-.1l-.1-.1c1.9-.1 2.9.1 4.7 0h.2c4.1-.2 6.6 0 6.5-.3 1.5.2-4 .2-1.7.5 13.7-.5 27.7-.7 41.5-.9 1.6.1 2.6.1 2.9.2.7 0 2-.1 3.3-.1 1.3 0 2.5-.1 3.2-.2-.4 0 .5.1 1.2.1v.4c-.1 2.5.4 2.7.3 5.5-.1-1.1-.2-1.5-.3-1.1.3 2.3.3 5.5.4 8.2-.1-.4-.1-1.1-.2-1 .3 3 0 5.5.2 8.2l-.2-1c-.2 4.3.4 1.3.3 5-.1-.9-.1-.6-.2-.7.4 3.4.3 9 .4 12.5 0-.2-.1-.2-.1-.2.1 3.7 0 7.7.2 11.8-.1 1.5-.5-.5-.4 3.5.4-.1.2 6.7.6 4.4 0 3.4-.1 8.7 0 11-.2-1.5-.4 1.7-.5-1.2l-.2 2.1c-.2-.3 0-2.2-.2-1.5 0 1.4.2 5.5.2 6.8.2 2.6.7 5 .8 9.2-.2-2-.4 1.1-.5-.2l.8 5.9c0 1.4-.3.3-.2 2.3.1-.1.2.8.2 1.4 0 .5.1 5.9-.2 6.5-.1.6-.1-2.3-.2-.7 0 2.6.1 2.7.2 5.3 0 1.7.2 5.1.4 3.2 0-1.2-.2.5-.1-1.3.2 1.2.3 4.2.3 6.8-.1-.9-.2-.8-.3-1.1.3 3.5.4 7.2.6 11.1.2.1-.3-1.5-.2-2-.2 5 .4 10.3.1 14.5 0-.7.2-.4.2-.3 0 2.4-.3 2.3-.2 3.9-.1.2.1 2 .1 3.6.1.8-.1.4-.1-1 .1 2.2.4 11.3.3 16.5.1-.1.4 3.2.4 4.4l-.2-.5c-.1 1.1.1 4-.1 4.2.3 2.6-.3-9.8-.1-6.4-.2.9.4 4.8.1 4.1 0 2.4.3 4.7.1 7 0-.7-.3-1.9-.3 0 .1 3.4.1 1 .2 3.7l.1 1.7c.2.1 0 3.1.2 1.8-.2.4.2 5-.2 4.6l-.3-.5c0 1.5.3 2.4.5 3.6 0 .2-.1.6-.1.5.4.2 0 3.5.3 5.3-.1 3.1 0 7.9-.2 9.3.2 2.4.3 4.6.3 7.3 0-.5-.1-1.3-.2-1.4-.1 1.7 0 2.1.1 3.7-.1-.3-.2 3.4-.4 5.3.2 2.4.4 1.6.5 1.8-.4 2.2.3 6.7 0 9.4-.1-.8-.2-3.4-.3-1.5-.4 2.2.4 4.4.2 7.8l.4-.9c-.1.4-.1.9-.1 1.5 0 .7 0 1.5.1 2.2 0 1.6.1 2.9-.1 2.4.1 1 .1 2.5.1 3.7 0 1.2 0 2.3.2 2.5v2.6c-1.1-2-2.2-4-3.4-5.9-1.1-1.9-2.2-3.8-3.2-5.6-1.4-2.4-2.6-4.7-3.2-6.2-.5-.7-1.4-2.5-1.4-2 .5 1.3 1.1 1.6 1.2 2.1-.4-.6-.5-.7-.6-.8-.8-1.6-1.5-2.8-.4-1.5-1.8-3.5-2.6-3.2-5-7.7.2.1.1-.2-.7-1.5l-1.6-2.3c-1.6-2.9-.6-1.8-.5-2-.9-1.5-2-3.3-2.5-3.9l-.8-2c.6 1.4-.8-1.2-1.3-1.8l.5.7c-.1-.3-1.1-2-1.7-2.9 0 .3 1 2.1 1.5 3.1-.5-.7-1.2-1.9-1.9-2.9.4.2-1.3-2.5-1.9-3.8-.7-1.4-1.1-1.4-1.3-1.8.1-.1-1.3-2.3-.5-1.3.3.4.5 1.1 1.1 1.9-.4-1-.2-1-1.4-2.8-.9-1.3-.2.6-1.7-2.1.5.6.7.7 1 1.2-.4-.9-.9-1.7-1.4-2.5h-.3c-.2-.4 0-.1-.1-.3-.3-.3-.9-1.2-1.5-2.1-.7-.8-1.3-1.6-1.6-1.8-.4-.6-.9-1.2-1.3-1.8-.5-.6-.9-1.2-1.4-1.7l.2.2c-.5-.7-1.2-1.4-1.8-2.1-.7-.6-1.4-1.2-2-1.6h.1c-.3-.3-.9-.8-1.5-1.3s-1.3-1-1.8-1.3c-1.7-1.5-.1-1.2-2.3-2.5-2-1.3-3.3-1.7-2.6-1-1.7-1.3-3.8-2.3-5.7-3.3-1-.5-2-1-3-1.4-1-.5-1.9-1-2.8-1.4-.6-.2-.3 0-1.5-.4-5.7-2.5-12.5-4.3-17.2-6 1.8.4.2-.2.2-.3-1.5-.2-1.7-.7-2.3-.5.1.2-.1.3 1.6.8-1.8-.4-4.1-1-6.2-1.5-2.1-.5-4-1-5-1.3 1 .3.2.2-.6.1.3-.3-2.4-.9-4.5-1.2l-.3.1-1.3-.5c-.8-.1-1 .2-3-.3-.1-.1-.2-.2-.6-.3-2.2-.3-5.2-.5-7.5-1.1l-1.9-.6c-1-.1-2.7-.3-1 .1-3.9-.9-6.5-1.3-7.7-1.8-6.9-.6-16.9-2.2-24.9-3.8l.3-.1c-2.1-.5-1.2 0-2.6-.4.7 0-1.6-.6.1-.5-3-.7-4-.5-6-.9-.3.1 1.6.2 1.2.4-.4 0-4.2-1-4.7-.8-.7-.3-.1-.4.3-.4l-1.9-.3c-1.1-.4.2-.3 1.5-.1 1.3.1 2.6.2 1.5-.2l-1.7-.3c-1.6-.6 4.6.6.3-.4-1.9-.3-3.6-.2-1.9.3-3.9-.8-2 .3-6.1-.7-.5-.2.3 0 1.2.2.9.2 1.8.4 1.4.2-1.9-.7-4-.8-5.7-1.3 1.9.6.2.5-1.1.2-2.1-.7 1.4.1-1.5-.7-.5 0-3.3-.6-1 .2-1.2.1-3.1-.9-4.8-1.1-.9-.5 3.2.2 0-.8.4.4-4.1-.8-2.5 0-1.3-.5-1.3-.7-.4-.6-1.8-.7-4.6-.9-5-1.6h-.7c-.5-.3-1.3-.6-2.2-1-.8-.3-2.1-.6-3.2-.9-1.1-.3-1.9-.7-1.8-.8-.5-.1-4.1-1.5-2.8-.7 2.2 1 2.6.8 3.8 1.6-1.5-.9-3.2-1.2-4.6-1.5l-.2-.2c-.8-.2-2.5-.9-3.1-1 .6.2.4-.1-.2-.3l-.9-.1c-3.1-1.2-.6-.7-3.6-1.9l2.3.8c-.5-.2-1.4-.8-2.9-1.3-.6-.1-1.8-.3-2.3-.4-1.7-.7-.6-.6-2.4-1.1l2.3.8c.4.1-1.3-1-3.5-2-1.4-.6-3.7-1.5-1.6-.2-1.1-.6-2.6-1.5-1.6-1.2-2.5-1.3.2.4-2-.7-.4-.3-1.3-.8-2.2-1.5-.9-.7-1.9-1.4-2.6-2l2.3 1.1-1.4-.9c2 .9-.8-.8.4-.4-.9-.7-2.1-1.3-3.1-1.8 1.3 1.1.4.8-.7.2-1.1-.6-2.4-1.4-2.1-1-1.9-1.4-2.3-2-2.7-2.6-.4-.6-.9-1.2-2.9-2.6.5.6-1.4-.7.8 1.2-1-1-1.5-1.2-2-1.5-.5-.3-1-.6-2.1-2 1.8 1.7-1.5-2.3 1.1.2-.3 0 1.4 1.5 1.8 1.8-.7-.9.4-.1-1.6-2.2-1.2-1.3-2.9-3-2.8-2.6-.1.2 1.9 2 .9 1.3-1.2-1.3-1.9-2.1-2.4-2.7-.5-.6-.8-1-1.4-1.5 1.4 1.8 1.6 2.3 1.4 2.4-.6-.6-1.2-1.3-1.7-2l.4.3c-1.3-1.7-1.5-1.9-1.8-2.1-.1-.1-.3-.2-.5-.4-.3-.3-.6-.7-1.2-1.6l-.8-1.8c.4.3 1.2 1.6 1.9 2.6.8 1 1.4 1.8 1.4 1.4-1.7-2.1-2.3-2.7-3.6-4.8.3.4.8 1.1 1.1 1.5-.3-.4-.4-.9-.8-1.6-.4-.7-1-1.7-2-3.3-1.1-1.6-.4-.4-.6-.3-2.2-3.6-2.7-4.8-4-7.2.5.4-1.8-4.5-.4-1.8.1.7.9 2.4 1.7 4.1.4.8.8 1.7 1.3 2.4.4.7.8 1.2 1.1 1.5-.2-.8.2 0 .7 1 .5 1 1.2 2.3 1.7 2.5-.5-.7-.7-1.3-.9-1.7-.2-.4-.3-.7-.3-1-.1-.5 0-.6 0-.9-.4-.8-1-1.5-1.3-2-.4-.2.2.8 0 1-1.7-3.4-3.3-6.6-4.3-8.5-.3-1.2 0-.9.6.4-.4-1-.8-2.1-1.3-3.1-.4-1.1-.7-2.2-1.1-3.3-.7-2.2-1.2-4.4-1.7-6.4.2 1.4-.2.2-.5-1-.3-1.3-.6-2.6-.5-1.7.3 2.3.6 4.2.1 3-.3-1.4.2 0 .1-.6-.6-1.7-.2-2.8-.9-4.5.9 4 .6.7 1.1 1.4-.8-2.8.2.1-.3-2.8-.3-1.4-.6-3-.9-4.7-.3-1.6-.5-3.3-.7-5-.1-4.1-.6-10.3-.5-14 .2-1.9.5-.6.6-2.7.1-2.4-.5 1.8-.1-1.8l.1.3c-.1-1.1.7-6.5.3-7.6.1.4.2.8.3 1.1.1-.7.1-1.3.1-1.8.1 0 .3-.8.3.3.3-1.1.4-2.2.4-3.4l.3-3.6-.4 1.5c.4-4.1 1.1-6.8 1.8-10.7l.2.2.3-2.3c.1.6.7-1.5.8-2.7-.3 2-.5 4.1-.8 6.1-.5 1.6.1-1.9-.3-.9-.4.8-1 4.5-.9 5.1.3-1.4.2-1.5.3-2.5.4-.4 0 1.7 0 2.8.1-.7.4-1.7.3-1.9-.1 1.4-.3 2.9-.7 5.3.1-1.6-.3.8-.3.2.3.2 0 2.5-.4 5.4-.6 2.1-.4 5.6-.6 9-.2-1.4-.3-3.2-.3-5.3-.3 2.1-.2 2.4-.5 4.6.2 1.1.4 1.8.5 4.6l-.2.1c.1 2.6.3 2.6.3 5.8 0 2.8.2 5.6.3 8.2.3 2.6.5 5.1.8 7.2l-.2.2c.2.6.4 1.3.5 2.2.2.9.4 1.9.6 2.9.2 1 .4 2.1.6 3 .3 1 .5 1.9.8 2.6.2.7.3 1.3.5 2s.4 1.3.6 2c.4 1.3.8 2.6 1.3 3.8 1 2.4 1.8 4.5 2.3 5.8.5 1.1 1 2.1 1.6 3.2.5 1 1.1 2 1.7 3l.9 1.5c.3.5.6 1 .9 1.4l1.9 2.8c.3.5.6.9 1 1.4l1.1 1.3 2.1 2.7c.7.9 1.6 1.7 2.4 2.6.4.4.8.9 1.2 1.3.4.4.8.9 1.3 1.3-.5-.3-.9-.6-1.4-1 .7.6.9.8 1 1 .2.2.3.5 1 1.1-1.3-1.5 2 1.4 3 2.1.8.8 1.7 1.5 2.7 2.2 1 .7 1.9 1.5 2.9 2.2 2.1 1.3 4.1 2.5 5.8 3.4v.2c1.8.8 3.7 1.8 5.7 2.9 2.1 1 4.2 2.1 6.4 3.1.5.3 1.2.8 2.6 1.3 1.3.4 2.3.7 3.4 1.1 1.1.4 2.4.8 4.2 1.4 2.7 1 7 2.5 9.7 3.6 10.4 2.8 21 5.7 32 7.6l.7.4c10.7 1.6 23.8 4.3 33 5.6l-1 .3c2.8.6 6.6 1 5.9.6 2.9.6 7.2 1.1 9 1.7 2.9.6 3.6.5 6.1.9 2.9.7 4.9 1.1 6.9 1.6 2 .4 3.9.8 6.7 1.5l-1.4-.4c-.6-.1-.7.1.6.5 1 .2 2.9.7 4.3 1 1.4.4 2.2.5 1.3 0 2.9.9 6.3 2 9.6 3 1.7.6 3.3 1.1 4.9 1.8 1.6.7 3 1.3 4.4 2-.4-.3 1 .3 1.6.5 4.9 2.2 9.6 5.4 13.2 7.8.6.6-1.2-.6.5.7 1.1.8.1-.1 1.4.8.4.3.9.6 1.3 1l1.2 1.1c.8.7 1.6 1.5 2.5 2.2.7.8 1.5 1.6 2.2 2.4l1.1 1.2c.3.4.7.9 1 1.3.6.9 1.3 1.7 1.9 2.6.6.9 1.1 1.8 1.7 2.7 1.1 1.8 2.1 3.5 3.1 5.2 7.1 11.8 14.2 24.4 20.9 35.8l-.2-.1c.5.7 1 1.5 1.4 2.2.1.2.2.3.3.6.2.4.5 1.1.7 1.5 0-.4-.1-.9-.2-1.4.1 0 0-.7.2-.4 0-.2-.1-.3-.1-.4v-.1-.4-.9-3.8c0-2.7.1-5.5-.1-8.1 0 .5 0 .7.1 1.3.2-5.2-.2-9.7 0-15.1 0 .6.1 1.6.2 1.7.2-2.1-.5-5 0-6.1 0-1.2-.2-.9-.2-.1.1-11.9-.3-24.6-.5-37 .2-8.9.8-.5.4-7.5.1-.6-.2-.4-.1-.5-.2-2.7.5-4.2.2-6.1-.3.8-.2-1.2-.3-1.3.1-5.4.4-6.5.1-10.8l.2.3c-.5-5-.3-10.8-.8-15.1-.4-27.7-.7-54.2-1-81.2-.1-13.3-.2-26.5-.3-39.8-5.6.1-11.1.2-16.7.2-6.3.1-12.7.1-19.1.2-6.4-.3-6.8-.3-13.8 0 .3-.1.7-.1.3-.1-.3.3-4.9.1-5.6.4-10 .1-19.2.3-29.5.5 1.6-.1 2.4-.3.5-.3l-2 .2-.3-.1c-1.3.1-2.8.3-1.4.3-25.9.7-51.4.4-76.7.9-6 0-14.6.2-21.1.4-19.4-.1-36.9-.2-56.6.4.1-.2 2.6-1 10.8-1.4z"/><path class="st1" d="M93.5 49.2c-.3.6-.9 2.8-.7 1 .2-.2.6-1.2.7-1zM88.8 109c.1.1.1.9.1 1.1-.2-.7-.5-1.4-.4-2 .1.7.1.6.3.9zM92.6 124.1c-.2-.2-1.4-3.3-2-5.2.7 1.7 1.4 3.4 2 5.2zM98.1 137.6c.5 1.2.3.9-.6-.6.1-.2.4.3.6.6zM98.9 138.3c.6 1.1.8 1.6 1.1 2.2.1-.1-.4-.6-.7-1.2-.3-.6-.6-1.1-.4-1zM120 161.9c.6.5 2.1 1.2 2.6 1.8-.6-.6-3.2-1.9-2.6-1.8zM132.9 169.2c.4.2.6.3 1.1.5.8.4-.1.1-.8-.2l-.3-.3zM341.7 267.6l.1 1.6-.2-.3zM340.8 152.2c-.1-1.6.1-1.1.1-1.3.1 1.3-.1-.6-.1 1.3zM339.6 89.9v.5l-.3-.2z"/></g><g><path class="st2" d="M156.3 42.4s-22.4 68 28.9 93S299 147.9 319.9 184l20.8 36.1-1.4-180.5-183 2.8z"/><path class="st1" d="M156.3 44.1c.6-2.3-.6 1.2.3-1.5.1.3 0 .7-.3 1.5zM164.3 42.6c7.8-.9 18-.3 26.5-.9 1 0-.3.4 2 .3 8.2-.7 21.3-.6 31.3-.3l-.6.1c1.9.1 4.3-.4 6.3-.3 0 .1-.6.1-.2.2.5-.2 3.7-.2 4.5-.4.8.1.7.3 1.8.4l1.2-.3c3.2-.7 7.8-.1 12.2-.5-.2.1-.6.1-.3.2 7.1-.5 15.9-.6 23.8-.8-.3.1-.6.3-.1.4.4-.3 2.8-.4 4.9-.5 1 .3 3.6-.3 6.1-.2l-.2.1c1.8-.3 2.7.1 4.2-.3l1.2.2c.8-.4 2.7.2 4.2-.1l-.1-.1c1.4-.1 2.2.1 3.5 0h.1c3.1-.2 4.9 0 4.8-.3 1.1.2-3 .2-1.3.5 10.2-.5 20.8-.6 31.1-.7 1.2.1 1.9.1 2.2.3.5 0 1.5-.1 2.4-.1.9 0 1.9-.1 2.5-.2-.3 0 .4.1.9.2v.3c-.1 1.9.4 2 .2 4.1-.1-.8-.2-1.1-.3-.8.3 1.8.2 4.1.3 6.2-.1-.3-.1-.8-.2-.7.3 2.3 0 4.1.2 6.1l-.2-.7c-.2 3.2.4.9.3 3.7-.1-.7-.1-.4-.2-.5.4 2.6.3 6.8.4 9.3 0-.2-.1-.1-.1-.1.1 2.8 0 5.7.2 8.8-.1 1.1-.5-.4-.4 2.6.4-.1.2 5 .6 3.3 0 2.5-.1 6.6 0 8.2-.2-1.1-.4 1.2-.5-.9l-.2 1.6c-.2-.2 0-1.6-.1-1.1 0 1.1.2 4.1.1 5.1.2 2 .7 3.8.8 6.9-.2-1.5-.4.9-.5-.2l.7 4.4c0 1.1-.3.2-.2 1.8.1-.1.2.6.2 1s.1 4.4-.2 4.8c-.1.5-.1-1.7-.2-.5 0 1.9.1 2 .2 4 0 1.3.2 3.8.4 2.4 0-.9-.2.3-.1-1 .2.9.3 3.2.3 5.1-.1-.7-.2-.6-.3-.9.3 2.6.4 5.4.6 8.3.2 0-.3-1.1-.2-1.5-.2 3.8.4 7.7.1 10.9 0-.5.2-.3.2-.2 0 1.8-.3 1.7-.2 2.9-.1.1.1 1.5.1 2.7.1.6-.1.3-.1-.7.1 1.7.4 8.4.2 12.3.1-.1.4 2.4.4 3.3l-.2-.3c-.1.8 0 3-.2 3.2.3 1.9-.3-7.4-.1-4.8-.2.7.4 3.6.1 3 0 1.8.3 3.5.1 5.3 0-.5-.3-1.5-.3 0 .1 2.6.1.7.2 2.8l.1 1.3c.2.1 0 2.3.2 1.3-.2.3.1 3.7-.2 3.5l-.3-.4c0 1.1.3 1.8.5 2.7 0 .1-.1.4-.1.4.4.2 0 2.6.3 4-.1 2.3 0 5.9-.2 7 .1 1.8.3 3.4.2 5.4 0-.4-.1-1-.2-1.1-.1 1.3 0 1.6.1 2.8-.1-.3-.2 2.6-.4 4 .1 1.8.4 1.2.5 1.3-.4 1.6.3 5-.1 7-.1-.6-.2-2.6-.3-1.1-.2.8-.1 1.6 0 2.6.1.5.1 1 .2 1.5v2.2c.1-.2.2-.5.4-.8-.1.9 0 2.3 0 3.6 0 1.3.1 2.2-.1 1.7.1.8.1 1.9.1 2.8 0 .9 0 1.7.2 2.1 0 .6 0 1.2-.1 1.9-1.7-3-3.4-6-5.1-8.8l-1.2-2.1c-.1-.2-.3-.5-.4-.7l-.3-.6c-.4-.8-.7-1.5-.9-2.1-.4-.5-1.1-1.9-1.1-1.5.3 1 .8 1.2.9 1.6-.3-.5-.4-.5-.5-.6-.6-1.2-1.1-2.1-.2-1.2-1.3-2.7-2.1-2.4-3.8-5.7.2.1.1-.2-.5-1.1l-1.3-1.7c-1.2-2.1-.4-1.4-.2-1.5-.7-1.1-1.5-2.5-1.9-2.9l-.5-1.5c.4 1.1-.7-.9-1-1.4l.4.5c0-.3-.8-1.5-1.2-2.2 0 .2.7 1.6 1.1 2.3-.4-.5-.9-1.4-1.5-2.1.4.1-.9-1.9-1.4-2.8-.5-1.1-.9-1.1-1-1.4.1-.1-1-1.7-.3-1 .2.3.4.9.8 1.4-.3-.7-.1-.8-1-2.1-.7-1-.2.5-1.3-1.5.4.5.5.5.8.9-.3-.7-.7-1.2-1-1.9h-.2c-.1-.3 0-.1 0-.2-.3-.2-.7-.9-1.2-1.5s-1-1.2-1.2-1.3c-.3-.4-.6-.9-1-1.3-.3-.4-.7-.9-1-1.3l.1.1c-.4-.5-.9-1-1.4-1.5-.5-.5-1.1-.9-1.5-1.2h.1c-.2-.2-.7-.6-1.1-1-.4-.4-1-.7-1.4-.9-1.3-1.2.1-1-1.7-2-1.5-1-2.5-1.2-2-.7-1.2-1-2.8-1.7-4.2-2.5-1.5-.7-3-1.4-4.2-2.2-.5-.1-.2.1-1.1-.2-4.3-1.9-9.3-3.1-12.8-4.5 1.3.3.1-.2.2-.3-1.1-.1-1.3-.6-1.7-.3.1.2-.1.3 1.2.7-1.4-.3-3.1-.7-4.6-1.1-1.6-.4-3-.7-3.7-1 .7.3.1.2-.5.1.3-.3-1.8-.7-3.3-.9l-.3.1-1-.4c-.6-.1-.7.3-2.2-.2-.1-.1-.1-.2-.4-.3-1.6-.2-3.9-.3-5.6-.8l-1.4-.5c-.7-.1-2-.1-.7.2-2.9-.7-4.9-1-5.8-1.4-5.2-.3-12.7-1.5-18.7-2.7l.2-.1c-1.6-.4-.9.1-2-.2.5 0-1.2-.5.1-.5-2.3-.6-3-.3-4.5-.6-.3.1 1.2.1.9.3-.3 0-3.1-.8-3.6-.6-.5-.2-.1-.3.3-.4l-1.4-.2c-.8-.4.2-.3 1.2-.2 1 0 2 .1 1.1-.3l-1.3-.2c-1.2-.6 3.5.4.3-.4-1.4-.2-2.7 0-1.5.4-2.9-.6-1.5.4-4.6-.4-.8-.4 2.5.6 2 .2-1.4-.5-3-.6-4.3-1 1.4.5.1.4-.8.3-1.6-.5 1.1 0-1.1-.6-.4.1-2.5-.4-.8.2-.9.1-2.3-.7-3.6-.8-.7-.5 2.5 0 .1-.8.3.4-3.1-.5-1.9.2-.9-.4-1-.6-.2-.5-1.3-.6-3.5-.6-3.7-1.2l-.5.1c-.4-.2-1-.5-1.6-.9-1.2-.4-4-1-3.7-1.3-.4-.1-3.1-1.1-2.1-.5 1.6.8 2 .5 2.8 1.2-1.1-.7-2.4-.9-3.4-1.1l-.1-.2c-.6-.1-1.9-.7-2.3-.7.5.1.3-.1-.2-.3h-.7c-2.4-.9-.4-.6-2.7-1.5l1.8.5c-.4-.1-1.1-.6-2.2-1-.5 0-1.4-.1-1.8-.1-1.3-.5-.5-.5-1.8-.8l1.7.5c.3 0-.9-.8-2.6-1.6-1.1-.4-2.8-1.1-1.2-.1-.8-.4-1.9-1.2-1.2-1-1.9-.9.1.3-1.5-.4-.3-.3-.9-.6-1.6-1.2-.7-.5-1.4-1.1-1.9-1.6l1.8.7-1.1-.7c1.5.6-.6-.6.4-.4-.7-.5-1.6-1-2.3-1.4.9.9.2.7-.6.2-.8-.4-1.8-1-1.7-.6-2.8-2-1.1-2.1-4.2-4 .4.5-1.1-.4.6 1-.8-.7-1.1-.9-1.5-1.1-.4-.2-.8-.4-1.6-1.5 1.4 1.3-1.1-1.8 1 0-.3 0 1 1.1 1.4 1.4-.5-.7.4-.2-1.2-1.7-.9-.9-2.2-2.3-2.2-1.9-.1.2 1.4 1.5.6 1-1.9-1.9-1.9-2.5-2.9-3.1 1.1 1.3 1.2 1.8 1 1.9-.5-.5-.9-1-1.3-1.5l.4.2c-.9-1.3-1.1-1.4-1.4-1.5-.1-.1-.2-.1-.4-.3-.2-.2-.5-.5-.9-1.2l-.5-1.4c.3.2.9 1.2 1.5 2s1.1 1.4 1.1 1c-1.2-1.5-1.7-2-2.7-3.6.3.3.6.8.9 1.1-.2-.3-.3-.7-.5-1.3-.2-.6-.7-1.3-1.5-2.5s-.3-.3-.5-.2c-1.7-2.7-2.1-3.6-3.1-5.4.4.3-1.3-3.4-.2-1.4.1.5.6 1.8 1.3 3.1.6 1.3 1.4 2.5 1.8 2.9-.2-1.2 1.1 2.2 1.9 2.6-1.3-2.2-.9-2.3-.9-2.8-.3-.6-.8-1.2-1-1.5-.4-.1.1.7-.1.8-1.3-2.5-2.5-4.9-3.3-6.3-.2-.9.1-.7.5.3-.3-.8-.6-1.6-1-2.4-.3-.8-.5-1.6-.8-2.5-.6-1.6-.9-3.3-1.3-4.8.1 1-.2.2-.4-.8-.2-.9-.4-2-.4-1.3.2 1.7.4 3.2-.1 2.3-.2-1.1.2 0 .1-.5-.5-1.3-.1-2.2-.7-3.4.7 3 .6.5 1 1-.6-2.1.2 0-.2-2.1-.3-1.1-.5-2.3-.8-3.5-.2-1.2-.4-2.5-.6-3.7 0-3.1-.5-7.7-.3-10.5.2-1.4.5-.5.6-2 .1-1.8-.4 1.3-.2-1.3l.1.3c-.1-.8.5-4.9.1-5.7l.3.9c.1-.5 0-1 0-1.4.1 0 .3-.6.3.2.2-.8.3-1.7.4-2.6.1-.9.1-1.8.2-2.7l-.4 1.1c.2-3.1.8-5.1 1.3-8l.2.1.2-1.8c.1.5.6-1.1.6-2-.2 1.5-.3 3.1-.4 4.6-.4 1.2 0-1.4-.4-.7-.3.6-.8 3.4-.6 3.8.2-1 .2-1.1.2-1.9.4-.3.1 1.3.1 2.1.1-.5.3-1.3.2-1.4-.1 1.1-.2 2.2-.5 3.9.1-1.2-.3.6-.3.2.3.2.1 1.9-.2 4.1-.5 1.5-.2 4.2-.4 6.7-.2-1.1-.4-2.4-.3-4-.3 1.6-.2 1.8-.4 3.4.2.8.4 1.4.5 3.5l-.2.1c.1 1.9.3 1.9.3 4.3 0 4.2.3 8.4.8 11.6l-.2.1c.2.4.3 1 .5 1.6.2.7.3 1.4.5 2.1.2.8.3 1.5.5 2.3.2.7.4 1.4.6 2l.3 1.5c.2.5.3 1 .5 1.5.3 1 .6 2 1 2.9.7 1.8 1.3 3.4 1.7 4.4.4.8.8 1.6 1.2 2.3.4.8.9 1.5 1.3 2.2.8 1.5 1.8 2.8 2.8 4.2.2.3.5.7.7 1l.8 1c.5.7 1.1 1.3 1.6 2s1.2 1.3 1.8 1.9c.6.6 1.2 1.3 1.9 2-.4-.2-.7-.4-1.1-.7 1.1.8.5.7 1.5 1.6-.9-1.2 1.5 1 2.3 1.5 1.2 1.1 2.7 2.2 4.2 3.3 1.6.9 3.1 1.8 4.4 2.5v.2c1.4.5 2.8 1.3 4.3 2.1s3.1 1.6 4.8 2.4c.4.2.9.7 1.9 1.1 2 .5 2.9.9 5.7 1.7 2 .8 5.3 1.9 7.3 2.7 7.8 2 15.7 4.2 24 5.6l.5.4c8.1 1.1 17.8 3.2 24.7 4.1l-.7.3c2.1.5 4.9.7 4.4.4 2.1.5 5.4.8 6.7 1.3 2.2.5 2.7.3 4.6.6 2.2.5 3.7.9 5.2 1.2 1.5.3 2.9.6 5 1.1l-1-.3c-.5 0-.6.1.5.4 1.6.2 5.6 1.6 4.2.7 4.3 1.4 10.3 2.9 14.2 5.1-.3-.3.7.2 1.2.3 3.7 1.6 7.2 4.2 10 5.9.5.4-1-.4.4.6.8.6.1-.1 1.1.6.3.2.7.5 1 .7l.9.8c.6.6 1.2 1.1 1.9 1.7l1.7 1.9.8.9c.3.3.5.7.7 1 .5.7 1 1.3 1.4 2 .5.7.8 1.4 1.3 2 .9 1.4 1.6 2.7 2.3 3.9 2.7 4.4 5.4 9 8 13.5 2.6 4.5 5.1 8.9 7.6 13.1h-.1c.3.2.4.4.5.8.2.4.4 1 .6 1.2 0-.3-.1-.7-.2-1.2.1.1 0-.5.2-.1-.1-.3-.1-.5-.1-.7v-.2-.4-1.5c0-2 .1-4.1-.1-6.1 0 .4 0 .6.1 1 .2-3.9-.1-7.3 0-11.3 0 .4.1 1.2.2 1.3.2-1.6-.4-3.7 0-4.6 0-.9-.2-.6-.2-.1.1-8.9-.3-18.4-.4-27.7.2-6.7.8-.4.4-5.7.1-.4-.2-.3-.1-.4-.1-2 .5-3.2.2-4.6-.3.6-.2-.9-.3-1 .2-4.1.4-4.9.2-8.1l.2.2c-.5-3.8-.3-8.1-.8-11.3-.3-20.7-.6-40.6-.9-60.8-.1-9.8-.1-19.5-.2-29.3-4 .1-8 .1-12 .2-4.7 0-9.5.1-14.3.1-4.8-.3-5.1-.3-10.3-.1.2-.1.5-.1.2-.1-.3.3-3.7.1-4.2.4-7.5.1-14.4.2-22.1.4 1.2-.1 1.8-.3.4-.3l-1.5.2-.2-.1c-1 .1-2.1.2-1 .3-19.4.6-38.5.2-57.5.6-4.5-.1-10.9.2-15.8.3-14.5-.2-27.6-.4-42.4.2-.9.4 1-.5 7.1-.8z"/><path class="st1" d="M155.6 46.8c-.3.5-.8 2.1-.7.7.2-.1.6-.9.7-.7zM151.7 91.6c.1 0 .1.7.1.8-.1-.6-.4-1-.3-1.5 0 .6 0 .5.2.7zM154.5 103c-.2-.1-1.1-2.5-1.5-3.9l1.5 3.9zM158.6 113.2c.4.9.2.7-.5-.4 0-.1.3.3.5.4zM159.2 113.8l.8 1.6c.1-.1-1.1-1.8-.8-1.6zM175.1 131.6c.5.3 1.6.9 2 1.3-.5-.4-2.5-1.3-2-1.3zM184.8 137.1c.3.2.4.2.8.4.6.3-.1.1-.6-.1l-.2-.3zM341.7 210.4l.1 1.2-.2-.2zM341 123.9c-.1-1.2.1-.8.2-1 0 1.1-.2-.4-.2 1zM340 77.3v.3l-.3-.1z"/></g><g><path class="st5" d="M224.2 92.4c-11.2 2.7-30.5 6.4-39.3 3.1-12.9-4.8-17.8.7-17.8.7s-8.4-8-12.9-4.8c-3.8 2.6-33.3 27.6-43.2 36-4.2 3.6-4.7 9.9-1 14l.2.2s-9.1 13.8-4.7 20.4c3.4 5.1-9.1 26.2-10.2 35.5l-7.1 8.5c-25.5 17.2-20.6 56.1 9.6 76.6l.3.2c22.1 15 50 14.3 65.3-1.7l4.8-4.8c10-3.1 26.5-7.4 35.1-4 12.9 5 17.8-.4 17.8-.4s8.3 8.1 12.9 5c3.8-2.6 33.7-27.1 43.7-35.4 4.3-3.5 4.9-9.8 1.2-14l-.2-.2s9.3-13.7 5-20.3c-3.4-5.3 13.8-31.1 14.2-38.5l.5-.4c25.7-17.1 20.9-56.2-9.4-76.8-21.9-14.7-49.3-14.2-64.8 1.1z"/><path class="st1" d="M222.6 93.3c2.7-.7-1.5.1 1.7-.5-.3.2-.8.4-1.7.5z"/><path class="st1" d="M231.7 87.2c.9-.6 1.8-1.3 2.9-1.9 1.1-.5 2.2-1.1 3.3-1.6l3.6-1.2c1.2-.3 2.5-.6 3.8-.9 5.2-1 10.5-1 15.4-.8 1.1.1-.3.4 2.2.5 4.7.4 10.7 1.9 16.4 4.6 2.9 1.3 5.7 2.9 8.3 4.7 2.6 1.7 5 3.7 7.1 5.6l-.6-.4c.8.8 1.8 1.5 2.7 2.3.9.8 1.9 1.6 2.7 2.5 0 .1-.6-.5-.3 0 .3.1 1 .9 1.8 1.7.7.8 1.5 1.7 1.8 2 .5.8.3.8.9 1.8l1 .9c.7.7 1.3 1.5 1.9 2.4.6.9 1.2 1.9 1.8 3 1.1 2.1 2.2 4.5 3.2 6.8-.1-.2-.4-.6-.3-.3 1.7 3.7 3 8.1 3.5 12.7s.4 9.5-.6 13.9c0-.4-.1-.7-.3-.2.2.5-.4 3.3-1.2 5.5-.6.9-1.4 4-3.1 6.3l.1-.2c-.5 1-.9 1.6-1.4 2.2-.5.6-.9 1.1-1.3 1.9l-1.1.9c-.3 1-2.2 2.1-3.4 3.4h.1c-.6.6-1.1.9-1.6 1.3s-1 .7-1.6 1.1h-.1c-.2.1-.4.3-.5.4-.1.1-.3.2-.4.3l-.2.1c-.1.1 0 .2-.1.2 0 .2 0 .3-.1.5-.1.7-.3 1.3-.4 1.7-.3.9-.4 1.4-.3 1.4-.3.5-.1-.3.1-1 .2-.8.3-1.4-.1-.5-.8 2.8-2 5.5-3.2 8.2-1.2 2.7-2.6 5.4-3.9 8-1.3 2.7-2.6 5.3-3.8 8.1-1.2 2.7-2.3 5.5-2.9 8.3-.4 1.3-.3 2.1-.4 2.4 0 .1.1.3.1.5l.3.6c.3.4.5.9.7 1.4.4 1 .5 2.1.6 2.7 0-.4-.1.8-.2 1.4-.2 1.1-.2 1.6-.3 2.3-.1.6-.1 1.3-.6 2.4.2-.9.2-1.3 0-1-.3 2-1.4 4.5-2.4 6.6.1-.4.3-.9.2-.8-.8 2.1-2 3.8-2.9 5.4.2.2.4.4.5.6-.2-.2-.4-.4-.7-.6.5.7.9 1.2 1 1.4.2.3.3.3.4.4.1.1.2.1.3.3.1.1.2.3.3.5.1.2.2.5.3.9-.3-.7-.3-.4-.4-.5.4.6.6 1.5.8 2.4.1.9.1 1.9 0 2.9-.3 2-1.3 3.8-2.3 4.9.1-.2 0-.1 0-.1-1.1 1.3-2.4 2.2-3.7 3.3l-3.9 3.3c-1 .7 0-.6-2.5 1.6.3.2-4.4 3.8-2.5 2.8-2.3 1.8-5.9 4.6-7.3 5.9.9-.9-1.4.5.5-1l-1.6 1c.1-.3 1.5-1.1.9-.9-.9.8-3.6 3.1-4.4 3.7-1.6 1.6-2.9 3.2-5.7 5.5 1.2-1.2-1 .3-.2-.5l-3.5 3.7c-.9.8-.4-.1-1.7 1.1.1 0-.4.5-.8.9-.4.3-3.9 3.2-4.5 3.2-.5.2 1.5-1.3.4-.6-1.8 1.4-1.7 1.5-3.5 2.9h-.1c-.3.2-.6.5-1.1.7-.4.3-.9.4-1.2.6-.4.1-.6.2-.7.2-.1 0 .1.1.5.1.6-.1.4-.2.4-.2-.1-.1 0 0 .8-.3-.5.4-1.5.7-2.7.6-1.2-.1-2.4-.5-3.5-1 .8.3.7.1 1 .2-1.3-.4-2.6-1-3.8-1.7l-1.8-1.2c-.3-.2-.6-.4-.9-.7l-.6-.4-.2-.2-.1-.1s-.1-.1-.1 0l-.1.1c0 .1 0 0 .1-.1v-.1h.1c.1 0 .2.1.3.1.1 0 .2.1.2.2l-.2-.2-.1.1-.1-.1s-.1-.1-.1 0c-.2.1-.3.3-.5.4-.2.1-.7.4-1.1.6-.4.2-.9.4-1.3.6-.9.3-1.8.6-2.6.7-1.8.3-3.5.2-4.9-.1.6 0 .3.3.3.2-1.1-.1-1.6-.3-2-.4-.4-.1-.7-.2-1.4-.3 0-.1-.5-.2-1-.3-.6-.1-1.3-.3-2-.5-.7-.1-.3-.2.8.2-.5-.1-1.3-.4-2.3-.7-.5-.1-1-.3-1.6-.4l-1.8-.3c-2.6-.4-5.6-.3-7.7-.2.1.1-2.6.6-3.6.7l.4-.3c-.5 0-1.3.1-2 .2s-1.4.2-1.5.1c-1 .3 1-.1 3-.5 2-.3 3.8-.6 2.4-.3-.8-.1-4 .9-3.4.5-2 .3-3.9.9-5.8 1.1.6-.1 1.6-.7-.1-.3-2.8.7-.8.3-3.1.9l-1.4.4c0 .2-2.5.6-1.4.6-.4-.1-4 1.2-3.8.8l.3-.4c-.6.2-1.1.4-1.5.6l-1.2.6h-.3v.2c0 .1 0 .1-.1.2-.2.2-.5.5-.8.9-.7.6-1.4 1.4-1.8 2-.5.4-1 1-1.6 1.5-.6.5-1.2 1.1-1.8 1.6-.6.5-1.1 1-1.6 1.4-.5.3-.9.6-1.2.8-.4.3-.8.7-1.2 1-.4.3-.8.7-1.2.9-.9.6-1.8 1.1-2.8 1.7.4-.3.9-.6 1-.8-.7.3-1.1.6-1.5.8-.4.2-.8.4-1.4.8.2-.2-2.8 1.1-4.4 1.4-1.9.8-1.2.8-1.3 1-1 .1-2.4.5-3.8.9-.7.2-1.5.4-2.2.5-.7.1-1.4.2-2 .2.7-.2 2.9-.7 1.2-.5-1-.1-1.9.2-3 .4s-2.3.4-3.8.4c.3.1.5.2.8.3-1.4-.1-4.5.2-4.2-.2h-1c-.4 0-.8-.1-1.1-.1-.7-.1-1.3-.1-1.1.1-.6-.1-1.3-.2-1.9-.3-.7-.1-1.4-.3-2.1-.4-1.4-.3-2.8-.5-4.2-.9-1.3-.4-2.7-.6-3.8-1.1-1.1-.4-2-.8-2.7-1.2-.7-.1-2.3-.9-2.1-.6 1 .7 1.6.5 2 .7-.6-.2-.8-.2-.9-.1-1.4-.6-2.5-1.2-1.1-.9-1.5-.8-2.4-1-3.4-1.2-1-.3-2-.7-4-1.8.3-.1 0-.2-1.1-.8L99 285c-2.4-1.6-1.2-1.1-1.1-1.4-1.3-.8-2.8-1.9-3.4-2.1l-1.2-1.4c.9 1-1.1-.6-1.7-1.1.2.1.4.3.6.4-.2-.2-1.5-1.4-2.2-1.9.1.2 1.3 1.5 2.1 2.1-.7-.4-1.5-1.2-2.4-1.8.2 0-.2-.4-.8-1l-1.7-1.7c-.9-1-1.2-1-1.5-1.3.1-.1-1.5-1.7-.7-1 .3.3.6.9 1.3 1.4-.5-.7-.3-.8-1.7-2.1-1-1-.1.6-1.7-1.6.5.5.7.5 1.1.9-.5-.7-1-1.3-1.5-2l-.2.1c-.2-.3 0-.1-.1-.3-.3-.2-.9-1-1.5-1.7-.5-.8-1.1-1.5-1.4-1.7-.7-1-1.3-2.4-1.9-3.4l.1.2c-.6-1.4-1.6-3.1-2.2-4.2h.1l-.8-1.6c-.3-.7-.6-1.3-.8-1.8-.6-2 .6-.9-.5-3-.6-2-1.3-3-1.2-2.2-.8-3.7-1.8-7.9-1.5-11.5-.1-.5-.2-.2-.2-1.3.1-5.6 1.2-11.9 3.5-15.8-.6 1.5.2.2.3.2.4-1.3.8-1.4.7-1.9-.2 0-.3-.1-1 1.3.3-.8.7-1.6 1.2-2.5.2-.4.5-.9.7-1.3.3-.4.5-.8.8-1.2.3-.4.5-.8.8-1.2.3-.4.5-.7.8-1 .5-.6.9-1.1 1.3-1.4-.7.6-.3.1.2-.5 0 .2.5-.2 1-.7.6-.6 1.4-1.3 2-2l.1-.3c.3-.2.7-.4 1.1-.6.5-.5.3-.9 1.9-1.8.1 0 .3 0 .6-.2.2-.2.4-.3.6-.5l.3-.3c.1 0 .1-.1.1-.1v-.1l.4-.6c.2-.2.3-.5.5-.7.7-.9 1.4-1.8 2.1-2.6l1.3-1.1c.5-.7 1.3-1.9.3-.8.6-.6 1.1-1.2 1.6-1.7.6-.7.6-.5.7-.9.3-1.2.5-2 .8-2.5 1-6.1 4.7-14 7.1-20.4l.1.2c.8-1.7.1-1 .6-2.1-.1.6.7-1.2.4.2 1-2.4.8-3.3 1.1-4.9-.1-.3-.2 1.3-.3.9 0-.1.3-1 .4-1.8.2-.8.2-1.7 0-1.8.1-.5.3-.1.4.2 0-.5-.1-.9-.2-1.3 0-.6.4-.1.6.9.2 1 .1 2.1.5 1.1V164c.1-.7.3.2.3.9v.6s.1-.4.1-1.3c0-.4-.2-.8-.3-1.1-.2-.3-.3-.5-.4-.6-.3-.2-.3-.1-.2.4-.2-.5-.7-1.1-.9-1.4-.2-.3-.4-.5-.5-.7-.1-.2-.3-.4-.5-.9-.2-.4-.3-1.1-.3-2.1.1-.6.1.3.2 1.1.1.9.4 1.8.4 1.3-.2-1.9-.5-3.8-.1-5.4-.4 1.8-.5.2-.3-1 .6-1.9 0 1.3.7-1.4-.1-.5.6-2.9-.2-.9-.1-1.1 1-2.7 1.4-4.2.6-.7-.5 2.8.8.1-.5.3 1.3-3.5.2-2.2.6-1 .8-1 .6-.2.4-.7.8-1.6 1.2-2.4l.3-.6c.1-.1.1-.1.1-.2.1-.1.1-.1.3-.1-.1 0-.1-.1-.2-.1h-.1v-.2c0-.1-.1-.2-.1-.3l-.3-.6c-.4-.7-1-1.9-1.3-3-.3-1.1-.3-2-.1-1.9 0-.3-.1-1.3 0-2.1 0-.8.2-1.4-.1-.7-.3 1.2-.2 1.8-.2 2.4.1.5.1 1 0 1.6 0-1.7-.2-3.4.1-4.8l.2-.2c.1-.4.3-1.1.5-1.6.2-.6.5-1.1.6-1.4-.2.6 0 .4.4-.2l.3-.8c1-1.4 1.3-1.4 1.5-1.4.1 0 .2 0 .4-.2.2-.1.5-.4 1-.8l-.7.7c-.2.2-.5.6-.8.9.2-.2.5-.5.9-.7.4-.3.8-.6 1.3-1.1.3-.5.8-1.3 1-1.7 1.1-1.1.7-.3 1.7-1.4l-1.4 1.5c-.2.2 1.3-.6 2.8-1.9 1-.9 2.3-2.5.7-1.2.8-.7 2-1.5 1.5-.9 1.8-1.6-.4 0 1.1-1.4.7-.4 2.8-1.9 4.2-2.8l-1.4 1.6 1.1-.9c-1.2 1.4.8-.4.3.5.8-.6 1.6-1.4 2.3-2.1-2.5 1.4 2-2.5 1.1-2.4 2.9-2.6 2.5-.7 5.2-3.8-.6.3.7-1.1-1.1.5 1.9-1.5 1-1.4 3.3-3.1-1.5 1.5 2-1.1-.1 1 .1-.2-1.4 1-1.7 1.3.9-.5.1.5 2-1.1 1.1-1 2.7-2.3 2.3-2.3-.2-.2-1.7 1.5-1.2.7 2.2-2 2.9-2 3.5-3.1-1.4 1.2-2 1.3-2 1.2l1.6-1.5-.2.4c2.8-2.2.6-.9 3.3-3l1.4-.8c-.4.7-3.9 3.1-3.1 3 1.7-1.4 2.1-2.1 3.8-3.3l-1.1 1.1c.6-.5 1.6-.5 3.8-2.8 1.2-1.1.2-.4.1-.6 2.7-2.3 3.4-3.1 5.2-4.6-.1.3.7-.3 1.4-.8.3-.2.6-.4.7-.5l-.1.1c-.1.1-.2.3-.5.5-1.1.6-5.1 3.8-5.9 4.9 1.3-.5-2.2 1.7-2.5 2.5 2.2-1.8 2.4-1.4 2.9-1.5.6-.5 1.1-1.1 1.5-1.4.1-.4-.7.3-.9.1 1.3-1 2.5-2 3.5-2.9.5-.5 1-.9 1.5-1.3l.6-.6c.2-.2.5-.4.7-.5.7-.2.9-.2.8-.1-.1.1-.6.3-1.2.7.9-.7 2.1-.9 3.2-.8 1.1.1 2.1.4 3.1.7 1.9.8 3.5 1.9 5 3-.6-.6-.3-.5.2-.1.3.2.6.4.9.7.2.2.4.3.6.4.2.1.3.2.1-.1l-.1-.1c-.1-.1-.1-.2-.2-.2l-.2-.2-.2-.2-.7-.7c-.3-.4-.4-.5.1-.3 1 .8-.1.1.2.5.3.2.6.4.8.6l.1.1.1.1c.1.1.2.3.3.3.1-.1.2-.2.2-.3-.1.1-.2.2-.2.3-.2 0-.3 0-.2.3 0 .2.2.6.1.6 0 0 .1 0 .1.1l.1-.1c.7-.7.4-.2.6-.3.1 0 .2-.1.9-.5 2.2-1.4 5.5-2 8.4-1.7 1.8.3 4 .8 6.1 1.4 2.1.7 4 1.2 5.5 1.4 1.5.4.4.6 2.2.8 2 .1-1.5-.5 1.5-.1l-.3.1c.2 0 .7 0 1.3.1h2c1.4 0 2.8-.1 3.2-.4-.3.2-.6.3-.9.4.6 0 1.1-.1 1.6-.2 0 .1.7.2-.2.3 1.9.1 3.9-.4 6-.6l-1.3-.1c3.5-.6 5.8-.7 9.1-1.4l-.1.2 2-.5c-.4.3 1.4.1 2.4-.3l-5.1 1.5c-1.5.1 1.5-.5.6-.6-.8 0-3.9.5-4.4.8 1.2-.1 1.2-.2 2.2-.4.4.2-1.4.5-2.2.9.6-.1 1.5-.1 1.6-.3-1.2.3-2.4.6-4.5.8 1.4-.3-.8-.1-.3-.2-.1.3-2.1.6-4.6.8-1.8-.2-4.8.5-7.8.3.6-.1 1.3-.2 2.1-.3.8-.1 1.6-.2 2.5-.3-1.9 0-2.1.1-3.9-.1-.4.1-.8.2-1.4.3-.6.1-1.4.1-2.6.1l-.1-.2c-1.1-.1-1.7-.1-2.3-.2-.6-.1-1.4-.2-2.7-.7-2.2-.9-4.5-1.4-6.7-1.7-2.2-.2-4.3-.1-6 .3l-.2-.2c-.3.2-.8.4-1.3.6-.2.1-.5.3-.7.4-.1.1-.3.2-.4.2-.1.1-.4.2-.5.4-.4.1-.7.3-1 .5 0 0-.1.1-.1 0l-.1-.1-.2-.1c-.2-.1-.4-.1-.6-.2-.8-.7-1.3-1.1-1.9-1.5-.6-.4-1.1-.8-1.6-1-1.8-1.3-4.1-2.4-6.1-2.3-.5 0-.9.1-1.3.3-.4.1-.7.4-1.1.7-.7.5-1.4 1-1.9 1.3-6.3 5.3-11.7 10-18.2 15.4l.9-1.1c-1 1.1-.9.5-2 1.5 1.5-.9-1.4 1.6-2.1 2.4-3 2.3-6.6 5.6-9 7.9l-.2-.1c-2.3 2.5-5.7 4.8-8.9 7.5-.4.2-1.2.6-2 1.4-.6.9-1 1.6-1.4 2.4-.3.8-.7 1.8-.7 3.3-.1 1 0 2.2.4 3.5.2.6.4 1.2.8 1.7.1.1.2.3.2.4l.1.1.1.1.1.1.2.3c.3.4.6.8.9 1.1-.3.4-.5.8-.7 1.1l-.6 1-.4.8-.8 1.5c-.5 1-1 2.1-1.4 3.1-.9 2.1-1.6 4.3-1.9 6.4-.3 2.2-.2 4.3.9 6 .9 1.6.8 3 .7 4.3-.1 1.3-.4 2.5-.7 3.7l-.4.6c-1.1 4.7-3.2 9.5-5.1 14.1-1.9 4.6-3.8 9.1-4.3 12.8l-.3-.8c-.1.3-.2.6-.2.9-.1.4 0 1-.4 1.3-.2.3-.5.6-.7.8-.2.2-.3.5-.5.7-.6.8-.9 1.4-.6 1.3-.8.9-1.8 2.1-2.7 3.3-.5.6-.9 1.1-1.3 1.6l-.6.6-.3.3-.2.2c-.1 0-.2.1-.2.1-.3.2-.5.4-.8.6-.2.2-.4.3-.6.4-.3.3-.6.5-.9.7-.5.5-.9 1-1.7 1.7-.9.8-1.7 1.5-2.3 2.2-.6.7-1.2 1.3-1.7 1.9-1 1.3-2 2.6-3 4.6.2-.3.4-.7.6-1 .2-.5.1-.6-.6.4-.8 1.5-2.8 5.7-1.7 4.3-1.1 2.2-1.9 5-2.3 7.8-.5 2.8-.6 5.7-.7 8.1.1-.4.2.8.3 1.3.3 4.3 1.1 8.9 2.4 12.1.2.7-.6-1 0 .7.4 1 .2 0 .7 1.1 1.4 3.2 3 6.5 4.8 9.5 1.8 3 3.9 5.8 6.1 8.2 4 4.2 8.6 7.9 13.6 10.9 4.9 3.1 10.2 5.4 15.5 7l-.1.1c1.8.3 3.9 1 5.9 1.3 2 .5 4 .7 5.5.5.9.2 3.3.2 2.7.4 2.9 0 8.2 0 12.3-1.3-.4.1-.6.2-1 .3 1-.2 2.1-.4 3-.7 1-.2 1.9-.6 2.9-1 .5-.2 1-.3 1.4-.5.5-.2.9-.4 1.4-.7.5-.2 1-.4 1.5-.7.2-.1.5-.2.8-.3.2-.1.5-.3.7-.4-.2.1-.5.3-.7.5-.2.1-.4.3-.5.3.4-.1.8-.4 1.2-.6.4-.3.8-.6 1.2-.8.8-.5 1.5-1 2-1.1.8-.6.4-.6 0-.2 1-.7 2-1.4 3-2.2.9-.9 1.8-1.7 2.8-2.6.9-.9 1.8-1.9 2.8-2.8l1.4-1.4.5-.5.3-.3.4-.1 1.1-.4c5.1-1.6 10.3-3.1 15.6-4.1 3.8-.5 4-.3 3.9-.1-.1.1-.4.2 2.7-.3.5.1.3-.2.4-.1.6-.1 1.1-.1 1.6-.1s.9.1 1.3.1c.8.1 1.6.2 2.4.1-.7-.3 1.1-.1 1.2-.3.6.1 1.1.2 1.6.3.5.1.9.2 1.4.3.8.2 1.5.5 2.1.7.7.2 1.1.4 1.8.7.6.2 1.3.4 2.2.6l-.3.1c2.1.4 4.3.7 6.3.6 2.1-.1 4-.6 5.2-1.5.1-.1.3-.1.4-.2l.1-.1c.1 0 .1-.1.2-.1.1-.1.3-.2.4-.3.6-.1 1.1-.1 1.4-.2.3 0 .8.1 1.4.1l.7.6.5.5.8.6c.5.4 1.1.8 1.6 1.2 1.1.7 2.2 1.3 3.4 1.7 1.1.4 2.2.5 3 .2.2-.1.4-.2.5-.3l.8-.6 1.6-1.2c4.3-3.4 8.6-6.9 12.8-10.4 8.5-7 16.9-14 25.4-21l1.9-1.5.9-.8c.2-.2.5-.4.7-.7.9-.9 1.5-2.1 1.8-3.3.3-1.2.4-2.6 0-3.8-.1-.6-.4-1.2-.7-1.8-.1-.1-.2-.3-.2-.4l-.1-.2-.1-.1v-.1l-.1-.2-1.6-1.9c.5-.8 1.2-1.7 1.6-2.5l.8-1.3c.5-.8.9-1.7 1.4-2.6.9-1.7 1.6-3.5 2.1-5.3.5-1.8.9-3.6.7-5.2-.1-.8-.2-1.5-.6-2.1l-.1-.2-.2-.4c-.2-.4-.4-.9-.5-1.2l-.1-.6v-1.5c.1-1.3.3-2.4.6-3.4.3-1.1.7-2.1 1-3.1.8-2 1.6-3.9 2.5-5.8 1.8-3.8 3.7-7.4 5.5-11.1 1.4-2.3 2.1-3.6 2.7-5 .6-1.4 1.3-2.8 2.1-5.5 0 .2-.1.6.1.2-.1-.1 0-.4.1-.7 0-.2.1-.4.1-.6 0-.1 0-.2.1-.3v-.2-.4l.1-.7c0-.2 0-.5.3-.6.4-.3.8-.5 1.1-.8.1-.1.1-.1.2-.1l.1-.1.2-.2c.1-.1.2-.2.2-.3 3.3-2.3 6.1-5.1 8.4-8.3 2.2-3.2 3.9-6.8 5.1-10.9-.3 1.3-.3 2 .2.5.1-.5.2-1.1.2-1.7l.1-.2c.2-1.1.3-2.2-.1-1.2 1.9-10.3-.4-21.2-5.3-30.4-2.5-4.6-5.6-8.9-9.3-12.7-3.7-3.8-7.8-7.1-12.4-9.8-1-.7-2.3-1.4-3.5-2-.6-.3-1.3-.7-2-1l-2.1-.9-2.1-.9c-.7-.2-1.5-.5-2.2-.7-.7-.2-1.4-.5-2.1-.7-.7-.2-1.4-.3-2-.5-7.7-2.3-15.6-2.8-23.1-1.5-3.8.7-7.5 1.9-11 3.6-3.5 1.8-6.7 4.1-9.6 7 0 0 .2-.5 1.1-1.6-.1-.9 1.5-2.6 4.4-4.4z"/><path class="st1" d="M219.3 94.1c-.6 0-2.5.3-1.1-.3.3.1 1.3.1 1.1.3zM168 94.1s-.1.1-.3.2c-.1 0-.2 0-.2.1h-.1.1l.1-.1c.1-.1.2-.2.4-.3.3-.2.5-.3.8-.4-.6.3-.5.3-.8.5zM157.5 89.5c.1-.1 1 0 2 .3s2.1.8 2.9 1.2c-1.4-.7-3-1.4-4.9-1.5zM146.1 95.6c-.9.6-.7.3.4-.6.1 0-.2.3-.4.6zM145.6 96.4c-.8.7-1.2.9-1.7 1.2.1 0 1.8-1.6 1.7-1.2zM124.9 113.2c-.5.4-1.5 1.4-2 1.7.5-.4 2.2-2.2 2-1.7zM115.6 121.3c-.3.3-.5.3-.8.7-.6.4-.1-.2.4-.6l.4-.1zM136 294.5l-1.3.1.2-.1zM225.9 276.9c1.3.6.8.6 1 .7-1.1-.5.5.1-1-.7zM269.4 248.5l-.3.3-.1-.4z"/></g><g><path class="st5" d="M281.3 169.4l-52.1 34.7c-2 1.3-12.3 9.4-14 11.1l-53.4 52.3c-13.8 13.8-36.8 14.8-54 2.4l-.2-.1c-23.5-17-24.8-50-2.5-65.1l61.8-41.3c1.9-1.3 11.6-8.6 13.2-10.2l44.9-46.8c13.8-13.7 36.7-14.7 53.9-2.3 23.6 17.2 24.8 50.3 2.4 65.3z"/><path class="st1" d="M280.4 170.6c1.7-1.2-1.1.4 1.1-.9-.2.3-.5.6-1.1.9z"/><path class="st1" d="M287 165.2c2.2-2.7 4.6-5.9 6.5-9.5 1.9-3.6 3.1-7.7 3.4-11.4.1-.9.4.3.5-1.7 0-1.8 0-3.9-.2-6.2-.1-1.1-.3-2.3-.4-3.4-.2-1.2-.4-2.4-.7-3.5-1.1-4.8-3-9.6-5.3-13.4l.4.4c-.4-.7-1-1.5-1.7-2.2-.3-.4-.6-.7-.9-1.1-.3-.4-.6-.7-.9-1.1.1-.1.5.4.3 0-.2-.1-.8-.7-1.4-1.3-.6-.6-1.2-1.3-1.5-1.5-.4-.6-.3-.6-.9-1.4l-.9-.5c-.7-.4-1.3-.8-2-1.3s-1.4-1.1-2.1-1.7c-.7-.6-1.5-1.1-2.4-1.7-.4-.3-.8-.6-1.2-.8-.4-.2-.9-.4-1.3-.6.2 0 .6.2.3 0-.7-.3-1.4-.7-2.2-1.1-.8-.3-1.6-.6-2.4-1-.4-.2-.8-.3-1.2-.5-.4-.1-.8-.3-1.3-.4-.8-.3-1.7-.6-2.6-.8-3.5-1-7.1-1.5-10.6-1.7.3-.1.5-.2.1-.4-.2.1-.8.2-1.6.3-.8.1-1.8 0-2.7.2-.9-.2-3.2.5-5.3.8l.2-.1c-1.5.5-2.4.3-3.6 1h-1.1c-.5.6-2.3.6-3.5 1.2l.1.1c-1.1.6-1.8.7-2.8 1.3h-.1c-2.3 1.4-3.8 2.1-3.5 2.3-.4.2 0-.3.5-.6s.9-.7.2-.4c-1.9 1.3-3.7 2.7-5.3 4.3-.9.8-1.6 1.6-2.4 2.5l-2.4 2.5c-3.2 3.3-6.4 6.7-9.5 9.9-.8.7-1.3 1.1-1.5 1.2-.6.7-2.3 2.5-2.8 3.2.2-.2-.5.3-.9.6-1.2 1.1-1 1.6-2.4 2.8.4-.6.5-.8.3-.7-.9 1.3-2.4 2.8-3.6 4.1.2-.2.4-.6.3-.6-1.2 1.6-2.6 2.6-3.7 4l.3-.6c-2.1 1.9-.3.9-2.1 2.5.4-.5.2-.4.2-.5-1.3 1.9-4 4.5-5.5 6.2.1-.1 0-.1 0-.1-1.7 1.8-3.6 3.6-5.3 5.7-.7.7-.1-.6-1.9 1.4.3.2-3 3.3-1.6 2.5-.4.4-.8.8-1.4 1.3-.5.5-1.1.9-1.6 1.3-1.1.8-2.1 1.6-2.6 2.1.7-.7-1.1.3.3-.9l-1.2.7c.1-.2 1.2-.8.7-.7-.7.6-2.8 2.4-3.5 2.8-1.2 1.2-2.3 2.5-4.5 4.2 1-.9-.8.1-.2-.5-.9 1-1.9 1.9-2.8 2.8-.8.5-.3-.1-1.4.7.1 0-.3.4-.6.7-.3.2-3.2 2.2-3.7 2.2-.4.1 1.2-.9.3-.4-1.4 1-1.4 1.1-2.9 2.1h-.1c-1 .6-2.7 2-1.6 1.5.7-.4-.4 0 .7-.6-.5.6-2.2 1.8-3.6 2.7.5-.4.3-.4.5-.6-1.8 1.5-3.8 3-5.8 4.5.1.2.6-.8 1-.9-2.9 1.6-5.5 4.1-8 5.3.4-.3.3.1.3 0-1.3.9-1.4.6-2.2 1.3-.2-.1-1.1.8-1.9 1.4-.4.4-.3.1.5-.4-1.2.9-6 4.4-9 6.2.1 0-1.6 1.5-2.2 1.9l.1-.4c-.7.3-2.2 1.5-2.4 1.4-1.3 1.2 5.3-3.8 3.5-2.4-.6.2-2.4 2.1-2.2 1.5-1.3.9-2.5 2-3.8 2.6.4-.2.9-1-.2-.3-1.9 1.3-.5.4-2 1.5l-.9.7c.1.2-1.7 1.1-.9.8-.3 0-2.7 1.9-2.7 1.5l.1-.4c-.8.6-1.2 1.1-1.7 1.7-.1 0-.4.1-.4.1.1.5-2 1.3-2.7 2.2-.9.5-2 1.2-3 1.9-.9.6-1.8 1.2-2.2 1.4l-1.6 1.6-1.7 1.7c.2-.3.6-.6.6-.7-.9.7-1 1-1.6 1.7.1-.1-.4.2-.9.8l-1.6 1.6c-.8 1.3-.3 1-.2 1.2-.6.4-1.1 1.4-1.6 2.4s-1 2.1-1.5 2.8c.1-.5.8-2.1.1-1-.5.5-.7 1.2-.9 2-.2.8-.4 1.7-.8 2.7.2-.1.3-.3.5-.4-.3.4-.4 1.2-.6 1.9-.2.7-.2 1.2-.4 1 0 .4-.2 1-.3 1.5-.1.5-.1.9.1.8-.5 1.8-.6 4-.7 6.1v2.9c0 .9 0 1.6-.1 2.2.1.5.3 1.8.4 1.5 0-.9-.3-1.2-.2-1.5.1.5.2.6.2.6.1 1.1.3 2-.3 1 .1 1.3.4 1.9.7 2.6.3.7.7 1.5 1.1 3-.2-.1-.2.2.2 1.1l.9 1.6c.8 1.9.2 1.2 0 1.4.5 1 1.1 2.3 1.5 2.6.1.5.3.9.4 1.4-.3-1 .6.7.9 1.2l-.3-.4c0 .2.8 1.3 1.2 1.8.1-.2-.7-1.4-1-2 .4.5.9 1.2 1.4 1.8-.2 0 0 .4.4.9s.8 1.1 1.1 1.5c.6.9.9.8 1.1 1-.1.1 1 1.3.4.8-.3-.2-.4-.7-.9-1.1.4.6.1.7 1.2 1.6.8.7.2-.5 1.4 1.1-.4-.3-.5-.3-.9-.6l1.2 1.5.2-.1c.1.2 0 .1.1.2.6.2 2.1 1.9 2.6 2 .4.3.7.7 1.1 1 .4.3.7.7 1.1 1l-.1-.1c.4.4.9.8 1.4 1.1.5.3 1.1.6 1.5.8h-.1c.5.3 1.7 1.1 2.4 1.4 1.3.9 0 1 1.7 1.6.7.4 1.3.5 1.7.6.4 0 .5-.1.2-.3 1.2.6 2.6 1.2 4 1.6.7.2 1.4.5 2 .7.7.2 1.3.4 1.9.6.4 0 .2-.1 1 0 2 .4 4.1.8 6.1.9.5 0 1 .1 1.5.1h1.4c.9 0 1.8.1 2.6.1-1.2.2-.1.2 0 .4 1-.3 1.2.1 1.5-.3-.1-.2 0-.3-1.2-.3 1.2-.2 2.7-.3 4.1-.6.7-.1 1.3-.2 1.9-.3.6-.1 1-.2 1.4-.3-.7.1-.2-.1.3-.3-.1.3 1.7 0 2.9-.6l.1-.3.9-.1c.5-.3.4-.5 1.7-.9.1 0 .2.1.4 0 .6-.4 1.3-.8 2-1.3s1.4-1 2.1-1.3c.4-.1.8-.3 1.2-.4.5-.4 1.3-1.2.3-.6 2.2-1.3 3.4-2.5 4.2-2.9 2.9-3.6 7.6-8.3 11.5-12v.2c1.1-.9.4-.7 1.1-1.3-.2.4 1-.6.3.4 1.6-1.3 1.7-2 2.6-3 0-.3-.7.8-.7.5.1-.2 2.1-1.9 2.2-2.3.4-.3.3.2.2.4l.8-1c1.3-.8-2.1 2.9-.6 2.1l.8-.8c1-.6-1.9 2.4.2.4.8-1 1.3-2 .4-1.3 1.8-1.9.4-1.3 2.4-3.3.7-.4-1.6 1.6-1 1.4 1.1-.8 1.8-2 2.7-2.7-1 .8-.4-.1.1-.8 1.1-.9-.5.8 1-.6.1-.4 1.4-1.8.1-.7.3-.8 1.6-1.4 2.2-2.4.7-.3-1.1 1.9.6.4-.4.1 1.7-2.2.6-1.6.7-.6.9-.5.5.1 1-.8 1.8-2.5 2.5-2.4l.1-.5c.3-.2.8-.6 1.3-.9.8-.8 2.3-2.7 2.5-2.4.2-.3 2-2 1.1-1.5-1.2 1-1.1 1.4-2 1.7 1-.6 1.6-1.6 2.2-2.3h.2c.3-.4 1.3-1.3 1.4-1.6-.2.4 0 .3.3 0l.2-.6c1.5-1.6.7-.1 2.1-1.6l-1 1.3c.2-.3.9-.6 1.6-1.4.1-.4.5-1.1.6-1.5.8-.9.6-.2 1.2-1.2l-.9 1.3c-.1.2 1-.5 2.1-1.6.7-.8 1.6-2.1.4-1.1.6-.6 1.5-1.3 1.1-.7 1.2-1.3-.3 0 .7-1.2.6-.3 2.1-1.6 3.1-2.3l-.9 1.4.8-.8c-.8 1.2.7-.3.3.4.6-.5 1.1-1.2 1.6-1.8-1.9 1.2 1.3-2.2.5-2.1 1-1.1 1.5-1.2 2-1.4.5-.2 1-.5 1.9-1.8-.5.3.5-1-.9.4 1.5-1.2.7-1.2 2.5-2.5-1.2 1.2 1.6-.8 0 .9 0-.2-1.1.8-1.3 1 .7-.4.2.4 1.6-.8.9-.8 2.1-1.8 1.8-1.8-.2-.2-1.4 1.1-.9.5 1.8-1.5 2.3-1.5 2.8-2.4-1.1.9-1.6 1-1.7.8l1.3-1.1-.2.3c2.2-1.6.4-.7 2.6-2.3l1.2-.5c-.3.6-3.1 2.3-2.5 2.3 1.4-1 1.7-1.6 3-2.5-.3.3-.6.6-.9.8.5-.4 1.3-.3 3.1-2 1-.9.2-.3.1-.5 1.2-.9 1.9-1.4 2.5-1.9.6-.5 1.1-.9 1.9-1.4-.1.5 2.6-1.7 1.2-.3-.9.3-4.1 2.5-4.8 3.4 1.1-.3-1.8 1.3-2 2 1.8-1.3 1.9-.9 2.4-.9.5-.3 1-.8 1.2-1 .1-.3-.6.1-.8-.1 2.1-1.3 4-2.7 5-3.7.8-.4.7 0-.1.6 2.4-1.7 5-3.4 7.4-4.9-1.7.7 2.5-1.8 1.3-1.4-1.3.8-2.5 1.2-1.9.6.8-.5.1.2.4 0 .9-.8 1.7-.7 2.5-1.7-2.2 1.6-.2.7-.4 1.2 1.5-1.2.1.2 1.6-.8 1.5-1.2 3.4-2.6 5.1-3.9 2.4-1.2 5.7-3.8 7.7-5.1 1.1-.6.6.2 1.8-.5 1.3-.9-1.2.3.9-.8l-.2.2c.5-.5 3.7-2.2 4-3l-.4.7c.4-.2.7-.5 1-.8.1.1.6-.1 0 .4 1.4-.6 2.5-1.7 3.8-2.6l-1 .4c2.2-1.7 3.8-2.5 5.9-4l.1.2 1.2-1c-.2.4 1.1-.3 1.7-.9L273 175c-1 .5.9-.9.2-.7-.6.2-2.6 1.6-2.8 2 .8-.5.8-.6 1.4-1 .4.1-.8.9-1.2 1.4.4-.3 1-.6 1.1-.7-.7.7-1.5 1.2-2.8 2.1.8-.7-.6.2-.3-.1 0 .3-1.2 1.2-2.9 2.2-1.3.5-3 2.2-4.9 3.4.6-.7 1.5-1.6 2.6-2.4-1.3.7-1.3.9-2.6 1.6-.5.6-.7 1.1-2.2 2.2l-.2-.1c-1.4 1-1.2 1.3-3 2.4-3.1 2-6.3 4.1-8.7 5.6l-.2-.1c-1.1 1.2-4.3 3-5.9 4.4-3.1 1.8-6.4 4.5-8.1 5.2-1.3.9-2.6 1.8-3.8 2.7-1.2.9-2.4 1.8-3.5 2.8-2.3 1.9-4.7 3.8-7.3 5.8l.7-.9c-.8.9-.7.4-1.6 1.1 1.2-.7-1.1 1.3-1.4 1.9-2.3 1.9-4.8 4.7-6.5 6.7l-.2-.1c-1.6 2.1-4.1 4.1-6.5 6.3-.3.2-.9.5-1.6 1.2-1 1.5-1.7 2.1-3.4 4.1-1.4 1.3-3.6 3.4-5.1 4.7-4.8 5.3-10.2 10.2-15.3 15.6l-.6.2c-2.4 2.7-5.3 5.5-8 8.2-1.4 1.4-2.8 2.7-4.1 3.9l-1.9 1.9c-.6.6-1.2 1.2-1.8 1.7l.2-.7c-.4.3-.8.7-1.2 1-.4.3-.8.6-1.1.9-.6.6-.9 1-.7.9-.4.3-.9.6-1.4.9l-1.5.9c-.5.3-1 .6-1.4.8-.4.2-.9.3-1.2.4-.9.4-1.5.7-2 1-.5.3-1 .5-1.8.9-1.9.7-3.3 1-4.7 1.3-.7.2-1.3.3-2.1.5-.7.1-1.5.3-2.5.5.3 0 .6-.1.9-.1.4-.2.4-.3-.5-.2-1.4.3-5.3.4-3.8.7-1 0-2.2-.1-3.3-.1-1.2 0-2.4-.1-3.5-.2l-.9-.1-.9-.1c-.6-.1-1.2-.2-1.7-.3-1.1-.2-2.2-.5-3.1-.8.3.2-.7 0-1.1 0-3.5-1-6.9-2.7-9.5-3.9-.5-.3.9.2-.4-.5-.8-.4-.1.1-1.1-.3-5.2-2.8-9.5-7.1-12.9-11.2-3.1-3.5-5.7-7.8-7.4-12.2-.9-2.2-1.5-4.5-2-6.9-.5-2.3-.8-4.6-.9-6.9l.1.1c-.1-.8-.1-1.6-.1-2.4 0-.9.1-1.7.2-2.6.1-.9.2-1.7.3-2.5.1-.8.2-1.5.1-2.1.2-.7.7-2.7.7-2.1.2-1.2.7-2.8 1.5-4.5.4-.8.8-1.7 1.2-2.6.4-.8.8-1.7 1.2-2.5-.2.3-.3.4-.4.8 1.9-3 3.6-5.7 6.4-8.2-.3.3-.7.8-.7 1 .5-.5 1.1-1.1 1.6-1.7.5-.6 1-1.1 1.5-1.1.6-.5.3-.6-.1-.2l1.2-1 1.3-.9c.9-.6 1.7-1.1 2.5-1.7 1.7-1.1 3.4-2.3 5.1-3.5 3.4-2.3 6.8-4.7 10.2-7.1 5-3 .7.5 4.4-2.4.4-.1.1-.3.2-.3 1.4-1.1 2.6-1.1 3.5-2-.6 0 .6-.6.5-.8 3.1-1.8 3.8-2 6.1-3.8l-.1.2c2.5-2.2 5.9-4.2 7.9-6.1 7.6-5.1 15-10.2 22.4-15.2 3.5-2.6 7.1-5.3 10.5-8.1l1.2-1c.4-.4.6-.6 1.1-1l2.3-2.4c1.5-1.6 3.1-3.2 4.6-4.9 12.3-12.7 24.1-25.3 36.8-38.1.4-.3.8-.6 1.1-.9.4-.3.7-.5 1-.7.6-.5 1-.8 1.5-1.2.5-.4 1-.8 1.6-1.3.6-.5 1.3-1.1 2.3-1.8-.1.2-.4.3-.1.2 0-.4 2.9-1.8 3.2-2.2.8-.4 1.6-.7 2.3-1.1.8-.4 1.6-.6 2.4-.9 1.6-.6 3.2-1 4.8-1.5 3.3-.7 6.7-1.2 10.2-1.1-1.1 0-1.7.3-.4.3l1.4-.2.2.1c.9 0 1.9-.1 1-.2 1.1.1 2.2.1 3.4.3l3.3.5 3.3.8c1.1.3 2.1.7 3.2 1.1 4.2 1.6 8.1 3.7 11.7 6.3 3.5 2.6 6.7 5.8 9.4 9.2 2.7 3.5 4.9 7.3 6.6 11.4.7 2 1.5 4.4 2.1 6.9.6 2.5.9 5.1 1.1 7.4.1 13.5-6.1 25.5-17.2 33.3 0 0 .2-.4 1-1.3l.7-.7c.3-.3.5-.6.9-.9 1-.5 1.8-1.3 2.7-2.3z"/><path class="st1" d="M278.3 172.1c-.5.1-1.8.9-.9 0 .2.1.9-.2.9 0zM244.1 192.8c0 .1-.5.3-.6.3.4-.3.7-.7 1.1-.8-.4.3-.3.3-.5.5zM235.6 198.4c0-.2 1.8-1.5 2.9-2.2l-2.9 2.2zM227.3 203.2c-.8.4-.6.2.3-.5.2.1-.1.3-.3.5zM227 203.9c-.6.5-1 .7-1.4.8.1.1 1.4-1.2 1.4-.8zM210.7 217c-.3.4-1 1.2-1.5 1.4.5-.3 1.6-1.9 1.5-1.4zM204 223.8l-.6.6c-.5.4-.1-.1.2-.5l.4-.1zM92.8 221.7l-.3 1-.1-.2zM151.3 175.2c.8-.7.7-.3.8-.4-.7.5.2-.3-.8.4zM183.9 149.9l-.2.2-.1-.3z"/></g><g><ellipse transform="rotate(-44.053 196.00917088 185.08540165)" class="st5" cx="196" cy="185.1" rx="61" ry="23.8"/><path class="st1" d="M240.6 142.9c-.7-.8.2.6-.5-.5.1.1.3.2.5.5z"/><path class="st1" d="M237.2 140.5c-1.6-.5-3.5-.9-5.4-1.1-1.9-.2-4 0-5.7.5-.4.1.1-.3-.9-.1-1.7.6-3.8 1.2-6.1 1.9-2.2.7-4.6 1.5-6.6 2.3l.2-.2c-.8.3-1.5 1-2.3 1.3 0 0 .2-.2 0-.2-.1.3-1.4.8-1.6 1.1-.3.1-.4 0-.8.1l-.3.4c-1 1.1-2.9 1.6-4.4 2.8.1-.1.2-.2 0-.2-2.4 1.8-5.6 3.9-8.2 5.9.1-.1.1-.3-.1-.3 0 .3-.8.9-1.5 1.5-.5.1-1.1 1.1-2 1.6v-.1c-.5.7-1 .6-1.3 1.2l-.5.2c-.1.5-1 .6-1.4 1.1h.1c-.4.4-.8.5-1.2.9h-.1c-1 .9-1.6 1.3-1.5 1.5-.5.2.9-.9.2-.6-3.1 3-6.4 6.1-9.5 9.2-.4.3-.7.5-.8.5-.3.3-1.1 1.2-1.3 1.6.1-.1-.3.1-.4.3-.6.5-.4.8-1.1 1.4.2-.3.2-.4.1-.4-.4.7-1 1.4-1.6 2.1.1-.1.2-.3.1-.3-.5.9-1.2 1.3-1.6 2l.1-.3c-1 .9 0 .5-.9 1.3.1-.2 0-.2 0-.3-.5 1-1.7 2.3-2.3 3.2v-.1c-.7.9-1.5 1.9-2.2 3-.3.3-.2-.3-.9.7.3.1-1.2 1.8-.5 1.4-.7.8-1.7 2.2-2 2.8.2-.5-.6.2-.1-.5l-.5.5c0-.1.4-.6.2-.5-.3.4-.9 1.5-1.1 1.8-.3.8-.5 1.6-1.1 2.8.2-.6-.5.1-.3-.2-.2.6-.3 1.3-.5 1.9-.2.4-.2 0-.5.6.1 0 0 .3-.1.5-.1.1-.8 1.7-1.2 1.7-.2.1.3-.7 0-.3-.4.7-.3.8-.7 1.5-.3.5-.6 1.5-.2 1 .2-.3-.2.1.1-.4 0 .4-.4 1.3-.8 2 .1-.3 0-.3 0-.4-.3 1.1-.7 2.2-1.1 3.3.1.1 0-.5.1-.7-.4.7-.6 1.5-.9 2.2-.2.8-.4 1.5-.8 2 0-.2.2-.1.2 0-.2.7-.4.6-.5 1.1-.1 0-.2.6-.2 1.1 0 .3-.1.1 0-.3-.1.7-.6 3.5-.9 5 .1 0 .2 1 .1 1.4l-.2-.2c-.2.3 0 1.2-.2 1.3.1.4.1-.4 0-1.1 0-.7 0-1.4.1-.9-.2.3.1 1.5-.1 1.3 0 .7.2 1.4.1 2.2 0-.2-.3-.6-.2 0 .1 1 .1.3.3 1.1l.1.5c.1 0 .2.9.3.5-.1.1.1.4.1.8.1.3.2.6 0 .6l-.3-.1c.2.4.4.6.7.9v.2c.2 0 .3.2.4.5.1.3.3.6.6.7.2.4.6.8.9 1.2.4.3.7.7.8.9.3.2.6.3.9.5.3.1.6.3 1 .5-.2 0-.3-.1-.4-.1.4.3.6.3 1 .4-.1 0 .2.1.5.3.3.1.7.3 1 .5.7.1.5-.2.6-.3.6.5 2 .1 2.8.4-.3.1-1.1.1-.5.2.7.3 1.4-.2 2.4-.1l-.3-.3c.2.1.6 0 1 0 .3-.1.6-.1.5 0 .3-.1 1.3-.1 1.1-.3 1.8 0 4.2-1 5.4-.9.2-.1.9-.3.7-.4-.5 0-.5.3-.7.2.2-.1.2-.2.3-.2.5-.1 1-.2.5.1 1.2-.2 1.1-.8 2.6-1.3 0 .1.1.1.5-.1l.7-.5c1-.3.6 0 .7.2.5-.2 1.1-.5 1.3-.7l.7-.1c-.5 0 .4-.3.6-.4l-.2.1c.1 0 .7-.3 1-.4-.1-.1-.7.2-1.1.3.2-.2.6-.4.9-.6 0 .2.9-.3 1.3-.4.5-.2.4-.4.6-.5.1.1.7-.4.4-.1-.1.1-.4.1-.6.3.3-.1.4.1.9-.3.4-.3-.3-.3.6-.6l-.4.4.9-.3v-.2h.1c.2-.3 1.2-.7 1.3-1 .4-.2.9-.4 1.3-.6l-.1.1c.5-.2 1.1-.6 1.4-.9.3-.1.8-.5 1.1-.8.7-.3.5.4 1.1-.2.6-.4.8-.9.5-.8 1.2-.6 2.3-1.7 3.5-2.2.1-.2 0-.1.3-.4 1.7-1.1 3.3-2.6 4.8-3.3-.4.4.1.2.1.2.3-.4.5-.2.5-.5-.1-.1-.1-.2-.6.1.9-.8 2.3-1.9 2.9-2.2-.3.2-.1 0 0-.2.1.2.8-.3 1.3-.8v-.2l.4-.2c.2-.2 0-.4.6-.7h.2c.4-.5 1.1-1.3 1.7-1.7l.6-.2c.2-.2.5-.7.1-.4 1-.7 1.7-1.3 2.1-1.4 1.3-1.8 3.6-4 5.4-5.8v.1c.6-.4.1-.4.5-.7-.1.2.5-.2.2.3.8-.6.7-1 1.2-1.5 0-.2-.3.4-.3.2 0-.1 1-.9 1-1.2.2-.1.2.1.2.3l.3-.5c.7-.4-.8 1.5-.1 1.2l.4-.4c.5-.2-.8 1.2.2.3.3-.5.5-1.1 0-.8.8-1 0-.8.9-1.7.3-.2-.7.8-.4.7.6-.3.8-1 1.2-1.4-.5.4-.3-.1 0-.5.5-.4-.1.5.5-.2 0-.2.5-.9 0-.4 0-.4.7-.7.9-1.2.4-.1-.3 1.1.5.3-.3 0 .7-1.2.1-.9.3-.3.5-.2.4.1.5-.4.7-1.3 1.1-1.2v-.3c.2-.1.4-.3.7-.4.3-.4.9-1.5 1.1-1.2.1-.2.8-1.1.4-.8-.6.5-.4.8-.9.9.5-.3.6-.9.9-1.2h.1c.1-.2.5-.7.5-.9-.1.2.1.2.2 0v-.3c.6-.9.4 0 1-.8l-.4.7c.1-.2.4-.3.7-.7v-.8c.3-.5.3-.1.5-.6l-.3.7c0 .1.5-.2 1-.9.2-.4.5-1.2 0-.6.2-.3.6-.7.5-.4.5-.7-.2 0 .2-.7.3-.2.9-.9 1.4-1.3l-.2.8.3-.4c-.2.7.3-.2.3.3.2-.3.4-.7.6-1-.9.7.2-1.2-.2-1.2.7-1.2 1.2-.3 1.5-1.8-.2.2 0-.6-.4.2.5-.7 0-.7.7-1.5-.3.7.7-.5.3.5-.1-.1-.4.5-.5.6.3-.2.2.2.7-.5.3-.5.7-1.1.5-1.1-.2-.1-.4.7-.4.3.5-1 .8-1 .8-1.5-.3.6-.6.7-.7.6l.3-.7v.2c.7-1.1 0-.4.7-1.5l.5-.4c.1.4-1 1.5-.6 1.5.4-.7.4-1 .9-1.6-.1.2-.2.4-.2.5.2-.2.7-.3 1-1.4.2-.6 0-.2-.1-.3.6-1.2.6-1.6 1-2.3.2.3.7-1.3.5-.4-.3.3-1.2 2-1.2 2.5.5-.3-.5.9-.4 1.3.5-.9.8-.7 1-.8.1-.3.2-.5.3-.7-.1-.2-.3.1-.5.1.6-1 1-2.1 1.1-2.7.3-.3.4-.1.2.3.6-1.3 1.2-2.6 1.7-3.8-.6.7.5-1.4 0-.9-.3.6-.7 1.1-.7.7.2-.4.1.1.2-.1 0-.6.6-.7.5-1.3-.4 1.2.3.4.4.7.2-.9.1.1.5-.8.2-.9.4-2 .7-3 .6-1.2.8-3.1 1-4.2.2-.6.4-.1.6-.8.1-.8-.3.5-.1-.6v.1c0-.2.1-.7.1-1.2s0-1-.2-1.2l.3.3c0-.2 0-.4-.1-.6.1 0 .2-.3.2.1.1-.3.1-.7 0-1.1-.1-.4-.1-.8-.2-1.1 0 .2-.1.3-.1.5-.3-1.2-.3-2.1-.7-3.3h.2c-.1-.2-.2-.4-.3-.7.2.1 0-.6-.3-.9l.6.8.5.9c.1.5-.4-.5-.4-.1 0 .3.3 1.4.5 1.6-.1-.4-.1-.5-.3-.8.2-.2.3.5.6.8-.1-.2-.1-.6-.2-.6.2.4.4.9.4 1.7-.2-.5-.1.3-.2.1.2 0 .4.8.3 1.8-.2.7.1 1.8-.1 2.9-.2-.5-.2-1.1-.3-1.7-.1.7 0 .8-.2 1.4.1.3.3.6.3 1.5h-.2c0 .8.2.9-.1 1.9-.4 1.8-1 3.5-1.4 4.8h-.2c0 .4-.2 1-.4 1.6-.2.6-.5 1.3-.6 1.8-.8 1.5-1.4 3.5-2.1 4.2-1.3 2.8-2.5 5.2-4.2 7.8l.1-.6c-.2.6-.3.2-.6.7.5-.4-.2.8-.3 1.2-.9 1.1-1.8 2.7-2.4 3.8h-.2c-.5 1.2-1.6 2.3-2.6 3.5-.2.1-.4.2-.7.6-.3.8-.6 1.2-1.3 2.2-.6.7-1.6 1.8-2.2 2.5-2 2.9-4.5 5.3-6.8 8l-.3.1c-2.1 2.8-5.5 5.5-7.6 7.6v-.4c-.7.6-1.5 1.5-1.2 1.5-.8.5-1.7 1.6-2.3 1.8-.8.6-.8.9-1.4 1.4-1.6 1.1-2.1 1.6-3.5 2.7l.4-.3c.1-.2 0-.3-.3 0-.5.5-2 1.4-1.3 1.3-1.7 1-3.5 2.8-5.2 3.6.2 0-.2.3-.3.4-1.4 1-3 1.7-4.1 2.6-.3.1.3-.4-.3 0-.3.2.1.1-.3.4-2.3 1.6-4.9 2.6-7.1 3.8-3.9 2.2-8.3 3.9-12.4 5v-.1c-.7.3-1.5.4-2.3.6-.8.1-1.6.2-2.1.5-.4 0-1.3.1-1.1 0-1.2.3-3.3 0-5 .1h.4c-1.7-.3-3.3-.5-5-1.4.2.1.5.2.6.1-.6-.4-1.7-.5-1.8-1-.3-.2-.3 0-.1.1-1.7-1.2-3.2-3-4-5-.8-2-1.2-4.2-1.2-6.2.1-1.5.3-1.5.4-1.5.1 0 .1.2.1-1 .1-.2-.1-.2 0-.2 0-.9.6-1.3.5-1.9-.3.2 0-.4-.2-.5.2-.9.4-1.4.6-1.8.2-.5.3-.9.4-1.6l.1.1c.2-1.7.9-3.4 1.1-4.8 3.3-8.3 7.9-15.7 13.1-22.6 5.3-6.7 10.9-13 17.5-18.7 1.7-1.2 1.8-1.3 3.4-2.8 0 .1-.1.2 0 .1-.1-.3 1.2-1 1.2-1.4 2.5-2 4.8-3.9 7.4-5.9-.4.3-.5.7 0 .3l.4-.5h.1c.3-.3.6-.7.2-.5 3.3-2.5 6.8-4.8 10.4-6.8 3.6-2 7.3-3.8 11.1-5.3 1.8-.6 4.4-1.6 6.5-2.2 3.1-.6 6.2-.9 9.3-.7 1.5.1 3.1.4 4.6 1 1.5.5 3 1.4 4.3 2.6 0 0-.3 0-.8-.3-.3-.1-.6-.3-1-.5-.2-.1-.4-.2-.7-.3 0 .1-.3 0-.6-.1z"/><path class="st1" d="M241.4 144c0 .3.4.9-.1.5 0-.2-.1-.5.1-.5zM239.7 162.4s-.1.2-.2.3c.1-.2 0-.5.2-.6v.3zM237.8 166.8c-.1-.1.3-1.1.5-1.7l-.5 1.7zM235.4 170.7c-.3.3-.3.2 0-.3.1 0 0 .1 0 .3zM235.5 171.1c-.2.3-.3.5-.5.6.1 0 .4-.8.5-.6zM230.2 179.2c-.1.2-.3.7-.6.8.2-.1.5-1 .6-.8zM227.7 183.1c-.1.1-.1.2-.2.3-.2.2-.1-.1 0-.3h.2zM161.9 230c.2 0 .3 0 .5-.1l-.1.1h-.4zM154.2 203.1c.1-.5.2-.3.3-.3-.2.3-.1-.3-.3.3zM163.9 186v.1l-.2-.1z"/></g><g><path class="st5" d="M111.4 162.7l75.8-60.5"/><path class="st1" d="M111.3 162.1c-.2.3.3.1-.1.2-.1-.1-.1-.2.1-.2zM186 102.7c-.4 1.3-2.1 1.6-2.8 2.8-.1.1-.2-.4-.4-.1-.6 1.2-2.3 2.1-3.7 2.7v-.1c-.3.1-.3.6-.6.8-.1-.1 0-.1-.1-.2.1.2-.4.4-.3.6-.2 0-.3-.2-.4-.1v.3c0 .8-.9.7-1.2 1.3 0-.1 0-.1-.1-.2-.6 1-1.6 1.7-2.5 2.5 0-.1-.1-.3-.2-.3.1.3-.1.5-.3.8-.3-.1-.3.5-.6.6v-.1c0 .4-.4.1-.4.5l-.3-.1c.2.4-.4.1-.5.4l.1.1c-.1.2-.3.1-.4.3-.3.4-.6.4-.4.6-.3-.1.3-.4-.2-.5-1 1.2-2.2 2.1-3.4 3.1h-.4c-.1.1-.4.4-.4.6 0 0-.2-.1-.3 0-.3.1 0 .5-.3.5 0-.1 0-.2-.1-.3 0 .4-.3.5-.5.8v-.2c-.1.4-.5.3-.6.7v-.2c-.5.1.1.4-.3.5 0-.1 0-.1-.1-.2-.1.5-.6.8-.9 1.1v-.1c-.3.3-.7.5-1 .9-.2 0-.2-.4-.5-.1.2.3-.5.6 0 .8-.3.2-.9.4-1 .7 0-.2-.4-.2-.2-.5h-.3c-.1-.1.2-.1 0-.2-.1.1-.4.5-.5.5-.1.4 0 .9-.4 1.2.1-.3-.4-.2-.3-.4l-.1 1c-.1.1-.2-.2-.3 0 .1.1 0 .2 0 .3-.1 0-.4.5-.7.2-.1-.1.1-.2-.1-.2-.2.2-.2.3-.4.5-.2.1-.3.5-.1.5.1-.1-.2-.1 0-.2 0 .2-.2.5-.4.7 0-.1 0-.2-.1-.3-.1.5-.4.8-.6 1.2.1.1-.1-.3 0-.3-.6.2-.7 1-1.3 1 0-.1.2.2.2.1-.2.1-.4-.1-.4.1-.1-.1-.1.2-.3.3 0 .1-.1 0 0-.1-.1.3-.8 1.1-1.3 1.2.1.1-.1.5-.2.6l-.1-.2c-.2 0-.3.3-.5.2 0 .4.7-.9.5-.5-.2-.1-.2.6-.3.3-.2.2-.2.5-.6.5.1 0 0-.4-.2-.2-.3.3 0 .2-.2.4l-.1.2c.1.2-.3.2 0 .3-.2-.1-.4.4-.6.1v-.2c-.1.1 0 .4 0 .6 0 0-.1 0-.1-.1.3.4-.3.2-.3.6-.4.1-.7.5-1 .4-.1.3-.2.5-.5.7 0-.1.1-.1 0-.2-.2 0-.2.1-.3.3 0-.1-.5 0-.7 0-.1.3.1.4.2.5-.5-.2-.4.7-.9.6 0-.1.2-.4-.1-.4-.5-.2-.2.6-.6.6l.3.2c-.3-.1-.3.5-.5.2 0 .2-.4.2-.2.4-.7.2-1.1 1.1-1.8.8 0 .1-.2.2-.1.3.2.1.1-.2.2-.2-.1.1 0 .1 0 .2-.2.1-.3.1-.4-.2-.5.1 0 .8-.5 1-.1-.1-.1-.1-.3 0l-.1.4c-.3.2-.4-.1-.5-.3-.1.2-.3.3-.3.5l-.4-.1c.3.1 0 .2-.1.3v-.1c-.1-.1-.2.1-.3.2.1.1.3 0 .5 0 0 .1-.1.2-.2.4-.1-.2-.4.1-.5.1-.2.1 0 .3-.1.3-.1-.1-.2.2-.2-.1 0-.1.2 0 .2-.1-.1 0-.3-.2-.4.1-.1.2.3.3 0 .4v-.3l-.3.1.1.2c-.1 0-.1-.1-.1-.1.1.2-.3.4-.2.6-.1.1-.4.1-.5.2-.2 0-.4.2-.4.5-.1.1-.3.2-.3.4-.3 0-.6-.6-.6-.2-.2.2-.1.6.1.6-.5.2-.7.8-1.2.8 0 .1.1.1 0 .3-.6.4-1 1.1-1.7 1.1.1-.2-.1-.2-.2-.3 0 .3-.3 0-.1.3.1.1.2.2.4.2-.3.3-.8.7-1.1.7.1 0 .1.1.1.2-.2-.3-.4-.1-.6.1l.1.2-.2-.1c0 .1.2.4-.1.4-.1-.1-.1-.1-.2-.1-.1.3-.2.7-.5.7l-.3-.1c-.1.1-.1.3.1.3-.5.1-.7.3-1 .2-.2.9-1.1 1.7-1.8 2.2l-.1-.1c-.3 0 .1.3-.1.3 0-.2-.3-.1-.3-.4-.4.1-.2.5-.3.7.1.2.1-.2.2 0 0 .1-.5.2-.3.4-.1 0-.2-.2-.3-.4l-.1.2c-.4-.1.1-.8-.4-1l-.1.2c-.3-.1.2-.6-.3-.4-.1.2 0 .7.3.7-.3.3.3.7-.1.9-.2-.1.3-.3 0-.4-.3 0-.3.4-.5.4.2-.1.3.3.2.4-.3 0-.1-.3-.3-.1.1.2-.1.5.2.4.1.4-.3.1-.3.5-.3-.1-.1-.7-.5-.6.2.2-.1.6.3.7-.2 0-.3-.1-.3-.3-.3 0-.1.7-.5.3l.1.3c-.1 0-.2 0-.4-.1-.1.1-.2.6-.5.3 0 .1-.4.3-.1.4.3 0 .1-.3.5-.1-.3-.1-.3.3-.3.4l-.1-.1c0 .1-.2.2-.2.4 0-.1-.1-.2-.2-.2l.1.2c-.2.3-.3-.3-.6 0l.1-.3c0 .1-.3 0-.3.1.1.2.1.5.2.7-.1.2-.2-.1-.2.2v-.4c0-.1-.4-.2-.6 0-.1.2-.1.6.2.5-.1.1-.3.1-.3-.1-.2.2.2.2.1.4h-.8v-.5l-.1.1c0-.4-.2-.1-.3-.4-.1 0-.2.2-.2.4.6.2.1.8.5 1.1-.3.4-.9-.6-.9.2.1 0 .2.5.3.2-.3.2.1.5-.3.6.1-.3-.5-.2-.4-.6.1.1.2 0 .3-.1-.2-.1-.3-.4-.5-.2-.1.2-.3.3-.2.5.2.2.2-.2.3.1-.2.3-.5 0-.4.5.2-.2.4 0 .5.1l-.2.3-.1-.2c-.4.2.1.3-.3.6l-.4-.1c-.1-.3.6-.3.2-.6-.2.2-.2.4-.4.5 0-.1.1-.1.1-.2-.1.1-.6-.4-.6.2-.1.2.1.2.2.3-.3.3-.3.6-.5.8-.2-.3-.4.3-.4-.2.2.1.7-.4.7-.7-.4-.2.3-.2.1-.6-.3.2-.5-.1-.7-.3-.1 0-.1.2-.1.3.1.2.2.1.4.3-.4.2-.6.6-.6.9-.2 0-.3-.2-.2-.3-.3.4-.8.7-1.2.9.5.1-.3.4 0 .5.3-.1.6 0 .6.2-.1.1-.1-.1-.2-.2 0 .3-.5-.1-.4.3.3-.4-.2-.4-.4-.7-.1.3-.1-.2-.4 0-.1.3-.4.7-.6 1-.5 0-.9.7-1.2 1-.3 0-.4-.4-.6-.3-.2.2.4.2 0 .3v-.1c0 .1-.7.3-.5.7l-.1-.4c-.1 0-.1.1-.1.2-.1-.1-.2-.1-.2-.3-.4-.1-.4.4-.6.5l.3.1c-.2.4-.6.4-.9.8l-.1-.2-.1.3c-.1-.2-.4-.2-.4.1l.2-.8c.2 0 0 .3.2.4.2.1.5-.2.4-.4-.1.1-.1.1-.2.3-.2-.2 0-.3-.1-.6-.1.1-.2.1-.2.1 0-.2.1-.3.3-.5-.1.2.2.1.2.2-.2-.2 0-.4.3-.6.4.1.4-.5.7-.7.1.3 0 .6-.1.8.3 0 .2-.2.5-.2 0-.2-.2-.5 0-.8l.1.1c.2-.3 0-.5.3-.7.5-.3 1-.7 1.4-1l.1.1c-.1-.5.6-.7.7-1 .6-.2.9-1 1.4-.9.7-.8 1.4-1.5 2.3-2.1v.3c0-.3.2.1.3-.1-.3 0 0-.4 0-.6.5-.1.9-.7 1.1-1.1l.1.1c.1-.6.7-.6 1.2-.9.1 0 .3.1.4 0 0-.4.2-.5.4-.9.2-.2.7-.5 1-.6.6-1.1 1.8-1.6 2.6-2.6l.2.1c.6-1.1 2.1-1.7 2.7-2.5l.2.4c.3-.1.5-.5.3-.7.3-.1.5-.7.9-.5.3-.1.2-.4.4-.6.6-.3.8-.5 1.2-.9l-.1.1c0 .1.1.3.2.2.1-.2.7-.4.3-.7.7-.2 1.1-1.1 1.8-1.2-.1-.1 0-.2 0-.3.5-.4 1.1-.5 1.3-1 .1 0 0 .3.2.1.1-.1-.1-.1 0-.3.6-.8 1.7-1 2.3-1.6 1-1.2 2.4-2 3.5-3v.1c.1-.6 1.1-.4 1.1-1.1.1 0 .4-.2.4 0 .1-.4 1-.5 1.2-1.1l-.1.1c.6-.2.8-.7 1.4-1 0 .1-.1.2 0 .3.3 0 .2-.7.6-.4.1-.1-.1-.2-.1-.2 1.1-.7 2-1.8 3.1-2.7.9-.4.5.6.9-.2.1 0-.1-.2 0-.1.2-.3.7.1.7-.2-.2-.2 0-.2-.1-.4.6-.2.8-.1 1.1-.6l.1.1c.2-.7.8-.9.9-1.6 2.3-2 4.4-4 6.7-5.9 2.4-1.8 4.5-3.7 7-5.4.8-.1.8-.2 1.3-.8 0 .1 0 .1.1.1-.2-.3.4-.4.3-.7.9-.6 1.6-1.3 2.5-2.1-.1.1 0 .4.1.3v-.3h.1c.1-.1.1-.4-.1-.3 2.1-2 4.7-3.2 6.8-5.1.6-.3 1.3-1 1.8-1.5 1.9-1 3.7-1.9 5.2-3.5 0 .3.3 1.1-.3 1.9zM111.6 161.8c.2.1.4 0 .4.3-.1-.1-.4-.1-.4-.3z"/><path class="st1" d="M117.8 159h.1c-.1.1 0 .2-.1.2.1-.1 0-.1 0-.2zM119.2 158c.1.1-.1.4-.3.6l.3-.6zM120.8 157.5c.2 0 .2.1.1.2-.1 0-.1-.1-.1-.2zM120.7 157.2c.1-.1.2-.1.3 0-.1-.2-.2.2-.3 0zM123.7 155.4c.1-.1.1-.3.3-.2-.2-.1-.3.4-.3.2zM124.8 154.2s.1 0 .1-.1c.1 0 .1.1.1.2l-.2-.1zM147.1 135.6l-.1.2v-.2zM157.1 127.6c.1-.2.2 0 .2 0-.1.2-.1-.1-.2 0zM162 122.8l-.2-.2z"/></g><g><path class="st5" d="M115.4 137.9l46.1-38.4"/><path class="st1" d="M115.2 137.4c-.1.2.3.1 0 .2-.1-.1-.2-.2 0-.2zM160.7 99.7c-.1 1-1.3 1-1.6 1.9 0 .1-.2-.3-.3-.1-.2.9-1.3 1.4-2.3 1.7v-.1c-.2 0-.1.5-.3.6-.1-.1 0-.1-.1-.2.1.2-.2.3-.1.5-.1 0-.2-.2-.4-.2l.1.3c.2.7-.6.4-.7.9 0-.1 0-.1-.1-.1-.2.7-.9 1.2-1.4 1.7 0-.1-.1-.2-.2-.3.2.2 0 .4-.1.6-.3-.2-.1.4-.4.4v-.1c.1.3-.3 0-.2.4l-.2-.1c.2.4-.3 0-.3.2l.1.1c0 .2-.2 0-.3.2-.1.3-.4.2-.2.4-.2-.1.1-.3-.2-.5-.5.9-1.3 1.4-2 2-.2 0-.2 0-.3-.1 0 .1-.2.3-.2.5l-.2-.1c-.2 0 .1.4-.2.4 0-.1 0-.2-.1-.3 0 .3-.2.4-.2.6 0-.1 0-.1-.1-.2 0 .4-.3.2-.4.4l-.1-.2c-.4 0 .2.4-.1.4 0-.1-.1-.1-.1-.2 0 .4-.3.6-.4.8v-.1c-.2.2-.4.3-.6.6-.1 0-.3-.4-.4-.1.2.3-.3.4.1.6-.2.1-.6.2-.6.4 0-.2-.4-.3-.2-.4l-.3-.1c-.1-.1.1-.1 0-.2-.1.1-.2.4-.3.4 0 .3.2.7 0 .9 0-.2-.3-.3-.3-.4l.1.8c-.1.1-.2-.2-.2 0 .1.1.1.2.1.2-.1 0-.2.3-.5.1-.1-.1.1-.2-.1-.2-.1.1-.1.2-.2.3-.1 0-.2.3.1.4.1 0-.2-.1 0-.1.1.2 0 .4-.2.5 0-.1-.1-.2-.1-.2 0 .4-.1.6-.3.9.1.1-.1-.3 0-.3-.4 0-.3.7-.8.6 0-.1.2.2.1.1-.1.1-.3-.1-.3 0-.1-.1-.1.1-.1.2s-.1 0 0-.1c0 .2-.4.8-.8.8.1.1.1.4 0 .5h-.3c-.1-.1-.2.2-.3 0 0 .3.4-.6.3-.3-.2-.1 0 .5-.2.2-.1.1-.1.4-.3.3.1 0-.1-.3-.2-.2-.2.2 0 .1-.1.3v.1c.1.2-.2.1 0 .2-.1-.1-.2.3-.4 0l-.2-.2c-.1.1.1.3.1.5 0 0-.1 0-.1-.1.3.4-.2.1-.1.5-.3 0-.4.3-.7.2 0 .2-.1.4-.3.5v-.2c-.2 0-.1.1-.2.2 0-.1-.3-.1-.5-.1 0 .2.2.4.2.5-.4-.2-.2.5-.6.3 0-.1 0-.3-.1-.3-.4-.2 0 .4-.3.4l.3.2c-.2-.1-.1.4-.4.1 0 .2-.3.1 0 .3-.5 0-.6.7-1.2.4 0 .1-.2.1 0 .2s0-.2.1-.1v.2c-.1 0-.2.1-.3-.2-.3 0 .2.6-.2.8-.1-.1-.1-.1-.2-.1v.3c-.2.1-.3-.2-.5-.4-.1.1-.2.2-.1.4l-.3-.1c.2.1 0 .2 0 .3v-.1c-.1-.1-.1.1-.2.1.1.1.3.1.3.1 0 .1-.1.2 0 .3-.1-.2-.3 0-.3 0-.1 0 0 .2 0 .3-.1-.1-.1.1-.2-.1 0-.1.1 0 .1-.1-.1 0-.3-.2-.3 0s.3.4.1.4c0-.1-.1-.2-.1-.3h-.2l.1.2c-.1 0-.1-.1-.1-.1.1.2-.2.2-.1.5-.1.1-.3 0-.4.1-.2 0-.2.1-.2.3-.1 0-.2.2-.1.3-.2 0-.6-.6-.5-.3-.1.1.1.5.2.5-.3.1-.3.6-.8.5 0 .1.1.1 0 .2-.4.2-.5.8-1.1.7 0-.2-.1-.2-.2-.3 0 .2-.2-.1 0 .2.1.1.2.2.3.2-.1.2-.4.5-.7.4.1 0 .1.1.1.2-.2-.3-.4-.2-.4 0l.1.2-.2-.1c0 .1.2.4 0 .3-.1-.1-.1-.1-.2-.1 0 .2 0 .6-.2.5l-.3-.1c0 .1 0 .3.1.3-.3 0-.5.1-.7 0 0 .8-.5 1.2-.9 1.5l-.1-.1c-.2 0 .1.2 0 .2-.1-.1-.3-.2-.3-.4-.3 0 0 .4-.1.5.1.2 0-.2.1 0 0 .1-.3.1-.2.3-.1-.1-.2-.2-.3-.4v.2c-.3-.2-.1-.7-.5-.9l-.1.1c-.3-.2 0-.5-.3-.4 0 .2.2.6.3.6-.2.2.3.6.1.8-.2-.1.2-.2 0-.3-.3-.1-.1.3-.3.3.2 0 .3.3.2.4-.2 0-.1-.3-.3-.2.1.2 0 .4.2.4.2.3-.2.1-.1.4-.2-.2-.2-.6-.5-.6.2.2 0 .5.3.7-.1 0-.3-.1-.3-.3-.2 0 .1.6-.3.2l.1.2c-.1 0-.2-.1-.3-.1-.1.1-.1.5-.3.2 0 .1-.2.2 0 .4.2 0 0-.3.3 0-.3-.2-.2.2-.2.3l-.1-.1c0 .1-.1.1 0 .3 0-.1-.1-.2-.2-.2l.1.2c-.1.2-.3-.3-.4-.1v-.2c0 .1-.2-.1-.2.1l.3.6c0 .2-.2-.1-.2.1v-.3c0-.1-.3-.2-.4-.1 0 .1 0 .5.2.5-.1.1-.2 0-.3-.1-.1.2.2.2.1.4-.1-.1-.4-.1-.7-.2l-.1-.4-.1.1c-.1-.3-.2-.1-.3-.4-.1 0-.1.2-.1.3.5.2.2.7.6 1-.2.3-.8-.7-.6 0 .1.1.2.4.3.2-.2.1.2.4-.1.4 0-.2-.4-.2-.4-.6.1.1.2 0 .2-.1-.2-.1-.3-.4-.4-.2-.1.1-.2.2 0 .4s.1-.1.2.1c-.1.2-.4-.1-.2.4.1-.1.3.1.4.2l-.1.2-.1-.2c-.3.1.1.3-.1.4l-.3-.2c-.1-.3.4-.2.1-.5-.1.1 0 .3-.2.3v-.2c-.1 0-.5-.4-.5 0 0 .2.1.1.2.3-.2.2-.1.4-.3.6-.2-.3-.3.2-.3-.2.2.1.5-.2.4-.5-.3-.2.2-.1 0-.5-.2.1-.4-.2-.6-.3-.1 0 0 .1 0 .2.1.2.2.1.4.3-.2.1-.3.4-.3.6-.1 0-.3-.2-.2-.3-.2.2-.5.4-.7.6.4.2-.2.3.1.5.2 0 .5.1.5.3-.1 0-.1-.1-.2-.2 0 .2-.4-.1-.2.2.1-.3-.3-.4-.4-.7 0 .3-.1-.2-.3-.1 0 .3-.1.5-.3.7-.4-.1-.5.4-.7.6-.2 0-.4-.4-.5-.3-.1.1.3.2 0 .2v-.1c0 .1-.5.1-.2.5l-.2-.3c-.1 0 0 .1 0 .2-.1-.1-.2-.1-.2-.3-.3-.1-.2.2-.3.3l.2.1c-.1.3-.4.3-.5.5l-.1-.2v.2c-.1-.2-.3-.2-.3 0v-.7c.2 0 .1.3.3.4.2.1.3-.1.2-.3-.1 0-.1.1-.1.2-.2-.2-.1-.3-.2-.5 0 0-.1 0-.1.1 0-.2 0-.3.2-.4 0 .2.2.1.2.2-.2-.2-.1-.4.1-.5.3.1.2-.4.4-.5.1.3.1.5.1.7.2 0 .1-.1.3-.1-.1-.2-.2-.5-.2-.7l.1.1c.1-.2-.1-.4.1-.5.4-.2.7-.4.9-.6l.1.1c-.2-.4.3-.5.4-.8.4-.1.5-.7.9-.5.4-.5.7-1 1.3-1.4l.1.3c0-.2.2.1.2 0-.3-.1-.1-.3-.1-.5.4 0 .5-.5.6-.8l.1.1c0-.5.4-.4.7-.6.1 0 .3.1.3.1-.1-.4 0-.4.1-.7.2-.1.4-.3.7-.3.3-.8 1-1.1 1.5-1.8l.2.1c.2-.9 1.2-1.1 1.6-1.7l.2.4c.2 0 .3-.4.1-.6.2 0 .3-.5.6-.3.2-.1.1-.3.2-.5.4-.1.5-.3.8-.6h-.1c0 .1.1.2.2.2 0-.2.5-.3.1-.5.5 0 .6-.8 1.1-.8-.1-.1 0-.2-.1-.3.3-.2.7-.3.8-.6.1 0 .1.2.2.1 0-.1-.1-.1-.1-.3.3-.6 1.1-.6 1.4-.9.6-.8 1.4-1.3 2.1-1.9l.1.1c0-.5.8-.2.6-.7.1 0 .2-.1.3 0 0-.4.7-.2.7-.7v.1c.4-.1.5-.5.9-.6v.2c.2.1 0-.5.4-.2.1-.1-.1-.2-.1-.2.7-.4 1.2-1.2 1.8-1.8.6-.2.5.6.7 0 .1 0-.1-.2 0-.1.1-.2.6.2.5-.1-.2-.2 0-.2-.1-.3.4-.1.6.1.7-.3l.1.1c0-.5.4-.6.3-1.2 1.4-1.3 2.6-2.7 4-3.9 1.5-1.1 2.7-2.4 4.3-3.4.6 0 .6 0 .9-.4 0 .1 0 .1.1.1-.2-.3.2-.2.1-.5.6-.4 1-.9 1.5-1.3-.1.1.1.3.2.2v-.2l.1.1c0-.1 0-.3-.1-.3 1.2-1.3 2.9-2 4.2-3.1.4-.2.8-.6 1.1-1 1.3-.5 2.4-1 3.3-2.1-.2.7.2 1.5-.1 2zM115.3 137.2c.1.1.3.1.4.3-.1-.1-.3-.2-.4-.3z"/><path class="st1" d="M119.6 135.9h.1s0 .2-.1.1c.1 0 0-.1 0-.1zM120.5 135.3c.1.1 0 .4-.1.5l.1-.5zM121.6 135.1c.1 0 .2.1.1.2-.1-.1-.1-.1-.1-.2zM121.4 134.8c.1-.1.1 0 .2 0 0-.1 0 .2-.2 0zM123.3 133.8s0-.2.2-.1c-.1-.1-.1.2-.2.1zM124 133c0-.1 0 0 0 0 .1 0 .2.1.1.1l-.1-.1zM137.4 121v.1l-.1-.1zM143.5 115.9c0-.1.1.1.2.1-.1.1-.1-.2-.2-.1zM146.3 112.7l-.2-.3z"/></g><g><path class="st5" d="M274.1 203.1l-75.2 61.2"/><path class="st1" d="M274.3 203.7c.2-.3-.3-.1.1-.2 0 .1 0 .2-.1.2zM200 263.8c.4-1.3 2.1-1.7 2.7-2.8.1-.1.2.3.4.1.6-1.2 2.3-2.2 3.7-2.7v.1c.3-.1.3-.6.6-.8.1.1 0 .1.1.2-.1-.2.4-.4.3-.6.2 0 .3.1.4.1v-.3c0-.8.9-.7 1.2-1.4 0 .1 0 .1.1.2.6-1 1.6-1.7 2.4-2.6 0 .1.1.3.2.3-.1-.3.1-.5.3-.8.3.1.2-.5.6-.7v.1c0-.4.4-.1.4-.5l.3.1c-.2-.4.4-.1.5-.4l-.1-.1c.1-.2.3-.1.4-.3.3-.4.6-.4.4-.6.3.1-.3.4.2.5 1-1.2 2.2-2.1 3.4-3.1h.4c.1-.1.4-.4.4-.6 0 0 .2.1.3 0 .3-.1 0-.5.3-.5 0 .1 0 .2.1.3 0-.4.3-.5.5-.8v.2c.1-.4.5-.3.6-.7v.2c.5-.1-.1-.4.3-.5 0 .1 0 .1.1.2.1-.5.6-.8.9-1.1v.1c.3-.3.7-.5 1-.9.2 0 .2.4.5.1-.2-.3.5-.6 0-.8.3-.2.9-.5 1-.7 0 .2.4.2.2.5h.3c.1.1-.2.1 0 .2.1-.1.4-.5.5-.6.1-.4 0-.9.4-1.2-.1.3.4.2.3.4l.1-1c.1-.1.2.2.3 0-.1-.1 0-.2 0-.3.1 0 .4-.5.7-.2.1.1-.1.2.1.2.2-.2.2-.3.4-.5.2-.1.3-.5 0-.5-.1.1.2.1 0 .2 0-.2.2-.5.4-.7 0 .1 0 .2.1.3.1-.5.4-.8.6-1.2-.1-.1.1.3 0 .3.6-.2.7-1 1.2-1 0 .1-.2-.2-.2-.1.2-.2.4.1.4-.1.1.1.1-.2.2-.3 0-.1.1 0 0 .1.1-.3.7-1.1 1.3-1.3-.1-.1 0-.5.2-.6l.1.2c.2 0 .3-.3.5-.2 0-.4-.7.9-.5.5.2.1.2-.6.3-.3.2-.2.2-.5.6-.5-.1 0 0 .4.2.2.3-.3 0-.2.2-.4l.1-.2c-.1-.2.3-.2 0-.3.2.1.4-.4.6-.1l.1.3c.1-.1 0-.4 0-.6 0 0 .1 0 .1.1-.3-.4.3-.2.3-.6.4-.1.7-.5 1-.4.1-.3.2-.5.5-.7 0 .1-.1.1 0 .2.2 0 .2-.1.3-.3 0 .1.5 0 .7 0 .1-.3-.1-.4-.2-.5.5.2.4-.7.9-.6 0 .1-.2.4.1.4.5.2.2-.6.6-.6l-.3-.2c.3.1.3-.5.5-.2 0-.2.4-.2.2-.4.7-.2 1.1-1.1 1.8-.9 0-.1.2-.2.1-.3-.2-.1-.1.2-.2.2.1-.1 0-.1 0-.2.2-.1.3-.1.4.2.5-.1 0-.8.5-1 .1.1.1.1.3 0l.1-.4c.3-.2.4.1.5.3.1-.2.3-.3.3-.5l.4.1c-.3-.1 0-.2.1-.3v.1c.1.1.2-.1.3-.2-.1-.1-.3 0-.5 0 0-.1.1-.2.2-.4.1.2.4-.1.5-.1.2-.1 0-.3.1-.3.1.1.2-.2.2.1 0 .1-.2 0-.2.1.1 0 .3.2.4-.1.1-.2-.3-.3 0-.4v.3l.3-.1-.1-.2c.1 0 .1.1.1.1-.1-.2.3-.4.2-.6.1-.1.4-.1.5-.2.2 0 .4-.2.4-.5.1-.1.3-.2.3-.4.3 0 .6.6.6.2.2-.2.1-.6-.1-.6.5-.2.7-.8 1.2-.8 0-.1-.1-.1 0-.3.6-.4 1-1.1 1.7-1.1-.1.2.1.2.2.3 0-.3.3 0 .1-.3-.1-.1-.2-.2-.4-.2.3-.3.7-.7 1-.7-.1 0-.1-.1-.1-.2.2.3.4.1.6-.1l-.1-.2.2.1c0-.1-.2-.4.1-.4.1.1.1.1.2.1.1-.3.2-.7.5-.7l.3.1c.1-.1.1-.3-.1-.3.5-.1.7-.3 1-.2.2-1 1.1-1.7 1.8-2.2l.1.1c.3 0-.1-.3.1-.3 0 .2.3.1.3.4.4-.1.2-.5.3-.7-.1-.2-.1.2-.2 0 0-.1.5-.2.3-.4.1 0 .2.2.3.4l.1-.2c.4.1-.1.8.4 1l.1-.2c.3.1-.2.6.3.4.1-.2-.1-.7-.3-.7.3-.3-.3-.7.1-.9.2.1-.3.3 0 .4.3 0 .3-.4.5-.4-.2.1-.3-.3-.2-.4.3 0 .1.3.3.1-.1-.2.1-.5-.2-.4-.1-.4.3-.1.3-.5.3.1.1.7.5.6-.2-.2.1-.6-.3-.7.2 0 .3.1.3.3.3 0 .1-.7.5-.3l-.1-.2c.1 0 .2 0 .4.1.1-.1.2-.7.5-.3 0-.1.4-.3.1-.4-.3 0-.1.3-.5.1.3.1.3-.3.3-.4l.1.1c0-.1.2-.2.2-.4 0 .1.1.2.2.2l-.1-.2c.2-.3.3.3.6 0l-.1.3c0-.1.3 0 .3-.1-.1-.2-.1-.5-.2-.6.1-.2.2.1.2-.2v.4c0 .1.4.2.6 0 .1-.2.1-.6-.2-.5.1-.1.3-.1.3.1.2-.2-.2-.2-.1-.4h.8v.5l.1-.1c0 .4.2.1.3.4.1 0 .2-.2.2-.4-.6-.1-.1-.8-.5-1 .3-.4.9.6.9-.2-.1 0-.2-.5-.3-.2.3-.2-.1-.5.3-.6-.1.3.5.2.4.6-.1-.1-.2.1-.3.1.2.1.3.4.5.2.1-.2.3-.3.1-.5-.2-.2-.2.2-.3-.1.2-.3.5-.1.4-.5-.2.2-.4 0-.5-.1l.2-.3.1.2c.4-.2-.1-.3.3-.6l.4.1c.1.3-.6.3-.2.6.2-.2.2-.4.4-.5 0 .1-.1.1-.1.2.1-.1.6.4.6-.2.1-.2-.1-.2-.2-.3.3-.3.3-.6.5-.8.2.3.4-.3.4.2-.2-.1-.7.4-.7.7.4.2-.3.2-.1.6.3-.2.5.1.7.3.1-.1.1-.2.1-.3-.1-.2-.2-.1-.4-.3.4-.2.6-.6.6-.9.2 0 .3.2.2.3.3-.4.8-.7 1.2-.9-.5-.1.3-.4 0-.5-.2.1-.6 0-.6-.2.1-.1.1.1.2.2 0-.3.5.1.4-.3-.3.4.2.4.4.7.1-.3.1.2.4 0 .1-.3.4-.7.6-1 .5-.1.9-.7 1.2-1 .3 0 .4.4.6.3.2-.2-.4-.2 0-.3v.1c0-.1.7-.3.5-.7l.1.4c.1 0 .1-.1.1-.2.1.1.2.1.2.3.4.1.4-.4.6-.5l-.3-.1c.2-.4.6-.4.9-.8l.1.2.1-.3c.1.2.4.2.4-.1l-.2.8c-.2 0 0-.3-.2-.4-.2-.1-.5.2-.4.4.1-.1.1-.1.2-.3.2.2 0 .3.1.6.1-.1.2-.1.2-.1 0 .2-.1.3-.3.5.1-.2-.2-.1-.2-.2.2.2 0 .4-.3.6-.4-.1-.4.5-.7.7-.1-.3 0-.6.1-.8-.3 0-.2.2-.5.2 0 .2.2.5 0 .8l-.1-.1c-.2.3 0 .5-.3.7-.5.3-1 .7-1.4 1l-.1-.1c.1.5-.6.7-.7 1-.6.2-.9 1-1.3.9-.7.8-1.3 1.5-2.2 2.1v-.3c0 .3-.2-.1-.3.1.3 0 0 .4 0 .6-.5.1-.9.7-1.1 1.2l-.1-.1c-.1.6-.7.6-1.2.9-.1 0-.3-.1-.4 0 0 .4-.2.5-.4 1-.2.2-.7.5-1 .6-.6 1.1-1.8 1.6-2.5 2.6l-.2-.1c-.6 1.2-2 1.7-2.7 2.6l-.2-.4c-.3.1-.5.5-.3.7-.3.1-.5.7-.9.5-.3.1-.2.4-.4.6-.6.3-.8.5-1.2.9l.1-.1c0-.1-.1-.3-.2-.2-.1.2-.7.5-.2.7-.7.2-1.1 1.2-1.8 1.3.1.1 0 .2 0 .3-.4.4-1.1.5-1.3 1-.1 0 0-.3-.2-.1-.1.1.1.1 0 .3-.6.8-1.6 1-2.3 1.6-1 1.2-2.3 2.1-3.4 3v-.1c-.1.6-1.1.4-1.1 1.1-.1 0-.4.2-.4 0-.1.5-1 .5-1.2 1.1l.1-.1c-.6.2-.8.7-1.4 1 0-.1.1-.2 0-.3-.3 0-.2.7-.6.4-.1.1.1.2.1.2-1.1.7-2 1.8-3 2.7-.9.4-.5-.6-.9.2-.1 0 .1.2 0 .1-.1.3-.7-.1-.7.2.2.2 0 .2.1.4-.6.2-.8.1-1.1.6l-.1-.1c-.2.7-.8.9-.9 1.6-2.3 2-4.4 4.1-6.7 6-2.3 1.8-4.4 3.8-6.9 5.5-.8.1-.8.2-1.3.8 0-.1 0-.1-.1-.1.2.3-.4.4-.3.7-.9.6-1.6 1.4-2.5 2.1.1-.1 0-.4-.1-.3v.3h-.1c-.1.1-.1.4.1.3-2 2-4.6 3.3-6.8 5.1-.6.3-1.3 1-1.8 1.5-1.9 1-3.7 2-5.2 3.6 0-.8-.3-1.6.2-2.4zM274 204c-.2-.1-.4 0-.4-.3.1.1.3.2.4.3z"/><path class="st1" d="M267.8 206.9h-.1c.1-.1 0-.2.1-.2-.1.1-.1.1 0 .2zM266.4 207.9c-.1-.1.1-.4.3-.6l-.3.6zM264.8 208.4c-.2 0-.2-.1-.1-.2.1.1.1.1.1.2zM264.9 208.7c-.1.1-.2.1-.3 0 .1.2.2-.2.3 0zM262 210.6c-.1.1-.1.3-.3.2.1 0 .2-.4.3-.2zM260.9 211.8s-.1 0-.1.1c-.1 0-.1-.1-.1-.2l.2.1zM238.7 230.6v-.2l.1.1zM228.8 238.6c-.1.2-.2 0-.2 0 .1-.1 0 .2.2 0zM223.9 243.5l.2.2z"/></g><g><path class="st5" d="M270.4 228l-45.8 38.8"/><path class="st1" d="M270.6 228.5c.1-.2-.3-.1 0-.2.1.1.1.2 0 .2zM225.4 266.6c0-1 1.3-1.1 1.5-1.9 0-.1.3.3.3.1.2-.9 1.3-1.4 2.3-1.7v.1c.2 0 .1-.5.3-.6.1.1 0 .1.1.2-.1-.2.2-.3.1-.5.1 0 .2.2.4.2l-.1-.3c-.2-.7.6-.4.7-.9 0 .1 0 .1.1.1.2-.7.9-1.2 1.4-1.8 0 .1.1.2.2.3-.2-.2 0-.4.1-.6.3.2.1-.4.4-.4v.1c-.1-.3.3 0 .2-.4l.2.1c-.2-.4.3 0 .3-.2l-.1-.1c0-.2.2 0 .3-.2.1-.3.4-.2.2-.4.2.1-.1.3.2.5.5-.9 1.3-1.4 2-2 .2 0 .2 0 .3.1 0-.1.2-.3.2-.5l.2.1c.2 0-.1-.4.2-.4 0 .1 0 .2.1.3 0-.3.1-.4.2-.6 0 .1 0 .1.1.2 0-.3.3-.2.3-.5l.1.2c.4 0-.2-.4.1-.4 0 .1.1.1.1.2 0-.4.3-.6.4-.8v.1c.2-.2.4-.3.6-.6.1 0 .3.4.4.1-.2-.3.3-.4-.1-.6.2-.1.6-.2.6-.4 0 .2.4.3.3.4l.3.1c.1.1-.1.1 0 .2.1-.1.2-.4.3-.4 0-.3-.2-.7 0-.9 0 .2.3.3.3.4l-.2-.8c.1-.1.2.2.2 0-.1-.1-.1-.2-.1-.2.1 0 .2-.3.5-.1.1.1-.1.2.1.2.1-.1.1-.2.2-.3.1 0 .2-.3-.1-.4-.1 0 .2.1 0 .1-.1-.2 0-.4.2-.5 0 .1.1.2.1.2 0-.4.1-.6.3-.9-.1-.1.1.3 0 .3.4 0 .3-.7.8-.6 0 .1-.2-.2-.1-.1.1-.1.3.1.3 0 .1.1.1-.1.1-.2s.1 0 0 .1c0-.2.4-.8.8-.8-.1-.1-.1-.4 0-.5l.1.2c.1.1.2-.2.3-.1 0-.3-.4.6-.3.3.2.1 0-.5.2-.2.1-.1.1-.4.3-.3-.1 0 .1.3.2.2.2-.2 0-.1.1-.3v-.1c-.1-.2.2-.1 0-.2.1.1.2-.3.4 0l.2.2c.1-.1-.1-.3-.1-.5 0 0 .1 0 .1.1-.3-.3.2-.1.1-.5.3 0 .4-.3.7-.2 0-.2 0-.4.3-.5v.2c.2 0 .1-.1.2-.2 0 .1.3 0 .5.1 0-.2-.2-.4-.2-.5.4.2.2-.5.6-.3 0 .1 0 .3.1.3.4.2 0-.4.3-.4l-.3-.2c.2.1.1-.4.4-.1 0-.2.3-.1 0-.3.5 0 .6-.8 1.2-.4 0-.1.2-.1 0-.2s0 .2-.1.1c0 0 0-.1-.1-.2.1 0 .2-.1.3.2.3 0-.2-.6.2-.8.1.1.1.1.2.1v-.3c.2-.1.3.2.5.4.1-.1.2-.2.1-.4l.3.1c-.2-.1 0-.2 0-.3v.1c.1.1.1-.1.2-.1-.1-.1-.3-.1-.3 0 0-.1.1-.2 0-.3.1.2.3 0 .3 0 .1 0 0-.2 0-.3.1.1.1-.1.2.1 0 .1-.1 0-.1.1.1 0 .3.2.3 0s-.3-.3-.1-.4c0 .1.1.2.1.3h.2l-.1-.2c.1 0 .1.1.1.1-.1-.2.2-.3 0-.5.1-.1.3 0 .4-.1.2 0 .2-.1.2-.3.1 0 .2-.2.1-.3.2 0 .6.6.5.3.1-.1-.1-.5-.2-.5.3-.1.3-.6.8-.5 0-.1-.1-.1-.1-.2.4-.2.5-.8 1.1-.7 0 .2.1.2.2.3 0-.2.2.1 0-.2-.1-.1-.2-.2-.3-.2.1-.2.4-.5.7-.5-.1 0-.1-.1-.1-.2.2.3.4.2.4 0l-.1-.2.2.1c0-.1-.2-.4 0-.3.1.1.1.1.2.1 0-.2 0-.6.2-.5l.3.1c0-.1 0-.3-.1-.3.3 0 .5-.1.7 0 0-.8.5-1.2.9-1.6l.1.1c.2 0-.1-.2 0-.2.1.1.3.2.3.4.3 0 0-.4.1-.5-.1-.2 0 .2-.1 0 0-.1.3-.1.2-.3.1.1.2.2.3.4v-.2c.3.2.1.7.5.9l.1-.1c.3.2 0 .5.3.4 0-.2-.2-.6-.4-.6.2-.2-.4-.6-.1-.8.2.1-.2.2 0 .3.3.1.1-.3.3-.3-.2 0-.3-.3-.2-.4.2 0 .1.3.3.2-.1-.2 0-.4-.2-.4-.2-.3.2-.1.1-.4.2.2.2.6.5.6-.2-.2 0-.5-.4-.7.1 0 .3.1.3.3.2 0-.1-.6.3-.2l-.1-.2c.1 0 .2.1.3.1.1-.1 0-.5.3-.2 0-.1.2-.2 0-.4-.2 0 0 .3-.3 0 .3.2.2-.2.2-.3l.1.1c0-.1.1-.1 0-.3 0 .1.1.2.2.2l-.1-.2c.1-.2.3.3.4.1v.2c0-.1.2.1.2-.1l-.3-.6c0-.2.2.1.1-.1v.3c0 .1.3.2.4.1 0-.1 0-.5-.2-.4.1-.1.2 0 .3.1.1-.2-.2-.2-.1-.4.1.1.4.1.7.2l.1.4.1-.1c.1.3.2.1.3.4.1 0 .1-.2.1-.3-.5-.2-.2-.7-.6-1 .2-.3.8.7.6 0-.1-.1-.2-.4-.3-.2.2-.1-.2-.4.1-.4 0 .2.4.2.4.6-.1-.1-.2 0-.2.1.2.1.3.3.4.2.1-.1.2-.2 0-.4s-.1.1-.2-.1c.1-.2.4 0 .2-.4-.1.1-.3-.1-.4-.2l.1-.2.1.2c.3-.1-.1-.3.1-.4l.3.2c.1.3-.4.2 0 .5.1-.1 0-.3.2-.3v.2c.1 0 .5.4.5 0 0-.2-.1-.1-.2-.3.2-.2.1-.4.3-.6.2.3.3-.2.3.2-.2-.1-.5.2-.4.5.3.2-.2.1 0 .5.2-.1.4.2.6.3.1 0 0-.2 0-.2-.1-.2-.2-.1-.4-.3.2-.1.3-.4.3-.6.1 0 .3.2.2.3.2-.3.5-.4.7-.6-.4-.2.2-.3-.1-.4-.2 0-.5-.1-.5-.3.1 0 .1.1.2.2 0-.2.4.1.2-.2-.1.3.3.4.4.7 0-.3.1.2.3 0 0-.3.1-.5.3-.7.4 0 .5-.4.7-.6.2 0 .4.4.5.3.1-.1-.3-.2 0-.2v.1c0-.1.5-.1.2-.5l.2.3c.1 0 0-.1 0-.2.1.1.2.1.2.3.3.1.2-.2.3-.4l-.2-.1c.1-.3.4-.3.5-.5l.1.2v-.2c.1.2.3.2.3 0v.7c-.2 0-.1-.3-.3-.4-.2-.1-.3.1-.2.3.1 0 .1-.1.1-.2.2.2.1.3.2.5 0 0 .1 0 .1-.1 0 .2 0 .3-.2.4 0-.2-.2-.1-.2-.2.2.2.1.4-.1.5-.3-.1-.2.4-.4.5-.1-.3-.2-.5-.1-.7-.2 0-.1.1-.3.1.1.2.2.5.2.7l-.1-.1c-.1.2.1.4-.1.5-.4.2-.7.4-.9.6l-.1-.1c.2.4-.3.5-.4.8-.4.1-.5.7-.9.5-.4.5-.7 1-1.3 1.4l-.1-.3c0 .2-.2-.1-.2 0 .3.1.1.3.1.5-.4 0-.5.5-.6.8l-.1-.1c0 .5-.4.4-.7.6-.1 0-.3-.1-.3-.1.1.4 0 .4-.1.7-.1.1-.4.3-.7.3-.3.8-1 1.1-1.4 1.8l-.2-.1c-.2.9-1.2 1.1-1.5 1.7l-.2-.4c-.2 0-.3.4-.1.6-.2 0-.3.5-.6.3-.2.1-.1.3-.2.5-.4.1-.5.3-.7.6h.1c0-.1-.1-.2-.2-.2 0 .2-.5.3-.1.5-.5.1-.6.8-1.1.8.1.1.1.2.1.3-.3.2-.7.3-.8.6-.1 0-.1-.2-.2-.1 0 .1.1.1.1.3-.3.6-1.1.6-1.4 1-.6.8-1.4 1.3-2.1 2l-.1-.1c0 .5-.8.2-.6.8-.1 0-.2.1-.3 0 0 .4-.7.2-.7.7v-.1c-.4.1-.5.5-.9.6v-.2c-.2-.1 0 .5-.4.2-.1.1.1.2.1.2-.7.4-1.2 1.2-1.8 1.8-.6.2-.5-.6-.7 0-.1 0 .1.2 0 .1-.1.2-.6-.2-.5.1.2.2 0 .2.1.3-.4.1-.6-.1-.7.3l-.1-.1c0 .5-.4.6-.3 1.2-1.4 1.3-2.6 2.7-4 3.9-1.5 1.1-2.7 2.4-4.3 3.4-.6 0-.6 0-.9.4 0-.1 0-.1-.1-.1.2.3-.2.2-.1.5-.6.4-1 .9-1.5 1.3.1-.1-.1-.3-.2-.2v.2l-.1-.1c0 .1 0 .3.1.3-1.2 1.4-2.9 2-4.2 3.2-.4.2-.8.6-1.1 1-1.3.5-2.4 1-3.3 2.1.8-.9.4-1.7.7-2.2zM270.4 228.7c-.1-.1-.3-.1-.4-.3.2.1.4.2.4.3z"/><path class="st1" d="M266.2 230.1h-.1s0-.2.1-.1c-.1-.1 0 0 0 .1zM265.3 230.7c-.1-.1 0-.4.1-.5l-.1.5zM264.2 230.8c-.1 0-.2-.1-.1-.2.1.1.1.2.1.2zM264.4 231.1c-.1.1-.1 0-.2 0 0 .1 0-.2.2 0zM262.5 232.2s0 .2-.2.1c.1.1.1-.3.2-.1zM261.9 233c-.1 0-.1 0 0 0-.1 0-.2-.1-.1-.1l.1.1zM248.5 245.1v-.1l.1.1zM242.5 250.2c0 .1-.1-.1-.2-.1.1 0 .1.2.2.1zM239.7 253.5l.2.2z"/></g><g><path class="st4" d="M345.4 120.5l-27.7-34.7-41.6 15.6 24.5-37.1-27.8-34.8 42.9 11.9 24.5-37.1 2 44.4L385 60.5l-41.6 15.6z"/><path class="st1" d="M344.3 120c1.1 1.2-.3-.8.8.8-.3-.1-.5-.3-.8-.8zM345.5 115.1c-1-5.2-.5-12.2-1.3-17.9-.1-.7.4.2.3-1.4-.4-2.6-.6-5.9-.7-9.4-.1-1.7-.1-3.5-.1-5.3v-2.6-2.3c.4-.1.8-.2 1.1-.3l-.2.2c.4-.1 1.2-.5 1.8-.8.7-.3 1.3-.7 2-.9 0 .1-.4.3 0 .2.2-.3 2.3-1 2.8-1.3.5-.1.6.1 1.2-.1l.6-.5c1.8-1.4 5-1.8 7.6-3.2-.1.1-.4.3-.1.2 4.3-2 10-4.1 14.9-6.1-.2.2-.3.4 0 .4.1-.4 1.7-1 3-1.6.4 0 .9-.2 1.4-.5.5-.3 1-.6 1.8-.8v.1c.2-.2.6-.3 1-.5.4-.1.9-.3.7-.4h.1c0-.1.1-.1.1-.2-.8 0-1-.1-1.2-.3-.2-.1-.5-.3-1.2-.4l-.1.1c-.9-.1-1.1-.4-1.9-.6v-.1c-.2-.1-.4-.1-.6-.2-.2-.1-.4-.1-.6-.2-.4-.1-.7-.2-1-.3-.5-.2-.8-.2-.8 0-.6-.4 2 .4 1-.2-6.7-1.5-13.6-3.5-20.3-5.3-.7-.3-1.2-.5-1.3-.7-.7-.1-2.5-.6-3.2-.7.2.1-.4-.3-.7-.4-1.2-.5-1.4 0-2.7-.5.6.1.8 0 .6-.1-1.2-.1-2.7-.5-4.1-.8.2 0 .6.1.5 0-1.4-.1-2.4-.6-3.6-.9 0-.2 0-.3-.1-.5.1.1.1.3.2.4.1-1.1 0-1.2-.2-1.3-.1-.1-.2-.2-.2-1.1.1.4.1.3.2.4-.4-1.7-.4-4.6-.6-6.3 0 .1.1.1.1.1-.1-1.9-.1-3.9-.4-6 0-.8.5.2.3-1.8-.4.1-.3-3.4-.7-2.2 0-1.7 0-4.4-.2-5.6.2.8.4-.9.5.6l.2-1.1c.2.2 0 1.1.2.8 0-.7-.3-2.8-.3-3.4-.3-1.3-.8-2.5-.9-4.6.2 1 .4-.6.5.1l-.8-3c0-.7.3-.2.1-1.2-.1.1-.2-.4-.3-.7v-.6-.9c0-.5 0-1.1.2-1.4.1-.4.1.9.2.1-.1-1.2-.2-1.1-.2-2.2V7c0-.4-.1-.9-.1-1.1-.1-.2-.2 0-.2.7 0 .5.2-.8.1.2-.1 0-.2-.1-.2-.4-.3.5-.5.9-.8 1.3.2-.4.2-.6.3-1-.4.9-.8 1.6-1.1 2.2-.1.3-.3.5-.4.8l-.2.4-.1.2-.2.3c.1.1.1-.1.1-.4 0-.2 0-.4.1-.4-.2.2-.6.9-1 1.4-.3.5-.7 1.1-1 1.6-.6 1.1-1.2 2.1-2 2.9.2-.3.3 0 .3 0-.7 1-.9.8-1.2 1.5-.2 0-.5.9-.9 1.6-.1.4-.2.1.2-.5-.5 1-2.8 5-4.5 7 .1 0-.6 1.5-.9 2l-.1-.3c-.4.4-1.1 1.7-1.3 1.7-.5 1.2 2.5-4.3 1.8-2.7-.4.3-1 2.2-1.1 1.7-.7 1-1.1 2.1-1.9 3 .2-.3.3-1-.2-.2-.9 1.5-.2.5-.9 1.7l-.4.8c.2.2-.9 1.3-.3.9-.3.1-1.3 2.2-1.5 1.8l-.1-.4c-.4.6-.4 1.2-.6 1.8-.1.1-.2.2-.3.1.3.3-1 1.5-1.2 2.4-.1.2-.2.3-.4.5-.1.2-.3.4-.5.6-.4.6-.8 1.1-1.2 1.7-.7-.2-1.3-.4-1.9-.6-.6-.2-.7-.3-.9-.4-1.2-.2-2.3-.3-3.6-.8.3 0 .6.1.7 0-.8-.4-1-.3-1.8-.4.2 0-1.6-.7-2.5-1.1-1.2-.2-.9.1-1 .3-.9-.7-3.3-.6-4.5-1.4.4.1 1.7.3.8-.1-.9-.7-2.2-.3-3.9-.9l.3.5c-.7-.4-2.6-.5-2.3-.8-.6 0-2-.7-1.9-.3-2.7-1.1-6.8-1.7-8.4-2.8-.4-.1-1.4-.4-1.2-.2.6.4 1 .1 1.2.3-.4-.1-.5 0-.5 0-.8-.3-1.5-.5-.6-.6-1.9-.7-2.2 0-4.6-.8.1-.1.1-.1 0-.2-.1 0-.1-.1-.3-.1-.1 0-.3-.1-.4-.1-.3 0-.5 0-.6.1-.7-.2-.7-.5-.9-.8-.5-.1-1.3-.3-1.1-.1-.4-.2-.8-.4-1.3-.7.8.4.3.3 0 .2.1.1.2.2.2.3l-.3-.3c-.2-.1.4.6.7.9.3.1.1-.3 0-.4l1 1c-.6-.4.1.4.3.6.2.3.6.4.6.5-.2 0 .4.5 0 .3-.1-.1 0-.3-.3-.4 0 .2-.2.2.4.7.2.2.3.1.4 0 .1-.1.2 0 .6.7-.3-.3-.4-.3-.7-.5l.8 1.2.2-.1c.1.2 0 .1 0 .2.5.2 1.5 1.7 1.9 1.8.5.6.9 1.3 1.3 1.9l-.1-.1c.4.8 1.2 1.6 1.8 2.1h-.1c.3.4 1 1.2 1.5 1.6.6 1-.4.8.6 1.7.8.9 1.5 1.2 1.3.8 1.2 1.8 3.1 3.5 4.1 5.3.3.2.2 0 .6.5 1.9 2.6 4.4 5.1 5.7 7.4-.7-.7-.2.1-.3.2.6.5.4.8.9.9.1-.2.2-.2-.3-.9.6.7 1.4 1.6 2.1 2.5.3.4.6.8.9 1.3.4.6.8 1.1 1 1.4-.4-.7 0-.2.6.3-.1 0-.1 0-.1.2-.2.2-.6.7-1 1.2-.2.3-.4.5-.5.8l-.3.6.1.2-.5.5c-.2.4.1.6-.6 1.4-.1 0-.2 0-.3.1-.5 1-1.1 2.5-1.9 3.4l-.8.7c-.3.4-.6 1.3 0 .6-1.3 1.6-2 2.7-2.6 3.1-1.4 3.3-4.2 7.5-6.5 10.9l-.1-.2c-.7.8-.1.6-.6 1.2.1-.4-.7.5-.4-.3-1 1.2-.9 1.8-1.4 2.7.1.2.3-.8.4-.5 0 .2-1.3 1.7-1.2 2.1-.3.3-.3-.1-.3-.3l-.4.9c-.9.8 1-2.6-.1-1.8l-.5.8c-.7.5 1-2.1-.3-.3-.4.9-.5 1.8.1 1.2-1 1.7.1 1.2-1.1 2.9-.5.4.9-1.5.5-1.2-.7.7-1.1 1.9-1.3 2 .2-.2.3-.1.3-.1.1.1.1.2.1.2-.2.1-.2.1-.3.1 0 0-.1-.1-.3.2.2.1.2.2.5-.1.3-.1.2 0 .1.1s-.3.2 0 .1c-.3.2-.6.4-.9.5-.2.1-.4.2-.8.6.5-.3.4-.1.9-.5.1-.1.2-.1.3-.3 0 0 .1-.1.3-.2l-.1.1c-.2.2-.5.5-1 .8 0 .1.4-.2.7-.4.3-.2.4-.2.1.1l.4-.4c0 .1 0 .2.1.3.1-.1.4-.2.6-.3.1-.1.1-.1.2-.1s.3 0 .3.1c.2-.1 2-.8 1.3-.8-.6.1-.9.3-1.1.4-.1.1-.2.1-.4.1-.1 0-.1 0-.2-.1 0 0 0 .1.1.1 0 0 .2 0 .3-.1l.6-.3c.4-.2.7-.4 1-.6l.2.1c.4-.2 1.3-.5 1.4-.7-.3.2-.1.2.2.2l.3-.4c1.5-.7.5.2 2-.4l-1.1.6c.2-.1.8-.1 1.5-.5.2-.3.6-.7.8-1 .8-.4.5.1 1.2-.4l-1 .7c-.1.1.9.1 2-.4.7-.3 1.7-1.1.5-.7.6-.2 1.4-.4 1-.1 1.3-.6-.3-.2.8-.7.5 0 2-.4 2.9-.5l-1 .8.8-.3c-.9.6.6 0 .1.5.5-.2 1.2-.5 1.6-.8-1.7.1 1.5-1.3.9-1.5 2.1-.9 1.7.5 3.7-1-.4 0 .5-.7-.8-.1 1.3-.5.7-.8 2.4-1.2-1.1.6 1.4 0-.2.8.1-.2-1 .2-1.2.4.6 0 0 .5 1.4-.1.8-.4 1.9-.8 1.7-.9-.1-.2-1.3.5-.8.1 1.6-.7 2-.4 2.6-1.1-1 .4-1.4.3-1.4.1l1.2-.6-.2.2c2-.6.5-.5 2.4-1.2h1c-.3.4-2.8.9-2.3 1.2 1.2-.4 1.6-.8 2.8-1.1l-.8.4c.4-.2 1.1.3 2.7-.7.9-.5.2-.2.1-.4 1-.4 1.6-.7 2.1-.9.2-.1.7-.3 1.2-.5s1-.4 1.6-.6c-.1.1 0 .1.2.1.4.8 2.2 2.7.7 1.3-.1-.2-.4-.6-.8-1.1-.5.2-1 .3-1.6.6l-.9.3c-.2.1-.4.1-.5.2-.6.3-1.2.6-1.4.8.9.1-1.6.5-1.8 1.1 1.6-.6 1.6-.2 2 0 .4-.1.8-.4 1.1-.5.1-.3-.5-.1-.6-.3.6-.2 1-.4 1.6-.6.7-.3 1.4-.6 2-.8.6.6 1.1 1.2 1.6 1.6.2.3.1.4 0 .4s-.3-.1-.6-.5c.4.5.8.9 1.2 1.4l1.1 1.3c.7.9 1.4 1.8 2 2.7-.5-1.3 1.6 1.8 1.2.9-.6-.9-1-1.9-.5-1.5.4.6-.2.1 0 .4.7.6.6 1.3 1.4 1.8-1.4-1.5-.6 0-1.1-.1 1.1 1-.2.1.7 1.2 1.1 1 2.3 2.4 3.4 3.6 1 1.8 3.2 4.1 4.4 5.5.5.8-.2.6.4 1.4.8.9-.3-.9.7.6l-.2-.1c.4.4 1.9 2.7 2.6 2.8l-.6-.2c.2.3.4.5.7.7-.1.1.1.5-.3.1.5 1 1.5 1.8 2.3 2.7l-.3-.8c1.4 1.5 2.1 2.7 3.4 4.3l-.2.1.8.9c-.3-.1.2.8.8 1.2l-2.4-2.1c-.4-.8.8.6.6 0-.1-.5-1.3-1.9-1.7-2 .4.6.5.6.9.9-.1.4-.8-.5-1.3-.8.2.3.5.8.6.8-.6-.5-1.1-1-1.8-2 .6.6-.1-.5.1-.3-.3.1-1.1-.8-1.9-2-.4-1-1.9-2.1-2.9-3.5.7.4 1.4 1 2.1 1.7-.6-.9-.8-.9-1.3-1.9-.5-.3-1-.4-2-1.4l.1-.2c-.9-.9-1.1-.8-2.1-2.1-1.7-2.3-3.5-4.5-4.8-6.2l.1-.2c-1.1-.7-2.6-3-3.8-4.2-.7-1-1.5-2-2.3-3-.4-.4-.7-.9-1-1.3-.2-.3-.4-.5-.5-.8h-.3l-3 1.2c-1.1.4-2.1.9-3.2 1.3-2.1.9-4.3 1.7-6.7 2.5l.7-.6c-.8.5-.6 0-1.4.4 1-.1-1 .7-1.6 1.1-2.2.6-4.8 1.8-6.6 2.7l-.1-.2c-1.7 1.1-4.1 1.6-6.5 2.4-.3 0-.8 0-1.5.3-1.2.8-1.8 1-3.6 1.9-.9.3-2.1.7-3.2 1.2-1.3.5-2.6.9-3.5 1.2-1.2.5-2.5 1.1-3.7 1.6.8-1.4 1.8-2.9 2.8-4.4 1-1.5 1.9-3 2.9-4.5 1.3-2 2.6-4 3.8-6.1l.4-.2c2.6-4.9 6.7-10.3 9.1-14.3l.1.6c.9-1.2 1.8-2.9 1.3-2.7.9-1.2 1.9-3.2 2.7-3.8.9-1.2.9-1.6 1.5-2.7.2-.2.3-.4.5-.6.2-.3.2-.2.2-.3.1-.1.2-.2.2-.3-.1-.1-.1-.2-.2-.3-.1-.2-.3-.3-.4-.5-.4-.5-.9-1.1-1.5-1.8l.4.6c.3.2.4.1 0-.5-.7-.8-2.3-3.1-2.1-2-1.7-2.6-4.6-5.4-6.1-7.9.1.3-.4-.3-.7-.5-1.7-2.1-3.2-4.4-4.7-6-.2-.4.6.4-.1-.5-.4-.5-.1.1-.7-.5-1.4-1.6-2.8-3.4-4-5.1-.6-.9-1.3-1.7-1.9-2.6l-.9-1.2c-.5-.7-1.1-1.3-1.6-2-1.9-2.3-3.9-4.7-5.8-7.1 6.8 1.9 13.7 3.7 20.1 5.5l-.1.1c2.3.2 5 1.8 6.8 1.7.5.2 1.9.6 1.5.7 1.8.2 4.8 1.6 7.3 1.9-.2-.1-.4-.1-.6-.1 2.5.9 4.7 1.2 7.3 2.1-.3 0-.8-.1-.9-.1 1 .5 2.5.3 3 .9.6.2.5-.1.1-.2l2.1.6 1.5-2.4 2.1-3.3c1.4-2.2 2.8-4.4 4.1-6.6 2.7-3.6.8.2 2.5-2.9.2-.2 0-.3.1-.3.6-1.2 1.6-1.5 1.9-2.4-.5.2.2-.6.1-.7 1.7-2.2 2.2-2.5 3.2-4.4v.2c1-2.4 2.9-4.7 3.6-6.7 2.5-3.9 5-7.7 7.4-11.4.7 13 1.4 25.6 2.1 38.3.1 3.3.3 6.7.4 10 4.1 1.1 8.3 2.3 12.4 3.4 4.6 1.3 9.3 2.6 14 4 3 1.2 3.2 1.3 6.7 2.1-.2 0-.4 0-.2.1.1-.1.7 0 1.3.2.4.1 1.8.5 2.2.4 3.6 1 7.2 2 10.7 3-4.6 1.8-9.2 3.5-14.1 5.3.8-.3 1.1-.7.1-.4l-.9.6h-.2c-.6.3-1.2.7-.6.5-5.3 2.1-10.6 4-15.9 5.9-4.9 1.7-9.7 3.5-14.5 5.2v1.2l.1 2.6c0 3.1.3 7.4.5 10.7 0 9.8 0 18.7.8 28.6.1.1-.8-1.1-1.2-5.2z"/><path class="st1" d="M343 118.5c-.1-.4-.7-1.3 0-.7 0 .1.2.7 0 .7zM325.4 93.6c-.1 0-.2-.4-.3-.5.2.3.6.5.7.8-.2-.3-.3-.2-.4-.3zM320.6 87.5c.2 0 1.3 1.2 1.9 2l-1.9-2zM313.2 85.5c-.6.1-.5 0 .3-.3.1 0-.2.2-.3.3zM312.8 86c-.6.2-.9.2-1.2.3.1.1 1.3-.6 1.2-.3zM297.9 91.1c-.4.1-1.1.5-1.5.5.5 0 1.7-.8 1.5-.5zM291.2 93.9c-.2.1-.3.1-.6.2-.4.1 0-.2.3-.3l.3.1zM299.2 38l-.7-.2.1-.1zM338.5 8.8c.2-.5.1.1.1.1-.2.3.1-.5-.1-.1zM341.1 33v-.3l.3.1z"/></g><g><path class="st4" d="M66.9 356.7l-24.5-20.1-26.7 17.1 11.6-29.5-24.5-20 31.6 1.8 11.5-29.5 8 30.6 31.6 1.9-26.6 17.1z"/><path class="st1" d="M66 356.6c.9.7-.3-.6.7.4-.3 0-.5-.1-.7-.4zM66.3 352.9c-1.7-3.4-2.2-8.4-3.7-12.2-.2-.5.4 0 .1-1-.7-1.7-1.4-4-2-6.4-.3-1.2-.6-2.4-.8-3.7l-.3-1.8c-.1-.6-.2-1.1-.2-1.5.3-.1.5-.3.8-.4l-.2.1c.2-.1.3-.2.4-.3.2-.2.4-.3.6-.5.4-.3.8-.7 1.2-.9 0 .1-.2.3 0 .2.1-.3 1.4-1 1.7-1.4.4-.1.4 0 .9-.1l.3-.5c1-1.4 3.2-2 4.8-3.4-.1.1-.2.3 0 .2 2.7-2.2 6.3-4.4 9.4-6.6-.1.2-.1.4.1.4 0-.2.3-.4.6-.7.3-.3.7-.6 1-.8.3-.1.6-.3.9-.6.3-.3.5-.5 1.1-.8h.1c0-.2.3-.3.6-.5s.6-.3.3-.3h.1c.1-.1.2-.1.2-.2-.8.2-.8.1-1 0-.1-.1-.3-.2-.8-.1l-.1.1c-.7.1-.7-.1-1.4-.1-1.4 0-2.1-.2-2.1.1-.4-.3 1.3 0 .7-.5-5 0-10-.3-15-.6-.6-.2-.9-.2-1-.3-.5 0-1.9 0-2.3.1.2 0-.3-.2-.6-.2-.9-.2-1 .3-2 .1.4-.1.5-.2.4-.3-.9.2-2 .1-3 .1.2 0 .4-.1.4-.2-1 .2-1.8-.1-2.7-.1 0-.1-.1-.2-.1-.3.1.1.2.1.2.2-.2-1.6-.4-.2-.7-1.6.1.3.2.2.3.2-.6-1.1-1-3.1-1.5-4.3 0 .1.1 0 .1 0-.4-1.3-.6-2.7-1.2-4.1-.1-.5.5.1.1-1.3-.3.1-.8-2.3-1-1.4-.3-1.2-.6-3.1-.9-3.9.3.5.3-.7.6.3v-.8c.2.1.2.8.3.5-.1-.5-.7-1.9-.7-2.3-.5-.9-1.1-1.6-1.5-3 .3.7.3-.5.5 0l-1.2-1.9c-.1-.5.2-.2 0-.8-.1.1-.2-.1-.3-.2 0-.2-.4-1.2-.2-2 0-.4.2.6.2-.1-.2-.8-.3-.6-.5-1.4v-.1c-.1-.3-.2-.6-.3-.6-.1 0-.1.2-.1.7.1.3 0-.8.1 0-.1.1-.2.1-.2-.1-.1.4-.2.8-.3 1.1.1-.3.1-.6.1-1-.3 1.7-.6 2.5-.8 3.3.1.2-.1-.6 0-.7-.1.2-.3.5-.4.8 0 .1-.1.3-.1.4l-.1.2-.1.3c-.3.9-.5 1.7-1 2.3.1-.2.3 0 .2 0-.3.8-.6.7-.7 1.2-.2 0-.2.7-.4 1.2 0 .3-.1.1 0-.4-.2.8-1.1 3.9-2 5.6.1 0-.1 1.2-.3 1.6l-.2-.2c-.3.3-.5 1.4-.7 1.3-.1 1 1.1-3.4.8-2.2-.3.2-.3 1.7-.5 1.4-.3.8-.4 1.7-.9 2.4.1-.2 0-.8-.3-.1-.4 1.2 0 .4-.3 1.3l-.1.6c.2.1-.4 1 0 .7-.2.1-.5 1.7-.8 1.5l-.2-.3c-.2.5 0 .9-.1 1.4-.1.1-.2.2-.2.1.4.2-.5 1.2-.4 1.9-.1.2-.3.7-.5 1.1-.2.4-.4.9-.6 1.3-1-.1-1.9-.2-2.3-.3-.9.1-1.7.2-2.7 0 .2 0 .5 0 .5-.1-.6-.2-.8-.1-1.3 0 .1-.1-1.2-.3-1.9-.5-.9.1-.6.3-.7.5-.8-.5-2.4.1-3.4-.3.3 0 1.3-.1.6-.3-.8-.5-1.6.2-2.8-.1l.3.4c-.5-.3-1.9.1-1.7-.3-.4.1-1.5-.2-1.4.2-2-.4-5-.1-6.3-.8-.3 0-1-.1-.9.1.5.2.7-.1.9 0-.3 0-.3.1-.4.1-.6-.1-1.1-.2-.5-.4-1.3-.3-1.9.5-2.5.3 0-.1-.1-.2-.4-.2l-.2.2c-.6-.1-.9-.4-1.2-.7-.3 0-.9 0-.6.2-.4-.1-.8-.3-1.3-.4.8.2.4.2.2.2.1.1.1.1.2.1l-.3-.2c-.3-.1.3.3.6.5.3.1.2-.1.2-.2.4.2.6.4 1 .6-.7-.3 0 .2.1.3.1.2.7.3.7.3-.2 0 .3.3-.1.1-.2-.1 0-.1-.3-.3 0 .1-.4.1.2.4.4.2.6-.1.8.2.1.3 0 .3-.3.3l.3.4.2-.1c0 .1-.1.1 0 .1s.2 0 .2.1c0 0 .1 0 .1.1l.2.2c.3.2.6.5.8.4.4.3.8.8 1.1 1.2h-.1c.4.5 1.1.9 1.6 1.2H12c.2.2.9.7 1.3.9.6.7-.3.8.6 1.2.7.5 1.3.5 1.1.2 1.1 1.1 2.7 1.9 3.6 3.1.2.1.2-.1.5.2 1.7 1.5 3.9 2.8 5 4.3-.6-.3-.2.1-.2.3.5.2.4.6.7.4.1-.2.2-.2-.3-.7.6.4 1.2.9 1.8 1.4.4.3.7.6 1.1.9.4.3.7.6.9.9-.4-.4 0-.2.5.1-.1 0-.1.1-.1.1-.3.4-.8 1.4-1 2.3l.1.2-.4.4c0 .3.3.4-.2 1.1-.1 0-.2 0-.3.1-.1.8-.3 1.9-.8 2.7l-.5.5c-.1.4-.2 1 .1.4-.7 1.3-1.1 2.2-1.4 2.5-.3 2.6-1.6 5.9-2.7 8.6l-.1-.1c-.4.7.1.5-.2.9 0-.3-.5.4-.4-.2-.6 1-.3 1.4-.5 2.1.1.2.1-.6.3-.4 0 .1-.7 1.4-.5 1.7-.2.2-.3-.1-.4-.2l-.1.7c-.6.7.1-2-.6-1.3l-.2.6c-.5.4.3-1.7-.4-.2-.1.7.1 1.4.4.9-.1.3-.1.6-.1.7 0 .1.1.2.2.2.1.1.3.2.1.4-.3.2.1-.4-.2-.4-.2.2-.2.4-.2.5 0 .2 0 .2-.1.4.3-.4.5-.3.6-.3-.3.4-.3.1-.5.5.2-.1.3-.1.6-.4.3-.2.2-.2.2-.1-.1.1-.2.3.1 0-.3.3-.5.6-.8.8-.2.2-.4.4-.7.8.4-.4.5-.3.9-.8.1-.1.1-.2.3-.3 0-.1.1-.1.2-.3 0 0 0 .1-.1.1-.1.2-.4.6-.8 1-.1.1.3-.2.5-.4s.3-.3 0 .2l.4-.6c-.1.1-.1.2-.1.4l.4-.4c.1-.1.2-.2.2.1.1-.1.5-.3.3-.5-.1 0-.1 0-.2.1 0 .1-.1.1-.1-.2 0 .2.1.1.1 0s.1-.2.1-.3l.1.1c-.2 0 .6-.4.6-.6-.1.2 0 .2.2.1l.1-.4c.9-.7.5.2 1.4-.5l-.6.6c.1-.1.6-.2 1-.5.1-.3.3-.7.3-1 .5-.4.4 0 .8-.5l-.6.7c-.1.1.7 0 1.4-.5.4-.4 1-1.1.2-.7.4-.2 1-.5.7-.1.8-.6-.2-.1.4-.7.4-.1 1.4-.5 2.1-.7l-.6.8.5-.3c-.5.7.4 0 .2.5.4-.2.7-.5 1-.8-1.3.2.8-1.3.2-1.5 1.3-1 1.4.4 2.5-1.1-.3.1.2-.7-.6 0 .9-.5.3-.7 1.4-1.2-.6.6 1-.1.1.8 0-.2-.7.3-.8.4.4-.1.2.4 1-.1.5-.4 1.2-.9 1-1-.2-.2-.8.5-.6.1 1-.8 1.4-.5 1.6-1.2-.7.5-1 .3-1 .2l.7-.6-.1.2c1.3-.7.2-.5 1.4-1.2l.7-.1c-.1.4-1.8 1-1.4 1.3.8-.5.9-.9 1.7-1.2-.1.1-.4.3-.5.4.3-.2.9.2 1.8-.9.5-.5.1-.2 0-.4.3-.2.6-.4.8-.6.2-.2.3-.3.7-.5.6-.5 1.1-.9 1.9-1.3-.1.1 0 .1.1.1.4.5 1.9 1.5.7.9-.1-.2-.4-.4-.7-.7-.6.3-1.4.9-2.1 1.4-.2.1-.2.2-.3.3-.1.1-.2.1-.2.2-.1.1-.3.3-.3.4.7 0-1 .6-1.1 1.1 1-.6 1.2-.3 1.5-.2.3-.2.5-.4.6-.6 0-.3-.4 0-.5-.2.2-.1.3-.2.5-.3.2-.1.4-.3.7-.4.4-.3.9-.6 1.3-.9.5.3 1 .6 1.3.8.5.5.1.6-.4.2l1.2.9.9.8c.6.5 1.2 1.1 1.8 1.6-.5-.9 1.4 1 1.1.3-.6-.6-.9-1.2-.5-1.1.4.3-.1.1 0 .3.6.2.6.9 1.3 1-1.2-.8-.5.2-.9.3.9.5-.2.1.6.8.9.5 2 1.2 2.9 1.9.9 1.2 2.9 2.4 3.9 3.2.4.6-.2.5.4 1.1.7.5-.3-.7.6.2H56c.4.2 1.7 1.7 2.3 1.5h-.6c.2.2.4.3.6.3-.1.1.1.4-.3.2.4.7 1.3 1 2 1.6l-.3-.5c1.3.8 1.9 1.6 3 2.4l-.2.1.7.4c-.3 0 .2.6.7.8l-2.1-1c-.4-.5.7.2.5-.2-.1-.4-1.2-1.1-1.5-1.1.4.3.4.3.8.5-.1.3-.7-.2-1.1-.2.2.2.4.5.6.4-.5-.2-.9-.5-1.6-1.1.5.3-.1-.4.1-.3-.2.2-.9-.3-1.7-1-.4-.7-1.7-1.1-2.6-2 .6.1 1.2.3 1.9.7-.5-.6-.7-.5-1.2-1.1-.4-.1-.8 0-1.7-.6l.1-.2c-.8-.5-1-.3-1.8-1.1-1.5-1.4-3.1-2.7-4.3-3.7l.1-.2c-.9-.2-2.3-1.7-3.3-2.3-.6-.6-1.4-1.2-2.1-1.7-.3-.2-.6-.4-.8-.6l-.5-.5h-.2c-.3.2-.5.4-.8.6-.3.2-.7.5-1 .7-.7.5-1.3.9-2 1.4-1.4.9-2.7 1.8-4.3 2.8l.3-.6c-.4.5-.4.1-.9.5.7-.2-.6.7-.8 1.1-1.5.7-3.1 2-4.1 2.9l-.2-.1c-1 1.1-2.6 1.7-4.1 2.6-.2 0-.6.1-1 .4-.3.4-.6.7-.9.9-.2.2-.9.7-1.8 1.4-1.4.9-3.5 2.2-4.6 2.7-.8.6-1.6 1.2-2.5 1.8.7-2.1 1.7-4.6 2.6-7.1l1.2-3.3c.3-.8.6-1.6.8-2.4l.3-.2c1-3.8 3.1-8.2 4.1-11.4l.3.4c.5-.9.8-2.3.4-2.1.5-.9.8-2.5 1.3-3 .5-1 .3-1.3.6-2.1 0-.1.1-.2.1-.2v-.1l.1-.1c.1-.1.1-.2.1-.2-.1-.1-.2-.2-.4-.3-.4-.3-.8-.6-1.3-1l.4.3c.2.1.4 0 0-.4-.7-.4-2.1-1.8-1.8-1-1.5-1.6-4.1-3-5.4-4.7.1.2-.4-.1-.6-.2-1.5-1.2-2.8-2.7-4.2-3.5-.2-.2.5.1-.1-.4-.4-.3-.1.1-.6-.2-1.3-.9-2.4-1.9-3.6-2.9-.3-.3-.6-.5-.8-.8l-.2-.2-.4-.3-.7-.6c-1-.8-1.9-1.6-2.8-2.3-1.7-1.3-3.5-2.7-5.2-4.1 3.3.2 6.7.4 10 .5 2.1.1 4.3.2 6.3.4l-.1.1c1.6-.3 3.7.6 5 .1.4.1 1.4.1 1.1.3 1.3-.2 3.5.5 5.4.2h-.5c1.8.3 3.5.1 5.4.4-.2 0-.6 0-.6.1.7.2 1.8-.3 2.2.2.4 0 .3-.2.1-.2.4 0 .8.1 1.2.1l.2-.5.4-1.2c.3-.9.6-1.7.9-2.6.6-1.8 1.2-3.5 1.9-5.3 1.4-2.9.8.1 1.4-2.4.2-.2-.1-.2 0-.2.2-1 1-1.2 1.1-1.9-.4.2 0-.5-.1-.6.9-1.8 1.3-2 1.6-3.5l.1.2c.1-.9.4-1.8.7-2.7.1-.4.3-.9.4-1.3l.1-.3c0-.2.1-.3.1-.5.1-.3.2-.7.3-1.1 1.3-3.3 2.5-6.7 3.8-9.9.9 3.5 1.9 6.9 2.8 10.3L50 287c1 3.8 2.1 7.5 3.1 11.3.6 2.2 1.1 4.3 1.7 6.5 2.9.2 5.8.3 8.7.5 3.4.2 6.9.4 10.3.7 1.1.3 1.7.4 2.4.5.3 0 .6 0 1.1.1h2c-.2.1-.5.1-.2.1.2-.2 1-.1 1.8-.1s1.7.1 2.1 0c2.7.2 5.3.3 7.9.5-3.4 2.2-6.7 4.4-10.3 6.7.9-.6 1.1-1.1.1-.4l-.5.4-.3.3h-.1c-.4.3-.7.7-.3.5-3.3 2.3-6.8 4.4-10.2 6.5-3 1.8-6.1 3.7-9.1 5.5v.1l.1.3.5 1.8c.4 2.1 1.3 5.1 2 7.4 1.3 6.9 2.6 13.1 4.7 19.9.8.2-.3-.4-1.2-3.2z"/><path class="st1" d="M64.9 355.8c-.1-.3-.7-.9 0-.6-.1.1.1.5 0 .6zM49.1 340.7c-.1 0-.2-.2-.2-.3.2.2.5.2.6.4-.2-.1-.2-.1-.4-.1zM44.9 337.1c.2-.1 1.1.6 1.7 1l-1.7-1zM39 336.7c-.4.1-.4 0 .1-.3.1 0-.1.2-.1.3zM38.8 337.2c-.4.2-.6.3-.8.3.1.1.8-.6.8-.3zM29.2 342.9c-.2.2-.6.6-.9.6.2-.1.9-.9.9-.6zM24.9 345.9c-.1.1-.2.1-.4.2-.3.1-.1-.2.1-.3l.3.1zM22.4 306.4h-.6l.1-.1zM45.3 280.9c.1-.5.1.2.1.2-.1.3 0-.5-.1-.2zM50.7 296.4v-.2h.3z"/></g></g></switch></svg>