<svg version="1.1" id="Calque_1" xmlns="http://www.w3.org/2000/svg" x="0" y="0" viewBox="0 0 390 230" xml:space="preserve"><style>.st1{fill:#1d1d1d}.st2{fill:#ffe000}.st3{fill:#fff}</style><switch><g><path fill="#110f44" d="M353.3 227.4l-312 1.1V56.7l312-1.1z"/><path class="st1" d="M350.9 228c3.5-.1-1.9-.2 2.3-.1-.4.1-1.1.2-2.3.1zM353.6 215.6c-.8-11.4 0-26.5-.5-39 0-1.5.4.4.3-2.9-.6-12.1-.2-31.3.2-46l.1.9c.1-2.8-.3-6.3-.3-9.2.1 0 .1 1 .2.3-.2-.8-.1-5.4-.3-6.7.1-1.2.3-1.1.4-2.6l-.3-1.7c-.6-4.7 0-11.5-.3-18 .1.3.1 1 .2.4-.2-5.2-.3-11.1-.3-17.1 0-5.9-.1-12-.1-17.8.1.3.3.7.4-.1 0-.1-.1-.2-.1-.5-.7.1-1.7.2-2.9.2s-2.6.1-3.9.1c-1.4-.3-5.3.3-9 .1l.3-.1c-2.7.3-4-.2-6.2.2l-1.7-.2c-1.2.4-3.9-.2-6.1 0l.1.1c-2.1.1-3.2-.1-5.2 0h-.2c-4.6.1-7.2-.1-7.1.2-1.6-.3 4.4-.1 1.9-.5-15 .4-30.6.4-45.7.4-1.7-.1-2.8-.2-3.2-.3-1.5.1-5.7.1-7.1.2.5 0-1-.2-1.8-.2-2.8-.1-3 .4-6 .2 1.2-.1 1.6-.2 1.2-.3-2.6.3-6 .2-9.1.3.5-.1 1.2-.1 1.1-.2-3.3.3-6.1 0-9 .1l1.1-.2c-4.7-.2-1.4.4-5.5.3 1-.1.6-.1.8-.2-3.8.3-9.9.3-13.7.4.2 0 .2-.1.2-.1-4.1.1-8.4 0-13 .1-1.7-.1.5-.5-3.8-.4.2.4-7.4.2-4.8.6-3.7 0-9.6-.2-12.1 0 1.7-.1-1.8-.4 1.3-.5l-2.3-.2c.3-.2 2.4 0 1.7-.1-1.6 0-6.1.2-7.5.1-2.9.2-5.5.7-10.2.7 2.2-.2-1.2-.4.2-.5l-6.5.7c-1.6 0-.3-.3-2.6-.2.1.1-.9.2-1.5.2s-6.4.1-7.1-.2c-.7-.1 2.5-.1.8-.2-2.9 0-3 .1-5.9.2h-.1c-1.9 0-5.6.2-3.5.4 1.3 0-.5-.2 1.4-.1-1.3.2-4.7.3-7.5.3 1-.1.9-.2 1.3-.3-3.8.3-7.9.4-12.2.5-.1.2 1.6-.3 2.2-.2-5.5-.2-11.4.4-16 0 .8 0 .4.2.4.2-2.7 0-2.5-.3-4.3-.2-.2-.1-2.2.1-4 .1-.9.1-.5-.1 1.1-.1-2.5.1-12.4.4-18.1.2.1.1-3.5.4-4.8.4l.5-.2c-1.2-.1-4.4 0-4.6-.2-2.8.3 10.8-.3 7 0-1-.2-5.3.4-4.5.1-2.6 0-5.2.3-7.7.1.7 0 2.1-.3 0-.3-3.8.1-1.1.1-4.1.2l-1.9.1c-.1.2-3.4 0-2 .2-.5-.2-5.5.1-5.1-.2l.5-.3c-1.6 0-2.7.3-3.9.4-.2 0-.6-.1-.6-.1-.3.4-3.9 0-5.8.3-.8 0-1.8-.1-2.8-.1h-1.8c0 .6 0 1.1-.1 1.6 0 .8-.1 1.4-.1 1.9.1 2.6.3 5 .2 8 0-.6-.1-1.4-.2-1.6-.1 1.9 0 2.3.1 4.1-.1-.4-.3 3.8-.4 5.8.1 2.6.4 1.7.5 2-.4 2.4.3 7.4-.1 10.3-.1-.9-.2-3.8-.3-1.6-.4 2.4.3 4.8.1 8.6l.4-.9c-.2 1.7.2 5.7-.2 5.3.1 1.3-.1 4.5.2 4.1-.3 6.3.2 15.3-.5 19.2.1.9 0 3.2.2 2.7.2-1.5-.1-2.1 0-2.7 0 .8.1 1 .2 1.1-.1 2-.1 3.5-.4 1.7-.2 4.4.6 4.5.5 10.1-.1-.3-.2.2-.2 1.8l.3 3.1c-.1 3.6-.3 2-.6 2.1 0 1.9 0 4.3.2 5.1l-.3 2.3c.2-1.7.2 1.6.2 2.5l-.1-.9c-.1.4 0 2.6 0 3.7.2-.3.2-2.5.3-3.8.1 1 .1 2.5.2 3.8-.2-.4-.2 3.1-.2 4.7-.1 1.8.2 2 .2 2.5-.1 0 0 2.9-.2 1.5 0-.6.1-1.4 0-2.4-.1 1.2-.3 1-.2 3.4.1 1.8.5-.5.3 3-.1-.9-.2-1.1-.2-1.8l-.1 3.2.2.1c-.1.4-.1.1-.1.3.2 1 .1 4.9.3 5.6 0 1.6-.2 3.4-.2 4.9v-.3c-.1 1.9 0 4.4.1 6v-.1c0 1 0 3.5.1 4.8-.2 2.6-.8.9-.6 3.8 0 2.6.4 4.1.6 3.1-.2 4.7.2 10.1-.1 14.5.1.7.1.3.2 1.7v11.3H45c1.3 0 2.4.1 3.5.2-2 .1-.1.2-.1.3 1.7-.2 2 .2 2.6-.1-.2-.2 0-.3-2-.4 4.2-.1 10.5-.1 12.8 0-1.2-.1-.3-.2.6-.2-.3.3 2.8.4 5.1.2l.3-.2 1.5.2c.9-.1 1-.4 3.3-.2.1.1.3.2.7.2 2.4-.2 5.8-.5 8.4-.3l2.1.3c1.1 0 3-.2 1-.3 4.4.2 7.3.2 8.7.4 7.6-.6 18.8-.7 27.7-.7l-.3.1c2.4.1 1.2-.3 2.9-.2-.8.1 1.8.3-.1.5 3.4.1 4.4-.3 6.6-.3.3-.2-1.8.1-1.4-.1.4-.1 4.7.1 5.3-.2.9.1.2.3-.3.4l2.1-.1c2.6.3-5.8.6-3.1 1l1.9-.1c1.8.3-5.1.4-.3.4 2.1-.2 3.9-.6 2-.7 4.4-.1 2-.7 6.7-.7 1.3.2-3.8.1-2.9.3 2.2.2 4.4-.1 6.4-.1-2.2-.1-.3-.4 1.1-.5 2.4.1-1.5.3 1.8.3.6-.2 3.7-.3 1-.4 1.2-.4 3.5.1 5.4-.2 1.1.3-3.5.6.2.8-.6-.3 4.6-.4 2.6-.7 1.5.1 1.6.3.5.4 2.1.2 5-.5 5.7 0l.7-.3c.7.1 1.6.1 2.6.3 1.8 0 5.9-.4 5.7 0 .6 0 4.8 0 3.2-.3-2.6-.2-3 .2-4.4-.2 1.8.3 3.8-.1 5.3-.2l.2.2c.9-.1 3 0 3.5-.2-.7.1-.3.2.4.2l.9-.2c3.6-.1.9.4 4.4.3l-2.7.2c.6 0 1.8.2 3.5.1.7-.2 1.9-.5 2.5-.6 2-.1.9.2 2.9 0l-2.6.3c-.4.1 1.7.3 4.4.3 1.7-.1 4.3-.4 1.7-.5 1.3 0 3.2.1 2.2.3 3-.1-.4-.2 2.2-.4 1.1.1 4.4.3 6.4.5l-2.7.4h1.8c-2.4.3 1.2.2-.1.5 1.2 0 2.7-.1 3.9-.1-3.6-.5 4.1-.7 3-1.1 5-.1 3.1 1.1 8.3.4-.8-.1 1.6-.5-1.5-.3 3.1 0 2.1-.5 5.7-.3-2.7.2 2.9.4-1 .7.3-.1-2.2-.1-2.8-.1 1.3.2-.3.4 2.9.4 1.9 0 4.6-.1 4.2-.3-.1-.3-2.9 0-1.7-.2 3.8-.1 4.5.3 6.1-.2-2.4 0-3-.2-3-.4l2.8-.1-.5.2c4.5.1 1.3-.3 5.7-.3l2.1.3c-1 .3-6.4-.1-5.6.4 2.8 0 3.8-.2 6.5-.1-.6 0-1.4.1-2 .1 1 0 2 .6 6.1.3 2.1-.1.6-.2.6-.3 4.6-.1 5.9-.3 8.9-.3-.6.3 5.2 0 2 .4-1.5-.2-8.1-.2-9.7.2 1.7.4-3.6 0-4.6.4 3.7 0 3.5.4 4.1.7 1 0 2-.1 2.6-.1.4-.2-.9-.2-1-.5 4.1.1 8-.1 10.3-.3 1.4.1.9.4-.7.4 4.9-.1 10.1-.1 14.7 0-3-.4 5.2-.1 3.1-.4-2.5-.1-4.6-.4-3.2-.5 1.6 0 0 .2.6.3 2-.2 3.1.3 5 0-4.4.1-.9.5-1.7.8 3.2-.2-.1.2 3 .2 3.2-.2 7.1-.3 10.7-.4 4.5.3 11.3 0 15.3-.1 2.1.2.7.5 2.9.6 2.7 0-2-.4 2-.2l-.4.1c1.2-.1 7.2.2 8.4-.3l-1.2.4c.7 0 1.4-.1 2-.1 0 .1.9.2-.3.3 2.4.3 5.1-.1 7.7-.1l-1.7-.2c4.5-.2 7.5 0 11.9-.1l-.1.2 2.6-.1c-.6.2 1.8.3 3.1.2l-6.8.6c-1.9-.1 2-.3.9-.5-1-.2-5-.1-5.7.1 1.5 0 1.6 0 2.8-.1.5.3-1.8.3-3 .5.8 0 2 .1 2.1 0-1.6.2-3.2.2-5.9.2 1.8-.1-1-.2-.3-.3-.2.3-2.7.4-6 .3-2.3-.3-6.2.2-10 .1 1.5-.3 3.5-.5 5.8-.6-2.4-.1-2.7 0-5-.1-1.2.2-2 .5-5.1.7l-.2-.2c-2.8.1-2.8.4-6.4.4-6.2-.1-12.5-.1-17.2-.1l-.2-.2c-2.6.4-8.7.2-12.2.4-6-.2-13 .2-16.1-.1-10.6.2-19.8.4-30.7.3l1.8-.3c-2 .2-1.3-.2-3.2-.1 2.2.2-2.7.3-4 .5-4.9-.2-11.1.1-15.4.3l-.2-.2c-4.4.4-9.6.1-15 0-.6-.1-1.6-.3-3.2-.2-2.9.3-4.5.3-8.8.5-3.2 0-8.3-.1-11.5-.2-11.9.5-24 .2-36.4.6l-.9-.2c-12 .5-26.7.1-36.9.4l1-.4c-3.2-.1-7.3.1-6.5.4-3.2-.1-8 .2-10.1-.1-3.3-.1-4 .2-6.7.3-6.6-.1-9-.1-15.2 0h1.5c.7-.1.7-.3-.8-.3-2.3.1-8.5-.1-6.2.4-1 0-2.1-.1-3.2-.1h-5c0-3.1-.1-6.3-.1-9.5 0-2.6 0-5.1.1-7.3-.1.5-.2-1.1-.2-1.8 0-5.8.3-11.9 0-16.5.1-.9.2 1.5.2-.9-.1-1.4-.2 0-.2-1.8-.2-9.4.3-19 .2-27.6-.3-15.2-.1-31.1-.2-45.6l.1.2c-.4-4.9.4-11.4-.2-15.3.1-1.2 0-4.4.2-3.5-.3-3.9.2-10.9-.1-16.5 0 .5 0 .8.1 1.4.2-5.7-.1-10.7.1-16.7 0 .6.1 1.7.2 1.9.2-2.3-.4-5.5.1-6.7 0-1.3-.2-.9-.2-.1v-3.4-4.9c3.2 0 6.5 0 9.7-.1 2.8 0 5.6-.1 8.5-.1 5.7-.1 11.4-.2 17-.2 9.8.2.6.8 8.3.4.6.1.5-.2.6-.1 3-.1 4.6.5 6.7.3-.9-.3 1.4-.2 1.4-.3 6 .2 7.2.4 11.9.2l-.4.2c5.5-.4 11.9-.2 16.6-.8 30.5-.2 59.7-.5 89.4-.7 29.4 0 58.2-.3 88-.2 7 .4 7.5.4 15.2.2-.3.1-.8.1-.3.1.4-.3 5.4 0 6.1-.4H334c5.4 0 10.9-.1 16.7-.1h-1.4c-.3 0-.5.1-.6.1-.2.1.1.1 1.2.1h.8l1-.1 2.1-.1.4.1v.3c0 1.3.1 2.7.1 3.5 0 .4.1.4.1.4v-.2-.8c0 3.7 0 7.4.1 11.2v10.6c0 7.1-.1 14.1-.1 21.2-.1 14.1-.3 28.1-.2 42-.1 6.6 0 16.1.1 23.3-.4 21.4-.8 40.6-.5 62.3.9-.3 0-3.1-.2-12.1z"/><path class="st1" d="M346.7 228c-.8-.2-3.2-.2-1.3-.5.3.2 1.5.4 1.3.5zM280.3 226.6c-.1 0-.9-.1-1.2-.1.8 0 1.6-.2 2.2-.1-.7 0-.6.1-1 .2zM263.4 226.5c.3-.1 3.9-.3 6-.3l-6 .3zM247.6 226c-1.4-.1-1-.2.9-.2.1.1-.5.1-.9.2zM246.5 226.3c-1.3 0-2-.1-2.6-.2 0 .2 3 0 2.6.2zM212.2 226c-.8 0-2.6.1-3.4 0 .8.1 4-.2 3.4 0zM196.2 226.3h-1.3c-.9-.1.1-.2.9-.2l.4.2zM42.4 93.2l.1 1.7-.1-.3zM132 57.5c1.7-.1 1.2.1 1.5.2-1.6 0 .6-.2-1.5-.2zM200.6 56.5h-.5l.1-.3z"/><g><path class="st2" d="M146.7 153.7L77 228.5H41.3v-33l137-139.9h62.2z"/><path class="st1" d="M146.2 155c1.4-1.6-.9.6.8-1.1-.1.3-.3.7-.8 1.1z"/><path class="st1" d="M151.7 148.9c4.1-5.3 10.7-11.2 15.4-16.8.6-.6.1.4 1.4-1 4.5-5.5 12.4-13.3 18.7-19.3l-.3.5c1.2-1.1 2.3-2.8 3.5-4.1.1 0-.3.5.1.3.1-.5 2.1-2.3 2.5-3 .5-.4.6-.3 1.3-.8l.5-.9c1.5-2.4 4.7-4.8 7.1-7.8-.1.2-.3.5-.1.3 3.9-4.7 9.2-10.1 13.8-15.1-.1.3-.2.6.2.3 0-.4 1.4-2 2.6-3.4.8-.4 2-2.4 3.6-3.9l-.1.2c.9-1.4 1.7-1.6 2.4-2.7l.9-.6c.2-.8 1.7-1.5 2.5-2.6h-.1c.8-1 1.4-1.3 2.1-2.1h.1c1.8-2 3-3 2.7-3.1.8-.5-1.7 1.9-.4 1.1 1.3-1.5 2.7-3 4-4.5 1.3-1.4 2.5-2.7 3.8-4.1h-14c-1-.1-1.6-.2-1.9-.3-.9.1-3.3.1-4.1.2.3 0-.6-.2-1-.2-1.6-.1-1.8.4-3.5.2.7-.1.9-.2.7-.3-1.5.2-3.5.2-5.3.3.3-.1.7-.1.6-.2-1.9.3-3.6-.1-5.3.1l.6-.2c-2.7-.2-.8.4-3.2.3.6-.1.4-.1.5-.2-2.2.3-5.8.2-8 .3.1 0 .1-.1.1-.1-2.4 0-4.9-.1-7.6.1-1-.1.3-.5-2.2-.4.1.4-4.3.2-2.8.6-.8 0-1.7 0-2.6-.1h-2.5l-.6.6c-.2.2-.4.4-.5.6.6-.8-1.1.4.2-.9l-1.1.8c0-.3 1-1 .6-.8-.6.7-2.4 2.6-3 3.2-1 1.4-1.8 2.8-3.7 4.7.8-1-.8.2-.2-.4l-2.1 3.2c-.6.7-.3-.1-1.2.9.1 0-.2.5-.5.8-.3.2-2.6 2.8-3.1 2.8-.4.2 1-1.1.2-.5-1.2 1.2-1.1 1.3-2.3 2.5h-.1c-.8.8-2.2 2.4-1.2 1.7.5-.5-.4.1.5-.7-.4.7-1.7 2.1-2.9 3.3.4-.4.2-.5.3-.7-1.4 1.8-3 3.6-4.6 5.4.1.1.4-.9.8-1.1-2.4 2.1-4.4 5-6.5 6.6.3-.3.3 0 .3 0-1.1 1.1-1.2.9-1.9 1.7-.2 0-.9.9-1.5 1.7-.3.5-.2.1.4-.5-.9 1.1-4.8 5.4-7.3 7.7.1 0-1.2 1.7-1.7 2.3v-.4c-.6.4-1.8 1.9-2 1.8-1 1.4 4.3-4.7 2.9-2.9-.5.3-1.9 2.5-1.8 1.9-1.1 1.1-1.9 2.4-3.1 3.3.3-.3.7-1.1-.2-.2-1.5 1.6-.4.5-1.5 1.8l-.7.9c.1.2-1.4 1.4-.6 1-.3.1-2.2 2.4-2.3 1.9v-.4c-.6.7-.9 1.3-1.3 1.9-.1.1-.3.2-.3.1.2.4-1.6 1.6-2.2 2.6-1.5 1.3-3.5 3.6-4.4 4.1-1 1.2-1.8 2.3-3.1 3.5.2-.3.5-.6.5-.8-.9.7-1 1-1.6 1.7.1-.2-1.7 1.4-2.7 2.1-1 1.2-.4 1-.4 1.2-1.3.7-2.8 3.3-4.3 4.2.3-.4 1.4-1.7.4-.9-1.3.7-1.7 2.2-3.4 3.7l.6-.1c-.9.6-2.2 2.5-2.3 2.1-.4.6-1.9 1.8-1.5 1.9-2.8 2.4-6.1 6.5-8.2 7.7-.3.4-1.3 1.3-1 1.3.8-.5.8-1 1.1-1.1-.3.3-.3.5-.3.6-.9.8-1.5 1.4-1 .4-1.9 1.7-1.4 2.3-3.8 4.5 0-.2-.2-.1-.9.6l-1.1 1.5c-1.5 1.5-1.1.6-1.3.5-.8.8-1.7 1.8-1.9 2.3l-1.2.8c.9-.5-.5.8-.9 1.2l.3-.4c-.2.1-1.1 1-1.5 1.5.2 0 1.2-.9 1.7-1.4-.3.5-1 1.1-1.4 1.7 0-.4-1.4 1.2-2 1.8-.8.7-.6 1-.9 1.2-.1-.1-1.2 1.2-.8.5.2-.3.6-.5 1-1-.5.4-.6.2-1.5 1.3-.6.8.5.1-1 1.5.3-.4.3-.6.5-.9l-1.4 1.2.1.2c-.2.1-.1 0-.2.1-.2.6-1.9 2.1-2.1 2.6-.6.7-1.5 1.3-2.1 1.9l.1-.1c-.9.7-1.8 1.8-2.4 2.6v-.1c-.4.4-1.4 1.5-1.8 2.1-1.2 1-1-.2-1.9 1.2-1.1 1.1-1.4 2-.9 1.7-2 1.9-4 4.4-6 6-.2.3 0 .2-.5.8-2.9 2.8-5.8 6.3-8.4 8.3.8-.9-.1-.2-.2-.3-.5.8-1 .7-1 1.2.2.1.2.2 1.1-.6-.7.7-1.5 1.6-2.3 2.5l-1.8 1.8c0 .2 0 .2-.1.4 0-.3.1-.2.1-.2s.1.3.1.5c-.3-.2-.4 1.6-.3 3l.2.2-.2.9c.1.5.4.6.2 1.9-.1.1-.2.1-.2.4.2 1.4.4 3.4.3 4.9l-.3 1.2c0 .6.2 1.7.3.6-.2 2.6-.2 4.3-.4 5.1.3 1.9.4 4.1.5 6.4 0 1.2.1 2.3.1 3.5v1.8H44l-.2.1c1.4.1.7-.3 1.7-.2-.5.1 1.1.3 0 .5 2 .2 2.6-.3 3.9-.3.2-.2-1 .1-.8-.1.2-.1 2.8.1 3.1-.1.5.1.1.3-.2.4l1.2-.1c1.5.3-3.4.6-1.8 1H52c1.1.3-3 .3-.2.4 1.2-.1 2.3-.6 1.2-.7 2.5-.1 1.2-.7 3.9-.7.7.2-2.2 0-1.7.3 1.3.2 2.6-.1 3.7 0-1.3-.1-.2-.4.6-.5 1.4.1-.9.3 1.1.3.3-.2 2.1-.3.6-.4.7-.4 2.1.1 3.1-.2.6.3-2 .6.1.8-.3-.3 2.7-.4 1.5-.7.9.1.9.3.3.4 1.2.2 2.9-.5 3.3 0l.4-.3c.4.1.9.2 1.5.3 1.1 0 3.4-.4 3.3 0h.8c.2 0 .3 0 .4-.1 0-.1 0-.2-.1-.2s-.2-.1-.2 0H75c-.4 0-.6 0-1-.2.4.1.9.1 1.3.1h.4l.1-.1v-.1l.1.1c-.1 0 .3-.3.5-.6.3-.3.5-.6.5-.8-.2.4 0 .3.3 0l.2-.6c1.4-1.6.6-.1 2-1.6l-.9 1.3c.2-.3.8-.6 1.5-1.4.1-.4.4-1.1.5-1.5.7-.9.5-.2 1.2-1.2l-.8 1.3c-.1.2.9-.5 2-1.6.6-.8 1.4-2.1.3-1 .5-.6 1.4-1.3 1.1-.7 1.2-1.3-.3 0 .6-1.2l3-2.4-.8 1.4.9-.7c-.7 1.2.6-.4.3.4.5-.5 1-1.2 1.5-1.8-1.8 1.2 1.1-2.2.4-2 1.9-2.2 2-.6 3.6-3.3-.4.3.3-1-.8.4 1.3-1.3.5-1.2 2.1-2.6-.9 1.3 1.5-.9.1.9 0-.2-.9.9-1.2 1.1.6-.4.2.4 1.5-.9.7-.9 1.8-2 1.5-2-.2-.1-1.2 1.3-.8.6 1.5-1.7 2-1.7 2.3-2.7-.9 1.1-1.4 1.1-1.5 1l1-1.3-.1.3c1.9-1.8.3-.8 2.1-2.6l1.1-.7c-.2.6-2.6 2.6-2 2.6 1.1-1.2 1.4-1.8 2.5-2.8-.2.3-.5.6-.7.9.4-.4 1.3-.4 2.6-2.4.7-1 .1-.4 0-.5 1.8-2 2.2-2.7 3.3-4 0 .5 2.1-2.2 1.1-.6-.7.5-3.4 3.3-3.8 4.3 1-.4-1.5 1.5-1.6 2.2 1.5-1.6 1.7-1.2 2.1-1.3.4-.4.7-.9.9-1.2 0-.4-.5.2-.7.1 1.7-1.7 3.1-3.5 3.9-4.6.6-.5.6-.2 0 .6 1.9-2.1 4-4.3 5.9-6.3-1.5 1 2-2.3.9-1.6-1.1 1-2.1 1.7-1.7 1 .6-.6.1.1.4-.1.6-1 1.5-1.1 2-2.1-1.7 2 0 .7-.1 1.3 1.1-1.5.1.2 1.4-1.1 1.1-1.5 2.6-3.3 4-4.8 2-1.7 4.5-4.8 6.1-6.5.9-.8.6.1 1.6-.9 1.1-1.1-1.1.6.6-1l-.1.2c.4-.6 3-2.9 3.1-3.8l-.2.8c.3-.3.5-.6.7-.9.1.1.5-.2.1.4 1.2-.9 2-2.2 3-3.3l-.8.6c1.7-2.1 3-3.2 4.7-5.1l.1.2.9-1.2c-.1.4 1-.5 1.4-1.2l-2.3 3.3c-.8.7.6-1.1 0-.7-.5.3-2.1 2.1-2.2 2.5.6-.6.6-.7 1-1.3.4 0-.5 1-.8 1.6.3-.4.8-.8.8-.9-.5.8-1.1 1.5-2.2 2.6.6-.8-.5.3-.3-.1.1.3-.8 1.4-2.2 2.8-1.2.8-2.3 2.8-3.9 4.3.4-.8 1-1.8 1.9-2.9-1 .9-1.1 1.1-2.1 2.1-.3.6-.4 1.2-1.6 2.6l-.2-.1c-1 1.3-.8 1.5-2.3 3-2.5 2.6-5 5.3-6.9 7.2l-.2-.1c-.7 1.4-3.3 3.8-4.6 5.5-2.5 2.4-5 5.7-6.5 6.8-4.1 4.6-7.6 8.7-12.1 13.3l.5-1c-.6 1-.6.4-1.4 1.3 1.1-.8-.8 1.3-1.2 2-2.1 1.9-4.4 4.8-6 6.7l-.2-.1c-1.5 2.1-3.8 4.1-6 6.4-.3.2-.8.5-1.5 1.2-.4.7-.8 1.1-1.2 1.7-.4.6-.7.9-1.8 2.2-.3 0-.7 0-1.2.1h-3.5c-1.2 0-2.4-.1-3.4-.2-6.9.5-14 .2-21.2.4l-.5-.2c-1 .1-2.1.1-3.1.2-.8 0-2.9.1-4.7.1v-5.4-4c0-2.6 0-5-.1-7.1l.4.6c.1-1.9-.1-4.3-.4-3.8.1-1.9-.2-4.7.1-5.9.1-1.9-.2-2.3-.2-3.9 0-1 .1-1.9.1-2.6v-1.1-1.7c.5-.6 1.1-1.1 1.7-1.8.5-.5 1-1 1.5-1.6l-.6.6c-.2.3-.1.5.5-.1.9-1 3.5-3.5 2.3-2.8 2.9-2.6 6.1-6.6 9-9-.3.1.3-.6.5-.9 2.4-2.4 5.1-4.8 6.8-6.9.4-.3-.4.8.5-.2.5-.6-.1-.1.5-.9 3.7-4.1 8-7.8 11.4-11.4 6-6.5 12.6-13 18.5-19.1v.1c1.7-2.3 4.9-4.5 6.1-6.5.5-.4 1.8-1.8 1.6-1.3 1.4-1.8 4.6-4.4 6.7-6.9-.2.2-.3.3-.5.6 2.5-2.2 4.3-4.5 6.9-6.9-.2.3-.6.8-.6.9 1.1-.8 1.9-2.6 2.8-2.8.5-.6.2-.6-.1-.2 5.5-5.3 11-11.4 16.5-17.1 4.2-3.9.8.3 3.7-3.2.3-.2.1-.3.2-.3 1.1-1.3 2.3-1.6 2.9-2.6-.6.2.4-.7.3-.8 2.6-2.4 3.2-2.7 5-4.8v.3c2-2.6 4.7-5.1 6.3-7.4 9.2-9.6 18.2-18.9 27.2-28.2 4.9 0 9.8-.1 14.7-.1H228c5.6 0 11.2.1 16.9.1-1.3 1.4-2.7 2.8-4.1 4.2-.7.7-1.4 1.3-1.9 1.8-.3.3-.5.5-.8.7-.2.1-.3.3-.4.4-.5.4-.9.8-1.3 1.2-.8.8-1.6 1.7-3.1 3.4.1-.2.3-.4 0-.2.1.4-2.2 2.3-2.2 2.8-4.5 4.6-8.5 9-13.1 13.7.7-.8.9-1.3 0-.4l-.7 1.1-.2.1c-.6.6-1.1 1.4-.4.9-11.3 12.2-23.1 23.6-34.3 35.4-2.8 2.7-6.5 6.8-9.4 9.9-8.9 8.7-17 16.6-25.5 25.9.2-.2.8-1.9 4.2-5.9z"/><path class="st1" d="M144.5 156.9c-.4.2-1.5 1.2-.8.2.2 0 .8-.5.8-.2zM116.9 184c0 .1-.4.4-.5.4.3-.4.5-.8.8-1-.3.4-.2.4-.3.6zM110.1 191.2c0-.2 1.4-1.8 2.2-2.8l-2.2 2.8zM103.3 197.5c-.6.5-.5.3.2-.5.2 0-.1.3-.2.5zM103.1 198.2c-.5.6-.8.8-1.2 1 .2.1 1.2-1.3 1.2-1zM89.2 212.6c-.3.4-.9 1.2-1.4 1.4.4-.3 1.5-1.8 1.4-1.4zM83 219.5c-.2.2-.3.3-.5.6-.4.4-.1-.1.2-.5l.3-.1zM105.2 131.9l-.7.8v-.2zM157.1 78.9c.6-.8.6-.4.7-.5-.6.7.1-.4-.7.5zM186.8 56h-.3l.1-.3z"/></g><g><path class="st2" d="M257.4 153.7l-69.8 74.8h-57.8L289 55.6h62.2z"/><path class="st1" d="M256.8 155.1c1.4-1.6-1 .7.9-1.1-.1.2-.4.6-.9 1.1z"/><path class="st1" d="M262.6 148.7c4.3-5.6 11.2-11.7 16.2-17.6.6-.7.1.5 1.5-1.1 4.7-5.8 13.1-14 19.7-20.2l-.3.5c1.3-1.2 2.4-3 3.7-4.3.1 0-.3.5 0 .3.1-.5 2.2-2.5 2.6-3.1.6-.5.7-.3 1.4-.9l.5-.9c1.5-2.5 4.9-5.1 7.4-8.2-.1.2-.3.5-.1.3 4.1-4.9 9.7-10.6 14.5-15.8-.1.3-.2.6.2.4 0-.4 1.5-2.1 2.8-3.5.8-.4 2.1-2.6 3.7-4.1l-.1.2c.9-1.4 1.8-1.7 2.5-2.9l.9-.6c.2-.8 1.8-1.6 2.6-2.7h-.1c.8-1 1.4-1.3 2.2-2.3h.1c1.8-2.1 3.2-3.2 2.8-3.2.4-.2.1.2-.4.7-.4.5-.7.9-.1.5 1.2-1.4 2.5-2.8 3.8-4.2-1.7 0-3.5.1-5.2.1h-16.5c-1.1-.1-1.7-.2-2-.3-.9.1-3.5.1-4.3.2.3 0-.6-.2-1.1-.2-1.7-.1-1.8.4-3.7.2.7-.1 1-.2.7-.3-1.6.2-3.7.2-5.6.3.3-.1.7-.1.7-.2-2 .3-3.7-.1-5.5.1l.7-.2c-2.9-.2-.9.4-3.3.3.6-.1.4-.1.5-.2-2.3.3-6.1.2-8.4.3.1 0 .1-.1.1-.1-2.5 0-5.2-.1-7.9.1-.6-.1-.2-.3-.9-.4-.2.1-.5.5-1 1 .3.2-3 3.4-1.6 2.6-1.6 1.6-4.1 4.2-5.1 5.4.6-.9-1.1.5.2-.9l-1.1.9c0-.3 1-1.1.6-.8-.6.7-2.4 2.9-3 3.4-1 1.5-1.8 2.9-3.7 5.1.8-1.1-.8.3-.2-.4l-2.2 3.4c-.6.7-.4 0-1.2 1 .1 0-.2.5-.5.9-.3.2-2.6 3-3.2 3-.4.2 1-1.2.2-.5-1.2 1.3-1.1 1.4-2.3 2.7h-.1c-.8.8-2.2 2.6-1.2 1.8.6-.6-.4.1.5-.7-.4.7-1.7 2.3-2.9 3.6.4-.5.2-.5.3-.7-1.4 1.9-3 3.8-4.7 5.8.1.1.4-.9.8-1.2-2.5 2.3-4.5 5.4-6.6 7.2.3-.4.4 0 .3 0-1.1 1.2-1.3 1-1.9 1.8-.2 0-.9 1-1.6 1.8-.3.5-.2.2.4-.5-.9 1.2-4.9 5.8-7.4 8.3.1 0-1.2 1.8-1.8 2.4v-.4c-.6.4-1.8 2-2.1 2-1 1.5 4.3-5 2.9-3.2-.5.3-1.9 2.6-1.8 2.1-1.1 1.2-2 2.5-3.2 3.5.3-.3.7-1.2-.2-.2-1.5 1.7-.4.6-1.6 2l-.7.9c.1.2-1.4 1.5-.7 1-.3.1-2.2 2.5-2.3 2.1v-.4c-.7.7-.9 1.4-1.3 2.1-.1.1-.3.2-.3.2.2.4-1.6 1.7-2.2 2.8-1.5 1.4-3.6 3.9-4.5 4.4-1 1.3-1.9 2.5-3.2 3.7.2-.3.5-.7.5-.8-.9.8-1 1-1.6 1.9.1-.2-1.8 1.5-2.7 2.4-1 1.3-.4 1-.4 1.2-1.3.8-2.8 3.5-4.4 4.6.3-.4 1.4-1.9.4-1-1.3.8-1.8 2.4-3.5 4l.7-.2c-.9.6-2.2 2.7-2.3 2.3-.4.7-2 2-1.5 2-2.8 2.6-6.2 7-8.3 8.4-.3.4-1.3 1.4-1 1.3.8-.5.8-1 1.1-1.2-.3.4-.3.5-.3.6-.9.8-1.5 1.5-1 .5-2 1.8-1.4 2.4-3.8 4.8 0-.2-.2-.1-.9.7l-1.1 1.6c-1.5 1.6-1.1.7-1.3.6-.8.9-1.7 1.9-2 2.5l-1.2.8c.9-.6-.5.8-.9 1.3l.3-.4c-.2.1-1.1 1.1-1.5 1.7.2 0 1.2-1 1.8-1.5-.3.5-1 1.2-1.4 1.9 0-.4-1.4 1.3-2.1 2-.8.8-.7 1-.9 1.3-.1-.1-1.2 1.3-.8.5.2-.3.7-.5 1-1.1-.5.5-.7.2-1.5 1.4-.7.9.5.1-1 1.6.3-.4.3-.6.5-1l-1.4 1.4.1.2c-.2.2-.1 0-.2.1-.2.6-2 2.3-2.1 2.8-.7.7-1.5 1.4-2.2 2.1l.1-.1c-.9.8-1.9 1.9-2.4 2.8v-.1c-.4.5-1.4 1.6-1.9 2.2-1.2 1.1-1-.2-2 1.3-1.1 1.2-1.4 2.1-.9 1.8-2.1 2-4 4.7-6.1 6.5-.2.4 0 .2-.5.9-3 3.1-5.9 6.8-8.5 9 .8-1-.1-.2-.2-.3-.5.9-1 .8-1 1.3.2.1.2.2 1.1-.6-1.6 1.9-4.3 4.8-5.4 5.7.5-.5.2 0-.1.4-.1-.4-1.4 1-2.3 2.1v.3l-.8.5c-.3.4-.1.7-1.2 1.6-.1 0-.2 0-.4.2-.9 1.2-2.1 2.9-3.3 4l-.5.4-.3.2c-.1.1-.2.1-.2.1-.2.3-.3.6.1.3l-1.5 1.2c.1 0 .2.1.2.2.6-.1 1.3-.2 2-.4 1.4-.1 2.8-.1 4.3-.2 3-.1 6-.1 8.8 0l-.2.1c1.5.1.8-.3 1.8-.2-.5.1 1.1.3 0 .5 2.1.2 2.7-.3 4.1-.3.2-.2-1.1.1-.8-.1.2-.1 2.9.1 3.2-.1.5.1.1.3-.2.4l1.3-.1c1.6.3-3.6.6-1.9 1h1.2c1.1.3-3.1.3-.2.4 1.3-.1 2.4-.6 1.2-.7 2.7-.1 1.2-.7 4.1-.7.8.2-2.3 0-1.7.3 1.4.2 2.7-.1 3.9 0-1.3-.1-.2-.4.7-.5 1.5.1-.9.3 1.1.3.3-.2 2.2-.3.6-.4.7-.4 2.2.1 3.3-.2.7.3-2.1.6.1.8-.4-.3 2.8-.4 1.6-.7.9.1 1 .3.3.4 1.3.2 3.1-.5 3.5 0l.4-.3c.4.1 1 .2 1.6.3 1.1 0 3.6-.4 3.5 0 .4 0 2.9 0 1.9-.3-1.6-.2-1.8.2-2.7-.2 1.1.3 2.3 0 3.2-.1l.1.2c.5-.1 1.8 0 2.2-.2-.4.1-.2.2.2.2l.6-.2h.6v.1c0 .1.1.1.1.2h.2l.2-.2c0 .1-.1.2-.1.2v.1l-.1.2-.1.1h.2c.1 0 .1-.1.2-.1h.1l.2-.2c.1-.1.2-.2.3-.4.1-.4.4-1.2.6-1.5.8-1 .6-.2 1.2-1.3l-.9 1.3c-.1.2 1-.5 2.1-1.7.7-.8 1.5-2.2.3-1.1.6-.6 1.4-1.4 1.1-.8 1.2-1.4-.3 0 .7-1.2.6-.4 2.1-1.7 3.1-2.5l-.9.9.8-.8c-.8 1.2.7-.4.3.4.6-.5 1.1-1.3 1.5-1.9-1.9 1.3 1.2-2.3.4-2.1 2-2.3 2.1-.7 3.7-3.5-.4.3.3-1-.9.5 1.3-1.4.6-1.2 2.2-2.8-1 1.3 1.5-1 .1.9 0-.2-1 .9-1.2 1.2.7-.5.2.4 1.5-1 .8-.9 1.9-2.1 1.5-2.1-.2-.1-1.2 1.3-.9.6 1.5-1.8 2.1-1.8 2.4-2.8-1 1.1-1.4 1.2-1.5 1.1l1.1-1.3-.1.4c2-1.9.3-.8 2.2-2.7l1.1-.7c-.2.7-2.8 2.8-2.1 2.7 1.2-1.3 1.4-1.8 2.6-3-.2.3-.5.7-.8 1 .4-.4 1.3-.5 2.7-2.6.8-1 .1-.4 0-.5 1.9-2.1 2.3-2.8 3.5-4.2 0 .5 2.2-2.3 1.1-.6-.8.5-3.5 3.5-4 4.5 1-.5-1.5 1.6-1.7 2.3 1.5-1.6 1.8-1.3 2.2-1.4.4-.4.8-1 1-1.3 0-.4-.6.2-.8.1 1.8-1.8 3.3-3.7 4.1-4.8.7-.5.7-.2 0 .6 2-2.2 4.2-4.5 6.2-6.6-1.5 1.1 2.1-2.4 1-1.7-1.1 1.1-2.2 1.8-1.8 1.1.7-.7.1.1.4-.1.7-1 1.5-1.1 2.1-2.2-1.8 2.1 0 .7-.1 1.3 1.2-1.6.1.2 1.4-1.2 1.2-1.6 2.8-3.4 4.2-5 2.1-1.8 4.7-5.1 6.4-6.9 1-.8.7 0 1.6-.9 1.1-1.2-1.1.6.7-1l-.1.2c.4-.6 3.2-3.1 3.3-3.9l-.2.8c.3-.3.6-.7.8-1 .1.1.5-.2.1.4 1.2-.9 2.1-2.3 3.2-3.5l-.9.6c1.8-2.1 3.2-3.4 5-5.4l.1.2 1-1.3c-.1.4 1-.5 1.4-1.3l-2.4 3.4c-.9.8.7-1.1 0-.7-.6.3-2.2 2.2-2.3 2.6.7-.7.7-.7 1.1-1.3.4 0-.6 1-.9 1.7.3-.4.9-.8.9-1-.6.8-1.2 1.6-2.3 2.7.7-.9-.5.3-.3-.1.1.3-.9 1.5-2.3 2.9-1.2.8-2.4 2.9-4.1 4.5.4-.9 1.1-1.9 2-3-1.1 1-1.1 1.2-2.2 2.2-.3.7-.4 1.2-1.7 2.7l-.2-.1c-1.1 1.3-.9 1.5-2.4 3.1-2.6 2.7-5.3 5.5-7.3 7.6l-.2-.1c-.8 1.5-3.5 4-4.8 5.7-2.6 2.5-5.3 6-6.8 7.1-4.3 4.8-8 9.1-12.7 13.9l.6-1c-.7 1-.7.5-1.4 1.3 1.1-.8-.9 1.4-1.3 2.1-2.2 2-4.6 5-6.3 7.1l-.2-.1c-1.5 2.2-4 4.3-6.3 6.7-.1.1-.3.2-.5.4-.3.2-.5.4-.8.7h-.7c-.5.1-.9.1-1.4.2-.4 0-.8.1-1.2.1-.8.1-1.7.1-3 .2-1.9 0-5.1-.1-7-.2-7.3.5-14.7.2-22.3.4l-.5-.2c-3.5.2-7.5.3-11.3.2h-9.8c-1.4 0-2.8 0-4.1.1.3-.3.5-.6.7-.8.1.1.1.3.2.4 1.1-1.1 2.2-2.3 2.9-3.2.7-.9 1.2-1.6.7-1.3l.9-.9c.2-.2.4-.4.6-.7.4-.4.8-.9 1.1-1.3.8-.9 1.5-1.6 2-2 1.4-1.4 1.5-1.9 2.6-3.2 2.8-2.9 3.8-4 6.3-6.8l-.7.7c-.2.4-.1.5.5-.2.9-1.1 3.6-3.8 2.3-3.1 3-2.8 6.2-7.1 9.2-9.8-.3.2.3-.6.5-1 2.4-2.6 5.1-5.2 6.9-7.4.4-.4-.4.8.5-.2.5-.7-.1-.1.5-1 3.7-4.4 8.1-8.4 11.6-12.3 6.1-7 12.8-14.1 18.8-20.7v.1c1.8-2.5 5-4.9 6.2-7 .5-.5 1.9-2 1.6-1.4 1.4-1.9 4.7-4.7 6.8-7.5-.2.2-.3.4-.5.7 2.5-2.4 4.4-4.9 7-7.4-.2.3-.7.8-.7 1 1.1-.9 2-2.7 2.8-3 .5-.6.2-.6-.1-.2 5.6-5.8 11.2-12.3 16.7-18.5 4.3-4.2.8.3 3.8-3.4.3-.2.1-.3.2-.3 1.1-1.4 2.3-1.7 3-2.8-.6.2.5-.7.3-.9 2.6-2.6 3.3-2.9 5.1-5.2v.3c2-2.8 4.8-5.5 6.4-8C264.8 78.4 276 66 287.4 53.4h46c4.9 0 9.9.1 14.9.1 3 .2 4.7.2 6.2.3-1 1-1.9 1.9-2.9 3-.5.6-1.1 1.2-1.7 1.9-.3.4-.7.7-1.1 1.1-.3.3-.6.6-.9 1 .1-.2.3-.4 0-.2.1.4-2.3 2.4-2.4 3-4.7 4.8-9 9.4-13.8 14.4.7-.8.9-1.4 0-.4l-.8 1.1-.2.1c-.6.7-1.1 1.5-.4.9-11.9 12.8-24.2 24.8-36 37.2-2.9 2.8-6.8 7.1-9.8 10.3-9.4 9.2-17.8 17.4-26.7 27.3.6.1 1.2-1.7 4.8-5.8z"/><path class="st1" d="M255 157c-.4.2-1.5 1.3-.9.2.3 0 .9-.4.9-.2zM226.1 185.6c0 .1-.4.4-.6.5.3-.4.6-.8.9-1-.3.3-.2.3-.3.5zM218.9 193.1c0-.2 1.4-1.9 2.3-2.9l-2.3 2.9zM211.9 199.8c-.7.5-.6.3.2-.5.1 0-.1.3-.2.5zM211.7 200.5c-.5.6-.9.8-1.2 1.1.1 0 1.2-1.4 1.2-1.1zM197 215.6c-.3.4-1 1.3-1.4 1.5.4-.3 1.5-1.9 1.4-1.5zM190.5 222.9l-.6.6c-.4.4-.1-.1.2-.5l.4-.1zM207.9 145.4l-.7.8v-.2zM260.6 88c.6-.8.6-.4.7-.6-.6.8.2-.3-.7.6zM288.6 56.6l-.2.3-.2-.3z"/></g><g><path class="st3" d="M219.8 166.5c-.7-.2.3.4-.5 0 .2-.1.3-.2.5 0zM329.1 136.8c-1.2.6-2.5.9-3.9 1.2-1.4.4-2.8.6-4 1.4-.3.1-.1-.4-.7-.1-1.1.7-2.6 1.4-4.2 2-1.6.7-3.3 1.3-4.8 1.9l.1-.2c-.6.2-1 .9-1.6 1.2 0-.1.1-.2-.1-.2 0 .3-.9.7-1.1 1-.3.1-.3-.1-.7 0l-.2.4c-.5 1-2 1.4-3 2.4 0-.1.1-.2 0-.2-.8.8-1.7 1.7-2.6 2.5-.9.9-1.9 1.8-2.7 2.7 0-.1 0-.3-.2-.3.1.3-.4.9-.8 1.4-.4 0-.6 1-1.2 1.4v-.1c-.1.6-.7.5-.7 1.1l-.4.1c.2.5-.7.5-.8 1h.1c-.2.4-.5.5-.7.8h-.1c-.5.8-1 1.2-.7 1.3-.4.1.5-.8-.2-.6-1.6 2.8-3.4 5.6-4.5 8.6-.2.3-.4.5-.5.5 0 .3-.3 1.2-.2 1.5 0-.1-.2.2-.3.3-.3.5.2.7-.1 1.3 0-.3-.1-.4-.2-.3.1.6-.1 1.3-.1 1.9 0-.1 0-.3-.1-.3.2.7-.3 1.3-.2 1.9l-.2-.3c-.3 1 .3.3.1 1.2 0-.2-.1-.1-.2-.2.3.8.1 2.1.2 2.9h-.1c.1.9 0 1.8.3 2.7 0 .4-.5 0-.2.9.4-.1.5 1.5.8.9.1.8.4 1.9.8 2.3-.3-.3-.2.6-.6 0v.6c-.2 0-.2-.5-.3-.3.1.1.2.4.5.7.2.3.4.5.5.7.3.2.6.3.9.5.3.2.6.4 1 .7-.4-.2-.1.5-.4.3l1.5.3c.3.2-.1.3.3.4 0-.1.2 0 .4 0 .1.1 1.1.4 1.2.8.1.2-.5-.1-.2.1.6.2.6 0 1.2.1h.7c.2-.1.2-.2.1-.3-.2 0 .1.2-.3.1.3-.2.9-.3 1.4-.4-.2.1-.1.2-.2.3.7-.4 1.3-.8 1.9-1.3-.1-.2-.1.4-.2.4 1.1-.3 1.6-1.5 2.4-2-.1.1-.2-.1-.2-.1.3-.4.5-.2.7-.5.1.1.2-.4.4-.7 0-.2.1 0-.1.2l.7-1.4c.3-.6.6-1.3 1-1.8-.1 0-.1-.8 0-1l.2.2c.2-.2.3-.8.5-.8-.1-.3-.1.2-.3.7-.1.5-.2 1-.2.6.3-.1 0-1.1.3-.9.2-.5 0-1.1.4-1.5-.1.1.2.5.3.1.1-.8-.1-.2 0-.9v-.4c-.2-.1.1-.7-.2-.4.2-.1 0-1.1.3-1l.3.1c0-.3-.3-.5-.4-.8l.1-.1c-.4 0 0-.7-.4-1.1.1-.7-.3-1.7-.1-2.1-.3-.5-.5-.9-.6-1.5.1.1.1.3.2.3 0-.4-.1-.5-.3-.8.1.1 0-.8 0-1.3-.3-.5-.5-.2-.6-.2.2-.6-.8-1.3-.7-2 .1.1.5.6.4.2.2-.6-.7-.8-.9-1.5l-.2.3c0-.4-.7-.9-.4-1-.2-.2-.4-.9-.6-.6-.4-1.3-2-2.4-2-3.4-.2-.1-.4-.5-.5-.3.1.4.4.2.4.4-.1-.1-.2-.1-.3 0-.2-.3-.4-.6.1-.5-.5-.8-1.1-.2-1.8-1 .1-.1.1-.2-.2-.4l-.6-.2c-.6-.4-.1-.5 0-.7-.4-.2-.7-.5-1-.4l-.3-.5c.2.4-.4 0-.6-.1h.2c0-.1-.4-.3-.7-.4 0 .2.4.4.6.6-.2 0-.5-.2-.8-.2.2-.2-.5-.4-.8-.6-.3-.2-.5 0-.5 0 0-.1-.5-.3-.2-.3.1 0 .2.2.4.2-.2-.2-.1-.4-.6-.4-.4 0-.1.5-.7.1.2 0 .3-.1.4-.1l-.6-.3-.1.2c-.1-.1 0-.1 0-.1-.3.2-1-.3-1.2-.1-.3-.1-.6-.3-.9-.4h.1c-.3-.2-.9-.3-1.2-.2-.2-.1-.7-.1-1 0-.5-.3 0-.9-.7-.7-.5-.1-.9.3-.7.5-.5-.2-1-.1-1.5-.1s-1 0-1.4-.2c-.1.1 0 .1-.3.2-1.4-.1-2.9.5-4.1.3.4-.2 0-.2-.1-.3-.3.3-.4-.1-.5.3.1.2.1.3.5.3-.8.3-2 .6-2.5.6.3 0 .1.1-.1.2 0-.3-.7-.2-1.1.1v.2l-.4-.1c-.1.1 0 .5-.5.5-.1-.1-.1-.1-.2-.1-.4.3-.9.9-1.4.9l-.5-.1c-.2.1-.4.5-.1.3-.9.3-1.4.6-1.8.5-.5.7-1.3 1.3-2 1.9-.7.6-1.5 1.3-2.2 1.9l-.1-.1c-.5.2 0 .4-.3.5 0-.2-.5 0-.3-.4-.6.4-.5.8-.8 1.2.1.2.2-.3.3-.1 0 .1-.8.6-.7.9-.2 0-.3-.2-.3-.4l-.2.4c-.6.1.4-1.3-.3-1.2l-.3.3c-.5.1.5-1-.3-.4-.2.4-.2 1 .2.8-.6.7.2.8-.5 1.5-.3.1.5-.6.2-.6-.5.2-.6.8-.9 1 .4-.3.3.2.2.5-.5.3 0-.4-.5.1 0 .2-.4.8.1.4.1.5-.6.5-.7 1-.4 0 .1-1-.6-.5.3.1-.5.9.1.9-.3.2-.4 0-.4-.2-.4.2-.5 1.1-1 .8l.1.3c-.2 0-.4.1-.6.2-.3.3-.8 1.1-1 .8-.1.1-.8.7-.4.7.6-.2.4-.6.9-.5-.5 0-.6.6-.9.8l-.1-.1c-.1.2-.5.4-.6.6.1-.2 0-.2-.2-.1v.3c-.7.6-.4-.2-1.1.2l.4-.5c-.1.1-.4.1-.7.3 0 .3-.1.6-.2.8-.4.3-.3-.1-.6.3l.4-.5c0-.1-.5-.1-1.1.1-.3.3-.8.8-.1.6-.3.1-.8.2-.6-.1-.6.3.2.2-.4.5h-.7c-.3 0-.6 0-.9-.1l.5-.5-.4.1c.4-.4-.3-.1-.1-.5-.3 0-.6.2-.8.4.4.1.3.3 0 .6-.3.2-.6.4-.5.6-1.1.3-.9-.9-2-.1.2.1-.3.5.4.3-.7 0-.4.5-1.3.4.6-.2-.7-.4.2-.7-.1.2.5.1.6 0-.3-.1 0-.4-.7-.4-.4.1-1 .1-.9.3 0 .3.7 0 .4.2-.9.1-1-.3-1.4.1.6 0 .7.2.7.4l-.7.1.1-.2c-1-.1-.3.3-1.3.2l-.4-.4c.3-.3 1.4.2 1.3-.2-.6-.1-.9.2-1.5 0 .1 0 .3 0 .5-.1-.2 0-.4-.7-1.3-.4-.5.1-.1.1-.2.3-1-.1-1.3.1-2 0 .2-.3-1.1-.2-.4-.5.3.3 1.7.5 2.1.2-.3-.5.8.2 1-.2-.8-.1-.7-.5-.8-.8-.2 0-.4 0-.6.1-.1.2.2.3.1.5-.9-.2-1.7-.2-2.3-.1-.3-.2-.1-.4.2-.4-1.1-.1-2.1-.4-3.1-.7.5.6-1.1-.2-.8.2.5.2.9.6.5.7-.3-.1.1-.2-.1-.3-.5.1-.6-.5-1-.3 1 .1.3-.4.6-.7-.7 0 .1-.2-.6-.4-.7 0-1.6-.1-2.3-.3-.8-.6-2.3-.7-3.1-1-.4-.3 0-.5-.4-.7-.5-.2.3.5-.5.1h.1c-.3 0-1.4-.7-1.8-.3l.4-.3c-.1-.1-.3 0-.4-.1 0-.1-.1-.3.2-.3-.4-.4-1-.3-1.6-.5l.3.3c-1-.1-1.5-.6-2.4-.8l.1-.2h-.6c.2-.2-.2-.5-.6-.4l1.5-.1c.3.3-.5.1-.3.4.1.2 1 .5 1.2.3-.3-.1-.3-.1-.6-.1 0-.3.5-.2.8-.3-.2 0-.4-.2-.4-.1.4 0 .7.1 1.2.2-.4 0 .1.2 0 .3.1-.2.7-.1 1.3.2.4.5 1.3.2 2 .6-.4.2-.9.2-1.4.2.4.3.5.2 1 .5.3-.1.6-.4 1.2-.3v.2c.6.1.7-.2 1.4.1 1.2.5 2.5.9 3.4 1.2v.2c.6-.3 1.8.3 2.6.3 1.2.5 2.7.4 3.3.9 2.2.2 4.1.2 6.3.2l-.4.3c.4-.2.3.1.7.1-.5-.2.5-.3.8-.6.5 0 1.1-.1 1.6-.2.5-.2 1-.4 1.4-.7l.1.2c.7-.7 1.7-.8 2.7-1.3.2 0 .4.1.7-.1.3-.6.6-.8 1.2-1.5.5-.4 1.4-1 1.9-1.3 1.5-2 3.4-3.7 5.2-5.7h.3c.8-1.1 1.9-2.1 3-2.9.6-.4 1.2-.8 1.7-1.2.6-.4 1.1-.7 1.5-1v.5c.7-.2 1.4-.9 1.1-1 .7-.2 1.5-1 2.1-.8.7-.2.8-.5 1.3-.8 1.4-.3 1.9-.6 3.3-1l-.3.1c-.1.1-.1.3.2.2.2-.1.7-.2 1-.3.3-.1.5-.2.2-.4 1.5 0 3.4-.8 4.9-.4-.1-.1.2-.2.4-.3.7 0 1.3.1 2 .2.6.1 1.2.2 1.8.2.2.1-.4.2.2.3.3 0 0-.2.4-.2 2.2.1 4.1 1.3 5.9 2 .8.3 1.6.6 2.4 1 .8.4 1.5.8 2.3 1.4 1.5 1.1 2.7 2.3 3.8 3.6h-.1c.5.3.8.9 1.1 1.4.3.6.6 1.1 1 1.3.1.3.5.9.2.8.7.6 1 2.3 1.7 3.3 0-.1-.1-.2-.2-.3.3 1.2 1 2.2 1.2 3.5-.1-.1-.2-.3-.3-.4 0 .5.7 1.1.4 1.5.1.3.3.1.2 0 .2.7.3 1.5.4 2.2.1.4.1.8.2 1.1.1.4.1.8.1 1.2.1 1.6-.1 3.3-.5 4.8-1 2.1-.8-.1-1.1 1.7-.1.1.1.2 0 .1-.1.7-.9.7-.9 1.3.3 0 0 .4.1.4-.8 1.1-1.2 1.2-1.7 2.2l-.1-.2c-.4 1.3-1.6 2.2-2.3 3.3-1.5 1.1-3.6 1.9-5.7 1.7-1-.1-2-.4-2.9-.8-.9-.4-1.7-1-2.4-1.6-1.4-1.2-2.6-2.8-3.3-4.5-.7-1.7-1.1-3.4-1.2-5.2-.2-3.4.2-6.7 1-9.9.4-1.6.9-3.2 1.7-4.7.4-.8.8-1.5 1.2-2.2l.6-1.1.7-1c1.2-1.1 1.2-1.2 2.1-2.7 0 .1 0 .2.1.1-.2-.3.7-1 .5-1.3 1.5-1.9 3-3.6 4.7-5.4-.3.3-.2.6.1.3l.2-.5h.1c.2-.3.3-.6 0-.5 4.4-4.6 9.9-7.7 15.3-10.4.7-.2 1.5-.7 2.3-1 .8-.4 1.6-.8 2.4-1.1 4.5-1.3 8.7-2 13.4-2.9.8.6.3 1.5-1.6 2z"/><path class="st3" d="M220.7 166.7c.1.2.6.5.1.5 0-.1-.2-.3-.1-.5zM233.7 172.7s.2.1.2.2c-.2 0-.4.1-.5-.1.2.1.2 0 .3-.1zM237.2 173.7c-.1.1-.9.1-1.3 0h1.3zM240.5 174.9c.3.2.2.2-.2.2 0-.1.1-.1.2-.2zM240.8 174.6c.3 0 .4.1.6.2 0-.1-.7.1-.6-.2zM248.7 174.8c.2-.1.6-.3.8-.2-.2-.1-.9.4-.8.2zM252.2 173.3c.1 0 .2 0 .3-.1.2 0 .1.2-.1.3l-.2-.2zM301.7 166.9l-.2-.2.1-.1zM297.2 188.8c-.3.2-.2-.1-.3-.1.3-.1 0 .2.3.1zM287.9 181.4l.1.1-.3.1z"/></g><g><path fill="#83c1ff" d="M288.4 55.6L130 228.5H77.2l70.7-74.8 26.4-28 66.2-70.1z"/><path class="st1" d="M287.9 57c1.4-1.6-1 .7.8-1.1 0 .3-.2.7-.8 1.1zM281.5 55.3c-6.8.8-15.7 0-23.1.5-.9 0 .2-.4-1.7-.3-4.4.4-10.2.4-16.1.2-2.7 2.7-5.5 5.4-8 7.8l.3-.5c-1.2 1.2-2.3 2.9-3.6 4.1-.1 0 .3-.5-.1-.3-.1.5-2.1 2.4-2.5 3.1-.5.4-.6.3-1.3.9l-.5.9c-1.5 2.5-4.7 4.9-7.1 7.9.1-.2.3-.5.1-.3-3.9 4.7-9.3 10.3-13.9 15.4.1-.3.2-.6-.2-.3 0 .4-1.4 2-2.7 3.4-.8.4-2 2.5-3.6 3.9l.1-.2c-.9 1.4-1.8 1.6-2.4 2.8l-.9.6c-.2.8-1.7 1.5-2.5 2.6h.1c-.8 1-1.4 1.3-2.1 2.2h-.1c-1.8 2-3 3-2.8 3.2-.8.5 1.7-2 .4-1.2-5.9 6.7-12.2 13.3-18.4 19.9-.8.7-1.3 1.1-1.5 1.2-.6.7-2.3 2.5-2.7 3.2.2-.2-.5.3-.9.6-1.2 1.1-1 1.5-2.3 2.7.4-.6.5-.8.3-.7-.9 1.3-2.3 2.7-3.5 4.1.2-.2.4-.6.3-.6-1.2 1.6-2.5 2.6-3.6 4l.3-.6c-2.1 1.9-.3.9-2 2.5.4-.5.2-.4.2-.5-1.3 1.9-3.9 4.4-5.3 6.1.1-.1 0-.1 0-.1-1.6 1.8-3.5 3.6-5.2 5.6-.7.7-.1-.5-1.8 1.4.3.2-2.9 3.3-1.6 2.5-1.6 1.6-4.1 4-5 5.2.6-.8-1.1.5.2-.9l-1.1.9c0-.3 1-1 .6-.8-.6.7-2.4 2.7-3 3.3-1 1.4-1.8 2.8-3.6 4.9.8-1-.8.3-.2-.4l-2.1 3.3c-.6.7-.4-.1-1.2 1 .1 0-.2.5-.5.8-.3.2-2.6 2.8-3.1 2.9-.4.2 1-1.1.2-.5-1.2 1.2-1.1 1.4-2.3 2.6h-.1c-.8.8-2.2 2.5-1.2 1.8.5-.6-.4.1.5-.7-.4.7-1.7 2.2-2.9 3.4.4-.5.2-.5.3-.7-1.4 1.9-3 3.7-4.6 5.6.1.1.4-.9.7-1.1-2.4 2.2-4.4 5.1-6.5 6.9.3-.3.3 0 .3 0-1.1 1.1-1.2.9-1.9 1.7-.2 0-.9 1-1.5 1.8-.3.5-.2.2.4-.5-.9 1.2-4.8 5.6-7.3 7.9.1 0-1.2 1.8-1.7 2.3v-.4c-.6.4-1.8 1.9-2 1.9-.9 1.4 4.2-4.8 2.8-3-.5.3-1.9 2.5-1.8 2-1.1 1.1-1.9 2.4-3.1 3.4.3-.3.6-1.1-.2-.2-1.5 1.6-.4.5-1.5 1.9l-.7.9c.1.2-1.4 1.4-.6 1-.3.1-2.1 2.4-2.3 2v-.4c-.6.7-.9 1.4-1.3 2-.1.1-.3.2-.3.1.1.1 0 .3-.2.5-.1.2-.4.5-.5.5-.2.2-.6.6-.5.7-.3.2-.6.6-1 .9.7 0 1.3 0 1.5.2.5-.1.7-.1 1.6-.2.8 0 1.6-.1 2.5 0-.4 0-.8.1-.9.2 1.1.1 1.4 0 2.4-.1-.2.1 2.2.3 3.5.4 1.5-.1 1-.4 1.2-.5 1.4.4 4.4-.3 6.1.1-.5.1-2.3.2-1 .3 1.4.4 2.8-.3 5.1-.1l-.6-.4c1 .2 3.3-.2 3.1.2.8-.1 2.7.1 2.4-.2 3.7.3 9.1-.2 11.4.5.5-.1 1.9 0 1.6-.2-.9-.2-1.2.1-1.6 0 .5 0 .6-.1.6-.2 1.2.1 2.1.1 1 .4 2.6.2 2.7-.6 6-.5-.1.1.1.2 1.1.2l1.8-.3c.6 0 .5 0 .7.1.1 0 .2.1.2.1s0 .1.1.1v.3h.1c.3-.3.6-.7.9-1.1.3-.4.6-.8.7-1l1.2-.8c-.8.6.5-.8.8-1.2l-.3.4c.2-.1 1.1-1.1 1.5-1.6-.2 0-1.2 1-1.7 1.5.3-.5.9-1.2 1.4-1.8 0 .4 1.4-1.2 2-1.9.7-.7.6-1 .8-1.2.1.1 1.2-1.2.7-.5-.2.3-.6.5-.9 1 .5-.4.6-.2 1.5-1.4.6-.9-.5-.1.9-1.5-.3.4-.3.6-.5.9l1.4-1.3-.1-.4c.2-.2.1 0 .2-.1.2-.6 1.9-2.2 2-2.7.6-.7 1.5-1.4 2.1-2l-.1.1c.9-.7 1.8-1.9 2.3-2.7v.1c.4-.4 1.4-1.5 1.8-2.2 1.2-1 1 .2 1.9-1.3 1.1-1.2 1.4-2.1.8-1.7 2-2 3.9-4.6 5.9-6.3.2-.4 0-.2.5-.9 2.9-3 5.7-6.6 8.2-8.7-.7.9.1.2.2.3.5-.9 1-.7.9-1.2-.2-.1-.2-.2-1.1.6 1.6-1.9 4.1-4.6 5.2-5.5-.5.4-.2 0 .1-.4.1.3 1.4-1 2.2-2v-.3l.8-.5c.3-.4.1-.7 1.2-1.6.1 0 .2 0 .4-.2.8-1.2 2-2.8 3.2-3.8l1.1-.7c.4-.5 1-1.4.2-.6 1.9-1.8 3.1-3.1 3.8-3.5 2.6-3.7 7-8.6 10.6-12.5v.2c1.1-1 .3-.7 1.1-1.4-.2.4 1-.6.3.3 1.5-1.4 1.6-2.1 2.4-3.1 0-.3-.6.9-.6.5.1-.2 2-2 2-2.4.4-.3.3.1.2.4l.7-1c1.3-.9-1.9 3-.5 2.1l.7-.9c1-.6-1.8 2.5.2.4.7-1 1.1-2.1.3-1.4 1.7-2 .3-1.4 2.2-3.4.6-.4-1.5 1.7-.9 1.4 1.1-.8 1.7-2 2.5-2.8-1 .9-.4-.1.1-.8 1.1-1-.4.9 1-.6.1-.4 1.3-1.8.1-.7.2-.8 1.5-1.5 2-2.5.6-.3-.9 1.9.6.4-.4.1 1.6-2.2.5-1.6.6-.6.8-.5.5.1 1-.8 1.7-2.5 2.3-2.5l.1-.5c.3-.2.7-.6 1.3-1 .7-.8 2.1-2.8 2.3-2.5.2-.3 1.9-2.1 1-1.6-1.2 1-1 1.4-1.9 1.8 1-.6 1.5-1.7 2-2.4h.2c.3-.4 1.2-1.3 1.3-1.7-.2.4 0 .3.3 0l.2-.6c1.4-1.7.6-.1 2-1.7l-.9 1.3c.2-.3.9-.7 1.5-1.5.1-.4.4-1.1.5-1.5.7-.9.5-.2 1.2-1.2l-.8 1.3c-.1.2 1-.5 2-1.7.6-.8 1.5-2.2.3-1.1.5-.6 1.4-1.3 1.1-.7 1.2-1.4-.3 0 .6-1.2.5-.4 2-1.7 3-2.4l-.8 1.4.7-.8c-.7 1.2.6-.4.3.4.5-.5 1.1-1.2 1.5-1.8-1.8 1.3 1.1-2.2.4-2.1 1.9-2.2 2-.6 3.6-3.4-.4.3.3-1-.9.5 1.3-1.3.5-1.2 2.1-2.7-.9 1.3 1.5-1 .1.9 0-.2-1 .9-1.2 1.2.6-.4.2.4 1.5-1 .7-.9 1.8-2 1.5-2-.2-.1-1.2 1.3-.9.6 1.5-1.7 2-1.8 2.3-2.8-.9 1.1-1.4 1.2-1.5 1l1.1-1.3-.1.4c1.9-1.9.3-.8 2.1-2.7l1.1-.7c-.2.6-2.6 2.7-2 2.7 1.2-1.2 1.4-1.8 2.5-2.9-.2.3-.5.7-.7.9.4-.4 1.3-.5 2.6-2.5.7-1 .1-.4 0-.5 1.8-2 2.2-2.8 3.4-4.1 0 .5 2.1-2.3 1.1-.6-.7.5-3.4 3.4-3.8 4.4 1-.5-1.5 1.5-1.6 2.2 1.5-1.6 1.7-1.3 2.1-1.3.4-.4.7-.9.9-1.2 0-.4-.5.2-.8.1 1.7-1.7 3.2-3.6 3.9-4.7.6-.5.6-.2 0 .6 1.9-2.2 4-4.4 5.9-6.4-1.5 1 2-2.3.9-1.7-1.1 1-2.1 1.8-1.7 1 .6-.7.1.1.4-.1.6-1 1.5-1.1 2-2.2-1.7 2 0 .7-.1 1.3 1.2-1.5.1.2 1.4-1.2 1.2-1.5 2.6-3.3 4-4.9 2-1.7 4.5-4.9 6.1-6.7 1-.8.6.1 1.6-.9 1.1-1.2-1.1.6.6-1l-.1.2c.4-.6 3.1-3 3.2-3.8l-.2.8c.3-.3.5-.7.7-.9.1.1.5-.2.1.4 1.2-.9 2-2.3 3.1-3.4l-.8.6c1.7-2.1 3.1-3.3 4.7-5.2l.1.2.9-1.2c-.1.4 1-.5 1.4-1.2l-2.3 3.3c-.8.7.6-1.1 0-.7-.5.3-2.1 2.1-2.2 2.5.6-.7.6-.7 1.1-1.3.4 0-.5 1-.8 1.7.3-.4.8-.8.8-.9-.5.8-1.2 1.5-2.2 2.7.6-.9-.5.3-.3-.1.1.3-.8 1.4-2.2 2.8-1.2.8-2.3 2.8-3.9 4.4.4-.9 1-1.9 1.9-3-1.1.9-1.1 1.2-2.1 2.1-.3.6-.4 1.2-1.6 2.7l-.2-.1c-1.1 1.3-.8 1.5-2.3 3-2.5 2.6-5.1 5.4-7 7.4l-.2-.1c-.7 1.4-3.4 3.9-4.6 5.6-2.5 2.5-5.1 5.8-6.5 6.9-4.1 4.7-7.7 8.8-12.1 13.6l.5-1c-.6 1-.6.4-1.4 1.3 1.1-.8-.8 1.4-1.3 2.1-2.1 2-4.4 4.9-6 6.9l-.2-.1c-1.5 2.2-3.8 4.2-6 6.5-.3.2-.8.5-1.5 1.2-.9 1.5-1.6 2.2-3.2 4.2-1.3 1.4-3.4 3.6-4.8 4.9-4.4 5.5-9.5 10.6-14.2 16.2l-.5.2c-4.4 5.6-10.7 11.7-14.6 16.3l.1-.7c-1.4 1.3-2.8 3.3-2.3 3.1-1.4 1.3-3.1 3.6-4.1 4.3-1.4 1.4-1.5 1.9-2.5 3.1-2.7 2.8-3.7 3.9-6.1 6.6l.6-.7c.2-.4.1-.5-.5.2-.8 1.1-3.5 3.6-2.2 3-2.9 2.7-6 6.9-8.9 9.4.3-.1-.3.6-.5.9-2.3 2.5-5 5-6.7 7.2-.4.4.4-.8-.5.2-.5.6.1.1-.5.9-3.6 4.3-7.8 8.1-11.2 11.9l-3.9 4.5c-1.5 1.7-3 3.3-4.5 5h-15.9l.1-.1c-2.9.4-6.8-.4-9.1.2-.7-.1-2.6 0-2.1-.2-2.3.3-6.4-.2-9.8.1.3 0 .5 0 .8-.1-3.4-.2-6.3.1-9.9-.1.4 0 1-.1 1.1-.2-1.4-.2-3.2.4-4-.1-1.2 0-1 .2-.1.2-2.6 0-5.3 0-8-.1l5.4-5.7c1.1-1.2 2.2-2.5 3.4-3.7 2.2-2.4 4.4-4.8 6.5-7.1 4.2-4 .8.3 3.7-3.3.3-.2.1-.3.2-.3 1.1-1.4 2.3-1.6 2.9-2.7-.6.2.4-.7.3-.9 2.6-2.4 3.2-2.8 5-5v.3c1.9-2.7 4.7-5.3 6.2-7.6 12.3-13.2 24.1-25.9 36.1-38.8 12-12.6 23.6-25.1 35.9-37.8 3.1-2.7 3.3-3 6.3-6.4-.1.2-.3.4 0 .2-.1-.4 2.2-2.3 2.2-2.9 4.5-4.7 8.6-9.1 13.2-14-.7.8-.9 1.4 0 .4l.8-1.1.2-.1c.6-.7 1.1-1.5.4-.9 11.4-12.5 23.3-24.1 34.6-36.2l.9-.9c.5-.5 1-1 1.5-1.6h6.3c1.9 0 3.8-.1 5.5-.1 12.7.4 24.1.8 36.9.5.4.8-1.2 1.7-6.5 1.9zM286.2 58.9c-.4.2-1.5 1.2-.9.2.3 0 .9-.4.9-.2z"/><path class="st1" d="M258.4 86.7c0 .1-.4.4-.5.4.3-.4.5-.8.8-1-.3.4-.2.4-.3.6zM251.6 94.1c0-.2 1.4-1.9 2.2-2.8l-2.2 2.8zM244.8 100.6c-.6.5-.5.3.2-.5.1 0-.1.3-.2.5zM244.6 101.3c-.5.6-.8.8-1.2 1 .2.1 1.2-1.4 1.2-1zM230.6 116c-.3.4-.9 1.2-1.4 1.5.4-.4 1.5-2 1.4-1.5zM224.3 123.1c-.2.2-.3.3-.5.6-.4.4-.1-.1.2-.5l.3-.1zM99.6 227.4l1-.1-.2.1zM114.3 190.8c.6-.8.6-.4.7-.5-.6.6.1-.4-.7.5zM141.7 160.7l-.2.3-.2-.3z"/></g><g><path class="st3" d="M222 141c-21.7-7.5-43.5-14.9-65.2-22.4-14.7-5.1-29.4-10.1-44.2-15.2-16.1-5.5-33-15.4-48.9-3.5-6.9 5.2-11.3 14.8-7.7 23.2 1.7 3.9 5 7 8.7 9.1 7.2 4.2 15.6 5.9 23.4 8.5 11.6 4 23.2 8 34.8 12.1 25 8.9 49.9 17.8 74.9 26.8 1.8.6 3.5 1.3 5.3 1.9 0 .1 31.9-5.7 18.9-40.5z"/><path class="st1" d="M220.9 141.2c1.4.4-.7-.5 1 .2-.3.1-.6.1-1-.2zM223.1 145.8c1 2.2 1.6 4.9 1.8 7.8.2 2.8 0 5.7-.3 8.3-.1.6-.4-.2-.6 1.1-.3 2.5-1.6 5.7-3.8 8.3-2.1 2.7-5.1 4.8-7.8 6.1l.3-.3c-1 .5-2.1 1.5-3.3 2 0-.1.3-.3 0-.2-.2.4-2 1-2.4 1.3-.5.1-.5-.1-1.1 0l-.6.5c-.4.3-.9.5-1.5.7-.1 0-.3.1-.4.1h-.2l-.2-.1-.9-.3c-1.2-.5-2.5-1-3.8-1.3.1 0 .4 0 .2-.1-4.2-1.1-9.3-3-14-4.5.2 0 .4-.1.2-.3-.3.2-1.8-.3-3-.6-.5-.5-2.2-.5-3.6-1.2h.1c-1.2-.1-1.5-.7-2.5-.7l-.6-.5c-.6.2-1.5-.8-2.4-.9v.1c-.9-.2-1.2-.6-2-.8l-.1-.1c-1.8-.5-2.8-1.1-2.9-.8-.5-.5 1.8.5.9-.2-6-1.8-12.1-4.1-18.1-6.2-.6-.4-1.1-.6-1.2-.7-.6-.2-2.3-.7-2.9-.8.2.1-.3-.3-.6-.4-1-.5-1.3-.1-2.5-.7.5.1.7 0 .6-.1-1.1-.1-2.5-.7-3.7-1 .2 0 .5.1.5 0-1.4-.2-2.4-.9-3.6-1.2h.5c-1.8-.9-.7.2-2.2-.5.4.1.3 0 .4-.1-1.6-.2-4-1.2-5.5-1.6h.1c-1.6-.5-3.3-1.2-5.2-1.8-.6-.3.4-.3-1.4-.9-.1.4-3-.9-2.1-.1-1.5-.6-3.7-1.5-4.8-1.7.7.1-.6-.7.7-.3l-.9-.5c.2-.1.9.4.7.1-.6-.2-2.5-.7-3-.9-1.2-.2-2.4-.1-4.3-.7.9.2-.4-.6.3-.4l-2.8-.2c-.6-.2 0-.3-1-.5 0 .1-.4 0-.7 0-.2-.1-2.6-.8-2.7-1.2-.2-.2 1 .3.4-.1-1.1-.4-1.2-.3-2.4-.7v-.1c-.7-.3-2.3-.6-1.5-.1.5.2-.1-.3.6.1-.6 0-1.9-.4-3.1-.8.4.1.4 0 .6-.1-1.6-.3-3.3-.7-5-1.2-.1.2.7-.1 1 .1-2.1-1-4.6-1.3-6.3-2.2.3.1.1.3.1.2-1-.4-.9-.6-1.6-.7 0-.2-.9-.2-1.6-.4-.4 0-.2-.1.5 0-1-.2-5.1-1.1-7.3-2.1 0 .1-1.5-.1-2.1-.3l.3-.1c-.4-.3-1.8-.6-1.8-.8-1.2-.1 4.4 1.2 2.8.9-.3-.3-2.2-.3-1.8-.5-1.1-.3-2.2-.5-3.1-1 .3.1 1 0 .1-.3-1.5-.5-.5-.1-1.7-.5-.3-.1-.5-.1-.8-.2-.1.2-1.3-.6-.9-.1-.1-.2-2.2-.9-1.9-1.2l.3-.2c-.6-.3-1.2-.2-1.7-.4-.1-.1-.2-.2-.1-.2-.3.3-1.4-.8-2.3-1-1.2-.9-3.1-2.3-3.4-3-.9-.7-1.8-1.4-2.5-2.5.2.2.4.5.6.5-.4-.7-.6-.8-1.1-1.4.1.1-.7-1.5-.9-2.4-.6-1-.6-.6-.8-.6 0-.6-.4-1.3-.6-2.1-.3-.8-.5-1.7-.4-2.4.1.4.5 1.6.4.7.1-.5 0-1-.1-1.6-.1-.3-.1-.6-.2-1 0-.4 0-.7.1-1.2l-.4.4c.2-.7.1-2.5.4-2.3-.1-.6.6-1.9.2-1.8.5-1.3 1-2.9 1.8-4.3.7-1.4 1.5-2.6 2.3-3.1.2-.4.8-1.1.6-1-.6.4-.5.8-.7.9.2-.3.2-.4.1-.5.6-.6 1-1.1.8-.3.7-.7.9-1.1 1.2-1.6.2-.5.6-1.1 1.5-1.9 0 .2.2.1.7-.4.3-.3.6-.7.9-1 1.3-.8.9-.2 1.1 0 .7-.5 1.5-1 1.7-1.4.3-.1.7-.1 1-.2-.8.1.5-.4.9-.7l-.3.2c.2 0 1-.5 1.4-.7-.2-.1-1.1.3-1.6.5.3-.3.9-.6 1.4-.9 0 .2.3 0 .7-.1.4-.1.9-.3 1.3-.4.7-.2.7-.5 1-.6 0 .1.3 0 .5-.1s.4-.1.1.1c-.2.1-.6.1-1 .3.5-.1.5.1 1.5-.3.7-.3-.3-.4 1.2-.6-.4.1-.4.3-.7.4l1.4-.2V94c.2 0 .1.1.2.1.4-.4 2.1-.3 2.4-.7.7-.1 1.5 0 2.2 0h-.1c.8.1 1.9 0 2.6-.1.4.1 1.5.1 2.1 0 1.1.3.3.8 1.5.7 1.1.2 1.8-.1 1.4-.3 1 .2 2.1.4 3.1.6 1.1.2 2.1.5 2.9.9.3 0 .1-.1.7 0 2.8.9 6 1.7 8.1 3-.8-.2-.1.2-.2.3.7.1.7.5 1.1.3 0-.2.1-.3-.6-.6 1.7.5 4.1 1.5 5 2-.4-.3 0-.2.3-.1-.2.3.9.8 1.9 1l.2-.1.5.4c.4.1.5-.2 1.4.3 0 .1 0 .2.2.3 1 .2 2.4.4 3.4.9l.8.6c.5.1 1.2.2.5-.1 1.7.8 2.8 1.2 3.3 1.6 3.2.5 7.6 2 11.2 3.2l-.2.1c.9.5.6-.1 1.2.3-.4 0 .6.5-.2.4 1.3.6 1.8.4 2.7.6.2-.1-.7-.1-.5-.3.2 0 1.8.8 2.1.6.3.2 0 .3-.3.4l.9.2c.9.7-2.5-.2-1.6.5l.8.2c.6.5-2.1-.4-.2.4.9.2 1.7 0 1-.4 1.8.5 1-.4 2.9.3.5.3-1.5-.5-1.2-.1.8.5 1.8.5 2.6.8-.8-.4 0-.4.6-.3.9.5-.7 0 .6.5.3-.1 1.5.2.5-.3.6-.2 1.4.6 2.2.6.4.4-1.6.1-.2.7-.1-.3 1.9.3 1.3-.3.6.3.5.5.1.5.8.4 2.2.2 2.3.8l.4-.2c.2.2.6.4 1 .6.7.3 2.5.5 2.3.8.2 0 1.9.6 1.3.1-1-.5-1.3-.2-1.7-.8.6.5 1.5.5 2.1.6v.2c.4.1 1.2.4 1.5.3-.3 0-.2.1.1.3l.4-.1c1.5.4.2.5 1.6.9l-1.1-.2c.2 0 .7.4 1.3.6.3-.1.9-.2 1.2-.3.8.2.3.3 1.1.4l-1.1-.1c-.2 0 .6.6 1.6.9.7.2 1.8.2.8-.2.5.2 1.2.6.8.6 1.2.3-.1-.3 1 0 .4.3 1.6.9 2.4 1.4h-1.2l.7.3c-1 0 .4.4-.2.5.5.2 1.1.3 1.6.4-1.3-1 1.8-.1 1.6-.6 2 .6.9 1.4 3.2 1.5-.3-.2.8-.2-.5-.5 1.2.5 1-.1 2.4.5-1.1-.2 1 .8-.6.5.2-.1-.8-.4-1.1-.4.4.3-.2.4 1 .8.8.2 1.8.6 1.8.3s-1.2-.4-.6-.4c1.6.4 1.7.9 2.5.7-1-.3-1.1-.6-1.1-.8l1.2.3-.3.1c1.8.7.6-.1 2.4.5l.7.6c-.5.1-2.5-1-2.3-.4 1.1.4 1.6.3 2.6.8-.3 0-.6-.1-.8-.2.4.2.6.9 2.3 1.1.9.2.3-.1.4-.2 1.8.6 2.4.6 3.6 1-.4.2 2.1.7.7.6-.5-.4-3.2-1.3-3.9-1.2.5.6-1.4-.5-1.9-.3 1.5.5 1.3.9 1.4 1.2.4.2.8.2 1.1.2.2-.2-.3-.4-.2-.6 1.6.6 3.2 1 4.2 1.1.5.3.3.5-.4.3 2 .6 4 1.3 5.8 2-1.1-.8 2.1.6 1.4 0-1-.4-1.7-1-1.1-1 .6.2-.1.2.2.3.9.1 1.1.7 2 .7-1.8-.5-.5.3-.9.5 1.3.3-.1.2 1.1.6 1.3.3 2.9.7 4.4 1.1 1.7.9 4.5 1.5 6.1 2.1.8.4.1.6 1 .9 1.1.4-.7-.6.8.1h-.2c.5.1 2.8 1.2 3.4.9l-.6.2c.3.1.6.1.8.2 0 .1.3.3-.2.3.9.6 2 .7 3.1 1l-.6-.4c1.8.4 3 1.1 4.7 1.6l-.1.2 1.1.2c-.3.1.6.6 1.2.6l-2.9-.4c-.7-.4.9 0 .5-.3-.3-.3-2-.8-2.3-.7.6.2.7.2 1.2.3.1.4-.8 0-1.4.1.3.1.8.3.9.3-.7-.1-1.3-.3-2.4-.6.8.1-.3-.3 0-.3-.2.2-1.2 0-2.5-.6-.8-.6-2.5-.6-4-1.2.7-.1 1.6 0 2.5.2-.9-.5-1.1-.4-2-.8-.5 0-1 .2-2.2-.1v-.2c-1.2-.3-1.3 0-2.7-.5-2.4-.9-4.9-1.8-6.8-2.5v-.2c-1.2.1-3.5-1-5-1.3-2.3-1-5.2-1.6-6.3-2.3-4.2-1.3-7.9-2.4-12.3-4h.8c-.8-.1-.4-.3-1.2-.6.8.5-1.2-.1-1.8-.1-1.9-.9-4.4-1.5-6.2-1.9v-.2c-1.9-.2-3.8-1.3-5.9-2.1-.2-.2-.5-.5-1.2-.7-1.3-.1-1.9-.3-3.7-.7-1.3-.4-3.3-1.2-4.5-1.8-4.9-1.2-9.6-3.1-14.6-4.5l-.3-.3c-4.9-1.1-10.6-3.6-14.7-4.7l.5-.3c-1.2-.6-2.9-.9-2.7-.5-1.2-.6-3.2-.9-3.9-1.5-1.3-.5-1.7-.4-2.8-.7-2.5-1.1-3.5-1.5-6-2.3l.6.3c.3 0 .4-.1-.2-.4-.9-.2-3.3-1.4-2.6-.6-2.5-1.2-6.1-2-8.5-3 .2.2-.5 0-.8 0-1.1-.3-2.3-.6-3.4-.9-1.1-.2-2.2-.4-3.1-.5-.4-.1.6-.2-.3-.3-.6 0 0 .2-.7.2-3.7-.1-7.6-.3-10.8.7-2.8 1-5.5 2.5-8 4.3-2.4 1.8-4.4 4-5.8 6.5l-.1-.1c-.3.9-.9 1.8-1.4 2.8-.5 1-.8 1.9-.7 2.7-.2.4-.3 1.6-.5 1.3 0 .4-.1.8-.1 1.3s-.1 1-.1 1.6v.8l.1.8c.1.6.3 1.1.5 1.6 0-.2-.1-.3-.2-.5.3 2.2 1.4 3.8 2.6 5.7-.2-.2-.5-.5-.6-.5.4.9 1.6 1.4 1.6 2.1.4.4.4.1.2-.1 1.7 1.9 4 3.4 6.5 4.6 2.5 1.2 5.1 2.2 7.8 3 3.7 1.5 0 .8 3.1 1.5.2.2.2-.1.2 0 1.2.2 1.7 1.1 2.6 1.1-.3-.4.6 0 .7-.2 2.3.9 2.8 1.3 4.7 1.7l-.2.1c2.4.3 4.8 1.4 6.8 1.6 12.1 4.1 23.8 7.9 35.5 12 11.6 4.2 23 8.1 34.7 12.5 2.6 1.4 2.8 1.4 5.9 2.4-.1 0-.3 0-.2.1.3-.3 2.1.7 2.5.5 4.3 1.6 8.4 3 12.9 4.6-.7-.2-1.2-.1-.3.2l1 .1.1.1c.6.2 1.3.2.7-.1 5.7 1.9 11.2 4 16.7 6.1l.5.2.2.1h.1c.7-.1 1.3-.3 2-.5 1.3-.4 2.6-.9 3.9-1.5 2.5-1.1 4.9-2.6 6.9-4.5 1-.8 2.1-2 3-3.3.9-1.3 1.7-2.7 2.2-4 .9-1.8 1.5-3.8 1.9-5.8.3-2 .5-4 .3-6.1-.2-4.1-1.3-8.2-3-12.3 0 0 .3.2.8.8.3.2 1.1 1.2 1.6 3z"/><path class="st1" d="M219.2 140.7c-.2-.3-1.2-.7-.3-.6 0 .1.4.5.3.6zM193.4 130l-.4-.2c.3.1.7.1.9.2-.3-.1-.3 0-.5 0zM186.7 127.6c.1-.1 1.6.3 2.5.6l-2.5-.6zM180.7 124.9c-.5-.3-.3-.3.4-.1 0 .1-.3.1-.4.1zM180.1 125.1c-.5-.2-.8-.3-1-.5 0 .1 1.3.3 1 .5zM166.7 120c-.3-.1-1.1-.2-1.3-.5.2.2 1.6.4 1.3.5zM160.3 118c-.2-.1-.3-.1-.5-.2-.4-.2.1-.2.4-.1l.1.3zM53.6 117.2c0-.3-.1-.5-.1-.8l.1.1v.7zM96.6 144.9c.7.2.4.3.5.4-.5-.2.4-.1-.5-.4zM124 153.7l-.2-.1.2-.2z"/></g><g><path class="st1" d="M224 151.1c1.2.4-.6-.3.8.2-.2.1-.4 0-.8-.2zM212.3 173.7c-4.1-.9-9.2-3-13.6-4.2-.5-.2.2-.2-1-.5-4.3-1.1-10.8-3.5-15.9-5.4h.3c-1-.4-2.2-.6-3.2-1 0 0 .3.1.1-.1-.3 0-1.9-.6-2.3-.6-.4-.2-.3-.3-.8-.5l-.6-.1c-1.7-.2-4-1.4-6.3-2 .1 0 .3.1.2 0-3.7-1-8.1-2.6-12.2-3.9.2 0 .4 0 .1-.2-.2.1-1.5-.3-2.6-.7-.4-.3-1.9-.5-3.1-1h.1c-1-.2-1.4-.6-2.2-.6l-.6-.3c-.5.1-1.3-.6-2.1-.7-.7-.2-1.1-.4-1.8-.6h-.1c-1.6-.5-2.5-.9-2.5-.7-.5-.3 1.5.5.7 0-5.2-1.6-10.6-3.5-15.8-5.3-.6-.3-.9-.4-1.1-.5-.5-.1-2-.6-2.5-.7.2.1-.3-.2-.6-.3-.9-.4-1.1-.2-2.1-.6.4.1.6.1.5 0-.9-.2-2.1-.6-3.2-.9.2 0 .4.1.4 0-1.2-.3-2.1-.8-3.1-1h.4c-1.6-.7-.5 0-1.9-.5.3.1.2 0 .3 0-1.4-.3-3.5-1.1-4.8-1.5h.1c-1.4-.5-2.9-1.1-4.5-1.5-.6-.2.3-.1-1.3-.6 0 .2-2.6-.8-1.8-.3-1.3-.5-3.3-1.3-4.1-1.5.6.1-.5-.4.5-.1l-.8-.4c.1 0 .8.3.6.1-.5-.2-2.1-.7-2.6-.9-1-.2-2-.4-3.6-.9.8.2-.4-.3.2-.2l-2.3-.5c-.5-.2-.1-.2-.8-.4 0 .1-.3 0-.6-.1-.2-.1-2.2-.8-2.4-1-.2-.2.9.3.3 0-1-.4-1-.3-2-.7-.6-.3-1.9-.6-1.3-.3.4.2-.1-.2.5.1-.5-.1-1.6-.5-2.6-.8.3.1.3 0 .5 0-1.4-.4-2.8-.8-4.3-1.4-.1.1.6.1.8.2-1.8-.8-3.9-1.3-5.4-2.2.3.1.1.2.1.1-.9-.4-.8-.5-1.4-.7 0-.1-.7-.3-1.3-.5-.3-.1-.1-.1.4.1-.4-.2-1.5-.5-2.7-1.1-.3-.1-.6-.3-.9-.4l-.9-.6c-.6-.4-1-.8-1.4-1.2 0 .1-1.1-.8-1.4-1.2l.2.1c-.3-.4-1.1-1.3-1.1-1.4-.4-.4.3.4.9 1.1.7.7 1.4 1.3.8.8-.1-.2-.5-.5-.8-.8-.3-.3-.5-.5-.4-.5-.6-.7-1.3-1.5-1.7-2.3.1.2.6.6.1-.1-.7-1.2-.3-.3-.9-1.3l-.4-.6c-.1 0-.5-1.1-.4-.6 0-.1-.2-.6-.4-1s-.3-.8-.2-.8l.2.1c-.2-.6-.5-.9-.7-1.3v-.2c-.2 0-.4-1.4-.7-2.1-.1-.3-.1-.7-.2-1.1l-.1-.6c0-.3-.1-.6-.1-.8.4-.4.8-.7 1-.8.2-.2.4-.3.6-.4.7-.6 1.4-1.2 2.4-1.7-.2.1-.4.3-.5.4.6-.3.7-.5 1.3-.8-.1.1 1.3-.6 2-.8.9-.4.5-.4.6-.5.5-.1 1.1-.3 1.7-.6.7-.2 1.4-.5 1.9-.5-.3.1-1.3.5-.5.3.9 0 1.7-.5 3.1-.7-.1-.1-.2-.1-.4-.1.6 0 2.1-.3 2-.1.5-.1 1.7 0 1.5-.2.6.1 1.2 0 1.9.1s1.3.1 2 .2c1.3.2 2.5.5 3.1.8.3.1 1.1.3 1 .2-.5-.3-.8-.2-.9-.3.3.1.4.1.4 0 .7.3 1.2.4.5.4 1.5.6 1.7.2 3.6.9-.1 0 0 .1.6.3l1.1.2c1.2.4.6.4.6.5.7.2 1.5.5 1.8.5l.8.4c-.5-.3.6.1.9.2l-.3-.1c.1.1.9.3 1.3.4-.1-.1-.8-.4-1.3-.6.4.1.9.3 1.3.3-.2.1 1 .4 1.6.6.6.2.7.1.9.2 0 .1 1 .3.5.3-.2-.1-.4-.2-.8-.3.4.2.3.3 1.2.5.6.2-.1-.3 1.1.2-.3-.1-.4-.1-.6-.1l1.1.4.1-.1c.1.1 0 .1.1.1.4 0 1.7.5 2 .5.6.2 1.1.5 1.7.7h-.1c.6.3 1.5.5 2.1.7.4.1 1.2.4 1.7.5.9.4.2.5 1.2.7.9.3 1.5.3 1.2.1 1.6.6 3.5 1.1 5 1.8.3 0 .1 0 .6.1 2.4.9 5.1 1.6 7 2.5-.7-.2-.1.1-.1.2.6.1.7.3.9.2 0-.1.1-.1-.6-.4 1.5.4 3.6 1.2 4.4 1.5-.4-.2-.1-.1.3 0-.2.1.9.5 1.7.7l.1-.1.5.3c.3.1.4-.1 1.2.3l.2.2c.9.2 2.1.5 2.9.9l.7.4c.4.1 1.1.3.4 0 1.5.6 2.5.9 2.9 1.2 2.7.6 6.6 1.9 9.6 3h-.1c.8.3.5 0 1 .3-.3 0 .6.4-.1.2 1.2.5 1.6.4 2.3.6.1-.1-.6-.2-.4-.2.1 0 1.6.6 1.8.6.3.2 0 .2-.2.2l.7.2c.8.5-2.1-.4-1.3.1l.7.2c.6.4-1.8-.4-.2.2.7.2 1.4.2.8-.1 1.5.5.8-.1 2.4.5.4.2-1.3-.4-1-.2.7.4 1.6.5 2.2.7-.7-.3 0-.2.4-.1.8.3-.6-.1.6.4.2 0 1.3.3.4-.1.5 0 1.2.5 1.9.5.3.3-1.3-.1 0 .4-.2-.2 1.6.4 1 0 .5.2.5.3.1.3.7.3 1.8.4 2 .7h.3c.2.1.5.3.9.4.6.2 2.1.5 2 .7.2 0 1.7.5 1.1.2-.9-.4-1.1-.3-1.5-.6.6.4 1.3.4 1.8.6l.1.1c.3.1 1 .3 1.2.3-.3 0-.1.1.1.2h.4c1.3.4.2.3 1.5.7l-1-.2c.2.1.6.3 1.2.5h1c.7.2.3.2 1 .3l-.9-.2c-.1 0 .5.4 1.5.7.6.2 1.6.3.7 0 .5.2 1.1.4.7.4 1.1.3-.1-.2.8.1.3.2 1.5.7 2.1 1l-1-.2.6.2c-.9-.1.4.2-.1.2.4.2 1 .3 1.4.4-1.2-.7 1.5.2 1.2-.2 1.7.5.9.9 2.8 1.2-.3-.2.6 0-.5-.3 1.1.4.8 0 2 .6-1-.2.9.6-.5.2.1 0-.7-.3-.9-.4.4.2-.2.2.9.6.7.2 1.6.5 1.5.4 0-.1-1-.3-.6-.3 1.3.4 1.5.7 2.1.6-.8-.3-1-.5-1-.5l1 .3h-.2c1.5.6.5 0 2 .5l.7.4c-.4 0-2.2-.8-2-.5 1 .3 1.3.3 2.3.7-.2-.1-.5-.1-.7-.2.3.1.6.5 2.1.8.7.2.2 0 .3-.1 1.6.5 2.1.6 3.1.9-.3.1 1.8.6.6.4-.5-.3-2.8-1-3.4-1.1.5.4-1.2-.4-1.6-.4 1.3.4 1.1.6 1.3.8.3.1.7.2.9.2.2-.1-.3-.2-.3-.3 1.4.5 2.8.9 3.6 1.1.5.2.3.3-.3.1 1.7.5 3.5 1.2 5.1 1.7-1-.5 1.8.6 1.1.2-.8-.3-1.5-.7-1-.6.5.2 0 .1.2.2.7.1 1 .5 1.7.6-1.6-.5-.4.1-.7.2 1.1.3-.1.1 1 .5 1.1.3 2.5.7 3.7 1.1 1.5.7 3.9 1.3 5.3 1.8.7.3.1.3.9.6.9.3-.6-.4.7.1h-.1c.4.1 2.4 1 2.9.9h-.5c.2.1.5.1.7.2 0 .1.3.2-.2.1.8.4 1.8.6 2.7.9l-.5-.3c1.6.4 2.6.9 4.1 1.4l-.1.1.9.2c-.3 0 .5.4 1.1.4l-2.4-.5c-.6-.3.8.1.4-.1-.3-.2-1.7-.7-2-.6.5.2.6.2 1 .3.1.2-.7-.1-1.1-.1.3.1.7.3.7.2-.6-.1-1.1-.3-2-.6.6.2-.3-.2-.1-.2-.1.1-1-.2-2.1-.6-.8-.4-2.2-.6-3.5-1.1.6.1 1.3.2 2.1.4-.8-.3-.9-.3-1.7-.7-.4 0-.8 0-1.9-.3v-.1c-1-.3-1-.1-2.3-.6-2.1-.8-4.3-1.5-5.9-2.1v-.1c-1-.1-3-.9-4.3-1.3-2-.8-4.5-1.4-5.5-2-3.7-1.2-6.9-2.2-10.6-3.5l.7.1c-.7-.1-.4-.2-1.1-.4.7.4-1-.2-1.5-.2-1.6-.7-3.8-1.3-5.4-1.7v-.1c-1.6-.3-3.3-1.1-5.2-1.8-.2-.1-.5-.3-1.1-.5-1.1-.2-1.6-.4-3.1-.8-1.1-.4-2.8-1-3.9-1.4-4.2-1.2-8.3-2.7-12.6-4.1l-.3-.2c-4.2-1.2-9.2-3.1-12.8-4.2l.4-.1c-1.1-.4-2.5-.8-2.3-.6-1.1-.4-2.8-.8-3.4-1.2-1.1-.4-1.4-.4-2.4-.7-2.2-.8-3.1-1.1-5.2-1.8l.5.2c.3 0 .3 0-.2-.2-.8-.2-2.9-1-2.2-.6-2.2-.9-5.4-1.7-7.5-2.6.2.1-.4-.1-.6-.1-2-.7-4.1-1.5-5.7-2-.3-.1.5.1-.3-.2-.5-.1 0 .1-.6-.1-3.3-1-6.5-2.4-9.5-3.3-2.6-.8-5.3-1.7-8-2.6-1.3-.4-2.7-.9-3.9-1.3-.6-.2-1.3-.4-1.9-.6-.6-.1-1.3-.3-1.9-.4h.1c-.9-.1-1.9-.2-2.8-.4-1-.1-1.9-.1-2.6 0-.4-.1-1.5.1-1.3 0-1.4.2-3.8.4-5.7 1.2.2-.1.3-.1.5-.2-1.9.5-3.5 1.4-5.4 2.4.2-.1.5-.3.5-.4-.4.2-.8.5-1.1.7-.3.3-.7.5-.9.5-.4.3-.2.3 0 .1-.3.2-.6.4-.9.7l-.4.4v.7l.1.7.3 1.5c.3 1 .6 1.9 1 2.8.8 1.9 1.8 3.6 3.1 5.2 1 1.4 1 1.4 1 1.5-.1 0-.2-.1.8.9.1.2.2 0 .2.1.4.3.7.6.9.9.2.3.5.4.8.6-.2-.3.4.2.5.1 1.9 1 2.2 1.3 3.8 1.9h-.1c1.9.6 4 1.6 5.7 1.9 10.4 4 20.4 7.4 30.7 11 10.1 3.5 20 7 30.3 10.6 2.3 1 2.5 1.1 5.2 1.9-.1 0-.3-.1-.1 0 .2-.1 1.9.6 2.2.6 3.8 1.3 7.3 2.5 11.2 3.8-.6-.2-1-.2-.2.1l.8.2.1.1c.5.1 1.1.3.6 0 9.9 3.2 19.5 6.8 29.1 9.9 2.3.8 5.6 1.9 8.1 2.7 7.3 2.7 13.9 5 21.5 7.4 0-.1-1.1 0-4.3-1zM222.5 150.7c-.2-.2-1.1-.5-.4-.4.1.1.5.3.4.4z"/><path class="st1" d="M199.9 142.1s-.3-.1-.4-.2c.3.1.6.1.8.2-.3-.1-.3 0-.4 0zM194 140c.1 0 1.4.3 2.1.6l-2.1-.6zM188.7 137.9c-.5-.2-.3-.2.3 0 0 .1-.2 0-.3 0zM188.2 137.9c-.5-.2-.7-.3-.9-.4.1.1 1.1.4.9.4zM176.5 133.7c-.3-.1-.9-.2-1.2-.4.3.1 1.4.4 1.2.4zM171 131.9c-.2-.1-.2-.1-.5-.2s0-.1.3 0l.2.2zM69.9 101.5l.6-.2v.1zM80.7 129.2c.6.2.4.2.5.3-.5-.2.2 0-.5-.3zM104.3 137.5l-.2-.1.2-.1z"/></g><g><path class="st1" d="M58.9 107.9c-.6-.2.3.2-.4-.1 0 0 .2 0 .4.1zM219.9 163.4c-2.1-.3-4.5-1.5-6.7-2-.3-.1.1-.2-.4-.3-2.1-.4-5.3-1.7-7.7-2.8h.2c-.5-.2-1.1-.2-1.6-.4 0 0 .2 0 .1-.1-.2.1-.9-.3-1.2-.3-.2-.1-.1-.2-.4-.3h-.3c-.9 0-1.9-.7-3.1-.9.1 0 .2 0 .1-.1-1.8-.4-4-1.2-6-1.8.1 0 .2-.1.1-.2-.1.1-.8-.1-1.3-.2-.2-.2-.9-.2-1.5-.5h.1c-.5 0-.6-.3-1.1-.3l-.3-.2c-.3.1-.6-.3-1-.4-.4-.1-.5-.2-.9-.3-.8-.2-1.2-.5-1.2-.3-.2-.2.8.2.4-.1-2.6-.7-5.2-1.7-7.8-2.5-.3-.2-.4-.2-.5-.3-.3-.1-1-.3-1.2-.3.1 0-.1-.1-.3-.2-.4-.2-.6 0-1.1-.3.2 0 .3 0 .3-.1-.5 0-1.1-.3-1.6-.4h.2c-.6-.1-1-.4-1.5-.5h.2c-.8-.4-.3.1-1-.2.2 0 .1 0 .2-.1-.7-.1-1.7-.5-2.4-.6-.7-.2-1.4-.5-2.2-.7-.3-.1.2-.2-.6-.4 0 .2-1.3-.4-.9 0-.6-.2-1.6-.7-2-.7.3 0-.2-.3.3-.2l-.4-.2c.1-.1.4.2.3 0-.3-.1-1.1-.3-1.3-.4-.5-.1-1 0-1.8-.3.4.1-.1-.3.1-.2H160c-.3-.1 0-.2-.4-.2 0 .1-.2 0-.3 0-.1-.1-1.1-.3-1.2-.5-.1-.1.4.1.2-.1-.5-.2-.5-.1-1-.3-.3-.1-1-.3-.7 0 .2.1 0-.1.3 0-.3 0-.8-.1-1.3-.3.2 0 .2 0 .3-.1-.7-.1-1.4-.3-2.1-.5 0 .1.3-.1.4 0-.9-.4-2-.5-2.7-.9.1 0 0 .1 0 .1-.4-.2-.4-.3-.7-.3 0-.1-.4-.1-.7-.2-.2 0-.1-.1.2 0-.4-.1-2.2-.6-3.1-1 0 .1-.7 0-.9-.1l.1-.1c-.2-.1-.7-.2-.8-.4-.5 0 1.9.5 1.2.4-.1-.1-1-.1-.8-.2-.4-.2-.9-.2-1.3-.4.1.1.4 0 .1-.1-.6-.2-.2 0-.7-.2l-.3-.1c-.1.1-.6-.2-.4 0 0-.1-.9-.3-.8-.4l.1-.1c-.3-.1-.5 0-.7 0l-.1-.1c-.1.2-.7-.2-1-.2-.6-.3-1.5-.5-1.7-.7-.5-.1-.9-.2-1.4-.4.1 0 .2.1.3 0-.3-.2-.4-.1-.7-.2.1 0-.6-.3-.9-.5-.5-.1-.4.1-.4.1-.3-.3-1.3-.3-1.7-.7.2 0 .7.1.3-.1-.3-.3-.9-.1-1.5-.4l.1.2c-.3-.2-1-.2-.9-.4-.2 0-.7-.3-.7-.1-1-.5-2.6-.8-3.2-1.3-.2 0-.5-.2-.5-.1.2.2.4.1.4.2h-.2c-.3-.2-.6-.3-.2-.3-.7-.4-.9 0-1.8-.4.1-.1 0-.1-.3-.2l-.6-.1c-.6-.2-.3-.3-.3-.4-.3-.1-.7-.2-.9-.2l-.3-.3c.2.2-.3 0-.5 0h.2c0-.1-.4-.2-.6-.2 0 .1.4.2.6.3-.2 0-.4-.1-.7-.1.1-.1-.5-.3-.8-.4-.3-.1-.4 0-.5 0 0-.1-.5-.2-.2-.2.1 0 .2.1.4.1-.2-.1-.1-.2-.6-.3-.3 0 0 .3-.6 0h.3l-.5-.2-.1.1c-.1-.1 0 0 0-.1-.2.1-.8-.3-1-.2-.3-.1-.5-.3-.8-.4h.1c-.3-.2-.7-.3-1-.3-.2-.1-.6-.2-.8-.2-.4-.2 0-.4-.5-.5-.4-.1-.8 0-.6.1-.8-.3-1.7-.5-2.4-.9-.1 0-.1.1-.3 0-1.2-.4-2.5-.7-3.4-1.3.4.1.1-.1.1-.2-.3 0-.3-.2-.5-.1 0 .1 0 .1.3.3-.7-.2-1.8-.6-2.1-.8.2.1 0 .1-.1.1.1-.1-.4-.3-.8-.4l-.1.1-.2-.2c-.2 0-.2.1-.6-.1 0 0 0-.1-.1-.1-.4-.1-1-.1-1.5-.4l-.3-.3c-.2 0-.5-.1-.2.1-.7-.3-1.2-.5-1.4-.7-1.4-.2-3.3-.8-4.8-1.3l.1-.1c-.4-.2-.3 0-.5-.1.2 0-.3-.2.1-.2-.6-.3-.8-.1-1.2-.2-.1.1.3 0 .2.1-.1 0-.8-.3-.9-.2-.1-.1 0-.2.1-.2l-.4-.1c-.4-.3 1.1.1.7-.3l-.3-.1c-.3-.3.9.1.1-.2-.4-.1-.7 0-.5.2-.8-.2-.5.2-1.2-.1-.2-.2.6.2.5 0-.3-.2-.8-.2-1.1-.3.4.2 0 .2-.3.2-.4-.2.3 0-.3-.3-.1 0-.7-.1-.2.1-.3.1-.6-.3-.9-.2-.1-.2.7-.1.1-.4.1.2-.8-.1-.6.2-.2-.1-.2-.2 0-.2-.3-.2-.9-.1-1-.4l-.2.1c-.1-.1-.2-.2-.4-.3-.3-.1-1.1-.2-1-.4-.1 0-.8-.3-.6 0 .4.2.5.1.7.3-.3-.3-.6-.2-.9-.2v-.1c-.2 0-.5-.2-.6-.1.1 0 .1-.1 0-.1l-.2.1c-.6-.2-.1-.2-.7-.4l.5.1c-.1 0-.3-.2-.6-.3-.1.1-.4.1-.5.2-.4-.1-.1-.2-.5-.2h.5c.1 0-.2-.3-.7-.4-.3-.1-.8-.1-.4.1-.2-.1-.5-.2-.3-.3-.5-.1 0 .1-.4 0-.2-.1-.7-.4-1-.6h.5l-.3-.1c.4 0-.2-.2.1-.2-.2-.1-.5-.1-.7-.2.5.4-.8.1-.7.3-.9-.2-.3-.7-1.3-.7.1.1-.3.1.2.2-.5-.2-.4.1-1-.2.5.1-.4-.4.3-.3-.1.1.3.2.5.2-.2-.2.1-.2-.4-.4-.3-.1-.8-.2-.8-.1s.5.2.3.2c-.7-.2-.7-.4-1.1-.3.4.1.5.3.4.4l-.5-.1h.1c-.7-.3-.3.1-1-.2l-.3-.3c.2-.1 1.1.4 1 .2-.5-.2-.7-.1-1.1-.3.1 0 .2.1.4.1-.2-.1-.2-.4-1-.5-.4-.1-.1 0-.2.1-.8-.2-1-.2-1.5-.4.2-.1-.9-.3-.3-.3.2.2 1.3.6 1.7.5-.2-.3.6.2.8.1-.6-.2-.5-.4-.6-.6-.2-.1-.4-.1-.5-.1-.1.1.1.2.1.3-.7-.3-1.4-.4-1.8-.5-.2-.1-.1-.2.2-.1-.8-.2-1.7-.6-2.5-.9.4.4-.9-.3-.6 0 .4.2.7.4.5.5-.3-.1 0-.1-.1-.2-.4 0-.5-.3-.8-.3.8.2.2-.2.4-.3-.6-.1.1-.1-.5-.3-.6-.1-1.3-.3-1.9-.4-.7-.4-1.9-.7-2.6-.9-.3-.2 0-.3-.4-.4-.4-.2.3.3-.4 0h.1c-.2 0-1.2-.5-1.5-.4l.3-.1c-.1-.1-.2-.1-.4-.1 0-.1-.1-.2.1-.1-.4-.3-.9-.3-1.3-.4l.3.2c-.8-.2-1.3-.5-2-.7l.1-.1-.5-.1c.1-.1-.2-.3-.5-.3l1.2.1c.3.2-.4 0-.2.2.1.1.8.4 1 .3-.3-.1-.3-.1-.5-.1 0-.2.4 0 .6-.1-.1 0-.3-.2-.4-.1.3 0 .6.1 1 .3-.3 0 .1.1 0 .1.1-.1.5 0 1.1.2.3.3 1.1.3 1.7.5-.3 0-.7 0-1.1-.1l.8.4c.2 0 .4-.1 1 0v.1c.5.1.5 0 1.1.2 1 .4 2.1.8 2.9 1.1v.1c.5-.1 1.5.4 2.1.5 1 .4 2.2.7 2.7 1 1.8.5 3.4 1 5.2 1.7h-.4c.4 0 .2.2.5.2-.3-.2.5 0 .8 0 .8.4 1.9.6 2.6.8v.1c.8.1 1.6.5 2.5.9.1.1.2.2.5.3.6 0 .8.1 1.6.3.5.2 1.4.5 1.9.8 2.1.5 4.1 1.3 6.2 1.9l.1.2c2.1.5 4.5 1.5 6.3 2l-.2.1c.5.2 1.3.4 1.2.2.5.2 1.4.4 1.7.6.5.2.7.1 1.2.3 1.1.5 1.5.6 2.6.9l-.3-.1c-.1 0-.2.1.1.2.4.1 1.4.5 1.1.2 1.1.5 2.6.8 3.7 1.3-.1-.1.2 0 .3 0 1 .3 2 .8 2.8 1 .1.1-.3 0 .1.2.2.1 0-.1.3 0 1.6.4 3.2 1.2 4.6 1.7 2.6.8 5.3 1.7 7.7 2.6.9.1 1.9.8 2.6.8.2.1.7.3.6.3.7.1 1.8.7 2.8.9-.1 0-.1 0-.2-.1.9.4 1.8.6 2.8 1-.1 0-.3-.1-.3 0 .4.2 1 .1 1.1.4.2.1.2-.1.1-.1 2.2.8 4.6 1.5 6.9 2.3 1.6.7 0 .4 1.3.7.1.1.1-.1.1 0 .5.1.7.5 1.1.5-.1-.2.3 0 .3-.1 1 .4 1.1.6 2 .8l-.1.1c1 .1 2 .6 2.9.6 5.2 1.7 10.1 3.3 15.2 5 4.9 1.8 9.8 3.3 14.8 5.2 1.1.6 1.2.6 2.5 1-.1 0-.1 0-.1.1.1-.1.9.3 1.1.2 1.9.7 3.6 1.2 5.5 1.9-.3-.1-.5 0-.1.1h.4v.1c.3.1.5.1.3-.1 4.9 1.5 9.5 3.5 14.2 5 1.1.5 2.7.9 3.9 1.3 3.5 1.4 6.7 2.7 10.4 3.9.6.6-.1.8-1.6.4zM59.6 108.1c.1.1.5.3.1.3 0 0-.2-.2-.1-.3zM70.5 112.8s.1.1.2.1c-.1 0-.3 0-.4-.1.1.1.1 0 .2 0z"/><path class="st1" d="M73.4 113.8c-.1.1-.7-.1-1.1-.2l1.1.2zM75.9 115c.2.1.1.1-.2 0h.2zM76.2 114.9c.2.1.3.2.4.2 0 0-.5-.1-.4-.2zM81.9 117.1c.1 0 .5.1.6.2-.2-.1-.7-.1-.6-.2zM84.6 118c.1 0 .1.1.2.1.1.1 0 .1-.2 0v-.1zM133.8 134.5h-.3v-.1zM155.2 141.9c.3.1.2.1.2.2-.2-.1.2-.1-.2-.2zM166.9 145.6v-.2z"/></g><g><path class="st2" d="M88.3 83.6L57 70.1l-23.2 25L37 61.2 6.1 46.9l33.2-7.5 4.1-33.8 17.4 29.2 33.4-6.5-22.5 25.6z"/><path class="st1" d="M87.3 83.8c1.2.4-.5-.5.8.2-.2 0-.5 0-.8-.2zM86.6 79.8C84 76.7 82 71.6 79.5 68c-.3-.4.4-.1-.2-1.1-1.2-1.6-2.5-3.8-3.8-6.1l-1.8-3.6c-.6-1.2-1.2-2.5-1.6-3.3.2-.2.5-.4.7-.6l-.1.2.4-.4c.2-.2.3-.5.5-.7.3-.5.6-1 1-1.3.1 0-.1.3.1.2 0-.4 1.2-1.5 1.3-1.9.3-.3.5-.1.9-.4l.2-.6c.6-1.7 2.7-3 4-4.9 0 .1-.1.3 0 .2 2.1-3 5.2-6.4 7.8-9.6 0 .2 0 .4.2.3-.1-.3.7-1.4 1.3-2.1.3-.1.5-.5.7-.8.2-.4.4-.7.9-1.2h.1c0-.2.2-.4.5-.7.3-.2.5-.5.2-.5h.1c0-.1.1-.2.1-.2-.7.3-.8.3-1 .3-.2 0-.4-.1-.9.1H91c-.7.2-.8.1-1.5.3-.7.2-1.2.3-1.6.3-.4.1-.6.1-.6.3-.6-.1 1.5-.4.6-.6-5.1 1.3-10.5 2.3-15.7 3.4-.6 0-1 0-1.2-.1-.5.2-2 .4-2.4.7.2 0-.4-.1-.6-.1-1 .1-1 .5-2 .6.4-.2.5-.3.4-.4-.8.4-2 .6-3.1.9.2-.1.4-.2.3-.3-1 .4-1.9.4-2.8.6-.1-.1-.1-.2-.2-.3.1.1.2.1.3.1-.7-1.5-.5-.1-1.2-1.5.2.3.2.1.3.1-1-1-2-2.9-2.8-4 .1.1.1 0 .1 0-.8-1.2-1.5-2.6-2.4-3.9-.2-.5.5-.1-.4-1.4-.3.2-1.5-2.2-1.4-1.2-.6-1.2-1.6-3-2.1-3.7.4.4.1-.8.6.1l-.2-.8c.2 0 .4.8.4.4-.3-.5-1.2-1.8-1.4-2.2-.7-.8-1.6-1.3-2.4-2.7.5.6.1-.6.5-.2l-1.8-1.6c-.3-.5.2-.3-.3-.9-.1.1-.3-.2-.4-.3-.1-.2-.8-1.2-.8-1.9-.1-.4.4.5.2-.1-.5-.8-.5-.6-.9-1.3v-.1c-.2-.3-.4-.6-.5-.6-.1 0-.1.2.1.7.2.3-.2-.7.1 0-.1.4-.2.4-.3.2 0 .5 0 .8-.1 1.2 0-.4-.1-.6-.1-.9.1 1.7.1 2.6.1 3.5.2.1-.3-.5-.2-.6-.1.2-.1.6-.2.9 0 .5 0 .9-.1 1.4 0 1-.1 1.9-.4 2.7 0-.3.3-.1.2-.1-.1.9-.4.9-.4 1.5-.2 0 0 .8-.1 1.4.1.3-.1.2 0-.4 0 .9-.2 4.4-.6 6.4.1 0 .2 1.3.1 1.7l-.1-.4c-.2.4-.2 1.5-.4 1.6.2 1 .2-3.8.3-2.5-.2.3.1 1.9-.1 1.6-.1.9 0 1.9-.3 2.7.1-.3-.2-.8-.3 0-.1 1.3.1.4 0 1.5v.7c.2.1-.2 1.2.1.7-.2.1-.1 1.9-.5 1.7l-.3-.2c0 .6.2 1 .3 1.4 0 .1-.1.2-.2.2.4.1-.2 1.4.1 2.1 0 .1-.1.3-.1.5s-.1.5-.1.8c-.1.5-.1 1.1-.2 1.6-1 .2-2.1.4-2.4.3-.9.3-1.7.7-2.7.8.2-.1.5-.2.5-.3-.7 0-.8.2-1.4.4.1-.1-1.3 0-2.1 0-.9.3-.5.5-.6.7-.9-.2-2.5.8-3.6.7.3-.1 1.3-.5.5-.4-.9-.2-1.6.7-2.9.8l.4.3c-.6-.1-1.9.6-1.8.3-.4.2-1.6.2-1.4.5-2.2.2-5.2 1.4-6.7 1-.3.1-1.1.2-.9.4.6.1.7-.3.9-.2-.3.1-.3.2-.3.2-.7.1-1.2.2-.7-.3-.8.1-1.1.3-1.5.6-.2.1-.4.3-.7.4-.1.1-.3.1-.4.2-.1 0-.2 0-.3.1 0-.1-.1-.2-.4-.1-.1.1-.2.2-.2.3-.6.1-.9-.1-1.3-.3-.3-.2-.9 0-.6.1H8.4c.8 0 .4.1.2.1.1 0 .2.1.3.1l-.4-.1c-.2 0 .4.2.7.4.3 0 .1-.2 0-.3.5.1.7.2 1.2.3-.7-.1.1.2.3.3.2.2.7.1.7.1-.2.1.4.2 0 .2-.2 0 0-.2-.4-.2 0 .1-.3.2.4.4.4.1.4-.3.8 0-.2 0-.3 0-.5.1l.5.4.1-.2c.1.1 0 .1 0 .1.4-.1 1.6.7 1.9.5.5.2 1 .6 1.5.9h-.1c.5.4 1.4.7 2 .8.3.2 1.1.5 1.6.6.8.5-.1.9 1 1.1.8.4 1.5.2 1.2 0 1.5.8 3.3 1.3 4.6 2.3.3 0 .1-.1.6.1 2.2 1.1 4.8 1.9 6.4 3.2-.7-.2-.1.2-.2.3.6.1.6.5.9.3 0-.2.1-.3-.5-.6.7.3 1.5.6 2.3 1 .6.3 2 1 2.4 1.3-.5-.3 0-.2.5 0-.1 0-.1.1 0 .2-.1.3-.2.7-.2 1.2 0 .2-.1.5-.1.8v.7l.2.1-.3.1c0 .3.4.4.1 1.2-.1 0-.2.1-.2.2.1.9.2 2.1 0 3l-.4.7c0 .4.1 1.1.3.4-.3 1.5-.4 2.5-.7 3 .4 2.7 0 6.6-.3 9.7l-.1-.1c-.2.8.2.5.1 1-.1-.3-.4.6-.5-.1-.3 1.2.1 1.6.1 2.4.2.1-.1-.6.2-.5.1.1-.3 1.6 0 1.9-.1.3-.3 0-.4-.1l.1.7c-.4.9-.4-2.1-.9-1.2v.7c-.4.6-.2-1.8-.4-.1.1.7.4 1.4.6.8 0 .8.1 1 .3 1.2.1.1.1.2.2.4 0 .2.1.2 0 .4-.1.1-.1 0-.1-.2v-.3c0-.1 0-.2-.1-.1-.3.7.1.8-.1 1.2.1-.4.4-.3.5-.3-.2.4-.3.1-.4.6.2-.1.3-.1.5-.5l.1-.1c0 .1-.1.3.1 0-.2.3-.4.7-.5.9-.2.2-.3.4-.4.9.2-.5.3-.4.6-.9.1-.1.1-.2.2-.4 0-.1.1-.2.1-.3v.1c-.1.2-.3.7-.5 1.1 0 .1.2-.3.4-.6.1-.3.2-.4.1.2l.2-.6c0 .1 0 .2.1.4.1-.1.2-.4.3-.5.1-.1.1-.2.2 0 0 0 .1-.2.2-.3v-.1s0-.1.1-.1c0-.1 0-.1-.2 0-.2 0-.1.1-.2.2 0 .1-.1.1-.1-.1.1.1.1.1.2 0v-.1l.1-.1c0-.1.1-.1.1-.2h.2c.2-.3.7-.8.7-1-.1.2.1.2.3.1l.1-.4c.8-1 .5.1 1.3-.9l-.5.8c.1-.2.6-.3.9-.8 0-.3.1-.8.1-1.1.4-.6.4-.1.7-.7l-.4.8c0 .1.7-.2 1.3-.9.4-.5.8-1.4 0-.8.3-.3.9-.7.7-.4.7-.8-.3-.1.3-.8.4-.2 1.3-.9 1.9-1.3l-.4.9.4-.5c-.4.8.4-.2.3.4.3-.3.6-.7.8-1.1-1.2.6.5-1.5-.1-1.5 1.1-1.4 1.5-.1 2.3-1.9-.9.1-.5-.7-1.2.1.8-.8.2-.8 1.2-1.7-.5.8 1-.4.3.7 0-.2-.6.5-.7.7.4-.2.3.4 1-.4.4-.5 1.1-1.2.8-1.3-.2-.2-.7.8-.6.3.9-1.1 1.3-1 1.3-1.7-.6.6-.9.6-1 .5l.6-.8v.3c1.2-1.1.1-.6 1.2-1.7l.7-.3c0 .5-1.6 1.6-1.1 1.7.7-.7.7-1.1 1.5-1.7-.1.2-.3.4-.4.6.3-.3 1-.1 1.7-1.4.4-.6 0-.3-.1-.4.3-.3.5-.6.7-.8.2-.3.4-.5.5-.7.5-.6 1-1.2 1.6-1.9 0 .1 0 .1.1 0 .6.4 2.4 1 1 .7-.2-.1-.5-.3-.9-.5-.5.5-1.3 1.3-1.8 1.9-.3.4-.6.8-.7 1.1.7-.2-.9.9-.8 1.4.9-.9 1.1-.6 1.5-.6.3-.3.4-.6.5-.8-.1-.3-.4.1-.6-.1.5-.5 1.4-1.5 2.1-2.3.6.2 1.2.4 1.6.5.6.4.3.5-.4.3.5.2.9.4 1.4.6l1.2.5c.8.4 1.6.7 2.3 1.1-.8-.8 1.7.6 1.2 0-.8-.4-1.3-1-.8-1 .5.2-.1.2.1.3.7.1.9.7 1.6.7-1.5-.5-.5.3-.9.5 1.1.3-.1.2.9.6 1.1.3 2.4.7 3.6 1.1 1.3.9 3.7 1.6 4.9 2.1.6.4 0 .6.7.9.9.4-.5-.6.7.1h-.2c.4.1 2.2 1.2 2.8.9l-.5.2c.2.1.5.1.7.2 0 .1.2.3-.2.3.7.6 1.7.7 2.5 1l-.5-.4c1.5.5 2.4 1.1 3.9 1.6l-.1.2.9.2c-.3.1.4.6.9.6l-2.4-.4c-.6-.4.8 0 .5-.3-.2-.3-1.6-.8-1.9-.7.5.2.5.2 1 .3 0 .4-.7 0-1.2 0 .3.1.6.3.7.3-.6-.1-1.1-.3-2-.6.6.1-.2-.3 0-.3-.2.2-1-.1-2.1-.6-.6-.6-2.1-.7-3.3-1.3.6 0 1.3 0 2.1.3-.7-.5-.9-.4-1.6-.8-.5 0-.8.2-1.9-.1v-.2c-1-.3-1.1 0-2.2-.6-1.9-.9-4-1.8-5.5-2.5v-.2c-1 0-2.9-1.1-4.1-1.4-.8-.5-1.8-.8-2.6-1.2-1-.4-1.3-.5-1.7-.8-.1 0-.1.1-.2.1-.2.3-.5.5-.7.8-.3.3-.6.7-.9 1-.6.7-1.2 1.3-1.7 2-1.2 1.3-2.4 2.6-3.7 4l.2-.7c-.3.7-.4.2-.9.7.7-.4-.4.9-.6 1.4-1.3 1.1-2.6 2.9-3.5 4.1v.2c-.8 1.4-2.3 2.5-3.6 3.9-.2.1-.6.2-1 .7-.2.5-.4.8-.7 1.2-.1.2-.3.4-.4.6-.1.1-.2.2-.3.4-.1.2-.3.4-.5.6-1.2 1.3-3.1 3.2-4.1 4.1-.7.8-1.4 1.6-2.1 2.5.1-2.4.4-5.3.6-8.1l.3-3.3c.1-.9.1-1.8.1-2.8l.3-.3c-.1-4.2.8-9.4.9-13l.4.4c.2-1.1.1-2.6-.2-2.3.2-1.1.1-2.8.5-3.5.2-1.1-.1-1.4 0-2.4v-.4-.2c0-.1 0-.2.1-.3-.2-.1-.3-.1-.5-.2-.5-.2-1-.4-1.6-.7l.5.3c.3 0 .3-.1-.1-.4-.8-.2-2.7-1.4-2.1-.6-2-1.2-5-2.1-6.9-3.4.1.2-.4 0-.7 0-1.9-.9-3.7-2-5.3-2.5-.3-.2.6 0-.2-.3-.5-.2-.1.2-.7 0-1.6-.6-3-1.3-4.5-2.1-.7-.4-1.5-.8-2.2-1.2-1.2-.6-2.4-1.2-3.6-1.7-2.1-.9-4.3-1.9-6.5-2.9l10.5-2.4c2-.5 4.1-.9 6-1.4v.1c1.6-.7 4-.5 5.2-1.4.4 0 1.5-.3 1.3 0 1.3-.6 3.8-.6 5.6-1.4-.2 0-.3.1-.5.2 2-.2 3.6-.9 5.7-1.2-.2.1-.6.2-.6.3.8 0 1.8-.8 2.3-.5.5-.1.3-.3 0-.2.5-.1.9-.2 1.4-.3l.1-.5c.1-.5.1-.9.2-1.4l.3-3c.2-2 .4-4 .5-6 .7-3.4.8-.1.8-2.8.1-.2-.2-.2-.1-.2 0-1.1.7-1.6.6-2.3-.3.3-.1-.5-.3-.5.4-2.1.7-2.5.7-4.1l.1.1c-.1-1 0-2 0-3.1 0-.5.1-1 .1-1.5v-1.5c.4-3.8.9-7.6 1.3-11.3l6 9.9 3.3 5.4c2.2 3.6 4.4 7.1 6.5 10.7 1.2 2.1 2.5 4.2 3.7 6.3 3.1-.6 6.2-1.2 9.4-1.9 3.6-.7 7.3-1.4 11-2 2.5-.1 2.7-.1 5.3-.8-.1.1-.3.1-.1.2 0 0 0-.1.1-.1s.1-.1.3-.1c.3-.1.8-.2 1.2-.3.9-.2 1.8-.4 2.1-.6 2.8-.6 5.6-1.1 8.3-1.6-2.7 3.1-5.4 6.2-8.3 9.6.2-.3.3-.5.3-.6 0-.1 0-.1-.1 0-.1 0-.1.1-.3.3l-.4.7h-.2c-.3.4-.6.9-.1.6-2.8 3.3-5.7 6.6-8.6 9.7-2.6 2.8-5.2 5.7-7.8 8.5l.1.1.2.5 1 1.7c1 2.1 2.7 4.9 4 7.1 3.3 6.8 6.3 12.9 10.2 19.4.3 0-.9-.4-2.6-3.1z"/><path class="st1" d="M85.9 83.2c-.2-.3-.9-.7-.2-.6 0 .2.4.5.2.6zM65.1 72.4l-.3-.2c.3.1.6.1.7.3-.2-.2-.2-.1-.4-.1zM59.7 70c.1-.1 1.4.3 2.1.6l-2.1-.6zM53.5 71.2c-.4.3-.4.1.1-.3.1 0 0 .2-.1.3zM53.5 71.7c-.3.3-.5.5-.7.6.1 0 .6-.9.7-.6zM45 80.3c-.2.2-.5.8-.8.9.2-.2.8-1.2.8-.9zM41.3 84.5l-.3.3c-.3.2-.1-.1.1-.3h.2zM27 43.3l-.5.2v-.2zM44 9.9c0-.5.1.1.1.1 0 .3-.1-.5-.1-.1zM54.3 24.7l-.1-.2.3-.1z"/></g><g><path class="st2" d="M370.8 213.7l-15.6-12.8-17.2 10.6 7.4-18.8-15.5-13 20.2 1.1 7.6-18.7 5.1 19.5 20.2 1.5-17 10.9z"/><path class="st1" d="M370.1 213.8c.6.4-.1-.5.4.2-.1 0-.3 0-.4-.2z"/><path class="st1" d="M370.6 211.2c-1.3-2.1-1.3-5.4-2.4-7.8-.1-.3.4 0 .2-.7-.6-1.1-1-2.5-1.3-4.1-.2-.8-.3-1.6-.4-2.4-.1-.8-.2-1.5-.2-2.1.2-.1.4-.2.5-.2v.1c.2-.1.4-.3.5-.5.2-.2.5-.5.7-.6 0 .1-.1.2.1.2 0-.3.9-.7 1-1 .3-.1.3.1.7 0l.2-.4c.5-1.1 2.1-1.3 3-2.3 0 .1-.1.2 0 .2.8-.8 1.8-1.5 2.8-2.2.5-.4 1-.7 1.6-1.1.5-.3.9-.7 1.4-1 .1.1.2.2.4.2-.2-.2.2-.6.6-.9.4-.1.5-.2.6-.4.1-.1.1-.3.6-.5h.1c-.2-.1.1-.2.3-.3.2-.1.5-.2.1-.2h.1c.1-.1.3-.1.4-.2-.7.2-.7.1-.7 0s0-.2-.4-.1l-.2.1c-.6.1-.3-.1-.8-.1h.1c-1 0-1.2-.2-1.5.1 0-.3.9 0 1-.4h-2.4c-.7 0-1.6-.1-2.4-.1l-4.8-.3c-.3-.2-.6-.2-.6-.3-.3 0-1.2 0-1.5.1.1 0-.2-.2-.4-.2-.6-.2-.7.3-1.3.1.3-.1.3-.2.3-.3-.6.2-1.3.1-1.9.2.1 0 .3-.1.3-.2-.7.2-1.2-.1-1.7 0 0-.1-.1-.1-.1-.2.1 0 .1 0 .2.1-.1-1.1-.4 0-.5-.9.1.2.2.1.2.1-.5-.7-.7-1.9-1.1-2.7h.1c-.3-.8-.4-1.7-.8-2.6 0-.4.5 0 .2-.9-.4.1-.5-1.5-.8-.8-.1-.8-.3-2-.6-2.5.2.3.3-.5.5.1l.1-.5c.2 0 .1.5.2.3-.1-.3-.5-1.2-.5-1.5-.2-.3-.4-.5-.6-.8-.1-.1-.2-.3-.3-.5-.1-.2-.2-.3-.2-.5.2.3.3-.5.4-.2-.3-.3-.6-.5-.9-.5-.1-.2.2-.4 0-.6-.1.2-.1.1-.2.1 0-.2-.3-.7-.1-1.6 0-.4.2.3.1-.3-.1-.5-.2-.2-.3-.7v-.1c-.1-.5-.3-.5-.3.5 0 .2 0-.7.1-.1-.1.2-.1.2-.2.2-.1.3-.2.6-.2.7.1-.3.1-.5.1-.9-.2 1.4-.4 2-.5 2.7.1.3 0-.8 0-.7-.2.1-.3.7-.4 1.1-.1.4-.1.7-.4.9 0-.1.2.1.2.1l-.2.2c-.1.1-.2.1-.2.3-.2 0-.1.4-.2.8 0 .2-.1.1 0-.2-.1.5-.6 2.5-1.3 3.6.1 0 .1.8-.1 1.1l-.2-.2c-.2.2-.3.9-.5.8 0 .6.6-2.2.5-1.4-.3.1-.1 1.2-.3.9-.2.5-.2 1.1-.6 1.5.1-.1-.1-.5-.3-.1-.3.7 0 .2-.2.9l-.1.4c.2.1-.3.6 0 .5-.2 0-.3 1.1-.6.9l-.2-.2c-.1.3.1.6.1.9 0 0-.1.1-.2.1.2.1.1.3 0 .5-.1.1-.1.2-.2.4s-.1.4-.1.6c-.3.5-.5 1.1-.8 1.6-.6-.1-1.2-.1-1.5-.3-.4 0-.7.1-1.1.1h-.9c.1 0 .3 0 .3-.1-.4-.2-.5 0-.8 0 .1-.1-.8-.3-1.2-.5-.6.1-.4.4-.4.5-.5-.5-1.6.2-2.2-.2.2 0 .8-.2.4-.3-.5-.5-1 .3-1.8 0l.2.4c-.3-.2-1.2.1-1.1-.2-.3.1-.9-.2-.9.2-.6-.2-1.5-.2-2.2-.2-.4 0-.7 0-1-.1-.4-.1-.4-.2-.6-.3-.1.1-.4 0-.3.2.2.2.2-.1.3 0-.1 0-.1.1-.1.2-.2-.1-.4-.1-.3-.4-.4-.1-.4 0-.4.2s.1.3-.3.2c-.2-.2-.3-.2-.4-.2 0 .1.1.2.1.3-.4-.1-.9-.4-1.4-.7-.2 0-.5 0-.2.2l-1.2-.4c.7.2.4.2.3.2.1 0 .1.1.2.1l-.3-.1c-.3-.1.2.2.4.3.4.1.3 0 .4 0 .4.2.4.3.9.5-.7-.3-.2.1-.1.1 0 .1.6.3.7.3-.3-.1.2.2-.3 0-.1-.1.1 0-.2-.2-.1 0-.6-.1 0 .2.4.2.9.1.8.3-.2-.1-.4-.1-.6-.2 0 .1 0 .1.1.2h.4-.1c.4.1.5.3.9.3.1.1.1.3.2.4 0 .1.1.2.2.3l.6.3c.2.2.6.5.9.5.3.5-.4.8.2.9.4.4.9.2.8 0 .7.8 1.8 1.2 2.2 2.1.2 0 .1-.1.4.1 1.1 1 2.5 1.8 3.1 2.9-.4-.2-.2.2-.2.3.4.1.2.4.5.2.1-.2.2-.2-.1-.6.2.1.4.3.6.4l.3.2c.1.1.3.2.4.3.6.5 1.2 1 1.3 1.3-.2-.3.1-.1.4.1-.1 0-.1 0-.1.1-.3.3-.6.9-.7 1.5l.2.1-.4.4c-.1.3.3.4-.1.8-.1 0-.2 0-.2.1 0 .5 0 1.3-.4 1.7l-.4.3c-.1.2 0 .7.2.3-.5.8-.7 1.4-1.1 1.5 0 1.7-.8 3.9-1.6 5.6l-.1-.1c-.3.4.1.3-.1.6-.1-.2-.4.2-.4-.2-.2.3-.2.5-.2.8V206.4l.1.1c.2.1-.1-.1.1 0 .1 0-.3.3.1.2-.1.1-.4.1-.5.1l.1.1c-.2.1-.4.1-.5 0-.1-.1-.2-.3-.5-.1l-.1.3c-.5.4 0-.9-.5.1 0 .4.4.4.7.1-.1.5.8-.1.6.2-.3.3 0-.2-.3 0-.2.2-.2.3-.2.3 0 .1.1.1 0 .2.2-.3.6-.5.7-.5-.3.3-.4.3-.5.6.3-.2.4-.3.7-.6.3-.3.3-.2.2-.1l.1-.1c-.3.3-.5.6-.8.9-.2.3-.5.5-.7.8l.9-.9.3-.3c.1-.1.1-.2.2-.3 0 0 0 .1-.1.1-.2.2-.5.6-.8 1-.1.2.2-.2.4-.4s.2-.3-.1.3l.4-.6c-.1.2-.2.3-.3.5.2-.1.7-.8.3-.2.1-.1.3-.2.4-.6 0-.2-.3.4 0-.2-.2.5.2-.2.2-.3l-.1.2c0-.1.1-.1.1-.3v0c0-.2 0 .5.2.3 0 .1-.1.2-.1.3 0-.1.1.1.2 0 0-.1 0-.2-.1-.3 0-.1 0-.1-.1-.2v-.2c.3-.3.3.1.5-.3l-.3.5c0 .1.5.1 1-.2.3-.3.6-.8 0-.6.2-.2.6-.2.5 0 .5-.4-.2-.2.2-.6.3 0 1-.2 1.4-.2l-.3.6.3-.2c-.3.5.3.1.3.5.2-.1.5-.3.6-.5-.9 0 .4-1 0-1.3.8-.6 1.1.6 1.7-.6-.2 0 0-.6-.4-.1.6-.3.1-.6.9-.9-.4.5.8.1.2.7 0-.2-.4.1-.5.2.3 0 .2.4.7.1.3-.2.8-.5.6-.7-.1-.2-.5.3-.4 0 .6-.5 1-.2 1-.8-.4.3-.7.1-.7 0l.4-.4v.2c.9-.4.1-.4.9-.9l.5.1c0 .4-1.2.6-.8.9.5-.3.6-.6 1.1-.8l-.3.3c.2-.1.7.3 1.2-.4.3-.4 0-.2-.1-.4.3-.2.5-.3.6-.5.2-.2.5-.3.6-.5.4-.3.7-.6 1.2-.9 0 .1 0 .1.1.1.3.4 1.2 1 .4.7-.1-.1-.2-.3-.4-.5-.7.4-2.2 1.3-2.2 1.7.5.2-.7.3-.6.8.7-.4.8 0 1.1.1.2-.1.3-.3.4-.4 0-.3-.3-.1-.4-.3.6-.3 1.2-.7 1.7-1.2.3.2.6.3.9.4.3.4.1.5-.3.3 1.3.9 1.9 1.5 2.6 2.2-.2-.7.9.6.8.1-.3-.4-.5-.9-.2-.9.2.2-.1.1-.1.3.5.1.3.7.8.7-.8-.5-.4.3-.8.4.6.3-.2.2.4.6.6.3 1.4.7 2 1.1.5.8 1.8 1.5 2.5 2 .2.4-.2.5.1.8.4.3-.1-.6.5.1h-.1c.2.1 1 1.1 1.5.9l-.4.1c.1.1.3.1.4.2-.1.1 0 .3-.3.2.2.5.9.6 1.3 1l-.1-.4c.8.5 1.2 1 1.9 1.6l-.2.2.5.2c-.2.1.1.5.4.5l-1.4-.5c-.2-.3.5.1.4-.3 0-.3-.7-.8-1-.7.2.2.3.2.5.3-.1.3-.5 0-.8 0 .1.1.3.3.4.3-.4-.1-.6-.3-1.1-.6.4.1 0-.3.1-.3-.2.2-.7-.1-1.2-.6-.2-.6-1.1-.7-1.7-1.2.4 0 .9.1 1.3.3-.3-.4-.4-.3-.7-.8-.3 0-.6.1-1.2-.2l.1-.2c-.5-.3-.7-.1-1.3-.6-.9-.9-2-1.7-2.7-2.4l.1-.2c-.7 0-1.5-1-2.2-1.3-.4-.4-.9-.8-1.3-1.1-.3-.2-.5-.4-.7-.6h-.1c-.2.1-.3.2-.5.4-.2.1-.3.2-.5.4-.4.3-.9.6-1.3.9-.9.6-1.7 1.2-2.7 1.7l.2-.5c-.2.4-.3 0-.6.2.5 0-.3.6-.5.9-1 .3-2 1.2-2.6 1.9l-.1-.2c-.3.4-.7.7-1.2.9-.2.1-.5.2-.7.4l-.4.2-.5.3c-.2 0-.5 0-.8.2-.7.8-1.1 1-2.4 2.1-.9.5-2.2 1.3-2.8 1.5-.6.4-1.1.8-1.7 1.2.4-1.2 1-2.8 1.6-4.4.6-1.6 1.2-3.2 1.7-4.9.1-.1.2-.1.3-.1.4-2.5 2-5.2 2.5-7.3l.3.3c.4-.6.5-1.5.1-1.4.4-.6.4-1.6.9-1.9.2-.3.2-.5.2-.7v-.3-.1c.1-.1.2-.2.2-.3l-.2-.2-.1-.1s-.1 0-.2-.1-.2-.1-.2-.2l.2.2c.2 0 .3-.1.1-.3-.4-.2-1.3-1.2-1.2-.5-.9-1.1-2.6-1.9-3.4-3.1 0 .2-.3 0-.4 0-.9-.8-1.7-1.8-2.6-2.3-.1-.2.4 0 0-.3-.3-.1-.1.1-.4 0l-1.2-.9-.9-.8-.9-.9c-1.2-1.2-2.3-2.2-3.5-3.1-1.1-.9-2.3-1.8-3.4-2.7 2 .1 4.2.2 6.3.3 2 .1 3.9.2 5.8.3v.1c1-.3 2.4.5 3.2 0 .2.1.9.1.7.3.8-.2 2.3.4 3.4.1h-.3c1.2.3 2.2 0 3.5.3-.1 0-.4.1-.4.1.5.2 1.2-.3 1.4.1.1 0 .1-.2 0-.2.2 0 .3.1.5.1l.1-.3.1-.4c.2-.6.4-1.1.6-1.7.4-1.1.8-2.2 1.2-3.4 1-1.8.8.2 1.1-1.4.1-.1-.1-.2 0-.1.1-.6.9-.7.8-1.2-.3.1 0-.3-.2-.4.6-1.1 1-1.2 1.1-2.2l.1.1v-.7l.1-.3c.1-.5.3-.9.5-1.4.3-1 .6-1.9.8-3.1.8-2.1 1.7-4.3 2.5-6.3 1.9 6.6 3.7 13 5.5 19.5.2.9.4 1.7.6 2.5l.3 1h.1l1.6.1c1.1.1 2.2.2 3.3.2l6.6.6c.2.1.3.1.5.2s.5.1.7.1c.4.1.8.1 1.1.2.7.1 1.5.1 3 .1-.2.1-.4.1-.3.1.6-.3 2 .1 2.9-.1 1.7.1 3.3.3 5 .4-2.1 1.4-4.3 2.8-6.5 4.3.6-.4.4-.6-.2-.2l-.4.5h-.2c-.4.3-.8.7-.1.5-1 .7-2 1.3-2.9 2l-1.6 1c-1.1.7-2.2 1.3-3.3 2-1.1.6-2.2 1.3-3.3 1.9l-1.6 1-.2.1-.1.1h-.1l-.1.1c0 .2 0-.1.2 1 .2 1.4.8 3.3 1.2 4.7.6 4.4 1.3 8.4 2.7 12.8-.4-.3-1.4-.7-2-2.4z"/><path class="st1" d="M369.4 213.2c0-.2-.4-.6.1-.5-.1.1 0 .4-.1.5zM359.7 203.1l-.1-.2c.1.1.4.1.4.2h-.3zM357 200.8s.1 0 .2.1c.1 0 .2.1.3.1.2.1.5.3.7.4l-.6-.3-.3-.1c0-.1-.1-.1-.3-.2zM352.6 200.3c-.3 0-.3-.1.1-.3.1.1 0 .2-.1.3zM352.6 200.7c-.2.1-.4.1-.5.1.1.2.5-.4.5-.1zM346.3 204.1c-.1.1-.4.4-.6.3.2.1.6-.5.6-.3zM343.6 206.1c-.1 0-.1 0-.2.1-.2 0-.1-.2.1-.3l.1.2zM342.4 181.5h-.3v-.1zM357.2 166.1c.1-.4 0 .3.1.3-.1.2 0-.5-.1-.3zM360.7 174.8l-.1-.1h.3z"/></g></g></switch></svg>