<svg id="Calque_1" data-name="Calque 1" xmlns="http://www.w3.org/2000/svg" xmlns:xlink="http://www.w3.org/1999/xlink" viewBox="0 0 166.53 408.9"><defs><linearGradient id="Dégradé_sans_nom_26" x1="88.95" y1="120.93" x2="87.47" y2="227.34" gradientUnits="userSpaceOnUse"><stop offset="0" stop-color="#fbc57f"/><stop offset="1" stop-color="#f8b04f"/></linearGradient><linearGradient id="Dégradé_sans_nom_26-2" x1="88.33" y1="68.48" x2="90.47" y2="144.88" xlink:href="#Dégradé_sans_nom_26"/><linearGradient id="Dégradé_sans_nom_29" x1="87.24" y1="66.78" x2="87.84" y2="91.9" gradientUnits="userSpaceOnUse"><stop offset="0" stop-color="#fedea9"/><stop offset="1" stop-color="#ffeed3"/></linearGradient><linearGradient id="Dégradé_sans_nom_3" x1="87.01" y1="19.35" x2="85.36" y2="51" gradientUnits="userSpaceOnUse"><stop offset="0.11" stop-color="#0d334e"/><stop offset="1"/></linearGradient><linearGradient id="Dégradé_sans_nom_3-2" x1="147.46" y1="429.99" x2="147.46" y2="415.05" gradientTransform="matrix(1, -0.09, 0.08, 0.92, -92.3, -317.73)" xlink:href="#Dégradé_sans_nom_3"/><linearGradient id="Dégradé_sans_nom_26-3" x1="87.53" y1="72.42" x2="87.53" y2="68.73" xlink:href="#Dégradé_sans_nom_26"/></defs><title>monsieur</title><path d="M91.4,406s2.65,1.48,3,5.89-1.94,6.71-3,10.42-1.9,6.48-3.84,7.36-7.29,1.83-11.17,1.83-8.48-.18-9.19-2.3-.7-3.71,1.42-6.53,8.3-11.24,7.77-14a49.48,49.48,0,0,1-.71-4.94Z" transform="translate(-10.49 -22.58)" style="fill:#010101"/><path d="M142.53,403.75s-2.53,8-1.09,10.34,2.17,2,6.5,6.5,6.14,8.31,10.48,8.67,10.89.9,13.23,1.08,5.55-1.8,5.37-4.33-2.17-5.78-6-9.48-7.62-7.59-9.32-11.61l-1.7-4Z" transform="translate(-10.49 -22.58)" style="fill:#010101"/><path d="M63.69,212.11s-6.23,55.09,2.88,89.59c0,0,7.15,93.93,6.54,99.1L72.5,406H92.89L95,331.42l-3.65-12.17L95,242s2.74-1.52,4.57.61,28,75.16,28,75.16a70.57,70.57,0,0,0,0,19.78c1.52,11.26,13.7,68.47,13.7,68.47s15.88-1.27,20.46-1.06.42,0,0-6.46c-.32-4.95-5.52-51.42-7.2-75.47a134.26,134.26,0,0,0-4.82-27.34c-1.49-5.28-2.78-11.18-2.78-15.82,0-11.05-15.22-61.92-19-66.3S63.69,212.11,63.69,212.11Z" transform="translate(-10.49 -22.58)" style="fill:#0d334e"/><path d="M38.27,100.36C49.75,91.23,64.4,89.67,66.86,89.15s44.18-2.35,51-1.83,20.86,3.65,25.29,8.87,23.74,44.33,23.47,51.37-11.5,39-24.48,51.4c0,0-1.4-9.79-10.19-8.59,0,0,9.79-37.75,17.58-40.75,0,0-19.58-18.4-17.52-33.26,0,0-.63,70.05-1.49,80.58a62.68,62.68,0,0,0,1.21,18.61A163.74,163.74,0,0,1,92.39,219c-21.08-.85-31-2-31.62-5.41s4.72-24.56,4.61-31.11-8-54.53-10-60.3c0,0-17.37,28.19-24.77,29,0,0,24.2,29.34,26.48,34.18,0,0-5.85,9.52-4.32,12.38,0,0-3.67-.46-7.71-4.37S10.65,166.94,10.5,153.15,38.27,100.36,38.27,100.36Z" transform="translate(-10.49 -22.58)" style="fill:url(#Dégradé_sans_nom_26)"/><path d="M56,186.92a6.45,6.45,0,0,0,4.36,0A17.29,17.29,0,0,0,65.33,184L65,188.22A4.59,4.59,0,0,0,65,191c.33.89,9.44,9.87,10.41,11.18,1.87,2.53,2.65,9.71.34,10.29-9.11,2.31-14-2.77-16.54-4.37-2-1.26-3.39-3.87-4.22-5.54s-3.09-6.84-3.09-6.84S49.48,192.65,56,186.92Z" transform="translate(-10.49 -22.58)" style="fill:#fee8cd"/><path d="M66.86,91c-1.51-2.29,2.39-2.39,3-4.77s-.39-5.36,3-6.15,24.82-4.17,27.6-4,4.37.19,6.15,2.38,3,6.37,4.17,7.54.18,2.71-.79,5c-1.7,3.93-6.59,10.27-9.17,10.62s-17,.23-21.15,0S69.91,95.68,66.86,91Z" transform="translate(-10.49 -22.58)" style="fill:url(#Dégradé_sans_nom_26-2)"/><path d="M100.78,80.46s-2.9,8.58-6.43,9.21S81,89.74,79.74,88.32s-5.32-5.21-5.32-5.21V68.73H99S98.26,77.82,100.78,80.46Z" transform="translate(-10.49 -22.58)" style="fill:url(#Dégradé_sans_nom_29)"/><path d="M86.65,80.34c2.91,0,7.95-2.55,10.47-6.43a40.43,40.43,0,0,0,3.66-6.83V64.94s.56,1.54,1.63,0,2.22-7.29,1.74-9.25-1-3.18-2.23-2.77l.2-16.65s-5.29,4.42-8.81,4.42-10.74.68-11.7,0-1.28-2.89-2.72-3.4-4-.68-4.47.51-4.66,7.82-4.66,7.82V53.1s-2.09-1.75-2.09.83.52,13.36,4.52,11.84c0,0,1.08,5.43,2.23,7.28S81.35,80.34,86.65,80.34Z" transform="translate(-10.49 -22.58)" style="fill:#fee8cd"/><path d="M70.72,55.45s-2-12,1.13-11.92S73.34,39,77,39.43s1.22,2.43,5.17,3.24,2-1.28,5.42-.54,6.72,5.76,11.62,1.1c0,0,3.82,4.28,2.7,9.69,0,0,2.23-9.24,1.3-14.19s-2.58-10-6.63-13.37-14.28-2.93-16-2.49c-2.65.68-8.12,3.45-9.79,6.8-2.63,5.27-2.68,12.94-2.62,14.86C68.51,53.54,70.72,55.45,70.72,55.45Z" transform="translate(-10.49 -22.58)" style="fill:url(#Dégradé_sans_nom_3)"/><path d="M90,51.66c-1.12-1.34,3.92-1.71,5.12-1.58a10.43,10.43,0,0,1,3.28,1.58s-3.16-.13-4.2,0S90.93,52.85,90,51.66Z" transform="translate(-10.49 -22.58)" style="fill:#0d334e;stroke:#0d334e;stroke-linecap:round;stroke-linejoin:round"/><path d="M82.33,51.66c1.06-1.34-3.69-1.71-4.82-1.58a9.5,9.5,0,0,0-3.09,1.58,38.85,38.85,0,0,1,4,0C79.35,51.8,81.4,52.85,82.33,51.66Z" transform="translate(-10.49 -22.58)" style="fill:#0d334e;stroke:#0d334e;stroke-linecap:round;stroke-linejoin:round"/><path d="M89.57,51.14s-1.22,4.74-.88,6.22A9.75,9.75,0,0,1,89,60.47c0,.73,1.69,1.49,1.45,2.38s-.77,1.37-2,1.84-1.74-.43-2.45-.45" transform="translate(-10.49 -22.58)" style="fill:none;stroke-miterlimit:10;stroke-width:0.5px;stroke:url(#Dégradé_sans_nom_3-2)"/><path d="M82.87,70.58s2.25-1.84,2.94-1.84.85.32,1.79.26.27-.2,1.3-.26S91,70.05,92,70.05s-1.14,2.18-2.19,2.31-4.14,0-5.26,0S82.87,70.58,82.87,70.58Z" transform="translate(-10.49 -22.58)" style="opacity:0.30000000000000004;fill:url(#Dégradé_sans_nom_26-3)"/><path d="M131.91,190.37l-1.29.49c0,.48,0,.87,0,2.31a24.43,24.43,0,0,1-.57,5.16c-.48,2.13-4.9,11.07-5.46,12.8s-2.49,7.09-2.33,9.49c.38,5.56,9.41,1.37,11.2.86,2.76-.8,4.47-8.84,4.47-11.06s1.23-11,4.05-12.13h0c-.37-5.9-6.49-9.76-10-7.94Z" transform="translate(-10.49 -22.58)" style="fill:#fee8cd"/></svg>