<svg id="Calque_1" data-name="Calque 1" xmlns="http://www.w3.org/2000/svg" xmlns:xlink="http://www.w3.org/1999/xlink" viewBox="0 0 121.91 411.11"><defs><linearGradient id="Dégradé_sans_nom_29" x1="78.66" y1="67.74" x2="79.95" y2="117.19" gradientUnits="userSpaceOnUse"><stop offset="0" stop-color="#fedea9"/><stop offset="1" stop-color="#ffeed3"/></linearGradient><linearGradient id="Dégradé_sans_nom_29-2" x1="126.83" y1="221.06" x2="121.32" y2="246.86" xlink:href="#Dégradé_sans_nom_29"/><linearGradient id="Dégradé_sans_nom_2" x1="65.14" y1="209.85" x2="119.56" y2="395.48" gradientUnits="userSpaceOnUse"><stop offset="0.12" stop-color="#0d334e"/><stop offset="0.26" stop-color="#12252f"/><stop offset="0.58"/><stop offset="0.9" stop-color="#0b3149"/></linearGradient><linearGradient id="Dégradé_sans_nom_2-2" x1="72.77" y1="403.06" x2="105.34" y2="403.06" xlink:href="#Dégradé_sans_nom_2"/><linearGradient id="Dégradé_sans_nom_3" x1="74.5" y1="413.74" x2="90.18" y2="413.74" gradientUnits="userSpaceOnUse"><stop offset="0.11" stop-color="#0d334e"/><stop offset="1"/></linearGradient><linearGradient id="Dégradé_sans_nom_26" x1="75.81" y1="63.54" x2="84.44" y2="63.54" gradientUnits="userSpaceOnUse"><stop offset="0" stop-color="#fbc57f"/><stop offset="1" stop-color="#f8b04f"/></linearGradient><linearGradient id="Dégradé_sans_nom_26-2" x1="75.31" y1="63.54" x2="86.6" y2="63.54" xlink:href="#Dégradé_sans_nom_26"/><linearGradient id="Dégradé_sans_nom_26-3" x1="61.27" y1="63.54" x2="69.4" y2="63.54" xlink:href="#Dégradé_sans_nom_26"/><linearGradient id="Dégradé_sans_nom_26-4" x1="59.22" y1="63.54" x2="69.9" y2="63.54" xlink:href="#Dégradé_sans_nom_26"/><linearGradient id="Dégradé_sans_nom_2-3" x1="52.57" y1="415.62" x2="77.45" y2="415.62" xlink:href="#Dégradé_sans_nom_2"/><linearGradient id="Dégradé_sans_nom_3-2" x1="55.62" y1="429.44" x2="72.37" y2="429.44" xlink:href="#Dégradé_sans_nom_3"/><linearGradient id="Dégradé_sans_nom_26-5" x1="44.11" y1="84.1" x2="134.47" y2="84.1" xlink:href="#Dégradé_sans_nom_26"/><linearGradient id="Dégradé_sans_nom_26-6" x1="-150.26" y1="-785.34" x2="-147.01" y2="-785.34" gradientTransform="translate(87.12 869.05) rotate(9.49)" xlink:href="#Dégradé_sans_nom_26"/></defs><title>madame</title><path d="M65.61,101.86s4.68-1,5-3.53-4.27-13-4.27-13,19.76-6.09,22-10.22c0,0-1,16.84,3.18,19.32s6.68,3.9,6.68,3.9l-2.49,4.15L75.16,120l-14-7.35Z" transform="translate(-12.56 -31.91)" style="fill:url(#Dégradé_sans_nom_29)"/><polygon points="50.47 73.29 80.51 72.41 60.79 87.6 50.47 73.29" style="fill:#fff"/><path d="M128.32,128.78c-.36-7-1.16-13.22-2.69-16.61a17.56,17.56,0,0,0-.88-1.66c-4.91-2.59-9.42-2.76-12.29-.23-3.9,3.44-2.64,11.5-2.64,11.5-.52,5.5.25,20.43-.62,32.41.51,6.1,1.52,12,3.35,16.54,0,0-3.2,22.06,4.61,61.32,0,0,5.89,2,8.1,1.48s.91-55.06,2.16-64.28C127.42,169.25,129.22,146.26,128.32,128.78Z" transform="translate(-12.56 -31.91)" style="fill:#f4a286"/><path d="M88,384.57s1,7.74-.15,12.14S74,414.43,73.41,416.51s2.37,3.05,6.09,2.86,12.62-6.58,15.68-10,8.73-10.92,8.77-14.58-4.19-6-4-8.59a4.81,4.81,0,0,0-1.66-4L88,384.57" transform="translate(-12.56 -31.91)" style="fill:#fee8cd"/><path d="M64.6,44.24c5.32-2.63,16.24-2.43,20.57,9.72S92,74.91,81.27,86.65,60.05,76.49,58.53,71,51.17,50.86,64.6,44.24Z" transform="translate(-12.56 -31.91)" style="fill:#fee8cd"/><path d="M118.36,231.82a23.32,23.32,0,0,0,3.59.23,5.72,5.72,0,0,1,3.31,1.48,72.76,72.76,0,0,0,0,9.49c.38,3.58,1.26,14.9,0,17.76s-2.64,9.55-3.72,10.37-1.79.33-2.27-.82c-3.35-8.05-2.11-19.59-2.11-19.59-.44-.32-.45.41-1,1.48-1.15,2.34-2,5.43-3,5.56s-1.09-1.63,0-5.32S117,231.8,118.36,231.82Z" transform="translate(-12.56 -31.91)" style="fill:url(#Dégradé_sans_nom_29-2)"/><path d="M98.07,382.07s6.27-71.58-5.23-84.12-6.79-57.48-6.79-57.48l-4.2-71.22-21.8,2.07s1.84,9.18,0,13.32-8.8,56.16,5.24,94.21c14.33,38.8,22.46,105.73,22.46,105.73A11.12,11.12,0,0,0,98.07,382.07Z" transform="translate(-12.56 -31.91)" style="fill:url(#Dégradé_sans_nom_2)"/><path d="M50.79,191.86s5.21,4.51,6.85,6.07c1.27,1.21,3.37,2.88,1.85,9.69s-2,3.47-3.16,6.61c-.42,1.12-3.92,13.07-5.5,13.07-2.68,0-1.87-5.12-2.07-7.75a28.71,28.71,0,0,1,2.57-13.07c2.12-4.78-3.14-7.67-3.14-7.67S49.84,191.66,50.79,191.86Z" transform="translate(-12.56 -31.91)" style="fill:#fee8cd"/><path d="M98.07,382.07s-.1-1.59,1.14-1.35,1.61,3,1.86,4.24,2.28,3.43,2.81,4.42,2.13,4.45,1.14,10.75-3.83,18.17-3.83,18.17H96.74v-3.44s-1,4.93-3.34,6.41-7.54,4.7-11.62,4.08-7.31-.6-8.26-3.34-.93-3.47-.35-5.33a7,7,0,0,1,1.33-2.55s-2.74,4.77,1.24,5.06a16.51,16.51,0,0,0,10.86-2.82c3.14-2.2,10.22-8,13.17-15.12S97.75,386.17,98.07,382.07Z" transform="translate(-12.56 -31.91)" style="fill:url(#Dégradé_sans_nom_2-2)"/><path d="M78.5,408.75s3.39-4,11.68,6.11l-5.46,4.66s-4.78-6.63-10.22-5.39Z" transform="translate(-12.56 -31.91)" style="fill:url(#Dégradé_sans_nom_3)"/><path d="M50.82,128.73c.35-.89.66-1.75.89-2.56A14.7,14.7,0,0,0,50.82,128.73Z" transform="translate(-12.56 -31.91)" style="fill:#f4a286"/><path d="M76,63.94c-1.13-1,4-1.3,5.16-1.2a12.13,12.13,0,0,1,3.3,1.2s-3.19-.1-4.23,0S77,64.83,76,63.94Z" transform="translate(-12.56 -31.91)" style="stroke-miterlimit:10;fill:url(#Dégradé_sans_nom_26);stroke:url(#Dégradé_sans_nom_26-2)"/><path d="M69.24,63.94c1.07-1-3.72-1.3-4.86-1.2a11,11,0,0,0-3.11,1.2s3-.1,4,0S68.31,64.83,69.24,63.94Z" transform="translate(-12.56 -31.91)" style="stroke-miterlimit:10;fill:url(#Dégradé_sans_nom_26-3);stroke:url(#Dégradé_sans_nom_26-4)"/><path d="M65.62,389.92s-2.17,15.38-2.26,17.94-2.18,15.41-4.6,18.95-6.16,6.32-5.17,7.69,1.52,1.18,4.57,1.38,5,.46,6.63,0A8.24,8.24,0,0,0,69.54,433c.72-1,4.4-8.95,4.49-10.82s1.74-7.57,1.81-9.93.47-3.44,0-6.58-2-8.67-.58-13.82-5-1.49-5-1.49l-4.6-.47" transform="translate(-12.56 -31.91)" style="fill:#fee8cd"/><path d="M53.43,440.92c1.36,3.14,9.07,2.09,14.3,1.09s6.06-7.83,6.3-11,1.12-2,1.12-2,2.45-17.48,2.29-20.3a19.21,19.21,0,0,0-.7-5.46c-.63-2.28-1.62-8.74,0-13.39,0,0-1.54-2.55-2-1.27s.48,3.31.48,3.31-2.57,2.84-1.33,8a28.2,28.2,0,0,1,.24,12.75c-.7,3.64-1.4,17.95-6.78,22.25A17.65,17.65,0,0,1,59.84,436c-4.33-.3-6.94-.09-6.41-2.73A8.66,8.66,0,0,0,53.43,440.92Z" transform="translate(-12.56 -31.91)" style="fill:url(#Dégradé_sans_nom_2-3)"/><path d="M55.62,430.64s8.85.39,11.77,4.24l.42.85L72.37,428s-9.28-6.21-12.11-4.56A53.5,53.5,0,0,1,55.62,430.64Z" transform="translate(-12.56 -31.91)" style="fill:url(#Dégradé_sans_nom_3-2)"/><path d="M75.64,243.25c-7.19,19.28-11.25,67-11.25,74.29s1.07,74.38,1.07,74.38c1.75,4.46,9.24,2,9.24,2C89.86,337,86,317.09,86,317.09c11.77-17.85,21.45-63.51,21.45-63.51,16.07-27.8,2.85-61.4,0-65.83s-4.08-16.55-4.08-16.55a91.71,91.71,0,0,0-37.91,0" transform="translate(-12.56 -31.91)" style="fill:#0d334e"/><path d="M66.42,290.53s7.76-53.79,12.22-64.88" transform="translate(-12.56 -31.91)" style="fill:#0d334e;stroke:#fff;stroke-linecap:round;stroke-linejoin:round;stroke-width:0.5px"/><path d="M98.19,98.36s-17.29,15.16-24.29,17-8.29-13.51-8.29-13.51c-9.67,2.86-23.73,8.41-30,17s-17,21.39-22.44,38.62,27.15,39.19,35.53,42c0,0,4.27-6.18,3-7.77-3.44-4.34-17.25-31.51-21.47-31.51,0,0,15.61-19,20.58-31.52a14.7,14.7,0,0,1,.89-2.56c-.23.81-.54,1.67-.89,2.56C50,132,49.1,138.31,51.71,147c3.94,13.07-1.81,23.63,8.34,24.34s26.51,0,42.9-.4c4-.08,5.58-7.53,6.25-16.73.87-12,.1-26.91.62-32.41,0,0-1.26-8.06,2.64-11.5,2.87-2.53,7.38-2.36,12.29.23C118.61,100.17,102.74,98,98.19,98.36Z" transform="translate(-12.56 -31.91)" style="fill:#f4a286"/><path d="M126.81,133.89c8.68-5.16,9.48-16.17,4.91-25.18-1.2-2.36-6-11.84-5.08-15.17,2.72-9.54-4.09-15.68-8.87-20.3s-9-6.2-10.35-16.41C105.8,44.89,92.33,38.09,86.05,35c-4.59-2.3-10.31,1-10.31,1S71.61,28,60,34.36s-8.31,19.58-8.31,19.58a159.5,159.5,0,0,1-5.05,19c-3.15,9.16,5.05,13.89,5.05,13.89s-7.26,2.53-7.57,11.55S46.46,110.8,56,114.58c10.59,4.18,10.75-6.5,10.75-6.5s-.92-2.92,3.43-8.76a7.68,7.68,0,0,0,1.29-4.86,10.84,10.84,0,0,0-3.75-7.64,15.65,15.65,0,0,1-2.54-2.9c-.1-.15-.19-.3-.29-.44a23.56,23.56,0,0,1-3.74-13.71c.06-1.7.06-3.87,0-6.65C60.66,52,67.39,49.44,70.57,46.33s9.08,5.15,9.08,5.15c.4,7.16,5.06,10,7.07,15.56S82.49,79.6,81.33,86.82C80.22,93.68,86.42,99.42,92,100a5.13,5.13,0,0,1,2.39.78c1.27.85,2.82,2.63,2.49,6.1,0,0-1.09,3.75.11,11.05A19.42,19.42,0,0,0,105.08,131C109.7,134.1,117.47,139.43,126.81,133.89Z" transform="translate(-12.56 -31.91)" style="fill:url(#Dégradé_sans_nom_26-5)"/><path d="M110.25,134.36a136.6,136.6,0,0,0-1.11,21.84" transform="translate(-12.56 -31.91)" style="fill:none;stroke:#fff;stroke-linecap:round;stroke-linejoin:round;stroke-width:0.5px"/><path d="M69.85,63.69s.74,4.32-.29,7.24c-.87,2.47-1.69,2.16-1.72,3.78,0,1,1,1.3,2.74,1.28" transform="translate(-12.56 -31.91)" style="fill:none;stroke-miterlimit:10;stroke-width:0.5px;stroke:url(#Dégradé_sans_nom_26-6)"/><path d="M67.76,80.71,70.48,79l1.25,1.4L73.32,79l3,1.9c.91.66-.22,1.73-1.15,2.33a4.56,4.56,0,0,1-3.11.87C68.19,83.54,67.76,80.71,67.76,80.71Z" transform="translate(-12.56 -31.91)" style="fill:#f4a286"/></svg>