<svg width="434" height="490" viewBox="0 0 434 490" fill="none" xmlns="http://www.w3.org/2000/svg">
<path d="M257.06 209.64C226.699 180.509 226.53 158.956 227.711 151.042L227.88 150.705L182.169 152.894L169.687 145.99C170.53 146.664 171.374 147.169 172.386 147.674L182.675 153.399C183.35 161.482 181.494 177.647 163.277 199.031C172.892 210.818 187.735 218.227 204.097 218.227C220.795 218.227 235.639 210.482 245.422 198.358C248.458 201.894 252 205.767 256.048 209.64C294.338 246.516 389.301 353.272 406.506 487.98H407.518C390.482 353.272 295.518 246.516 257.06 209.64Z" fill="#F9E9D7"/>
<path d="M310.024 487.979H406.337C389.132 353.44 294.337 246.684 255.879 209.639C251.831 205.598 248.289 201.894 245.253 198.357C235.639 210.481 220.626 218.227 203.928 218.227C187.566 218.227 172.892 210.818 163.108 199.031C160.241 202.399 156.867 206.103 152.988 209.808C114.699 246.684 19.7349 353.44 2.86743 488.148H99.3494C99.3494 415.069 137.47 327.003 137.47 327.003C137.47 327.003 99.3494 415.069 99.3494 488.148H203.59H204.602H205.614H310.024V487.979ZM15.8554 480.907C13.1566 480.907 10.9638 478.718 10.9638 476.024C10.9638 473.33 13.1566 471.141 15.8554 471.141C18.5542 471.141 20.747 473.33 20.747 476.024C20.747 478.718 18.5542 480.907 15.8554 480.907ZM38.6265 446.22C35.9277 446.22 33.7349 444.031 33.7349 441.337C33.7349 438.643 35.9277 436.454 38.6265 436.454C41.3253 436.454 43.518 438.643 43.518 441.337C43.518 444.031 41.3253 446.22 38.6265 446.22ZM60.3855 403.787C57.6867 403.787 55.4939 401.598 55.4939 398.904C55.4939 396.21 57.6867 394.021 60.3855 394.021C63.0843 394.021 65.2771 396.21 65.2771 398.904C65.2771 401.598 63.0843 403.787 60.3855 403.787ZM64.771 351.756C62.0723 351.756 59.8795 349.567 59.8795 346.873C59.8795 344.179 62.0723 341.99 64.771 341.99C67.4698 341.99 69.6626 344.179 69.6626 346.873C69.6626 349.567 67.4698 351.756 64.771 351.756ZM77.759 476.698C75.0602 476.698 72.8674 474.509 72.8674 471.815C72.8674 469.12 75.0602 466.931 77.759 466.931C80.4578 466.931 82.6506 469.12 82.6506 471.815C82.6506 474.509 80.4578 476.698 77.759 476.698ZM77.759 434.265C75.0602 434.265 72.8674 432.076 72.8674 429.382C72.8674 426.687 75.0602 424.498 77.759 424.498C80.4578 424.498 82.6506 426.687 82.6506 429.382C82.6506 432.076 80.4578 434.265 77.759 434.265ZM99.518 387.622C96.8192 387.622 94.6265 385.433 94.6265 382.739C94.6265 380.045 96.8192 377.856 99.518 377.856C102.217 377.856 104.41 380.045 104.41 382.739C104.41 385.433 102.217 387.622 99.518 387.622ZM103.904 331.045C101.205 331.045 99.012 328.856 99.012 326.162C99.012 323.467 101.205 321.278 103.904 321.278C106.602 321.278 108.795 323.467 108.795 326.162C108.795 328.856 106.602 331.045 103.904 331.045ZM123.47 274.636C120.771 274.636 118.578 272.447 118.578 269.753C118.578 267.058 120.771 264.869 123.47 264.869C126.169 264.869 128.361 267.058 128.361 269.753C128.361 272.447 126.169 274.636 123.47 274.636ZM136.626 420.12C133.928 420.12 131.735 417.931 131.735 415.237C131.735 412.543 133.928 410.354 136.626 410.354C139.325 410.354 141.518 412.543 141.518 415.237C141.518 417.931 139.325 420.12 136.626 420.12ZM146.41 476.698C143.711 476.698 141.518 474.509 141.518 471.815C141.518 469.12 143.711 466.931 146.41 466.931C149.108 466.931 151.301 469.12 151.301 471.815C151.301 474.509 149.108 476.698 146.41 476.698ZM161.59 224.625C164.289 224.625 166.482 226.814 166.482 229.509C166.482 232.203 164.289 234.392 161.59 234.392C158.892 234.392 156.699 232.203 156.699 229.509C156.699 226.814 158.892 224.625 161.59 224.625ZM156.699 306.629C156.699 303.935 158.892 301.746 161.59 301.746C164.289 301.746 166.482 303.935 166.482 306.629C166.482 309.323 164.289 311.512 161.59 311.512C158.892 311.512 156.699 309.323 156.699 306.629ZM165.976 356.134C163.277 356.134 161.084 353.945 161.084 351.251C161.084 348.557 163.277 346.368 165.976 346.368C168.675 346.368 170.867 348.557 170.867 351.251C170.867 353.945 168.675 356.134 165.976 356.134ZM178.964 264.869C176.265 264.869 174.072 262.68 174.072 259.986C174.072 257.292 176.265 255.103 178.964 255.103C181.663 255.103 183.855 257.292 183.855 259.986C183.855 262.68 181.663 264.869 178.964 264.869ZM188.747 455.986C186.048 455.986 183.855 453.797 183.855 451.103C183.855 448.409 186.048 446.22 188.747 446.22C191.446 446.22 193.639 448.409 193.639 451.103C193.639 453.797 191.446 455.986 188.747 455.986ZM196.337 398.399C193.639 398.399 191.446 396.21 191.446 393.516C191.446 390.821 193.639 388.632 196.337 388.632C199.036 388.632 201.229 390.821 201.229 393.516C201.229 396.21 199.036 398.399 196.337 398.399ZM239.855 224.625C242.554 224.625 244.747 226.814 244.747 229.509C244.747 232.203 242.554 234.392 239.855 234.392C237.157 234.392 234.964 232.203 234.964 229.509C234.964 226.814 237.157 224.625 239.855 224.625ZM215.398 306.629C215.398 303.935 217.59 301.746 220.289 301.746C222.988 301.746 225.181 303.935 225.181 306.629C225.181 309.323 222.988 311.512 220.289 311.512C217.59 311.512 215.398 309.323 215.398 306.629ZM225.855 365.9C223.157 365.9 220.964 363.711 220.964 361.017C220.964 358.323 223.157 356.134 225.855 356.134C228.554 356.134 230.747 358.323 230.747 361.017C230.747 363.711 228.554 365.9 225.855 365.9ZM235.639 425.509C232.94 425.509 230.747 423.32 230.747 420.626C230.747 417.931 232.94 415.742 235.639 415.742C238.337 415.742 240.53 417.931 240.53 420.626C240.53 423.32 238.337 425.509 235.639 425.509ZM244.241 476.698C241.542 476.698 239.349 474.509 239.349 471.815C239.349 469.12 241.542 466.931 244.241 466.931C246.94 466.931 249.132 469.12 249.132 471.815C249.132 474.509 246.94 476.698 244.241 476.698ZM249.639 274.636C246.94 274.636 244.747 272.447 244.747 269.753C244.747 267.058 246.94 264.869 249.639 264.869C252.337 264.869 254.53 267.058 254.53 269.753C254.53 272.447 252.337 274.636 249.639 274.636ZM379.687 460.87C379.687 463.564 377.494 465.753 374.795 465.753C372.096 465.753 369.904 463.564 369.904 460.87C369.904 458.175 372.096 455.986 374.795 455.986C377.494 455.986 379.687 458.175 379.687 460.87ZM369.398 387.622C372.096 387.622 374.289 389.811 374.289 392.505C374.289 395.199 372.096 397.388 369.398 397.388C366.699 397.388 364.506 395.199 364.506 392.505C364.506 389.811 366.699 387.622 369.398 387.622ZM341.06 420.12C343.759 420.12 345.952 422.309 345.952 425.003C345.952 427.698 343.759 429.887 341.06 429.887C338.361 429.887 336.169 427.698 336.169 425.003C336.169 422.309 338.361 420.12 341.06 420.12ZM331.277 341.99C333.976 341.99 336.169 344.179 336.169 346.873C336.169 349.567 333.976 351.756 331.277 351.756C328.578 351.756 326.385 349.567 326.385 346.873C326.385 344.179 328.578 341.99 331.277 341.99ZM326.385 477.203C326.385 479.897 324.193 482.086 321.494 482.086C318.795 482.086 316.602 479.897 316.602 477.203C316.602 474.509 318.795 472.32 321.494 472.32C324.193 472.32 326.385 474.509 326.385 477.203ZM314.916 377.856C317.614 377.856 319.807 380.045 319.807 382.739C319.807 385.433 317.614 387.622 314.916 387.622C312.217 387.622 310.024 385.433 310.024 382.739C310.024 380.045 312.217 377.856 314.916 377.856ZM289.952 282.213C292.651 282.213 294.843 284.402 294.843 287.096C294.843 289.79 292.651 291.979 289.952 291.979C287.253 291.979 285.06 289.79 285.06 287.096C285.06 284.402 287.253 282.213 289.952 282.213ZM289.952 321.278C292.651 321.278 294.843 323.467 294.843 326.162C294.843 328.856 292.651 331.045 289.952 331.045C287.253 331.045 285.06 328.856 285.06 326.162C285.06 323.467 287.253 321.278 289.952 321.278ZM285.566 446.22C288.265 446.22 290.458 448.409 290.458 451.103C290.458 453.797 288.265 455.986 285.566 455.986C282.867 455.986 280.675 453.797 280.675 451.103C280.675 448.409 282.867 446.22 285.566 446.22ZM267.181 393.01C269.879 393.01 272.072 395.199 272.072 397.894C272.072 400.588 269.879 402.777 267.181 402.777C264.482 402.777 262.289 400.588 262.289 397.894C262.289 395.199 264.482 393.01 267.181 393.01Z" fill="#80BEA3" stroke="#5A8D8C" stroke-width="2" stroke-miterlimit="10" stroke-linecap="round" stroke-linejoin="round"/>
<path d="M178.964 264.87C181.665 264.87 183.855 262.684 183.855 259.987C183.855 257.29 181.665 255.104 178.964 255.104C176.262 255.104 174.072 257.29 174.072 259.987C174.072 262.684 176.262 264.87 178.964 264.87Z" fill="#5A8D8C"/>
<path d="M239.855 234.393C242.557 234.393 244.747 232.207 244.747 229.51C244.747 226.813 242.557 224.627 239.855 224.627C237.154 224.627 234.964 226.813 234.964 229.51C234.964 232.207 237.154 234.393 239.855 234.393Z" fill="#5A8D8C"/>
<path d="M220.289 311.512C222.991 311.512 225.181 309.326 225.181 306.629C225.181 303.932 222.991 301.746 220.289 301.746C217.588 301.746 215.397 303.932 215.397 306.629C215.397 309.326 217.588 311.512 220.289 311.512Z" fill="#5A8D8C"/>
<path d="M103.904 331.046C106.605 331.046 108.795 328.859 108.795 326.162C108.795 323.466 106.605 321.279 103.904 321.279C101.202 321.279 99.012 323.466 99.012 326.162C99.012 328.859 101.202 331.046 103.904 331.046Z" fill="#5A8D8C"/>
<path d="M123.47 274.635C126.171 274.635 128.361 272.449 128.361 269.752C128.361 267.055 126.171 264.869 123.47 264.869C120.768 264.869 118.578 267.055 118.578 269.752C118.578 272.449 120.768 274.635 123.47 274.635Z" fill="#5A8D8C"/>
<path d="M165.976 356.135C168.678 356.135 170.868 353.949 170.868 351.252C170.868 348.555 168.678 346.369 165.976 346.369C163.275 346.369 161.084 348.555 161.084 351.252C161.084 353.949 163.275 356.135 165.976 356.135Z" fill="#5A8D8C"/>
<path d="M161.59 311.512C164.292 311.512 166.482 309.326 166.482 306.629C166.482 303.932 164.292 301.746 161.59 301.746C158.889 301.746 156.699 303.932 156.699 306.629C156.699 309.326 158.889 311.512 161.59 311.512Z" fill="#5A8D8C"/>
<path d="M249.639 274.635C252.34 274.635 254.53 272.449 254.53 269.752C254.53 267.055 252.34 264.869 249.639 264.869C246.937 264.869 244.747 267.055 244.747 269.752C244.747 272.449 246.937 274.635 249.639 274.635Z" fill="#5A8D8C"/>
<path d="M289.952 331.046C292.653 331.046 294.843 328.859 294.843 326.162C294.843 323.466 292.653 321.279 289.952 321.279C287.25 321.279 285.06 323.466 285.06 326.162C285.06 328.859 287.25 331.046 289.952 331.046Z" fill="#5A8D8C"/>
<path d="M289.952 291.981C292.653 291.981 294.843 289.795 294.843 287.098C294.843 284.401 292.653 282.215 289.952 282.215C287.25 282.215 285.06 284.401 285.06 287.098C285.06 289.795 287.25 291.981 289.952 291.981Z" fill="#5A8D8C"/>
<path d="M161.59 234.393C164.292 234.393 166.482 232.207 166.482 229.51C166.482 226.813 164.292 224.627 161.59 224.627C158.889 224.627 156.699 226.813 156.699 229.51C156.699 232.207 158.889 234.393 161.59 234.393Z" fill="#5A8D8C"/>
<path d="M225.855 365.901C228.557 365.901 230.747 363.715 230.747 361.018C230.747 358.321 228.557 356.135 225.855 356.135C223.154 356.135 220.964 358.321 220.964 361.018C220.964 363.715 223.154 365.901 225.855 365.901Z" fill="#5A8D8C"/>
<path d="M267.181 402.778C269.882 402.778 272.072 400.592 272.072 397.895C272.072 395.198 269.882 393.012 267.181 393.012C264.479 393.012 262.289 395.198 262.289 397.895C262.289 400.592 264.479 402.778 267.181 402.778Z" fill="#5A8D8C"/>
<path d="M196.337 398.399C199.039 398.399 201.229 396.213 201.229 393.516C201.229 390.819 199.039 388.633 196.337 388.633C193.636 388.633 191.446 390.819 191.446 393.516C191.446 396.213 193.636 398.399 196.337 398.399Z" fill="#5A8D8C"/>
<path d="M136.626 420.12C139.328 420.12 141.518 417.934 141.518 415.237C141.518 412.54 139.328 410.354 136.626 410.354C133.925 410.354 131.735 412.54 131.735 415.237C131.735 417.934 133.925 420.12 136.626 420.12Z" fill="#5A8D8C"/>
<path d="M188.747 455.987C191.449 455.987 193.639 453.801 193.639 451.104C193.639 448.407 191.449 446.221 188.747 446.221C186.046 446.221 183.855 448.407 183.855 451.104C183.855 453.801 186.046 455.987 188.747 455.987Z" fill="#5A8D8C"/>
<path d="M146.41 476.698C149.111 476.698 151.301 474.512 151.301 471.815C151.301 469.118 149.111 466.932 146.41 466.932C143.708 466.932 141.518 469.118 141.518 471.815C141.518 474.512 143.708 476.698 146.41 476.698Z" fill="#5A8D8C"/>
<path d="M244.241 476.698C246.943 476.698 249.133 474.512 249.133 471.815C249.133 469.118 246.943 466.932 244.241 466.932C241.54 466.932 239.35 469.118 239.35 471.815C239.35 474.512 241.54 476.698 244.241 476.698Z" fill="#5A8D8C"/>
<path d="M235.639 425.508C238.34 425.508 240.53 423.322 240.53 420.625C240.53 417.928 238.34 415.742 235.639 415.742C232.937 415.742 230.747 417.928 230.747 420.625C230.747 423.322 232.937 425.508 235.639 425.508Z" fill="#5A8D8C"/>
<path d="M285.566 455.987C288.268 455.987 290.458 453.801 290.458 451.104C290.458 448.407 288.268 446.221 285.566 446.221C282.865 446.221 280.675 448.407 280.675 451.104C280.675 453.801 282.865 455.987 285.566 455.987Z" fill="#5A8D8C"/>
<path d="M374.795 465.753C377.497 465.753 379.687 463.566 379.687 460.87C379.687 458.173 377.497 455.986 374.795 455.986C372.094 455.986 369.904 458.173 369.904 460.87C369.904 463.566 372.094 465.753 374.795 465.753Z" fill="#5A8D8C"/>
<path d="M331.277 351.757C333.979 351.757 336.169 349.57 336.169 346.873C336.169 344.176 333.979 341.99 331.277 341.99C328.576 341.99 326.386 344.176 326.386 346.873C326.386 349.57 328.576 351.757 331.277 351.757Z" fill="#5A8D8C"/>
<path d="M369.397 397.389C372.099 397.389 374.289 395.203 374.289 392.506C374.289 389.809 372.099 387.623 369.397 387.623C366.696 387.623 364.506 389.809 364.506 392.506C364.506 395.203 366.696 397.389 369.397 397.389Z" fill="#5A8D8C"/>
<path d="M314.915 387.622C317.617 387.622 319.807 385.436 319.807 382.739C319.807 380.042 317.617 377.855 314.915 377.855C312.214 377.855 310.024 380.042 310.024 382.739C310.024 385.436 312.214 387.622 314.915 387.622Z" fill="#5A8D8C"/>
<path d="M341.06 429.887C343.762 429.887 345.952 427.701 345.952 425.004C345.952 422.307 343.762 420.121 341.06 420.121C338.358 420.121 336.168 422.307 336.168 425.004C336.168 427.701 338.358 429.887 341.06 429.887Z" fill="#5A8D8C"/>
<path d="M64.7712 351.757C67.4727 351.757 69.6628 349.57 69.6628 346.873C69.6628 344.176 67.4727 341.99 64.7712 341.99C62.0697 341.99 59.8796 344.176 59.8796 346.873C59.8796 349.57 62.0697 351.757 64.7712 351.757Z" fill="#5A8D8C"/>
<path d="M77.759 476.698C80.4605 476.698 82.6506 474.512 82.6506 471.815C82.6506 469.118 80.4605 466.932 77.759 466.932C75.0575 466.932 72.8674 469.118 72.8674 471.815C72.8674 474.512 75.0575 476.698 77.759 476.698Z" fill="#5A8D8C"/>
<path d="M38.6264 446.221C41.328 446.221 43.518 444.035 43.518 441.338C43.518 438.641 41.328 436.455 38.6264 436.455C35.9249 436.455 33.7349 438.641 33.7349 441.338C33.7349 444.035 35.9249 446.221 38.6264 446.221Z" fill="#5A8D8C"/>
<path d="M99.518 387.622C102.22 387.622 104.41 385.436 104.41 382.739C104.41 380.042 102.22 377.855 99.518 377.855C96.8165 377.855 94.6265 380.042 94.6265 382.739C94.6265 385.436 96.8165 387.622 99.518 387.622Z" fill="#5A8D8C"/>
<path d="M60.3855 403.788C63.087 403.788 65.277 401.602 65.277 398.905C65.277 396.208 63.087 394.021 60.3855 394.021C57.6839 394.021 55.4939 396.208 55.4939 398.905C55.4939 401.602 57.6839 403.788 60.3855 403.788Z" fill="#5A8D8C"/>
<path d="M77.759 434.266C80.4605 434.266 82.6506 432.08 82.6506 429.383C82.6506 426.686 80.4605 424.5 77.759 424.5C75.0575 424.5 72.8674 426.686 72.8674 429.383C72.8674 432.08 75.0575 434.266 77.759 434.266Z" fill="#5A8D8C"/>
<path d="M15.8554 480.907C18.557 480.907 20.747 478.721 20.747 476.024C20.747 473.327 18.557 471.141 15.8554 471.141C13.1539 471.141 10.9639 473.327 10.9639 476.024C10.9639 478.721 13.1539 480.907 15.8554 480.907Z" fill="#5A8D8C"/>
<path d="M321.494 482.087C324.196 482.087 326.386 479.9 326.386 477.203C326.386 474.507 324.196 472.32 321.494 472.32C318.793 472.32 316.603 474.507 316.603 477.203C316.603 479.9 318.793 482.087 321.494 482.087Z" fill="#5A8D8C"/>
<path d="M281.518 375.498C281.518 375.498 304.627 428.539 301.422 487.979L281.518 375.498Z" fill="#80BEA3"/>
<path d="M386.096 345.189C362.482 308.144 333.687 299.725 330.313 176.804C323 75 280.506 30.1409 280.506 30.1409C266.337 11.7869 244.072 0 219.108 0C192.458 0 169.012 13.3024 155.181 33.677H155.012C79.4999 157.5 175.253 232.371 161.759 301.409C148.602 368.931 198.867 419.278 246.096 420.962C277.638 422.141 320.988 398.23 338.867 412.543C350.843 422.141 344.94 434.433 340.385 440.495C339.373 442.01 340.554 444.199 342.41 443.863C393.855 435.78 408.867 381.055 386.096 345.189Z" fill="#CB563E"/>
<g clip-path="url(#clip0)">
<path d="M269.64 229.18C269.64 229.18 260.071 277.511 298.228 313.363C336.384 349.215 361.854 351.514 366.66 401.628" stroke="url(#paint0_radial)" stroke-width="2"/>
<path d="M184.628 131.473C211.805 173.792 219.031 209.19 220.759 233.732C223.744 277.783 210.077 312.394 233.327 342.285C237.411 347.477 246.365 358.961 261.603 364.31C283.91 372.019 298.206 359.276 318.627 366.198C327.11 369.03 338.892 376.109 349.575 395.775" stroke="url(#paint1_radial)" stroke-width="2"/>
</g>
<path d="M133.5 211.5C123.167 193.833 98.4999 132 125 71" stroke="url(#paint2_radial)" stroke-width="2"/>
<defs>
<radialGradient id="paint0_radial" cx="0" cy="0" r="1" gradientUnits="userSpaceOnUse" gradientTransform="translate(316.742 315.379) rotate(-5.47718) scale(70.5928 70.6967)">
<stop stop-color="white"/>
<stop offset="1" stop-color="#CB563E"/>
</radialGradient>
<radialGradient id="paint1_radial" cx="0" cy="0" r="1" gradientUnits="userSpaceOnUse" gradientTransform="translate(267.148 263.554) scale(110.527 110.689)">
<stop stop-color="white"/>
<stop offset="1" stop-color="#CB563E"/>
</radialGradient>
<radialGradient id="paint2_radial" cx="0" cy="0" r="1" gradientUnits="userSpaceOnUse" gradientTransform="translate(123.617 156.75) rotate(90) scale(54.75 9.88246)">
<stop offset="0.630208" stop-color="#CB563E"/>
<stop offset="1" stop-color="#CB563E" stop-opacity="0"/>
</radialGradient>
<clipPath id="clip0">
<rect x="184" y="121" width="175" height="275" fill="white"/>
</clipPath>
</defs>
</svg>
