<svg width="463" height="461" viewBox="0 0 463 461" fill="none" xmlns="http://www.w3.org/2000/svg">
<path d="M377.232 155.475C373.362 143.647 367.505 139.146 363.53 124.806C360.288 113.083 360.392 102.826 361.124 95.8129C361.334 93.6148 361.334 91.4167 361.334 89.2187C361.334 40.338 321.692 0.668274 272.845 0.668274C225.777 0.668274 187.285 37.5119 184.565 83.9852C184.252 90.1607 183.415 96.2315 181.846 102.198C177.348 118.84 165.843 147.101 137.183 160.917C95.0309 181.119 61.037 213.461 45.9751 267.157C37.9212 296.15 18.1524 313.735 1.73075 323.678C-0.0473902 324.83 0.893978 327.551 2.98591 327.342C17.3156 325.876 34.3649 328.703 46.4981 345.659C71.2874 380.305 138.857 391.295 190.841 325.981C229.437 277.415 253.39 254.806 279.748 245.176C289.79 241.513 293.241 243.711 308.617 239.315C332.674 232.511 365.204 223.196 376.291 197.028C384.24 178.083 377.755 157.149 377.232 155.475Z" fill="#CB563E"/>
<path d="M17 302.773C22.8333 297.606 33.5 288.773 41 260.773C48.5345 232.644 65.5 208.273 71.5 204.273" stroke="url(#paint0_diamond)" stroke-linecap="round"/>
<path d="M385.992 172.681C385.941 172.41 385.68 172.231 385.408 172.281C385.137 172.332 384.958 172.593 385.008 172.865L385.992 172.681ZM365.3 222.173C369.687 218.883 375.962 212.479 380.59 203.923C385.221 195.363 388.218 184.621 385.992 172.681L385.008 172.865C387.182 184.525 384.262 195.033 379.71 203.448C375.155 211.867 368.98 218.163 364.7 221.373L365.3 222.173Z" fill="url(#paint1_diamond)"/>
<path d="M49.5 310.773C83 306.773 72 233.773 141 208.273C185.058 191.991 208 148.273 208.5 92.2729" stroke="url(#paint2_diamond)"/>
<path d="M43.5 321.773C66 324.773 106 317.773 129 276.773C152 235.773 191.5 229.773 191.5 229.773" stroke="url(#paint3_diamond)"/>
<g clip-path="url(#clip0)">
<path d="M324.21 202.985C296.345 176.187 296.131 156.25 297.31 148.961L304.49 144.031C312.743 138.35 317.673 129.024 317.673 118.949V77.1452V41.7729H230.862V77.1452V101.263C230.219 101.155 229.576 101.048 228.933 101.048C221.967 101.048 216.394 106.622 216.394 113.589C216.394 120.557 221.967 126.13 228.933 126.13C229.791 126.13 230.755 126.023 231.505 125.809C233.327 134.169 238.686 141.565 246.402 145.853L255.834 151.105C256.584 159.68 254.226 178.438 228.719 202.985C193.459 236.963 106.22 335.255 90.6794 459.165H276.089H277.054H462.464C446.817 335.255 359.578 236.963 324.21 202.985Z" fill="#F9E9D7"/>
<path d="M323.246 202.985C319.495 199.34 316.28 195.91 313.493 192.587C304.598 203.735 290.879 210.809 275.554 210.809C260.228 210.809 246.51 203.735 237.614 192.587C234.828 195.91 231.612 199.447 227.861 202.985C192.494 236.963 105.255 335.148 89.7148 459.165H275.125H276.089H461.5C445.745 335.255 358.506 236.963 323.246 202.985Z" fill="#80BEA3" stroke="#5A8D8C" stroke-width="2" stroke-miterlimit="10" stroke-linecap="round" stroke-linejoin="round"/>
<path d="M214.358 310.816C214.358 310.816 179.312 391.851 179.312 459.165" stroke="#5A8D8C" stroke-width="2" stroke-miterlimit="10" stroke-linecap="round" stroke-linejoin="round"/>
<path d="M337.929 310.816C337.929 310.816 372.974 391.851 372.974 459.165" stroke="#5A8D8C" stroke-width="2" stroke-miterlimit="10" stroke-linecap="round" stroke-linejoin="round"/>
<circle cx="252.5" cy="249.273" r="4.5" fill="#5A8D8C"/>
<circle cx="308.5" cy="221.273" r="4.5" fill="#5A8D8C"/>
<circle cx="290.5" cy="292.273" r="4.5" fill="#5A8D8C"/>
<circle cx="183.5" cy="310.273" r="4.5" fill="#5A8D8C"/>
<circle cx="201.5" cy="258.273" r="4.5" fill="#5A8D8C"/>
<circle cx="240.5" cy="333.273" r="4.5" fill="#5A8D8C"/>
<circle cx="236.5" cy="292.273" r="4.5" fill="#5A8D8C"/>
<circle cx="317.5" cy="258.273" r="4.5" fill="#5A8D8C"/>
<circle cx="354.5" cy="310.273" r="4.5" fill="#5A8D8C"/>
<circle cx="354.5" cy="274.273" r="4.5" fill="#5A8D8C"/>
<circle cx="236.5" cy="221.273" r="4.5" fill="#5A8D8C"/>
<circle cx="295.5" cy="342.273" r="4.5" fill="#5A8D8C"/>
<circle cx="333.5" cy="376.273" r="4.5" fill="#5A8D8C"/>
<circle cx="268.5" cy="372.273" r="4.5" fill="#5A8D8C"/>
<circle cx="213.5" cy="392.273" r="4.5" fill="#5A8D8C"/>
<circle cx="261.5" cy="425.273" r="4.5" fill="#5A8D8C"/>
<circle cx="222.5" cy="444.273" r="4.5" fill="#5A8D8C"/>
<circle cx="312.5" cy="444.273" r="4.5" fill="#5A8D8C"/>
<circle cx="304.5" cy="397.273" r="4.5" fill="#5A8D8C"/>
<circle cx="350.5" cy="425.273" r="4.5" fill="#5A8D8C"/>
<circle cx="432.5" cy="434.273" r="4.5" fill="#5A8D8C"/>
<circle cx="392.5" cy="329.273" r="4.5" fill="#5A8D8C"/>
<circle cx="427.5" cy="371.273" r="4.5" fill="#5A8D8C"/>
<circle cx="377.5" cy="362.273" r="4.5" fill="#5A8D8C"/>
<circle cx="401.5" cy="401.273" r="4.5" fill="#5A8D8C"/>
<circle cx="147.5" cy="329.273" r="4.5" fill="#5A8D8C"/>
<circle cx="159.5" cy="444.273" r="4.5" fill="#5A8D8C"/>
<circle cx="123.5" cy="416.273" r="4.5" fill="#5A8D8C"/>
<circle cx="179.5" cy="362.273" r="4.5" fill="#5A8D8C"/>
<circle cx="143.5" cy="377.273" r="4.5" fill="#5A8D8C"/>
<circle cx="159.5" cy="405.273" r="4.5" fill="#5A8D8C"/>
<circle cx="102.5" cy="448.273" r="4.5" fill="#5A8D8C"/>
<circle cx="383.5" cy="449.273" r="4.5" fill="#5A8D8C"/>
</g>
<circle cx="224" cy="131.773" r="7" stroke="white" stroke-width="2"/>
<path d="M282.468 42.4315C282.468 42.4315 283.514 66.9242 274.1 74.0417C264.687 81.0546 256.737 75.7164 249.729 90.1608C242.721 104.71 229.856 100.314 229.856 100.314L205.799 100.942L219.919 35H327.654V84.2993C327.654 84.404 284.56 78.4379 282.468 42.4315Z" fill="#CB563E"/>
<path d="M283.5 131.773C281.5 131.773 279.333 133.106 278.5 133.773C278 133.106 276.4 131.773 274 131.773C271.6 131.773 269.667 133.106 269 133.773C269.5 136.106 272.1 140.773 278.5 140.773C284.9 140.773 287.833 136.106 288.5 133.773C287.667 133.106 285.5 131.773 283.5 131.773Z" fill="#CB563E"/>
<defs>
<radialGradient id="paint0_diamond" cx="0" cy="0" r="1" gradientUnits="userSpaceOnUse" gradientTransform="translate(44.25 253.523) rotate(90) scale(49.25 27.25)">
<stop stop-color="#CB563E"/>
<stop offset="1" stop-color="white" stop-opacity="0"/>
</radialGradient>
<radialGradient id="paint1_diamond" cx="0" cy="0" r="1" gradientUnits="userSpaceOnUse" gradientTransform="translate(375.621 197.273) rotate(90) scale(24.5 10.6211)">
<stop offset="0.646086" stop-color="#CB563E"/>
<stop offset="1" stop-color="white" stop-opacity="0"/>
</radialGradient>
<radialGradient id="paint2_diamond" cx="0" cy="0" r="1" gradientUnits="userSpaceOnUse" gradientTransform="translate(129 201.523) rotate(90) scale(109.25 79.5)">
<stop stop-color="white"/>
<stop offset="1" stop-color="#CB563E"/>
</radialGradient>
<radialGradient id="paint3_diamond" cx="0" cy="0" r="1" gradientUnits="userSpaceOnUse" gradientTransform="translate(117.5 276.078) rotate(90) scale(46.3051 74)">
<stop stop-color="white"/>
<stop offset="1" stop-color="#CB563E"/>
</radialGradient>
<clipPath id="clip0">
<rect x="88" y="41.7729" width="375" height="419" fill="white"/>
</clipPath>
</defs>
</svg>
