<svg width="463" height="461" viewBox="0 0 463 461" fill="none" xmlns="http://www.w3.org/2000/svg">
<path d="M377.232 155.701C373.362 143.873 367.505 139.372 363.53 125.033C360.288 113.31 360.392 103.052 361.124 96.0391C361.334 93.8411 361.333 91.643 361.333 89.4449C361.333 40.5643 321.691 0.894531 272.845 0.894531C225.776 0.894531 187.285 37.7382 184.565 84.2115C184.252 90.387 183.415 96.4578 181.846 102.424C177.348 119.066 165.843 147.327 137.183 161.144C95.0308 181.345 61.0369 213.688 45.975 267.383C37.921 296.377 18.1523 313.961 1.73063 323.905C-0.0475122 325.056 0.893856 327.777 2.98579 327.568C17.3155 326.103 34.3647 328.929 46.4979 345.885C71.2873 380.531 138.857 391.521 190.841 326.207C229.437 277.641 253.39 255.032 279.748 245.403C289.789 241.739 293.241 243.937 308.617 239.541C332.674 232.738 365.204 223.422 376.291 197.255C384.24 178.309 377.755 157.375 377.232 155.701Z" fill="#446A6F"/>
<path d="M17 303C22.8333 297.833 33.5 289 41 261C48.5345 232.871 65.5 208.5 71.5 204.5" stroke="url(#paint0_diamond)" stroke-linecap="round"/>
<path d="M385.992 172.908C385.941 172.637 385.68 172.458 385.408 172.508C385.137 172.559 384.958 172.82 385.008 173.092L385.992 172.908ZM365.3 222.4C369.687 219.11 375.962 212.706 380.59 204.15C385.221 195.59 388.218 184.848 385.992 172.908L385.008 173.092C387.182 184.752 384.262 195.26 379.71 203.675C375.155 212.094 368.98 218.39 364.7 221.6L365.3 222.4Z" fill="url(#paint1_diamond)"/>
<path d="M49.5 311C83 307 72 234 141 208.5C185.058 192.218 208 148.5 208.5 92.5" stroke="url(#paint2_diamond)"/>
<path d="M43.5 322C66 325 106 318 129 277C152 236 191.5 230 191.5 230" stroke="url(#paint3_diamond)"/>
<path d="M324.21 203.212C296.345 176.414 296.131 156.477 297.31 149.189L304.491 144.258C312.743 138.577 317.673 129.251 317.673 119.176V77.3722V42H230.862V77.3722V101.49C230.219 101.382 229.576 101.275 228.933 101.275C221.967 101.275 216.394 106.849 216.394 113.816C216.394 120.784 221.967 126.357 228.933 126.357C229.791 126.357 230.755 126.25 231.505 126.036C233.327 134.397 238.686 141.793 246.403 146.08L255.834 151.332C256.584 159.907 254.226 178.665 228.719 203.212C193.459 237.19 106.22 335.482 90.6794 459.392H276.09H277.054H462.464C446.817 335.482 359.578 237.19 324.21 203.212Z" fill="#F9E9D7"/>
<path d="M323.246 203.212C319.495 199.567 316.28 196.137 313.493 192.814C304.598 203.962 290.879 211.037 275.554 211.037C260.228 211.037 246.51 203.962 237.614 192.814C234.828 196.137 231.613 199.675 227.861 203.212C192.494 237.191 105.255 335.375 89.7148 459.392H275.125H276.09H461.5C445.745 335.482 358.506 237.191 323.246 203.212Z" fill="white" stroke="#5A8D8C" stroke-width="2" stroke-miterlimit="10" stroke-linecap="round" stroke-linejoin="round"/>
<path d="M214.358 311.043C214.358 311.043 179.312 392.078 179.312 459.392" stroke="#5A8D8C" stroke-width="2" stroke-miterlimit="10" stroke-linecap="round" stroke-linejoin="round"/>
<path d="M337.928 311.043C337.928 311.043 372.974 392.078 372.974 459.392" stroke="#5A8D8C" stroke-width="2" stroke-miterlimit="10" stroke-linecap="round" stroke-linejoin="round"/>
<circle cx="252.5" cy="249.5" r="4.5" fill="#5A8D8C"/>
<circle cx="308.5" cy="221.5" r="4.5" fill="#5A8D8C"/>
<circle cx="290.5" cy="292.5" r="4.5" fill="#5A8D8C"/>
<circle cx="183.5" cy="310.5" r="4.5" fill="#5A8D8C"/>
<circle cx="201.5" cy="258.5" r="4.5" fill="#5A8D8C"/>
<circle cx="240.5" cy="333.5" r="4.5" fill="#5A8D8C"/>
<circle cx="236.5" cy="292.5" r="4.5" fill="#5A8D8C"/>
<circle cx="317.5" cy="258.5" r="4.5" fill="#5A8D8C"/>
<circle cx="354.5" cy="310.5" r="4.5" fill="#5A8D8C"/>
<circle cx="354.5" cy="274.5" r="4.5" fill="#5A8D8C"/>
<circle cx="236.5" cy="221.5" r="4.5" fill="#5A8D8C"/>
<circle cx="295.5" cy="342.5" r="4.5" fill="#5A8D8C"/>
<circle cx="333.5" cy="376.5" r="4.5" fill="#5A8D8C"/>
<circle cx="268.5" cy="372.5" r="4.5" fill="#5A8D8C"/>
<circle cx="213.5" cy="392.5" r="4.5" fill="#5A8D8C"/>
<circle cx="261.5" cy="425.5" r="4.5" fill="#5A8D8C"/>
<circle cx="222.5" cy="444.5" r="4.5" fill="#5A8D8C"/>
<circle cx="312.5" cy="444.5" r="4.5" fill="#5A8D8C"/>
<circle cx="304.5" cy="397.5" r="4.5" fill="#5A8D8C"/>
<circle cx="350.5" cy="425.5" r="4.5" fill="#5A8D8C"/>
<circle cx="432.5" cy="434.5" r="4.5" fill="#5A8D8C"/>
<circle cx="392.5" cy="329.5" r="4.5" fill="#5A8D8C"/>
<circle cx="427.5" cy="371.5" r="4.5" fill="#5A8D8C"/>
<circle cx="377.5" cy="362.5" r="4.5" fill="#5A8D8C"/>
<circle cx="401.5" cy="401.5" r="4.5" fill="#5A8D8C"/>
<circle cx="147.5" cy="329.5" r="4.5" fill="#5A8D8C"/>
<circle cx="159.5" cy="444.5" r="4.5" fill="#5A8D8C"/>
<circle cx="123.5" cy="416.5" r="4.5" fill="#5A8D8C"/>
<circle cx="179.5" cy="362.5" r="4.5" fill="#5A8D8C"/>
<circle cx="143.5" cy="377.5" r="4.5" fill="#5A8D8C"/>
<circle cx="159.5" cy="405.5" r="4.5" fill="#5A8D8C"/>
<circle cx="102.5" cy="448.5" r="4.5" fill="#5A8D8C"/>
<circle cx="383.5" cy="449.5" r="4.5" fill="#5A8D8C"/>
<circle cx="224" cy="132" r="7" stroke="white" stroke-width="2"/>
<path d="M282.468 42.6581C282.468 42.6581 283.514 67.1508 274.1 74.2683C264.687 81.2812 256.737 75.943 249.729 90.3874C242.721 104.936 229.856 100.54 229.856 100.54L205.799 101.168L219.919 35.2266H327.654V84.5259C327.654 84.6306 284.56 78.6644 282.468 42.6581Z" fill="#446A6F"/>
<path d="M283.5 132C281.5 132 279.333 133.333 278.5 134C278 133.333 276.4 132 274 132C271.6 132 269.667 133.333 269 134C269.5 136.333 272.1 141 278.5 141C284.9 141 287.833 136.333 288.5 134C287.667 133.333 285.5 132 283.5 132Z" fill="#446A6F"/>
<defs>
<radialGradient id="paint0_diamond" cx="0" cy="0" r="1" gradientUnits="userSpaceOnUse" gradientTransform="translate(44.25 253.75) rotate(90) scale(49.25 27.25)">
<stop stop-color="#4B686E"/>
<stop offset="1" stop-color="white" stop-opacity="0"/>
</radialGradient>
<radialGradient id="paint1_diamond" cx="0" cy="0" r="1" gradientUnits="userSpaceOnUse" gradientTransform="translate(375.621 197.5) rotate(90) scale(24.5 10.6211)">
<stop offset="0.646086" stop-color="#4B686E"/>
<stop offset="1" stop-color="white" stop-opacity="0"/>
</radialGradient>
<radialGradient id="paint2_diamond" cx="0" cy="0" r="1" gradientUnits="userSpaceOnUse" gradientTransform="translate(129 201.75) rotate(90) scale(109.25 79.5)">
<stop stop-color="white"/>
<stop offset="1" stop-color="#4B686E"/>
</radialGradient>
<radialGradient id="paint3_diamond" cx="0" cy="0" r="1" gradientUnits="userSpaceOnUse" gradientTransform="translate(117.5 276.305) rotate(90) scale(46.3051 74)">
<stop stop-color="white"/>
<stop offset="1" stop-color="#4B686E"/>
</radialGradient>
</defs>
</svg>
