<svg width="548" height="467" viewBox="0 0 548 467" fill="none" xmlns="http://www.w3.org/2000/svg">
<g clip-path="url(#clip0)">
<path d="M12.7983 336.589C-19.9227 259.787 14.2434 184.428 71.1181 151.748C131.296 117.213 213.46 137.522 267.548 74.9458C321.635 12.3698 354.356 -11.7533 412.779 5.25661C471.202 22.2665 454.068 70.616 454.068 70.616C451.384 73.7087 441.681 73.0902 429.604 70.7191C407.102 70.8222 373.968 71.1314 351.466 71.9562L335.88 93.399C315.132 134.326 361.169 160.717 361.169 160.717C379.336 179.17 404.315 205.252 405.554 243.189C408.651 339.064 328.138 398.856 232.143 356.589C124.174 296.075 50.6804 347.414 39.739 388.238C39.2229 390.3 36.3327 390.609 35.5069 388.547C31.2749 378.341 22.7075 359.991 12.7983 336.589Z" fill="#426262"/>
<path d="M366.641 167.933C366.641 167.933 351.674 184.84 358.796 204.736C365.918 224.633 392.24 322.672 370.15 464.937H56.8748C56.8748 464.937 92.486 224.633 277.561 186.283C277.561 186.283 327.417 173.5 343.003 137.934L366.641 167.933Z" fill="#F9E9D7"/>
<path d="M323.391 162.884C323.391 162.884 330.204 174.224 346.719 178.348L328.243 158.555L323.391 162.884Z" fill="#DDCEC3"/>
<path d="M364.989 183.606C376.757 183.193 396.781 177.317 409.684 157.73L432.393 125.772L459.746 72.6805L370.666 25.9805L349.609 66.0827L335.262 93.4016C334.642 92.8862 334.023 92.4738 333.404 92.1646C326.281 88.4533 317.198 91.7522 313.069 99.6902C308.94 107.628 311.314 116.906 318.437 120.618C319.366 121.03 320.398 121.442 321.224 121.648C319.985 125.875 320.604 132.885 321.74 139.277C324.114 152.576 330.514 164.843 340.732 173.709C344.035 176.596 347.855 179.173 352.087 181.132C356.216 182.884 360.551 183.709 364.989 183.606Z" fill="#F9E9D7"/>
<path d="M335.365 93.8109C335.365 93.8109 355.699 104.842 377.685 93.8109C412.78 76.2855 422.07 128.862 456.649 70.7186C468.004 51.75 366.847 16.6992 366.847 16.6992L334.333 92.78L335.365 93.8109Z" fill="#426262"/>
<path d="M440.134 19.1758C440.134 19.1758 489.68 50.8246 481.113 96.2875C472.546 141.75 432.393 125.771 432.393 125.771C432.393 125.771 432.393 92.7824 454.069 70.721" fill="#426262"/>
<path d="M220.583 167.418C220.583 167.418 193.539 215.767 139.451 225.664C85.3637 235.561 76.7964 283.91 76.7964 283.91" stroke="url(#paint0_radial)"/>
<path d="M362.202 211.488C367.57 219.014 420.006 347.568 493.293 465.091H390.072L331.236 339.321L362.202 211.488Z" fill="#CB563E" stroke="white" stroke-width="2" stroke-miterlimit="10" stroke-linecap="round" stroke-linejoin="round"/>
<path d="M277.561 186.284C277.561 186.284 285.303 184.325 295.522 179.789C304.089 199.892 324.01 214.015 347.338 214.015C352.396 214.015 357.248 213.293 361.893 212.056C367.776 238.035 372.731 267.107 375.621 298.962C381.505 363.393 377.169 419.887 370.047 464.937H56.8748C56.8748 464.937 92.486 224.633 277.561 186.284Z" fill="#CB563E" stroke="white" stroke-width="2" stroke-miterlimit="10" stroke-linecap="round" stroke-linejoin="round"/>
<path d="M356.422 369.579C358.987 369.579 361.067 367.502 361.067 364.94C361.067 362.378 358.987 360.301 356.422 360.301C353.856 360.301 351.777 362.378 351.777 364.94C351.777 367.502 353.856 369.579 356.422 369.579Z" fill="white"/>
<path d="M279.006 214.942C281.572 214.942 283.651 212.865 283.651 210.303C283.651 207.741 281.572 205.664 279.006 205.664C276.441 205.664 274.361 207.741 274.361 210.303C274.361 212.865 276.441 214.942 279.006 214.942Z" fill="white"/>
<path d="M185.075 309.786C187.64 309.786 189.72 307.709 189.72 305.147C189.72 302.585 187.64 300.508 185.075 300.508C182.51 300.508 180.43 302.585 180.43 305.147C180.43 307.709 182.51 309.786 185.075 309.786Z" fill="white"/>
<path d="M218.106 322.157C220.671 322.157 222.751 320.08 222.751 317.518C222.751 314.956 220.671 312.879 218.106 312.879C215.541 312.879 213.461 314.956 213.461 317.518C213.461 320.08 215.541 322.157 218.106 322.157Z" fill="white"/>
<path d="M270.748 343.805C273.314 343.805 275.393 341.728 275.393 339.166C275.393 336.604 273.314 334.527 270.748 334.527C268.183 334.527 266.104 336.604 266.104 339.166C266.104 341.728 268.183 343.805 270.748 343.805Z" fill="white"/>
<path d="M210.88 365.454C213.446 365.454 215.525 363.377 215.525 360.815C215.525 358.253 213.446 356.176 210.88 356.176C208.315 356.176 206.235 358.253 206.235 360.815C206.235 363.377 208.315 365.454 210.88 365.454Z" fill="white"/>
<path d="M169.592 384.013C172.157 384.013 174.237 381.936 174.237 379.373C174.237 376.811 172.157 374.734 169.592 374.734C167.027 374.734 164.947 376.811 164.947 379.373C164.947 381.936 167.027 384.013 169.592 384.013Z" fill="white"/>
<path d="M300.683 447.927C303.248 447.927 305.328 445.85 305.328 443.288C305.328 440.725 303.248 438.648 300.683 438.648C298.117 438.648 296.038 440.725 296.038 443.288C296.038 445.85 298.117 447.927 300.683 447.927Z" fill="white"/>
<path d="M352.293 446.895C354.858 446.895 356.938 444.818 356.938 442.256C356.938 439.694 354.858 437.617 352.293 437.617C349.728 437.617 347.648 439.694 347.648 442.256C347.648 444.818 349.728 446.895 352.293 446.895Z" fill="white"/>
<path d="M97.3373 375.766C99.9027 375.766 101.982 373.689 101.982 371.127C101.982 368.565 99.9027 366.488 97.3373 366.488C94.772 366.488 92.6924 368.565 92.6924 371.127C92.6924 373.689 94.772 375.766 97.3373 375.766Z" fill="white"/>
<path d="M128.304 452.052C130.869 452.052 132.949 449.975 132.949 447.413C132.949 444.85 130.869 442.773 128.304 442.773C125.738 442.773 123.659 444.85 123.659 447.413C123.659 449.975 125.738 452.052 128.304 452.052Z" fill="white"/>
<path d="M74.6288 441.743C77.1942 441.743 79.2738 439.666 79.2738 437.104C79.2738 434.542 77.1942 432.465 74.6288 432.465C72.0635 432.465 69.9839 434.542 69.9839 437.104C69.9839 439.666 72.0635 441.743 74.6288 441.743Z" fill="white"/>
<path d="M335.778 243.809C338.343 243.809 340.423 241.732 340.423 239.17C340.423 236.608 338.343 234.531 335.778 234.531C333.212 234.531 331.133 236.608 331.133 239.17C331.133 241.732 333.212 243.809 335.778 243.809Z" fill="white"/>
<path d="M356.422 317.005C358.987 317.005 361.067 314.928 361.067 312.366C361.067 309.804 358.987 307.727 356.422 307.727C353.856 307.727 351.777 309.804 351.777 312.366C351.777 314.928 353.856 317.005 356.422 317.005Z" fill="white"/>
<path d="M351.261 278.86C353.826 278.86 355.906 276.783 355.906 274.221C355.906 271.659 353.826 269.582 351.261 269.582C348.696 269.582 346.616 271.659 346.616 274.221C346.616 276.783 348.696 278.86 351.261 278.86Z" fill="white"/>
<path d="M292.425 303.602C294.99 303.602 297.07 301.525 297.07 298.963C297.07 296.401 294.99 294.324 292.425 294.324C289.86 294.324 287.78 296.401 287.78 298.963C287.78 301.525 289.86 303.602 292.425 303.602Z" fill="white"/>
<path d="M328.552 339.684C331.118 339.684 333.197 337.607 333.197 335.045C333.197 332.483 331.118 330.406 328.552 330.406C325.987 330.406 323.907 332.483 323.907 335.045C323.907 337.607 325.987 339.684 328.552 339.684Z" fill="white"/>
<path d="M254.233 295.356C256.798 295.356 258.878 293.279 258.878 290.717C258.878 288.155 256.798 286.078 254.233 286.078C251.668 286.078 249.588 288.155 249.588 290.717C249.588 293.279 251.668 295.356 254.233 295.356Z" fill="white"/>
<path d="M265.588 246.903C268.153 246.903 270.233 244.826 270.233 242.264C270.233 239.702 268.153 237.625 265.588 237.625C263.022 237.625 260.943 239.702 260.943 242.264C260.943 244.826 263.022 246.903 265.588 246.903Z" fill="white"/>
<path d="M220.17 224.223C222.736 224.223 224.815 222.146 224.815 219.584C224.815 217.022 222.736 214.945 220.17 214.945C217.605 214.945 215.525 217.022 215.525 219.584C215.525 222.146 217.605 224.223 220.17 224.223Z" fill="white"/>
<path d="M128.304 408.755C130.869 408.755 132.949 406.678 132.949 404.116C132.949 401.554 130.869 399.477 128.304 399.477C125.738 399.477 123.659 401.554 123.659 404.116C123.659 406.678 125.738 408.755 128.304 408.755Z" fill="white"/>
<path d="M139.658 295.356C142.223 295.356 144.303 293.279 144.303 290.717C144.303 288.155 142.223 286.078 139.658 286.078C137.093 286.078 135.013 288.155 135.013 290.717C135.013 293.279 137.093 295.356 139.658 295.356Z" fill="white"/>
<path d="M300.683 260.302C303.248 260.302 305.328 258.225 305.328 255.663C305.328 253.1 303.248 251.023 300.683 251.023C298.117 251.023 296.038 253.1 296.038 255.663C296.038 258.225 298.117 260.302 300.683 260.302Z" fill="white"/>
<path d="M383.259 292.262C385.825 292.262 387.904 290.186 387.904 287.623C387.904 285.061 385.825 282.984 383.259 282.984C380.694 282.984 378.615 285.061 378.615 287.623C378.615 290.186 380.694 292.262 383.259 292.262Z" fill="white"/>
<path d="M385.324 348.962C387.889 348.962 389.969 346.885 389.969 344.323C389.969 341.761 387.889 339.684 385.324 339.684C382.758 339.684 380.679 341.761 380.679 344.323C380.679 346.885 382.758 348.962 385.324 348.962Z" fill="white"/>
<path d="M400.807 323.188C403.372 323.188 405.452 321.111 405.452 318.549C405.452 315.987 403.372 313.91 400.807 313.91C398.241 313.91 396.162 315.987 396.162 318.549C396.162 321.111 398.241 323.188 400.807 323.188Z" fill="white"/>
<path d="M431.773 413.907C434.338 413.907 436.418 411.83 436.418 409.268C436.418 406.706 434.338 404.629 431.773 404.629C429.208 404.629 427.128 406.706 427.128 409.268C427.128 411.83 429.208 413.907 431.773 413.907Z" fill="white"/>
<path d="M417.322 447.927C419.888 447.927 421.967 445.85 421.967 443.288C421.967 440.725 419.888 438.648 417.322 438.648C414.757 438.648 412.677 440.725 412.677 443.288C412.677 445.85 414.757 447.927 417.322 447.927Z" fill="white"/>
<path d="M380.163 434.524C382.728 434.524 384.808 432.447 384.808 429.885C384.808 427.323 382.728 425.246 380.163 425.246C377.597 425.246 375.518 427.323 375.518 429.885C375.518 432.447 377.597 434.524 380.163 434.524Z" fill="white"/>
<path d="M458.611 452.052C461.176 452.052 463.256 449.975 463.256 447.413C463.256 444.85 461.176 442.773 458.611 442.773C456.045 442.773 453.966 444.85 453.966 447.413C453.966 449.975 456.045 452.052 458.611 452.052Z" fill="white"/>
<path d="M388.42 408.755C390.986 408.755 393.065 406.678 393.065 404.116C393.065 401.554 390.986 399.477 388.42 399.477C385.855 399.477 383.775 401.554 383.775 404.116C383.775 406.678 385.855 408.755 388.42 408.755Z" fill="white"/>
<path d="M142.755 346.899C145.32 346.899 147.399 344.822 147.399 342.26C147.399 339.698 145.32 337.621 142.755 337.621C140.189 337.621 138.11 339.698 138.11 342.26C138.11 344.822 140.189 346.899 142.755 346.899Z" fill="white"/>
<path d="M194.365 270.614C196.93 270.614 199.01 268.537 199.01 265.975C199.01 263.413 196.93 261.336 194.365 261.336C191.8 261.336 189.72 263.413 189.72 265.975C189.72 268.537 191.8 270.614 194.365 270.614Z" fill="white"/>
<path d="M172.276 408.239C172.276 408.239 184.662 309.272 246.595 246.387" stroke="white" stroke-width="2" stroke-miterlimit="10" stroke-linecap="round" stroke-linejoin="round"/>
<path d="M289.741 366.59C289.741 366.59 316.475 312.056 320.811 277.211" stroke="white" stroke-width="2" stroke-miterlimit="10" stroke-linecap="round" stroke-linejoin="round"/>
<path d="M171.656 404.209C171.656 404.209 293.354 354.828 429.089 334.52L463.049 364.828C463.049 364.828 285.922 455.135 217.59 463.073C149.361 471.114 171.656 404.209 171.656 404.209Z" fill="#F9E9D7"/>
<path d="M422.07 337.52C441.682 331.334 516.931 311.644 543.871 360.715C543.871 360.715 543.871 360.818 543.974 360.818C544.284 361.437 546.452 365.973 547.897 371.024C548.619 373.498 545.523 375.148 543.768 373.292C540.362 369.478 535.407 364.839 528.388 360.818C513.937 352.571 495.357 378.24 461.501 367.622C461.294 367.519 461.088 367.416 460.882 367.313L421.451 341.746C419.8 340.716 420.212 338.138 422.07 337.52Z" fill="#F9E9D7"/>
<path d="M375.415 152.266C377.479 153.503 378.821 156.493 379.131 157.833C380.163 157.318 382.743 156.699 385.324 158.246C387.904 159.792 388.833 162.575 389.04 163.812C386.769 166.39 380.782 167.421 374.073 163.503C367.363 159.483 367.673 154.947 368.705 151.648C370.047 151.338 373.247 151.029 375.415 152.266Z" fill="#CB563E"/>
<path d="M311.582 131.557C315.724 131.557 319.082 128.206 319.082 124.073C319.082 119.94 315.724 116.59 311.582 116.59C307.439 116.59 304.081 119.94 304.081 124.073C304.081 128.206 307.439 131.557 311.582 131.557Z" stroke="white" stroke-width="3"/>
</g>
<defs>
<radialGradient id="paint0_radial" cx="0" cy="0" r="1" gradientUnits="userSpaceOnUse" gradientTransform="translate(148.689 225.628) rotate(180) scale(65.8221 65.739)">
<stop stop-color="white"/>
<stop offset="1" stop-color="#426262"/>
</radialGradient>
<clipPath id="clip0">
<rect width="548" height="467" fill="white"/>
</clipPath>
</defs>
</svg>
