<svg id="Calque_1" data-name="Calque 1" xmlns="http://www.w3.org/2000/svg" xmlns:xlink="http://www.w3.org/1999/xlink" viewBox="0 0 495.05 231.92"><defs><linearGradient id="Dégradé_sans_nom_26" x1="276.83" y1="73.04" x2="281.07" y2="73.04" gradientUnits="userSpaceOnUse"><stop offset="0" stop-color="#fbc36b"/><stop offset="1" stop-color="#faaf39"/></linearGradient><linearGradient id="Dégradé_sans_nom_26-2" x1="244.59" y1="102.53" x2="279.56" y2="102.53" xlink:href="#Dégradé_sans_nom_26"/></defs><title>Voiture-meuf-covoiturage</title><path d="M460.64,131.42c-27.75-13.88-64.61-26.51-113-58.86,0,0-60-39.48-111.28-38.18-97,2.46-150.16.45-204,89.83-15.91,26.39-17,29.06-18.48,51.18-.71,10.3-.16,19.1,2.19,26.53a61.89,61.89,0,0,1,119.22,33.26c27.35.65,128.87,2.86,223.77,2.25a70.28,70.28,0,0,1-.93-11.41c0-35.77,27-64.76,60.26-64.76s60.27,29,60.27,64.76q0,3-.26,6c15.38-3.8,27-9.73,29.75-18.87a11.09,11.09,0,0,0,.26-2.51c0-.31.12-15.4.14-15.8C510.07,160.1,489.52,145.86,460.64,131.42Z" transform="translate(-13.51 -34.35)" style="fill:#ffc441"/><path d="M396.34,101.23h0A42.86,42.86,0,0,1,367,96.09S290.79,43.36,241.41,40.34l18.27-3.5S312.47,44.62,396.34,101.23Z" transform="translate(-13.51 -34.35)" style="fill:#a6cfe8"/><rect x="45.56" y="125.09" width="26.88" height="21.8" rx="9.64" transform="translate(-38.5 -20.5) rotate(-11.06)" style="fill:#fff"/><rect x="252.49" y="123.78" width="28.33" height="11.95" rx="5.29" transform="translate(-4.3 -51.78) rotate(3.81)" style="fill:#fff"/><path d="M424.18,141.44l15.73,6.45a80,80,0,0,0,27.42,5.94l13.38.49a2.46,2.46,0,0,0,1.52-4.47c-6.13-4.35-16.44-10.37-28.49-12.17a139.93,139.93,0,0,0-28.78-1A2.47,2.47,0,0,0,424.18,141.44Z" transform="translate(-13.51 -34.35)" style="fill:#fff"/><path d="M75.55,156.84A61.91,61.91,0,0,0,16,201.92c8.16,25.85,38.06,35,112.1,33.08l7.12.18a61.88,61.88,0,0,0-59.66-78.34Z" transform="translate(-13.51 -34.35)" style="fill:#ffd985"/><ellipse cx="62.78" cy="186.48" rx="44" ry="45.44" style="fill:#00324e"/><circle cx="62.78" cy="186.48" r="36.02" style="fill:#79787d"/><circle cx="62.04" cy="187.22" r="25.94" style="fill:#d3d3d3"/><path d="M62.51,202.28s-5.84,6.18-7,7.23-2.63-.65-3.28-2.09-2.76-8.38-2-10.95,2.05-1.28,3-.32a4.65,4.65,0,0,0,3.47,1.46,44.41,44.41,0,0,1,6.1.73,2,2,0,0,1,.9,2.78A11.52,11.52,0,0,1,62.51,202.28Z" transform="translate(-13.51 -34.35)" style="fill:#fff"/><path d="M86.14,202.09s-8.19-2.3-9.66-2.83-.65-2.64.32-3.88,6.14-6.34,8.75-6.9,2.08,1.22,1.7,2.53a4.63,4.63,0,0,0,.32,3.76,43.42,43.42,0,0,1,2.19,5.73c.23,1.29-1.37,2.24-2,2.1A11.48,11.48,0,0,1,86.14,202.09Z" transform="translate(-13.51 -34.35)" style="fill:#fff"/><path d="M96.1,219s-2.22-8.21-2.51-9.75,1.93-1.91,3.49-1.71,8.59,2,10.41,4,0,2.42-1.31,2.76a4.63,4.63,0,0,0-3.06,2.2,44.91,44.91,0,0,1-3.8,4.82,2,2,0,0,1-2.85-.68A12,12,0,0,1,96.1,219Z" transform="translate(-13.51 -34.35)" style="fill:#fff"/><path d="M88.46,240.92s5.89-6.12,7.06-7.17,2.63.67,3.26,2.12,2.7,8.4,2,11-2.06,1.26-3,.31a4.67,4.67,0,0,0-3.47-1.5,43.57,43.57,0,0,1-6.08-.77,2,2,0,0,1-.88-2.79A11.52,11.52,0,0,1,88.46,240.92Z" transform="translate(-13.51 -34.35)" style="fill:#fff"/><path d="M65,241s8.18,2.3,9.66,2.83.65,2.64-.33,3.88-6.13,6.35-8.74,6.9-2.08-1.22-1.7-2.53a4.67,4.67,0,0,0-.32-3.76,42.06,42.06,0,0,1-2.19-5.73c-.23-1.29,1.37-2.24,2-2.1A11.48,11.48,0,0,1,65,241Z" transform="translate(-13.51 -34.35)" style="fill:#fff"/><path d="M55,224.13s2.21,8.21,2.51,9.75-1.93,1.91-3.49,1.71-8.6-2-10.41-4,0-2.42,1.3-2.76a4.64,4.64,0,0,0,3.07-2.2,42.34,42.34,0,0,1,3.8-4.81,2,2,0,0,1,2.84.67A11.08,11.08,0,0,1,55,224.13Z" transform="translate(-13.51 -34.35)" style="fill:#fff"/><path d="M62.51,202.28s-5.84,6.18-7,7.23-2.63-.65-3.28-2.09-2.76-8.38-2-10.95,2.05-1.28,3-.32a4.65,4.65,0,0,0,3.47,1.46,44.41,44.41,0,0,1,6.1.73,2,2,0,0,1,.9,2.78A11.52,11.52,0,0,1,62.51,202.28Z" transform="translate(-13.51 -34.35)" style="fill:#fff"/><path d="M25.61,183.94s12.24-27.68,50.67-27.68,56.43,25.83,60.12,55.36" transform="translate(-13.51 -34.35)" style="fill:none;stroke:#fff;stroke-linecap:round;stroke-linejoin:round;stroke-width:3px"/><path d="M418.31,161.26c-33.28,0-60.26,29-60.26,64.76a70.28,70.28,0,0,0,.93,11.41l13.18-.11S438.09,242,478.32,232q.26-3,.26-6C478.58,190.25,451.6,161.26,418.31,161.26Z" transform="translate(-13.51 -34.35)" style="fill:#ffd985"/><ellipse cx="404.81" cy="186.48" rx="44" ry="45.44" style="fill:#00324e"/><circle cx="404.81" cy="186.48" r="36.02" style="fill:#79787d"/><circle cx="404.81" cy="187.22" r="25.94" style="fill:#d3d3d3"/><path d="M405.28,202.28s-5.84,6.18-7,7.23-2.63-.65-3.28-2.09-2.76-8.38-2-10.95,2.05-1.28,3-.32a4.67,4.67,0,0,0,3.48,1.46,44.24,44.24,0,0,1,6.09.73,2,2,0,0,1,.91,2.78A11.52,11.52,0,0,1,405.28,202.28Z" transform="translate(-13.51 -34.35)" style="fill:#fff"/><path d="M428.9,202.09s-8.18-2.3-9.65-2.83-.66-2.64.32-3.88,6.14-6.34,8.74-6.9,2.09,1.22,1.7,2.53a4.64,4.64,0,0,0,.33,3.76,43.24,43.24,0,0,1,2.18,5.73c.24,1.29-1.36,2.24-2,2.1A11.31,11.31,0,0,1,428.9,202.09Z" transform="translate(-13.51 -34.35)" style="fill:#fff"/><path d="M438.87,219s-2.22-8.21-2.52-9.75,1.93-1.91,3.5-1.71,8.59,2,10.41,4,0,2.42-1.31,2.76a4.61,4.61,0,0,0-3.06,2.2,43.66,43.66,0,0,1-3.81,4.82,2,2,0,0,1-2.84-.68A12,12,0,0,1,438.87,219Z" transform="translate(-13.51 -34.35)" style="fill:#fff"/><path d="M431.23,240.92s5.89-6.12,7-7.17,2.63.67,3.27,2.12,2.69,8.4,1.95,11-2.06,1.26-3,.31a4.69,4.69,0,0,0-3.47-1.5,43.73,43.73,0,0,1-6.09-.77,2,2,0,0,1-.88-2.79A11.19,11.19,0,0,1,431.23,240.92Z" transform="translate(-13.51 -34.35)" style="fill:#fff"/><path d="M407.73,241s8.18,2.3,9.65,2.83.66,2.64-.32,3.88-6.14,6.35-8.74,6.9-2.09-1.22-1.7-2.53a4.64,4.64,0,0,0-.33-3.76,44.88,44.88,0,0,1-2.19-5.73c-.23-1.29,1.37-2.24,2-2.1A11.31,11.31,0,0,1,407.73,241Z" transform="translate(-13.51 -34.35)" style="fill:#fff"/><path d="M397.76,224.13s2.22,8.21,2.52,9.75-1.93,1.91-3.5,1.71-8.59-2-10.41-4,0-2.42,1.31-2.76a4.63,4.63,0,0,0,3.06-2.2,43.46,43.46,0,0,1,3.81-4.81,2,2,0,0,1,2.84.67A12,12,0,0,1,397.76,224.13Z" transform="translate(-13.51 -34.35)" style="fill:#fff"/><path d="M405.28,202.28s-5.84,6.18-7,7.23-2.63-.65-3.28-2.09-2.76-8.38-2-10.95,2.05-1.28,3-.32a4.67,4.67,0,0,0,3.48,1.46,44.24,44.24,0,0,1,6.09.73,2,2,0,0,1,.91,2.78A11.52,11.52,0,0,1,405.28,202.28Z" transform="translate(-13.51 -34.35)" style="fill:#fff"/><path d="M89.22,123.36s77.56-1.12,130.24,3.51" transform="translate(-13.51 -34.35)" style="fill:none;stroke:#fff;stroke-linecap:round;stroke-linejoin:round;stroke-width:3px"/><ellipse cx="266.61" cy="129.76" rx="2.19" ry="8.45" transform="translate(105.92 352.81) rotate(-86.19)" style="fill:#d3d3d3"/><path d="M470.09,143.82c-.12,0,0,2.26,0,0Z" transform="translate(-13.51 -34.35)" style="fill:#80bbde"/><path d="M216.41,42.6c-4.44-.36-42-5.5-95.3,9.52-49,13.81-67.81,57.66-67.81,57.66l175.34-1.24Z" transform="translate(-13.51 -34.35)" style="fill:#80bbde"/><path d="M355,99.91c-14.59-10.46-46-32.14-68.69-42C257.42,45.37,224,41.66,221.62,42l12.71,66.62h10.36c-1.22-7.84,4.6-14.65,3.92-17.29-.84-3.27,4.06-5.68,4.48-9.09s-6.44-11.07,4.21-19.35,14.46-3,18.57-1.65,3.61,3.3,3.61,3.3c1.14,1.73,2.95,4.78,2.78,6.56-.24,2.57-.34,2.81,0,3.67a41.13,41.13,0,0,0,2.88,4.13,1,1,0,0,1,0,1.28,2.13,2.13,0,0,1-1.3.61c-.91.17-.53,1.53-.2,1.45a.13.13,0,0,1,.08,0,.13.13,0,0,1,.06,0h0l.05.09s0,0,0,0,0,0,0,.07a1.26,1.26,0,0,1-.1.74.87.87,0,0,1-.29.43,1.06,1.06,0,0,1,.44,1,.86.86,0,0,1-.18.41s-.77.24-.24,1a3.42,3.42,0,0,1,.4,2,1.91,1.91,0,0,1-.85,1.4,10,10,0,0,1-7.64.11.2.2,0,0,0-.27.2c.09,1.12-1.39,7.1-.18,8.77.26.37.6.92,1,1.56,0-.09-.08-.17-.1-.23l-.06-.11.06.11c.06.14.13.27.19.4.49.87,1,1.9,1.54,2.89a59.22,59.22,0,0,0,3.5,5.47h65.75C368,108.64,357.55,101.77,355,99.91Z" transform="translate(-13.51 -34.35)" style="fill:#80bbde"/><path d="M260.75,108.61h5.79a16.81,16.81,0,0,1-1.75-2.7Z" transform="translate(-13.51 -34.35)" style="fill:#f98c8b"/><path d="M260.75,108.61h5.79a16.81,16.81,0,0,1-1.75-2.7Z" transform="translate(-13.51 -34.35)" style="fill:#ffc441"/><path d="M290.17,79.86a4.24,4.24,0,0,1-.23-3.4c.56-1.1-1.06-4.11-2.24-6.08a1.1,1.1,0,0,0,.24-1.21,2.47,2.47,0,0,1-.19-.65c-.24-1.72-3.43-2.34-4.51-3.1s-6.65-2-11.2-1-7.31,2.2-9.83,9.16,3.54,12.39,4.5,13.45a42.54,42.54,0,0,1,3.23,3.9c.78,1.18,1.39,1.8,1.53,1.4a5.47,5.47,0,0,1,.69,2.61,1.46,1.46,0,0,0-.69,1.32s-1.75,2.88-1.51,4.19a.45.45,0,0,0,.5.39c-1.31,1.9-3.23,4.74-3.23,5.15v2.58h22s-3.4-4.74-3.4-5.78c0,0,0-.08,0-.12h0s-.38-2.22-.38-2.95.86-2.15,0-2.9a2.53,2.53,0,0,0-1.39-.44,4.61,4.61,0,0,1,0-.91c.18-1.67,3.3-1.76,4-1.79s1.79.14,2.28-.46a1.88,1.88,0,0,0,0-2.29c-.46-.62-.48-1.08-.22-1.4s.68-.58.65-1-.58-.77-.58-.77l.38-.28c.39-.29-.12-.83-.12-.83s-.61-1.17,0-1.28a7.17,7.17,0,0,0,1.9-.69c.55-.27.56-1.3.56-1.3Z" transform="translate(-13.51 -34.35)" style="fill:#0177be"/><path d="M221.69,42c-.12,0-.05,2.22,0,0Z" transform="translate(-13.51 -34.35)" style="fill:#80bbde"/><path d="M278.91,73.25c.52,0,1.59.47,2.08,0s-1.94-.68-2.54-.63a5.33,5.33,0,0,0-1.54.59l-.08,0h.08C277.24,73.24,278.47,73.21,278.91,73.25Z" transform="translate(-13.51 -34.35)" style="fill:url(#Dégradé_sans_nom_26)"/><path d="M283.83,83.23a1.26,1.26,0,0,0,.09-.74A1.36,1.36,0,0,1,283.83,83.23Z" transform="translate(-13.51 -34.35)" style="fill:#fee7c3"/><path d="M284,84.62a1.2,1.2,0,0,1-.18.41A1,1,0,0,0,284,84.62Z" transform="translate(-13.51 -34.35)" style="fill:#fee7c3"/><path d="M276.07,100.25c.53,1.06,1,2,1.54,2.9C277.1,102.16,276.56,101.13,276.07,100.25Z" transform="translate(-13.51 -34.35)" style="fill:#fee7c3"/><path d="M276.85,72.59a6.2,6.2,0,0,1,.06.62,5.33,5.33,0,0,1,1.54-.59c.6-.05,3.1.09,2.54.63s-1.56,0-2.08,0-1.67,0-2,0c.39,5.58-4.37,10.91-3.29,12.68S273.2,92.6,269.7,94c-2,.81-1.44,3.48-.24,6.22a22.19,22.19,0,0,1,4,2.84c3.72.63,2.91-2,2.5-3-.36-.64-.7-1.19-1-1.56-1.21-1.67.27-7.66.18-8.78a.19.19,0,0,1,.27-.19,10.06,10.06,0,0,0,7.64-.11,2,2,0,0,0,.85-1.4,3.45,3.45,0,0,0-.4-2c-.53-.81.24-1,.24-1a2.11,2.11,0,0,1-2.11-1.21s1.5-1.09,2-1.59c-.33.09-.71-1.28.2-1.45a2.11,2.11,0,0,0,1.3-.61,1,1,0,0,0,0-1.28,40,40,0,0,1-2.88-4.13c-.35-.85-.25-1.1,0-3.67.17-1.77-1.64-4.83-2.78-6.55C279.55,64.54,276,66.77,276.85,72.59Z" transform="translate(-13.51 -34.35)" style="fill:#fee7c3"/><path d="M273.48,103.08a22.19,22.19,0,0,0-4-2.84c.28.65.6,1.3.93,1.93A16.25,16.25,0,0,0,273.48,103.08Z" transform="translate(-13.51 -34.35)" style="fill:#fee7c3"/><path d="M283.69,82.23l.08,0Z" transform="translate(-13.51 -34.35)" style="fill:#f98c8b"/><path d="M283.83,83.23a1.18,1.18,0,0,1-.29.42A.84.84,0,0,0,283.83,83.23Z" transform="translate(-13.51 -34.35)" style="fill:#f98c8b"/><path d="M283.91,82.42a0,0,0,0,1,0,0,.3.3,0,0,1,0,.1S283.92,82.43,283.91,82.42Z" transform="translate(-13.51 -34.35)" style="fill:#f98c8b"/><path d="M284,84.62a1.09,1.09,0,0,0-.44-1A1.17,1.17,0,0,1,284,84.62Z" transform="translate(-13.51 -34.35)" style="fill:#f98c8b"/><path d="M283.8,85a1.2,1.2,0,0,0,.18-.41,1.17,1.17,0,0,0-.44-1,1.18,1.18,0,0,0,.29-.42,1.36,1.36,0,0,0,.09-.74.3.3,0,0,0,0-.1l0-.08,0,0s0,0-.06,0l-.08,0c-.5.5-2,1.59-2,1.59A2.11,2.11,0,0,0,283.8,85Z" transform="translate(-13.51 -34.35)" style="fill:#f98c8b"/><path d="M275.88,99.86c0,.06.06.13.1.23l.09.16Z" transform="translate(-13.51 -34.35)" style="fill:#f98c8b"/><path d="M279.56,107.14l-3.37-1.63c1,1,2.1,2,3.15,3.1h1.77a56.85,56.85,0,0,1-3.5-5.46C278.66,105.22,279.56,107.14,279.56,107.14Z" transform="translate(-13.51 -34.35)" style="fill:#f98c8b"/><path d="M275.88,99.86a1.07,1.07,0,0,1-.06-.12Z" transform="translate(-13.51 -34.35)" style="fill:#f98c8b"/><path d="M272.43,105.8a3.55,3.55,0,0,1,.32,2.81h6.59c-1-1.07-2.11-2.12-3.15-3.1l-5.42-2.62C271.37,104,272,105,272.43,105.8Z" transform="translate(-13.51 -34.35)" style="fill:#f98c8b"/><path d="M273.48,103.08c.87.73,1.78,1.55,2.71,2.43l3.37,1.63s-.9-1.92-1.95-4c-.5-.88-1-1.84-1.54-2.9l-.09-.16C276.39,101.05,277.2,103.71,273.48,103.08Z" transform="translate(-13.51 -34.35)" style="fill:#f98c8b"/><path d="M270.39,102.17c.12.24.25.48.38.72l5.42,2.62c-.93-.88-1.84-1.7-2.71-2.43A16.25,16.25,0,0,1,270.39,102.17Z" transform="translate(-13.51 -34.35)" style="fill:#f98c8b"/><path d="M260.26,103.79c1-.28,2.43.27,4.21,1.39-.93-2.38-.36-4.29,2.62-5.28l.51-12.12a63,63,0,0,0-5.16-5.61c-2.62-2.45-5.74-12.44,1.25-17.87s12.7-2.22,15-1c0,0,.38.51.9,1.29,0,0,.5-1.94-3.61-3.31S268,54.6,257.37,62.88s-3.79,15.94-4.21,19.35-5.32,5.83-4.48,9.09c.68,2.64-5.14,9.46-3.92,17.29h11.13C255.75,106.45,257,104.74,260.26,103.79Z" transform="translate(-13.51 -34.35)" style="fill:#80bbde"/><path d="M260.26,103.79c1-.28,2.43.27,4.21,1.39-.93-2.38-.36-4.29,2.62-5.28l.51-12.12a63,63,0,0,0-5.16-5.61c-2.62-2.45-5.74-12.44,1.25-17.87s12.7-2.22,15-1c0,0,.38.51.9,1.29,0,0,.5-1.94-3.61-3.31S268,54.6,257.37,62.88s-3.79,15.94-4.21,19.35-5.32,5.83-4.48,9.09c.68,2.64-5.14,9.46-3.92,17.29h11.13C255.75,106.45,257,104.74,260.26,103.79Z" transform="translate(-13.51 -34.35)" style="fill:#ffc441"/><path d="M269.92,102.48,267,101.09l0-1.19c-3,1-3.55,2.9-2.62,5.28l.72.47Z" transform="translate(-13.51 -34.35)" style="fill:#f86e6c"/><path d="M269.92,102.48,267,101.09l0-1.19c-3,1-3.55,2.9-2.62,5.28l.72.47Z" transform="translate(-13.51 -34.35)" style="fill:#ffc441"/><path d="M263.69,64.3c-7,5.43-3.87,15.42-1.25,17.87a63,63,0,0,1,5.16,5.61l-.51,12.12.28-.1a3.13,3.13,0,0,1,2.09.44c-1.2-2.74-1.76-5.41.24-6.22,3.5-1.42,5-6.24,3.92-8.09s3.68-7.1,3.29-12.68h-.08l.08,0a6.2,6.2,0,0,0-.06-.62c-.84-5.82,2.7-8,2.7-8-.52-.78-.9-1.29-.9-1.29C276.39,62.08,270.68,58.86,263.69,64.3Z" transform="translate(-13.51 -34.35)" style="fill:#fee7c3"/><path d="M263.69,64.3c-7,5.43-3.87,15.42-1.25,17.87a63,63,0,0,1,5.16,5.61l-.51,12.12.28-.1a3.13,3.13,0,0,1,2.09.44c-1.2-2.74-1.76-5.41.24-6.22,3.5-1.42,5-6.24,3.92-8.09s3.68-7.1,3.29-12.68h-.08l.08,0a6.2,6.2,0,0,0-.06-.62c-.84-5.82,2.7-8,2.7-8-.52-.78-.9-1.29-.9-1.29C276.39,62.08,270.68,58.86,263.69,64.3Z" transform="translate(-13.51 -34.35)" style="fill:#ffc441"/><path d="M269.92,102.48l.47-.31h0c-.33-.63-.65-1.28-.93-1.93a3.13,3.13,0,0,0-2.09-.44l-.28.1,0,1.19Z" transform="translate(-13.51 -34.35)" style="fill:#fee7c3"/><path d="M269.92,102.48l.47-.31h0c-.33-.63-.65-1.28-.93-1.93a3.13,3.13,0,0,0-2.09-.44l-.28.1,0,1.19Z" transform="translate(-13.51 -34.35)" style="fill:#ffc441"/><path d="M264.47,105.18c-1.78-1.12-3.25-1.67-4.21-1.39-3.26.95-4.51,2.66-4.37,4.82h4.86l4-2.7C264.67,105.66,264.57,105.42,264.47,105.18Z" transform="translate(-13.51 -34.35)" style="fill:#f98c8b"/><path d="M264.47,105.18c-1.78-1.12-3.25-1.67-4.21-1.39-3.26.95-4.51,2.66-4.37,4.82h4.86l4-2.7C264.67,105.66,264.57,105.42,264.47,105.18Z" transform="translate(-13.51 -34.35)" style="fill:#ffc441"/><path d="M265.19,105.65l-.72-.47c.1.24.2.48.32.73Z" transform="translate(-13.51 -34.35)" style="fill:#f98c8b"/><path d="M265.19,105.65l-.72-.47c.1.24.2.48.32.73Z" transform="translate(-13.51 -34.35)" style="fill:#ffc441"/><path d="M272.43,105.8c-.46-.79-1.06-1.8-1.66-2.91l-.85-.41-4.73,3.17a46.19,46.19,0,0,1,3.83,3h3.73A3.55,3.55,0,0,0,272.43,105.8Z" transform="translate(-13.51 -34.35)" style="fill:#f98c8b"/><path d="M272.43,105.8c-.46-.79-1.06-1.8-1.66-2.91l-.85-.41-4.73,3.17a46.19,46.19,0,0,1,3.83,3h3.73A3.55,3.55,0,0,0,272.43,105.8Z" transform="translate(-13.51 -34.35)" style="fill:#ffc441"/><path d="M269.92,102.48l.85.41c-.13-.24-.26-.48-.38-.72h0Z" transform="translate(-13.51 -34.35)" style="fill:#f98c8b"/><path d="M269.92,102.48l.85.41c-.13-.24-.26-.48-.38-.72h0Z" transform="translate(-13.51 -34.35)" style="fill:url(#Dégradé_sans_nom_26-2)"/><path d="M264.79,105.91a16.81,16.81,0,0,0,1.75,2.7H269a46.19,46.19,0,0,0-3.83-3Z" transform="translate(-13.51 -34.35)" style="fill:#f98c8b"/><path d="M264.79,105.91a16.81,16.81,0,0,0,1.75,2.7H269a46.19,46.19,0,0,0-3.83-3Z" transform="translate(-13.51 -34.35)" style="fill:#ffc441"/><path d="M221.92,44.1l12.66,64.54h112c21.15,0,10.72-6.66,8.13-8.46C340.2,90.05,308.91,69,286.31,59.49c-28.73-12.15-62-15.75-64.39-15.39C221.8,44.12,221.87,46.25,221.92,44.1Z" transform="translate(-13.51 -34.35)" style="fill:#80bbde;opacity:0.27"/><path d="M358.34,217.77s3.84-57.32,59.07-57.32c38.43,0,56.43,30.05,60.12,59.58" transform="translate(-13.51 -34.35)" style="fill:none;stroke:#fff;stroke-linecap:round;stroke-linejoin:round;stroke-width:3px"/></svg>