<svg xmlns="http://www.w3.org/2000/svg" viewBox="0 0 76.05 77.5"><title>roue seuleFichier 9</title><g id="Calque_2" data-name="Calque 2"><g id="voiture"><ellipse cx="38.02" cy="38.75" rx="38.02" ry="38.75" style="fill:#abaaad"/><ellipse cx="38.02" cy="38.75" rx="31.13" ry="30.72" style="fill:#d3d3d3"/><ellipse cx="38.02" cy="39.38" rx="22.41" ry="22.12" style="fill:#e2e2e2"/><path d="M26.74,23s-5.08,5.23-6.09,6.12-2.27-.56-2.82-1.8-2.34-7.16-1.7-9.35,1.78-1.07,2.62-.26a4,4,0,0,0,3,1.27,38.15,38.15,0,0,1,5.26.66A1.72,1.72,0,0,1,27.78,22,11.69,11.69,0,0,1,26.74,23Z" style="fill:#fff"/><path d="M47.1,22.81s-7-2-8.29-2.43-.58-2.27.24-3.34,5.18-5.47,7.4-6,1.79,1.05,1.48,2.18a4,4,0,0,0,.32,3.24,38.91,38.91,0,0,1,1.93,4.94c.21,1.11-1.15,1.93-1.72,1.81A9.59,9.59,0,0,1,47.1,22.81Z" style="fill:#fff"/><path d="M55.81,37.16s-1.91-7-2.16-8.36,1.65-1.66,3-1.51S64,28.94,65.55,30.6s0,2.08-1.12,2.39a4.08,4.08,0,0,0-2.62,1.93,36.43,36.43,0,0,1-3.25,4.19,1.71,1.71,0,0,1-2.43-.56A8.61,8.61,0,0,1,55.81,37.16Z" style="fill:#fff"/><path d="M49.24,55.8s5.11-5.2,6.12-6.09,2.27.58,2.82,1.81,2.3,7.18,1.66,9.36-1.79,1.07-2.63.25a4,4,0,0,0-3-1.28A37.77,37.77,0,0,1,49,59.16a1.72,1.72,0,0,1-.75-2.38A10.76,10.76,0,0,1,49.24,55.8Z" style="fill:#fff"/><path d="M29,56s7,2,8.29,2.42.58,2.27-.24,3.34-5.18,5.48-7.4,6-1.8-1.06-1.48-2.19a4.06,4.06,0,0,0-.32-3.24,36.85,36.85,0,0,1-1.93-4.93c-.21-1.11,1.14-1.93,1.72-1.81A9.59,9.59,0,0,1,29,56Z" style="fill:#fff"/><path d="M20.24,41.59s1.9,7,2.16,8.37-1.65,1.66-3,1.5-7.36-1.64-8.91-3.31,0-2.08,1.11-2.39a4,4,0,0,0,2.63-1.93,37.13,37.13,0,0,1,3.25-4.18,1.72,1.72,0,0,1,2.43.55A10.32,10.32,0,0,1,20.24,41.59Z" style="fill:#fff"/><path d="M26.74,23s-5.08,5.23-6.09,6.12-2.27-.56-2.82-1.8-2.34-7.16-1.7-9.35,1.78-1.07,2.62-.26a4,4,0,0,0,3,1.27,38.15,38.15,0,0,1,5.26.66A1.72,1.72,0,0,1,27.78,22,11.69,11.69,0,0,1,26.74,23Z" style="fill:#fff"/></g></g></svg>