<svg xmlns="http://www.w3.org/2000/svg" viewBox="0 0 1440 1024"><title>entreprise-sansroute</title><g id="fond"><path d="M2717.21,772.89c-3.53-2.92-40.2-37.21-43.63-40.29-18.29-16.4,91-85.18-.44-74.28-119.74,14.27-193.11,1.25-315.07,5.45-121.06,4.17-262.32,7.18-317,13.59s-154.3,12.5-259.58,15-229.3-52.31-339.57-55.9c-93.24-3-338.7-61-486.93,121.27,0,0,3.29,84.54,252.33,79.27C1454.3,831.81,2891.83,917.16,2717.21,772.89Z" style="fill:#e5eec9"/><path d="M-2137,761.59c5.06-3.41,10-7,14.92-10.54,26.18-19.19,114.11-77.14,244-95.77,156.47-22.46,239.46,24.62,408-8.56,236.14-46.48,316.48-16.12,403.3,8.56,75.59,21.49,289.75,67,440.43,69.9S-296,655.87-162.75,662.05,93.88,544.08,306,757.29c0,0,26.7,122-329.7,115.88C-377.1,867.06-2386.87,930.31-2137,761.59Z" style="fill:#e5eec9"/><path d="M2880,762.72l748,17.95a950.79,950.79,0,0,1,116.45,8.18l587.75,77.8c-203.55,5.33-586,69.43-1050.5,69.51-1537.52.28-4060-83.28-4698.65-80.87-831.57,3.15-1488.29-52.62-1488.29-52.62s313.32-40.58,861.61-36.19,928.24-18,1348.6-10.4S1.94,763.33,1.94,763.33l294-35.39a730.9,730.9,0,0,1,133-3.8l535.63,35.55q15.21,1,30.45,1.21l445,1.82H2880" style="fill:#80bbde"/><path d="M2880,824c-318.24,3.16-845,.08-1438.91,0-1366.48-.2-3084.17,1-3404.51,27.17-142,11.61-696.57-15.57-1004.39,4.4S-3475.7,842.2-3722,835.33s-514.36,41.78-760.61,43.22-593.77-16.38-1086.28-23-946.53-20.19-946.53-20.19c-364.78,0-566.79,107-686.82,117.33v72.2l12963.66,1V868.19c-1.09.11-1428.14-1.64-1429.23-1.54C4232.09,876.37,3007.82,824,2880,824" style="fill:#c5e567"/><rect x="603.56" y="456.88" width="204.12" height="299.24" style="fill:#3d7698"/><rect id="fenetre" x="688.2" y="415.48" width="36.28" height="178.31" transform="translate(1210.98 -201.7) rotate(90)" style="fill:#d1eced"/><rect id="fenetre-2" data-name="fenetre" x="688.2" y="463.99" width="36.28" height="178.31" transform="translate(1259.48 -153.19) rotate(90)" style="fill:#d1eced"/><rect id="fenetre-3" data-name="fenetre" x="688.2" y="512.5" width="36.28" height="178.31" transform="translate(1307.99 -104.69) rotate(90)" style="fill:#d1eced"/><rect id="fenetre-4" data-name="fenetre" x="688.2" y="561.01" width="36.28" height="178.31" transform="translate(1356.5 -56.18) rotate(90)" style="fill:#d1eced"/><rect id="fenetre-5" data-name="fenetre" x="688.2" y="609.52" width="36.28" height="178.31" transform="translate(1405.01 -7.67) rotate(90)" style="fill:#d1eced"/><polygon points="503.32 487.01 503.32 854.65 659.91 854.65 659.91 559.21 503.32 487.01" style="fill:#0177be"/><polygon id="fenetre-6" data-name="fenetre" points="560.68 567.27 560.83 549.31 601.34 549.59 601.19 567.55 560.68 567.27" style="fill:#d1eced"/><polygon id="fenetre-7" data-name="fenetre" points="511.42 566.97 511.57 549.13 552.09 549.41 551.93 567.25 511.42 566.97" style="fill:#d1eced"/><polygon id="fenetre-8" data-name="fenetre" points="560.5 592.62 560.65 574.77 601.17 575.05 601.01 592.9 560.5 592.62" style="fill:#d1eced"/><polygon id="fenetre-9" data-name="fenetre" points="560.32 617.87 560.48 600.02 600.99 600.3 600.84 618.14 560.32 617.87" style="fill:#d1eced"/><polygon id="fenetre-10" data-name="fenetre" points="511.24 592.31 511.4 574.47 551.91 574.75 551.76 592.59 511.24 592.31" style="fill:#d1eced"/><polygon id="fenetre-11" data-name="fenetre" points="511.07 617.56 511.22 599.72 551.73 600 551.58 617.84 511.07 617.56" style="fill:#d1eced"/><polygon id="fenetre-12" data-name="fenetre" points="609.42 567.27 609.58 549.43 649.94 567.55 609.42 567.27" style="fill:#d1eced"/><polygon id="fenetre-13" data-name="fenetre" points="609.25 592.62 609.4 574.77 649.91 575.05 649.76 592.9 609.25 592.62" style="fill:#d1eced"/><polygon id="fenetre-14" data-name="fenetre" points="609.07 617.87 609.23 600.02 649.74 600.3 649.58 618.14 609.07 617.87" style="fill:#d1eced"/><polygon id="fenetre-15" data-name="fenetre" points="560.68 641.49 560.83 623.65 601.34 623.93 601.19 641.77 560.68 641.49" style="fill:#d1eced"/><polygon id="fenetre-16" data-name="fenetre" points="511.42 641.19 511.57 623.35 552.09 623.63 551.93 641.47 511.42 641.19" style="fill:#d1eced"/><polygon id="fenetre-17" data-name="fenetre" points="560.5 666.83 560.65 648.99 601.17 649.27 601.01 667.12 560.5 666.83" style="fill:#d1eced"/><polygon id="fenetre-18" data-name="fenetre" points="560.32 692.08 560.48 674.24 600.99 674.52 600.84 692.36 560.32 692.08" style="fill:#d1eced"/><polygon id="fenetre-19" data-name="fenetre" points="511.24 666.53 511.4 648.69 551.91 648.97 551.76 666.81 511.24 666.53" style="fill:#d1eced"/><polygon id="fenetre-20" data-name="fenetre" points="511.07 691.78 511.22 673.94 551.73 674.22 551.58 692.06 511.07 691.78" style="fill:#d1eced"/><polygon id="fenetre-21" data-name="fenetre" points="609.42 641.49 609.58 623.65 650.09 623.93 649.94 641.77 609.42 641.49" style="fill:#d1eced"/><polygon id="fenetre-22" data-name="fenetre" points="609.25 666.83 609.4 648.99 649.91 649.27 649.76 667.12 609.25 666.83" style="fill:#d1eced"/><polygon id="fenetre-23" data-name="fenetre" points="609.07 692.08 609.23 674.24 649.74 674.52 649.58 692.36 609.07 692.08" style="fill:#d1eced"/><polygon id="fenetre-24" data-name="fenetre" points="560.22 716.73 560.37 698.89 600.88 699.17 600.73 717.01 560.22 716.73" style="fill:#d1eced"/><polygon id="fenetre-25" data-name="fenetre" points="510.96 716.43 511.11 698.59 551.63 698.87 551.47 716.71 510.96 716.43" style="fill:#d1eced"/><polygon id="fenetre-26" data-name="fenetre" points="560.04 742.08 560.19 724.23 600.7 724.51 600.55 742.36 560.04 742.08" style="fill:#d1eced"/><polygon id="fenetre-27" data-name="fenetre" points="559.86 767.32 560.02 749.48 600.53 749.76 600.38 767.6 559.86 767.32" style="fill:#d1eced"/><polygon id="fenetre-28" data-name="fenetre" points="510.78 741.77 510.94 723.93 551.45 724.21 551.29 742.05 510.78 741.77" style="fill:#d1eced"/><polygon id="fenetre-29" data-name="fenetre" points="510.61 767.02 510.76 749.18 551.27 749.46 551.12 767.3 510.61 767.02" style="fill:#d1eced"/><polygon id="fenetre-30" data-name="fenetre" points="608.96 716.73 609.12 698.89 649.63 699.17 649.48 717.01 608.96 716.73" style="fill:#d1eced"/><polygon id="fenetre-31" data-name="fenetre" points="608.78 742.08 608.94 724.23 649.45 724.51 649.3 742.36 608.78 742.08" style="fill:#d1eced"/><polygon id="fenetre-32" data-name="fenetre" points="608.61 767.32 608.76 749.48 649.28 749.76 649.12 767.6 608.61 767.32" style="fill:#d1eced"/><polygon id="fenetre-33" data-name="fenetre" points="560.22 790.95 560.37 773.11 600.88 773.39 600.73 791.23 560.22 790.95" style="fill:#d1eced"/><polygon id="fenetre-34" data-name="fenetre" points="510.96 790.65 511.11 772.81 551.63 773.09 551.47 790.93 510.96 790.65" style="fill:#d1eced"/><polygon id="fenetre-35" data-name="fenetre" points="560.04 816.29 560.19 798.45 600.7 798.73 600.55 816.57 560.04 816.29" style="fill:#d1eced"/><polygon id="fenetre-36" data-name="fenetre" points="559.86 841.54 560.02 823.7 600.53 823.98 600.38 841.82 559.86 841.54" style="fill:#d1eced"/><polygon id="fenetre-37" data-name="fenetre" points="510.78 815.99 510.94 798.15 551.45 798.43 551.29 816.27 510.78 815.99" style="fill:#d1eced"/><polygon id="fenetre-38" data-name="fenetre" points="510.61 841.24 510.76 823.4 551.27 823.68 551.12 841.52 510.61 841.24" style="fill:#d1eced"/><polygon id="fenetre-39" data-name="fenetre" points="608.96 790.95 609.12 773.11 649.63 773.39 649.48 791.23 608.96 790.95" style="fill:#d1eced"/><polygon id="fenetre-40" data-name="fenetre" points="608.78 816.29 608.94 798.45 649.45 798.73 649.3 816.57 608.78 816.29" style="fill:#d1eced"/><polygon id="fenetre-41" data-name="fenetre" points="608.61 841.54 608.76 823.7 649.28 823.98 649.12 841.82 608.61 841.54" style="fill:#d1eced"/><polygon id="fenetre-42" data-name="fenetre" points="560.68 542.53 560.83 524.69 601.19 542.82 560.68 542.53" style="fill:#d1eced"/><polygon id="fenetre-43" data-name="fenetre" points="511.42 542.23 511.63 518.01 552.14 518.28 551.93 542.5 511.42 542.23" style="fill:#d1eced"/><polygon id="fenetre-44" data-name="fenetre" points="511.63 518.01 511.57 500.14 551.93 518.26 511.63 518.01" style="fill:#d1eced"/><rect x="659.91" y="732.99" width="295.54" height="121.66" style="fill:#00324e"/><polygon id="fenetre-45" data-name="fenetre" points="839.98 854.65 840.61 781.83 939.14 782.51 938.52 854.94 839.98 854.65" style="fill:#d1eced"/><rect id="fenetre-46" data-name="fenetre" x="685.03" y="748.54" width="21.62" height="29.33" style="fill:#d1eced"/><rect id="fenetre-47" data-name="fenetre" x="685.03" y="799.68" width="21.62" height="29.33" style="fill:#d1eced"/><rect id="fenetre-48" data-name="fenetre" x="731.53" y="748.54" width="21.62" height="29.33" style="fill:#d1eced"/><rect id="fenetre-49" data-name="fenetre" x="777.92" y="748.54" width="21.62" height="29.33" style="fill:#d1eced"/><rect id="fenetre-50" data-name="fenetre" x="731.53" y="799.68" width="21.62" height="29.33" style="fill:#d1eced"/><rect id="fenetre-51" data-name="fenetre" x="777.92" y="799.68" width="21.62" height="29.33" style="fill:#d1eced"/><line x1="889.56" y1="782.17" x2="889.56" y2="854.65" style="fill:none;stroke:#00324e;stroke-miterlimit:10;stroke-width:0.717778414884681px"/><path d="M98.19,615.35a2.37,2.37,0,0,0-2.11-.11c-.93.4-2.32,1.45-3.43,4.12-1.56,3.76-4.58,10.8.53,13.83a7.3,7.3,0,0,0,8-.32c2.38-1.81,4.14-5.71-.24-14A7.54,7.54,0,0,0,98.19,615.35Z" style="fill:#8dc2e2"/><rect x="96.05" y="632.63" width="1.48" height="11.51" style="fill:#3b6177"/><rect x="61.72" y="576.66" width="46.01" height="119.45" style="fill:#8dc2e2"/><rect id="fenetre-52" data-name="fenetre" x="68.9" y="585.98" width="7.72" height="104.68" style="fill:#cae2f1"/><rect id="fenetre-53" data-name="fenetre" x="80.78" y="585.98" width="7.72" height="104.68" style="fill:#cae2f1"/><rect id="fenetre-54" data-name="fenetre" x="92.66" y="585.98" width="7.72" height="104.68" style="fill:#cae2f1"/><rect x="8.88" y="532.52" width="60.25" height="175.68" style="fill:#8dc2e2"/><rect id="fenetre-55" data-name="fenetre" x="15.01" y="541.17" width="8.41" height="15.05" style="fill:#cae2f1"/><rect id="fenetre-56" data-name="fenetre" x="27.95" y="541.17" width="8.41" height="15.05" style="fill:#cae2f1"/><rect id="fenetre-57" data-name="fenetre" x="40.9" y="541.17" width="8.41" height="15.05" style="fill:#cae2f1"/><rect id="fenetre-58" data-name="fenetre" x="53.84" y="541.17" width="8.41" height="15.05" style="fill:#cae2f1"/><rect id="fenetre-59" data-name="fenetre" x="15.01" y="561.38" width="8.41" height="15.05" style="fill:#cae2f1"/><rect id="fenetre-60" data-name="fenetre" x="27.95" y="561.38" width="8.41" height="15.05" style="fill:#cae2f1"/><rect id="fenetre-61" data-name="fenetre" x="40.9" y="561.38" width="8.41" height="15.05" style="fill:#cae2f1"/><rect id="fenetre-62" data-name="fenetre" x="53.84" y="561.38" width="8.41" height="15.05" style="fill:#cae2f1"/><rect id="fenetre-63" data-name="fenetre" x="15.01" y="581.6" width="8.41" height="15.05" style="fill:#cae2f1"/><rect id="fenetre-64" data-name="fenetre" x="27.95" y="581.6" width="8.41" height="15.05" style="fill:#cae2f1"/><rect id="fenetre-65" data-name="fenetre" x="40.9" y="581.6" width="8.41" height="15.05" style="fill:#cae2f1"/><rect id="fenetre-66" data-name="fenetre" x="53.84" y="581.6" width="8.41" height="15.05" style="fill:#cae2f1"/><rect id="fenetre-67" data-name="fenetre" x="15.01" y="601.82" width="8.41" height="15.05" style="fill:#cae2f1"/><rect id="fenetre-68" data-name="fenetre" x="27.95" y="601.82" width="8.41" height="15.05" style="fill:#cae2f1"/><rect id="fenetre-69" data-name="fenetre" x="40.9" y="601.82" width="8.41" height="15.05" style="fill:#cae2f1"/><rect id="fenetre-70" data-name="fenetre" x="53.84" y="601.82" width="8.41" height="15.05" style="fill:#cae2f1"/><rect id="fenetre-71" data-name="fenetre" x="15.01" y="622.04" width="8.41" height="15.05" style="fill:#cae2f1"/><rect id="fenetre-72" data-name="fenetre" x="27.95" y="622.04" width="8.41" height="15.05" style="fill:#cae2f1"/><rect id="fenetre-73" data-name="fenetre" x="40.9" y="622.04" width="8.41" height="15.05" style="fill:#cae2f1"/><rect id="fenetre-74" data-name="fenetre" x="53.84" y="622.04" width="8.41" height="15.05" style="fill:#cae2f1"/><rect id="fenetre-75" data-name="fenetre" x="15.01" y="642.26" width="8.41" height="15.05" style="fill:#cae2f1"/><rect id="fenetre-76" data-name="fenetre" x="27.95" y="642.26" width="8.41" height="15.05" style="fill:#cae2f1"/><rect id="fenetre-77" data-name="fenetre" x="40.9" y="642.26" width="8.41" height="15.05" style="fill:#cae2f1"/><rect id="fenetre-78" data-name="fenetre" x="53.84" y="642.26" width="8.41" height="15.05" style="fill:#cae2f1"/><rect id="fenetre-79" data-name="fenetre" x="15.01" y="662.48" width="8.41" height="15.05" style="fill:#cae2f1"/><rect id="fenetre-80" data-name="fenetre" x="27.95" y="662.48" width="8.41" height="15.05" style="fill:#cae2f1"/><rect id="fenetre-81" data-name="fenetre" x="40.9" y="662.48" width="8.41" height="15.05" style="fill:#cae2f1"/><rect id="fenetre-82" data-name="fenetre" x="53.84" y="662.48" width="8.41" height="15.05" style="fill:#cae2f1"/><rect id="fenetre-83" data-name="fenetre" x="15.01" y="682.7" width="8.41" height="15.05" style="fill:#cae2f1"/><rect id="fenetre-84" data-name="fenetre" x="27.95" y="682.7" width="8.41" height="15.05" style="fill:#cae2f1"/><rect id="fenetre-85" data-name="fenetre" x="40.9" y="682.7" width="8.41" height="15.05" style="fill:#cae2f1"/><rect id="fenetre-86" data-name="fenetre" x="53.84" y="682.7" width="8.41" height="15.05" style="fill:#cae2f1"/></g><g id="ECOLE"><path d="M202.84,669.49s-6.33-.76-8.48,12.29c-1.93,11.8,3.9,13.9,8.48,13.9Z" style="fill:#9db56b"/><path d="M202.84,669.49s6.34-.76,8.48,12.29c1.94,11.8-3.89,13.9-8.48,13.9Z" style="fill:#b6c891"/><rect x="201.93" y="695.68" width="1.86" height="11.34" style="fill:#5e7e8f"/><path d="M1304.7,624.21s-6.34-.76-8.48,12.29c-1.94,11.8,3.89,13.9,8.48,13.9Z" style="fill:#9db56b"/><path d="M1304.7,624.21s6.33-.76,8.47,12.29c1.94,11.8-3.89,13.9-8.47,13.9Z" style="fill:#b6c891"/><rect x="1303.78" y="650.4" width="1.86" height="11.34" style="fill:#5e7e8f"/><path d="M1371.53,648.22S1361.34,647,1357.9,668c-3.12,19,6.26,22.35,13.63,22.35Z" style="fill:#9db56b"/><path d="M1371.53,648.22s10.19-1.23,13.63,19.75c3.12,19-6.26,22.35-13.63,22.35Z" style="fill:#b6c891"/><rect x="1370.06" y="690.32" width="2.99" height="18.23" style="fill:#5e7e8f"/><path d="M1291.05,644.73s-5.54-.67-7.41,10.74c-1.7,10.32,3.4,12.15,7.41,12.15Z" style="fill:#9db56b"/><path d="M1291.05,644.73s5.54-.67,7.41,10.74c1.69,10.32-3.4,12.15-7.41,12.15Z" style="fill:#b6c891"/><rect x="1290.25" y="667.62" width="1.63" height="9.91" style="fill:#5e7e8f"/><path d="M228.48,669.15s-4.4-.53-5.89,8.54c-1.35,8.21,2.7,9.67,5.89,9.67Z" style="fill:#9db56b"/><path d="M228.48,669.15s4.41-.53,5.9,8.54c1.34,8.21-2.71,9.67-5.9,9.67Z" style="fill:#b6c891"/><rect x="227.85" y="687.36" width="1.29" height="7.88" style="fill:#5e7e8f"/><path d="M1187.7,729.85s-31.07-3.75-41.58,60.27c-9.5,57.88,19.1,68.16,41.58,68.16Z" style="fill:#9db56b"/><path d="M1187.7,729.85s31.08-3.75,41.59,60.27c9.5,57.88-19.1,68.16-41.59,68.16Z" style="fill:#b6c891"/><rect x="1183.21" y="858.28" width="9.12" height="55.62" style="fill:#5e7e8f"/><path d="M228.48,759.89s-31.07-3.75-41.58,60.27c-9.5,57.88,19.1,68.16,41.58,68.16Z" style="fill:#9db56b"/><path d="M228.48,759.89s31.08-3.75,41.58,60.27c9.5,57.88-19.09,68.16-41.58,68.16Z" style="fill:#b6c891"/><rect x="223.99" y="888.32" width="9.12" height="55.62" style="fill:#5e7e8f"/><path d="M292,765.65s-11.48-1.38-15.36,22.27c-3.51,21.39,7.05,25.18,15.36,25.18Z" style="fill:#9db56b"/><path d="M292,765.65s11.48-1.38,15.36,22.27c3.51,21.39-7.05,25.18-15.36,25.18Z" style="fill:#b6c891"/><rect x="290.29" y="813.1" width="3.37" height="20.55" style="fill:#5e7e8f"/><rect x="179.78" y="655.21" width="2.57" height="18.15" style="fill:#5e7e8f"/><polygon points="181.07 609.72 181.07 655.21 166.33 655.21 181.07 609.72" style="fill:#9db56b"/><polyline points="195.81 655.07 181.07 609.58 181.07 655.07" style="fill:#b6c891"/><rect x="1337.6" y="624.77" width="2.57" height="18.15" style="fill:#5e7e8f"/><polygon points="1338.89 579.28 1338.89 624.77 1324.15 624.77 1338.89 579.28" style="fill:#9db56b"/><polyline points="1353.62 624.63 1338.89 579.14 1338.89 624.63" style="fill:#b6c891"/><rect x="1075.83" y="664.14" width="2.57" height="18.15" style="fill:#5e7e8f"/><polygon points="1077.12 618.64 1077.12 664.14 1062.38 664.14 1077.12 618.64" style="fill:#9db56b"/><polyline points="1091.86 664 1077.12 618.5 1077.12 664" style="fill:#b6c891"/><rect x="137.76" y="851.7" width="6.96" height="49.05" style="fill:#5e7e8f"/><polygon points="141.24 728.75 141.24 851.7 101.41 851.7 141.24 728.75" style="fill:#9db56b"/><polyline points="181.07 851.32 141.24 728.37 141.24 851.32" style="fill:#b6c891"/><rect x="1104.77" y="519.34" width="54.17" height="157.94" style="fill:#8dc2e2"/><rect id="fenetre-87" data-name="fenetre" x="1110.29" y="527.12" width="7.56" height="13.53" style="fill:#cae2f1"/><rect id="fenetre-88" data-name="fenetre" x="1121.93" y="527.12" width="7.56" height="13.53" style="fill:#cae2f1"/><rect id="fenetre-89" data-name="fenetre" x="1133.56" y="527.12" width="7.56" height="13.53" style="fill:#cae2f1"/><rect id="fenetre-90" data-name="fenetre" x="1145.2" y="527.12" width="7.56" height="13.53" style="fill:#cae2f1"/><rect id="fenetre-91" data-name="fenetre" x="1110.29" y="545.3" width="7.56" height="13.53" style="fill:#cae2f1"/><rect id="fenetre-92" data-name="fenetre" x="1121.93" y="545.3" width="7.56" height="13.53" style="fill:#cae2f1"/><rect id="fenetre-93" data-name="fenetre" x="1133.56" y="545.3" width="7.56" height="13.53" style="fill:#cae2f1"/><rect id="fenetre-94" data-name="fenetre" x="1145.2" y="545.3" width="7.56" height="13.53" style="fill:#cae2f1"/><rect id="fenetre-95" data-name="fenetre" x="1110.29" y="563.47" width="7.56" height="13.53" style="fill:#cae2f1"/><rect id="fenetre-96" data-name="fenetre" x="1121.93" y="563.47" width="7.56" height="13.53" style="fill:#cae2f1"/><rect id="fenetre-97" data-name="fenetre" x="1133.56" y="563.47" width="7.56" height="13.53" style="fill:#cae2f1"/><rect id="fenetre-98" data-name="fenetre" x="1145.2" y="563.47" width="7.56" height="13.53" style="fill:#cae2f1"/><rect id="fenetre-99" data-name="fenetre" x="1110.29" y="581.65" width="7.56" height="13.53" style="fill:#cae2f1"/><rect id="fenetre-100" data-name="fenetre" x="1121.93" y="581.65" width="7.56" height="13.53" style="fill:#cae2f1"/><rect id="fenetre-101" data-name="fenetre" x="1133.56" y="581.65" width="7.56" height="13.53" style="fill:#cae2f1"/><rect id="fenetre-102" data-name="fenetre" x="1145.2" y="581.65" width="7.56" height="13.53" style="fill:#cae2f1"/><rect id="fenetre-103" data-name="fenetre" x="1110.29" y="599.83" width="7.56" height="13.53" style="fill:#cae2f1"/><rect id="fenetre-104" data-name="fenetre" x="1121.93" y="599.83" width="7.56" height="13.53" style="fill:#cae2f1"/><rect id="fenetre-105" data-name="fenetre" x="1133.56" y="599.83" width="7.56" height="13.53" style="fill:#cae2f1"/><rect id="fenetre-106" data-name="fenetre" x="1145.2" y="599.83" width="7.56" height="13.53" style="fill:#cae2f1"/><rect id="fenetre-107" data-name="fenetre" x="1110.29" y="618" width="7.56" height="13.53" style="fill:#cae2f1"/><rect id="fenetre-108" data-name="fenetre" x="1121.93" y="618" width="7.56" height="13.53" style="fill:#cae2f1"/><rect id="fenetre-109" data-name="fenetre" x="1133.56" y="618" width="7.56" height="13.53" style="fill:#cae2f1"/><rect id="fenetre-110" data-name="fenetre" x="1145.2" y="618" width="7.56" height="13.53" style="fill:#cae2f1"/><rect id="fenetre-111" data-name="fenetre" x="1110.29" y="636.18" width="7.56" height="13.53" style="fill:#cae2f1"/><rect id="fenetre-112" data-name="fenetre" x="1121.93" y="636.18" width="7.56" height="13.53" style="fill:#cae2f1"/><rect id="fenetre-113" data-name="fenetre" x="1133.56" y="636.18" width="7.56" height="13.53" style="fill:#cae2f1"/><rect id="fenetre-114" data-name="fenetre" x="1145.2" y="636.18" width="7.56" height="13.53" style="fill:#cae2f1"/><rect id="fenetre-115" data-name="fenetre" x="1110.29" y="654.36" width="7.56" height="13.53" style="fill:#cae2f1"/><rect id="fenetre-116" data-name="fenetre" x="1121.93" y="654.36" width="7.56" height="13.53" style="fill:#cae2f1"/><rect id="fenetre-117" data-name="fenetre" x="1133.56" y="654.36" width="7.56" height="13.53" style="fill:#cae2f1"/><rect id="fenetre-118" data-name="fenetre" x="1145.2" y="654.36" width="7.56" height="13.53" style="fill:#cae2f1"/><rect x="1218.58" y="517.83" width="54.17" height="157.94" style="fill:#8dc2e2"/><rect id="fenetre-119" data-name="fenetre" x="1224.09" y="525.6" width="7.56" height="13.53" style="fill:#cae2f1"/><rect id="fenetre-120" data-name="fenetre" x="1235.73" y="525.6" width="7.56" height="13.53" style="fill:#cae2f1"/><rect id="fenetre-121" data-name="fenetre" x="1247.37" y="525.6" width="7.56" height="13.53" style="fill:#cae2f1"/><rect id="fenetre-122" data-name="fenetre" x="1259.01" y="525.6" width="7.56" height="13.53" style="fill:#cae2f1"/><rect id="fenetre-123" data-name="fenetre" x="1224.09" y="543.78" width="7.56" height="13.53" style="fill:#cae2f1"/><rect id="fenetre-124" data-name="fenetre" x="1235.73" y="543.78" width="7.56" height="13.53" style="fill:#cae2f1"/><rect id="fenetre-125" data-name="fenetre" x="1247.37" y="543.78" width="7.56" height="13.53" style="fill:#cae2f1"/><rect id="fenetre-126" data-name="fenetre" x="1259.01" y="543.78" width="7.56" height="13.53" style="fill:#cae2f1"/><rect id="fenetre-127" data-name="fenetre" x="1224.09" y="561.96" width="7.56" height="13.53" style="fill:#cae2f1"/><rect id="fenetre-128" data-name="fenetre" x="1235.73" y="561.96" width="7.56" height="13.53" style="fill:#cae2f1"/><rect id="fenetre-129" data-name="fenetre" x="1247.37" y="561.96" width="7.56" height="13.53" style="fill:#cae2f1"/><rect id="fenetre-130" data-name="fenetre" x="1259.01" y="561.96" width="7.56" height="13.53" style="fill:#cae2f1"/><rect id="fenetre-131" data-name="fenetre" x="1224.09" y="580.14" width="7.56" height="13.53" style="fill:#cae2f1"/><rect id="fenetre-132" data-name="fenetre" x="1235.73" y="580.14" width="7.56" height="13.53" style="fill:#cae2f1"/><rect id="fenetre-133" data-name="fenetre" x="1247.37" y="580.14" width="7.56" height="13.53" style="fill:#cae2f1"/><rect id="fenetre-134" data-name="fenetre" x="1259.01" y="580.14" width="7.56" height="13.53" style="fill:#cae2f1"/><rect id="fenetre-135" data-name="fenetre" x="1224.09" y="598.31" width="7.56" height="13.53" style="fill:#cae2f1"/><rect id="fenetre-136" data-name="fenetre" x="1235.73" y="598.31" width="7.56" height="13.53" style="fill:#cae2f1"/><rect id="fenetre-137" data-name="fenetre" x="1247.37" y="598.31" width="7.56" height="13.53" style="fill:#cae2f1"/><rect id="fenetre-138" data-name="fenetre" x="1259.01" y="598.31" width="7.56" height="13.53" style="fill:#cae2f1"/><rect id="fenetre-139" data-name="fenetre" x="1224.09" y="616.49" width="7.56" height="13.53" style="fill:#cae2f1"/><rect id="fenetre-140" data-name="fenetre" x="1235.73" y="616.49" width="7.56" height="13.53" style="fill:#cae2f1"/><rect id="fenetre-141" data-name="fenetre" x="1247.37" y="616.49" width="7.56" height="13.53" style="fill:#cae2f1"/><rect id="fenetre-142" data-name="fenetre" x="1259.01" y="616.49" width="7.56" height="13.53" style="fill:#cae2f1"/><rect id="fenetre-143" data-name="fenetre" x="1224.09" y="634.67" width="7.56" height="13.53" style="fill:#cae2f1"/><rect id="fenetre-144" data-name="fenetre" x="1235.73" y="634.67" width="7.56" height="13.53" style="fill:#cae2f1"/><rect id="fenetre-145" data-name="fenetre" x="1247.37" y="634.67" width="7.56" height="13.53" style="fill:#cae2f1"/><rect id="fenetre-146" data-name="fenetre" x="1259.01" y="634.67" width="7.56" height="13.53" style="fill:#cae2f1"/><rect id="fenetre-147" data-name="fenetre" x="1224.09" y="652.85" width="7.56" height="13.53" style="fill:#cae2f1"/><rect id="fenetre-148" data-name="fenetre" x="1235.73" y="652.85" width="7.56" height="13.53" style="fill:#cae2f1"/><rect id="fenetre-149" data-name="fenetre" x="1247.37" y="652.85" width="7.56" height="13.53" style="fill:#cae2f1"/><rect id="fenetre-150" data-name="fenetre" x="1259.01" y="652.85" width="7.56" height="13.53" style="fill:#cae2f1"/><rect x="1147.39" y="444.76" width="87.21" height="239.71" style="fill:#b0d5eb"/><rect id="fenetre-151" data-name="fenetre" x="1156.27" y="456.56" width="12.18" height="20.54" style="fill:#cae2f1"/><rect id="fenetre-152" data-name="fenetre" x="1175.01" y="456.56" width="12.18" height="20.54" style="fill:#cae2f1"/><rect id="fenetre-153" data-name="fenetre" x="1193.75" y="456.56" width="12.18" height="20.54" style="fill:#cae2f1"/><rect id="fenetre-154" data-name="fenetre" x="1212.49" y="456.56" width="12.18" height="20.54" style="fill:#cae2f1"/><rect id="fenetre-155" data-name="fenetre" x="1156.27" y="484.15" width="12.18" height="20.54" style="fill:#cae2f1"/><rect id="fenetre-156" data-name="fenetre" x="1175.01" y="484.15" width="12.18" height="20.54" style="fill:#cae2f1"/><rect id="fenetre-157" data-name="fenetre" x="1193.75" y="484.15" width="12.18" height="20.54" style="fill:#cae2f1"/><rect id="fenetre-158" data-name="fenetre" x="1212.49" y="484.15" width="12.18" height="20.54" style="fill:#cae2f1"/><rect id="fenetre-159" data-name="fenetre" x="1156.27" y="511.74" width="12.18" height="20.54" style="fill:#cae2f1"/><rect id="fenetre-160" data-name="fenetre" x="1175.01" y="511.74" width="12.18" height="20.54" style="fill:#cae2f1"/><rect id="fenetre-161" data-name="fenetre" x="1193.75" y="511.74" width="12.18" height="20.54" style="fill:#cae2f1"/><rect id="fenetre-162" data-name="fenetre" x="1212.49" y="511.74" width="12.18" height="20.54" style="fill:#cae2f1"/><rect id="fenetre-163" data-name="fenetre" x="1156.27" y="539.33" width="12.18" height="20.54" style="fill:#cae2f1"/><rect id="fenetre-164" data-name="fenetre" x="1175.01" y="539.33" width="12.18" height="20.54" style="fill:#cae2f1"/><rect id="fenetre-165" data-name="fenetre" x="1193.75" y="539.33" width="12.18" height="20.54" style="fill:#cae2f1"/><rect id="fenetre-166" data-name="fenetre" x="1212.49" y="539.33" width="12.18" height="20.54" style="fill:#cae2f1"/><rect id="fenetre-167" data-name="fenetre" x="1156.27" y="566.91" width="12.18" height="20.54" style="fill:#cae2f1"/><rect id="fenetre-168" data-name="fenetre" x="1175.01" y="566.91" width="12.18" height="20.54" style="fill:#cae2f1"/><rect id="fenetre-169" data-name="fenetre" x="1193.75" y="566.91" width="12.18" height="20.54" style="fill:#cae2f1"/><rect id="fenetre-170" data-name="fenetre" x="1212.49" y="566.91" width="12.18" height="20.54" style="fill:#cae2f1"/><rect id="fenetre-171" data-name="fenetre" x="1156.27" y="594.5" width="12.18" height="20.54" style="fill:#cae2f1"/><rect id="fenetre-172" data-name="fenetre" x="1175.01" y="594.5" width="12.18" height="20.54" style="fill:#cae2f1"/><rect id="fenetre-173" data-name="fenetre" x="1193.75" y="594.5" width="12.18" height="20.54" style="fill:#cae2f1"/><rect id="fenetre-174" data-name="fenetre" x="1212.49" y="594.5" width="12.18" height="20.54" style="fill:#cae2f1"/><rect id="fenetre-175" data-name="fenetre" x="1156.27" y="622.09" width="12.18" height="20.54" style="fill:#cae2f1"/><rect id="fenetre-176" data-name="fenetre" x="1175.01" y="622.09" width="12.18" height="20.54" style="fill:#cae2f1"/><rect id="fenetre-177" data-name="fenetre" x="1193.75" y="622.09" width="12.18" height="20.54" style="fill:#cae2f1"/><rect id="fenetre-178" data-name="fenetre" x="1212.49" y="622.09" width="12.18" height="20.54" style="fill:#cae2f1"/><rect id="fenetre-179" data-name="fenetre" x="1156.27" y="649.68" width="12.18" height="20.54" style="fill:#cae2f1"/><rect id="fenetre-180" data-name="fenetre" x="1175.01" y="649.68" width="12.18" height="20.54" style="fill:#cae2f1"/><rect id="fenetre-181" data-name="fenetre" x="1193.75" y="649.68" width="12.18" height="20.54" style="fill:#cae2f1"/><rect id="fenetre-182" data-name="fenetre" x="1212.49" y="649.68" width="12.18" height="20.54" style="fill:#cae2f1"/></g><g id="bateau"><line x1="20.51" y1="786.38" x2="99.02" y2="786.38" style="fill:none;stroke:#f2f2f2;stroke-miterlimit:10"/><line x1="23.58" y1="791.45" x2="75.08" y2="791.45" style="fill:none;stroke:#f2f2f2;stroke-miterlimit:10"/><line x1="33.24" y1="780.62" x2="70.71" y2="780.62" style="fill:none;stroke:#f2f2f2;stroke-miterlimit:10"/><line x1="402.19" y1="749.83" x2="480.7" y2="749.83" style="fill:none;stroke:#f2f2f2;stroke-miterlimit:10"/><line x1="405.27" y1="754.9" x2="456.76" y2="754.9" style="fill:none;stroke:#f2f2f2;stroke-miterlimit:10"/><line x1="414.92" y1="744.07" x2="452.39" y2="744.07" style="fill:none;stroke:#f2f2f2;stroke-miterlimit:10"/><line x1="1274.3" y1="803.53" x2="1352.81" y2="803.53" style="fill:none;stroke:#f2f2f2;stroke-miterlimit:10"/><line x1="1277.38" y1="808.6" x2="1328.87" y2="808.6" style="fill:none;stroke:#f2f2f2;stroke-miterlimit:10"/><line x1="1287.03" y1="797.77" x2="1324.51" y2="797.77" style="fill:none;stroke:#f2f2f2;stroke-miterlimit:10"/></g><g id="borne"><rect x="1.94" y="0.57" width="1440" height="1024" style="fill:none"/></g></svg>