<svg xmlns="http://www.w3.org/2000/svg" viewBox="0 0 1440 1024"><title>FOND ENTREPRISE</title><g id="fond"><path d="M1302,656.5c-93.14,5.28-179.32-100.87-327.56,81.44,0,0-18.66,104.36,230.37,99.09,46.67-1,122.38,1.26,235.17,4.58-1.84-53.91.24-109.33-.41-163.24C1386.93,664.86,1345.81,654,1302,656.5Z" style="fill:#b3c58c"/><rect x="1267.51" y="526.38" width="83.39" height="205.81" style="fill:#b3d6eb"/><rect id="fenetre" x="1276" y="536.51" width="11.65" height="17.64" style="fill:#d1eced"/><rect id="fenetre-2" data-name="fenetre" x="1293.92" y="536.51" width="11.65" height="17.64" style="fill:#d1eced"/><rect id="fenetre-3" data-name="fenetre" x="1311.83" y="536.51" width="11.65" height="17.64" style="fill:#d1eced"/><rect id="fenetre-4" data-name="fenetre" x="1329.75" y="536.51" width="11.65" height="17.64" style="fill:#d1eced"/><rect id="fenetre-5" data-name="fenetre" x="1276" y="560.2" width="11.65" height="17.64" style="fill:#d1eced"/><rect id="fenetre-6" data-name="fenetre" x="1293.92" y="560.2" width="11.65" height="17.64" style="fill:#d1eced"/><rect id="fenetre-7" data-name="fenetre" x="1311.83" y="560.2" width="11.65" height="17.64" style="fill:#d1eced"/><rect id="fenetre-8" data-name="fenetre" x="1329.75" y="560.2" width="11.65" height="17.64" style="fill:#d1eced"/><rect id="fenetre-9" data-name="fenetre" x="1276" y="583.89" width="11.65" height="17.64" style="fill:#d1eced"/><rect id="fenetre-10" data-name="fenetre" x="1293.92" y="583.89" width="11.65" height="17.64" style="fill:#d1eced"/><rect id="fenetre-11" data-name="fenetre" x="1311.83" y="583.89" width="11.65" height="17.64" style="fill:#d1eced"/><rect id="fenetre-12" data-name="fenetre" x="1329.75" y="583.89" width="11.65" height="17.64" style="fill:#d1eced"/><rect id="fenetre-13" data-name="fenetre" x="1276" y="607.58" width="11.65" height="17.64" style="fill:#d1eced"/><rect id="fenetre-14" data-name="fenetre" x="1293.92" y="607.58" width="11.65" height="17.64" style="fill:#d1eced"/><rect id="fenetre-15" data-name="fenetre" x="1311.83" y="607.58" width="11.65" height="17.64" style="fill:#d1eced"/><rect id="fenetre-16" data-name="fenetre" x="1329.75" y="607.58" width="11.65" height="17.64" style="fill:#d1eced"/><rect id="fenetre-17" data-name="fenetre" x="1276" y="631.26" width="11.65" height="17.64" style="fill:#d1eced"/><rect id="fenetre-18" data-name="fenetre" x="1293.92" y="631.26" width="11.65" height="17.64" style="fill:#d1eced"/><rect id="fenetre-19" data-name="fenetre" x="1311.83" y="631.26" width="11.65" height="17.64" style="fill:#d1eced"/><rect id="fenetre-20" data-name="fenetre" x="1329.75" y="631.26" width="11.65" height="17.64" style="fill:#d1eced"/><rect id="fenetre-21" data-name="fenetre" x="1276" y="654.95" width="11.65" height="17.64" style="fill:#d1eced"/><rect id="fenetre-22" data-name="fenetre" x="1293.92" y="654.95" width="11.65" height="17.64" style="fill:#d1eced"/><rect id="fenetre-23" data-name="fenetre" x="1311.83" y="654.95" width="11.65" height="17.64" style="fill:#d1eced"/><rect id="fenetre-24" data-name="fenetre" x="1329.75" y="654.95" width="11.65" height="17.64" style="fill:#d1eced"/><rect id="fenetre-25" data-name="fenetre" x="1276" y="678.64" width="11.65" height="17.64" style="fill:#d1eced"/><rect id="fenetre-26" data-name="fenetre" x="1293.92" y="678.64" width="11.65" height="17.64" style="fill:#d1eced"/><rect id="fenetre-27" data-name="fenetre" x="1311.83" y="678.64" width="11.65" height="17.64" style="fill:#d1eced"/><rect id="fenetre-28" data-name="fenetre" x="1329.75" y="678.64" width="11.65" height="17.64" style="fill:#d1eced"/><rect id="fenetre-29" data-name="fenetre" x="1276" y="702.32" width="11.65" height="17.64" style="fill:#d1eced"/><rect id="fenetre-30" data-name="fenetre" x="1293.92" y="702.32" width="11.65" height="17.64" style="fill:#d1eced"/><rect id="fenetre-31" data-name="fenetre" x="1311.83" y="702.32" width="11.65" height="17.64" style="fill:#d1eced"/><rect id="fenetre-32" data-name="fenetre" x="1329.75" y="702.32" width="11.65" height="17.64" style="fill:#d1eced"/><path d="M-.28,873.33q9.81.13,19.22.13c329.12-.08,284.58-116.17,284.58-116.17C178.17,631.31,83.82,623.11.1,636.22" style="fill:#c0cfa0"/><path d="M.11,857.45c272.26-.77,537.75-3.88,865-12.44,311.38-8.15,504.48-24.93,574.89-42V775.3c-89.33-18.71-379-30.6-885.58-20.18C308.64,760.18,147,762.58-.28,763.33" style="fill:#80bbde"/><path d="M858.61,723.66c-207.6,15.93-348.2,65.48-390,81.89-7.85,3.07-91.77,37.37-99.85,40.29-177.31,64,355.82,82.78,1071,84.35.3-69.66,1.39-138.23,0-207.7C1210.1,739.19,1088.9,706,858.61,723.66Z" style="fill:#c0cfa0"/><path d="M1440,853.29C1049.92,834.12,534.82,823.68,0,820.42c-.52,26.58.92,53.77,0,80.49v31.3c-.49,39.52-.24,52.27,0,91.79H1440C1438.3,967.25,1442,910,1440,853.29Z" style="fill:#b7df41"/><rect x="127.09" y="784.51" width="7.19" height="60.01" style="fill:#3b6177"/><path d="M137.46,692.69a11,11,0,0,0-10.23-.58c-4.54,2.12-11.26,7.55-16.65,21.5-7.56,19.58-22.2,56.29,2.58,72.06,12,7.66,27.91,7.42,38.94-1.63,11.52-9.47,20.05-29.77-1.16-73.08C150.94,711,146.34,697.91,137.46,692.69Z" style="fill:#afcc5a"/><rect x="963.3" y="811.2" width="7.19" height="60.01" style="fill:#3b6177"/><path d="M973.67,719.38a10.93,10.93,0,0,0-10.22-.58c-4.54,2.12-11.26,7.55-16.65,21.5-7.57,19.58-22.21,56.29,2.57,72.06,12,7.66,27.92,7.42,38.94-1.63,11.53-9.47,20.06-29.77-1.15-73.08C987.16,737.65,982.55,724.6,973.67,719.38Z" style="fill:#afcc5a"/><rect x="517.38" y="370.67" width="285.85" height="419.06" style="fill:#004b78"/><rect id="fenetre-33" data-name="fenetre" x="635.9" y="312.7" width="50.81" height="249.7" transform="translate(1098.86 -223.76) rotate(90)" style="fill:#d1eced"/><rect id="fenetre-34" data-name="fenetre" x="635.9" y="380.63" width="50.81" height="249.7" transform="translate(1166.79 -155.82) rotate(90)" style="fill:#d1eced"/><rect id="fenetre-35" data-name="fenetre" x="635.9" y="448.56" width="50.81" height="249.7" transform="translate(1234.72 -87.89) rotate(90)" style="fill:#d1eced"/><rect id="fenetre-36" data-name="fenetre" x="635.9" y="516.49" width="50.81" height="249.7" transform="translate(1302.65 -19.96) rotate(90)" style="fill:#d1eced"/><rect id="fenetre-37" data-name="fenetre" x="635.9" y="584.43" width="50.81" height="249.7" transform="translate(1370.58 47.97) rotate(90)" style="fill:#d1eced"/><polygon points="376.99 390.87 376.99 927.71 596.29 927.71 596.29 491.98 376.99 390.87" style="fill:#69afd9"/><rect x="596.29" y="757.34" width="413.87" height="170.37" style="fill:#00324e"/><polygon id="fenetre-38" data-name="fenetre" points="457.32 525.27 457.54 500.28 514.27 500.68 514.05 525.66 457.32 525.27" style="fill:#d1eced"/><polygon id="fenetre-39" data-name="fenetre" points="388.34 524.84 388.56 499.86 445.29 500.25 445.07 525.24 388.34 524.84" style="fill:#d1eced"/><polygon id="fenetre-40" data-name="fenetre" points="457.07 560.76 457.29 535.77 514.02 536.16 513.81 561.15 457.07 560.76" style="fill:#d1eced"/><polygon id="fenetre-41" data-name="fenetre" points="456.83 596.12 457.04 571.13 513.78 571.52 513.56 596.51 456.83 596.12" style="fill:#d1eced"/><polygon id="fenetre-42" data-name="fenetre" points="388.09 560.33 388.31 535.35 445.04 535.74 444.83 560.73 388.09 560.33" style="fill:#d1eced"/><polygon id="fenetre-43" data-name="fenetre" points="387.85 595.69 388.06 570.71 444.8 571.1 444.58 596.08 387.85 595.69" style="fill:#d1eced"/><polygon id="fenetre-44" data-name="fenetre" points="525.59 525.27 525.8 500.28 582.54 500.68 582.32 525.66 525.59 525.27" style="fill:#d1eced"/><polygon id="fenetre-45" data-name="fenetre" points="525.34 560.76 525.55 535.77 582.29 536.16 582.07 561.15 525.34 560.76" style="fill:#d1eced"/><polygon id="fenetre-46" data-name="fenetre" points="525.09 596.12 525.31 571.13 582.04 571.52 581.83 596.51 525.09 596.12" style="fill:#d1eced"/><polygon id="fenetre-47" data-name="fenetre" points="457.32 629.2 457.54 604.22 514.27 604.61 514.05 629.6 457.32 629.2" style="fill:#d1eced"/><polygon id="fenetre-48" data-name="fenetre" points="388.34 628.78 388.56 603.79 445.29 604.19 445.07 629.17 388.34 628.78" style="fill:#d1eced"/><polygon id="fenetre-49" data-name="fenetre" points="457.07 664.69 457.29 639.71 514.02 640.1 513.81 665.09 457.07 664.69" style="fill:#d1eced"/><polygon id="fenetre-50" data-name="fenetre" points="456.83 700.05 457.04 675.07 513.78 675.46 513.56 700.44 456.83 700.05" style="fill:#d1eced"/><polygon id="fenetre-51" data-name="fenetre" points="388.09 664.27 388.31 639.28 445.04 639.68 444.83 664.66 388.09 664.27" style="fill:#d1eced"/><polygon id="fenetre-52" data-name="fenetre" points="387.85 699.63 388.06 674.64 444.8 675.03 444.58 700.02 387.85 699.63" style="fill:#d1eced"/><polygon id="fenetre-53" data-name="fenetre" points="525.59 629.2 525.8 604.22 582.54 604.61 582.32 629.6 525.59 629.2" style="fill:#d1eced"/><polygon id="fenetre-54" data-name="fenetre" points="525.34 664.69 525.55 639.71 582.29 640.1 582.07 665.09 525.34 664.69" style="fill:#d1eced"/><polygon id="fenetre-55" data-name="fenetre" points="525.09 700.05 525.31 675.07 582.04 675.46 581.83 700.44 525.09 700.05" style="fill:#d1eced"/><polygon id="fenetre-56" data-name="fenetre" points="456.67 734.57 456.89 709.59 513.62 709.98 513.41 734.96 456.67 734.57" style="fill:#d1eced"/><polygon id="fenetre-57" data-name="fenetre" points="387.69 734.15 387.91 709.16 444.64 709.55 444.43 734.54 387.69 734.15" style="fill:#d1eced"/><polygon id="fenetre-58" data-name="fenetre" points="456.43 770.06 456.64 745.08 513.38 745.47 513.16 770.45 456.43 770.06" style="fill:#d1eced"/><polygon id="fenetre-59" data-name="fenetre" points="456.18 805.42 456.39 780.43 513.13 780.83 512.91 805.81 456.18 805.42" style="fill:#d1eced"/><polygon id="fenetre-60" data-name="fenetre" points="387.45 769.64 387.66 744.65 444.4 745.04 444.18 770.03 387.45 769.64" style="fill:#d1eced"/><polygon id="fenetre-61" data-name="fenetre" points="387.2 804.99 387.42 780.01 444.15 780.4 443.93 805.39 387.2 804.99" style="fill:#d1eced"/><polygon id="fenetre-62" data-name="fenetre" points="524.94 734.57 525.15 709.59 581.89 709.98 581.67 734.96 524.94 734.57" style="fill:#d1eced"/><polygon id="fenetre-63" data-name="fenetre" points="524.69 770.06 524.91 745.08 581.64 745.47 581.42 770.45 524.69 770.06" style="fill:#d1eced"/><polygon id="fenetre-64" data-name="fenetre" points="524.45 805.42 524.66 780.43 581.39 780.83 581.18 805.81 524.45 805.42" style="fill:#d1eced"/><polygon id="fenetre-65" data-name="fenetre" points="456.67 838.51 456.89 813.52 513.62 813.91 513.41 838.9 456.67 838.51" style="fill:#d1eced"/><polygon id="fenetre-66" data-name="fenetre" points="387.69 838.08 387.91 813.1 444.64 813.49 444.43 838.48 387.69 838.08" style="fill:#d1eced"/><polygon id="fenetre-67" data-name="fenetre" points="456.43 874 456.64 849.01 513.38 849.4 513.16 874.39 456.43 874" style="fill:#d1eced"/><polygon id="fenetre-68" data-name="fenetre" points="456.18 909.35 456.39 884.37 513.13 884.76 512.91 909.75 456.18 909.35" style="fill:#d1eced"/><polygon id="fenetre-69" data-name="fenetre" points="387.45 873.57 387.66 848.59 444.4 848.98 444.18 873.96 387.45 873.57" style="fill:#d1eced"/><polygon id="fenetre-70" data-name="fenetre" points="387.2 908.93 387.42 883.95 444.15 884.34 443.93 909.32 387.2 908.93" style="fill:#d1eced"/><polygon id="fenetre-71" data-name="fenetre" points="524.94 838.51 525.15 813.52 581.89 813.91 581.67 838.9 524.94 838.51" style="fill:#d1eced"/><polygon id="fenetre-72" data-name="fenetre" points="524.69 874 524.91 849.01 581.64 849.4 581.42 874.39 524.69 874" style="fill:#d1eced"/><polygon id="fenetre-73" data-name="fenetre" points="524.45 909.35 524.66 884.37 581.39 884.76 581.18 909.75 524.45 909.35" style="fill:#d1eced"/><polygon id="fenetre-74" data-name="fenetre" points="457.32 490.62 457.54 465.64 514.27 466.03 514.05 491.02 457.32 490.62" style="fill:#d1eced"/><polygon id="fenetre-75" data-name="fenetre" points="388.34 490.2 388.56 465.21 445.29 465.61 445.07 490.59 388.34 490.2" style="fill:#d1eced"/><polygon id="fenetre-76" data-name="fenetre" points="388.34 456.23 388.56 431.25 445.29 431.64 445.07 456.63 388.34 456.23" style="fill:#d1eced"/><polygon id="fenetre-77" data-name="fenetre" points="848.46 927.16 849.34 825.74 987.32 826.69 986.45 928.12 848.46 927.16" style="fill:#d1eced"/><rect id="fenetre-78" data-name="fenetre" x="631.47" y="779.11" width="30.28" height="41.07" style="fill:#d1eced"/><rect id="fenetre-79" data-name="fenetre" x="631.47" y="850.72" width="30.28" height="41.07" style="fill:#d1eced"/><rect id="fenetre-80" data-name="fenetre" x="696.59" y="779.11" width="30.28" height="41.07" style="fill:#d1eced"/><rect id="fenetre-81" data-name="fenetre" x="761.55" y="779.11" width="30.28" height="41.07" style="fill:#d1eced"/><rect id="fenetre-82" data-name="fenetre" x="696.59" y="850.72" width="30.28" height="41.07" style="fill:#d1eced"/><rect id="fenetre-83" data-name="fenetre" x="761.55" y="850.72" width="30.28" height="41.07" style="fill:#d1eced"/><line x1="917.89" y1="826.21" x2="917.89" y2="927.71" style="fill:none;stroke:#00324e;stroke-miterlimit:10;stroke-width:0.717778414884681px"/></g><g id="ECOLE"><path d="M1440,659.39c-15.48,40.43-36.14,101.11.07,135.74" style="fill:#88b309"/></g><g id="arbre"><rect x="1165.19" y="613.28" width="3.01" height="25.13" style="fill:#5e7e8f"/><circle cx="1166.7" cy="599.55" r="16.95" style="fill:#9db56b"/></g></svg>