<?xml version="1.0" encoding="utf-8"?>
<!-- Generator: Adobe Illustrator 23.1.1, SVG Export Plug-In . SVG Version: 6.00 Build 0)  -->
<svg version="1.1" xmlns="http://www.w3.org/2000/svg" xmlns:xlink="http://www.w3.org/1999/xlink" x="0px" y="0px"
	 viewBox="0 0 2932.4 2549.3" style="enable-background:new 0 0 2932.4 2549.3;" xml:space="preserve">
<style type="text/css">
	.st0{fill:#0E4138;}
	.st1{fill:#42B06F;stroke:#302E2F;stroke-width:3;stroke-miterlimit:10;}
	.st2{fill:#42B06F;stroke:#302E2F;stroke-width:3;stroke-linecap:round;stroke-miterlimit:10;}
	.st3{fill:none;stroke:#302E2F;stroke-width:3;stroke-linecap:round;stroke-miterlimit:10;}
	.st4{fill:#0E4138;stroke:#302E2F;stroke-width:3;stroke-miterlimit:10;}
	.st5{display:none;fill:#0E4138;stroke:#302E2F;stroke-width:3;stroke-linejoin:round;stroke-miterlimit:10;}
	.st6{fill:#0E4138;stroke:#302E2F;stroke-width:3;stroke-linejoin:round;stroke-miterlimit:10;}
	.st7{fill:#FFFFFF;stroke:#302E2F;stroke-width:3;stroke-miterlimit:10;}
	.st8{fill:#FFFFFF;stroke:#302E2F;stroke-width:3;stroke-linecap:round;stroke-miterlimit:10;}
	.st9{display:none;fill:#179389;stroke:#302E2F;stroke-width:2;stroke-miterlimit:10;}
	.st10{fill:#179389;stroke:#302E2F;stroke-width:3;stroke-miterlimit:10;}
	.st11{fill:#179389;stroke:#302E2F;stroke-width:3;stroke-linecap:round;stroke-miterlimit:10;}
	.st12{fill:#FFFFFF;stroke:#302E2F;stroke-width:3;stroke-linejoin:round;stroke-miterlimit:10;}
	.st13{fill:#FFFFFF;stroke:#302E2F;stroke-width:2;stroke-linejoin:round;stroke-miterlimit:10;}
	.st14{fill:#FFFFFF;}
	.st15{fill:none;stroke:#302E2F;stroke-width:2;stroke-miterlimit:10;}
	.st16{fill:#0E4138;stroke:#302E2F;stroke-width:2;stroke-linecap:round;stroke-linejoin:round;stroke-miterlimit:10;}
	.st17{fill:#FFFFFF;stroke:#302E2F;stroke-width:2;stroke-linecap:round;stroke-miterlimit:10;}
	.st18{fill:#42B06F;stroke:#302E2F;stroke-width:2;stroke-linecap:round;stroke-linejoin:round;stroke-miterlimit:10;}
	.st19{clip-path:url(#SVGID_2_);fill:#179389;stroke:#302E2F;stroke-width:3;stroke-miterlimit:10;}
	.st20{fill:#179389;stroke:#302E2F;stroke-width:3;stroke-linejoin:round;stroke-miterlimit:10;}
	.st21{fill:#302E2F;stroke:#302E2F;stroke-width:3;stroke-linejoin:round;stroke-miterlimit:10;}
	.st22{fill:#FFFFFF;stroke:#302E2F;stroke-width:3;stroke-linecap:round;stroke-linejoin:round;stroke-miterlimit:10;}
	.st23{fill:none;stroke:#302E2F;stroke-width:3;stroke-linecap:round;stroke-linejoin:round;stroke-miterlimit:10;}
	.st24{fill:none;stroke:#302E2F;stroke-width:3;stroke-miterlimit:10;}
</style>
<g id="couleurs_1_">
	
		<image style="overflow:visible;" width="79" height="77" id="Capture_d_x2019_écran_2020-01-17_à_14.35.14_xA0_Image_1_" xlink:href="8B4C8B2A3BCF84E2.png"  transform="matrix(2.5685 0 0 2.5685 3086.9221 2238.5796)">
	</image>
	
		<image style="overflow:visible;" width="105" height="91" id="Capture_d_x2019_écran_2020-01-17_à_14.29.08_xA0_Image_1_" xlink:href="8B4C8B2A3BCF84E6.png"  transform="matrix(2.5685 0 0 2.5685 3050.9626 795.0547)">
	</image>
	
		<image style="overflow:visible;" width="96" height="100" id="Capture_d_x2019_écran_2020-01-17_à_14.28.58_xA0_Image_1_" xlink:href="8B4C8B2A3BCF84E1.png"  transform="matrix(2.5685 0 0 2.5685 3063.8052 445.7319)">
	</image>
	<rect x="3020.1" y="116.7" class="st0" width="318.3" height="257.7"/>
	
		<image style="overflow:visible;" width="100" height="71" id="Capture_d_x2019_écran_2020-01-17_à_14.29.25_xA0_Image_1_" xlink:href="8B4C8B2A3BCF84E3.png"  transform="matrix(2.5685 0 0 2.5685 3058.6682 1110.9863)">
	</image>
	
		<image style="overflow:visible;" width="102" height="75" id="Capture_d_x2019_écran_2020-01-17_à_14.33.50_xA0_Image_1_" xlink:href="8B4C8B2A3BCF84E0.png"  transform="matrix(2.5685 0 0 2.5685 3056.0996 1370.4098)">
	</image>
	
		<image style="overflow:visible;" width="88" height="88" id="Capture_d_x2019_écran_2020-01-17_à_14.35.00_xA0_Image_1_" xlink:href="8B4C8B2A3BCF84EE.png"  transform="matrix(2.5685 0 0 2.5685 3058.6682 1637.5389)">
	</image>
	
		<image style="overflow:visible;" width="96" height="86" id="Capture_d_x2019_écran_2020-01-17_à_14.35.06_xA0_Image_1_" xlink:href="8B4C8B2A3BCF84E5.png"  transform="matrix(2.5685 0 0 2.5685 3063.8052 1956.0392)">
	</image>
</g>
<g id="terrain">
	<path class="st1" d="M706.3,1536.2c89.8,54.3,244.5,43.1,331.2,29.2l44.7-7.2c7-1.1,14.3,1.2,17.9,6c2,2.6,2.9,6,0.9,10.1
		c-2.4,4.8-8,8.2-14.4,9.2l-631.2,101.5c-105.7,17-173.9,98.2-152.3,181.3c21.6,83.2,124.8,136.8,230.5,119.8l581.5-93.5
		c0,0,29.8-4.8,37.9,18.8c8.1,23.6-24.6,32.6-24.6,32.6l-130.1,20.9c-92.8,14.9-152.6,86.2-133.6,159.2
		c19,73,109.5,120.1,202.3,105.1l426.2-68.5c1.6-0.1,3.2-0.2,4.7-0.3c56.9-3.7,82.1,54.3,35,79.7c-47.1,25.5-72.9,71.5-60.8,118.4
		c16.2,62.5,93.8,102.8,173.2,90l741.5-119.2c79.4-12.8,130.6-73.8,114.4-136.3c-14.5-55.8-77.9-93.9-147.9-92.3
		c-12.1,0.3-24-1.6-34.8-5.4c-9.3-4-18.2-10.7-23.3-22.2c-14.2-31.9,34-46.8,34-46.8l164.5-26.4c92.8-14.9,152.6-86.2,133.6-159.2
		c-19-73-109.5-120.1-202.3-105.2l-39.5,6.4l-24.1,3.9c-18.3,1.5-40.6-0.4-43.1-17.9c-3.6-24.8,32.1-33.6,44.7-35.9l370-59.5
		c68.1-11,120.6-48.6,143.6-96.2H706.3z"/>
	<line class="st2" x1="1997.7" y1="1536.2" x2="1997.7" y2="2391.9"/>
	<ellipse class="st3" cx="1997.7" cy="1952.6" rx="390.3" ry="93.9"/>
</g>
<g id="immeuble_fond_-_copie">
	<polygon class="st4" points="1466.2,839.8 1255.8,873.7 1273.9,1360.3 1484.4,1360.3 	"/>
</g>
<g id="immeuble3">
	<rect x="1959.3" y="-9.4" class="st5" width="548.2" height="1369.4"/>
	<path class="st6" d="M1957.7,1057.1l211.1-33.5c0,0,234.6-56.4,338.8-40.1v289.3c0,0-62.3,27-167.4,45.4c0,0-52.2,9.1-79.5,11.7
		s-64.6,11.4-74.5,30.2h-226.9L1957.7,1057.1z"/>
	<path class="st7" d="M2340.2,1318.2l-52.5,8.2l-27,3.5c-27.8,4.5-60.8,8.7-74.5,30.2v0h-59.5l2.1-242.6h213.4L2340.2,1318.2z"/>
	<line class="st8" x1="2233.5" y1="1117.4" x2="2233.5" y2="1334.6"/>
</g>
<g id="immeuble2">
	<polyline class="st9" points="1294.5,1360.3 1294.5,812.5 529.9,812.5 529.9,1360.3 	"/>
	<path class="st10" d="M529.9,990.3V1260l440.2-70.3c0,0,10.4-1.4,15,8.6c4.7,10-8.5,15.7-8.5,15.7s-12.3,3.4-31.9,5.9
		s-81.3,15.1-81.3,15.1s-169.1,31.1-210.9,125.3l642,0V867.4L529.9,990.3z"/>
	<polygon class="st7" points="596.4,1009.9 678.7,1009.9 678.7,966.4 596.4,979.7 	"/>
	<polygon class="st7" points="870.8,1009.9 953.1,1009.9 953.1,922.3 870.8,935.5 	"/>
	<polygon class="st7" points="731.2,1009.9 813.5,1009.9 813.5,944.8 731.2,958 	"/>
	<polygon class="st7" points="1147.2,1009.9 1229.5,1009.9 1229.5,877.9 1147.2,891.1 	"/>
	<polygon class="st7" points="1010.2,1009.9 1092.5,1009.9 1092.5,899.9 1010.2,913.1 	"/>
	<polyline class="st7" points="829.2,1212.3 829.2,1102.3 995.3,1102.3 995.3,1360.4 829.2,1360.4 829.2,1243.4 	"/>
	<line class="st3" x1="912.2" y1="1360.4" x2="912.2" y2="1226.4"/>
	<line class="st3" x1="912.2" y1="1199.1" x2="912.2" y2="1102.3"/>
	<path class="st4" d="M912.2,1051.4c-63.4,0-114.7,51.4-114.7,114.7H1027C1027,1102.8,975.6,1051.4,912.2,1051.4z"/>
	<line class="st7" x1="1294.5" y1="1360.3" x2="1495.5" y2="1360.3"/>
</g>
<g id="immeubles">
	<rect x="1442.2" y="368.5" class="st9" width="555.5" height="1045.2"/>
	<path class="st10" d="M1442.2,1413.7v-570l104.7-16.7c0,0,74.5-15.6,143.2,32.2c68.7,47.7,53,118.6,53,118.6s-9.5,62-85,94.9
		c0,0-29.5,13.3-65.7,16.4c-31.2,2.7-32.7,14.6-32.7,14.6s-1.9,13.3,23.8,13.7l414.4-66.7v363H1442.2z"/>
	<path class="st7" d="M1817.1,1413.7h-194.2v-267.2c0-17.3,14-31.4,31.4-31.4h131.5c17.3,0,31.4,14,31.4,31.4V1413.7z"/>
	<line class="st7" x1="1720" y1="1115.2" x2="1720" y2="1413.7"/>
	<path class="st7" d="M1690.1,908.4c0-19.5-14.4-35.2-32.1-35.2s-32.1,15.8-32.1,35.2c0,0.7,0.1,1.4,0.1,2h-0.1v125.1h64.1V910.4
		h-0.1C1690.1,909.7,1690.1,909.1,1690.1,908.4z"/>
	<path class="st7" d="M1559.6,908.4c0-19.5-14.4-35.2-32.1-35.2s-32.1,15.8-32.1,35.2c0,0.7,0.1,1.4,0.1,2h-0.1v125.1h64.1V910.4
		h-0.1C1559.5,909.7,1559.6,909.1,1559.6,908.4z"/>
	<rect x="1495.5" y="1023.3" class="st4" width="64.1" height="12.2"/>
	<rect x="1626" y="1023.3" class="st4" width="64.1" height="12.2"/>
	<g>
		<path class="st7" d="M1956.9,1162.1h-60.3c-0.8,0-1.5,0.7-1.5,1.5v31.8c0,0.8,0.7,1.5,1.5,1.5h60.3c0.8,0,1.5-0.7,1.5-1.5v-31.8
			C1958.4,1162.8,1957.7,1162.1,1956.9,1162.1z"/>
		<path class="st7" d="M1987.9,1207.3h-60.3c-0.8,0-1.5,0.7-1.5,1.5v31.8c0,0.8,0.7,1.5,1.5,1.5h60.3c0.8,0,1.5-0.7,1.5-1.5v-31.8
			C1989.3,1208,1988.7,1207.3,1987.9,1207.3z"/>
		<path class="st7" d="M1987.9,1116.9h-60.3c-0.8,0-1.5,0.7-1.5,1.5v31.8c0,0.8,0.7,1.5,1.5,1.5h60.3c0.8,0,1.5-0.7,1.5-1.5v-31.8
			C1989.3,1117.5,1988.7,1116.9,1987.9,1116.9z"/>
		<path class="st7" d="M1956.9,1252.5h-60.3c-0.8,0-1.5,0.7-1.5,1.5v31.8c0,0.8,0.7,1.5,1.5,1.5h60.3c0.8,0,1.5-0.7,1.5-1.5V1254
			C1958.4,1253.2,1957.7,1252.5,1956.9,1252.5z"/>
		<path class="st7" d="M1913.3,1207.3H1853c-0.8,0-1.5,0.7-1.5,1.5v31.8c0,0.8,0.7,1.5,1.5,1.5h60.3c0.8,0,1.5-0.7,1.5-1.5v-31.8
			C1914.8,1208,1914.1,1207.3,1913.3,1207.3z"/>
		<path class="st7" d="M1997.7,1287.3h-23.9c-2.6,0-4.6-2.1-4.6-4.6v-25.5c0-2.6,2.1-4.6,4.6-4.6h23.9V1287.3z"/>
		<path class="st7" d="M1997.7,1196.9H1973c-2.6,0-4.6-2.1-4.6-4.6v-25.5c0-2.6,2.1-4.6,4.6-4.6h24.7V1196.9z"/>
	</g>
	<line class="st11" x1="1379.2" y1="1413.7" x2="2869.1" y2="1413.7"/>
</g>
<g id="immeuble_fond">
	<path class="st4" d="M529.9,1260V990.3l-67,10.8c0,0-57.8,4.5-102.2,51.7s-29.4,101.6-29.4,101.6s6.6,58.2,84.6,92
		C475.4,1272.2,529.9,1260,529.9,1260z"/>
</g>
<g id="banc_1">
	<rect x="1652.8" y="1462.5" class="st12" width="355.8" height="15.2"/>
	<polygon class="st12" points="1980.4,1477.8 1993.2,1538.3 1956,1477.8 	"/>
	<polygon class="st12" points="1682.3,1477.8 1668.2,1536.7 1706.7,1477.8 	"/>
	<path class="st12" d="M1668.2,1358.9"/>
	<line class="st12" x1="1956" y1="1424.2" x2="1956" y2="1462.5"/>
	<line class="st12" x1="1706.7" y1="1424.2" x2="1706.7" y2="1462.5"/>
	<rect x="1668.2" y="1381" class="st12" width="324.9" height="51.8"/>
</g>
<g id="banc2">
	<rect x="877.8" y="1463.2" class="st12" width="355.8" height="15.2"/>
	<polygon class="st12" points="1205.3,1478.4 1218.1,1539 1180.9,1478.4 	"/>
	<polygon class="st12" points="907.2,1478.4 893.2,1537.4 931.6,1478.4 	"/>
	<path class="st12" d="M893.2,1359.6"/>
	<line class="st12" x1="1180.9" y1="1424.9" x2="1180.9" y2="1463.2"/>
	<line class="st12" x1="931.6" y1="1424.9" x2="931.6" y2="1463.2"/>
	<rect x="893.2" y="1381.7" class="st12" width="324.9" height="51.8"/>
</g>
<g id="fleur">
	<path class="st13" d="M1304.9,1348c0,0,4-10.5,15.5-16.3s13.8-7.3,13.8-7.3s0.5,6-13.9,13.8s-15.3,12.7-15.3,12.7L1304.9,1348z"/>
	<path class="st13" d="M1304.7,1339.5c0,0-2.1-4.2-16.2-11.5c-14.1-7.3-11.2-10.9-11.2-10.9s24.2,8.5,27.4,20.3L1304.7,1339.5z"/>
	<path class="st13" d="M1304.4,1325c0,0,2.2-7.1,14.6-13.7c0,0,7.4-3.5,7.6-9.4c0,0-19.3,5.4-22.3,19.7L1304.4,1325z"/>
	<path class="st13" d="M1304,1303.3c0,0-9.2,0-10.4-6.9c0,0,6.1,1.2,7.4,4"/>
	<ellipse class="st14" cx="1304" cy="1299.8" rx="2.7" ry="3.2"/>
	<polygon class="st14" points="1307.3,1301.9 1308,1299.4 1313.4,1296.9 1312.9,1299.2 1308.1,1302.3 	"/>
	<path class="st15" d="M1307.3,1300c2.7-2.5,7-3.7,7-3.7c-2.1,7.4-10.4,7-10.4,7s3.6-0.4,3.3-3.8c0,0,0.1-2.1-3.2-3.7l0,0
		c-3.2,1.7-3.1,3.6-3.1,3.6c-0.2,3.4,3.1,3.9,3.1,3.9l1.2,57.5"/>
</g>
<g id="herbes1">
	<path class="st16" d="M1275.9,1504.6c0,0,1.5-15.9,11.1-16.3c6-0.3-13.3,1.3-7.3,48.1l-3.8-0.8"/>
	<path class="st17" d="M1278.4,1537.5c0,0,0.6-43.4-14.8-58.4c-15.4-15,15.4,20.2,7.1,51.7l-0.8,4.9"/>
	<path class="st17" d="M1274.3,1536.5c0,0-9.3-30.3-21.1-34.8c-11.9-4.4,7.1,5.8,15,35.9"/>
</g>
<g id="herbes2">
	<path class="st18" d="M2329.6,1649.3c0,0-3.4-15.6-16-14.2c-7.9,0.9,16.1-6.5,12.4,41.4"/>
	<path class="st18" d="M2326,1681.3c0,0-0.6-41.1,14.8-56.1c15.4-15-15.4,20.2-7.1,51.7l0.7,3.4"/>
	<path class="st18" d="M2329.1,1681.7c0,0,9.3-30.3,21.1-34.8c11.9-4.4-7.1,5.8-15,35.9"/>
	<path class="st18" d="M2341.6,1684.6c0,0-12.2-5.1-23.2-1.2"/>
</g>
<g id="Calque_14">
	<g>
		<defs>
			<path id="SVGID_1_" d="M1378.1,503.8L1378.1,503.8c-6.3-27.5-38.4-45.7-71.9-40.5l-45.8,7.1c-4.6,0.6-4.8-3.6-4.3-5
				c0.5-1.4,3.1-1.9,3.1-1.9l0,0l18.3-2.8c24.6-3.8,40.8-23.3,36.2-43.5l0,0c-4.6-20.2-28.3-33.6-52.9-29.8l-286.4,44.2
				c-24.6,3.8-40.8,23.3-36.2,43.5l0,0c4.6,20.2,28.3,33.6,52.9,29.8l32.3-5c4.1-0.6,6.9,3.6,3.8,5.9c-0.1,0.1-0.3,0.2-0.4,0.3
				l-0.2,0.1c-0.5,0.3-1.1,0.5-1.7,0.6l-175.1,27c-33.4,5.2-55.5,31.7-49.2,59.2l0,0c6.3,27.5,38.5,45.7,71.9,40.5l88.1-13.6
				c0,0,11.3-2.1,12.3,3.5c1.5,8.4-11.5,10.3-11.5,10.3c-33.4,5.2-55.5,31.7-49.2,59.2l0,0c6.3,27.5,38.5,45.7,71.9,40.5l254.4-39.2
				c33.4-5.2,55.5-31.7,49.2-59.2l0,0c-6.3-27.5-38.5-46.8-71.9-41.7c-1.3,0.2-4.1,0.2-5.3-0.2c-4.2-1.2-11.5-9,4.3-12.4l0,0
				l114-17.6C1362.3,557.8,1384.4,531.3,1378.1,503.8z"/>
		</defs>
		<clipPath id="SVGID_2_">
			<use xlink:href="#SVGID_1_"  style="overflow:visible;"/>
		</clipPath>
		<polyline class="st19" points="1293.8,794.4 1293.8,267.6 530.4,267.6 530.4,794.4 		"/>
	</g>
	<rect x="1146.7" y="409.8" class="st7" width="82.2" height="133.1"/>
	<polygon class="st7" points="1146.7,708 1228,695.4 1228.8,644.2 1146.7,644.2 	"/>
	<polygon class="st4" points="1133.7,610.9 1240.4,610.9 1228.8,644.2 1146.7,644.2 	"/>
	<polygon class="st7" points="1009.8,729.1 1092,716.4 1092,644.2 1009.8,644.2 	"/>
	<polygon class="st4" points="996.9,610.9 1103.6,610.9 1092,644.2 1009.8,644.2 	"/>
	<polyline class="st4" points="1144.8,405 1235.4,391.2 1228.8,409.8 1146.7,409.8 1144.8,405 	"/>
	<polyline class="st4" points="808.3,610.9 825,610.9 820.9,622.6 	"/>
	<path class="st4" d="M820.9,622.6c0,0-9.1-6.4-12.7-11.7"/>
	<polyline class="st4" points="866.7,633.9 857.8,610.9 964.4,610.9 961.4,619.6 866.7,633.9 	"/>
	<path class="st4" d="M932.5,644.2h20.4l3.4-9.9C956.4,634.3,944.8,635.7,932.5,644.2"/>
	<path class="st7" d="M932.5,644.2h20.4v87.5c0,0-36.4-9.1-41.8-39C905.7,662.9,932.5,644.2,932.5,644.2"/>
</g>
<g id="immeuble_bulle_1">
	<path class="st10" d="M530.4,337.3v-69.7h191.5c0,0,5.5,41.8-47.8,50.7c-15.8,2.6-38.3,4.6-60.9,7.6
		C571.8,331.3,530.4,337.3,530.4,337.3"/>
	<path class="st10" d="M530.4,358.6v113l42.8-6.4c0,0,51-8.2,53-59.2c0.8-20.5-21.6-41-41.2-46.9c-18.7-5.5-34.4-2.6-34.4-2.6
		S539.4,358.6,530.4,358.6"/>
	<path class="st4" d="M625.5,409.8h-28.9l-12.9-33.3h29.1C612.9,376.5,625.9,389.3,625.5,409.8"/>
	<path class="st7" d="M596.7,455.6v-45.8h28.9C625.5,409.8,627.3,435.6,596.7,455.6"/>
	<path class="st4" d="M524.5,248.7l5.9,18.9h191.5c0,0-3.9-43-60.5-38.3L524.5,248.7"/>
	<polyline class="st7" points="870.7,530.2 870.7,542.9 952.9,542.9 952.9,517.6 870.7,530.2 	"/>
	<path class="st7" d="M952.9,439.2V497C952.9,497,916.1,471.5,952.9,439.2"/>
	<path class="st7" d="M1009.8,501.7v-75.9l82.2-12.7v129.8h-82.2v-34.1l13.9-2.1c0,0,8.5-3.8-0.3-6.8L1009.8,501.7"/>
</g>
<g id="perso_1">
	<path class="st12" d="M2168.9,1613c-1.2-2.3-2.8-4.3-4.9-6c-16.5-13-66.7-21.7-94.4-26.9c-27.6-5.2-91.3,43.7-103,47.8
		c-11.7,4.1-20.8,4.5-29.1,4.7s-26.4,11.4-25,16.1s40.6-6.7,40.6-6.7c18.3-3.8,108.9-41.7,108.9-41.7l53.5,32.3l-18.4,14.7l79.4,9
		c0,0,75.8,0,81.2-26.3c0,0-5.8-120.1-12.3-120.6s-9.3,23.5-7,29.7c2.3,6.2,1.5,11.6,0.8,17.8s0,65.4,0,65.4l-50.4-0.4l-2.2-19
		l-8.1,1.4L2168.9,1613z"/>
	<polygon class="st12" points="2068.8,1676.8 2082.7,1666.6 2118.7,1709.4 2107.1,1725 	"/>
	<path class="st20" d="M2195.4,1655.4c26.3-1.2,39.5-7.1,39.5-7.1l-5.2-26.1l-13.2-0.1c0,0-25.2,9.5-35.6,7.9c-10.4-1.6-12-17-12-17
		c-6.9-15.5-59.4-25-59.4-25l-25.6,25.5l31.7,19.2l-4.5,3.6l-36.3,28.2l40.9,50.6c0,0,38.1-12,62.3-33.7
		c14.2-12.7,20.3-32.4,15.1-50.7c-0.1-0.5-0.3-1-0.5-1.6"/>
	<path class="st12" d="M2177.4,1598.3c1.1,9.5,5.5,18.4,12.7,24.7c4.2,3.7,9.5,6.7,15.6,7c17.1,0.8,15.9-40.3,15.9-40.3l-13-11
		h-13.8l-11.8,4.1l-6.1,11L2177.4,1598.3z"/>
	<circle class="st6" cx="2179.6" cy="1568.6" r="15.8"/>
	<path class="st6" d="M2177.7,1600.1c0,0-7.3-30.1,17-33.2c24.4-3.1,26.9,22.8,26.9,22.8s-7.4,5.2-15.7,4.6c0,0-3.5-13.8-12.7-10.3
		c-9.2,3.5-6.3,15.1-6.3,15.1L2177.7,1600.1z"/>
	<path class="st12" d="M2124.3,1725.3c0,0,94.8,41.3,92.8,68.2c-1.9,26.9-102.9,110.9-112.5,129.8c-9.7,18.9-29.8-1.2-22.1-10.5
		s22.1-28.6,29-49.5c6.8-20.9,25.3-59.9,40.2-63.1c0,0-66.5-15.2-76.9-18.9L2124.3,1725.3z"/>
	<path class="st12" d="M1976.3,1766c0,0-36.2,47.2-59.5,62.2c0,0-44.2,3-118.6,97.1c0,0-24.1,19.7,0,24.5c0,0,132.7-77.6,145.6-86.5
		c12.9-8.8,92-68.4,92-68.4l-23.3-26.9L1976.3,1766z"/>
	<path class="st10" d="M1973.6,1769.8l60.3,27.2l38.3-40.8l-51.6-52.2c0,0-14.8,18.3-28.3,38.7
		C1978.7,1763.1,1973.6,1769.8,1973.6,1769.8z"/>
	<path class="st10" d="M2067.5,1670l39.3,50.2c0,0,12.5,2.4,21.4,6.8l-40.7,57.7c0,0-66-12-71-59.7c-1.5-13.9,5.2-27.5,17.2-34.7
		c3-1.8,6.5-3.6,10.7-5.3C2058.6,1679.1,2067.5,1670,2067.5,1670z"/>
	<path class="st6" d="M2085.2,1909.5l19.4,13.8c0,0-8.6,11.6,0,21.9c8.6,10.3,20.1,25.9,13.4,32.3l-61.8-43.1L2085.2,1909.5z"/>
	<path class="st6" d="M1798.2,1925.3v24.5c0,0-12.4,9.2-26,24s-14.2,20.8-24.7,20.2l18.1-72.7L1798.2,1925.3z"/>
	<polygon class="st21" points="2056.2,1934.3 2050.7,1939.7 2113.8,1983.2 2118,1977.4 	"/>
	<polygon class="st21" points="1765.5,1921.3 1759.5,1920.6 1740.8,1993.6 1747.4,1994 	"/>
</g>
<g id="perso_2">
	<path class="st21" d="M1406.2,1657.4c-24.2-2.6-65.6,0.7-95.9,12.7c-30.3,11.9-15.5,88.1-14.5,102.4c0,0,1.2,11-2.4,16.5
		c-3.6,5.5,5.7,26.4,7.6,25.3s2.8-36.2,2.8-36.2c0.7-23.2,11.5-83.4,11.5-83.4l72.5-1.2"/>
	<path class="st21" d="M1499.7,1726.5c17.1,19.5,41.3,41.7,58.1,34.5c0,0,110.9-84.4,107.1-90.9s-28.6,6.6-33,12.8
		c-4.4,6.3-10.1,9.1-16.5,12.4c-6.4,3.3-62.4,42.9-62.4,42.9l-22.6-33.5"/>
	<path class="st20" d="M1531,1679.6"/>
	<path class="st12" d="M1505.7,1667.1c0,0,17.5,6.7,31.8,45.3l-22,33.3l-38.6-31.6L1505.7,1667.1z"/>
	<polygon class="st21" points="1463.6,1656.6 1483.6,1641.3 1504.3,1649 1502.9,1679.6 	"/>
	<path class="st12" d="M1505,1725.9c-17.3,33.4-46.6,67.8-46.6,67.8l-67.1-30.9l16.1-65l-29.2-2l12.9-39.9c0,0,60.3-14.5,74.6-5.7
		c0,0,20.4,26.7,40.1,16.9C1505.7,1667.1,1524.8,1687.5,1505,1725.9z"/>
	<path class="st21" d="M1467.2,1619.5c1.3,11,6.4,21.3,14.7,28.7c4.9,4.3,11,7.8,18.1,8.1c19.8,0.9,18.4-46.7,18.4-46.7l-15.1-12.7
		h-16l-13.7,4.7l-7.1,12.7L1467.2,1619.5z"/>
	<path class="st21" d="M1456.5,1799.8l27.2,19c28.2,26.3,69.8,72.9,77.5,91c12.1,28.8-38.1,186.4-38.2,211l0.5,0.4
		c-7.2,8.7-20.5,8.8-27.9,0.3h0c0,0,0,0,0,0c0.2-0.7,1.8-0.8,2-1.6c3-14.2,5.7-40.8,2-64.7c-3.9-25.2,0.8-91.9,14.5-103l-84.5-75.4
		L1456.5,1799.8z"/>
	<path class="st21" d="M1342.8,1916c0,0-7.2,32-23.4,59.9c0,0-5.5-15.4-83.2-18.2c-10.7-0.4-22.9-4.7-36.4-5.6l0.1-0.8
		c-8.3,2.4-10.4,9.3-7.5,17.5l0,0c0,0,133.7,51.3,142,47.5c40.9-18.8,78.4-88.3,78.4-88.3l-27.1-34.3L1342.8,1916z"/>
	<path class="st10" d="M1342.8,1916l70,12l28.4-77.9l-80.7-26.9c0,0-2.7,27.2-9,54.9C1348.7,1889.7,1342.8,1916,1342.8,1916z"/>
	<path class="st10" d="M1458.4,1793.7l51.4,51.2l-43.2,64.9c0,0-95.6-30.9-105.4-87.4c-2.8-16,8.2-38.5,20.1-49.4
		c3-2.7,6.6-5.6,10.9-8.5L1458.4,1793.7z"/>
	<path class="st12" d="M1201.7,1950.9l-24.2-12.9l-27.4,58.9c0,0,16.1,13.1,41.6-26.5C1191.6,1970.4,1191.9,1956.1,1201.7,1950.9z"
		/>
	<path class="st12" d="M1496.3,2114.8l-5.1,30.7l75.8,10.1c0,0,7.9-11.2-42.7-37.3C1524.3,2118.3,1505.7,2124.1,1496.3,2114.8z"/>
	<path class="st21" d="M1474.6,1639.8c8.3,8.6,1.5-18.1,9.4-26c7.8-7.9,34.4-4.2,34.4-4.2s-3.6-30-31.2-26.5
		c-27.7,3.6-19.7,38.5-19.7,38.5S1469.1,1634,1474.6,1639.8z"/>
	<path class="st12" d="M1459.3,1613.9l60.6-1.8c0,0-2.9-32.5-32.8-29c0,0-20,1.5-20.8,29l-30.4,1.8H1459.3z"/>
</g>
<g id="perso_3">
	<path class="st22" d="M599.1,1662.3l68.3,61c-11.3,9.2-15.1,64-11.9,84.8c3,19.7,0.9,41.6-1.6,53.2l20.9,0.7
		c0.1-20.2,41.4-149.8,31.4-173.5c-3.4-8.2-15.3-23.4-29.1-39.1"/>
	<path class="st12" d="M402.9,1737L402.9,1737c0,0,110,42.2,116.8,39.1c33.6-15.5,64.5-72.6,64.5-72.6l-22.3-28.2l-35.3,18.4
		c0,0-5.9,26.4-19.2,49.2c0,0-4.5-12.7-68.4-15c-8.8-0.3-18.8-3.9-30-4.6L402.9,1737z"/>
	<path class="st6" d="M651.7,1653.5l-23.3,35c0,0-24.8-8-48-23.3L651.7,1653.5z"/>
	<path class="st10" d="M656.5,1843l-6.1,43.4l67.6,1.8c0,0,1.7-9.4-20.2-15.4c-4-1.1-8.1-1.6-12.2-1.8c-0.1,0-0.1,0-0.2,0
		c-5.8-0.4-10.1-5.5-9.5-11.3l1.5-14.3L656.5,1843z"/>
	<polygon class="st4" points="649.2,1894.9 650.4,1886.4 718,1888.2 718,1894.9 	"/>
	<polyline class="st23" points="670.7,1852.5 676.3,1856.4 670.7,1860 	"/>
	<polyline class="st23" points="671.3,1866.5 677.7,1866.5 674.5,1872.6 	"/>
	<polyline class="st23" points="682.5,1876 686.6,1871.1 689.6,1876.9 	"/>
	<path class="st10" d="M426.5,1724.4l-41.7-13.2l-13.1,66.4c0,0,9,3.2,18.5-17.4c1.7-3.7,2.9-7.7,3.8-11.7c0-0.1,0-0.1,0-0.2
		c1.3-5.6,7.1-9,12.7-7.4l13.9,3.9L426.5,1724.4z"/>
	<polygon class="st4" points="381.7,1709.9 384.7,1711.2 371.7,1777.6 365.1,1776.4 375.5,1713.7 	"/>
	<polyline class="st23" points="414.8,1736.9 410,1741.8 407.4,1735.6 	"/>
	<polyline class="st23" points="400.9,1735.1 399.8,1741.4 394.4,1737.2 	"/>
	<polyline class="st23" points="389.7,1744.6 393.8,1749.4 387.5,1751.4 	"/>
	<path class="st6" d="M599.1,1662.3l-67.8,10.5c-2.2,9.8-4.7,20.7-4.7,20.7l57.6,9.8L599.1,1662.3"/>
</g>
<g id="ballon">
	<circle class="st12" cx="2180.1" cy="1945.5" r="39.7"/>
</g>
<g id="bulles">
	<g id="bulle2_1_">
		<path class="st24" d="M1376.9,503.8L1376.9,503.8c-6.3-27.5-38.4-45.7-71.9-40.5l-45.8,7.1c-4.6,0.6-4.8-3.6-4.3-5
			c0.5-1.4,3.1-1.9,3.1-1.9l0,0l18.3-2.8c24.6-3.8,40.8-23.3,36.2-43.5l0,0c-4.6-20.2-28.3-33.6-52.9-29.8l-286.4,44.2
			c-24.6,3.8-40.8,23.3-36.2,43.5l0,0c4.6,20.2,28.3,33.6,52.9,29.8l32.3-5c4.1-0.6,6.9,3.6,3.8,5.9c-0.1,0.1-0.3,0.2-0.4,0.3
			l-0.2,0.1c-0.5,0.3-1.1,0.5-1.7,0.6l-175.1,27c-33.4,5.2-55.5,31.7-49.2,59.2l0,0c6.3,27.5,38.5,45.7,71.9,40.5l88.1-13.6
			c0,0,11.3-2.1,12.3,3.5c1.5,8.4-11.5,10.3-11.5,10.3c-33.4,5.2-55.5,31.7-49.2,59.2l0,0c6.3,27.5,38.5,45.7,71.9,40.5l254.4-39.2
			c33.4-5.2,55.5-31.7,49.2-59.2l0,0c-6.3-27.5-38.5-46.8-71.9-41.7c-1.3,0.2-4.1,0.2-5.3-0.2c-4.2-1.2-11.5-9,4.3-12.4l0,0
			l114-17.6C1361.1,557.8,1383.2,531.3,1376.9,503.8z"/>
	</g>
	<g id="bulle3">
		<path class="st24" d="M295.5,392.8l89.3-12.7c2.6-0.4,15.2-2.9,12.6-12.8c-1.5-5.4-5.3-7.3-8.9-7.8c-1.6-0.2-3.2-0.2-4.8,0
			l-6.6,0.9c-29.8,4.2-56.8-12.3-60.3-36.9l0,0c-3.5-24.6,17.9-48,47.7-52.2l296.9-42.2c29.8-4.2,56.8,12.3,60.3,36.9l0,0
			c3.5,24.6-17.8,48-47.7,52.2l-105.5,13.2c-12.9,1.9-48.8,4.5-53.8,13.6c-3.3,6.1-1.8,15.6,23.9,13.1l12-1.7
			c36.8-5.2,70.2,15.1,74.5,45.5l0,0c4.3,30.4-22,59.2-58.9,64.5l-255.1,36.2c-36.8,5.2-70.2-15.1-74.5-45.5l0,0
			C232.3,426.8,258.7,398,295.5,392.8z"/>
	</g>
	<path class="st24" d="M2168.8,1023.6c0,0,316.6-77.1,388.2-23.9c71.6,53.1,73.9,122.4,73.9,122.4c-0.6,36.1,18.5,160.4-370.2,207.8
		c-72.8,8.9-77.2,32.8-77.9,41c-0.4,5.4-4.4,32.5,26.4,31.4c103.2-3.5,260.7-41.1,260.7-41.1l0,0l184.8-29.7
		c105.7-17,208.9,36.6,230.5,119.8c21.6,83.2-46.6,164.3-152.2,181.3l-370,59.5c-12.6,2.3-48.3,11.1-44.7,35.9
		c2.5,17.5,24.9,19.3,43.1,17.9l24.1-3.9l39.5-6.4c92.8-14.9,183.3,32.2,202.3,105.2c19,73-40.9,144.2-133.6,159.2l-164.5,26.4
		c0,0-48.2,14.9-34,46.8c5.1,11.4,14,18.2,23.3,22.2c10.8,3.8,22.7,5.6,34.8,5.4c70-1.6,133.4,36.5,147.9,92.3
		c16.2,62.5-35,123.5-114.4,136.3l-741.5,119.2c-79.4,12.8-157-27.5-173.2-90c-12.2-46.9,13.6-92.9,60.8-118.4
		c47-25.4,21.8-83.4-35-79.7c-1.5,0.1-3.1,0.2-4.7,0.3l-426.2,68.5c-92.8,14.9-183.3-32.2-202.3-105.1
		c-19-73,40.9-144.2,133.6-159.2l130.1-20.9c0,0,32.7-9,24.6-32.6c-8.1-23.6-37.9-18.8-37.9-18.8l-581.5,93.5
		c-105.7,17-208.9-36.6-230.5-119.8c-21.6-83.1,46.6-164.3,152.3-181.3l631.2-101.5c6.4-1,12-4.4,14.4-9.2c2-4.1,1.1-7.4-0.9-10.1
		c-3.6-4.8-11-7.1-17.9-6l-44.7,7.2c-121.1,19.5-374.8,33.6-399.2-128.6c-8.2-152,169.1-194.9,290.2-214.3l38.7-6.2
		c7.8-1.3,17.5-4.6,18.7-10.8c0.8-4.4-1.2-11.3-7.9-14.8c-3.3-1.7-7.6-0.9-9.3-0.6L530.2,1260c-90.9,14.6-179.6-31.5-198.1-103
		c-18.6-71.5,40-141.3,130.9-155.9l1080.6-173.7c90.9-14.6,179.6,31.5,198.1,103c18.6,71.5-40,141.3-130.9,155.9l-30.7,4.9
		c-6.3,1-12.2,3.5-16.6,7.3c-4.7,4.1-7.4,9.7,1.7,14.9c6.1,3.5,13.9,4.6,21.3,3.4l566.7-90.7
		C2158.4,1025.3,2163.7,1024.4,2168.8,1023.6l-73.9,11.8"/>
</g>
</svg>
