<?xml version="1.0" encoding="utf-8"?>
<!-- Generator: Adobe Illustrator 24.0.3, SVG Export Plug-In . SVG Version: 6.00 Build 0)  -->
<svg version="1.1" id="Calque_1" xmlns="http://www.w3.org/2000/svg" xmlns:xlink="http://www.w3.org/1999/xlink" x="0px" y="0px"
	 viewBox="0 0 841.9 595.3" style="enable-background:new 0 0 841.9 595.3;" xml:space="preserve">
<style type="text/css">
	.st0{fill:#010202;}
	.st1{display:none;}
	.st2{display:inline;fill:#0F4239;}
	.st3{display:inline;fill:#FAB431;stroke:#302E2F;stroke-width:2;stroke-miterlimit:10;}
	.st4{display:inline;fill:#302E2F;stroke:#302E2F;stroke-width:2;stroke-linejoin:round;stroke-miterlimit:10;}
	.st5{display:inline;fill:#FFFFFF;stroke:#302E2F;stroke-width:2;stroke-linejoin:round;stroke-miterlimit:10;}
	.st6{display:inline;fill:#FFFFFF;stroke:#302E2F;stroke-width:2;stroke-miterlimit:10;}
	.st7{display:inline;fill:#43B06F;stroke:#302E2F;stroke-width:2;stroke-miterlimit:10;}
	.st8{fill:#FAB431;stroke:#302E2F;stroke-width:2;stroke-miterlimit:10;}
	.st9{fill:#FFFFFF;stroke:#302E2F;stroke-width:2;stroke-miterlimit:10;}
	.st10{fill:#302E2F;stroke:#302E2F;stroke-width:2;stroke-linejoin:round;stroke-miterlimit:10;}
	.st11{fill:#FFFFFF;stroke:#302E2F;stroke-width:2;stroke-linejoin:round;stroke-miterlimit:10;}
	.st12{fill:#43B06F;stroke:#302E2F;stroke-width:2;stroke-miterlimit:10;}
</style>
<g id="Calque_1_1_">
	<circle class="st0" cx="420.9" cy="145" r="2.2"/>
</g>
<g id="couleurs" class="st1">
	
		<image style="display:inline;overflow:visible;enable-background:new    ;" width="79" height="78" id="Capture_d_x2019_écran_2020-01-17_à_14.35.14_xA0_Image_2_" xlink:href="9F26B21439891805.png"  transform="matrix(0.8466 0 0 0.8466 928.4373 653.3586)">
	</image>
	
		<image style="display:inline;overflow:visible;enable-background:new    ;" width="107" height="92" id="Capture_d_x2019_écran_2020-01-17_à_14.29.08_xA0_Image_3_" xlink:href="9F26B21439891807.png"  transform="matrix(0.8416 0 0 0.8416 915.9963 171.6875)">
	</image>
	
		<image style="display:inline;overflow:visible;enable-background:new    ;" width="97" height="102" id="Capture_d_x2019_écran_2020-01-17_à_14.28.58_xA0_Image_2_" xlink:href="9F26B21439891802.png"  transform="matrix(0.8408 0 0 0.8408 920.6712 54.7432)">
	</image>
	<rect x="905.7" y="-55.1" class="st2" width="106.3" height="86.1"/>
	
		<image style="display:inline;overflow:visible;enable-background:new    ;" width="102" height="72" id="Capture_d_x2019_écran_2020-01-17_à_14.29.25_xA0_Image_2_" xlink:href="9F26B21439891803.png"  transform="matrix(0.8408 0 0 0.8408 918.5692 277.0421)">
	</image>
	
		<image style="display:inline;overflow:visible;enable-background:new    ;" width="104" height="76" id="Capture_d_x2019_écran_2020-01-17_à_14.33.50_xA0_Image_3_" xlink:href="9F26B2143989180D.png"  transform="matrix(0.8411 0 0 0.8411 917.7115 363.6825)">
	</image>
	
		<image style="display:inline;overflow:visible;enable-background:new    ;" width="90" height="90" id="Capture_d_x2019_écran_2020-01-17_à_14.35.00_xA0_Image_2_" xlink:href="9F26B2143989180F.png"  transform="matrix(0.8385 0 0 0.8385 918.5692 452.6766)">
	</image>
	
		<image style="display:inline;overflow:visible;enable-background:new    ;" width="97" height="86" id="Capture_d_x2019_écran_2020-01-17_à_14.35.06_xA0_Image_3_" xlink:href="9F26B21439891800.png"  transform="matrix(0.8488 0 0 0.8488 920.2844 559.4011)">
	</image>
</g>
<g id="Calque_2_1_">
</g>
<g id="bureau">
</g>
<g id="écran">
</g>
<g id="Calque_7" class="st1">
	<polygon class="st3" points="-108.2,-42 -58.6,303.6 270.5,303.6 -13.3,-102 	"/>
	<polygon class="st4" points="39.5,303.6 919.4,303.6 803.1,262.9 242,262.9 153.5,262.9 	"/>
	<path class="st4" d="M97.2,573.9"/>
	<polygon class="st5" points="242,262.9 270.5,303.6 40,303.6 153.5,262.9 	"/>
	<polygon class="st6" points="272.8,296 586.9,296 545.4,281.5 313.5,281.5 	"/>
	<rect x="273.7" y="28.7" class="st6" width="312.2" height="201"/>
	<path class="st6" d="M459.3,229.7h-31h-1.5h-30.9c-3.1,24.5-19.3,43.5-19.3,43.5h44.6h12.6h44.6
		C478.5,273.2,462.4,254.3,459.3,229.7z"/>
	<rect x="273.7" y="45.6" class="st6" width="312.2" height="8.8"/>
	<circle class="st6" cx="280.2" cy="49.9" r="1.3"/>
	<circle class="st6" cx="287.5" cy="49.9" r="1.3"/>
	<circle class="st6" cx="294.8" cy="49.9" r="1.3"/>
	<rect x="273.7" y="28.7" class="st7" width="312.2" height="16.9"/>
	<rect x="273.7" y="212.9" class="st7" width="312.2" height="16.9"/>
</g>
<g id="Calque_8">
	<polygon class="st8" points="45.9,0 -10,0 -10,595.3 464.4,595.3 	"/>
	<polygon class="st9" points="793.3,264.8 833.7,568.5 749.2,264.5 	"/>
	<polygon class="st10" points="793.3,264.8 806.6,270.2 833.7,568.5 	"/>
	<polygon class="st9" points="138.3,264.8 98,568.5 182.4,264.5 	"/>
	<polygon class="st10" points="138.3,264.8 125,270.2 98,568.5 	"/>
	<polygon class="st10" points="25.7,304.6 913.4,304.6 796.1,263.5 230,263.5 140.7,263.5 	"/>
	<polygon class="st9" points="913.1,310.9 26.1,310.9 26.1,304.6 258.8,304.6 913.1,304.6 	"/>
	<polygon class="st10" points="868.3,311.5 903,631.2 802,311.5 	"/>
	<polygon class="st9" points="58.9,311.5 20.8,623 125.1,311.5 	"/>
	<path class="st10" d="M83.9,567.2"/>
	<polygon class="st11" points="230,263.5 258.8,304.6 26.1,304.6 140.7,263.5 	"/>
	<polygon class="st10" points="258.8,304.6 263.2,310.9 26.1,310.9 26.1,304.6 	"/>
	<polygon class="st9" points="261,297 578,297 536.1,282.3 302.1,282.3 	"/>
	<rect x="262" y="27.2" class="st9" width="315" height="202.8"/>
	<path class="st9" d="M449.2,230h-31.3h-1.5h-31.2c-3.1,24.8-19.5,43.9-19.5,43.9h45h12.8h45C468.6,273.9,452.3,254.8,449.2,230z"/>
	<rect x="262" y="44.2" class="st9" width="315" height="8.8"/>
	<circle class="st9" cx="268.5" cy="48.6" r="1.3"/>
	<circle class="st9" cx="275.9" cy="48.6" r="1.3"/>
	<circle class="st9" cx="283.2" cy="48.6" r="1.3"/>
	<rect x="262" y="27.2" class="st12" width="315" height="17"/>
	<rect x="262" y="213" class="st12" width="315" height="17"/>
</g>
</svg>
