<?xml version="1.0" encoding="utf-8"?>
<!-- Generator: Adobe Illustrator 23.1.1, SVG Export Plug-In . SVG Version: 6.00 Build 0)  -->
<svg version="1.1" id="Calque_1" xmlns="http://www.w3.org/2000/svg" xmlns:xlink="http://www.w3.org/1999/xlink" x="0px" y="0px"
	 viewBox="0 0 700 700" style="enable-background:new 0 0 700 700;" xml:space="preserve">
<style type="text/css">
	.st0{clip-path:url(#SVGID_2_);}
	.st1{clip-path:url(#SVGID_4_);fill:#FFFFFF;}
	.st2{clip-path:url(#SVGID_4_);fill:#302E2E;}
	.st3{clip-path:url(#SVGID_4_);fill:none;stroke:#302E2E;stroke-width:4;stroke-miterlimit:10;}
	.st4{clip-path:url(#SVGID_6_);fill:#FFFFFF;}
	.st5{clip-path:url(#SVGID_6_);fill:none;stroke:#302E2E;stroke-width:4;stroke-miterlimit:10;}
	.st6{clip-path:url(#SVGID_6_);fill:#2D59A5;}
	.st7{clip-path:url(#SVGID_8_);fill:#FFFFFF;}
	.st8{clip-path:url(#SVGID_8_);fill:none;stroke:#302E2E;stroke-width:4;stroke-miterlimit:10;}
	.st9{clip-path:url(#SVGID_8_);fill:#2D59A5;}
	.st10{clip-path:url(#SVGID_8_);fill:#302E2E;}
	.st11{clip-path:url(#SVGID_10_);fill:#302E2E;}
	.st12{clip-path:url(#SVGID_10_);fill:none;stroke:#302E2E;stroke-width:5;stroke-miterlimit:10;}
	.st13{clip-path:url(#SVGID_12_);fill:#302E2E;}
	.st14{clip-path:url(#SVGID_12_);fill:none;stroke:#302E2E;stroke-width:4;stroke-miterlimit:10;}
	.st15{clip-path:url(#SVGID_14_);fill:#FAB430;}
	.st16{clip-path:url(#SVGID_14_);fill:none;stroke:#302E2E;stroke-width:5;stroke-miterlimit:10;}
	.st17{clip-path:url(#SVGID_16_);fill:#FFFFFF;}
	.st18{clip-path:url(#SVGID_16_);fill:none;stroke:#302E2E;stroke-width:4;stroke-miterlimit:10;}
	.st19{clip-path:url(#SVGID_18_);fill:#302E2E;}
	.st20{clip-path:url(#SVGID_18_);fill:#FFFFFF;}
	.st21{clip-path:url(#SVGID_20_);fill:#302E2E;}
	.st22{clip-path:url(#SVGID_20_);fill:none;stroke:#302E2E;stroke-width:4;stroke-miterlimit:10;}
	.st23{clip-path:url(#SVGID_22_);fill:#FFFFFF;}
	.st24{clip-path:url(#SVGID_22_);fill:none;stroke:#302E2E;stroke-width:4;stroke-miterlimit:10;}
	.st25{clip-path:url(#SVGID_24_);fill:#FAB430;}
	.st26{clip-path:url(#SVGID_24_);fill:none;stroke:#302E2E;stroke-width:5;stroke-miterlimit:10;}
	.st27{clip-path:url(#SVGID_26_);fill:#FAB430;}
	.st28{clip-path:url(#SVGID_26_);fill:none;stroke:#302E2E;stroke-width:5;stroke-miterlimit:10;}
	.st29{clip-path:url(#SVGID_28_);fill:#FFFFFF;}
	.st30{clip-path:url(#SVGID_28_);fill:none;stroke:#302E2E;stroke-width:4;stroke-miterlimit:10;}
	.st31{clip-path:url(#SVGID_30_);fill:#302E2E;}
	.st32{fill:none;stroke:#302E2E;stroke-width:4;stroke-linecap:round;stroke-miterlimit:10;}
</style>
<g>
	<g>
		<defs>
			<rect id="SVGID_1_" x="-171.9" y="150" width="1031" height="1166"/>
		</defs>
		<clipPath id="SVGID_2_">
			<use xlink:href="#SVGID_1_"  style="overflow:visible;"/>
		</clipPath>
		<g class="st0">
			<defs>
				<rect id="SVGID_3_" x="-171.9" y="150" width="1031" height="1166"/>
			</defs>
			<clipPath id="SVGID_4_">
				<use xlink:href="#SVGID_3_"  style="overflow:visible;"/>
			</clipPath>
			<path class="st1" d="M474.6,691.9l14.9,102.4c0,0,9.6-10.4,8.5-28.2c-1.1-17.8-6.4-14.8-5.3-31.2c1.1-16.3,2.1-49,2.1-49
				S474.6,677.1,474.6,691.9"/>
			<path class="st2" d="M488.1,799.8l-15.7-107.9c0-3.7,1-6.8,3-8.8c5.9-6.1,18.7-0.7,20.1-0.1l1.6,0.7l-0.1,2.4
				c0,0.3-1.1,32.9-2.1,49.1c-0.5,7.7,0.5,10.3,1.9,13.9c1.3,3.4,2.9,7.7,3.5,16.7c1.2,19.2-8.9,30.4-9.4,30.9L488.1,799.8z
				 M476.9,691.6l14,96.4c2.4-4.2,5.6-11.6,5-21.6c-0.5-7.7-1.7-11.1-3-14.3c-1.5-4-3-7.8-2.4-17.4c0.9-13.5,1.8-38.5,2-46.4
				c-4.7-1.7-11.7-3-14.5-0.2C477.5,688.6,476.9,689.5,476.9,691.6"/>
			<path class="st1" d="M407.8,424.9c0,0,35.3,7.8,58.3,101.6c18.2,74.4,43.3,189.5,43.3,189.5h-82.6c0,0-22.8-80.4-20.5-122.2
				C408.7,552,363.8,410.2,407.8,424.9"/>
			<path class="st3" d="M407.8,424.9c0,0,35.3,7.8,58.3,101.6c18.2,74.4,43.3,189.5,43.3,189.5h-82.6c0,0-22.8-80.4-20.5-122.2
				C408.7,552,363.8,410.2,407.8,424.9z"/>
		</g>
		<g class="st0">
			<defs>
				<rect id="SVGID_5_" x="-171.9" y="150" width="1031" height="1166"/>
			</defs>
			<clipPath id="SVGID_6_">
				<use xlink:href="#SVGID_5_"  style="overflow:visible;"/>
			</clipPath>
			<path class="st4" d="M436.8,1044.6l33.9,122c0,0,3.9,15.6,27.8,8.2c15.4-4.8,11-19,11-19l-25-123.5L436.8,1044.6z"/>
			<path class="st5" d="M436.8,1044.6l33.9,122c0,0,3.9,15.6,27.8,8.2c15.4-4.8,11-19,11-19l-25-123.5L436.8,1044.6z"/>
			<polygon class="st6" points="423.1,637 529.1,1058 407.1,1079 300.1,638 			"/>
			<polygon class="st5" points="423.1,637 529.1,1058 407.1,1079 300.1,638 			"/>
		</g>
		<g class="st0">
			<defs>
				<rect id="SVGID_7_" x="-171.9" y="150" width="1031" height="1166"/>
			</defs>
			<clipPath id="SVGID_8_">
				<use xlink:href="#SVGID_7_"  style="overflow:visible;"/>
			</clipPath>
			<path class="st7" d="M295.3,1048.3l-2.7,124.2c0,0-0.8,15.7,24.2,15.6c16.1,0,16-14.7,16-14.7l11.6-123.1L295.3,1048.3z"/>
			<path class="st8" d="M295.3,1048.3l-2.7,124.2c0,0-0.8,15.7,24.2,15.6c16.1,0,16-14.7,16-14.7l11.6-123.1L295.3,1048.3z"/>
			<polygon class="st9" points="260.1,636 238.1,1079 367.1,1079 385.1,636 			"/>
			<path class="st10" d="M257.8,646c-0.7,14.3-1.5,28.7-2.2,43c-1.8,34.4-3.5,68.9-5.2,103.3c-2.1,41.7-4.2,83.3-6.4,125
				c-1.8,36.1-3.7,72.1-5.5,108.2l-1.8,35.9c-0.3,5.4-1.3,11.4-0.9,16.8c0,0.2,0,0.5,0,0.8c-0.1,1.2,1.1,2.2,2.2,2.2h112.8h16.2
				c1.3,0,2.2-1,2.2-2.2c0.5-12.4,1-24.9,1.5-37.4c1.2-29.9,2.4-59.8,3.6-89.7c1.4-36,2.9-72,4.3-108c1.3-31.3,2.5-62.5,3.8-93.8
				l1.2-30.9c0.2-4.7,1.1-10,0.6-14.7c0-0.2,0-0.4,0-0.6c0.1-2.9-4.4-2.9-4.5,0l-1.5,37.4c-1.2,29.9-2.4,59.8-3.6,89.7
				c-1.4,36-2.9,72-4.3,108c-1.3,31.3-2.5,62.5-3.8,93.8l-1.2,30.9c-0.1,3.2-0.3,6.4-0.4,9.6c-0.1,1.4-0.6,3.7-0.2,5
				c0.1,0.2,0,0.5,0,0.6l2.2-2.2H254.3h-16.2l2.2,2.2c0.7-14.3,1.5-28.7,2.2-43c1.8-34.4,3.5-68.9,5.2-103.3
				c2.1-41.7,4.2-83.3,6.4-125c1.8-36.1,3.7-72.1,5.5-108.2l1.8-35.9c0.3-5.4,1.3-11.4,0.9-16.8c0-0.2,0-0.5,0-0.8
				C262.5,643.1,258,643.1,257.8,646"/>
		</g>
		<g class="st0">
			<defs>
				<rect id="SVGID_9_" x="-171.9" y="150" width="1031" height="1166"/>
			</defs>
			<clipPath id="SVGID_10_">
				<use xlink:href="#SVGID_9_"  style="overflow:visible;"/>
			</clipPath>
			<path class="st11" d="M285.4,1223h64.3c0,0,7.4-21.3-3.3-36.8c-7.2-10.4-9.1-17.8-9.5-21.5c-0.2-1.6-1.5-2.7-3.1-2.7h-45.3
				c0,0,0.4,20.1-5.4,27C275.7,1197.8,279.8,1216.2,285.4,1223"/>
			<path class="st12" d="M285.4,1223h64.3c0,0,7.4-21.3-3.3-36.8c-7.2-10.4-9.1-17.8-9.5-21.5c-0.2-1.6-1.5-2.7-3.1-2.7h-45.3
				c0,0,0.4,20.1-5.4,27C275.7,1197.8,279.8,1216.2,285.4,1223z"/>
		</g>
		<g class="st0">
			<defs>
				<rect id="SVGID_11_" x="-171.9" y="150" width="1031" height="1166"/>
			</defs>
			<clipPath id="SVGID_12_">
				<use xlink:href="#SVGID_11_"  style="overflow:visible;"/>
			</clipPath>
			<path class="st13" d="M469.5,1163.8c0,0-21.9,26.3-2.6,51.3l117.9,5.9c0,0,4.8-27.2-25.9-30.4c-30.7-3.2-45.1-22.8-46.2-34.8
				L469.5,1163.8z"/>
			<path class="st14" d="M469.5,1163.8c0,0-21.9,26.3-2.6,51.3l117.9,5.9c0,0,4.8-27.2-25.9-30.4c-30.7-3.2-45.1-22.8-46.2-34.8
				L469.5,1163.8z"/>
		</g>
		<g class="st0">
			<defs>
				<rect id="SVGID_13_" x="-171.9" y="150" width="1031" height="1166"/>
			</defs>
			<clipPath id="SVGID_14_">
				<use xlink:href="#SVGID_13_"  style="overflow:visible;"/>
			</clipPath>
			<path class="st15" d="M316.1,406c0,0-2-11,20-12s10.3,30.4,10.3,30.4s-10.3,34.6-6.3,43.6s-36,6-36,6S316.1,419,316.1,406"/>
			<path class="st16" d="M316.1,406c0,0-2-11,20-12s10.3,30.4,10.3,30.4s-10.3,34.6-6.3,43.6s-36,6-36,6S316.1,419,316.1,406z"/>
		</g>
		<g class="st0">
			<defs>
				<rect id="SVGID_15_" x="-171.9" y="150" width="1031" height="1166"/>
			</defs>
			<clipPath id="SVGID_16_">
				<use xlink:href="#SVGID_15_"  style="overflow:visible;"/>
			</clipPath>
			<path class="st17" d="M229.3,687h244.8c0,0-16.2-197.3-43-238.3c-37-56.7-103.3-47.2-161.1-30.2C217.1,434.1,229.3,687,229.3,687
				"/>
			<path class="st18" d="M229.3,687h244.8c0,0-16.2-197.3-43-238.3c-37-56.7-103.3-47.2-161.1-30.2C217.1,434.1,229.3,687,229.3,687
				z"/>
		</g>
		<g class="st0">
			<defs>
				<rect id="SVGID_17_" x="-171.9" y="150" width="1031" height="1166"/>
			</defs>
			<clipPath id="SVGID_18_">
				<use xlink:href="#SVGID_17_"  style="overflow:visible;"/>
			</clipPath>
			<path class="st19" d="M307.1,658.7c-16,21.5-21,44.9-11.2,52.2c9.8,7.3,30.8-4.2,46.7-25.8c16-21.5,21-44.9,11.2-52.2
				C344,625.6,323,637.2,307.1,658.7"/>
			<path class="st20" d="M308.7,635.1l79.5,85.7c0,0-13.3,14.8-39.7-14.5c-26.4-29.3-47.2-42.6-64-43
				C267.6,662.9,282.1,610.4,308.7,635.1"/>
			<path class="st19" d="M307.1,636.7c23.2,25,46.3,50,69.5,75c3.3,3.6,6.7,7.2,10,10.8v-3.2c-4.1,4.5-12,3.3-17.1,1.1
				c-9-3.9-15.6-11.4-22.1-18.5c-7.1-7.7-14.5-15.1-22.6-21.7c-10.5-8.6-22.7-17-36.4-18.8c-3.9-0.5-6.9,0-8.4-4.2
				c-1.4-4.1-0.5-8.9,0.8-12.9c1.6-4.8,4.5-9.9,9.2-12.3C296.3,628.8,302.5,632.5,307.1,636.7c2.1,1.9,5.3-1.2,3.2-3.2
				c-9.2-8.3-21.3-10.2-29.3,0.7c-5.1,6.9-9.4,20.4-3.3,28c3.3,4.1,8.4,3.1,13.1,4.1c8,1.7,15.3,5.7,22,10.3
				c9.6,6.6,18.2,14.6,26.3,23c8,8.3,15.3,17.7,25.6,23.3c7.2,4,18.7,6.5,25.1-0.5c0.8-0.9,0.9-2.3,0-3.2c-23.2-25-46.3-50-69.5-75
				c-3.3-3.6-6.7-7.2-10-10.8C308.3,631.4,305.1,634.6,307.1,636.7"/>
			<path class="st20" d="M261.1,424c0,0-4,0.4-26.7,36.1c-22.7,35.7-43.1,82.3-39.9,105.5c3.2,23.2,24.8,67.5,54.7,97
				c29.9,29.5,43.2,41.2,43.2,41.2s-7.4-30.2,19.1-49.1c26.5-18.9,40.7-19.8,40.7-19.8s-14.3-20.5-47.7-30.2L260.3,575
				C260.3,575,270.7,483.4,261.1,424"/>
			<path class="st19" d="M259.4,422.4c-9.8,11.8-18.6,24.5-26.9,37.3c-15.5,24-29.9,50.1-36.8,78c-2.9,12-4.4,24.7-2.2,36.9
				c2.2,12,7.2,23.5,13.1,34.1c13.2,23.8,31.1,44.9,49.8,64.5c11.5,12.1,23.6,23.8,36.3,34.6c1.9,1.6,4.3-0.4,3.3-2.5
				c-6.9-15,0.7-33.6,12.7-44.4c11.6-10.5,28.7-22.3,45-23.1c1.9-0.1,2.7-2.2,1.5-3.6c-5.9-6.5-12.8-12.2-19.9-17.3
				c-6.1-4.3-12.6-8-19.5-10.8c-4.8-1.9-9.5-3.5-14.1-5.8c-20.3-10.5-38.9-24.6-57-38.4c-5-3.8-9.9-7.6-14.8-11.5
				c-2.1-1.7-5.1,1.3-3,3c12.4,9.9,25.1,19.4,38,28.6c9.6,6.8,19.3,13.4,29.5,19.2c10.1,5.7,21.4,8.7,31.4,14.6
				c9.7,5.7,18.9,13,26.4,21.4c0.5-1.2,1-2.4,1.5-3.6c-5.2,0.3-10.6,2-15.4,3.8c-13,5-25.5,13.1-35.2,23c-11.8,12-18.1,31-10.7,47
				c1.1-0.8,2.2-1.7,3.3-2.5c-29.6-24.9-57.6-54.2-78.6-86.7c-13.7-21.3-23.6-44.2-19.3-69.9c4.6-28.1,18.5-54.5,33.3-78.5
				c9.5-15.3,19.8-30.4,31.3-44.3C264.1,423.3,261.1,420.3,259.4,422.4"/>
			<path class="st20" d="M259.8,575.5c0,0,6.6-26.5,7.1-76.1"/>
			<path class="st19" d="M261.8,576.1c6.1-24.7,6.9-51.4,7.2-76.7c0-2.7-4.2-2.7-4.2,0c-0.3,24.9-1,51.2-7.1,75.6
				C257.1,577.6,261.1,578.7,261.8,576.1"/>
		</g>
		<g class="st0">
			<defs>
				<rect id="SVGID_19_" x="-171.9" y="150" width="1031" height="1166"/>
			</defs>
			<clipPath id="SVGID_20_">
				<use xlink:href="#SVGID_19_"  style="overflow:visible;"/>
			</clipPath>
			<path class="st21" d="M387.1,343.5c0,21.8-13.9,39.5-31,39.5c-17.1,0-31-17.7-31-39.5c0-21.8,13.9-39.5,31-39.5
				C373.2,304,387.1,321.7,387.1,343.5"/>
			<ellipse class="st22" cx="356.1" cy="343.5" rx="31" ry="39.5"/>
		</g>
		<g class="st0">
			<defs>
				<rect id="SVGID_21_" x="-171.9" y="150" width="1031" height="1166"/>
			</defs>
			<clipPath id="SVGID_22_">
				<use xlink:href="#SVGID_21_"  style="overflow:visible;"/>
			</clipPath>
			<path class="st23" d="M368.8,374c0,0,0,19,8,34c5.3,9.9-14.3,18.1-29.4,14.7c-9.8-2.2-15.9-11.8-9.6-19.7
				c4.1-5.1,10.5-16.3,12-32C352.8,339,367.8,363,368.8,374"/>
			<path class="st24" d="M368.8,374c0,0,0,19,8,34c5.3,9.9-14.3,18.1-29.4,14.7c-9.8-2.2-15.9-11.8-9.6-19.7
				c4.1-5.1,10.5-16.3,12-32C352.8,339,367.8,363,368.8,374z"/>
		</g>
		<g class="st0">
			<defs>
				<rect id="SVGID_23_" x="-171.9" y="150" width="1031" height="1166"/>
			</defs>
			<clipPath id="SVGID_24_">
				<use xlink:href="#SVGID_23_"  style="overflow:visible;"/>
			</clipPath>
			<path class="st25" d="M340.6,386.5c4.1-0.3,11.3,8.7,28,1c13-6,15.6,24.5,10,31c-6,7-10,7-25,7s-24-8-24-14
				C329.6,411.5,326.6,387.5,340.6,386.5"/>
			<path class="st26" d="M340.6,386.5c4.1-0.3,11.3,8.7,28,1c13-6,15.6,24.5,10,31c-6,7-10,7-25,7s-24-8-24-14
				C329.6,411.5,326.6,387.5,340.6,386.5z"/>
		</g>
		<g class="st0">
			<defs>
				<rect id="SVGID_25_" x="-171.9" y="150" width="1031" height="1166"/>
			</defs>
			<clipPath id="SVGID_26_">
				<use xlink:href="#SVGID_25_"  style="overflow:visible;"/>
			</clipPath>
			<path class="st27" d="M378.6,387.5c0,0,19,11,10,36s-42,77,3,148l-59,10c0,0-17-58-4-97s33-49,35-62
				C365.9,407.7,371.6,384.5,378.6,387.5"/>
			<path class="st28" d="M378.6,387.5c0,0,19,11,10,36s-42,77,3,148l-59,10c0,0-17-58-4-97s33-49,35-62
				C365.9,407.7,371.6,384.5,378.6,387.5z"/>
		</g>
		<g class="st0">
			<defs>
				<rect id="SVGID_27_" x="-171.9" y="150" width="1031" height="1166"/>
			</defs>
			<clipPath id="SVGID_28_">
				<use xlink:href="#SVGID_27_"  style="overflow:visible;"/>
			</clipPath>
			<path class="st29" d="M384.1,348c0,20.4-12.5,37-28,37c-15.5,0-28-16.6-28-37c0-20.4,12.5-37,28-37
				C371.5,311,384.1,327.6,384.1,348"/>
			<ellipse class="st30" cx="356.1" cy="348" rx="28" ry="37"/>
		</g>
		<g class="st0">
			<defs>
				<rect id="SVGID_29_" x="-171.9" y="150" width="1031" height="1166"/>
			</defs>
			<clipPath id="SVGID_30_">
				<use xlink:href="#SVGID_29_"  style="overflow:visible;"/>
			</clipPath>
			<path class="st31" d="M329.1,342c0,0,4.7-14.8,27-14.8c22.3,0,27,14.8,27,14.8s-3.5-31-27-31C332.6,311,329.1,342,329.1,342"/>
			<path class="st31" d="M330.5,342.4c6.2-18.8,44.9-18.8,51.1,0c0.5,1.5,3.2,1.4,2.9-0.4c-1.3-10.6-6.1-22.7-15.4-28.7
				c-14.8-9.7-31.3-0.1-37.7,14.4c-2,4.5-3.4,9.4-4,14.3c-0.2,1.9,2.8,1.9,3,0c1.6-13.3,10-29.5,25.5-29.5s23.9,16.2,25.5,29.5
				c1-0.1,2-0.3,2.9-0.4c-7.2-21.7-49.7-21.7-56.9,0C327,343.4,329.9,344.2,330.5,342.4"/>
		</g>
	</g>
</g>
<line class="st32" x1="125.8" y1="698" x2="563.2" y2="698"/>
</svg>
