<?xml version="1.0" encoding="utf-8"?>
<!-- Generator: Adobe Illustrator 23.0.1, SVG Export Plug-In . SVG Version: 6.00 Build 0)  -->
<svg version="1.1" id="Calque_1" xmlns="http://www.w3.org/2000/svg" xmlns:xlink="http://www.w3.org/1999/xlink" x="0px" y="0px"
	 viewBox="0 0 360 650" style="enable-background:new 0 0 360 650;" xml:space="preserve">
<style type="text/css">
	.st0{fill:#FFFFFF;stroke:#312F2F;stroke-width:4;stroke-miterlimit:10;}
	.st1{fill:#2E5AA6;stroke:#312F2F;stroke-width:4;stroke-miterlimit:10;}
	.st2{fill:#312F2F;stroke:#312F2F;stroke-width:4;stroke-miterlimit:10;}
	.st3{fill:#312F2F;}
	.st4{fill:#FAB532;stroke:#312F2F;stroke-width:4;stroke-miterlimit:10;}
</style>
<path class="st0" d="M71,506c0,0-27,52-53,71c0,0-11,7,13,10c0,0,46-39,57-69L71,506z"/>
<path class="st1" d="M161,245h76c0,0,20,134-135,308l-66-47c0,0,105-154,120-261H161"/>
<path class="st0" d="M269,541l19,60c0,0,6,13,18,0l-15-64L269,541z"/>
<path class="st1" d="M156,245h81l102,308h-92C247,553,181,380,156,245z"/>
<path class="st2" d="M26.52,567.13c0,0-19.53,4.32-19.55,22.76l52.34,44.96c0,0,11.94-10.83-1.06-23.32
	c-13-12.49-12.66-26.7-8.86-32.66L26.52,567.13z"/>
<path class="st2" d="M284,603c0,0-12,16,0,30h69c0,0,2-16-16-17s-27-12-28-19L284,603z"/>
<path class="st0" d="M290,253c0,0,11,5,17,23s15,29,23,36s5,21,5,21l-75-88L290,253z"/>
<path class="st0" d="M197,96c0,0,21,2,41,32s25,72,33,86s39,55,44,71c0,0-30-18-65,0L197,96z"/>
<path class="st0" d="M171.05,101.58c0,0,5.95-13.58,2.95-30.58c0,0,20-2,29,12c0,0-5.02,19.22,2.49,35.61L171.05,101.58z"/>
<path class="st0" d="M179,22c0,0,31-7,39,29s-8,36-21,30s-32-12-34-33S179,22,179,22z"/>
<g>
	<path class="st3" d="M201.99,44.24c0.87-3.21,2.42-7.37,5.03-10.21c2.26-2.46,1.97-6.27-0.7-8.27c-7.07-5.31-20.1-11.36-35.32-0.77
		c-23,16-2,46,5,49c0,0,5.13-2.57,10.26-3.07c1.93-0.19,3.38-1.86,3.2-3.79c-0.16-1.85-0.2-3.98,0.23-5.44
		c0.39-1.33,0.07-2.77-0.76-3.9c-1.96-2.66-4.17-7.68-0.93-14.8c3.28-7.22,7.85-2.38,10.61,1.8
		C199.51,46.16,201.57,45.81,201.99,44.24z"/>
	<g>
		<path class="st3" d="M203.44,44.64c0.62-2.13,1.29-4.27,2.37-6.22c0.93-1.68,2.47-3.05,3.32-4.76c1.25-2.5,1.19-5.42-0.51-7.7
			c-3.13-4.21-10.3-6.83-15.22-7.78c-13.34-2.57-29.45,5.62-33.4,19.06c-3.22,10.93,1.72,23.13,8.42,31.73
			c1.52,1.95,4.57,6.25,7.38,6.5c2.23,0.2,5.29-1.97,7.49-2.51c2.65-0.64,5.55-0.45,7.04-3.14c0.77-1.39,0.49-2.6,0.53-4.11
			c0.05-1.85,0.62-3.92,0.43-5.77c-0.18-1.79-1.3-2.89-2.05-4.43c-1.17-2.41-1.57-4.76-1.19-7.42c0.46-3.24,2.46-9,6.52-5.91
			c1.54,1.17,2.14,3.4,3.82,4.38c2,1.17,3.76,0.26,4.89-1.57c1.02-1.65-1.57-3.15-2.59-1.51c-0.45,0.73-4.72-4.06-4.99-4.26
			c-1.3-0.93-2.77-1.63-4.4-1.34c-4.34,0.77-6.06,7.13-6.37,10.78c-0.19,2.26,0.1,4.47,0.92,6.59c0.35,0.91,0.92,1.7,1.29,2.58
			c0.76,1.84,0.76,3.74,0.76,5.74c-0.01,1.96,0.33,3.22-0.99,4.72c-1.42,1.61-3.19,1.43-5.2,1.98c-1.55,0.42-3.12,0.92-4.59,1.58
			c-0.6,0.27-2.11,0.55-1.22,0.7c0.65,0.11-1.86-1.79-2.45-2.38c-1.41-1.39-2.66-2.95-3.8-4.57c-2.84-4-5.1-8.5-6.43-13.22
			c-3.8-13.47,2.93-25.34,16.11-30.14c7.34-2.67,15.13-1.75,21.91,1.98c1.01,0.55,2.32,1.15,3.14,1.96c0.6,0.59,2.55,4.13,2.51,5.07
			c-0.03,0.75-1.66,2.47-2.09,3.13c-1.96,2.96-3.27,6.05-4.25,9.44C200.01,45.7,202.9,46.5,203.44,44.64z"/>
	</g>
</g>
<path class="st4" d="M205,108c0,0,5-17-17-27s-35,11-67,4S61,59,57,53L42,96c0,0,29,29,88,12S205,108,205,108z"/>
<path class="st0" d="M130,270h118c0,0-15-159-46-175s-49,11-54,30S130,270,130,270z"/>
<path class="st0" d="M161.95,275.69c0,0,8.35,8.73,7.23,27.67c-1.13,18.94,3.14,32.5,7.96,41.97c4.82,9.47-3.17,21.35-3.17,21.35
	l-36.89-109.58L161.95,275.69z"/>
<path class="st0" d="M175,93c-7.54,0-13.84,5.22-15.54,12.23c-0.01,0.02-0.02,0.03-0.03,0.05C157.88,110.57,140,176,126,212
	s4,103,4,103c21-12,56-6,56-6c1-22,5-200,5-200C191,100.16,183.84,93,175,93z"/>
</svg>
