<?xml version="1.0" encoding="UTF-8" standalone="no"?>
<svg
   xmlns:dc="http://purl.org/dc/elements/1.1/"
   xmlns:cc="http://creativecommons.org/ns#"
   xmlns:rdf="http://www.w3.org/1999/02/22-rdf-syntax-ns#"
   xmlns:svg="http://www.w3.org/2000/svg"
   xmlns="http://www.w3.org/2000/svg"
   xmlns:sodipodi="http://sodipodi.sourceforge.net/DTD/sodipodi-0.dtd"
   xmlns:inkscape="http://www.inkscape.org/namespaces/inkscape"
   viewBox="0 0 50 50"
   version="1.1"
   id="svg10"
   sodipodi:docname="plus.svg"
   inkscape:version="0.92.4 (5da689c313, 2019-01-14)">
  <metadata
     id="metadata16">
    <rdf:RDF>
      <cc:Work
         rdf:about="">
        <dc:format>image/svg+xml</dc:format>
        <dc:type
           rdf:resource="http://purl.org/dc/dcmitype/StillImage" />
        <dc:title>bouton +Fichier 8</dc:title>
      </cc:Work>
    </rdf:RDF>
  </metadata>
  <defs
     id="defs14" />
  <sodipodi:namedview
     pagecolor="#ffffff"
     bordercolor="#666666"
     borderopacity="1"
     objecttolerance="10"
     gridtolerance="10"
     guidetolerance="10"
     inkscape:pageopacity="0"
     inkscape:pageshadow="2"
     inkscape:window-width="1920"
     inkscape:window-height="1017"
     id="namedview12"
     showgrid="false"
     inkscape:zoom="11.504805"
     inkscape:cx="3.1209408"
     inkscape:cy="26.687625"
     inkscape:window-x="-8"
     inkscape:window-y="-8"
     inkscape:window-maximized="1"
     inkscape:current-layer="layer2" />
  <title
     id="title2">bouton +Fichier 8</title>
  <g
     id="Calque_2"
     data-name="Calque 2"
     transform="translate(22.363813,-0.83667924)" />
  <g
     inkscape:groupmode="layer"
     id="layer2"
     inkscape:label="Layer 2"
     transform="translate(22.363813,0.55332076)">
    <ellipse
       style="opacity:1;fill:#ffffff;fill-opacity:1;stroke:none;stroke-width:0.28703767;stroke-linecap:round;stroke-linejoin:round;stroke-miterlimit:4;stroke-dasharray:none;stroke-opacity:1"
       id="path820"
       cx="3.1196394"
       cy="25.18792"
       rx="20.466803"
       ry="20.712648" />
  </g>
  <g
     inkscape:groupmode="layer"
     id="layer3"
     inkscape:label="Layer 3"
     transform="translate(22.363813,0.55332076)">
    <g
       id="fond"
       transform="translate(-6.3920335,0.82262719)">
      <g
         inkscape:groupmode="layer"
         id="layer1"
         inkscape:label="Layer 1" />
      <g
         id="g821"
         transform="translate(-6.5149576)">
        <path
           style="opacity:1;fill:#004b78;fill-opacity:1;stroke:none;stroke-width:1.08337021;stroke-linecap:round;stroke-linejoin:round;stroke-miterlimit:4;stroke-dasharray:none;stroke-opacity:1;paint-order:markers stroke fill"
           d="M 0 0 L 0 50 L 50 50 L 50 0 L 0 0 z M 22.574219 11.640625 L 27.373047 11.640625 C 27.657491 11.640625 27.87145 11.747604 28.013672 11.960938 C 28.155894 12.174271 28.226563 12.422587 28.226562 12.707031 L 28.226562 21.773438 L 37.292969 21.773438 C 37.577413 21.773438 37.825729 21.844106 38.039062 21.986328 C 38.252396 22.12855 38.359375 22.342509 38.359375 22.626953 L 38.359375 27.425781 C 38.359375 27.710226 38.252396 27.924184 38.039062 28.066406 C 37.825729 28.208628 37.577413 28.279297 37.292969 28.279297 L 28.226562 28.279297 L 28.226562 37.292969 C 28.226562 37.577413 28.155894 37.825729 28.013672 38.039062 C 27.87145 38.252396 27.657491 38.359375 27.373047 38.359375 L 22.574219 38.359375 C 22.289774 38.359375 22.075816 38.252396 21.933594 38.039062 C 21.791372 37.825729 21.720703 37.577413 21.720703 37.292969 L 21.720703 28.279297 L 12.707031 28.279297 C 12.422587 28.279297 12.174271 28.208628 11.960938 28.066406 C 11.747604 27.924184 11.640625 27.710226 11.640625 27.425781 L 11.640625 22.626953 C 11.640625 22.342509 11.747604 22.12855 11.960938 21.986328 C 12.174271 21.844106 12.422587 21.773438 12.707031 21.773438 L 21.720703 21.773438 L 21.720703 12.707031 C 21.720703 12.422587 21.791372 12.174271 21.933594 11.960938 C 22.075816 11.747604 22.289774 11.640625 22.574219 11.640625 z "
           transform="translate(-9.4568219,-1.3759479)"
           id="rect820" />
      </g>
    </g>
  </g>
</svg>
