<svg width="683" height="459" viewBox="0 0 683 459" fill="none" xmlns="http://www.w3.org/2000/svg">
<rect x="1" y="1" width="681" height="457" rx="19" fill="white" stroke="#5A8D8C" stroke-width="2"/>
<path d="M503 34V1H661.478C669.224 1 674.307 3.76609 677.474 7.63075C680.668 11.5289 682 16.653 682 21.4754V34H503Z" fill="white" stroke="#5A8D8C" stroke-width="2"/>
<path d="M359 34V1H517.478C525.224 1 530.307 3.76609 533.474 7.63075C536.668 11.5289 538 16.653 538 21.4754V34H359Z" fill="white" stroke="#5A8D8C" stroke-width="2"/>
<path d="M17.5 1H369.478C377.224 1 382.307 3.76609 385.474 7.63075C388.668 11.5289 390 16.653 390 21.4754V34H1V17.5C1 8.3873 8.38729 1 17.5 1Z" fill="white" stroke="#5A8D8C" stroke-width="2"/>
<rect x="76" y="133" width="349" height="82" rx="10" fill="#71C0A0"/>
<circle cx="21" cy="19" r="5" fill="#CB563E"/>
<circle cx="37" cy="19" r="5" fill="#FDE8D5"/>
<circle cx="54" cy="19" r="5" fill="#71C0A0"/>
<path d="M262.5 241H84.5C80.3579 241 77 244.358 77 248.5C77 252.642 80.3579 256 84.5 256H262.5C266.642 256 270 252.642 270 248.5C270 244.358 266.642 241 262.5 241Z" fill="#CB563E"/>
<path d="M262.5 356H84.5C80.3579 356 77 359.358 77 363.5C77 367.642 80.3579 371 84.5 371H262.5C266.642 371 270 367.642 270 363.5C270 359.358 266.642 356 262.5 356Z" fill="#CB563E"/>
<path d="M314.5 265H80.5C78.567 265 77 266.567 77 268.5C77 270.433 78.567 272 80.5 272H314.5C316.433 272 318 270.433 318 268.5C318 266.567 316.433 265 314.5 265Z" fill="#71C0A0"/>
<path d="M314.5 378H80.5C78.567 378 77 379.567 77 381.5C77 383.433 78.567 385 80.5 385H314.5C316.433 385 318 383.433 318 381.5C318 379.567 316.433 378 314.5 378Z" fill="#71C0A0"/>
<path d="M421.5 281H80.5C78.567 281 77 282.567 77 284.5C77 286.433 78.567 288 80.5 288H421.5C423.433 288 425 286.433 425 284.5C425 282.567 423.433 281 421.5 281Z" fill="#71C0A0"/>
<path d="M421.5 392H80.5C78.567 392 77 393.567 77 395.5C77 397.433 78.567 399 80.5 399H421.5C423.433 399 425 397.433 425 395.5C425 393.567 423.433 392 421.5 392Z" fill="#71C0A0"/>
<path d="M412.5 406H80.5C78.567 406 77 407.567 77 409.5C77 411.433 78.567 413 80.5 413H412.5C414.433 413 416 411.433 416 409.5C416 407.567 414.433 406 412.5 406Z" fill="#71C0A0"/>
<path d="M399.5 420H80.5C78.567 420 77 421.567 77 423.5C77 425.433 78.567 427 80.5 427H399.5C401.433 427 403 425.433 403 423.5C403 421.567 401.433 420 399.5 420Z" fill="#71C0A0"/>
<path d="M314.5 313H80.5C78.567 313 77 314.567 77 316.5C77 318.433 78.567 320 80.5 320H314.5C316.433 320 318 318.433 318 316.5C318 314.567 316.433 313 314.5 313Z" fill="#71C0A0"/>
<path d="M314.5 297H80.5C78.567 297 77 298.567 77 300.5C77 302.433 78.567 304 80.5 304H314.5C316.433 304 318 302.433 318 300.5C318 298.567 316.433 297 314.5 297Z" fill="#CB563E"/>
<rect x="77" y="72" width="347" height="21" rx="10.5" stroke="#5A8D8C" stroke-width="2"/>
<path fill-rule="evenodd" clip-rule="evenodd" d="M408.958 78.1654C406.864 78.1654 405.167 79.863 405.167 81.957C405.167 84.0511 406.864 85.7487 408.958 85.7487C411.053 85.7487 412.75 84.0511 412.75 81.957C412.75 79.863 411.053 78.1654 408.958 78.1654ZM404.083 81.957C404.083 79.2646 406.266 77.082 408.958 77.082C411.651 77.082 413.833 79.2646 413.833 81.957C413.833 84.6494 411.651 86.832 408.958 86.832C406.266 86.832 404.083 84.6494 404.083 81.957Z" fill="#CB563E"/>
<path fill-rule="evenodd" clip-rule="evenodd" d="M411.636 84.6344C411.847 84.4229 412.19 84.4229 412.402 84.6344L414.758 86.9907C414.97 87.2022 414.97 87.5452 414.758 87.7567C414.547 87.9682 414.204 87.9682 413.992 87.7567L411.636 85.4005C411.424 85.1889 411.424 84.846 411.636 84.6344Z" fill="#CB563E"/>
<rect x="442" y="127" width="216" height="286" rx="10" fill="#71C0A0"/>
<path fill-rule="evenodd" clip-rule="evenodd" d="M375.589 12.412C375.915 12.7375 375.915 13.2651 375.589 13.5906L365.589 23.5906C365.264 23.916 364.736 23.916 364.411 23.5906C364.085 23.2651 364.085 22.7375 364.411 22.412L374.411 12.412C374.736 12.0866 375.264 12.0866 375.589 12.412Z" fill="#5A8D8C"/>
<path fill-rule="evenodd" clip-rule="evenodd" d="M364.411 12.412C364.736 12.0866 365.264 12.0866 365.589 12.412L375.589 22.412C375.915 22.7375 375.915 23.2651 375.589 23.5906C375.264 23.916 374.736 23.916 374.411 23.5906L364.411 13.5906C364.085 13.2651 364.085 12.7375 364.411 12.412Z" fill="#5A8D8C"/>
<path fill-rule="evenodd" clip-rule="evenodd" d="M669.589 12.412C669.915 12.7375 669.915 13.2651 669.589 13.5906L659.589 23.5906C659.264 23.916 658.736 23.916 658.411 23.5906C658.085 23.2651 658.085 22.7375 658.411 22.412L668.411 12.412C668.736 12.0866 669.264 12.0866 669.589 12.412Z" fill="#5A8D8C"/>
<path fill-rule="evenodd" clip-rule="evenodd" d="M658.411 12.412C658.736 12.0866 659.264 12.0866 659.589 12.412L669.589 22.412C669.915 22.7375 669.915 23.2651 669.589 23.5906C669.264 23.916 668.736 23.916 668.411 23.5906L658.411 13.5906C658.085 13.2651 658.085 12.7375 658.411 12.412Z" fill="#5A8D8C"/>
<path fill-rule="evenodd" clip-rule="evenodd" d="M517.589 12.412C517.915 12.7375 517.915 13.2651 517.589 13.5906L507.589 23.5906C507.264 23.916 506.736 23.916 506.411 23.5906C506.085 23.2651 506.085 22.7375 506.411 22.412L516.411 12.412C516.736 12.0866 517.264 12.0866 517.589 12.412Z" fill="#5A8D8C"/>
<path fill-rule="evenodd" clip-rule="evenodd" d="M506.411 12.412C506.736 12.0866 507.264 12.0866 507.589 12.412L517.589 22.412C517.915 22.7375 517.915 23.2651 517.589 23.5906C517.264 23.916 516.736 23.916 516.411 23.5906L506.411 13.5906C506.085 13.2651 506.085 12.7375 506.411 12.412Z" fill="#5A8D8C"/>
<rect x="16" y="74" width="43" height="15" rx="7.5" fill="#CB563E"/>
<rect x="387" y="102" width="38" height="8" rx="4" fill="#71C0A0"/>
<rect x="449" y="134" width="97" height="97" rx="5" fill="#426262"/>
<rect x="553" y="134" width="97" height="97" rx="5" fill="#CB563E"/>
<rect x="449" y="240" width="97" height="97" rx="5" fill="#426262"/>
<rect x="553" y="240" width="97" height="97" rx="5" fill="#426262"/>
<path d="M646.5 346H452.5C450.567 346 449 347.567 449 349.5C449 351.433 450.567 353 452.5 353H646.5C648.433 353 650 351.433 650 349.5C650 347.567 648.433 346 646.5 346Z" fill="#426262"/>
<path d="M627.5 362H452.5C450.567 362 449 363.567 449 365.5C449 367.433 450.567 369 452.5 369H627.5C629.433 369 631 367.433 631 365.5C631 363.567 629.433 362 627.5 362Z" fill="#426262"/>
<path d="M616.5 378H452.5C450.567 378 449 379.567 449 381.5C449 383.433 450.567 385 452.5 385H616.5C618.433 385 620 383.433 620 381.5C620 379.567 618.433 378 616.5 378Z" fill="#426262"/>
<path d="M607.5 394H452.5C450.567 394 449 395.567 449 397.5C449 399.433 450.567 401 452.5 401H607.5C609.433 401 611 399.433 611 397.5C611 395.567 609.433 394 607.5 394Z" fill="#426262"/>
</svg>
