<?xml version="1.0" encoding="UTF-8" standalone="no"?>
<svg
   xmlns:dc="http://purl.org/dc/elements/1.1/"
   xmlns:cc="http://creativecommons.org/ns#"
   xmlns:rdf="http://www.w3.org/1999/02/22-rdf-syntax-ns#"
   xmlns:svg="http://www.w3.org/2000/svg"
   xmlns="http://www.w3.org/2000/svg"
   xmlns:sodipodi="http://sodipodi.sourceforge.net/DTD/sodipodi-0.dtd"
   xmlns:inkscape="http://www.inkscape.org/namespaces/inkscape"
   viewBox="0 0 1440 1024"
   version="1.1"
   id="svg187"
   sodipodi:docname="background-borne.svg"
   inkscape:version="0.92.4 (5da689c313, 2019-01-14)">
  <metadata
     id="metadata193">
    <rdf:RDF>
      <cc:Work
         rdf:about="">
        <dc:format>image/svg+xml</dc:format>
        <dc:type
           rdf:resource="http://purl.org/dc/dcmitype/StillImage" />
      </cc:Work>
    </rdf:RDF>
  </metadata>
  <defs
     id="defs191" />
  <sodipodi:namedview
     pagecolor="#ffffff"
     bordercolor="#666666"
     borderopacity="1"
     objecttolerance="10"
     gridtolerance="10"
     guidetolerance="10"
     inkscape:pageopacity="0"
     inkscape:pageshadow="2"
     inkscape:window-width="1920"
     inkscape:window-height="1017"
     id="namedview189"
     showgrid="false"
     inkscape:zoom="7.375"
     inkscape:cx="1424.9047"
     inkscape:cy="417.49906"
     inkscape:window-x="-8"
     inkscape:window-y="-8"
     inkscape:window-maximized="1"
     inkscape:current-layer="Arbres" />
  <title
     id="title2">ONTIENTLEBONBOUT(partie1)</title>
  <g
     id="Pont">
    <g
       id="train">
      <g
         id="train-2">
        <rect
           id="rect4"
           x="58.82"
           y="611.09"
           width="7.39"
           height="4.14"
           rx="0.91"
           style="fill:#8fc3e2" />
        <rect
           id="rect6"
           x="68.42"
           y="611.09"
           width="7.39"
           height="4.14"
           rx="0.91"
           style="fill:#8fc3e2" />
      </g>
      <rect
         id="rect9"
         x="1423.8002"
         y="542.33502"
         width="677.90997"
         height="12.65"
         style="fill:#8dc2e2"
         transform="rotate(3.722092)" />
      <rect
         id="rect11"
         x="10.2"
         y="643.62"
         width="12.79"
         height="3.39"
         style="fill:#8dc2e2" />
      <rect
         id="rect13"
         x="8.46"
         y="647.02"
         width="15.84"
         height="3.39"
         style="fill:#8dc2e2" />
      <rect
         id="rect15"
         x="12.86"
         y="650.42"
         width="7.03"
         height="27.89"
         style="fill:#8dc2e2" />
      <rect
         id="rect17"
         x="140.96"
         y="643.62"
         width="12.79"
         height="3.39"
         style="fill:#8dc2e2" />
      <rect
         id="rect19"
         x="254.98"
         y="630.97"
         width="1150.11"
         height="12.65"
         style="fill:#8dc2e2" />
      <rect
         id="rect21"
         x="779.29"
         y="643.62"
         width="12.79"
         height="3.39"
         style="fill:#8dc2e2" />
      <rect
         id="rect23"
         x="777.54"
         y="647.02"
         width="15.84"
         height="3.39"
         style="fill:#8dc2e2" />
      <rect
         id="rect25"
         x="781.95"
         y="650.42"
         width="7.03"
         height="78.77"
         style="fill:#8dc2e2" />
      <rect
         id="rect27"
         x="682.93"
         y="643.62"
         width="12.79"
         height="3.39"
         style="fill:#8dc2e2" />
      <rect
         id="rect29"
         x="681.19"
         y="647.02"
         width="15.84"
         height="3.39"
         style="fill:#8dc2e2" />
      <rect
         id="rect31"
         x="685.59"
         y="650.42"
         width="7.03"
         height="78.77"
         style="fill:#8dc2e2" />
      <rect
         id="rect33"
         x="586.58"
         y="643.62"
         width="12.79"
         height="3.39"
         style="fill:#8dc2e2" />
      <rect
         id="rect35"
         x="584.83"
         y="647.02"
         width="15.84"
         height="3.39"
         style="fill:#8dc2e2" />
      <rect
         id="rect37"
         x="589.23"
         y="650.42"
         width="7.03"
         height="55.47"
         style="fill:#8dc2e2" />
      <rect
         id="rect39"
         x="490.22"
         y="643.62"
         width="12.79"
         height="3.39"
         style="fill:#8dc2e2" />
      <rect
         id="rect41"
         x="488.47"
         y="647.02"
         width="15.84"
         height="3.39"
         style="fill:#8dc2e2" />
      <rect
         id="rect43"
         x="492.88"
         y="650.42"
         width="7.03"
         height="35.32"
         style="fill:#8dc2e2" />
      <rect
         id="rect45"
         x="393.86"
         y="643.62"
         width="12.79"
         height="3.39"
         style="fill:#8dc2e2" />
      <rect
         id="rect47"
         x="392.11"
         y="647.02"
         width="15.84"
         height="3.39"
         style="fill:#8dc2e2" />
      <rect
         id="rect49"
         x="396.52"
         y="650.42"
         width="7.03"
         height="27.89"
         style="fill:#8dc2e2" />
      <rect
         id="rect51"
         x="880.99"
         y="643.62"
         width="12.79"
         height="3.39"
         style="fill:#8dc2e2" />
      <rect
         id="rect53"
         x="879.24"
         y="647.02"
         width="15.84"
         height="3.39"
         style="fill:#8dc2e2" />
      <rect
         id="rect55"
         x="883.65"
         y="650.42"
         width="7.03"
         height="78.77"
         style="fill:#8dc2e2" />
      <rect
         id="rect57"
         x="982.69"
         y="643.62"
         width="12.79"
         height="3.39"
         style="fill:#8dc2e2" />
      <rect
         id="rect59"
         x="980.94"
         y="647.02"
         width="15.84"
         height="3.39"
         style="fill:#8dc2e2" />
      <rect
         id="rect61"
         x="985.34"
         y="650.42"
         width="7.03"
         height="78.77"
         style="fill:#8dc2e2" />
      <rect
         id="rect63"
         x="1084.38"
         y="643.62"
         width="12.79"
         height="3.39"
         style="fill:#8dc2e2" />
      <rect
         id="rect65"
         x="1082.63"
         y="647.02"
         width="15.84"
         height="3.39"
         style="fill:#8dc2e2" />
      <rect
         id="rect67"
         x="1087.04"
         y="650.42"
         width="7.03"
         height="78.77"
         style="fill:#8dc2e2" />
      <rect
         id="rect69"
         x="1186.08"
         y="643.62"
         width="12.79"
         height="3.39"
         style="fill:#8dc2e2" />
      <rect
         id="rect71"
         x="1184.33"
         y="647.02"
         width="15.84"
         height="3.39"
         style="fill:#8dc2e2" />
      <rect
         id="rect73"
         x="1188.74"
         y="650.42"
         width="7.03"
         height="78.77"
         style="fill:#8dc2e2" />
      <rect
         id="rect75"
         x="1287.77"
         y="643.62"
         width="12.79"
         height="3.39"
         style="fill:#8dc2e2" />
      <rect
         id="rect77"
         x="1286.03"
         y="647.02"
         width="15.84"
         height="3.39"
         style="fill:#8dc2e2" />
      <rect
         id="rect79"
         x="1290.43"
         y="650.42"
         width="7.03"
         height="78.77"
         style="fill:#8dc2e2" />
    </g>
  </g>
  <g
     id="prairire_au_loin"
     data-name="prairire au loin">
    <path
       id="path82"
       d="M-697.4,761.69c5.06-3.41,10-7,14.92-10.54,26.18-19.19,114.11-77.14,244-95.77C-282,632.92-168.7,673-.16,639.85,236,593.37,286,630.7,372.82,655.38c75.59,21.49,289.75,67,440.43,69.9s330.32-69.31,463.61-63.13,256.63-118,468.78,95.24c0,0,26.7,122-329.7,115.88C1062.5,867.16-947.27,930.41-697.4,761.69Z"
       style="fill:#e5eec9" />
  </g>
  <g
     id="Arbres">
    <rect
       id="rect53-4"
       x="-36.9"
       y="490.59"
       width="71.36"
       height="208.08"
       style="fill:#8dc2e2" />
    <rect
       id="fenetre-38-8"
       x="1.02"
       y="500.82"
       width="9.97"
       height="17.83"
       style="fill:#cae2f1" />
    <rect
       id="fenetre-39-9"
       x="16.36"
       y="500.82"
       width="9.97"
       height="17.83"
       style="fill:#cae2f1" />
    <rect
       id="fenetre-42-2"
       x="1.02"
       y="524.78"
       width="9.97"
       height="17.83"
       style="fill:#cae2f1" />
    <rect
       id="fenetre-43-7"
       x="16.36"
       y="524.78"
       width="9.97"
       height="17.83"
       style="fill:#cae2f1" />
    <rect
       id="fenetre-46-5"
       x="1.02"
       y="548.72"
       width="9.97"
       height="17.83"
       style="fill:#cae2f1" />
    <rect
       id="fenetre-47-7"
       x="16.36"
       y="548.72"
       width="9.97"
       height="17.83"
       style="fill:#cae2f1" />
    <rect
       id="fenetre-50-8"
       x="1.02"
       y="572.67"
       width="9.97"
       height="17.83"
       style="fill:#cae2f1" />
    <rect
       id="fenetre-51-7"
       x="16.36"
       y="572.67"
       width="9.97"
       height="17.83"
       style="fill:#cae2f1" />
    <rect
       id="fenetre-54-3"
       x="1.02"
       y="596.62"
       width="9.97"
       height="17.83"
       style="fill:#cae2f1" />
    <rect
       id="fenetre-55-9"
       x="16.36"
       y="596.62"
       width="9.97"
       height="17.83"
       style="fill:#cae2f1" />
    <rect
       id="fenetre-58-2"
       x="1.02"
       y="620.57"
       width="9.97"
       height="17.83"
       style="fill:#cae2f1" />
    <rect
       id="fenetre-59-7"
       x="16.36"
       y="620.57"
       width="9.97"
       height="17.83"
       style="fill:#cae2f1" />
    <rect
       id="fenetre-62-8"
       x="1.02"
       y="644.51"
       width="9.97"
       height="17.83"
       style="fill:#cae2f1" />
    <rect
       id="fenetre-63-0"
       x="16.36"
       y="644.51"
       width="9.97"
       height="17.83"
       style="fill:#cae2f1" />
    <rect
       id="fenetre-66-9"
       x="1.02"
       y="668.46"
       width="9.97"
       height="17.83"
       style="fill:#cae2f1" />
    <rect
       id="fenetre-67"
       x="16.36"
       y="668.46"
       width="9.97"
       height="17.83"
       style="fill:#cae2f1" />
    <rect
       id="rect173"
       x="1385.1511"
       y="535.77356"
       width="54.169998"
       height="157.94"
       style="fill:#8dc2e2" />
    <g
       id="g1032"
       transform="translate(24.271187,0.81355932)">
      <rect
         style="fill:#cae2f1"
         height="13.53"
         width="7.5599999"
         y="542.72998"
         x="1366.4"
         id="fenetre" />
      <rect
         style="fill:#cae2f1"
         height="13.53"
         width="7.5599999"
         y="542.72998"
         x="1378.03"
         id="fenetre-2" />
      <rect
         style="fill:#cae2f1"
         height="13.53"
         width="7.5599999"
         y="542.72998"
         x="1389.67"
         id="fenetre-3" />
      <rect
         style="fill:#cae2f1"
         height="13.53"
         width="7.5599999"
         y="542.72998"
         x="1401.3101"
         id="fenetre-4" />
      <rect
         style="fill:#cae2f1"
         height="13.53"
         width="7.5599999"
         y="560.90997"
         x="1366.4"
         id="fenetre-5" />
      <rect
         style="fill:#cae2f1"
         height="13.53"
         width="7.5599999"
         y="560.90997"
         x="1378.03"
         id="fenetre-6" />
      <rect
         style="fill:#cae2f1"
         height="13.53"
         width="7.5599999"
         y="560.90997"
         x="1389.67"
         id="fenetre-7" />
      <rect
         style="fill:#cae2f1"
         height="13.53"
         width="7.5599999"
         y="560.90997"
         x="1401.3101"
         id="fenetre-8" />
      <rect
         style="fill:#cae2f1"
         height="13.53"
         width="7.5599999"
         y="579.08002"
         x="1366.4"
         id="fenetre-9" />
      <rect
         style="fill:#cae2f1"
         height="13.53"
         width="7.5599999"
         y="579.08002"
         x="1378.03"
         id="fenetre-10" />
      <rect
         style="fill:#cae2f1"
         height="13.53"
         width="7.5599999"
         y="579.08002"
         x="1389.67"
         id="fenetre-11" />
      <rect
         style="fill:#cae2f1"
         height="13.53"
         width="7.5599999"
         y="579.08002"
         x="1401.3101"
         id="fenetre-12" />
      <rect
         style="fill:#cae2f1"
         height="13.53"
         width="7.5599999"
         y="597.26001"
         x="1366.4"
         id="fenetre-13" />
      <rect
         style="fill:#cae2f1"
         height="13.53"
         width="7.5599999"
         y="597.26001"
         x="1378.03"
         id="fenetre-14" />
      <rect
         style="fill:#cae2f1"
         height="13.53"
         width="7.5599999"
         y="597.26001"
         x="1389.67"
         id="fenetre-15" />
      <rect
         style="fill:#cae2f1"
         height="13.53"
         width="7.5599999"
         y="597.26001"
         x="1401.3101"
         id="fenetre-16" />
      <rect
         style="fill:#cae2f1"
         height="13.53"
         width="7.5599999"
         y="615.44"
         x="1366.4"
         id="fenetre-17" />
      <rect
         style="fill:#cae2f1"
         height="13.53"
         width="7.5599999"
         y="615.44"
         x="1378.03"
         id="fenetre-18" />
      <rect
         style="fill:#cae2f1"
         height="13.53"
         width="7.5599999"
         y="615.44"
         x="1389.67"
         id="fenetre-19" />
      <rect
         style="fill:#cae2f1"
         height="13.53"
         width="7.5599999"
         y="615.44"
         x="1401.3101"
         id="fenetre-20" />
      <rect
         style="fill:#cae2f1"
         height="13.53"
         width="7.5599999"
         y="633.62"
         x="1366.4"
         id="fenetre-21" />
      <rect
         style="fill:#cae2f1"
         height="13.53"
         width="7.5599999"
         y="633.62"
         x="1378.03"
         id="fenetre-22" />
      <rect
         style="fill:#cae2f1"
         height="13.53"
         width="7.5599999"
         y="633.62"
         x="1389.67"
         id="fenetre-23" />
      <rect
         style="fill:#cae2f1"
         height="13.53"
         width="7.5599999"
         y="633.62"
         x="1401.3101"
         id="fenetre-24" />
      <rect
         style="fill:#cae2f1"
         height="13.53"
         width="7.5599999"
         y="651.78998"
         x="1366.4"
         id="fenetre-25" />
      <rect
         style="fill:#cae2f1"
         height="13.53"
         width="7.5599999"
         y="651.78998"
         x="1378.03"
         id="fenetre-26" />
      <rect
         style="fill:#cae2f1"
         height="13.53"
         width="7.5599999"
         y="651.78998"
         x="1389.67"
         id="fenetre-27" />
      <rect
         style="fill:#cae2f1"
         height="13.53"
         width="7.5599999"
         y="651.78998"
         x="1401.3101"
         id="fenetre-28" />
      <rect
         style="fill:#cae2f1"
         height="13.53"
         width="7.5599999"
         y="669.96997"
         x="1366.4"
         id="fenetre-29" />
      <rect
         style="fill:#cae2f1"
         height="13.53"
         width="7.5599999"
         y="669.96997"
         x="1378.03"
         id="fenetre-30" />
      <rect
         style="fill:#cae2f1"
         height="13.53"
         width="7.5599999"
         y="669.96997"
         x="1389.67"
         id="fenetre-31" />
      <rect
         style="fill:#cae2f1"
         height="13.53"
         width="7.5599999"
         y="669.96997"
         x="1401.3101"
         id="fenetre-32" />
    </g>
    <path
       id="path95"
       d="M269.49,630s-5.52-.67-7.39,10.71c-1.69,10.29,3.39,12.12,7.39,12.12Z"
       style="fill:#9db56b" />
    <path
       id="path97"
       d="M269.49,630s5.52-.67,7.39,10.71c1.69,10.29-3.39,12.12-7.39,12.12Z"
       style="fill:#b6c891" />
    <rect
       id="rect99"
       x="268.69"
       y="652.79"
       width="1.62"
       height="9.89"
       style="fill:#5e7e8f" />
    <path
       id="path101"
       d="M518,675.7s-5.52-.67-7.39,10.72c-1.69,10.29,3.39,12.11,7.39,12.11Z"
       style="fill:#9db56b" />
    <path
       id="path103"
       d="M518,675.7s5.53-.67,7.39,10.72C527,696.71,522,698.53,518,698.53Z"
       style="fill:#b6c891" />
    <rect
       id="rect105"
       x="517.15"
       y="698.53"
       width="1.62"
       height="9.89"
       style="fill:#5e7e8f" />
    <path
       id="path107"
       d="M467.78,661.53s-4-.48-5.31,7.7c-1.22,7.4,2.44,8.72,5.31,8.72Z"
       style="fill:#9db56b" />
    <path
       id="path109"
       d="M467.78,661.53s4-.48,5.32,7.7c1.21,7.4-2.44,8.72-5.32,8.72Z"
       style="fill:#b6c891" />
    <rect
       id="rect111"
       x="467.21"
       y="677.95"
       width="1.17"
       height="7.11"
       style="fill:#5e7e8f" />
    <path
       id="path113"
       d="M529.83,670s-4-.48-5.32,7.7c-1.21,7.4,2.44,8.71,5.32,8.71Z"
       style="fill:#9db56b" />
    <path
       id="path115"
       d="M529.83,670s4-.48,5.31,7.7c1.22,7.4-2.44,8.71-5.31,8.71Z"
       style="fill:#b6c891" />
    <rect
       id="rect117"
       x="529.25"
       y="686.45"
       width="1.17"
       height="7.11"
       style="fill:#5e7e8f" />
    <path
       id="path119"
       d="M612.41,690.1s-2.9-.35-3.89,5.65c-.89,5.42,1.79,6.38,3.89,6.38Z"
       style="fill:#9db56b" />
    <path
       id="path121"
       d="M612.41,690.1s2.91-.35,3.9,5.65c.89,5.42-1.79,6.38-3.9,6.38Z"
       style="fill:#b6c891" />
    <rect
       id="rect123"
       x="611.99"
       y="702.14"
       width="0.85"
       height="5.21"
       style="fill:#5e7e8f" />
    <path
       id="path125"
       d="M344.41,660s-9.19-1.11-12.29,17.82c-2.81,17.12,5.64,20.16,12.29,20.16Z"
       style="fill:#9db56b" />
    <path
       id="path127"
       d="M344.41,660s9.19-1.11,12.3,17.82c2.81,17.12-5.65,20.16-12.3,20.16Z"
       style="fill:#b6c891" />
    <rect
       id="rect129"
       x="343.08"
       y="697.96"
       width="2.7"
       height="16.45"
       style="fill:#5e7e8f" />
    <path
       id="path131"
       d="M374.22,660.2s-6.33-.76-8.48,12.29c-1.93,11.8,3.9,13.9,8.48,13.9Z"
       style="fill:#9db56b" />
    <path
       id="path133"
       d="M374.22,660.2s6.34-.76,8.48,12.29c1.94,11.8-3.89,13.9-8.48,13.9Z"
       style="fill:#b6c891" />
    <rect
       id="rect135"
       x="373.31"
       y="686.39"
       width="1.86"
       height="11.34"
       style="fill:#5e7e8f" />
    <path
       id="path137"
       d="M1163.75,644.81s-6.33-.77-8.47,12.28c-1.94,11.8,3.89,13.9,8.47,13.9Z"
       style="fill:#9db56b" />
    <path
       id="path139"
       d="M1163.75,644.81s6.34-.77,8.48,12.28c1.94,11.8-3.89,13.9-8.48,13.9Z"
       style="fill:#b6c891" />
    <rect
       id="rect141"
       x="1162.84"
       y="670.99"
       width="1.86"
       height="11.34"
       style="fill:#5e7e8f" />
    <path
       id="path143"
       d="M1306.77,631.1s-6.34-.77-8.48,12.29c-1.94,11.8,3.89,13.89,8.48,13.89Z"
       style="fill:#9db56b" />
    <path
       id="path145"
       d="M1306.77,631.1s6.33-.77,8.47,12.29c1.94,11.8-3.89,13.89-8.47,13.89Z"
       style="fill:#b6c891" />
    <rect
       id="rect147"
       x="1305.85"
       y="657.31"
       width="1.86"
       height="11.34"
       style="fill:#5e7e8f" />
    <path
       id="path149"
       d="M1346,636.67s-4.4-.53-5.89,8.55c-1.35,8.2,2.7,9.66,5.89,9.66Z"
       style="fill:#9db56b" />
    <path
       id="path151"
       d="M1346,636.67s4.4-.53,5.89,8.55c1.35,8.2-2.7,9.66-5.89,9.66Z"
       style="fill:#b6c891" />
    <rect
       id="rect153"
       x="1345.35"
       y="654.88"
       width="1.29"
       height="7.88"
       style="fill:#5e7e8f" />
    <rect
       id="rect161"
       x="1138.81"
       y="677.21"
       width="2.57"
       height="18.15"
       style="fill:#5e7e8f" />
    <polygon
       id="polygon163"
       points="1125.36 677.21 1140.1 631.71 1140.1 677.21 1125.36 677.21"
       style="fill:#9db56b" />
    <polyline
       id="polyline165"
       points="1154.83 677.07 1140.1 631.57 1140.1 677.07"
       style="fill:#b6c891" />
    <rect
       id="rect167"
       x="1325.65"
       y="684.52"
       width="2.57"
       height="18.15"
       style="fill:#5e7e8f" />
    <polygon
       id="polygon169"
       points="1312.2 684.52 1326.94 639.02 1326.94 684.52 1312.2 684.52"
       style="fill:#9db56b" />
    <polyline
       id="polyline171"
       points="1341.68 684.38 1326.94 638.88 1326.94 684.38"
       style="fill:#b6c891" />
    <rect
       id="rect207"
       x="303.3"
       y="676.41"
       width="1.63"
       height="10.78"
       style="fill:#5e7e8f" />
    <polygon
       id="polygon209"
       points="294.8 676.41 304.11 649.39 304.11 676.41 294.8 676.41"
       style="fill:#9db56b" />
    <polyline
       id="polyline211"
       points="313.42 676.32 304.11 649.31 304.11 676.32"
       style="fill:#b6c891" />
    <rect
       id="rect213"
       x="446.63"
       y="675.54"
       width="1.63"
       height="10.78"
       style="fill:#5e7e8f" />
    <polygon
       id="polygon215"
       points="438.13 675.54 447.44 648.53 447.44 675.54 438.13 675.54"
       style="fill:#9db56b" />
    <polyline
       id="polyline217"
       points="456.75 675.46 447.44 648.45 447.44 675.46"
       style="fill:#b6c891" />
    <rect
       id="rect219"
       x="26.41"
       y="520.25"
       width="54.17"
       height="157.94"
       style="fill:#8dc2e2" />
    <rect
       id="fenetre-33"
       x="31.92"
       y="528.02"
       width="7.56"
       height="13.53"
       style="fill:#cae2f1" />
    <rect
       id="fenetre-34"
       x="43.56"
       y="528.02"
       width="7.56"
       height="13.53"
       style="fill:#cae2f1" />
    <rect
       id="fenetre-35"
       x="55.2"
       y="528.02"
       width="7.56"
       height="13.53"
       style="fill:#cae2f1" />
    <rect
       id="fenetre-36"
       x="66.84"
       y="528.02"
       width="7.56"
       height="13.53"
       style="fill:#cae2f1" />
    <rect
       id="fenetre-37"
       x="31.92"
       y="546.2"
       width="7.56"
       height="13.53"
       style="fill:#cae2f1" />
    <rect
       id="fenetre-38"
       x="43.56"
       y="546.2"
       width="7.56"
       height="13.53"
       style="fill:#cae2f1" />
    <rect
       id="fenetre-39"
       x="55.2"
       y="546.2"
       width="7.56"
       height="13.53"
       style="fill:#cae2f1" />
    <rect
       id="fenetre-40"
       x="66.84"
       y="546.2"
       width="7.56"
       height="13.53"
       style="fill:#cae2f1" />
    <rect
       id="fenetre-41"
       x="31.92"
       y="564.38"
       width="7.56"
       height="13.53"
       style="fill:#cae2f1" />
    <rect
       id="fenetre-42"
       x="43.56"
       y="564.38"
       width="7.56"
       height="13.53"
       style="fill:#cae2f1" />
    <rect
       id="fenetre-43"
       x="55.2"
       y="564.38"
       width="7.56"
       height="13.53"
       style="fill:#cae2f1" />
    <rect
       id="fenetre-44"
       x="66.84"
       y="564.38"
       width="7.56"
       height="13.53"
       style="fill:#cae2f1" />
    <rect
       id="fenetre-45"
       x="31.92"
       y="582.55"
       width="7.56"
       height="13.53"
       style="fill:#cae2f1" />
    <rect
       id="fenetre-46"
       x="43.56"
       y="582.55"
       width="7.56"
       height="13.53"
       style="fill:#cae2f1" />
    <rect
       id="fenetre-47"
       x="55.2"
       y="582.55"
       width="7.56"
       height="13.53"
       style="fill:#cae2f1" />
    <rect
       id="fenetre-48"
       x="66.84"
       y="582.55"
       width="7.56"
       height="13.53"
       style="fill:#cae2f1" />
    <rect
       id="fenetre-49"
       x="31.92"
       y="600.73"
       width="7.56"
       height="13.53"
       style="fill:#cae2f1" />
    <rect
       id="fenetre-50"
       x="43.56"
       y="600.73"
       width="7.56"
       height="13.53"
       style="fill:#cae2f1" />
    <rect
       id="fenetre-51"
       x="55.2"
       y="600.73"
       width="7.56"
       height="13.53"
       style="fill:#cae2f1" />
    <rect
       id="fenetre-52"
       x="66.84"
       y="600.73"
       width="7.56"
       height="13.53"
       style="fill:#cae2f1" />
    <rect
       id="fenetre-53"
       x="31.92"
       y="618.91"
       width="7.56"
       height="13.53"
       style="fill:#cae2f1" />
    <rect
       id="fenetre-54"
       x="43.56"
       y="618.91"
       width="7.56"
       height="13.53"
       style="fill:#cae2f1" />
    <rect
       id="fenetre-55"
       x="55.2"
       y="618.91"
       width="7.56"
       height="13.53"
       style="fill:#cae2f1" />
    <rect
       id="fenetre-56"
       x="66.84"
       y="618.91"
       width="7.56"
       height="13.53"
       style="fill:#cae2f1" />
    <rect
       id="fenetre-57"
       x="31.92"
       y="637.09"
       width="7.56"
       height="13.53"
       style="fill:#cae2f1" />
    <rect
       id="fenetre-58"
       x="43.56"
       y="637.09"
       width="7.56"
       height="13.53"
       style="fill:#cae2f1" />
    <rect
       id="fenetre-59"
       x="55.2"
       y="637.09"
       width="7.56"
       height="13.53"
       style="fill:#cae2f1" />
    <rect
       id="fenetre-60"
       x="66.84"
       y="637.09"
       width="7.56"
       height="13.53"
       style="fill:#cae2f1" />
    <rect
       id="fenetre-61"
       x="31.92"
       y="655.26"
       width="7.56"
       height="13.53"
       style="fill:#cae2f1" />
    <rect
       id="fenetre-62"
       x="43.56"
       y="655.26"
       width="7.56"
       height="13.53"
       style="fill:#cae2f1" />
    <rect
       id="fenetre-63"
       x="55.2"
       y="655.26"
       width="7.56"
       height="13.53"
       style="fill:#cae2f1" />
    <rect
       id="fenetre-64"
       x="66.84"
       y="655.26"
       width="7.56"
       height="13.53"
       style="fill:#cae2f1" />
  </g>
  <g
     id="Eau">
    <path
       id="path84"
       d="M4319.6,762.82l748,17.95A950.79,950.79,0,0,1,5184.05,789l587.75,77.8c-203.55,5.33-586,69.43-1050.5,69.51-1537.52.28-4060-83.28-4698.65-80.87-831.57,3.15-1488.29-52.62-1488.29-52.62s313.32-40.58,861.61-36.19c225.85,1.81,420.55.82,603.86-2.49,261.72-4.73,497.53-12.38,744.74-7.91,420.36,7.6,696.94,7.25,696.94,7.25l294-35.39a730.66,730.66,0,0,1,133-3.8l535.63,35.55q15.21,1,30.45,1.21l445,1.82h1440"
       style="fill:#80bbde" />
    <g
       id="bateau">
      <line
         id="line264"
         x1="663.36"
         y1="783.39"
         x2="848.98"
         y2="783.39"
         style="fill:none;stroke:#f2f2f2;stroke-miterlimit:10" />
      <line
         id="line266"
         x1="674.45"
         y1="778.31"
         x2="860.08"
         y2="778.31"
         style="fill:none;stroke:#f2f2f2;stroke-miterlimit:10" />
      <line
         id="line268"
         x1="709.24"
         y1="789.15"
         x2="844.34"
         y2="788.46"
         style="fill:none;stroke:#f2f2f2;stroke-miterlimit:10" />
      <line
         id="line270"
         x1="439.04"
         y1="783.72"
         x2="360.53"
         y2="783.72"
         style="fill:none;stroke:#f2f2f2;stroke-miterlimit:10" />
      <line
         id="line272"
         x1="435.96"
         y1="788.8"
         x2="384.47"
         y2="788.8"
         style="fill:none;stroke:#f2f2f2;stroke-miterlimit:10" />
      <line
         id="line274"
         x1="426.31"
         y1="777.96"
         x2="388.83"
         y2="778.65"
         style="fill:none;stroke:#f2f2f2;stroke-miterlimit:10" />
    </g>
  </g>
  <g
     id="Herbe">
    <path
       id="path88"
       d="m 4319.6,824.1 c -318.24,3.16 -845,0.08 -1438.91,0 -1340.0648,-2.84317 -2516.51154,9.80414 -2865,-1.8 -10.14,-0.32667 -20.28,-0.20333 -30.42,0.37 -187.31,10.81 -1214.17,13.58 -1513.44,33 -307.82,20 -507.89,-13.37 -754.19,-20.24 -246.3,-6.87 -514.36,41.78 -760.61,43.22 -246.25,1.44 -593.77,-16.38 -1086.28,-23 -492.51,-6.62 -946.53,-20.19 -946.53,-20.19 -364.78,0 -566.79,107 -686.82,117.33 V 1025 L 7201,1026 V 868.29 c -1.09,0.11 -1428.14,-1.64 -1429.23,-1.54 -100.1,9.72 -1324.37,-42.65 -1452.19,-42.65"
       style="fill:#c5e567"
       inkscape:connector-curvature="0"
       sodipodi:nodetypes="cccccsssccccccc" />
  </g>
  <g
     id="Route">
    <path
       id="path280"
       d="m 1542.18,1024.1 h -3100.32 v 0 c 0,-68.88 56.24,-124.72 125.66,-124.74 l 2869.0678,0.54237 c 69.42,0.0131 105.6022,55.32763 105.5822,124.20763 z"
       style="fill:#79787d"
       inkscape:connector-curvature="0"
       sodipodi:nodetypes="ccccscc" />
    <path
       id="path282"
       d="M-1440.54,945.11c66.55-.58,2880,0,2880,0s59,.42,61.31,78.89"
       style="fill:none;stroke:#fff;stroke-miterlimit:5;stroke-width:3px;stroke-dasharray:80" />
  </g>
</svg>
