<svg width="103" height="103" viewBox="0 0 103 103" fill="none" xmlns="http://www.w3.org/2000/svg">
<path d="M93.4496 100.068H8.82278C5.22008 100.068 2.20557 97.0538 2.20557 93.4511V8.82425C2.20557 5.14802 5.22008 2.20703 8.82278 2.20703H93.4496C97.0523 2.20703 100.067 5.14802 100.067 8.82425V93.4511C100.067 97.0538 97.0523 100.068 93.4496 100.068Z" fill="#456A6F"/>
<path d="M94.4056 102.199H7.86714C3.52919 102.199 0 98.6701 0 94.3321V7.86713C0 3.52918 3.52919 0 7.86714 0H94.4056C98.7436 0 102.273 3.52918 102.273 7.86713V94.4056C102.273 98.7436 98.7436 102.199 94.4056 102.199ZM7.86714 4.41148C5.9555 4.41148 4.41148 5.95549 4.41148 7.86713V94.4056C4.41148 96.3173 5.9555 97.8613 7.86714 97.8613H94.4056C96.3173 97.8613 97.8613 96.3173 97.8613 94.4056V7.86713C97.8613 5.95549 96.3173 4.41148 94.4056 4.41148H7.86714Z" fill="#71C0A0"/>
<path d="M51.1731 25.3672C36.9828 25.3672 25.4395 36.837 25.4395 51.1008C25.4395 65.2911 36.9093 76.8344 51.1731 76.8344C65.3633 76.8344 76.9067 65.3646 76.9067 51.1008C76.8332 36.9106 65.3633 25.3672 51.1731 25.3672ZM63.7458 56.8357C62.2753 58.6738 60.2166 59.7032 58.0109 59.7032C56.9815 59.7032 56.0257 59.3356 55.364 58.6003C54.8493 58.0856 54.5552 57.4239 54.4082 56.6887C52.8641 58.7474 50.9525 59.7032 48.5997 59.7032C46.0264 59.7032 43.453 57.6445 43.453 53.7477C43.453 47.8657 48.3056 43.0131 54.1876 43.0131C55.9522 43.0131 57.7168 43.3807 59.0402 43.9689C59.2608 44.0424 59.3343 44.263 59.3343 44.4836L57.8638 52.2772C57.3491 54.777 57.6432 55.8064 57.9373 56.174C58.0844 56.3946 58.305 56.4681 58.6726 56.4681C58.6726 56.4681 58.6726 56.4681 58.7461 56.4681C59.4078 56.4681 60.0696 56.174 60.7313 55.5123C62.1282 54.1888 62.8635 51.8361 62.8635 49.0421C62.8635 42.719 59.0402 38.8222 52.9377 38.7487C45.7322 38.7487 40.512 44.5571 40.512 52.5713C40.512 59.262 44.7764 63.747 51.0995 63.747C53.5259 63.747 55.6581 63.2324 57.3491 62.2766C57.4962 62.203 57.6432 62.203 57.7903 62.2766C57.9373 62.3501 58.0109 62.4236 58.0844 62.5706L58.7461 64.4088C58.8196 64.6293 58.7461 64.9234 58.5255 64.997C56.1727 66.2469 53.7464 66.7616 50.6584 66.7616C46.9822 66.7616 43.6 65.4381 41.1002 63.0118C38.4533 60.4384 37.0563 56.9093 37.0563 52.7919C37.0563 43.0866 44.0412 35.7342 53.3053 35.7342C61.0254 35.7342 66.3927 41.1015 66.3927 48.748C66.2456 52.1302 65.3633 54.8506 63.7458 56.8357Z" fill="#71C0A0"/>
<path d="M53.5993 46.3242C50.1436 46.3242 47.2026 49.6328 47.2026 53.6032C47.2026 54.4119 47.4232 56.3971 49.5554 56.3971C51.6876 56.3971 53.8934 53.4561 54.3345 50.9563L55.1433 46.5448C54.7021 46.3977 54.1875 46.3242 53.5993 46.3242Z" fill="#71C0A0"/>
</svg>
