<svg width="52" height="52" viewBox="0 0 52 52" fill="none" xmlns="http://www.w3.org/2000/svg">
<path d="M25.7336 0C11.5434 0 0 11.4698 0 25.7336C0 39.9239 11.4698 51.4672 25.7336 51.4672C39.9239 51.4672 51.4672 39.9974 51.4672 25.7336C51.3937 11.5434 39.9239 0 25.7336 0ZM38.3063 31.4685C36.8358 33.3067 34.7772 34.336 32.5714 34.336C31.5421 34.336 30.5862 33.9684 29.9245 33.2331C29.4098 32.7185 29.1157 32.0567 28.9687 31.3215C27.4247 33.3802 25.513 34.336 23.1603 34.336C20.5869 34.336 18.0135 32.2773 18.0135 28.3805C18.0135 22.4985 22.8662 17.6459 28.7481 17.6459C30.5127 17.6459 32.2773 18.0135 33.6008 18.6017C33.8213 18.6753 33.8949 18.8958 33.8949 19.1164L32.4244 26.91C31.9097 29.4098 32.2038 30.4392 32.4979 30.8068C32.6449 31.0274 32.8655 31.1009 33.2331 31.1009C33.2331 31.1009 33.2331 31.1009 33.3067 31.1009C33.9684 31.1009 34.6301 30.8068 35.2918 30.1451C36.6888 28.8217 37.424 26.4689 37.424 23.6749C37.424 17.3518 33.6007 13.455 27.4982 13.3815C20.2928 13.3815 15.0725 19.1899 15.0725 27.2041C15.0725 33.8949 19.337 38.3799 25.6601 38.3799C28.0864 38.3799 30.2186 37.8652 31.9097 36.9094C32.0567 36.8358 32.2038 36.8358 32.3508 36.9094C32.4979 36.9829 32.5714 37.0564 32.6449 37.2035L33.3067 39.0416C33.3802 39.2621 33.3067 39.5563 33.0861 39.6298C30.7333 40.8797 28.307 41.3944 25.219 41.3944C21.5427 41.3944 18.1606 40.0709 15.6607 37.6446C13.0139 35.0712 11.6169 31.5421 11.6169 27.4247C11.6169 17.7194 18.6017 10.367 27.8658 10.367C35.5859 10.367 40.9532 15.7343 40.9532 23.3808C40.8062 26.763 39.9239 29.4834 38.3063 31.4685Z" fill="#71C0A0"/>
<path d="M28.1598 20.957C24.7042 20.957 21.7632 24.2656 21.7632 28.236C21.7632 29.0447 21.9838 31.0299 24.116 31.0299C26.2482 31.0299 28.4539 28.0889 28.8951 25.5891L29.7038 21.1776C29.2627 21.0306 28.748 20.957 28.1598 20.957Z" fill="#71C0A0"/>
</svg>
