<svg width="103" height="103" viewBox="0 0 103 103" fill="none" xmlns="http://www.w3.org/2000/svg">
<path d="M93.6572 100.29H8.84235C5.15795 100.29 2.21045 97.269 2.21045 93.6583V8.91708C2.21045 5.23268 5.15795 2.28516 8.84235 2.28516H93.6572C97.3416 2.28516 100.289 5.23268 100.289 8.91708V93.732C100.289 97.3427 97.268 100.29 93.6572 100.29Z" fill="#456A6F"/>
<path d="M94.6154 102.5H7.8846C3.53701 102.5 0 98.963 0 94.6154V7.88462C0 3.53703 3.53701 0 7.8846 0H94.6154C98.963 0 102.5 3.53703 102.5 7.88462V94.6891C102.5 98.963 98.963 102.5 94.6154 102.5ZM7.8846 4.49497C5.96871 4.49497 4.42126 6.04241 4.42126 7.95829V94.6891C4.42126 96.6049 5.96871 98.1524 7.8846 98.1524H94.6154C96.5313 98.1524 98.0787 96.6049 98.0787 94.6891V7.88462C98.0787 5.96874 96.5313 4.42128 94.6154 4.42128H7.8846V4.49497Z" fill="#71C0A0"/>
<path d="M51.1394 24.5391C36.4018 24.5391 24.3906 36.4765 24.3906 51.2878C24.3906 66.0254 36.3281 78.0365 51.1394 78.0365C65.877 78.0365 77.8881 66.0991 77.8881 51.2878C77.8881 36.5502 65.9506 24.5391 51.1394 24.5391ZM70.3719 52.4668H50.6972C50.1077 52.4668 49.5919 51.951 49.5919 51.3615V34.9291C49.5919 34.3396 50.1077 33.8238 50.6972 33.8238C51.2867 33.8238 51.8026 34.3396 51.8026 34.9291V50.2562H70.3719C70.9614 50.2562 71.4772 50.772 71.4772 51.3615C71.4772 51.951 70.9614 52.4668 70.3719 52.4668Z" fill="#71C0A0"/>
<path d="M51.1396 79.288C35.6651 79.288 23.1382 66.7611 23.1382 51.2866C23.1382 35.8121 35.6651 23.2852 51.1396 23.2852C66.6141 23.2852 79.1411 35.8121 79.1411 51.2866C79.1411 66.7611 66.6141 79.288 51.1396 79.288ZM51.1396 25.7905C37.0652 25.7905 25.6436 37.2122 25.6436 51.2866C25.6436 65.361 37.0652 76.7826 51.1396 76.7826C65.214 76.7826 76.6356 65.361 76.6356 51.2866C76.6356 37.2122 65.214 25.7905 51.1396 25.7905ZM70.3722 53.7183H50.6975C49.3711 53.7183 48.3395 52.6867 48.3395 51.3603V34.9278C48.3395 33.6015 49.3711 32.5698 50.6975 32.5698C52.0239 32.5698 53.0555 33.6015 53.0555 34.9278V49.0023H70.3722C71.6986 49.0023 72.7302 50.0339 72.7302 51.3603C72.7302 52.613 71.6986 53.7183 70.3722 53.7183Z" fill="#456A6F"/>
</svg>
