<svg width="74" height="74" viewBox="0 0 74 74" fill="none" xmlns="http://www.w3.org/2000/svg">
<path d="M66.8844 71.622H6.36747C3.7363 71.622 1.63135 69.5171 1.63135 66.8859V6.36892C1.63135 3.79037 3.78893 1.63281 6.36747 1.63281H66.937C69.5156 1.63281 71.6732 3.79037 71.6732 6.36892V66.9385C71.6205 69.5171 69.5156 71.622 66.8844 71.622Z" fill="#456A6F"/>
<path d="M67.6211 73.1992H5.63072C2.52593 73.1992 0 70.6733 0 67.5685V5.63071C0 2.52592 2.52593 0 5.63072 0H67.5685C70.6733 0 73.1992 2.52592 73.1992 5.63071V67.5685C73.1992 70.6733 70.6733 73.1992 67.6211 73.1992ZM5.63072 3.15741C4.26251 3.15741 3.15741 4.2625 3.15741 5.63071V67.5685C3.15741 68.9367 4.26251 70.0418 5.63072 70.0418H67.5685C68.9367 70.0418 70.0418 68.9367 70.0418 67.5685V5.63071C70.0418 4.2625 68.9367 3.15741 67.5685 3.15741H5.63072Z" fill="#71C0A0"/>
<path d="M51.0449 18.1542L22.3125 18.1016C20.0497 18.1016 18.2079 19.9434 18.2079 22.2062L18.1553 50.9386C18.1553 53.2014 19.9971 55.0432 22.2599 55.0432L36.6261 55.0959L36.6787 40.7296H32.5741V35.6252H36.6787V31.4153C36.6787 26.9949 39.2047 23.8375 44.4144 23.8901H48.098V29.2577H45.6247C43.5724 29.2577 42.783 30.7838 42.783 32.2047V35.6778H48.0454L46.8877 40.7823H42.783L42.7304 55.1485H50.9397C53.2025 55.1485 55.0443 53.3067 55.0443 51.0438L55.0969 22.3114C55.1496 20.0486 53.3077 18.1542 51.0449 18.1542Z" fill="#71C0A0"/>
</svg>
