<svg width="70" height="70" viewBox="0 0 70 70" fill="none" xmlns="http://www.w3.org/2000/svg">
<path d="M63.7018 13.2813L21.0468 1.66888C17.6859 0.760506 14.2109 2.75679 13.3025 6.11773L1.69006 48.7727C0.781682 52.1337 2.77795 55.6087 6.13889 56.5171L27.4559 62.3624L33.3011 41.0454L27.2046 39.3977L29.2537 31.816L35.3503 33.4638L37.0403 27.2109C38.8148 20.6453 43.834 16.9696 51.5509 19.1391L57.0222 20.6179L54.8674 28.5904L51.1938 27.5975C48.1456 26.7736 46.3605 28.7234 45.7901 30.8338L44.3959 35.9924L52.212 38.1049L48.4434 45.2219L42.3467 43.5741L36.5015 64.891L48.6946 68.1865C52.0556 69.0949 55.5306 67.0986 56.439 63.7377L68.0514 21.0827C69.0379 17.7429 67.0628 14.1897 63.7018 13.2813Z" fill="#71C0A0"/>
</svg>
