<svg width="622" height="531" viewBox="0 0 622 531" fill="none" xmlns="http://www.w3.org/2000/svg">
<g clip-path="url(#clip0)">
<path d="M14.9004 382.878C-22.1812 295.644 16.5381 210.049 80.9923 172.931C149.19 133.705 242.303 156.772 303.599 85.6972C364.895 14.6222 401.977 -12.7774 468.185 6.5428C534.394 25.863 514.976 80.7794 514.976 80.7794C511.935 84.2921 500.939 83.5896 487.253 80.8964C461.752 81.0135 424.202 81.3648 398.701 82.3016L381.038 106.657C357.525 153.142 409.697 183.118 409.697 183.118C430.285 204.078 458.593 233.702 459.997 276.792C463.506 385.688 372.264 453.601 263.476 405.593C141.118 336.86 57.8309 395.172 45.4314 441.541C44.8465 443.883 41.5711 444.234 40.6353 441.892C35.8393 430.3 26.1302 409.458 14.9004 382.878Z" fill="#CB563E"/>
<path d="M415.897 191.312C415.897 191.312 398.935 210.515 407.006 233.114C415.078 255.713 444.907 367.068 419.874 528.655H64.8494C64.8494 528.655 105.206 255.713 314.946 212.155C314.946 212.155 371.445 197.635 389.109 157.238L415.897 191.312Z" fill="#F9E9D7"/>
<path d="M366.883 185.578C366.883 185.578 374.604 198.458 393.32 203.142L372.381 180.66L366.883 185.578Z" fill="#DDCEC3"/>
<path d="M414.025 209.112C427.361 208.644 450.054 201.97 464.676 179.722L490.411 143.424L521.41 83.121L420.459 30.0781L396.596 75.627L380.336 106.657C379.634 106.071 378.932 105.603 378.23 105.251C370.159 101.036 359.865 104.783 355.186 113.799C350.507 122.815 353.197 133.354 361.269 137.569C362.321 138.037 363.491 138.506 364.427 138.74C363.023 143.541 363.725 151.503 365.012 158.763C367.702 173.868 374.955 187.801 386.536 197.871C390.279 201.15 394.607 204.077 399.403 206.302C404.082 208.293 408.995 209.229 414.025 209.112Z" fill="#F9E9D7"/>
<path d="M380.453 107.124C380.453 107.124 403.497 119.653 428.413 107.124C468.186 87.2184 478.713 146.936 517.901 80.8954C530.768 59.3504 416.131 19.5391 416.131 19.5391L379.283 105.953L380.453 107.124Z" fill="#CB563E"/>
<path d="M499.184 22.3477C499.184 22.3477 555.333 58.295 545.624 109.933C535.915 161.57 490.411 143.421 490.411 143.421C490.411 143.421 490.411 105.952 514.976 80.8938" fill="#CB563E"/>
<path d="M250.375 190.727C250.375 190.727 219.727 245.643 158.431 256.884C97.1351 268.125 87.426 323.041 87.426 323.041" stroke="url(#paint0_radial)"/>
<path d="M410.866 240.781C416.949 249.329 476.373 395.343 559.427 528.828H442.45L375.773 385.976L410.866 240.781Z" fill="#80BEA3" stroke="#5A8D8C" stroke-width="2" stroke-miterlimit="10" stroke-linecap="round" stroke-linejoin="round"/>
<path d="M314.946 212.158C314.946 212.158 323.719 209.933 335.3 204.781C345.009 227.614 367.585 243.656 394.022 243.656C399.754 243.656 405.252 242.836 410.516 241.431C417.183 270.938 422.798 303.958 426.074 340.14C432.741 413.323 427.828 477.489 419.757 528.659H64.8494C64.8494 528.659 105.206 255.716 314.946 212.158Z" fill="#80BEA3" stroke="#5A8D8C" stroke-width="2" stroke-miterlimit="10" stroke-linecap="round" stroke-linejoin="round"/>
<path d="M404.316 420.347C407.223 420.347 409.58 417.988 409.58 415.078C409.58 412.168 407.223 409.809 404.316 409.809C401.409 409.809 399.052 412.168 399.052 415.078C399.052 417.988 401.409 420.347 404.316 420.347Z" fill="#5A8D8C"/>
<path d="M316.583 244.706C319.491 244.706 321.847 242.347 321.847 239.437C321.847 236.527 319.491 234.168 316.583 234.168C313.676 234.168 311.319 236.527 311.319 239.437C311.319 242.347 313.676 244.706 316.583 244.706Z" fill="#5A8D8C"/>
<path d="M210.135 352.433C213.042 352.433 215.398 350.074 215.398 347.164C215.398 344.254 213.042 341.895 210.135 341.895C207.227 341.895 204.871 344.254 204.871 347.164C204.871 350.074 207.227 352.433 210.135 352.433Z" fill="#5A8D8C"/>
<path d="M247.567 366.484C250.474 366.484 252.831 364.125 252.831 361.214C252.831 358.304 250.474 355.945 247.567 355.945C244.66 355.945 242.303 358.304 242.303 361.214C242.303 364.125 244.66 366.484 247.567 366.484Z" fill="#5A8D8C"/>
<path d="M307.225 391.073C310.133 391.073 312.489 388.714 312.489 385.804C312.489 382.894 310.133 380.535 307.225 380.535C304.318 380.535 301.961 382.894 301.961 385.804C301.961 388.714 304.318 391.073 307.225 391.073Z" fill="#5A8D8C"/>
<path d="M239.379 415.663C242.286 415.663 244.643 413.304 244.643 410.394C244.643 407.484 242.286 405.125 239.379 405.125C236.471 405.125 234.115 407.484 234.115 410.394C234.115 413.304 236.471 415.663 239.379 415.663Z" fill="#5A8D8C"/>
<path d="M192.588 436.738C195.495 436.738 197.852 434.378 197.852 431.468C197.852 428.558 195.495 426.199 192.588 426.199C189.681 426.199 187.324 428.558 187.324 431.468C187.324 434.378 189.681 436.738 192.588 436.738Z" fill="#5A8D8C"/>
<path d="M341.149 509.335C344.056 509.335 346.413 506.976 346.413 504.066C346.413 501.156 344.056 498.797 341.149 498.797C338.242 498.797 335.885 501.156 335.885 504.066C335.885 506.976 338.242 509.335 341.149 509.335Z" fill="#5A8D8C"/>
<path d="M399.637 508.167C402.544 508.167 404.901 505.808 404.901 502.898C404.901 499.988 402.544 497.629 399.637 497.629C396.73 497.629 394.373 499.988 394.373 502.898C394.373 505.808 396.73 508.167 399.637 508.167Z" fill="#5A8D8C"/>
<path d="M110.704 427.37C113.612 427.37 115.968 425.011 115.968 422.101C115.968 419.191 113.612 416.832 110.704 416.832C107.797 416.832 105.44 419.191 105.44 422.101C105.44 425.011 107.797 427.37 110.704 427.37Z" fill="#5A8D8C"/>
<path d="M145.797 514.019C148.705 514.019 151.061 511.66 151.061 508.75C151.061 505.84 148.705 503.48 145.797 503.48C142.89 503.48 140.533 505.84 140.533 508.75C140.533 511.66 142.89 514.019 145.797 514.019Z" fill="#5A8D8C"/>
<path d="M84.9695 502.312C87.8767 502.312 90.2335 499.953 90.2335 497.043C90.2335 494.133 87.8767 491.773 84.9695 491.773C82.0623 491.773 79.7056 494.133 79.7056 497.043C79.7056 499.953 82.0623 502.312 84.9695 502.312Z" fill="#5A8D8C"/>
<path d="M380.921 277.495C383.828 277.495 386.185 275.136 386.185 272.226C386.185 269.316 383.828 266.957 380.921 266.957C378.013 266.957 375.657 269.316 375.657 272.226C375.657 275.136 378.013 277.495 380.921 277.495Z" fill="#5A8D8C"/>
<path d="M404.316 360.628C407.223 360.628 409.58 358.269 409.58 355.359C409.58 352.449 407.223 350.09 404.316 350.09C401.409 350.09 399.052 352.449 399.052 355.359C399.052 358.269 401.409 360.628 404.316 360.628Z" fill="#5A8D8C"/>
<path d="M398.467 317.304C401.374 317.304 403.731 314.945 403.731 312.035C403.731 309.125 401.374 306.766 398.467 306.766C395.56 306.766 393.203 309.125 393.203 312.035C393.203 314.945 395.56 317.304 398.467 317.304Z" fill="#5A8D8C"/>
<path d="M331.79 345.405C334.698 345.405 337.054 343.046 337.054 340.136C337.054 337.226 334.698 334.867 331.79 334.867C328.883 334.867 326.526 337.226 326.526 340.136C326.526 343.046 328.883 345.405 331.79 345.405Z" fill="#5A8D8C"/>
<path d="M372.732 386.39C375.639 386.39 377.996 384.031 377.996 381.121C377.996 378.211 375.639 375.852 372.732 375.852C369.825 375.852 367.468 378.211 367.468 381.121C367.468 384.031 369.825 386.39 372.732 386.39Z" fill="#5A8D8C"/>
<path d="M288.509 336.038C291.416 336.038 293.773 333.679 293.773 330.769C293.773 327.859 291.416 325.5 288.509 325.5C285.602 325.5 283.245 327.859 283.245 330.769C283.245 333.679 285.602 336.038 288.509 336.038Z" fill="#5A8D8C"/>
<path d="M301.376 281.007C304.283 281.007 306.64 278.648 306.64 275.738C306.64 272.828 304.283 270.469 301.376 270.469C298.469 270.469 296.112 272.828 296.112 275.738C296.112 278.648 298.469 281.007 301.376 281.007Z" fill="#5A8D8C"/>
<path d="M249.907 255.245C252.814 255.245 255.17 252.886 255.17 249.976C255.17 247.066 252.814 244.707 249.907 244.707C246.999 244.707 244.643 247.066 244.643 249.976C244.643 252.886 246.999 255.245 249.907 255.245Z" fill="#5A8D8C"/>
<path d="M145.797 464.843C148.705 464.843 151.061 462.484 151.061 459.574C151.061 456.664 148.705 454.305 145.797 454.305C142.89 454.305 140.533 456.664 140.533 459.574C140.533 462.484 142.89 464.843 145.797 464.843Z" fill="#5A8D8C"/>
<path d="M158.665 336.038C161.572 336.038 163.929 333.679 163.929 330.769C163.929 327.859 161.572 325.5 158.665 325.5C155.758 325.5 153.401 327.859 153.401 330.769C153.401 333.679 155.758 336.038 158.665 336.038Z" fill="#5A8D8C"/>
<path d="M341.149 296.23C344.056 296.23 346.413 293.871 346.413 290.961C346.413 288.05 344.056 285.691 341.149 285.691C338.242 285.691 335.885 288.05 335.885 290.961C335.885 293.871 338.242 296.23 341.149 296.23Z" fill="#5A8D8C"/>
<path d="M434.73 332.527C437.637 332.527 439.994 330.168 439.994 327.257C439.994 324.347 437.637 321.988 434.73 321.988C431.823 321.988 429.466 324.347 429.466 327.257C429.466 330.168 431.823 332.527 434.73 332.527Z" fill="#5A8D8C"/>
<path d="M437.07 396.929C439.977 396.929 442.334 394.57 442.334 391.66C442.334 388.75 439.977 386.391 437.07 386.391C434.162 386.391 431.806 388.75 431.806 391.66C431.806 394.57 434.162 396.929 437.07 396.929Z" fill="#5A8D8C"/>
<path d="M454.616 367.655C457.523 367.655 459.88 365.296 459.88 362.386C459.88 359.476 457.523 357.117 454.616 357.117C451.709 357.117 449.352 359.476 449.352 362.386C449.352 365.296 451.709 367.655 454.616 367.655Z" fill="#5A8D8C"/>
<path d="M489.709 470.695C492.616 470.695 494.973 468.335 494.973 465.425C494.973 462.515 492.616 460.156 489.709 460.156C486.802 460.156 484.445 462.515 484.445 465.425C484.445 468.335 486.802 470.695 489.709 470.695Z" fill="#5A8D8C"/>
<path d="M473.332 509.335C476.24 509.335 478.596 506.976 478.596 504.066C478.596 501.156 476.24 498.797 473.332 498.797C470.425 498.797 468.068 501.156 468.068 504.066C468.068 506.976 470.425 509.335 473.332 509.335Z" fill="#5A8D8C"/>
<path d="M431.221 494.116C434.128 494.116 436.484 491.757 436.484 488.847C436.484 485.937 434.128 483.578 431.221 483.578C428.313 483.578 425.957 485.937 425.957 488.847C425.957 491.757 428.313 494.116 431.221 494.116Z" fill="#5A8D8C"/>
<path d="M520.123 514.019C523.03 514.019 525.387 511.66 525.387 508.75C525.387 505.84 523.03 503.48 520.123 503.48C517.216 503.48 514.859 505.84 514.859 508.75C514.859 511.66 517.216 514.019 520.123 514.019Z" fill="#5A8D8C"/>
<path d="M440.579 464.843C443.486 464.843 445.843 462.484 445.843 459.574C445.843 456.664 443.486 454.305 440.579 454.305C437.672 454.305 435.315 456.664 435.315 459.574C435.315 462.484 437.672 464.843 440.579 464.843Z" fill="#5A8D8C"/>
<path d="M162.174 394.585C165.081 394.585 167.438 392.226 167.438 389.316C167.438 386.406 165.081 384.047 162.174 384.047C159.267 384.047 156.91 386.406 156.91 389.316C156.91 392.226 159.267 394.585 162.174 394.585Z" fill="#5A8D8C"/>
<path d="M220.662 307.937C223.57 307.937 225.926 305.578 225.926 302.668C225.926 299.758 223.57 297.398 220.662 297.398C217.755 297.398 215.398 299.758 215.398 302.668C215.398 305.578 217.755 307.937 220.662 307.937Z" fill="#5A8D8C"/>
<path d="M195.629 464.257C195.629 464.257 209.667 351.848 279.853 280.422" stroke="#5A8D8C" stroke-width="2" stroke-miterlimit="10" stroke-linecap="round" stroke-linejoin="round"/>
<path d="M328.749 416.953C328.749 416.953 359.046 355.011 363.959 315.434" stroke="#5A8D8C" stroke-width="2" stroke-miterlimit="10" stroke-linecap="round" stroke-linejoin="round"/>
<path d="M194.928 459.678C194.928 459.678 332.843 403.591 486.668 380.523L525.153 414.949C525.153 414.949 324.421 517.521 246.982 526.538C169.661 535.671 194.928 459.678 194.928 459.678Z" fill="#F9E9D7"/>
<path d="M478.713 383.93C500.939 376.904 586.215 354.54 616.746 410.275C616.746 410.275 616.746 410.393 616.863 410.393C617.214 411.095 619.67 416.247 621.308 421.985C622.127 424.795 618.617 426.668 616.629 424.561C612.769 420.228 607.154 414.959 599.199 410.393C582.823 401.025 561.767 430.181 523.398 418.121C523.164 418.004 522.93 417.886 522.697 417.769L478.011 388.73C476.14 387.56 476.608 384.632 478.713 383.93Z" fill="#F9E9D7"/>
<path d="M425.84 173.517C428.179 174.922 429.7 178.318 430.051 179.84C431.22 179.254 434.145 178.552 437.069 180.308C439.994 182.064 441.047 185.226 441.28 186.631C438.707 189.558 431.922 190.729 424.319 186.28C416.715 181.713 417.066 176.561 418.236 172.814C419.757 172.463 423.383 172.112 425.84 173.517Z" fill="#CB563E"/>
<path d="M353.5 150C358.194 150 362 146.194 362 141.5C362 136.806 358.194 133 353.5 133C348.806 133 345 136.806 345 141.5C345 146.194 348.806 150 353.5 150Z" stroke="white" stroke-width="3"/>
<circle cx="561.5" cy="299.5" r="12.5" fill="#CB563E"/>
</g>
<defs>
<radialGradient id="paint0_radial" cx="0" cy="0" r="1" gradientUnits="userSpaceOnUse" gradientTransform="translate(168.9 256.843) rotate(180) scale(74.594 74.6677)">
<stop stop-color="white"/>
<stop offset="1" stop-color="#CB563E"/>
</radialGradient>
<clipPath id="clip0">
<rect x="0.395264" y="0.570312" width="621.03" height="530.428" fill="white"/>
</clipPath>
</defs>
</svg>
