<svg width="100" height="100" viewBox="0 0 100 100" fill="none" xmlns="http://www.w3.org/2000/svg">
<path d="M90.8908 97.3258H8.5815C5.07746 97.3258 2.14551 94.4653 2.14551 90.8898V8.58053C2.14551 5.07649 5.07746 2.14453 8.5815 2.14453H90.8908C94.3948 2.14453 97.3268 5.07649 97.3268 8.58053V90.8898C97.3268 94.3938 94.3948 97.3258 90.8908 97.3258Z" fill="#456A6F"/>
<path d="M91.8202 99.4004H7.65168C3.43253 99.4004 0 95.9678 0 91.7487V7.65167C0 3.43252 3.43253 0 7.65168 0H91.8202C96.0394 0 99.4719 3.43252 99.4719 7.65167V91.8202C99.4719 96.0394 96.0394 99.4004 91.8202 99.4004ZM7.65168 4.29066C5.79239 4.29066 4.29066 5.79238 4.29066 7.65167V91.8202C4.29066 93.6795 5.79239 95.1812 7.65168 95.1812H91.8202C93.6795 95.1812 95.1812 93.6795 95.1812 91.8202V7.65167C95.1812 5.79238 93.6795 4.29066 91.8202 4.29066H7.65168Z" fill="#71C0A0"/>
<path d="M75.4445 39.0444C75.373 36.899 75.0154 34.7537 74.2288 32.7514C73.5852 31.0351 72.584 29.4619 71.2253 28.1747C69.9381 26.8875 68.3649 25.8148 66.6486 25.1712C64.6463 24.3846 62.501 24.027 60.3556 23.9555C57.5667 23.8125 56.7086 23.8125 49.7005 23.8125C42.6924 23.8125 41.8343 23.8125 39.0453 23.9555C36.9 24.027 34.7547 24.3846 32.7524 25.1712C31.0361 25.8148 29.4629 26.816 28.1757 28.1747C26.8885 29.4619 25.8158 31.0351 25.1722 32.7514C24.3856 34.7537 24.028 36.899 23.9565 39.0444C23.8135 41.8333 23.8135 42.6914 23.8135 49.6995C23.8135 56.7076 23.8135 57.5657 23.9565 60.3547C24.028 62.5 24.3856 64.6453 25.1722 66.6476C25.8158 68.3639 26.8169 69.9372 28.1757 71.2244C29.4629 72.5116 31.0361 73.5842 32.7524 74.2278C34.7547 75.0144 36.9 75.372 39.0453 75.4435C41.8343 75.5865 42.6924 75.5865 49.7005 75.5865C56.7086 75.5865 57.5667 75.5865 60.3556 75.4435C62.501 75.372 64.6463 75.0144 66.6486 74.2278C70.1526 72.8691 72.8701 70.1517 74.2288 66.6476C75.0154 64.6453 75.373 62.5 75.4445 60.3547C75.5875 57.5657 75.5875 56.7076 75.5875 49.6995C75.5875 42.6914 75.516 41.8333 75.4445 39.0444ZM70.7247 60.1401C70.7247 61.7849 70.3672 63.4296 69.8666 64.9314C69.0085 67.1482 67.2207 68.936 64.9323 69.8656C63.4306 70.4377 61.7859 70.7238 60.1411 70.7238C57.4237 70.8668 56.5656 70.8668 49.7005 70.8668C42.8354 70.8668 41.9773 70.8668 39.2599 70.7238C37.6151 70.7238 35.9704 70.3662 34.4686 69.8656C33.3245 69.4366 32.3233 68.793 31.4652 67.9348C30.607 67.0767 29.9634 66.0755 29.5344 64.9314C28.9623 63.4296 28.6762 61.7849 28.6762 60.1401C28.5332 57.4227 28.5332 56.5646 28.5332 49.6995C28.5332 42.8345 28.5332 41.9763 28.6762 39.2589C28.6762 37.6141 29.0338 35.9694 29.5344 34.4676C29.9634 33.3235 30.607 32.3223 31.4652 31.4642C32.3233 30.6061 33.3245 29.9625 34.4686 29.5334C35.9704 28.9613 37.6151 28.6753 39.2599 28.6753C41.9773 28.5322 42.8354 28.5322 49.7005 28.5322C56.5656 28.5322 57.4237 28.5322 60.1411 28.6753C61.7859 28.6753 63.4306 29.0328 64.9323 29.5334C66.0765 29.9625 67.0777 30.6061 67.9358 31.4642C68.7939 32.3223 69.4375 33.3235 69.8666 34.4676C70.4387 35.9694 70.7247 37.6141 70.7247 39.2589C70.8678 41.9763 70.8678 42.8345 70.8678 49.6995C70.8678 56.6361 70.8678 57.4227 70.7247 60.1401ZM49.772 36.47C42.4779 36.47 36.4709 42.4054 36.4709 49.6995C36.4709 56.9936 42.4064 63.0006 49.7005 63.0006C56.9946 63.0006 63.0016 57.0652 63.0016 49.771C63.0016 42.4054 57.0661 36.47 49.772 36.47ZM49.7005 58.3524C44.9093 58.3524 41.1192 54.4908 41.1192 49.771C41.1192 44.9798 44.9808 41.1897 49.7005 41.1897C54.4917 41.1897 58.2818 45.0513 58.2818 49.771C58.3533 54.4908 54.4917 58.3524 49.7005 58.3524ZM66.6486 35.8979C66.6486 37.6141 65.2899 38.9729 63.5736 38.9729C61.8574 38.9729 60.4987 37.6141 60.4987 35.8979C60.4987 34.1816 61.8574 32.8229 63.5736 32.8229C65.2184 32.8229 66.6486 34.2531 66.6486 35.8979Z" fill="#71C0A0"/>
</svg>
