<svg width="53" height="53" viewBox="0 0 53 53" fill="none" xmlns="http://www.w3.org/2000/svg">
<path d="M52.4445 16.0444C52.373 13.899 52.0154 11.7537 51.2288 9.75138C50.5852 8.03512 49.584 6.46188 48.2253 5.17468C46.9381 3.88748 45.3649 2.81481 43.6486 2.17121C41.6463 1.38458 39.501 1.02704 37.3556 0.955531C34.5667 0.812509 33.7086 0.8125 26.7005 0.8125C19.6924 0.8125 18.8343 0.812509 16.0453 0.955531C13.9 1.02704 11.7547 1.38458 9.75236 2.17121C8.03609 2.81481 6.46286 3.81597 5.17566 5.17468C3.88846 6.46188 2.81579 8.03512 2.17219 9.75138C1.38557 11.7537 1.02802 13.899 0.956507 16.0444C0.813485 18.8333 0.813477 19.6914 0.813477 26.6995C0.813477 33.7076 0.813485 34.5657 0.956507 37.3547C1.02802 39.5 1.38557 41.6453 2.17219 43.6476C2.81579 45.3639 3.81695 46.9372 5.17566 48.2244C6.46286 49.5116 8.03609 50.5842 9.75236 51.2278C11.7547 52.0144 13.9 52.372 16.0453 52.4435C18.8343 52.5865 19.6924 52.5865 26.7005 52.5865C33.7086 52.5865 34.5667 52.5865 37.3556 52.4435C39.501 52.372 41.6463 52.0144 43.6486 51.2278C47.1526 49.8691 49.8701 47.1517 51.2288 43.6476C52.0154 41.6453 52.373 39.5 52.4445 37.3547C52.5875 34.5657 52.5875 33.7076 52.5875 26.6995C52.5875 19.6914 52.516 18.8333 52.4445 16.0444ZM47.7247 37.1401C47.7247 38.7849 47.3672 40.4296 46.8666 41.9314C46.0085 44.1482 44.2207 45.936 41.9323 46.8656C40.4306 47.4377 38.7859 47.7238 37.1411 47.7238C34.4237 47.8668 33.5656 47.8668 26.7005 47.8668C19.8354 47.8668 18.9773 47.8668 16.2599 47.7238C14.6151 47.7238 12.9704 47.3662 11.4686 46.8656C10.3245 46.4366 9.3233 45.793 8.46517 44.9348C7.60704 44.0767 6.96343 43.0755 6.53436 41.9314C5.96227 40.4296 5.67623 38.7849 5.67623 37.1401C5.53321 34.4227 5.53321 33.5646 5.53321 26.6995C5.53321 19.8345 5.53321 18.9763 5.67623 16.2589C5.67623 14.6141 6.03378 12.9694 6.53436 11.4676C6.96343 10.3235 7.60704 9.32233 8.46517 8.46419C9.3233 7.60606 10.3245 6.96245 11.4686 6.53339C12.9704 5.9613 14.6151 5.67527 16.2599 5.67527C18.9773 5.53224 19.8354 5.53224 26.7005 5.53224C33.5656 5.53224 34.4237 5.53224 37.1411 5.67527C38.7859 5.67527 40.4306 6.03281 41.9323 6.53339C43.0765 6.96245 44.0777 7.60606 44.9358 8.46419C45.7939 9.32233 46.4375 10.3235 46.8666 11.4676C47.4387 12.9694 47.7247 14.6141 47.7247 16.2589C47.8678 18.9763 47.8678 19.8345 47.8678 26.6995C47.8678 33.6361 47.8678 34.4227 47.7247 37.1401ZM26.772 13.47C19.4779 13.47 13.4709 19.4054 13.4709 26.6995C13.4709 33.9936 19.4064 40.0006 26.7005 40.0006C33.9946 40.0006 40.0016 34.0652 40.0016 26.771C40.0016 19.4054 34.0661 13.47 26.772 13.47ZM26.7005 35.3524C21.9093 35.3524 18.1192 31.4908 18.1192 26.771C18.1192 21.9798 21.9808 18.1897 26.7005 18.1897C31.4917 18.1897 35.2818 22.0513 35.2818 26.771C35.3533 31.4908 31.4917 35.3524 26.7005 35.3524ZM43.6486 12.8979C43.6486 14.6141 42.2899 15.9729 40.5736 15.9729C38.8574 15.9729 37.4987 14.6141 37.4987 12.8979C37.4987 11.1816 38.8574 9.8229 40.5736 9.8229C42.2184 9.8229 43.6486 11.2531 43.6486 12.8979Z" fill="#CB563E"/>
</svg>
