<svg width="72" height="103" viewBox="0 0 72 103" fill="none" xmlns="http://www.w3.org/2000/svg">
<g clip-path="url(#clip0)">
<path d="M13.9999 69.4C13.3999 68 13.4999 66.3 14.1999 64.3C15.9999 59.2 18.3999 55.3 21.4999 52.4C24.5999 49.5 28.5999 46.7 33.5999 43.7C37.4999 41.4 40.4999 39.3 42.5999 37.5C44.6999 35.7 46.1999 33.5 47.1999 30.7C48.2999 27.7 47.9999 24.8 46.3999 22.2C44.7999 19.6 41.9999 17.6 38.1999 16.3C34.8999 15.1 31.4999 14.7 27.8999 15.1C24.3999 15.5 20.0999 16.3 15.0999 17.5C12.2999 18 10.1999 18 8.79988 17.4C6.99988 17 5.89988 15.8 5.19988 14C4.49988 12.2 4.59988 10.3 5.19988 8.3C6.19988 5.7 8.09988 3.9 10.8999 3C15.8999 1 21.3999 0 27.2999 0C33.1999 0 38.7999 0.9 44.1999 2.8C49.7999 4.8 54.4999 7.5 58.1999 11C61.8999 14.5 64.3999 18.4 65.5999 22.6C66.7999 26.9 66.6999 31.2 65.0999 35.6C63.3999 40.4 60.7999 44.2 57.1999 46.9C53.5999 49.6 48.8999 52.4 42.8999 55.3C37.7999 57.8 33.7999 60.1 30.9999 62.1C28.1999 64.1 25.9999 66.6 24.2999 69.8C23.4999 71.2 22.4999 72.1 21.1999 72.5C19.9999 72.9 18.5999 72.9 17.0999 72.4C15.6999 71.8 14.5999 70.8 13.9999 69.4ZM0.999885 95.9C-0.200115 93.2 -0.300115 90.4 0.699885 87.5C1.69988 84.6 3.59988 82.4 6.19988 81.1C8.79988 79.8 11.5999 79.7 14.5999 80.7C17.4999 81.7 19.5999 83.6 20.8999 86.3C22.0999 89 22.1999 91.8 21.1999 94.7C20.1999 97.7 18.2999 99.8 15.5999 101C12.8999 102.3 10.1999 102.4 7.29988 101.4C4.29988 100.4 2.19988 98.6 0.999885 95.9Z" fill="#CB563E"/>
<path d="M64.8999 11.1992C64.8999 11.1992 81.8999 32.1992 58.8999 52.1992" stroke="#CB563E" stroke-width="2" stroke-miterlimit="10" stroke-linecap="round" stroke-linejoin="round"/>
<path d="M25.8999 43.1992C25.8999 43.1992 14.8999 48.1992 11.8999 59.1992" stroke="#CB563E" stroke-width="2" stroke-miterlimit="10" stroke-linecap="round" stroke-linejoin="round"/>
</g>
<defs>
<clipPath id="clip0">
<rect width="71.9" height="102.1" fill="white"/>
</clipPath>
</defs>
</svg>
