<svg width="68" height="67" viewBox="0 0 68 67" fill="none" xmlns="http://www.w3.org/2000/svg">
<path d="M61.2638 65.6014H5.78393C3.42206 65.6014 1.4458 63.6252 1.4458 61.2633V5.78344C1.4458 3.42157 3.42206 1.44531 5.78393 1.44531H61.2638C63.6738 1.44531 65.6019 3.42157 65.6019 5.78344V61.2633C65.6019 63.6252 63.6256 65.6014 61.2638 65.6014Z" fill="#456A6F"/>
<path d="M61.8906 67H5.15754C2.31366 67 0 64.6863 0 61.8424V5.15755C0 2.31367 2.31366 0 5.15754 0H61.8906C64.7345 0 67.0482 2.31367 67.0482 5.15755V61.8906C67.0482 64.7345 64.7345 67 61.8906 67ZM5.15754 2.89209C3.90431 2.89209 2.89209 3.90432 2.89209 5.15755V61.8906C2.89209 63.1439 3.90431 64.1561 5.15754 64.1561H61.8906C63.1439 64.1561 64.1561 63.1439 64.1561 61.8906V5.15755C64.1561 3.90432 63.1439 2.89209 61.8906 2.89209H5.15754Z" fill="#71C0A0"/>
<path d="M33.5482 12.7266C26.9446 12.7266 21.5942 18.0769 21.5942 24.6805C21.5942 26.6086 22.7029 31.2359 28.005 42.274C30.1741 46.805 32.3914 50.9985 33.5964 53.2158C36.5367 47.769 45.5504 30.4647 45.5504 24.6805C45.5022 18.0769 40.1518 12.7266 33.5482 12.7266ZM39.5252 29.1151C38.2237 30.7057 36.4403 31.7179 34.4158 31.9107C34.1266 31.9589 33.8374 31.9589 33.5482 31.9589C31.8129 31.9589 30.1259 31.3805 28.7762 30.2719C27.1856 28.9704 26.1734 27.187 25.9806 25.1625C25.7396 23.1381 26.318 21.1136 27.6194 19.523C28.9209 17.9323 30.7043 16.9201 32.7288 16.7273C34.7532 16.4863 36.7777 17.0647 38.3683 18.3661C39.959 19.6676 40.9712 21.451 41.164 23.4755C41.3568 25.4999 40.7784 27.5244 39.5252 29.1151Z" fill="#71C0A0"/>
<path d="M33.5481 10.6523C25.8359 10.6523 19.5215 16.9667 19.5215 24.679C19.5215 32.0538 32.1021 54.9013 32.6323 55.8653C32.8251 56.2027 33.1625 56.3955 33.5481 56.3955C33.9337 56.3955 34.2711 56.2027 34.4639 55.8653C34.9941 54.9013 47.5747 32.0538 47.5747 24.679C47.5747 16.9185 41.2603 10.6523 33.5481 10.6523ZM33.5481 55.3351C33.5481 55.3351 20.5337 31.861 20.5337 24.679C20.5337 17.4969 26.3661 11.6646 33.5481 11.6646C40.7301 11.6646 46.5625 17.4969 46.5625 24.679C46.5143 31.861 33.5481 55.3351 33.5481 55.3351Z" fill="#71C0A0"/>
<path d="M33.5481 11.6641C26.3661 11.6641 20.5337 17.4964 20.5337 24.6785C20.5337 31.8605 33.5481 55.3346 33.5481 55.3346C33.5481 55.3346 46.5625 31.8605 46.5625 24.6785C46.5143 17.4964 40.7301 11.6641 33.5481 11.6641ZM33.5481 53.2137C32.343 50.9964 30.174 46.8029 27.9567 42.272C22.6546 31.2338 21.5459 26.6065 21.5459 24.6785C21.5459 18.0749 26.8963 12.7245 33.4999 12.7245C40.1035 12.7245 45.4538 18.0749 45.4538 24.6785C45.502 30.4144 36.4402 47.7669 33.5481 53.2137Z" fill="#71C0A0"/>
</svg>
