<svg width="50" height="69" viewBox="0 0 50 69" fill="none" xmlns="http://www.w3.org/2000/svg">
<path d="M19.4276 6.48266C10.5382 8.22071 4.74414 16.8312 6.48218 25.7206C6.98964 28.316 9.69991 34.2532 19.7425 47.7165C24.07 53.5341 32.9576 51.7863 34.7813 44.7689C37.3308 34.9593 39.6341 24.0373 38.7304 19.4154C36.9275 10.5387 28.3169 4.74462 19.4276 6.48266ZM31.7868 26.9707C30.4536 29.4544 28.3192 31.2864 25.6448 32.0788C25.2681 32.2198 24.8788 32.2959 24.4895 32.3721C22.1536 32.8288 19.7304 32.4942 17.6218 31.357C15.138 30.0238 13.306 27.8894 12.5137 25.2149C11.6564 22.5532 11.9022 19.6757 13.2354 17.192C14.5687 14.7082 16.7031 12.8762 19.3775 12.0838C22.0393 11.2266 24.9167 11.4724 27.4005 12.8056C29.8842 14.1389 31.7162 16.2733 32.5086 18.9477C33.301 21.6222 33.0552 24.4996 31.7868 26.9707Z" fill="#71C0A0"/>
<path d="M18.8817 3.69105C8.50001 5.72089 1.66193 15.8828 3.69176 26.2646C5.63279 36.1921 28.5813 63.6367 29.5488 64.7949C29.8972 65.1984 30.4021 65.3691 30.9212 65.2676C31.4403 65.1661 31.8437 64.8178 32.0145 64.3128C32.4745 62.8755 43.3963 28.8085 41.4552 18.881C39.4127 8.43443 29.2634 1.66122 18.8817 3.69105ZM40.0926 19.1474C43.7923 38.7678 8.88558 45.5932 5.05435 25.9981C3.16406 16.3302 9.48017 6.94394 19.1481 5.05365C28.8161 3.16337 38.2023 9.47948 40.0926 19.1474Z" fill="#71C0A0"/>
<path d="M19.148 5.05122C9.48008 6.9415 3.16397 16.3277 5.05425 25.9957C8.88976 45.6126 43.928 38.7619 40.0925 19.145C38.1374 9.48973 28.816 3.16093 19.148 5.05122ZM34.6793 44.7676C32.868 51.7556 24.0356 53.4801 19.6772 47.7253C9.6346 34.2619 6.92432 28.3247 6.41686 25.7293C4.67881 16.8399 10.4729 8.22943 19.3623 6.49138C28.2516 4.75334 36.8621 10.5475 38.6002 19.4368C39.5349 24.0131 37.2253 34.9453 34.6793 44.7676Z" fill="#71C0A0"/>
</svg>
