<svg width="86" height="76" viewBox="0 0 86 76" fill="none" xmlns="http://www.w3.org/2000/svg">
<path d="M9.43188 15.7974C18.8985 3.19208 36.6495 0.507365 49.2254 9.77893C61.8307 19.2456 64.5154 36.9966 55.2439 49.5724C45.9723 62.1483 28.2213 64.833 15.4504 55.5909C2.87453 46.3194 0.189813 28.5683 9.43188 15.7974ZM14.8215 19.771C7.70228 29.4274 9.76745 43.082 19.4239 50.2013C29.0804 57.3205 42.735 55.2554 49.8542 45.5989C56.9735 35.9425 54.9083 22.2878 45.2518 15.1686C35.5954 8.04934 21.9408 10.1145 14.8215 19.771Z" fill="#CB563E"/>
<path d="M61.2665 47.7969L82.7826 63.8324C84.9914 65.2881 85.4912 68.5932 83.8117 70.637C82.356 72.8457 79.051 73.3456 77.0072 71.6661L55.3261 55.8544C56.54 54.6765 57.5301 53.3336 58.5201 51.9907C59.5102 50.6478 60.5003 49.3049 61.2665 47.7969Z" fill="#CB563E"/>
<path d="M23.2108 22.8194C22.3465 23.5689 20.9779 23.5697 20.252 22.6481C19.5565 21.9283 19.5342 20.4878 20.3985 19.7383C25.3016 14.6653 32.7262 13.3361 39.0404 16.3001C40.0877 16.7605 40.653 17.9125 40.232 19.0075C39.811 20.1025 38.5339 20.7082 37.4866 20.2478C32.663 18.0896 26.9283 18.957 23.2108 22.8194Z" fill="#CB563E"/>
</svg>
