<svg width="62" height="41" viewBox="0 0 62 41" fill="none" xmlns="http://www.w3.org/2000/svg">
<path d="M56.9944 40.7198H4.11846C1.85995 40.7198 0 38.8598 0 36.6013V4.11848C0 1.85997 1.85995 0 4.11846 0H56.9944C57.8579 0 58.7215 0.265716 59.4522 0.797133C59.6515 0.86356 59.8508 0.996418 60.05 1.1957C60.2493 1.39498 60.3822 1.59426 60.515 1.85997C60.98 2.52424 61.2457 3.32136 61.2457 4.18492V36.6677C61.2457 37.797 60.8472 38.7934 60.05 39.5905C59.1201 40.2548 58.0572 40.7198 56.9944 40.7198ZM4.05203 7.04127V36.5349C4.05203 36.6013 4.11846 36.6013 4.11846 36.6013H56.9944C57.0608 36.6013 57.0608 36.5349 57.0608 36.5349V6.90843L31.6857 32.2836C31.3536 32.6157 30.955 32.7485 30.49 32.7485C30.025 32.7485 29.6264 32.5493 29.2943 32.2836L4.05203 7.04127ZM6.77555 3.98562L30.5564 27.7665L54.3373 3.98562H6.77555Z" fill="#71C0A0"/>
</svg>
