<svg width="96" height="93" viewBox="0 0 96 93" fill="none" xmlns="http://www.w3.org/2000/svg">
<path d="M0 11.0945V43.5773C0 44.9059 1.12925 46.0351 2.45779 46.0351H55.3337C56.6623 46.0351 57.7915 44.9059 57.7915 43.5773V11.0945C57.7915 10.4967 57.5922 9.96525 57.2601 9.56669C57.2601 9.50026 57.1937 9.43382 57.1937 9.3674C57.1272 9.30097 57.0608 9.30098 56.9944 9.30098C56.5958 8.90242 55.998 8.70312 55.4002 8.70312H2.52422C1.12925 8.70313 0 9.76596 0 11.0945ZM56.3966 9.69953L28.8958 37.2003L1.46138 9.69953C1.79352 9.43382 2.12566 9.30098 2.59065 9.30098H55.4666C55.7323 9.36741 56.0644 9.50025 56.3966 9.69953ZM0.66427 11.0945C0.66427 10.7624 0.730693 10.4967 0.929975 10.231L28.8293 38.1303L56.7951 10.1645C56.9944 10.4302 57.0608 10.7624 57.0608 11.1609V43.6438C57.0608 44.6402 56.2637 45.4373 55.2673 45.4373H2.39136C1.39495 45.4373 0.597839 44.6402 0.597839 43.6438L0.66427 11.0945Z" fill="#71C0A0"/>
<path d="M87.0912 90.4066H10.7001C7.37876 90.4066 4.72168 87.7495 4.72168 84.4281V7.97062C4.72168 4.7157 7.37876 1.99219 10.7001 1.99219H87.1576C90.479 1.99219 93.1361 4.7157 93.1361 7.97062V84.4281C93.0696 87.7495 90.4126 90.4066 87.0912 90.4066Z" fill="#456A6F"/>
<path d="M88.0214 92.4H9.77028C5.85108 92.4 2.6626 89.2115 2.6626 85.2923V7.10768C2.6626 3.18849 5.85108 0 9.77028 0H87.9549C91.8741 0 95.0626 3.18849 95.0626 7.10768V85.2923C95.0626 89.2115 91.8741 92.4 88.0214 92.4ZM9.77028 3.98562C8.04318 3.98562 6.64822 5.38058 6.64822 7.10768V85.2923C6.64822 87.0194 8.04318 88.4144 9.77028 88.4144H87.9549C89.682 88.4144 91.077 87.0194 91.077 85.2923V7.10768C91.077 5.38058 89.682 3.98562 87.9549 3.98562H9.77028Z" fill="#71C0A0"/>
<path d="M75.3338 66.7589H22.4578C20.1993 66.7589 18.3394 64.8989 18.3394 62.6404V30.1575C18.3394 27.899 20.1993 26.0391 22.4578 26.0391H75.3338C76.1973 26.0391 77.0609 26.3048 77.7916 26.8362C77.9908 26.9026 78.1901 27.0355 78.3894 27.2348C78.5887 27.434 78.7215 27.6333 78.8544 27.899C79.3194 28.5633 79.5851 29.3604 79.5851 30.224V62.7068C79.5851 63.8361 79.1865 64.8325 78.3894 65.6296C77.4594 66.2939 76.3966 66.7589 75.3338 66.7589ZM22.3914 33.0803V62.5739C22.3914 62.6404 22.4578 62.6404 22.4578 62.6404H75.3338C75.4002 62.6404 75.4002 62.5739 75.4002 62.5739V32.9475L50.025 58.3226C49.6929 58.6547 49.2944 58.7876 48.8294 58.7876C48.3644 58.7876 47.9658 58.5883 47.6337 58.3226L22.3914 33.0803ZM25.1149 30.0247L48.8958 53.8056L72.6767 30.0247H25.1149Z" fill="#71C0A0"/>
</svg>
