<svg width="71" height="48" viewBox="0 0 71 48" fill="none" xmlns="http://www.w3.org/2000/svg">
<path d="M33.5807 17.2051C29.6639 18.2546 27.4248 22.2267 28.3757 26.0323C28.8747 27.8944 30.0627 29.5031 31.691 30.4432C33.3365 31.4475 35.3237 31.672 37.1857 31.1731L37.25 31.1559C39.112 30.6569 40.6565 29.4861 41.6608 27.8406C42.6651 26.1951 42.8897 24.2079 42.3907 22.3458C41.4398 18.5403 37.4505 16.237 33.5807 17.2051Z" fill="#CB563E"/>
<path d="M42.0204 28.16C40.9691 29.8869 39.3777 31.1392 37.3872 31.6725L37.323 31.6897C35.3325 32.2231 33.2639 31.9515 31.537 30.9002C29.7459 29.8661 28.5406 28.1933 28.0073 26.2028C26.9234 22.1575 29.3848 17.9882 33.4301 16.9042C33.4301 16.9042 33.43 16.9042 33.4943 16.887C37.6037 15.7859 41.7731 18.2474 42.81 22.374C43.3261 24.3003 43.0546 26.3689 42.0204 28.16Z" fill="#CB563E"/>
<path d="M33.4772 16.8206C29.3677 17.9217 26.9063 22.0911 27.9902 26.1363C28.5235 28.1269 29.793 29.7825 31.5199 30.8338C33.3111 31.8679 35.3154 32.1567 37.3059 31.6233L37.3701 31.6061C39.2964 31.09 40.952 29.8205 42.0034 28.0936C43.0375 26.3025 43.3263 24.2981 42.7929 22.3076C41.7732 18.2452 37.6038 15.7837 33.4772 16.8206Z" fill="#CB563E"/>
<path d="M54.0962 6.96031L10.6856 18.3168C9.59404 18.6093 8.66992 19.2699 8.17007 20.2297C7.60601 21.2066 7.47882 22.273 7.7071 23.3818L11.5312 37.9105C12.1162 40.0936 14.413 41.4739 16.5962 40.889L60.0067 29.5324C62.2541 28.9303 63.5702 26.6506 62.9853 24.4675L59.1611 9.93883C58.559 7.69147 56.2793 6.37534 54.0962 6.96031ZM43.6488 29.0981C42.3797 31.2963 40.309 32.8146 37.869 33.4684L37.8048 33.4856C35.3648 34.1394 32.7952 33.7957 30.5798 32.4623C28.3816 31.1932 26.7818 29.0755 26.1923 26.6183C24.8973 21.5285 27.9056 16.3179 32.9782 14.9587L33.0424 14.9415C38.1322 13.6466 43.3427 16.6549 44.7192 21.7917C45.3259 24.3131 44.9822 26.8827 43.6488 29.0981Z" fill="#CB563E"/>
<path d="M0.19263 16.6554L8.224 47.3994L70.4825 31.1302L62.4512 0.386218L0.19263 16.6554ZM65.1684 23.8828C66.0803 27.2859 63.9948 30.804 60.5917 31.7159L60.5275 31.7331L17.1169 43.0896C13.6496 44.0187 10.1315 41.9333 9.26667 38.4487L5.44255 23.92C4.53068 20.5169 6.6161 16.9989 10.0192 16.087L10.0834 16.0698L53.494 4.71325C56.9614 3.78418 60.4794 5.86959 61.3443 9.35414L65.1684 23.8828Z" fill="#CB563E"/>
<path d="M53.4939 4.71361L10.0834 16.0701L10.0191 16.0873C6.61601 16.9992 4.53059 20.5173 5.44246 23.9204L9.26658 38.4491C10.1957 41.9164 13.6965 43.9376 17.1168 43.09L60.5274 31.7334L60.5916 31.7162C63.9948 30.8044 66.0802 27.2863 65.1683 23.8832L61.3442 9.3545C60.4793 5.86995 56.9613 3.78454 53.4939 4.71361ZM64.7831 23.9864C65.6433 27.1969 63.6989 30.4707 60.4884 31.331C60.4884 31.331 60.4884 31.331 60.4242 31.3482L17.0136 42.7047C13.8031 43.565 10.4651 41.6378 9.65184 38.3458L5.82772 23.8172C4.96747 20.6067 6.91187 17.3329 10.1224 16.4726C10.1224 16.4726 10.1224 16.4726 10.1866 16.4554L53.5972 5.09885C56.8077 4.2386 60.1457 6.16581 60.9589 9.45773L64.7831 23.9864Z" fill="#CB563E"/>
</svg>
