<svg width="93" height="93" viewBox="0 0 93 93" fill="none" xmlns="http://www.w3.org/2000/svg">
<path d="M84.4897 90.4745H7.9769C4.71962 90.4745 1.99414 87.749 1.99414 84.4917V7.97885C1.99414 4.6551 4.71962 1.99609 7.9769 1.99609H84.4897C87.747 1.99609 90.4725 4.6551 90.4725 7.97885V84.4917C90.4725 87.749 87.747 90.4745 84.4897 90.4745Z" fill="#456A6F"/>
<path d="M85.354 92.4004H7.11284C3.1908 92.4004 0 89.2096 0 85.2875V7.11282C0 3.19079 3.1908 0 7.11284 0H85.354C89.2761 0 92.4669 3.19079 92.4669 7.11282V85.354C92.4004 89.2761 89.2761 92.4004 85.354 92.4004ZM7.11284 3.98851C5.38448 3.98851 3.98851 5.38447 3.98851 7.11282V85.354C3.98851 87.0824 5.38448 88.4784 7.11284 88.4784H85.354C87.0824 88.4784 88.4784 87.0824 88.4784 85.354V7.11282C88.4784 5.38447 87.0824 3.98851 85.354 3.98851H7.11284Z" fill="#71C0A0"/>
<path d="M45.9343 38.5586C41.8794 38.5586 38.6885 41.8159 38.6221 45.7379C38.6221 47.6657 39.3533 49.527 40.6828 50.8565C42.0123 52.2525 43.8736 52.9837 45.8014 52.9837H45.8679C47.7956 52.9837 49.5905 52.2525 50.9864 50.923C52.3824 49.5935 53.1136 47.7322 53.1136 45.8044C53.1801 41.8823 49.9228 38.6251 45.9343 38.5586Z" fill="#71C0A0"/>
<path d="M51.2523 51.3182C49.7898 52.7142 47.9285 53.5119 45.8678 53.5119H45.8013C43.7406 53.5119 41.8128 52.7142 40.4168 51.2518C38.9544 49.7893 38.2231 47.8615 38.2231 45.8008C38.2231 41.6129 41.6798 38.2227 45.8678 38.2227C45.8678 38.2227 45.8678 38.2227 45.9343 38.2227C50.1887 38.2227 53.5789 41.6794 53.5124 45.9338C53.5124 47.928 52.7147 49.8558 51.2523 51.3182Z" fill="#71C0A0"/>
<path d="M45.9343 38.1562C41.6798 38.1562 38.2231 41.5465 38.2231 45.7344C38.2231 47.7951 39.0208 49.7229 40.4168 51.1854C41.8793 52.6478 43.7406 53.4455 45.8013 53.4455H45.8678C47.862 53.4455 49.7898 52.6478 51.2523 51.2519C52.7147 49.7894 53.5124 47.9281 53.5124 45.8674C53.5789 41.6794 50.1887 38.2227 45.9343 38.1562Z" fill="#71C0A0"/>
<path d="M68.4029 33.969L23.5322 33.7031C22.4022 33.7031 21.3386 34.102 20.6073 34.8997C19.8096 35.6974 19.4108 36.6945 19.3443 37.8246L19.2778 52.848C19.2778 55.1081 21.1391 57.0359 23.3993 57.0359L68.27 57.3018C70.5966 57.3018 72.4579 55.4405 72.4579 53.1803L72.5244 38.157C72.5244 35.8303 70.6631 33.969 68.4029 33.969ZM52.5819 52.6485C50.787 54.4434 48.3939 55.374 45.8679 55.374H45.8014C43.2753 55.374 40.8822 54.3769 39.0874 52.5156C37.2926 50.7208 36.2955 48.2612 36.3619 45.7351C36.4284 40.4836 40.6828 36.2292 45.9343 36.2292H46.0008C51.2524 36.2957 55.5068 40.5501 55.5068 45.8681C55.4403 48.4606 54.4432 50.8537 52.5819 52.6485Z" fill="#71C0A0"/>
<path d="M23.5322 33.2383C23.5322 33.2383 23.4657 33.2383 23.5322 33.2383C22.2691 33.2383 21.1391 33.7036 20.2749 34.5678C19.4107 35.432 18.9454 36.562 18.9454 37.7586L18.8789 52.782C18.8789 55.308 20.8732 57.3687 23.3992 57.3687L68.2699 57.6346C70.796 57.6346 72.7902 55.6404 72.8567 53.1143L72.9232 38.091C72.9232 35.5649 70.9289 33.5042 68.4029 33.5042L23.5322 33.2383ZM72.4578 53.1808C72.4578 55.441 70.5965 57.3023 68.2699 57.3023L23.3992 57.0364C21.1391 57.0364 19.2778 55.1751 19.2778 52.8484L19.3442 37.8251C19.3442 36.695 19.8096 35.6979 20.6073 34.9002C21.405 34.1025 22.4021 33.7036 23.5322 33.7036L68.4029 33.9695C70.663 33.9695 72.5243 35.8308 72.5243 38.1574L72.4578 53.1808Z" fill="#456A6F"/>
<path d="M13.8269 29.3828L13.6274 61.1579L77.9753 61.5568L78.1748 29.7817L13.8269 29.3828ZM74.7181 53.1809C74.7181 56.7041 71.7932 59.5625 68.27 59.5625H68.2035L23.3328 59.2966C19.7432 59.2966 16.8847 56.3717 16.9512 52.7821L17.0177 37.7587C17.0177 34.2355 19.9426 31.3771 23.4658 31.3771H23.5322L68.4029 31.643C71.9926 31.643 74.851 34.5679 74.7845 38.1575L74.7181 53.1809Z" fill="#71C0A0"/>
<path d="M68.4029 31.6448L23.5322 31.3789H23.4657C19.9426 31.3789 17.0176 34.2373 17.0176 37.7605L16.9512 52.7839C16.9512 56.3736 19.8096 59.232 23.3328 59.2984L68.2035 59.5644H68.2699C71.7931 59.5644 74.718 56.7059 74.718 53.1828L74.7845 38.1594C74.851 34.5697 71.9926 31.6448 68.4029 31.6448ZM74.3192 53.1828C74.3192 56.5065 71.5937 59.1655 68.2699 59.1655C68.2699 59.1655 68.2699 59.1655 68.2035 59.1655L23.3328 58.8996C20.009 58.8996 17.2835 56.1741 17.35 52.7839L17.4165 37.7605C17.4165 34.4368 20.142 31.7778 23.4657 31.7778C23.4657 31.7778 23.4657 31.7778 23.5322 31.7778L68.4029 32.0437C71.7267 32.0437 74.4521 34.7691 74.3857 38.1594L74.3192 53.1828Z" fill="#71C0A0"/>
</svg>
