<svg width="400" height="170" viewBox="0 0 400 170" fill="none" xmlns="http://www.w3.org/2000/svg">
<path d="M226.68 149.07H11.3239C5.54315 149.07 0.856934 153.757 0.856934 159.537C0.856934 165.318 5.54315 170.004 11.3239 170.004H226.68C232.461 170.004 237.147 165.318 237.147 159.537C237.147 153.757 232.461 149.07 226.68 149.07Z" fill="#456A6F"/>
<path d="M333.937 170.001H135.441C124.072 170.001 116.083 158.611 120.078 147.836L169.548 11.1498C172.006 4.68492 178.152 0.375 184.911 0.375H383.408C394.776 0.375 402.765 11.7655 398.771 22.5403L349.301 159.226C347.15 165.691 340.697 170.001 333.937 170.001Z" fill="#71C0A0"/>
</svg>
