<svg width="44" height="54" viewBox="0 0 44 54" fill="none" xmlns="http://www.w3.org/2000/svg">
<path d="M16.2683 34.3815C15.9374 34.1609 15.5513 33.9402 15.2204 33.7196L26.6374 17.8351C26.9683 18.166 27.2993 18.4418 27.6854 18.7175C32.1529 21.9717 38.5508 20.8134 41.9153 16.1253C45.2797 11.4371 44.3973 5.03915 39.8746 1.84018C35.5173 -1.30364 29.4503 -0.310859 25.9756 3.99121L25.9204 3.93606L2.70026 36.1464C2.47964 36.4222 2.25902 36.698 2.0384 36.9738C-1.32603 41.6619 -0.443561 48.0599 4.07913 51.2588C8.60182 54.4578 14.9446 53.3547 18.3091 48.6666C21.6183 44.0336 20.7359 37.5805 16.2683 34.3815Z" fill="#71C0A0"/>
</svg>
