<svg width="97" height="97" viewBox="0 0 97 97" fill="none" xmlns="http://www.w3.org/2000/svg">
<path d="M88.6317 94.9097H8.36786C4.88116 94.9097 2.0918 92.0506 2.0918 88.6336V8.36981C2.0918 4.95284 4.95089 2.09375 8.36786 2.09375H88.6317C92.1184 2.09375 94.9078 4.95284 94.9078 8.36981V88.6336C94.9078 92.0506 92.0487 94.9097 88.6317 94.9097Z" fill="#456A6F"/>
<path d="M89.5385 97H7.46154C3.34723 97 0 93.6528 0 89.5385V7.46154C0 3.34723 3.34723 0 7.46154 0H89.5385C93.6528 0 97 3.34723 97 7.46154V89.5385C96.9303 93.6528 93.6528 97 89.5385 97ZM7.46154 4.18404C5.64845 4.18404 4.18404 5.64845 4.18404 7.46154V89.5385C4.18404 91.3516 5.64845 92.816 7.46154 92.816H89.5385C91.3515 92.816 92.816 91.3516 92.816 89.5385V7.46154C92.816 5.64845 91.3515 4.18404 89.5385 4.18404H7.46154Z" fill="#71C0A0"/>
<path d="M41.2825 58.4384C40.8641 58.1595 40.3759 57.8805 39.9575 57.6016L54.3925 37.5182C54.8109 37.9366 55.2293 38.2853 55.7174 38.634C61.3659 42.7483 69.455 41.2838 73.7088 35.3565C77.9626 29.4291 76.8468 21.3399 71.1286 17.2954C65.6196 13.3205 57.9489 14.5757 53.5557 20.015L53.4859 19.9452L24.1279 60.6699C23.849 61.0186 23.57 61.3673 23.2911 61.7159C19.0373 67.6433 20.1531 75.7325 25.8712 79.777C31.5894 83.8216 39.6089 82.4269 43.8626 76.4995C48.0467 70.6419 46.9309 62.483 41.2825 58.4384Z" fill="#71C0A0"/>
</svg>
