<svg width="82" height="82" viewBox="0 0 82 82" fill="none" xmlns="http://www.w3.org/2000/svg">
<path d="M74.6138 79.8978H7.04466C4.10942 79.8978 1.76123 77.5496 1.76123 74.6143V7.04515C1.76123 4.16861 4.10942 1.76172 7.04466 1.76172H74.6138C77.4904 1.76172 79.8973 4.16861 79.8973 7.04515V74.6143C79.8973 77.4909 77.4904 79.8978 74.6138 79.8978Z" fill="#456A6F"/>
<path d="M75.3769 81.5996H6.28142C2.81784 81.5996 0 78.7818 0 75.3182V6.28142C0 2.81784 2.81784 0 6.28142 0H75.3769C78.8405 0 81.6583 2.81784 81.6583 6.28142V75.3769C81.5996 78.8405 78.8405 81.5996 75.3769 81.5996ZM6.28142 3.52229C4.75509 3.52229 3.52229 4.75509 3.52229 6.28142V75.3769C3.52229 76.9032 4.75509 78.136 6.28142 78.136H75.3769C76.9032 78.136 78.136 76.9032 78.136 75.3769V6.28142C78.136 4.75509 76.9032 3.52229 75.3769 3.52229H6.28142Z" fill="#71C0A0"/>
<path d="M40.5062 20.1353C14.1478 20.5462 13.6781 22.8944 13.9717 41.2103C14.2652 59.5262 14.7348 61.8744 41.0933 61.4634C67.4517 61.0525 67.9213 58.7043 67.6278 40.3884C67.393 22.0725 66.8646 19.7244 40.5062 20.1353ZM49.4293 41.5625L37.4536 47.3743C36.3969 47.9026 35.5163 47.3156 35.5163 46.2002L35.3402 35.6333C35.3402 34.4593 36.1621 33.9309 37.2187 34.4005L49.3706 39.8601C50.4273 40.271 50.486 41.0929 49.4293 41.5625Z" fill="#71C0A0"/>
</svg>
