<svg width="261" height="204" viewBox="0 0 261 204" fill="none" xmlns="http://www.w3.org/2000/svg">
<path d="M234.141 203.28H26.5819C11.9825 203.28 0 191.291 0 176.685V27.5906C0 12.9843 11.9825 0.996094 26.5819 0.996094H234.141C248.74 0.996094 260.723 12.9843 260.723 27.5906V176.685C260.723 191.291 248.74 203.28 234.141 203.28Z" fill="#426262"/>
<path d="M37.6124 141.965C31.2772 151.952 38.4521 165 50.2788 165H213.941C228.042 165 234.352 147.308 223.433 138.385L207.38 125.266C202.975 121.666 196.912 120.868 191.725 123.206L156.606 139.033C150.601 141.739 143.533 140.211 139.182 135.266L95.8425 86.0155C89.2361 78.5079 77.2721 79.4451 71.9152 87.8897L37.6124 141.965Z" fill="white"/>
<path d="M179.696 90.977C193.236 90.977 204.212 79.9956 204.212 66.4494C204.212 52.9032 193.236 41.9219 179.696 41.9219C166.156 41.9219 155.18 52.9032 155.18 66.4494C155.18 79.9956 166.156 90.977 179.696 90.977Z" fill="white" stroke="white" stroke-width="5" stroke-miterlimit="10" stroke-linecap="round" stroke-linejoin="round"/>
</svg>
