<svg width="256" height="202" viewBox="0 0 256 202" fill="none" xmlns="http://www.w3.org/2000/svg">
<path d="M108.868 95.0555H12.3598C5.5715 95.0555 0 89.4814 0 82.6899V13.3656C0 6.57413 5.5715 1 12.3598 1H108.868C115.657 1 121.228 6.57413 121.228 13.3656V82.6899C121.228 89.4814 115.657 95.0555 108.868 95.0555Z" fill="#426262"/>
<path d="M17.5134 66.5082C14.557 71.1687 17.9053 77.2579 23.4244 77.2579H99.4046C105.985 77.2579 108.93 69.0017 103.834 64.8376L96.4375 58.7929C94.3817 57.1128 91.5524 56.7404 89.1319 57.8312L72.8341 65.1761C70.0318 66.439 66.7335 65.7261 64.7029 63.4186L44.5863 40.558C41.5033 37.0545 35.9201 37.4918 33.4202 41.4327L17.5134 66.5082Z" fill="white"/>
<path d="M83.553 42.8384C89.8486 42.8384 94.9521 37.7324 94.9521 31.4339C94.9521 25.1353 89.8486 20.0293 83.553 20.0293C77.2574 20.0293 72.1538 25.1353 72.1538 31.4339C72.1538 37.7324 77.2574 42.8384 83.553 42.8384Z" fill="white" stroke="white" stroke-width="5" stroke-miterlimit="10" stroke-linecap="round" stroke-linejoin="round"/>
<path d="M108.868 202.001H12.3598C5.5715 202.001 0 196.427 0 189.635V120.311C0 113.519 5.5715 107.945 12.3598 107.945H108.868C115.657 107.945 121.228 113.519 121.228 120.311V189.635C121.228 196.427 115.657 202.001 108.868 202.001Z" fill="#426262"/>
<path d="M17.5134 173.453C14.557 178.114 17.9053 184.203 23.4244 184.203H99.4046C105.985 184.203 108.93 175.947 103.834 171.783L96.4375 165.738C94.3817 164.058 91.5524 163.686 89.1319 164.777L72.8341 172.121C70.0318 173.384 66.7335 172.671 64.7029 170.364L44.5863 147.503C41.5033 144 35.9201 144.437 33.4202 148.378L17.5134 173.453Z" fill="white"/>
<path d="M83.553 149.784C89.8486 149.784 94.9521 144.678 94.9521 138.379C94.9521 132.081 89.8486 126.975 83.553 126.975C77.2574 126.975 72.1538 132.081 72.1538 138.379C72.1538 144.678 77.2574 149.784 83.553 149.784Z" fill="white" stroke="white" stroke-width="5" stroke-miterlimit="10" stroke-linecap="round" stroke-linejoin="round"/>
<path d="M243.244 94.0555H146.736C139.947 94.0555 134.376 88.4814 134.376 81.6899V12.3656C134.376 5.57413 139.947 0 146.736 0H243.244C250.033 0 255.604 5.57413 255.604 12.3656V81.6899C255.604 88.4814 250.033 94.0555 243.244 94.0555Z" fill="#426262"/>
<path d="M151.889 65.5062C148.933 70.1667 152.281 76.2559 157.8 76.2559H233.781C240.361 76.2559 243.306 67.9998 238.21 63.8357L230.814 57.7909C228.758 56.1108 225.928 55.7384 223.508 56.8293L207.21 64.1742C204.408 65.4371 201.109 64.7241 199.079 62.4166L178.962 39.5561C175.879 36.0525 170.296 36.4899 167.796 40.4307L151.889 65.5062Z" fill="white"/>
<path d="M217.929 41.8384C224.225 41.8384 229.328 36.7324 229.328 30.4339C229.328 24.1353 224.225 19.0293 217.929 19.0293C211.633 19.0293 206.53 24.1353 206.53 30.4339C206.53 36.7324 211.633 41.8384 217.929 41.8384Z" fill="white" stroke="white" stroke-width="5" stroke-miterlimit="10" stroke-linecap="round" stroke-linejoin="round"/>
<path d="M243.244 201.001H146.736C139.947 201.001 134.376 195.427 134.376 188.635V119.311C134.376 112.519 139.947 106.945 146.736 106.945H243.244C250.033 106.945 255.604 112.519 255.604 119.311V188.635C255.604 195.427 250.033 201.001 243.244 201.001Z" fill="#426262"/>
<path d="M151.889 172.453C148.933 177.114 152.281 183.203 157.8 183.203H233.781C240.361 183.203 243.306 174.947 238.21 170.783L230.814 164.738C228.758 163.058 225.928 162.686 223.508 163.777L207.21 171.121C204.408 172.384 201.109 171.671 199.079 169.364L178.962 146.503C175.879 143 170.296 143.437 167.796 147.378L151.889 172.453Z" fill="white"/>
<path d="M217.929 148.784C224.225 148.784 229.328 143.678 229.328 137.379C229.328 131.081 224.225 125.975 217.929 125.975C211.633 125.975 206.53 131.081 206.53 137.379C206.53 143.678 211.633 148.784 217.929 148.784Z" fill="white" stroke="white" stroke-width="5" stroke-miterlimit="10" stroke-linecap="round" stroke-linejoin="round"/>
</svg>
