<svg width="301" height="272" viewBox="0 0 301 272" fill="none" xmlns="http://www.w3.org/2000/svg">
<path d="M234.141 271.28H26.5819C11.9825 271.28 0 259.291 0 244.685V95.5906C0 80.9843 11.9825 68.9961 26.5819 68.9961H234.141C248.74 68.9961 260.723 80.9843 260.723 95.5906V244.685C260.723 259.291 248.74 271.28 234.141 271.28Z" fill="#D94D34"/>
<path d="M37.6124 209.965C31.2772 219.952 38.4521 233 50.2788 233H213.941C228.042 233 234.352 215.308 223.433 206.385L207.38 193.266C202.975 189.666 196.912 188.868 191.725 191.206L156.606 207.033C150.601 209.739 143.533 208.211 139.182 203.266L95.8425 154.015C89.2361 146.508 77.2721 147.445 71.9152 155.89L37.6124 209.965Z" fill="white"/>
<path d="M179.696 158.977C193.236 158.977 204.212 147.995 204.212 134.449C204.212 120.903 193.236 109.921 179.696 109.921C166.156 109.921 155.18 120.903 155.18 134.449C155.18 147.995 166.156 158.977 179.696 158.977Z" fill="white" stroke="white" stroke-width="5" stroke-miterlimit="10" stroke-linecap="round" stroke-linejoin="round"/>
<circle cx="251.5" cy="49.5" r="49.5" fill="#426262"/>
<circle cx="251" cy="50" r="10" fill="white"/>
</svg>
