<svg width="336" height="202" viewBox="0 0 336 202" fill="none" xmlns="http://www.w3.org/2000/svg">
<path d="M108.868 95.0555H12.3598C5.5715 95.0555 0 89.4814 0 82.6899V13.3656C0 6.57413 5.5715 1 12.3598 1H108.868C115.657 1 121.228 6.57413 121.228 13.3656V82.6899C121.228 89.4814 115.657 95.0555 108.868 95.0555Z" fill="#D94D34"/>
<path d="M17.5135 66.5074C14.5571 71.1679 17.9054 77.257 23.4245 77.257H99.4047C105.985 77.257 108.93 69.0009 103.834 64.8368L96.4376 58.792C94.3818 57.112 91.5525 56.7395 89.1319 57.8304L72.8341 65.1753C70.0318 66.4382 66.7335 65.7253 64.703 63.4177L44.5864 40.5572C41.5033 37.0537 35.9202 37.491 33.4203 41.4318L17.5135 66.5074Z" fill="white"/>
<path d="M83.5532 42.8382C89.8488 42.8382 94.9524 37.7322 94.9524 31.4336C94.9524 25.1351 89.8488 20.0291 83.5532 20.0291C77.2576 20.0291 72.154 25.1351 72.154 31.4336C72.154 37.7322 77.2576 42.8382 83.5532 42.8382Z" fill="white" stroke="white" stroke-width="5" stroke-miterlimit="10" stroke-linecap="round" stroke-linejoin="round"/>
<path d="M108.868 202H12.3598C5.5715 202 0 196.426 0 189.634V120.31C0 113.518 5.5715 107.944 12.3598 107.944H108.868C115.657 107.944 121.228 113.518 121.228 120.31V189.634C121.228 196.426 115.657 202 108.868 202Z" fill="#D94D34"/>
<path d="M17.5135 173.452C14.5571 178.112 17.9054 184.201 23.4245 184.201H99.4047C105.985 184.201 108.93 175.945 103.834 171.781L96.4376 165.736C94.3818 164.056 91.5525 163.684 89.1319 164.775L72.8341 172.12C70.0318 173.382 66.7335 172.67 64.703 170.362L44.5864 147.501C41.5033 143.998 35.9202 144.435 33.4203 148.376L17.5135 173.452Z" fill="white"/>
<path d="M83.5532 149.782C89.8488 149.782 94.9524 144.677 94.9524 138.378C94.9524 132.079 89.8488 126.973 83.5532 126.973C77.2576 126.973 72.154 132.079 72.154 138.378C72.154 144.677 77.2576 149.782 83.5532 149.782Z" fill="white" stroke="white" stroke-width="5" stroke-miterlimit="10" stroke-linecap="round" stroke-linejoin="round"/>
<path d="M243.245 94.0555H146.736C139.948 94.0555 134.376 88.4814 134.376 81.6899V12.3656C134.376 5.57413 139.948 0 146.736 0H243.245C250.033 0 255.604 5.57413 255.604 12.3656V81.6899C255.604 88.4814 250.033 94.0555 243.245 94.0555Z" fill="#D94D34"/>
<path d="M151.889 65.5069C148.933 70.1674 152.281 76.2566 157.8 76.2566H233.781C240.361 76.2566 243.306 68.0005 238.21 63.8364L230.814 57.7916C228.758 56.1115 225.928 55.7391 223.508 56.8299L207.21 64.1748C204.408 65.4377 201.11 64.7248 199.079 62.4173L178.962 39.5567C175.879 36.0532 170.296 36.4905 167.796 40.4314L151.889 65.5069Z" fill="white"/>
<path d="M217.929 41.8382C224.225 41.8382 229.328 36.7322 229.328 30.4336C229.328 24.1351 224.225 19.0291 217.929 19.0291C211.634 19.0291 206.53 24.1351 206.53 30.4336C206.53 36.7322 211.634 41.8382 217.929 41.8382Z" fill="white" stroke="white" stroke-width="5" stroke-miterlimit="10" stroke-linecap="round" stroke-linejoin="round"/>
<path d="M243.245 201H146.736C139.948 201 134.376 195.426 134.376 188.634V119.31C134.376 112.518 139.948 106.944 146.736 106.944H243.245C250.033 106.944 255.604 112.518 255.604 119.31V188.634C255.604 195.426 250.033 201 243.245 201Z" fill="#D94D34"/>
<path d="M151.89 172.452C148.933 177.112 152.281 183.201 157.801 183.201H233.781C240.361 183.201 243.306 174.945 238.21 170.781L230.814 164.736C228.758 163.056 225.928 162.684 223.508 163.775L207.21 171.12C204.408 172.382 201.11 171.67 199.079 169.362L178.962 146.501C175.879 142.998 170.296 143.435 167.796 147.376L151.89 172.452Z" fill="white"/>
<path d="M217.929 148.782C224.225 148.782 229.328 143.676 229.328 137.378C229.328 131.079 224.225 125.973 217.929 125.973C211.634 125.973 206.53 131.079 206.53 137.378C206.53 143.676 211.634 148.782 217.929 148.782Z" fill="white" stroke="white" stroke-width="5" stroke-miterlimit="10" stroke-linecap="round" stroke-linejoin="round"/>
<circle cx="265.5" cy="100.5" r="49.5" fill="#426262"/>
<circle cx="266" cy="101" r="10" fill="white"/>
</svg>
