<svg width="459" height="374" viewBox="0 0 459 374" fill="none" xmlns="http://www.w3.org/2000/svg">
<path d="M287.175 308.343H174.925L169.002 336.315L290.342 323.776L287.175 308.343Z" fill="#5A8D8C"/>
<path d="M169.83 337.235L289.552 324.863L299.712 372.52H162.385L169.83 337.235Z" fill="#80BEA3" stroke="#5A8D8C" stroke-width="2"/>
<path d="M323.26 371.933C323.26 359.945 336.62 350.161 353.01 350.161C369.399 350.161 382.759 359.945 382.759 371.933H323.26Z" fill="#5A8D8C"/>
<path d="M457.271 28.1457C457.271 13.126 445.151 1 430.138 1H28.9307C13.9181 1 1.79785 13.126 1.79785 28.1457V246.413H457.133V28.1457H457.271Z" fill="#5A8D8C" stroke="#5A8D8C" stroke-width="2" stroke-miterlimit="10"/>
<path d="M1.79785 246.413V280.862C1.79785 295.882 13.9181 308.008 28.9307 308.008H430.138C445.151 308.008 457.271 295.882 457.271 280.862V246.413H1.79785Z" fill="#80BEA3" stroke="#5A8D8C" stroke-width="2" stroke-miterlimit="10"/>
<path d="M423.202 228.39H37.5577C27.0911 228.39 18.5 219.795 18.5 209.323V31.5669C18.5 21.0948 27.0911 12.5 37.5577 12.5H423.202C433.668 12.5 442.26 21.0948 442.26 31.5669V209.323C442.26 219.795 433.668 228.39 423.202 228.39Z" fill="white" stroke="#5A8D8C"/>
<path d="M229.603 291.736C236.754 291.736 242.55 285.937 242.55 278.784C242.55 271.63 236.754 265.831 229.603 265.831C222.453 265.831 216.657 271.63 216.657 278.784C216.657 285.937 222.453 291.736 229.603 291.736Z" fill="#5A8D8C"/>
<rect x="38" y="34" width="381" height="21" rx="10.5" fill="#F9E9D7"/>
<rect x="201" y="158" width="139" height="9" rx="4.5" fill="#F9E9D7"/>
<rect x="201" y="77" width="139" height="9" rx="4.5" fill="#F9E9D7"/>
<rect x="201" y="104" width="139" height="9" rx="4.5" fill="#F9E9D7"/>
<rect x="201" y="131" width="139" height="9" rx="4.5" fill="#F9E9D7"/>
<path d="M212.525 211.181C219.751 211.181 225.609 205.32 225.609 198.091C225.609 190.861 219.751 185 212.525 185C205.299 185 199.44 190.861 199.44 198.091C199.44 205.32 205.299 211.181 212.525 211.181Z" fill="#F9E9D7"/>
<path d="M251.084 211.181C258.311 211.181 264.169 205.32 264.169 198.091C264.169 190.861 258.311 185 251.084 185C243.858 185 238 190.861 238 198.091C238 205.32 243.858 211.181 251.084 211.181Z" fill="#F9E9D7"/>
<path d="M327.084 211.181C334.311 211.181 340.169 205.32 340.169 198.091C340.169 190.861 334.311 185 327.084 185C319.858 185 314 190.861 314 198.091C314 205.32 319.858 211.181 327.084 211.181Z" fill="#F9E9D7"/>
<path d="M289.084 211.181C296.311 211.181 302.169 205.32 302.169 198.091C302.169 190.861 296.311 185 289.084 185C281.858 185 276 190.861 276 198.091C276 205.32 281.858 211.181 289.084 211.181Z" fill="#F9E9D7"/>
<rect x="38" y="77" width="140" height="89" rx="10" fill="#F9E9D7"/>
</svg>
