<svg xmlns="http://www.w3.org/2000/svg" viewBox="0 0 1440 1024"><title>Planche7-Quizzsimple-StyleIntegré</title><g id="fond"><path d="M881.89,690c-270.68-14.11-198.46-39.65-448.64-20.45-207.59,15.93-362.4-33.94-428-33-262.17,3.59-597.54,120.87-605.62,123.79-227.4,82.11,2501.67,142.79,3481.79,135.17V686.38C2634,725.66,1359.05,714.88,881.89,690Z" style="fill:#e5eec9"/><path d="M-5785.21,802.67s313.32-40.58,861.61-36.19,928.24-18,1348.6-10.4,696.94,7.25,696.94,7.25l294-35.39a730.9,730.9,0,0,1,133-3.8l535.63,35.55q15.21,1,30.45,1.21l626.86,8.49,1095.33,4.1,166,.62L748,780.67a950.79,950.79,0,0,1,116.45,8.18l587.75,77.8c-203.55,5.33-586,69.43-1050.5,69.51-1537.52.28-4060-83.28-4698.65-80.87C-5128.49,858.44-5785.21,802.67-5785.21,802.67Z" style="fill:#80bbde"/><path d="M1452.23,866.65c-100.14,9.72-1421.09,21-1548.91,21-158.45,0-810.14,7.5-932.62-5.73-724.86-78.35-3263.1-75.91-3814.12-30.84-142,11.61-696.57-15.57-1004.39,4.4S-6355.7,842.2-6602,835.33s-514.36,41.78-760.61,43.22-593.77-16.38-1086.28-23-946.53-20.19-946.53-20.19c-364.78,0-566.79,107-686.82,117.33v72.2l12963.66,1V868.19C2880.37,868.3,1453.32,866.55,1452.23,866.65Z" style="fill:#c5e567"/></g><g id="ECOLE"><path d="M11.5,909.16v115.7l-1302.13-.24s5.79-142.72,150-176.57c132.91-31.21,198.36-29.12,335.36-62.45,44.59-10.84,83.65-10.17,116.05-4.32,73.59,13.28,149.74-13.52,222.78,2.15,187.71,40.27,472.63,74.76,478,125.73" style="fill:#96969a"/><rect x="1.24" y="874.44" width="10.27" height="72.38" style="fill:#5e7e8f"/><polygon points="6.37 693.02 6.37 874.44 -52.4 874.44 6.37 693.02" style="fill:#9db56b"/><polyline points="6.37 873.88 6.37 692.46 65.14 873.88" style="fill:#b6c891"/></g></svg>