<svg width="700" height="526" viewBox="0 0 700 526" fill="none" xmlns="http://www.w3.org/2000/svg">
<path d="M463 190L528.85 94H699" stroke="#CB563E" stroke-width="2" stroke-linecap="round"/>
<path d="M544.59 36.998C544.694 37.2233 544.746 37.4487 544.746 37.674C544.746 38.0727 544.581 38.4107 544.252 38.688C543.94 38.9653 543.576 39.104 543.16 39.104C542.883 39.104 542.623 39.0347 542.38 38.896C542.137 38.74 541.947 38.506 541.808 38.194L540.248 34.71H531.096L529.536 38.194C529.397 38.506 529.207 38.74 528.964 38.896C528.721 39.0347 528.453 39.104 528.158 39.104C527.759 39.104 527.395 38.9653 527.066 38.688C526.737 38.4107 526.572 38.0727 526.572 37.674C526.572 37.4487 526.624 37.2233 526.728 36.998L533.904 21.58C534.06 21.2333 534.294 20.9733 534.606 20.8C534.935 20.6093 535.282 20.514 535.646 20.514C536.01 20.514 536.348 20.6093 536.66 20.8C536.989 20.9733 537.232 21.2333 537.388 21.58L544.59 36.998ZM532.24 32.11H539.104L535.672 24.388L532.24 32.11ZM554.293 25.974C555.402 25.974 556.382 26.2427 557.231 26.78C558.08 27.3173 558.739 28.08 559.207 29.068C559.692 30.056 559.935 31.2087 559.935 32.526C559.935 33.8433 559.692 35.0133 559.207 36.036C558.739 37.0413 558.072 37.8213 557.205 38.376C556.356 38.9307 555.385 39.208 554.293 39.208C553.374 39.208 552.551 39.0087 551.823 38.61C551.112 38.2113 550.566 37.6567 550.185 36.946V37.596C550.185 38.064 550.038 38.4367 549.743 38.714C549.448 38.9913 549.058 39.13 548.573 39.13C548.088 39.13 547.698 38.9913 547.403 38.714C547.126 38.4367 546.987 38.064 546.987 37.596V22.048C546.987 21.5973 547.134 21.2333 547.429 20.956C547.741 20.6787 548.14 20.54 548.625 20.54C549.11 20.54 549.5 20.67 549.795 20.93C550.09 21.19 550.237 21.5453 550.237 21.996V28.132C550.618 27.4387 551.164 26.91 551.875 26.546C552.586 26.1647 553.392 25.974 554.293 25.974ZM553.435 36.686C554.458 36.686 555.255 36.322 555.827 35.594C556.399 34.866 556.685 33.8433 556.685 32.526C556.685 31.226 556.399 30.2293 555.827 29.536C555.272 28.8427 554.475 28.496 553.435 28.496C552.395 28.496 551.589 28.8513 551.017 29.562C550.462 30.2553 550.185 31.2607 550.185 32.578C550.185 33.8953 550.462 34.9093 551.017 35.62C551.589 36.3307 552.395 36.686 553.435 36.686ZM568.114 25.974C569.882 25.974 571.191 26.416 572.04 27.3C572.907 28.1667 573.34 29.4927 573.34 31.278V37.622C573.34 38.09 573.201 38.4627 572.924 38.74C572.647 39 572.265 39.13 571.78 39.13C571.329 39.13 570.957 38.9913 570.662 38.714C570.385 38.4367 570.246 38.0727 570.246 37.622V37.05C569.951 37.726 569.483 38.2547 568.842 38.636C568.218 39.0173 567.49 39.208 566.658 39.208C565.809 39.208 565.037 39.0347 564.344 38.688C563.651 38.3413 563.105 37.8647 562.706 37.258C562.307 36.6513 562.108 35.9753 562.108 35.23C562.108 34.294 562.342 33.5573 562.81 33.02C563.295 32.4827 564.075 32.0927 565.15 31.85C566.225 31.6073 567.707 31.486 569.596 31.486H570.246V30.888C570.246 30.0387 570.064 29.4233 569.7 29.042C569.336 28.6433 568.747 28.444 567.932 28.444C567.429 28.444 566.918 28.522 566.398 28.678C565.878 28.8167 565.263 29.0247 564.552 29.302C564.101 29.5273 563.772 29.64 563.564 29.64C563.252 29.64 562.992 29.5273 562.784 29.302C562.593 29.0767 562.498 28.782 562.498 28.418C562.498 28.1233 562.567 27.872 562.706 27.664C562.862 27.4387 563.113 27.2307 563.46 27.04C564.067 26.7107 564.786 26.4507 565.618 26.26C566.467 26.0693 567.299 25.974 568.114 25.974ZM567.308 36.868C568.175 36.868 568.877 36.582 569.414 36.01C569.969 35.4207 570.246 34.6667 570.246 33.748V33.202H569.778C568.617 33.202 567.715 33.254 567.074 33.358C566.433 33.462 565.973 33.644 565.696 33.904C565.419 34.164 565.28 34.5193 565.28 34.97C565.28 35.5247 565.471 35.984 565.852 36.348C566.251 36.6947 566.736 36.868 567.308 36.868ZM584.027 25.974C585.552 25.974 586.688 26.4073 587.433 27.274C588.178 28.1407 588.551 29.4493 588.551 31.2V37.596C588.551 38.0813 588.404 38.4627 588.109 38.74C587.832 39.0173 587.442 39.156 586.939 39.156C586.436 39.156 586.038 39.0173 585.743 38.74C585.448 38.4627 585.301 38.0813 585.301 37.596V31.382C585.301 30.394 585.11 29.6747 584.729 29.224C584.365 28.7733 583.784 28.548 582.987 28.548C582.051 28.548 581.297 28.8427 580.725 29.432C580.17 30.0213 579.893 30.81 579.893 31.798V37.596C579.893 38.0813 579.746 38.4627 579.451 38.74C579.156 39.0173 578.758 39.156 578.255 39.156C577.752 39.156 577.354 39.0173 577.059 38.74C576.782 38.4627 576.643 38.0813 576.643 37.596V27.534C576.643 27.0833 576.79 26.7193 577.085 26.442C577.38 26.1647 577.778 26.026 578.281 26.026C578.732 26.026 579.096 26.1647 579.373 26.442C579.668 26.702 579.815 27.0487 579.815 27.482V28.184C580.248 27.4733 580.829 26.9273 581.557 26.546C582.285 26.1647 583.108 25.974 584.027 25.974ZM602.46 20.54C602.945 20.54 603.344 20.6787 603.656 20.956C603.968 21.2333 604.124 21.5973 604.124 22.048V37.596C604.124 38.064 603.977 38.4367 603.682 38.714C603.387 38.9913 602.997 39.13 602.512 39.13C602.027 39.13 601.637 38.9913 601.342 38.714C601.047 38.4367 600.9 38.064 600.9 37.596V36.946C600.519 37.6567 599.964 38.2113 599.236 38.61C598.525 39.0087 597.711 39.208 596.792 39.208C595.7 39.208 594.721 38.9307 593.854 38.376C593.005 37.8213 592.337 37.0413 591.852 36.036C591.384 35.0133 591.15 33.8433 591.15 32.526C591.15 31.2087 591.384 30.056 591.852 29.068C592.337 28.08 593.005 27.3173 593.854 26.78C594.703 26.2427 595.683 25.974 596.792 25.974C597.711 25.974 598.525 26.1647 599.236 26.546C599.947 26.9273 600.493 27.4647 600.874 28.158V21.996C600.874 21.5627 601.013 21.216 601.29 20.956C601.585 20.6787 601.975 20.54 602.46 20.54ZM597.65 36.686C598.69 36.686 599.487 36.3307 600.042 35.62C600.614 34.9093 600.9 33.8953 600.9 32.578C600.9 31.2607 600.614 30.2553 600.042 29.562C599.487 28.8513 598.699 28.496 597.676 28.496C596.636 28.496 595.83 28.8427 595.258 29.536C594.686 30.2293 594.4 31.226 594.4 32.526C594.4 33.8433 594.686 34.866 595.258 35.594C595.83 36.322 596.627 36.686 597.65 36.686ZM613.265 39.208C611.965 39.208 610.821 38.9393 609.833 38.402C608.863 37.8647 608.109 37.0933 607.571 36.088C607.034 35.0827 606.765 33.9127 606.765 32.578C606.765 31.2433 607.034 30.082 607.571 29.094C608.109 28.0887 608.863 27.3173 609.833 26.78C610.821 26.2427 611.965 25.974 613.265 25.974C614.565 25.974 615.701 26.2427 616.671 26.78C617.659 27.3173 618.413 28.0887 618.933 29.094C619.471 30.082 619.739 31.2433 619.739 32.578C619.739 33.9127 619.471 35.0827 618.933 36.088C618.413 37.0933 617.659 37.8647 616.671 38.402C615.701 38.9393 614.565 39.208 613.265 39.208ZM613.239 36.686C614.297 36.686 615.103 36.3393 615.657 35.646C616.212 34.9527 616.489 33.93 616.489 32.578C616.489 31.2433 616.212 30.2293 615.657 29.536C615.103 28.8253 614.305 28.47 613.265 28.47C612.225 28.47 611.419 28.8253 610.847 29.536C610.293 30.2293 610.015 31.2433 610.015 32.578C610.015 33.93 610.293 34.9527 610.847 35.646C611.402 36.3393 612.199 36.686 613.239 36.686ZM629.806 25.974C631.332 25.974 632.467 26.4073 633.212 27.274C633.958 28.1407 634.33 29.4493 634.33 31.2V37.596C634.33 38.0813 634.183 38.4627 633.888 38.74C633.611 39.0173 633.221 39.156 632.718 39.156C632.216 39.156 631.817 39.0173 631.522 38.74C631.228 38.4627 631.08 38.0813 631.08 37.596V31.382C631.08 30.394 630.89 29.6747 630.508 29.224C630.144 28.7733 629.564 28.548 628.766 28.548C627.83 28.548 627.076 28.8427 626.504 29.432C625.95 30.0213 625.672 30.81 625.672 31.798V37.596C625.672 38.0813 625.525 38.4627 625.23 38.74C624.936 39.0173 624.537 39.156 624.034 39.156C623.532 39.156 623.133 39.0173 622.838 38.74C622.561 38.4627 622.422 38.0813 622.422 37.596V27.534C622.422 27.0833 622.57 26.7193 622.864 26.442C623.159 26.1647 623.558 26.026 624.06 26.026C624.511 26.026 624.875 26.1647 625.152 26.442C625.447 26.702 625.594 27.0487 625.594 27.482V28.184C626.028 27.4733 626.608 26.9273 627.336 26.546C628.064 26.1647 628.888 25.974 629.806 25.974ZM538.116 55.54C538.445 55.54 538.705 55.6353 538.896 55.826C539.087 56.0167 539.182 56.2593 539.182 56.554V73.09C539.182 73.402 539.087 73.6533 538.896 73.844C538.705 74.0347 538.445 74.13 538.116 74.13C537.787 74.13 537.527 74.0347 537.336 73.844C537.163 73.6533 537.076 73.402 537.076 73.09V71.686C536.695 72.4833 536.131 73.0987 535.386 73.532C534.658 73.9653 533.8 74.182 532.812 74.182C531.703 74.182 530.723 73.9047 529.874 73.35C529.025 72.7953 528.366 72.024 527.898 71.036C527.43 70.0307 527.196 68.8693 527.196 67.552C527.196 66.252 527.43 65.108 527.898 64.12C528.366 63.132 529.025 62.3693 529.874 61.832C530.723 61.2947 531.703 61.026 532.812 61.026C533.8 61.026 534.658 61.2427 535.386 61.676C536.131 62.1093 536.695 62.7247 537.076 63.522V56.554C537.076 56.242 537.163 55.9993 537.336 55.826C537.527 55.6353 537.787 55.54 538.116 55.54ZM533.228 72.44C534.459 72.44 535.403 72.024 536.062 71.192C536.738 70.3427 537.076 69.1467 537.076 67.604C537.076 66.0613 536.738 64.874 536.062 64.042C535.403 63.21 534.459 62.794 533.228 62.794C531.997 62.794 531.035 63.21 530.342 64.042C529.666 64.874 529.328 66.044 529.328 67.552C529.328 69.0947 529.666 70.2993 530.342 71.166C531.035 72.0153 531.997 72.44 533.228 72.44ZM552.885 71.062C553.075 71.062 553.24 71.14 553.379 71.296C553.517 71.452 553.587 71.6513 553.587 71.894C553.587 72.3273 553.283 72.726 552.677 73.09C552.053 73.454 551.394 73.7313 550.701 73.922C550.007 74.0953 549.331 74.182 548.673 74.182C546.714 74.182 545.163 73.6013 544.019 72.44C542.892 71.2787 542.329 69.6753 542.329 67.63C542.329 66.33 542.58 65.186 543.083 64.198C543.585 63.1927 544.287 62.4127 545.189 61.858C546.107 61.3033 547.147 61.026 548.309 61.026C549.955 61.026 551.264 61.5633 552.235 62.638C553.205 63.7127 553.691 65.1687 553.691 67.006C553.691 67.3527 553.621 67.604 553.483 67.76C553.344 67.916 553.119 67.994 552.807 67.994H544.435C544.591 70.9753 546.003 72.466 548.673 72.466C549.349 72.466 549.929 72.3793 550.415 72.206C550.9 72.0153 551.42 71.764 551.975 71.452C552.425 71.192 552.729 71.062 552.885 71.062ZM548.335 62.664C547.225 62.664 546.333 63.0107 545.657 63.704C544.998 64.3973 544.608 65.3767 544.487 66.642H551.845C551.81 65.3593 551.489 64.38 550.883 63.704C550.276 63.0107 549.427 62.664 548.335 62.664ZM561.058 74.182C560.26 74.182 559.498 74.0867 558.77 73.896C558.059 73.7053 557.426 73.4367 556.872 73.09C556.56 72.882 556.334 72.6913 556.196 72.518C556.074 72.3273 556.014 72.102 556.014 71.842C556.014 71.6167 556.074 71.4347 556.196 71.296C556.334 71.14 556.508 71.062 556.716 71.062C556.924 71.062 557.227 71.192 557.626 71.452C558.146 71.764 558.657 72.0153 559.16 72.206C559.68 72.3793 560.321 72.466 561.084 72.466C562.02 72.466 562.748 72.3013 563.268 71.972C563.788 71.6427 564.048 71.166 564.048 70.542C564.048 70.1607 563.952 69.8573 563.762 69.632C563.571 69.3893 563.242 69.1813 562.774 69.008C562.306 68.8173 561.621 68.6267 560.72 68.436C559.194 68.1067 558.102 67.6647 557.444 67.11C556.785 66.5553 556.456 65.8013 556.456 64.848C556.456 64.1027 556.664 63.444 557.08 62.872C557.496 62.3 558.068 61.8493 558.796 61.52C559.541 61.1907 560.382 61.026 561.318 61.026C561.994 61.026 562.644 61.1213 563.268 61.312C563.909 61.4853 564.472 61.7367 564.958 62.066C565.547 62.482 565.842 62.9153 565.842 63.366C565.842 63.5913 565.772 63.782 565.634 63.938C565.495 64.094 565.33 64.172 565.14 64.172C564.932 64.172 564.62 64.0247 564.204 63.73C563.718 63.418 563.259 63.1753 562.826 63.002C562.392 62.8287 561.855 62.742 561.214 62.742C560.399 62.742 559.74 62.924 559.238 63.288C558.752 63.652 558.51 64.1373 558.51 64.744C558.51 65.1253 558.596 65.4373 558.77 65.68C558.96 65.9053 559.264 66.1133 559.68 66.304C560.113 66.4773 560.728 66.6507 561.526 66.824C562.704 67.084 563.614 67.37 564.256 67.682C564.914 67.994 565.382 68.3753 565.66 68.826C565.937 69.2767 566.076 69.8487 566.076 70.542C566.076 71.634 565.616 72.518 564.698 73.194C563.779 73.8527 562.566 74.182 561.058 74.182ZM582.255 61.078C582.983 61.026 583.347 61.3207 583.347 61.962C583.347 62.2393 583.269 62.4647 583.113 62.638C582.957 62.794 582.688 62.8893 582.307 62.924L581.527 63.002C580.366 63.106 579.499 63.522 578.927 64.25C578.372 64.9607 578.095 65.8013 578.095 66.772V73.09C578.095 73.4367 578 73.6967 577.809 73.87C577.618 74.0433 577.367 74.13 577.055 74.13C576.743 74.13 576.483 74.0433 576.275 73.87C576.084 73.6793 575.989 73.4193 575.989 73.09V62.118C575.989 61.7887 576.093 61.5373 576.301 61.364C576.509 61.1733 576.76 61.078 577.055 61.078C577.332 61.078 577.566 61.1733 577.757 61.364C577.948 61.5373 578.043 61.78 578.043 62.092V63.548C578.407 62.7853 578.918 62.2047 579.577 61.806C580.253 61.4073 581.024 61.1733 581.891 61.104L582.255 61.078ZM594.703 71.062C594.894 71.062 595.059 71.14 595.197 71.296C595.336 71.452 595.405 71.6513 595.405 71.894C595.405 72.3273 595.102 72.726 594.495 73.09C593.871 73.454 593.213 73.7313 592.519 73.922C591.826 74.0953 591.15 74.182 590.491 74.182C588.533 74.182 586.981 73.6013 585.837 72.44C584.711 71.2787 584.147 69.6753 584.147 67.63C584.147 66.33 584.399 65.186 584.901 64.198C585.404 63.1927 586.106 62.4127 587.007 61.858C587.926 61.3033 588.966 61.026 590.127 61.026C591.774 61.026 593.083 61.5633 594.053 62.638C595.024 63.7127 595.509 65.1687 595.509 67.006C595.509 67.3527 595.44 67.604 595.301 67.76C595.163 67.916 594.937 67.994 594.625 67.994H586.253C586.409 70.9753 587.822 72.466 590.491 72.466C591.167 72.466 591.748 72.3793 592.233 72.206C592.719 72.0153 593.239 71.764 593.793 71.452C594.244 71.192 594.547 71.062 594.703 71.062ZM590.153 62.664C589.044 62.664 588.151 63.0107 587.475 63.704C586.817 64.3973 586.427 65.3767 586.305 66.642H593.663C593.629 65.3593 593.308 64.38 592.701 63.704C592.095 63.0107 591.245 62.664 590.153 62.664ZM603.838 74.182C602.659 74.182 601.611 73.9133 600.692 73.376C599.791 72.8387 599.089 72.076 598.586 71.088C598.101 70.1 597.858 68.956 597.858 67.656C597.858 66.356 598.109 65.2033 598.612 64.198C599.132 63.1927 599.851 62.4127 600.77 61.858C601.689 61.3033 602.746 61.026 603.942 61.026C604.601 61.026 605.251 61.1213 605.892 61.312C606.551 61.4853 607.123 61.7453 607.608 62.092C607.92 62.3 608.137 62.508 608.258 62.716C608.397 62.9067 608.466 63.1233 608.466 63.366C608.466 63.6087 608.397 63.808 608.258 63.964C608.137 64.12 607.972 64.198 607.764 64.198C607.643 64.198 607.513 64.1633 607.374 64.094C607.235 64.0247 607.114 63.9553 607.01 63.886C606.923 63.8167 606.863 63.7733 606.828 63.756C606.377 63.4613 605.944 63.2273 605.528 63.054C605.129 62.8807 604.635 62.794 604.046 62.794C602.781 62.794 601.793 63.2273 601.082 64.094C600.389 64.9433 600.042 66.1307 600.042 67.656C600.042 69.1813 600.389 70.36 601.082 71.192C601.793 72.024 602.781 72.44 604.046 72.44C604.635 72.44 605.138 72.3533 605.554 72.18C605.987 72.0067 606.421 71.7727 606.854 71.478C607.045 71.3567 607.227 71.2527 607.4 71.166C607.573 71.0793 607.721 71.036 607.842 71.036C608.033 71.036 608.189 71.114 608.31 71.27C608.449 71.426 608.518 71.6253 608.518 71.868C608.518 72.0933 608.457 72.3013 608.336 72.492C608.215 72.6653 607.989 72.8647 607.66 73.09C607.175 73.4193 606.585 73.688 605.892 73.896C605.216 74.0867 604.531 74.182 603.838 74.182ZM617.45 61.026C618.94 61.026 620.067 61.4507 620.83 62.3C621.592 63.132 621.974 64.38 621.974 66.044V73.09C621.974 73.4193 621.878 73.6793 621.688 73.87C621.497 74.0433 621.246 74.13 620.934 74.13C620.604 74.13 620.344 74.0433 620.154 73.87C619.963 73.6793 619.868 73.4193 619.868 73.09V66.096C619.868 64.9693 619.634 64.1373 619.166 63.6C618.715 63.0627 617.987 62.794 616.982 62.794C615.82 62.794 614.893 63.1493 614.2 63.86C613.506 64.5707 613.16 65.5327 613.16 66.746V73.09C613.16 73.4193 613.064 73.6793 612.874 73.87C612.7 74.0433 612.449 74.13 612.12 74.13C611.79 74.13 611.53 74.0433 611.34 73.87C611.149 73.6793 611.054 73.4193 611.054 73.09V56.554C611.054 56.2593 611.149 56.0167 611.34 55.826C611.548 55.6353 611.808 55.54 612.12 55.54C612.449 55.54 612.7 55.6353 612.874 55.826C613.064 55.9993 613.16 56.242 613.16 56.554V63.366C613.576 62.6033 614.156 62.0227 614.902 61.624C615.647 61.2253 616.496 61.026 617.45 61.026ZM635.633 71.062C635.824 71.062 635.988 71.14 636.127 71.296C636.266 71.452 636.335 71.6513 636.335 71.894C636.335 72.3273 636.032 72.726 635.425 73.09C634.801 73.454 634.142 73.7313 633.449 73.922C632.756 74.0953 632.08 74.182 631.421 74.182C629.462 74.182 627.911 73.6013 626.767 72.44C625.64 71.2787 625.077 69.6753 625.077 67.63C625.077 66.33 625.328 65.186 625.831 64.198C626.334 63.1927 627.036 62.4127 627.937 61.858C628.856 61.3033 629.896 61.026 631.057 61.026C632.704 61.026 634.012 61.5633 634.983 62.638C635.954 63.7127 636.439 65.1687 636.439 67.006C636.439 67.3527 636.37 67.604 636.231 67.76C636.092 67.916 635.867 67.994 635.555 67.994H627.183C627.339 70.9753 628.752 72.466 631.421 72.466C632.097 72.466 632.678 72.3793 633.163 72.206C633.648 72.0153 634.168 71.764 634.723 71.452C635.174 71.192 635.477 71.062 635.633 71.062ZM631.083 62.664C629.974 62.664 629.081 63.0107 628.405 63.704C627.746 64.3973 627.356 65.3767 627.235 66.642H634.593C634.558 65.3593 634.238 64.38 633.631 63.704C633.024 63.0107 632.175 62.664 631.083 62.664ZM645.808 61.078C646.536 61.026 646.9 61.3207 646.9 61.962C646.9 62.2393 646.822 62.4647 646.666 62.638C646.51 62.794 646.241 62.8893 645.86 62.924L645.08 63.002C643.918 63.106 643.052 63.522 642.48 64.25C641.925 64.9607 641.648 65.8013 641.648 66.772V73.09C641.648 73.4367 641.552 73.6967 641.362 73.87C641.171 74.0433 640.92 74.13 640.608 74.13C640.296 74.13 640.036 74.0433 639.828 73.87C639.637 73.6793 639.542 73.4193 639.542 73.09V62.118C639.542 61.7887 639.646 61.5373 639.854 61.364C640.062 61.1733 640.313 61.078 640.608 61.078C640.885 61.078 641.119 61.1733 641.31 61.364C641.5 61.5373 641.596 61.78 641.596 62.092V63.548C641.96 62.7853 642.471 62.2047 643.13 61.806C643.806 61.4073 644.577 61.1733 645.444 61.104L645.808 61.078ZM653.68 74.182C652.501 74.182 651.453 73.9133 650.534 73.376C649.633 72.8387 648.931 72.076 648.428 71.088C647.943 70.1 647.7 68.956 647.7 67.656C647.7 66.356 647.951 65.2033 648.454 64.198C648.974 63.1927 649.693 62.4127 650.612 61.858C651.531 61.3033 652.588 61.026 653.784 61.026C654.443 61.026 655.093 61.1213 655.734 61.312C656.393 61.4853 656.965 61.7453 657.45 62.092C657.762 62.3 657.979 62.508 658.1 62.716C658.239 62.9067 658.308 63.1233 658.308 63.366C658.308 63.6087 658.239 63.808 658.1 63.964C657.979 64.12 657.814 64.198 657.606 64.198C657.485 64.198 657.355 64.1633 657.216 64.094C657.077 64.0247 656.956 63.9553 656.852 63.886C656.765 63.8167 656.705 63.7733 656.67 63.756C656.219 63.4613 655.786 63.2273 655.37 63.054C654.971 62.8807 654.477 62.794 653.888 62.794C652.623 62.794 651.635 63.2273 650.924 64.094C650.231 64.9433 649.884 66.1307 649.884 67.656C649.884 69.1813 650.231 70.36 650.924 71.192C651.635 72.024 652.623 72.44 653.888 72.44C654.477 72.44 654.98 72.3533 655.396 72.18C655.829 72.0067 656.263 71.7727 656.696 71.478C656.887 71.3567 657.069 71.2527 657.242 71.166C657.415 71.0793 657.563 71.036 657.684 71.036C657.875 71.036 658.031 71.114 658.152 71.27C658.291 71.426 658.36 71.6253 658.36 71.868C658.36 72.0933 658.299 72.3013 658.178 72.492C658.057 72.6653 657.831 72.8647 657.502 73.09C657.017 73.4193 656.427 73.688 655.734 73.896C655.058 74.0867 654.373 74.182 653.68 74.182ZM667.291 61.026C668.782 61.026 669.909 61.4507 670.671 62.3C671.434 63.132 671.815 64.38 671.815 66.044V73.09C671.815 73.4193 671.72 73.6793 671.529 73.87C671.339 74.0433 671.087 74.13 670.775 74.13C670.446 74.13 670.186 74.0433 669.995 73.87C669.805 73.6793 669.709 73.4193 669.709 73.09V66.096C669.709 64.9693 669.475 64.1373 669.007 63.6C668.557 63.0627 667.829 62.794 666.823 62.794C665.662 62.794 664.735 63.1493 664.041 63.86C663.348 64.5707 663.001 65.5327 663.001 66.746V73.09C663.001 73.4193 662.906 73.6793 662.715 73.87C662.542 74.0433 662.291 74.13 661.961 74.13C661.632 74.13 661.372 74.0433 661.181 73.87C660.991 73.6793 660.895 73.4193 660.895 73.09V56.554C660.895 56.2593 660.991 56.0167 661.181 55.826C661.389 55.6353 661.649 55.54 661.961 55.54C662.291 55.54 662.542 55.6353 662.715 55.826C662.906 55.9993 663.001 56.242 663.001 56.554V63.366C663.417 62.6033 663.998 62.0227 664.743 61.624C665.489 61.2253 666.338 61.026 667.291 61.026ZM685.475 71.062C685.665 71.062 685.83 71.14 685.969 71.296C686.107 71.452 686.177 71.6513 686.177 71.894C686.177 72.3273 685.873 72.726 685.267 73.09C684.643 73.454 683.984 73.7313 683.291 73.922C682.597 74.0953 681.921 74.182 681.263 74.182C679.304 74.182 677.753 73.6013 676.609 72.44C675.482 71.2787 674.919 69.6753 674.919 67.63C674.919 66.33 675.17 65.186 675.673 64.198C676.175 63.1927 676.877 62.4127 677.779 61.858C678.697 61.3033 679.737 61.026 680.899 61.026C682.545 61.026 683.854 61.5633 684.825 62.638C685.795 63.7127 686.281 65.1687 686.281 67.006C686.281 67.3527 686.211 67.604 686.073 67.76C685.934 67.916 685.709 67.994 685.397 67.994H677.025C677.181 70.9753 678.593 72.466 681.263 72.466C681.939 72.466 682.519 72.3793 683.005 72.206C683.49 72.0153 684.01 71.764 684.565 71.452C685.015 71.192 685.319 71.062 685.475 71.062ZM680.925 62.664C679.815 62.664 678.923 63.0107 678.247 63.704C677.588 64.3973 677.198 65.3767 677.077 66.642H684.435C684.4 65.3593 684.079 64.38 683.473 63.704C682.866 63.0107 682.017 62.664 680.925 62.664ZM693.648 74.182C692.85 74.182 692.088 74.0867 691.36 73.896C690.649 73.7053 690.016 73.4367 689.462 73.09C689.15 72.882 688.924 72.6913 688.786 72.518C688.664 72.3273 688.604 72.102 688.604 71.842C688.604 71.6167 688.664 71.4347 688.786 71.296C688.924 71.14 689.098 71.062 689.306 71.062C689.514 71.062 689.817 71.192 690.216 71.452C690.736 71.764 691.247 72.0153 691.75 72.206C692.27 72.3793 692.911 72.466 693.674 72.466C694.61 72.466 695.338 72.3013 695.858 71.972C696.378 71.6427 696.638 71.166 696.638 70.542C696.638 70.1607 696.542 69.8573 696.352 69.632C696.161 69.3893 695.832 69.1813 695.364 69.008C694.896 68.8173 694.211 68.6267 693.31 68.436C691.784 68.1067 690.692 67.6647 690.034 67.11C689.375 66.5553 689.046 65.8013 689.046 64.848C689.046 64.1027 689.254 63.444 689.67 62.872C690.086 62.3 690.658 61.8493 691.386 61.52C692.131 61.1907 692.972 61.026 693.908 61.026C694.584 61.026 695.234 61.1213 695.858 61.312C696.499 61.4853 697.062 61.7367 697.548 62.066C698.137 62.482 698.432 62.9153 698.432 63.366C698.432 63.5913 698.362 63.782 698.224 63.938C698.085 64.094 697.92 64.172 697.73 64.172C697.522 64.172 697.21 64.0247 696.794 63.73C696.308 63.418 695.849 63.1753 695.416 63.002C694.982 62.8287 694.445 62.742 693.804 62.742C692.989 62.742 692.33 62.924 691.828 63.288C691.342 63.652 691.1 64.1373 691.1 64.744C691.1 65.1253 691.186 65.4373 691.36 65.68C691.55 65.9053 691.854 66.1133 692.27 66.304C692.703 66.4773 693.318 66.6507 694.116 66.824C695.294 67.084 696.204 67.37 696.846 67.682C697.504 67.994 697.972 68.3753 698.25 68.826C698.527 69.2767 698.666 69.8487 698.666 70.542C698.666 71.634 698.206 72.518 697.288 73.194C696.369 73.8527 695.156 74.182 693.648 74.182Z" fill="#CB563E"/>
<path d="M263 0V175.313C311.444 175.313 350.748 214.556 350.748 263.061C350.748 311.566 311.505 350.809 263 350.809C214.495 350.809 175.252 311.566 175.252 263.061C175.252 254.408 176.532 245.999 178.847 238.077L10.8466 188.11C3.77803 211.814 0 236.98 0 263C0 408.272 117.728 526 263 526C408.272 526 526 408.272 526 263C526 117.728 408.272 0 263 0Z" fill="#CB563E" fill-opacity="0.3"/>
<path d="M263 28.9844V184.977C306.106 184.977 341.078 219.895 341.078 263.055C341.078 306.215 306.16 341.133 263 341.133C219.841 341.133 184.922 306.215 184.922 263.055C184.922 255.356 186.061 247.873 188.122 240.824L38.6352 196.364C32.3456 217.455 28.9839 239.848 28.9839 263.001C28.9839 392.263 133.738 497.017 263 497.017C392.262 497.017 497.017 392.263 497.017 263.001C497.017 133.739 392.262 28.9844 263 28.9844Z" fill="#CB563E"/>
<path d="M263 184.977V28.9844C156.944 28.9844 67.3175 99.5797 38.6348 196.364L188.175 240.77C197.772 208.509 227.648 184.977 263 184.977Z" fill="#628B8B"/>
<path d="M240.4 415.52C242.053 415.973 243.32 416.8 244.2 418C245.107 419.2 245.56 420.667 245.56 422.4C245.56 424.88 244.627 426.827 242.76 428.24C240.893 429.627 238.307 430.32 235 430.32C231.693 430.32 229.107 429.627 227.24 428.24C225.373 426.827 224.44 424.88 224.44 422.4C224.44 420.667 224.893 419.2 225.8 418C226.707 416.773 227.987 415.947 229.64 415.52C228.227 414.987 227.12 414.16 226.32 413.04C225.52 411.893 225.12 410.56 225.12 409.04C225.12 406.693 226 404.84 227.76 403.48C229.52 402.12 231.933 401.44 235 401.44C238.067 401.44 240.48 402.12 242.24 403.48C244 404.84 244.88 406.693 244.88 409.04C244.88 410.587 244.48 411.933 243.68 413.08C242.88 414.227 241.787 415.04 240.4 415.52ZM235 405.48C231.667 405.48 230 406.84 230 409.56C230 410.92 230.413 411.96 231.24 412.68C232.093 413.373 233.347 413.72 235 413.72C236.653 413.72 237.893 413.373 238.72 412.68C239.573 411.96 240 410.92 240 409.56C240 406.84 238.333 405.48 235 405.48ZM235 426.28C238.813 426.28 240.72 424.853 240.72 422C240.72 419.147 238.813 417.72 235 417.72C231.187 417.72 229.28 419.147 229.28 422C229.28 424.853 231.187 426.28 235 426.28ZM258.984 430.36C255.651 430.36 253.104 429.133 251.344 426.68C249.584 424.2 248.704 420.6 248.704 415.88C248.704 411.187 249.584 407.613 251.344 405.16C253.104 402.68 255.651 401.44 258.984 401.44C262.318 401.44 264.864 402.68 266.624 405.16C268.384 407.613 269.264 411.187 269.264 415.88C269.264 420.573 268.384 424.16 266.624 426.64C264.864 429.12 262.318 430.36 258.984 430.36ZM258.984 426.32C260.798 426.32 262.118 425.493 262.944 423.84C263.771 422.16 264.184 419.507 264.184 415.88C264.184 412.227 263.771 409.587 262.944 407.96C262.118 406.307 260.798 405.48 258.984 405.48C257.171 405.48 255.851 406.307 255.024 407.96C254.198 409.613 253.784 412.253 253.784 415.88C253.784 419.507 254.198 422.16 255.024 423.84C255.851 425.493 257.171 426.32 258.984 426.32ZM284.249 429.44C284.009 429.867 283.715 430.187 283.369 430.4C283.022 430.613 282.675 430.72 282.329 430.72C281.849 430.72 281.422 430.547 281.049 430.2C280.702 429.853 280.529 429.413 280.529 428.88C280.529 428.427 280.662 427.973 280.929 427.52L295.489 402.36C295.729 401.933 296.022 401.613 296.369 401.4C296.715 401.187 297.062 401.08 297.409 401.08C297.889 401.08 298.302 401.253 298.649 401.6C299.022 401.947 299.209 402.387 299.209 402.92C299.209 403.373 299.075 403.827 298.809 404.28L284.249 429.44ZM279.809 418.64C277.569 418.64 275.822 417.907 274.569 416.44C273.315 414.973 272.689 412.827 272.689 410C272.689 407.2 273.315 405.067 274.569 403.6C275.822 402.133 277.569 401.4 279.809 401.4C282.049 401.4 283.795 402.133 285.049 403.6C286.329 405.067 286.969 407.2 286.969 410C286.969 412.827 286.329 414.973 285.049 416.44C283.795 417.907 282.049 418.64 279.809 418.64ZM279.809 415.4C280.822 415.4 281.555 414.987 282.009 414.16C282.489 413.307 282.729 411.92 282.729 410C282.729 408.133 282.489 406.773 282.009 405.92C281.529 405.067 280.795 404.64 279.809 404.64C278.822 404.64 278.089 405.067 277.609 405.92C277.155 406.747 276.929 408.107 276.929 410C276.929 411.92 277.155 413.307 277.609 414.16C278.089 414.987 278.822 415.4 279.809 415.4ZM299.929 430.28C297.689 430.28 295.942 429.547 294.689 428.08C293.435 426.613 292.809 424.453 292.809 421.6C292.809 418.8 293.435 416.68 294.689 415.24C295.969 413.773 297.715 413.04 299.929 413.04C302.169 413.04 303.915 413.773 305.169 415.24C306.422 416.707 307.049 418.84 307.049 421.64C307.049 424.467 306.422 426.613 305.169 428.08C303.915 429.547 302.169 430.28 299.929 430.28ZM299.929 427.04C300.915 427.04 301.649 426.627 302.129 425.8C302.609 424.947 302.849 423.56 302.849 421.64C302.849 419.773 302.609 418.413 302.129 417.56C301.649 416.707 300.915 416.28 299.929 416.28C298.942 416.28 298.209 416.707 297.729 417.56C297.249 418.413 297.009 419.773 297.009 421.64C297.009 423.56 297.249 424.947 297.729 425.8C298.209 426.627 298.942 427.04 299.929 427.04Z" fill="white"/>
<path d="M156.92 155.84C158.52 155.84 159.32 156.52 159.32 157.88C159.32 159.293 158.52 160 156.92 160H141.72C141.027 160 140.48 159.8 140.08 159.4C139.68 158.973 139.48 158.453 139.48 157.84C139.48 157.04 139.787 156.32 140.4 155.68L149.52 145.88C150.64 144.653 151.453 143.533 151.96 142.52C152.493 141.48 152.76 140.453 152.76 139.44C152.76 138.187 152.4 137.227 151.68 136.56C150.96 135.893 149.933 135.56 148.6 135.56C147.507 135.56 146.44 135.773 145.4 136.2C144.387 136.6 143.36 137.16 142.32 137.88C142.053 138.067 141.787 138.227 141.52 138.36C141.253 138.467 140.987 138.52 140.72 138.52C140.267 138.52 139.867 138.307 139.52 137.88C139.2 137.453 139.04 136.947 139.04 136.36C139.04 135.96 139.107 135.613 139.24 135.32C139.4 135.027 139.64 134.747 139.96 134.48C141.133 133.547 142.507 132.813 144.08 132.28C145.653 131.72 147.227 131.44 148.8 131.44C151.547 131.44 153.733 132.133 155.36 133.52C157.013 134.907 157.84 136.773 157.84 139.12C157.84 140.747 157.493 142.28 156.8 143.72C156.107 145.133 154.933 146.72 153.28 148.48L146.36 155.84H156.92ZM173.023 160.36C169.69 160.36 167.143 159.133 165.383 156.68C163.623 154.2 162.743 150.6 162.743 145.88C162.743 141.187 163.623 137.613 165.383 135.16C167.143 132.68 169.69 131.44 173.023 131.44C176.357 131.44 178.903 132.68 180.663 135.16C182.423 137.613 183.303 141.187 183.303 145.88C183.303 150.573 182.423 154.16 180.663 156.64C178.903 159.12 176.357 160.36 173.023 160.36ZM173.023 156.32C174.837 156.32 176.157 155.493 176.983 153.84C177.81 152.16 178.223 149.507 178.223 145.88C178.223 142.227 177.81 139.587 176.983 137.96C176.157 136.307 174.837 135.48 173.023 135.48C171.21 135.48 169.89 136.307 169.063 137.96C168.237 139.613 167.823 142.253 167.823 145.88C167.823 149.507 168.237 152.16 169.063 153.84C169.89 155.493 171.21 156.32 173.023 156.32ZM198.288 159.44C198.048 159.867 197.754 160.187 197.408 160.4C197.061 160.613 196.714 160.72 196.368 160.72C195.888 160.72 195.461 160.547 195.088 160.2C194.741 159.853 194.568 159.413 194.568 158.88C194.568 158.427 194.701 157.973 194.968 157.52L209.528 132.36C209.768 131.933 210.061 131.613 210.408 131.4C210.754 131.187 211.101 131.08 211.448 131.08C211.928 131.08 212.341 131.253 212.688 131.6C213.061 131.947 213.248 132.387 213.248 132.92C213.248 133.373 213.114 133.827 212.848 134.28L198.288 159.44ZM193.848 148.64C191.608 148.64 189.861 147.907 188.608 146.44C187.354 144.973 186.728 142.827 186.728 140C186.728 137.2 187.354 135.067 188.608 133.6C189.861 132.133 191.608 131.4 193.848 131.4C196.088 131.4 197.834 132.133 199.088 133.6C200.368 135.067 201.008 137.2 201.008 140C201.008 142.827 200.368 144.973 199.088 146.44C197.834 147.907 196.088 148.64 193.848 148.64ZM193.848 145.4C194.861 145.4 195.594 144.987 196.048 144.16C196.528 143.307 196.768 141.92 196.768 140C196.768 138.133 196.528 136.773 196.048 135.92C195.568 135.067 194.834 134.64 193.848 134.64C192.861 134.64 192.128 135.067 191.648 135.92C191.194 136.747 190.968 138.107 190.968 140C190.968 141.92 191.194 143.307 191.648 144.16C192.128 144.987 192.861 145.4 193.848 145.4ZM213.968 160.28C211.728 160.28 209.981 159.547 208.728 158.08C207.474 156.613 206.848 154.453 206.848 151.6C206.848 148.8 207.474 146.68 208.728 145.24C210.008 143.773 211.754 143.04 213.968 143.04C216.208 143.04 217.954 143.773 219.208 145.24C220.461 146.707 221.088 148.84 221.088 151.64C221.088 154.467 220.461 156.613 219.208 158.08C217.954 159.547 216.208 160.28 213.968 160.28ZM213.968 157.04C214.954 157.04 215.688 156.627 216.168 155.8C216.648 154.947 216.888 153.56 216.888 151.64C216.888 149.773 216.648 148.413 216.168 147.56C215.688 146.707 214.954 146.28 213.968 146.28C212.981 146.28 212.248 146.707 211.768 147.56C211.288 148.413 211.048 149.773 211.048 151.64C211.048 153.56 211.288 154.947 211.768 155.8C212.248 156.627 212.981 157.04 213.968 157.04Z" fill="white"/>
</svg>
