<svg width="700" height="526" viewBox="0 0 700 526" fill="none" xmlns="http://www.w3.org/2000/svg">
<path d="M463 190L528.85 94H699" stroke="#CB563E" stroke-width="2" stroke-linecap="round"/>
<path d="M263 0V175.313C311.444 175.313 350.748 214.556 350.748 263.061C350.748 311.566 311.505 350.809 263 350.809C214.495 350.809 175.252 311.566 175.252 263.061C175.252 254.408 176.532 245.999 178.847 238.077L10.8466 188.11C3.77803 211.814 0 236.98 0 263C0 408.272 117.728 526 263 526C408.272 526 526 408.272 526 263C526 117.728 408.272 0 263 0Z" fill="#CB563E" fill-opacity="0.3"/>
<path d="M263 28.9844V184.977C306.106 184.977 341.078 219.895 341.078 263.055C341.078 306.215 306.16 341.133 263 341.133C219.841 341.133 184.922 306.215 184.922 263.055C184.922 255.356 186.061 247.873 188.122 240.824L38.6352 196.364C32.3456 217.455 28.9839 239.848 28.9839 263.001C28.9839 392.263 133.738 497.017 263 497.017C392.262 497.017 497.017 392.263 497.017 263.001C497.017 133.739 392.262 28.9844 263 28.9844Z" fill="#CB563E"/>
<path d="M263 184.977V28.9844C156.944 28.9844 67.3175 99.5797 38.6348 196.364L188.175 240.77C197.772 208.509 227.648 184.977 263 184.977Z" fill="#628B8B"/>
<path d="M240.4 415.52C242.053 415.973 243.32 416.8 244.2 418C245.107 419.2 245.56 420.667 245.56 422.4C245.56 424.88 244.627 426.827 242.76 428.24C240.893 429.627 238.307 430.32 235 430.32C231.693 430.32 229.107 429.627 227.24 428.24C225.373 426.827 224.44 424.88 224.44 422.4C224.44 420.667 224.893 419.2 225.8 418C226.707 416.773 227.987 415.947 229.64 415.52C228.227 414.987 227.12 414.16 226.32 413.04C225.52 411.893 225.12 410.56 225.12 409.04C225.12 406.693 226 404.84 227.76 403.48C229.52 402.12 231.933 401.44 235 401.44C238.067 401.44 240.48 402.12 242.24 403.48C244 404.84 244.88 406.693 244.88 409.04C244.88 410.587 244.48 411.933 243.68 413.08C242.88 414.227 241.787 415.04 240.4 415.52ZM235 405.48C231.667 405.48 230 406.84 230 409.56C230 410.92 230.413 411.96 231.24 412.68C232.093 413.373 233.347 413.72 235 413.72C236.653 413.72 237.893 413.373 238.72 412.68C239.573 411.96 240 410.92 240 409.56C240 406.84 238.333 405.48 235 405.48ZM235 426.28C238.813 426.28 240.72 424.853 240.72 422C240.72 419.147 238.813 417.72 235 417.72C231.187 417.72 229.28 419.147 229.28 422C229.28 424.853 231.187 426.28 235 426.28ZM258.984 430.36C255.651 430.36 253.104 429.133 251.344 426.68C249.584 424.2 248.704 420.6 248.704 415.88C248.704 411.187 249.584 407.613 251.344 405.16C253.104 402.68 255.651 401.44 258.984 401.44C262.318 401.44 264.864 402.68 266.624 405.16C268.384 407.613 269.264 411.187 269.264 415.88C269.264 420.573 268.384 424.16 266.624 426.64C264.864 429.12 262.318 430.36 258.984 430.36ZM258.984 426.32C260.798 426.32 262.118 425.493 262.944 423.84C263.771 422.16 264.184 419.507 264.184 415.88C264.184 412.227 263.771 409.587 262.944 407.96C262.118 406.307 260.798 405.48 258.984 405.48C257.171 405.48 255.851 406.307 255.024 407.96C254.198 409.613 253.784 412.253 253.784 415.88C253.784 419.507 254.198 422.16 255.024 423.84C255.851 425.493 257.171 426.32 258.984 426.32ZM284.249 429.44C284.009 429.867 283.715 430.187 283.369 430.4C283.022 430.613 282.675 430.72 282.329 430.72C281.849 430.72 281.422 430.547 281.049 430.2C280.702 429.853 280.529 429.413 280.529 428.88C280.529 428.427 280.662 427.973 280.929 427.52L295.489 402.36C295.729 401.933 296.022 401.613 296.369 401.4C296.715 401.187 297.062 401.08 297.409 401.08C297.889 401.08 298.302 401.253 298.649 401.6C299.022 401.947 299.209 402.387 299.209 402.92C299.209 403.373 299.075 403.827 298.809 404.28L284.249 429.44ZM279.809 418.64C277.569 418.64 275.822 417.907 274.569 416.44C273.315 414.973 272.689 412.827 272.689 410C272.689 407.2 273.315 405.067 274.569 403.6C275.822 402.133 277.569 401.4 279.809 401.4C282.049 401.4 283.795 402.133 285.049 403.6C286.329 405.067 286.969 407.2 286.969 410C286.969 412.827 286.329 414.973 285.049 416.44C283.795 417.907 282.049 418.64 279.809 418.64ZM279.809 415.4C280.822 415.4 281.555 414.987 282.009 414.16C282.489 413.307 282.729 411.92 282.729 410C282.729 408.133 282.489 406.773 282.009 405.92C281.529 405.067 280.795 404.64 279.809 404.64C278.822 404.64 278.089 405.067 277.609 405.92C277.155 406.747 276.929 408.107 276.929 410C276.929 411.92 277.155 413.307 277.609 414.16C278.089 414.987 278.822 415.4 279.809 415.4ZM299.929 430.28C297.689 430.28 295.942 429.547 294.689 428.08C293.435 426.613 292.809 424.453 292.809 421.6C292.809 418.8 293.435 416.68 294.689 415.24C295.969 413.773 297.715 413.04 299.929 413.04C302.169 413.04 303.915 413.773 305.169 415.24C306.422 416.707 307.049 418.84 307.049 421.64C307.049 424.467 306.422 426.613 305.169 428.08C303.915 429.547 302.169 430.28 299.929 430.28ZM299.929 427.04C300.915 427.04 301.649 426.627 302.129 425.8C302.609 424.947 302.849 423.56 302.849 421.64C302.849 419.773 302.609 418.413 302.129 417.56C301.649 416.707 300.915 416.28 299.929 416.28C298.942 416.28 298.209 416.707 297.729 417.56C297.249 418.413 297.009 419.773 297.009 421.64C297.009 423.56 297.249 424.947 297.729 425.8C298.209 426.627 298.942 427.04 299.929 427.04Z" fill="white"/>
<path d="M156.92 155.84C158.52 155.84 159.32 156.52 159.32 157.88C159.32 159.293 158.52 160 156.92 160H141.72C141.027 160 140.48 159.8 140.08 159.4C139.68 158.973 139.48 158.453 139.48 157.84C139.48 157.04 139.787 156.32 140.4 155.68L149.52 145.88C150.64 144.653 151.453 143.533 151.96 142.52C152.493 141.48 152.76 140.453 152.76 139.44C152.76 138.187 152.4 137.227 151.68 136.56C150.96 135.893 149.933 135.56 148.6 135.56C147.507 135.56 146.44 135.773 145.4 136.2C144.387 136.6 143.36 137.16 142.32 137.88C142.053 138.067 141.787 138.227 141.52 138.36C141.253 138.467 140.987 138.52 140.72 138.52C140.267 138.52 139.867 138.307 139.52 137.88C139.2 137.453 139.04 136.947 139.04 136.36C139.04 135.96 139.107 135.613 139.24 135.32C139.4 135.027 139.64 134.747 139.96 134.48C141.133 133.547 142.507 132.813 144.08 132.28C145.653 131.72 147.227 131.44 148.8 131.44C151.547 131.44 153.733 132.133 155.36 133.52C157.013 134.907 157.84 136.773 157.84 139.12C157.84 140.747 157.493 142.28 156.8 143.72C156.107 145.133 154.933 146.72 153.28 148.48L146.36 155.84H156.92ZM173.023 160.36C169.69 160.36 167.143 159.133 165.383 156.68C163.623 154.2 162.743 150.6 162.743 145.88C162.743 141.187 163.623 137.613 165.383 135.16C167.143 132.68 169.69 131.44 173.023 131.44C176.357 131.44 178.903 132.68 180.663 135.16C182.423 137.613 183.303 141.187 183.303 145.88C183.303 150.573 182.423 154.16 180.663 156.64C178.903 159.12 176.357 160.36 173.023 160.36ZM173.023 156.32C174.837 156.32 176.157 155.493 176.983 153.84C177.81 152.16 178.223 149.507 178.223 145.88C178.223 142.227 177.81 139.587 176.983 137.96C176.157 136.307 174.837 135.48 173.023 135.48C171.21 135.48 169.89 136.307 169.063 137.96C168.237 139.613 167.823 142.253 167.823 145.88C167.823 149.507 168.237 152.16 169.063 153.84C169.89 155.493 171.21 156.32 173.023 156.32ZM198.288 159.44C198.048 159.867 197.754 160.187 197.408 160.4C197.061 160.613 196.714 160.72 196.368 160.72C195.888 160.72 195.461 160.547 195.088 160.2C194.741 159.853 194.568 159.413 194.568 158.88C194.568 158.427 194.701 157.973 194.968 157.52L209.528 132.36C209.768 131.933 210.061 131.613 210.408 131.4C210.754 131.187 211.101 131.08 211.448 131.08C211.928 131.08 212.341 131.253 212.688 131.6C213.061 131.947 213.248 132.387 213.248 132.92C213.248 133.373 213.114 133.827 212.848 134.28L198.288 159.44ZM193.848 148.64C191.608 148.64 189.861 147.907 188.608 146.44C187.354 144.973 186.728 142.827 186.728 140C186.728 137.2 187.354 135.067 188.608 133.6C189.861 132.133 191.608 131.4 193.848 131.4C196.088 131.4 197.834 132.133 199.088 133.6C200.368 135.067 201.008 137.2 201.008 140C201.008 142.827 200.368 144.973 199.088 146.44C197.834 147.907 196.088 148.64 193.848 148.64ZM193.848 145.4C194.861 145.4 195.594 144.987 196.048 144.16C196.528 143.307 196.768 141.92 196.768 140C196.768 138.133 196.528 136.773 196.048 135.92C195.568 135.067 194.834 134.64 193.848 134.64C192.861 134.64 192.128 135.067 191.648 135.92C191.194 136.747 190.968 138.107 190.968 140C190.968 141.92 191.194 143.307 191.648 144.16C192.128 144.987 192.861 145.4 193.848 145.4ZM213.968 160.28C211.728 160.28 209.981 159.547 208.728 158.08C207.474 156.613 206.848 154.453 206.848 151.6C206.848 148.8 207.474 146.68 208.728 145.24C210.008 143.773 211.754 143.04 213.968 143.04C216.208 143.04 217.954 143.773 219.208 145.24C220.461 146.707 221.088 148.84 221.088 151.64C221.088 154.467 220.461 156.613 219.208 158.08C217.954 159.547 216.208 160.28 213.968 160.28ZM213.968 157.04C214.954 157.04 215.688 156.627 216.168 155.8C216.648 154.947 216.888 153.56 216.888 151.64C216.888 149.773 216.648 148.413 216.168 147.56C215.688 146.707 214.954 146.28 213.968 146.28C212.981 146.28 212.248 146.707 211.768 147.56C211.288 148.413 211.048 149.773 211.048 151.64C211.048 153.56 211.288 154.947 211.768 155.8C212.248 156.627 212.981 157.04 213.968 157.04Z" fill="white"/>
</svg>
