<svg xmlns="http://www.w3.org/2000/svg" viewBox="0 0 107.39 121.77">
    <title>bateauFichier 6</title>
    <g id="Calque_2" data-name="Calque 2">
        <g id="Calque_1-2" data-name="Calque 1">
            <polyline points="17.02 114.75 17.02 109.34 0.22 109.34 0.22 114.75" style="fill:none;stroke:#79787d;stroke-miterlimit:10;stroke-width:0.363178154234189px"/>
            <line x1="8.62" y1="109.34" x2="8.62" y2="114.75" style="fill:none;stroke:#79787d;stroke-miterlimit:10;stroke-width:0.363178154234189px"/>
            <path d="M85.78,113.91a14.81,14.81,0,0,1,11.64-7.53c8.63-1,13.27-3.38,6.63,4.92" style="fill:none;stroke:#79787d;stroke-miterlimit:10;stroke-width:0.371982504865735px"/>
            <path d="M81.57,113.49,76,109.2H24.18v5.5S69.92,114.7,81.57,113.49Z" style="fill:#0877bd"/>
            <polygon points="24.18 109.2 21.65 109.25 21.65 107.15 75.85 107.15 75.85 109.2 24.18 109.2" style="fill:#90c2e1"/>
            <rect x="27.71" y="110.84" width="5.39" height="2.4" style="fill:#88bedf"/>
            <rect x="37.17" y="110.84" width="5.39" height="2.4" style="fill:#88bedf"/>
            <rect x="46.63" y="110.84" width="5.39" height="2.4" style="fill:#88bedf"/>
            <rect x="56.09" y="110.84" width="5.39" height="2.4" style="fill:#88bedf"/>
            <rect x="55.14" width="2.69" height="107.82" style="fill:#90c2e1"/>
            <polygon points="55.14 8.27 10.56 102.49 52.87 102.49 55.14 8.27" style="fill:#d3d3d3"/>
            <polygon points="57.84 9.2 59.99 84.33 106.76 105.27 57.84 9.2" style="fill:#f2f2f2"/>
            <path d="M0,114.61s90.56,1,104.65-3.77c0,0-5,10.57-8.3,10.82s-88,0-88,0S3.08,121.77,0,114.61Z" style="fill:#0877bd"/>
        </g>
    </g>
</svg>