<svg id="Calque_1" data-name="Calque 1" xmlns="http://www.w3.org/2000/svg" xmlns:xlink="http://www.w3.org/1999/xlink" viewBox="0 0 539 301"><defs><linearGradient id="Dégradé_sans_nom_26" x1="260.09" y1="90.43" x2="279.59" y2="90.43" gradientUnits="userSpaceOnUse"><stop offset="0" stop-color="#fbc36b"/><stop offset="1" stop-color="#faaf39"/></linearGradient><linearGradient id="Dégradé_sans_nom_26-2" x1="256.76" y1="96.9" x2="283.76" y2="96.9" xlink:href="#Dégradé_sans_nom_26"/><linearGradient id="Dégradé_sans_nom_3" x1="249.84" y1="64.95" x2="282.31" y2="64.95" gradientUnits="userSpaceOnUse"><stop offset="0.11" stop-color="#00324e"/><stop offset="1"/></linearGradient></defs><title>Voiture-mec-sanspneus</title><path d="M468.64,126.42c-27.75-13.88-64.61-26.51-113-58.86,0,0-60-39.48-111.28-38.18-97,2.46-150.16.45-204,89.83-15.91,26.39-17,29.06-18.48,51.18-.71,10.3-.16,19.1,2.19,26.53a61.89,61.89,0,0,1,119.22,33.26c27.35.65,128.87,2.86,223.77,2.25a70.28,70.28,0,0,1-.93-11.41c0-35.77,27-64.76,60.26-64.76s60.27,29,60.27,64.76q0,3-.26,6c15.38-3.8,27-9.73,29.75-18.87a11.09,11.09,0,0,0,.26-2.51c0-.31.12-15.4.14-15.8C518.07,155.1,497.52,140.86,468.64,126.42Z" style="fill:#ffc441"/><path d="M228.25,36.62c-4.44-.36-42-5.5-95.31,9.51-49,13.82-67.8,57.66-67.8,57.66l175.33-1.23Z" style="fill:#80bbde"/><path d="M233.76,37l12.65,65.52h112c21.14,0,10.72-6.76,8.13-8.59C352,83.68,320.75,62.35,298.15,52.65c-28.73-12.33-62-16-64.39-15.62C233.64,37.05,233.7,39.22,233.76,37Z" style="fill:#80bbde"/><path d="M404.34,96.23h0A42.86,42.86,0,0,1,375,91.09S298.79,38.36,249.41,35.34l18.27-3.5S320.47,39.62,404.34,96.23Z" style="fill:#a6cfe8"/><rect x="53.56" y="120.09" width="26.88" height="21.8" rx="9.64" transform="translate(-23.89 15.29) rotate(-11.06)" style="fill:#fff"/><rect x="260.49" y="118.78" width="28.33" height="11.95" rx="5.29" transform="translate(8.9 -17.97) rotate(3.81)" style="fill:#fff"/><path d="M432.18,136.44l15.73,6.45a80,80,0,0,0,27.42,5.94l13.38.49a2.46,2.46,0,0,0,1.52-4.47c-6.13-4.35-16.44-10.37-28.49-12.17a139.93,139.93,0,0,0-28.78-1A2.47,2.47,0,0,0,432.18,136.44Z" style="fill:#fff"/><path d="M83.55,151.84A61.91,61.91,0,0,0,24,196.92c8.16,25.85,38.06,35,112.1,33.08l7.12.18a61.88,61.88,0,0,0-59.66-78.34Z" style="fill:#ffd985"/><path d="M33.61,178.94s12.24-27.68,50.67-27.68,56.43,25.83,60.12,55.36" style="fill:none;stroke:#fff;stroke-linecap:round;stroke-linejoin:round;stroke-width:3px"/><path d="M426.31,156.26c-33.28,0-60.26,29-60.26,64.76a70.28,70.28,0,0,0,.93,11.41l13.18-.11S446.09,237,486.32,227q.26-3,.26-6C486.58,185.25,459.6,156.26,426.31,156.26Z" style="fill:#d3d3d3"/><path d="M426.31,156.26c-33.28,0-60.26,29-60.26,64.76a70.28,70.28,0,0,0,.93,11.41l13.18-.11S446.09,237,486.32,227q.26-3,.26-6C486.58,185.25,459.6,156.26,426.31,156.26Z" style="fill:#ffd985"/><path d="M367.6,213.57s3.83-57.31,59.07-57.31c38.43,0,56.42,30,60.11,59.57" style="fill:none;stroke:#fff;stroke-linecap:round;stroke-linejoin:round;stroke-width:3px"/><path d="M97.22,118.36s77.56-1.12,130.24,3.51" style="fill:none;stroke:#fff;stroke-linecap:round;stroke-linejoin:round;stroke-width:3px"/><ellipse cx="274.61" cy="124.76" rx="2.19" ry="8.45" transform="translate(131.88 390.48) rotate(-86.19)" style="fill:#d3d3d3"/><path d="M297.94,74.6a2.08,2.08,0,0,0,1.28-.61,1,1,0,0,0,0-1.29,40,40,0,0,1-2.83-4.12c-.35-.86-.25-1.11,0-3.68.16-1.77-1.62-4.83-2.75-6.56,0,0,.5-1.93-3.55-3.3-2.42-.82-4.75-3-8.47-2.9a9.09,9.09,0,0,0-1.66.21,3.28,3.28,0,0,1,.56.67c.22.36.68,1.09,1.21,2,.14.23.28.48.43.74,1.37,2.41,2.94,5.6,2.32,6.84-.93,1.88.28,4.25.28,4.25l3.41,4.48s0,1.29-.69,1.62a8.19,8.19,0,0,1-2.33.86c-.78.14,0,1.6,0,1.6s.63.68.15,1l-.48.36s.68.48.72.95-.49.81-.8,1.21-.29,1,.27,1.74a2.37,2.37,0,0,1-.05,2.86c-.59.75-2,.53-2.8.57h-.37c-1.25.07-4.32.36-4.52,2.23a7.09,7.09,0,0,0,0,1.13A3.05,3.05,0,0,1,279,88c1.06.93,0,2.7,0,3.61a29,29,0,0,0,.4,3.23c0,.28.07.46.07.46h0a.77.77,0,0,1,0,.15,9.8,9.8,0,0,0,1.45,3.06c.95,1.58,2.1,3.26,2.54,3.9H295.2A60.3,60.3,0,0,1,291.75,97c-.49-.88-1-1.84-1.51-2.9l-.09-.16c-.36-.64-.69-1.19-.95-1.56-1.19-1.67.27-7.66.18-8.78a.2.2,0,0,1,.27-.2,9.8,9.8,0,0,0,7.53-.1,2,2,0,0,0,.84-1.41,3.51,3.51,0,0,0-.4-2c-.53-.81.24-1,.24-1a1,1,0,0,0,.17-.41,1.17,1.17,0,0,0-.43-1,1.26,1.26,0,0,0,.29-.43,1.58,1.58,0,0,0,.09-.74l0-.09a.36.36,0,0,0-.05-.09v0l-.06,0a.14.14,0,0,0-.09,0C297.42,76.13,297.05,74.76,297.94,74.6Z" style="fill:#0177be"/><path d="M279,95.21l.38.12a1.34,1.34,0,0,0-.14-.36A2.72,2.72,0,0,0,279,95.21Z" style="fill:#0177be"/><path d="M255.7,74.13A18,18,0,0,1,251,62.46c0-5.06,2.12-10.31,8.29-13.05,10.58-4.7,20.17,1.73,21.37,3.7.82,1.35,4.9,7.7,4,9.58s.28,4.24.28,4.24l3.41,4.49s0,1.28-.69,1.61a8.19,8.19,0,0,1-2.33.87c-.78.14,0,1.6,0,1.6s.63.67.15,1l-.48.36s.68.47.72,1-.49.81-.8,1.2-.29,1,.27,1.75a2.35,2.35,0,0,1-.05,2.85c-.59.75-2,.53-2.8.57s-4.67.15-4.89,2.24.75,4.34.15,5.54.45,4.26.45,4.26l2.49,3.32H260.62s2.05-10,2.19-13.59-3.06-6.33-4.5-8.6A31.4,31.4,0,0,0,255.7,74.13Z" style="fill:#fee7c3"/><path d="M262,87.44c.1-1.38.56-3,7.2-1.25s8.9,1,9.95,1.94,0,2.7,0,3.61.47,3.69.47,3.69-10-3.29-13-3.69-6.18,2.55-6.49.92S262,87.44,262,87.44Z" style="fill:url(#Dégradé_sans_nom_26)"/><path d="M262.19,91s-5.43,7.78-5.43,8.56v3.22h27s-4.17-5.92-4.17-7.22S276,92.4,276,92.4Z" style="fill:url(#Dégradé_sans_nom_26-2)"/><path d="M263.93,82.06c-1.47,1.13-1.79,0-2,.47s-.93-.27-1.88-1.74a48.48,48.48,0,0,0-4-4.86c-1.18-1.33-8.61-8.1-5.52-16.79s6.48-10.1,12.07-11.42,12.44.24,13.77,1.19,5.25,1.73,5.54,3.87a3.2,3.2,0,0,0,.23.81,1.5,1.5,0,0,1-1.26,2,14.68,14.68,0,0,0-2.4.39,6.56,6.56,0,0,0-2,2.12c-.81,1.16-2.45,2-2.84,2.47s-3.1,4.44-1.74,7.18c.55,1.13-2.77.54-2.77.54s-1.1.29-1.18-.52-1.4-1.63-2.06-1.25a2.16,2.16,0,0,0-.68.72,4.72,4.72,0,0,0,.18,5.15C266.87,74.54,267.25,79.52,263.93,82.06Z" style="fill:url(#Dégradé_sans_nom_3)"/><path d="M282.6,65.1c.67-.64-2.37-.81-3.1-.75a7,7,0,0,0-2,.75s1.91-.07,2.53,0S282,65.65,282.6,65.1Z" style="fill:#00324e;stroke:#00324e;stroke-linecap:round;stroke-linejoin:round"/><path d="M237.3,39.67l12.12,62.75h107.3c20.26,0,10.27-6.47,7.79-8.22-13.92-9.85-43.9-30.28-65.54-39.57-27.52-11.81-59.41-15.31-61.67-15C237.18,39.69,237.25,41.77,237.3,39.67Z" style="fill:#80bbde;opacity:0.48"/></svg>