<svg xmlns="http://www.w3.org/2000/svg" xmlns:xlink="http://www.w3.org/1999/xlink" viewBox="0 0 495.05 204.05"><defs><linearGradient id="Dégradé_sans_nom_26" x1="231.08" y1="72.91" x2="266.06" y2="72.91" gradientUnits="userSpaceOnUse"><stop offset="0" stop-color="#f9c374"/><stop offset="1" stop-color="#f7ae44"/></linearGradient><linearGradient id="Dégradé_sans_nom_26-2" x1="263.32" y1="38.69" x2="267.56" y2="38.69" xlink:href="#Dégradé_sans_nom_26"/><linearGradient id="Dégradé_sans_nom_26-3" x1="231.08" y1="49.12" x2="266.06" y2="49.12" xlink:href="#Dégradé_sans_nom_26"/><linearGradient id="Dégradé_sans_nom_26-4" x1="231.08" y1="68.42" x2="266.06" y2="68.42" xlink:href="#Dégradé_sans_nom_26"/><linearGradient id="Dégradé_sans_nom_26-5" x1="231.08" y1="46.39" x2="266.06" y2="46.39" xlink:href="#Dégradé_sans_nom_26"/><linearGradient id="Dégradé_sans_nom_26-6" x1="231.08" y1="66.76" x2="266.06" y2="66.76" xlink:href="#Dégradé_sans_nom_26"/><linearGradient id="Dégradé_sans_nom_26-7" x1="231.08" y1="71.82" x2="266.06" y2="71.82" xlink:href="#Dégradé_sans_nom_26"/><linearGradient id="Dégradé_sans_nom_26-8" x1="231.08" y1="71.19" x2="266.06" y2="71.19" xlink:href="#Dégradé_sans_nom_26"/><linearGradient id="Dégradé_sans_nom_26-9" x1="231.08" y1="71.2" x2="266.06" y2="71.2" xlink:href="#Dégradé_sans_nom_26"/><linearGradient id="Dégradé_sans_nom_26-10" x1="231.08" y1="68.18" x2="266.06" y2="68.18" xlink:href="#Dégradé_sans_nom_26"/><linearGradient id="Dégradé_sans_nom_26-11" x1="231.08" y1="72.78" x2="266.06" y2="72.78" xlink:href="#Dégradé_sans_nom_26"/></defs><title>voiture_sans_roueFichier 5</title><g id="Calque_2" data-name="Calque 2"><g id="Calque_1-2" data-name="Calque 1"><path d="M447.13,97.07c-27.74-13.88-64.61-26.51-113-58.86,0,0-60-39.48-111.28-38.18-97,2.46-150.16.45-204,89.83C2.86,116.25,1.81,118.92.29,141c-.71,10.3-.15,19.1,2.19,26.53A61.89,61.89,0,0,1,121.7,200.83c27.35.65,128.88,2.86,223.78,2.25a69.17,69.17,0,0,1-.94-11.41c0-35.77,27-64.76,60.27-64.76s60.26,29,60.26,64.76q0,3-.26,6c15.38-3.8,27-9.73,29.75-18.87a11.09,11.09,0,0,0,.26-2.51c0-.31.12-15.4.14-15.8C496.56,125.75,476,111.51,447.13,97.07Z" style="fill:#fcc342"/><path d="M382.83,66.88h0a42.86,42.86,0,0,1-29.34-5.14S277.28,9,227.9,6l18.28-3.5S299,10.27,382.83,66.88Z" style="fill:#a6cfe8"/><rect x="32.05" y="90.74" width="26.88" height="21.8" rx="9.64" ry="9.64" transform="translate(-18.66 10.62) rotate(-11.06)" style="fill:#fff"/><rect x="238.98" y="89.43" width="28.33" height="11.95" rx="5.29" ry="5.29" transform="translate(6.9 -16.61) rotate(3.81)" style="fill:#fff"/><path d="M410.68,107.09l15.72,6.45a80,80,0,0,0,27.42,5.94l13.38.49a2.46,2.46,0,0,0,1.52-4.47c-6.13-4.35-16.44-10.37-28.49-12.17a139.93,139.93,0,0,0-28.78-1A2.46,2.46,0,0,0,410.68,107.09Z" style="fill:#fff"/><path d="M62,122.49A61.91,61.91,0,0,0,2.48,167.57c8.17,25.85,38.06,35,112.1,33.08l7.12.18A61.88,61.88,0,0,0,62,122.49Z" style="fill:#fdd986"/><path d="M12.1,149.59s12.24-27.68,50.68-27.68,56.42,25.83,60.11,55.36" style="fill:none;stroke:#fff;stroke-linecap:round;stroke-linejoin:round;stroke-width:3px"/><path d="M404.81,126.91c-33.29,0-60.27,29-60.27,64.76a69.17,69.17,0,0,0,.94,11.41l13.17-.11s65.93,4.64,106.16-5.3q.26-3,.26-6C465.07,155.9,438.09,126.91,404.81,126.91Z" style="fill:#fdd986"/><path d="M75.71,89S153.28,87.89,206,92.52" style="fill:none;stroke:#fff;stroke-linecap:round;stroke-linejoin:round;stroke-width:3px"/><ellipse cx="253.1" cy="95.41" rx="2.19" ry="8.45" transform="translate(141.09 341.62) rotate(-86.19)" style="fill:#d3d3d3"/><path d="M456.58,109.47c-.12,0-.05,2.26,0,0Z" style="fill:#83bbde"/><path d="M202.9,8.25c-4.44-.36-42-5.5-95.3,9.52-49,13.81-67.81,57.66-67.81,57.66l175.34-1.24Z" style="fill:#83bbde"/><path d="M341.44,65.56c-14.59-10.46-46-32.14-68.69-42C243.91,11,210.49,7.31,208.12,7.67l12.7,66.62h10.36C230,66.45,235.78,59.64,235.1,57c-.84-3.27,4.06-5.68,4.48-9.09s-6.44-11.07,4.21-19.35,14.46-3,18.57-1.65,3.61,3.3,3.61,3.3c1.14,1.73,2.95,4.78,2.78,6.56-.24,2.57-.34,2.81,0,3.67a41.13,41.13,0,0,0,2.88,4.13,1,1,0,0,1,0,1.28,2.13,2.13,0,0,1-1.3.61c-.91.17-.53,1.53-.2,1.45a.13.13,0,0,1,.08,0l.07,0h0a.36.36,0,0,1,.05.09s0,0,0,0,0,0,0,.07a1.26,1.26,0,0,1-.1.74.92.92,0,0,1-.28.43,1.06,1.06,0,0,1,.43,1,1,1,0,0,1-.17.41s-.78.24-.25,1a3.47,3.47,0,0,1,.41,2,1.93,1.93,0,0,1-.86,1.4,10,10,0,0,1-7.63.11.2.2,0,0,0-.28.2c.09,1.12-1.39,7.1-.18,8.77a17,17,0,0,1,1,1.56l-.1-.23-.06-.11.06.11c.06.14.13.27.2.4.49.87,1,1.9,1.53,2.89a59.22,59.22,0,0,0,3.5,5.47h65.75C354.51,74.29,344,67.42,341.44,65.56Z" style="fill:#83bbde"/><path d="M247.24,74.26H253a16.81,16.81,0,0,1-1.75-2.7Z" style="fill:#f98c8b"/><path d="M247.24,74.26H253a16.81,16.81,0,0,1-1.75-2.7Z" style="fill:url(#Dégradé_sans_nom_26)"/><path d="M276.66,45.51a4.24,4.24,0,0,1-.23-3.4C277,41,275.37,38,274.19,36a1.1,1.1,0,0,0,.24-1.21,2.14,2.14,0,0,1-.18-.65c-.24-1.72-3.44-2.34-4.52-3.1s-6.65-2-11.2-1-7.31,2.2-9.83,9.16,3.54,12.39,4.5,13.46a39.65,39.65,0,0,1,3.23,3.89c.78,1.18,1.39,1.8,1.53,1.4a5.47,5.47,0,0,1,.69,2.61A1.46,1.46,0,0,0,258,62s-1.75,2.88-1.5,4.19a.43.43,0,0,0,.49.39c-1.31,1.9-3.22,4.74-3.22,5.15v2.58h22s-3.39-4.74-3.39-5.78c0,0,0-.08,0-.12h0s-.39-2.22-.39-3,.86-2.15,0-2.9a2.53,2.53,0,0,0-1.39-.44,5.53,5.53,0,0,1,0-.91c.18-1.67,3.3-1.76,4-1.79s1.79.14,2.28-.46a1.88,1.88,0,0,0,0-2.29c-.46-.62-.48-1.08-.22-1.4s.68-.58.65-1-.58-.77-.58-.77l.38-.28c.39-.29-.12-.83-.12-.83s-.61-1.17,0-1.28a7.44,7.44,0,0,0,1.9-.69c.54-.27.55-1.3.55-1.3Z" style="fill:#0877bd"/><path d="M208.18,7.65c-.12,0-.05,2.22,0,0Z" style="fill:#83bbde"/><path d="M265.4,38.9c.52.05,1.59.47,2.08,0s-1.94-.68-2.53-.63a5.29,5.29,0,0,0-1.55.59l-.08,0h.09C263.73,38.89,265,38.86,265.4,38.9Z" style="fill:url(#Dégradé_sans_nom_26-2)"/><path d="M270.32,48.88a1.27,1.27,0,0,0,.1-.74A1.49,1.49,0,0,1,270.32,48.88Z" style="fill:#fce6c6"/><path d="M270.47,50.27a1,1,0,0,1-.18.41A.86.86,0,0,0,270.47,50.27Z" style="fill:#fce6c6"/><path d="M262.56,65.9c.53,1.06,1,2,1.54,2.9C263.59,67.81,263.05,66.78,262.56,65.9Z" style="fill:#fce6c6"/><path d="M263.34,38.24a6.2,6.2,0,0,1,.06.62,5.29,5.29,0,0,1,1.55-.59c.59-.05,3.09.09,2.53.63s-1.56.05-2.08,0-1.67,0-2,0c.38,5.58-4.37,10.91-3.3,12.68s-.42,6.67-3.92,8.09c-2,.81-1.44,3.48-.24,6.22a22.22,22.22,0,0,1,4,2.84c3.72.63,2.9-2,2.49-3-.36-.64-.7-1.19-1-1.56-1.21-1.67.27-7.66.18-8.78a.19.19,0,0,1,.27-.19,10.06,10.06,0,0,0,7.64-.11,1.92,1.92,0,0,0,.85-1.4,3.45,3.45,0,0,0-.4-2c-.53-.81.24-1,.24-1a2.11,2.11,0,0,1-2.11-1.21s1.5-1.09,2-1.59c-.33.09-.71-1.28.2-1.45a2.11,2.11,0,0,0,1.3-.61,1,1,0,0,0,0-1.28,40,40,0,0,1-2.88-4.13c-.35-.85-.25-1.1,0-3.67.17-1.77-1.64-4.83-2.78-6.55C266,30.19,262.5,32.42,263.34,38.24Z" style="fill:#fce6c6"/><path d="M260,68.73a22.22,22.22,0,0,0-4-2.84c.28.65.6,1.3.93,1.93A16.1,16.1,0,0,0,260,68.73Z" style="fill:#fce6c6"/><path d="M270.18,47.88l.08,0Z" style="fill:#f98c8b"/><path d="M270.32,48.88a1.18,1.18,0,0,1-.29.42A.84.84,0,0,0,270.32,48.88Z" style="fill:#f98c8b"/><path d="M270.4,48.07v0l0,.1S270.41,48.08,270.4,48.07Z" style="fill:#f98c8b"/><path d="M270.47,50.27a1.09,1.09,0,0,0-.44-1A1.17,1.17,0,0,1,270.47,50.27Z" style="fill:#f98c8b"/><path d="M270.29,50.68a1,1,0,0,0,.18-.41,1.17,1.17,0,0,0-.44-1,1.18,1.18,0,0,0,.29-.42,1.49,1.49,0,0,0,.1-.74l0-.1-.05-.08,0,0s0,0-.06,0l-.08,0c-.5.5-2,1.59-2,1.59A2.11,2.11,0,0,0,270.29,50.68Z" style="fill:#f98c8b"/><path d="M262.37,65.51c0,.06.06.13.1.23l.09.16Z" style="fill:#f98c8b"/><path d="M266.06,72.79l-3.38-1.63c1,1,2.1,2,3.15,3.1h1.77a58.87,58.87,0,0,1-3.5-5.46C265.15,70.87,266.06,72.79,266.06,72.79Z" style="fill:#f98c8b"/><path d="M262.37,65.51a1.07,1.07,0,0,1-.06-.12Z" style="fill:#f98c8b"/><path d="M258.92,71.45a3.55,3.55,0,0,1,.32,2.81h6.59c-1.05-1.07-2.11-2.12-3.15-3.1l-5.42-2.62C257.86,69.65,258.46,70.66,258.92,71.45Z" style="fill:#f98c8b"/><path d="M260,68.73c.86.73,1.77,1.55,2.7,2.43l3.38,1.63s-.91-1.92-2-4c-.5-.88-1-1.84-1.54-2.9l-.09-.16C262.88,66.7,263.7,69.36,260,68.73Z" style="fill:#f98c8b"/><path d="M256.88,67.82c.12.24.25.48.38.72l5.42,2.62c-.93-.88-1.84-1.7-2.7-2.43A16.1,16.1,0,0,1,256.88,67.82Z" style="fill:#f98c8b"/><path d="M246.75,69.44c1-.28,2.43.27,4.21,1.39-.93-2.38-.36-4.29,2.62-5.28l.51-12.12a63,63,0,0,0-5.16-5.61c-2.62-2.45-5.74-12.44,1.25-17.87s12.71-2.22,15-1.05c0,0,.37.51.89,1.29,0,0,.5-1.94-3.61-3.31s-7.92-6.63-18.57,1.65-3.79,15.94-4.21,19.35-5.32,5.83-4.48,9.09c.68,2.64-5.14,9.46-3.92,17.29h11.13C242.24,72.1,243.49,70.39,246.75,69.44Z" style="fill:#83bbde"/><path d="M246.75,69.44c1-.28,2.43.27,4.21,1.39-.93-2.38-.36-4.29,2.62-5.28l.51-12.12a63,63,0,0,0-5.16-5.61c-2.62-2.45-5.74-12.44,1.25-17.87s12.71-2.22,15-1.05c0,0,.37.51.89,1.29,0,0,.5-1.94-3.61-3.31s-7.92-6.63-18.57,1.65-3.79,15.94-4.21,19.35-5.32,5.83-4.48,9.09c.68,2.64-5.14,9.46-3.92,17.29h11.13C242.24,72.1,243.49,70.39,246.75,69.44Z" style="fill:url(#Dégradé_sans_nom_26-3)"/><path d="M256.41,68.13l-2.88-1.39.05-1.19c-3,1-3.55,2.9-2.62,5.28l.72.47Z" style="fill:#f86e6c"/><path d="M256.41,68.13l-2.88-1.39.05-1.19c-3,1-3.55,2.9-2.62,5.28l.72.47Z" style="fill:url(#Dégradé_sans_nom_26-4)"/><path d="M250.18,30c-7,5.43-3.87,15.42-1.25,17.87a63,63,0,0,1,5.16,5.61l-.51,12.12.29-.1a3.11,3.11,0,0,1,2.08.44c-1.2-2.74-1.76-5.41.24-6.22,3.5-1.42,5.05-6.24,3.92-8.09s3.68-7.1,3.3-12.68h-.09l.08,0a6.2,6.2,0,0,0-.06-.62c-.84-5.82,2.7-8,2.7-8-.52-.78-.89-1.29-.89-1.29C262.89,27.73,257.17,24.51,250.18,30Z" style="fill:#fce6c6"/><path d="M250.18,30c-7,5.43-3.87,15.42-1.25,17.87a63,63,0,0,1,5.16,5.61l-.51,12.12.29-.1a3.11,3.11,0,0,1,2.08.44c-1.2-2.74-1.76-5.41.24-6.22,3.5-1.42,5.05-6.24,3.92-8.09s3.68-7.1,3.3-12.68h-.09l.08,0a6.2,6.2,0,0,0-.06-.62c-.84-5.82,2.7-8,2.7-8-.52-.78-.89-1.29-.89-1.29C262.89,27.73,257.17,24.51,250.18,30Z" style="fill:url(#Dégradé_sans_nom_26-5)"/><path d="M256.41,68.13l.47-.31h0c-.33-.63-.65-1.28-.93-1.93a3.11,3.11,0,0,0-2.08-.44l-.29.1-.05,1.19Z" style="fill:#fce6c6"/><path d="M256.41,68.13l.47-.31h0c-.33-.63-.65-1.28-.93-1.93a3.11,3.11,0,0,0-2.08-.44l-.29.1-.05,1.19Z" style="fill:url(#Dégradé_sans_nom_26-6)"/><path d="M251,70.83c-1.78-1.12-3.25-1.67-4.21-1.39-3.26,1-4.51,2.66-4.37,4.82h4.86l4-2.7C251.16,71.31,251.06,71.07,251,70.83Z" style="fill:#f98c8b"/><path d="M251,70.83c-1.78-1.12-3.25-1.67-4.21-1.39-3.26,1-4.51,2.66-4.37,4.82h4.86l4-2.7C251.16,71.31,251.06,71.07,251,70.83Z" style="fill:url(#Dégradé_sans_nom_26-7)"/><path d="M251.68,71.3l-.72-.47c.1.24.2.48.32.73Z" style="fill:#f98c8b"/><path d="M251.68,71.3l-.72-.47c.1.24.2.48.32.73Z" style="fill:url(#Dégradé_sans_nom_26-8)"/><path d="M258.92,71.45c-.46-.79-1.06-1.8-1.66-2.91l-.85-.41-4.73,3.17a46.19,46.19,0,0,1,3.83,3h3.73A3.55,3.55,0,0,0,258.92,71.45Z" style="fill:#f98c8b"/><path d="M258.92,71.45c-.46-.79-1.06-1.8-1.66-2.91l-.85-.41-4.73,3.17a46.19,46.19,0,0,1,3.83,3h3.73A3.55,3.55,0,0,0,258.92,71.45Z" style="fill:url(#Dégradé_sans_nom_26-9)"/><path d="M256.41,68.13l.85.41c-.13-.24-.26-.48-.38-.72h0Z" style="fill:#f98c8b"/><path d="M256.41,68.13l.85.41c-.13-.24-.26-.48-.38-.72h0Z" style="fill:url(#Dégradé_sans_nom_26-10)"/><path d="M251.28,71.56a16.81,16.81,0,0,0,1.75,2.7h2.48a46.19,46.19,0,0,0-3.83-3Z" style="fill:#f98c8b"/><path d="M251.28,71.56a16.81,16.81,0,0,0,1.75,2.7h2.48a46.19,46.19,0,0,0-3.83-3Z" style="fill:url(#Dégradé_sans_nom_26-11)"/><path d="M208.41,9.75l12.66,64.54h112c21.15,0,10.72-6.66,8.14-8.46C326.69,55.7,295.4,34.69,272.8,25.14,244.07,13,210.77,9.39,208.41,9.75,208.29,9.77,208.36,11.9,208.41,9.75Z" style="fill:#83bbde;opacity:0.27"/><path d="M344.83,183.42s3.84-57.32,59.07-57.32c38.43,0,56.43,30.05,60.12,59.58" style="fill:none;stroke:#fff;stroke-linecap:round;stroke-linejoin:round;stroke-width:3px"/></g></g></svg>