<svg id="Calque_1" data-name="Calque 1" xmlns="http://www.w3.org/2000/svg" xmlns:xlink="http://www.w3.org/1999/xlink" viewBox="0 0 539 301"><defs><linearGradient id="Dégradé_sans_nom_26" x1="270.51" y1="88.26" x2="290.01" y2="88.26" gradientUnits="userSpaceOnUse"><stop offset="0" stop-color="#fbc36b"/><stop offset="1" stop-color="#faaf39"/></linearGradient><linearGradient id="Dégradé_sans_nom_26-2" x1="267.18" y1="94.73" x2="294.19" y2="94.73" xlink:href="#Dégradé_sans_nom_26"/><linearGradient id="Dégradé_sans_nom_3" x1="260.27" y1="62.77" x2="292.73" y2="62.77" gradientUnits="userSpaceOnUse"><stop offset="0.11" stop-color="#00324e"/><stop offset="1"/></linearGradient></defs><title>Voiture-mec-covoiture</title><path d="M479.06,124.24c-27.74-13.87-64.61-26.51-113-58.86,0,0-60-39.48-111.28-38.18-97,2.46-150.16.46-204,89.83-15.91,26.39-17,29.06-18.48,51.18-.71,10.31-.15,19.1,2.19,26.53A61.89,61.89,0,0,1,153.63,228c27.35.65,128.88,2.87,223.78,2.25a70.06,70.06,0,0,1-.93-11.4c0-35.77,27-64.77,60.26-64.77s60.26,29,60.26,64.77q0,3-.26,6c15.39-3.8,27-9.73,29.75-18.87a10.49,10.49,0,0,0,.26-2.51c0-.31.12-15.39.14-15.8C528.49,152.92,507.94,138.68,479.06,124.24Z" style="fill:#ffc441"/><path d="M238.67,34.44c-4.44-.36-42-5.5-95.3,9.52-49,13.81-67.81,57.66-67.81,57.66l175.34-1.24Z" style="fill:#80bbde"/><path d="M244.18,34.85l12.66,65.52h112c21.15,0,10.72-6.76,8.13-8.59-14.54-10.28-45.83-31.61-68.43-41.3-28.73-12.33-62-16-64.39-15.63C244.06,34.87,244.13,37,244.18,34.85Z" style="fill:#80bbde"/><path d="M414.76,94.05h0a42.82,42.82,0,0,1-29.34-5.13S309.21,36.18,259.83,33.17l18.28-3.51S330.89,37.44,414.76,94.05Z" style="fill:#a6cfe8"/><rect x="63.98" y="117.92" width="26.88" height="21.8" rx="9.64" transform="translate(-23.28 17.25) rotate(-11.06)" style="fill:#fff"/><rect x="270.91" y="116.61" width="28.33" height="11.95" rx="5.29" transform="translate(8.78 -18.67) rotate(3.81)" style="fill:#fff"/><path d="M442.61,134.26l15.72,6.45a80.06,80.06,0,0,0,27.43,5.94l13.38.5a2.47,2.47,0,0,0,1.51-4.48c-6.13-4.35-16.44-10.36-28.48-12.17a140,140,0,0,0-28.79-1A2.46,2.46,0,0,0,442.61,134.26Z" style="fill:#fff"/><path d="M94,149.66a61.91,61.91,0,0,0-59.56,45.08c8.17,25.85,38.06,35,112.1,33.08l7.12.18A61.88,61.88,0,0,0,94,149.66Z" style="fill:#ffd985"/><ellipse cx="94.71" cy="213.65" rx="44" ry="45.44" style="fill:#00324e"/><circle cx="94.71" cy="213.65" r="36.02" style="fill:#79787d"/><circle cx="93.97" cy="214.39" r="25.94" style="fill:#d3d3d3"/><path d="M80.94,195.11s-5.84,6.17-7,7.23-2.64-.65-3.28-2.09-2.76-8.39-2-11,2-1.27,3-.32a4.66,4.66,0,0,0,3.48,1.46,44.24,44.24,0,0,1,6.09.73,2,2,0,0,1,.9,2.78A11.35,11.35,0,0,1,80.94,195.11Z" style="fill:#fff"/><path d="M104.56,194.91s-8.18-2.3-9.66-2.83-.65-2.63.33-3.88,6.13-6.34,8.74-6.9,2.08,1.22,1.7,2.53a4.67,4.67,0,0,0,.32,3.76,42.14,42.14,0,0,1,2.19,5.74c.23,1.29-1.37,2.23-2,2.09A11.48,11.48,0,0,1,104.56,194.91Z" style="fill:#fff"/><path d="M114.52,211.82s-2.21-8.21-2.51-9.74,1.93-1.91,3.49-1.71,8.6,2,10.41,4,0,2.42-1.3,2.76a4.64,4.64,0,0,0-3.07,2.2,41.65,41.65,0,0,1-3.8,4.82,2,2,0,0,1-2.84-.68A11.08,11.08,0,0,1,114.52,211.82Z" style="fill:#fff"/><path d="M106.88,233.75s5.89-6.13,7.06-7.18,2.63.67,3.27,2.12,2.69,8.4,2,11-2.06,1.26-3,.3a4.62,4.62,0,0,0-3.46-1.49,43.6,43.6,0,0,1-6.09-.78,2,2,0,0,1-.88-2.79A12.14,12.14,0,0,1,106.88,233.75Z" style="fill:#fff"/><path d="M83.38,233.87s8.19,2.29,9.66,2.83.65,2.63-.32,3.87-6.14,6.35-8.75,6.91-2.08-1.22-1.7-2.54a4.63,4.63,0,0,0-.32-3.76,42.9,42.9,0,0,1-2.19-5.73c-.23-1.29,1.37-2.23,2-2.09A11.48,11.48,0,0,1,83.38,233.87Z" style="fill:#fff"/><path d="M73.42,217s2.22,8.2,2.51,9.74-1.93,1.91-3.49,1.71-8.59-2-10.41-4,0-2.41,1.31-2.75a4.68,4.68,0,0,0,3.06-2.21,44.7,44.7,0,0,1,3.8-4.81,2,2,0,0,1,2.85.68A12,12,0,0,1,73.42,217Z" style="fill:#fff"/><path d="M80.94,195.11s-5.84,6.17-7,7.23-2.64-.65-3.28-2.09-2.76-8.39-2-11,2-1.27,3-.32a4.66,4.66,0,0,0,3.48,1.46,44.24,44.24,0,0,1,6.09.73,2,2,0,0,1,.9,2.78A11.35,11.35,0,0,1,80.94,195.11Z" style="fill:#fff"/><path d="M44,176.76s12.24-27.68,50.67-27.68,56.42,25.84,60.11,55.37" style="fill:none;stroke:#fff;stroke-linecap:round;stroke-linejoin:round;stroke-width:3px"/><path d="M436.74,154.08c-33.28,0-60.26,29-60.26,64.77a70.06,70.06,0,0,0,.93,11.4q6.61,0,13.17-.11s65.93,4.64,106.16-5.3q.25-3,.26-6C497,183.08,470,154.08,436.74,154.08Z" style="fill:#d3d3d3"/><path d="M436.74,154.08c-33.28,0-60.26,29-60.26,64.77a70.06,70.06,0,0,0,.93,11.4q6.61,0,13.17-.11s65.93,4.64,106.16-5.3q.25-3,.26-6C497,183.08,470,154.08,436.74,154.08Z" style="fill:#ffd985"/><ellipse cx="436.74" cy="213.65" rx="44" ry="45.44" style="fill:#00324e"/><circle cx="436.74" cy="213.65" r="36.02" style="fill:#79787d"/><circle cx="436.74" cy="214.39" r="25.94" style="fill:#d3d3d3"/><path d="M423.7,195.11s-5.84,6.17-7,7.23-2.63-.65-3.28-2.09-2.76-8.39-2-11,2.05-1.27,3-.32a4.65,4.65,0,0,0,3.47,1.46,44.41,44.41,0,0,1,6.1.73,2,2,0,0,1,.9,2.78A12.11,12.11,0,0,1,423.7,195.11Z" style="fill:#fff"/><path d="M447.33,194.91s-8.19-2.3-9.66-2.83-.65-2.63.32-3.88,6.14-6.34,8.75-6.9,2.08,1.22,1.7,2.53a4.63,4.63,0,0,0,.32,3.76,43.5,43.5,0,0,1,2.19,5.74c.23,1.29-1.37,2.23-2,2.09A11.48,11.48,0,0,1,447.33,194.91Z" style="fill:#fff"/><path d="M457.29,211.82s-2.22-8.21-2.51-9.74,1.93-1.91,3.49-1.71,8.59,2,10.41,4,0,2.42-1.31,2.76a4.63,4.63,0,0,0-3.06,2.2,43.93,43.93,0,0,1-3.8,4.82,2,2,0,0,1-2.85-.68A12,12,0,0,1,457.29,211.82Z" style="fill:#fff"/><path d="M449.65,233.75s5.89-6.13,7.06-7.18,2.63.67,3.26,2.12,2.7,8.4,2,11-2.06,1.26-3,.3a4.63,4.63,0,0,0-3.47-1.49,43.44,43.44,0,0,1-6.08-.78,2,2,0,0,1-.89-2.79A13,13,0,0,1,449.65,233.75Z" style="fill:#fff"/><path d="M426.15,233.87s8.18,2.29,9.66,2.83.65,2.63-.33,3.87-6.13,6.35-8.74,6.91-2.09-1.22-1.7-2.54a4.67,4.67,0,0,0-.32-3.76,41.57,41.57,0,0,1-2.19-5.73c-.23-1.29,1.37-2.23,2-2.09A11.48,11.48,0,0,1,426.15,233.87Z" style="fill:#fff"/><path d="M416.19,217s2.21,8.2,2.51,9.74-1.93,1.91-3.49,1.71-8.6-2-10.41-4,0-2.41,1.3-2.75a4.7,4.7,0,0,0,3.07-2.21,42.34,42.34,0,0,1,3.8-4.81,2,2,0,0,1,2.84.68A11.08,11.08,0,0,1,416.19,217Z" style="fill:#fff"/><path d="M423.7,195.11s-5.84,6.17-7,7.23-2.63-.65-3.28-2.09-2.76-8.39-2-11,2.05-1.27,3-.32a4.65,4.65,0,0,0,3.47,1.46,44.41,44.41,0,0,1,6.1.73,2,2,0,0,1,.9,2.78A12.11,12.11,0,0,1,423.7,195.11Z" style="fill:#fff"/><path d="M378,211.39s3.84-57.31,59.07-57.31c38.43,0,56.43,30,60.12,59.57" style="fill:none;stroke:#fff;stroke-linecap:round;stroke-linejoin:round;stroke-width:3px"/><path d="M107.64,116.18s77.57-1.12,130.25,3.52" style="fill:none;stroke:#fff;stroke-linecap:round;stroke-linejoin:round;stroke-width:3px"/><ellipse cx="285.04" cy="122.58" rx="2.19" ry="8.45" transform="translate(143.78 398.85) rotate(-86.19)" style="fill:#d3d3d3"/><path d="M308.37,72.42a2.06,2.06,0,0,0,1.27-.61,1,1,0,0,0,0-1.28,40.28,40.28,0,0,1-2.84-4.13c-.35-.86-.25-1.1,0-3.68.16-1.77-1.62-4.83-2.74-6.55,0,0,.49-1.94-3.56-3.31-2.42-.82-4.74-3-8.47-2.9a10.19,10.19,0,0,0-1.66.21,3.28,3.28,0,0,1,.56.67c.22.36.68,1.09,1.21,2l.43.74c1.37,2.41,2.95,5.61,2.33,6.85-.94,1.87.27,4.24.27,4.24l3.41,4.49s0,1.28-.68,1.61a8.26,8.26,0,0,1-2.34.87c-.78.13,0,1.59,0,1.59s.62.68.14,1l-.47.35s.67.48.71,1-.48.8-.8,1.2-.29,1,.27,1.74a2.37,2.37,0,0,1,0,2.86c-.6.75-2,.53-2.81.57l-.36,0c-1.25.06-4.33.35-4.53,2.22a7.11,7.11,0,0,0,0,1.13,3,3,0,0,1,1.71.55c1.06.93,0,2.7,0,3.61a31.74,31.74,0,0,0,.4,3.24c0,.28.07.45.07.45h0a.77.77,0,0,1,0,.15,9.6,9.6,0,0,0,1.45,3.06c.95,1.58,2.1,3.26,2.54,3.9h11.78a62.61,62.61,0,0,1-3.45-5.47c-.48-.87-1-1.83-1.5-2.89l-.1-.17a17.28,17.28,0,0,0-.95-1.56c-1.19-1.67.27-7.66.18-8.78a.19.19,0,0,1,.27-.19,9.83,9.83,0,0,0,7.53-.11,2,2,0,0,0,.84-1.4,3.54,3.54,0,0,0-.4-2c-.52-.81.24-1,.24-1a1,1,0,0,0,.17-.42,1.14,1.14,0,0,0-.42-1,1.29,1.29,0,0,0,.28-.42,1.64,1.64,0,0,0,.09-.75.32.32,0,0,0,0-.09.19.19,0,0,0-.05-.09h0l-.06-.05a.11.11,0,0,0-.08,0C307.84,74,307.47,72.59,308.37,72.42Z" style="fill:#0177be"/><path d="M289.46,93l.37.12a1.12,1.12,0,0,0-.13-.36A2.72,2.72,0,0,0,289.46,93Z" style="fill:#0177be"/><path d="M266.12,72a17.86,17.86,0,0,1-4.65-11.67,13.46,13.46,0,0,1,8.28-13.05c10.58-4.7,20.18,1.74,21.37,3.7.83,1.36,4.9,7.71,4,9.58s.27,4.24.27,4.24l3.41,4.49s0,1.28-.68,1.62a8.57,8.57,0,0,1-2.34.86c-.78.14,0,1.6,0,1.6s.62.67.14,1l-.47.36s.67.47.71,1-.48.81-.8,1.21-.29,1,.27,1.74a2.35,2.35,0,0,1,0,2.85c-.6.76-2,.53-2.81.57s-4.66.15-4.89,2.25.75,4.33.15,5.53.45,4.26.45,4.26l2.49,3.32H271s2-10,2.2-13.58-3.06-6.33-4.51-8.61A32.5,32.5,0,0,0,266.12,72Z" style="fill:#fee7c3"/><path d="M272.39,85.26c.1-1.38.56-3,7.2-1.25s8.9,1,10,1.95,0,2.7,0,3.61.46,3.69.46,3.69-10-3.3-13-3.69-6.18,2.54-6.48.91S272.39,85.26,272.39,85.26Z" style="fill:url(#Dégradé_sans_nom_26)"/><path d="M272.62,88.84s-5.44,7.78-5.44,8.55v3.23h27S290,94.7,290,93.4s-3.62-3.18-3.62-3.18Z" style="fill:url(#Dégradé_sans_nom_26-2)"/><path d="M274.36,79.88c-1.47,1.13-1.79,0-2,.47s-.92-.27-1.88-1.74a50.85,50.85,0,0,0-4-4.86c-1.17-1.32-8.61-8.1-5.52-16.78s6.48-10.11,12.08-11.42,12.44.23,13.76,1.19,5.25,1.73,5.55,3.86a3.09,3.09,0,0,0,.22.81,1.5,1.5,0,0,1-1.26,2,15.47,15.47,0,0,0-2.39.39,6.3,6.3,0,0,0-2,2.13c-.82,1.16-2.46,2-2.85,2.46s-3.09,4.44-1.74,7.18c.56,1.13-2.77.54-2.77.54s-1.1.29-1.17-.52S277,64,276.35,64.36a2.18,2.18,0,0,0-.69.72,4.72,4.72,0,0,0,.19,5.15C277.29,72.36,277.67,77.35,274.36,79.88Z" style="fill:url(#Dégradé_sans_nom_3)"/><path d="M293,62.92c.67-.63-2.37-.81-3.09-.75a7.29,7.29,0,0,0-2,.75s1.91-.06,2.53,0S292.42,63.48,293,62.92Z" style="fill:#00324e;stroke:#00324e;stroke-linecap:round;stroke-linejoin:round"/><path d="M247.72,37.49l12.13,62.75h107.3c20.25,0,10.27-6.47,7.79-8.22C361,82.17,331,61.74,309.39,52.46c-27.51-11.81-59.4-15.31-61.67-15C247.61,37.51,247.67,39.59,247.72,37.49Z" style="fill:#80bbde;opacity:0.48"/></svg>