<svg xmlns="http://www.w3.org/2000/svg" xmlns:xlink="http://www.w3.org/1999/xlink" viewBox="0 0 427.77 174"><defs><linearGradient id="Dégradé_sans_nom_368" x1="54.62" y1="171.31" x2="54.62" y2="104.45" gradientUnits="userSpaceOnUse"><stop offset="0" stop-color="#6d6d6c"/><stop offset="0.18" stop-color="#60605f"/><stop offset="0.52" stop-color="#3d3d3c"/><stop offset="0.97" stop-color="#050504"/><stop offset="1"/></linearGradient><linearGradient id="Dégradé_sans_nom_368-2" x1="349.8" y1="174" x2="349.8" y2="108.21" xlink:href="#Dégradé_sans_nom_368"/></defs><title>voiture sans roueFichier 9</title><g id="Calque_2" data-name="Calque 2"><g id="voiture"><path d="M386.37,82.77c-24-11.83-55.83-22.61-97.68-50.19,0,0-51.84-33.66-96.15-32.55C108.7,2.12,62.78.41,16.22,76.62,2.47,99.13,1.56,101.4.25,120.26c-.61,8.79-.13,16.29,1.89,22.63a53.4,53.4,0,0,1,51.47-38.44c29.53,0,53.48,23.63,53.48,52.77a52,52,0,0,1-1.93,14c23.64.55,111.36,2.44,193.37,1.92a58.78,58.78,0,0,1-.81-9.73c0-30.5,23.32-55.23,52.08-55.23s52.07,24.73,52.07,55.23c0,1.73-.08,3.43-.23,5.12,13.3-3.24,23.35-8.3,25.71-16.09a9.08,9.08,0,0,0,.23-2.15c0-.26.1-13.12.12-13.47C429.08,107.23,411.32,95.08,386.37,82.77Z" style="fill:#f31512"/><path d="M178.65,6.2c-3.84-.31-36.31-4.69-82.36,8.11C53.92,26.09,37.7,63.48,37.7,63.48l151.51-1Z" style="fill:#9fe6ff"/><path d="M183.41,6.55l10.93,55.87h96.81c18.28,0,9.27-5.76,7-7.33C285.61,46.33,258.57,28.14,239,19.87,214.22,9.36,185.45,6.24,183.41,6.55,183.3,6.57,183.36,8.42,183.41,6.55Z" style="fill:#9fe6ff"/><path d="M330.81,57h0a37.4,37.4,0,0,1-25.36-4.38S239.6,7.68,196.93,5.11l15.79-3S258.33,8.76,330.81,57Z" style="fill:#9fe6ff"/><path d="M45.34,95l-8.45,1.63a7.3,7.3,0,0,1-8.57-5.7l-.81-4.08a7.21,7.21,0,0,1,5.77-8.46l8.45-1.63a7.29,7.29,0,0,1,8.57,5.69l.81,4.09A7.23,7.23,0,0,1,45.34,95Z" style="fill:#fff"/><path d="M225.46,86.91,211.34,86a5.12,5.12,0,0,1-4.81-5.42h0a5.14,5.14,0,0,1,5.5-4.75l14.12.93A5.12,5.12,0,0,1,231,82.16h0A5.15,5.15,0,0,1,225.46,86.91Z" style="fill:#fff"/><path d="M354.87,91.32l13.58,5.5a70.08,70.08,0,0,0,23.7,5.06l11.57.42A2.1,2.1,0,0,0,405,98.48c-5.3-3.7-14.21-8.83-24.62-10.37a122.83,122.83,0,0,0-24.87-.84A2.1,2.1,0,0,0,354.87,91.32Z" style="fill:#ffe5ab"/><path d="M53.61,104.45A53.4,53.4,0,0,0,2.14,142.89C9.2,164.93,35,172.77,99,171.1l6.15.15a52,52,0,0,0,1.93-14C107.09,128.08,83.14,104.45,53.61,104.45Z" style="fill:url(#Dégradé_sans_nom_368)"/><path d="M10.46,129.94S21,104.45,54.24,104.45s48.76,23.79,52,51" style="fill:none;stroke:#f64f4d;stroke-linecap:round;stroke-linejoin:round;stroke-width:5.740536327671603px"/><path d="M349.8,108.21c-28.76,0-52.08,24.73-52.08,55.23a58.78,58.78,0,0,0,.81,9.73l11.38-.09s57,3.95,91.73-4.52c.15-1.69.23-3.39.23-5.12C401.87,132.94,378.56,108.21,349.8,108.21Z" style="fill:#d3d3d3"/><path d="M349.8,108.21c-28.76,0-52.08,24.73-52.08,55.23a58.78,58.78,0,0,0,.81,9.73l11.38-.09s57,3.95,91.73-4.52c.15-1.69.23-3.39.23-5.12C401.87,132.94,378.56,108.21,349.8,108.21Z" style="fill:url(#Dégradé_sans_nom_368-2)"/><path d="M299.06,157.09s3.31-48.88,51-48.88c33.21,0,48.76,25.62,51.95,50.8" style="fill:none;stroke:#f64f4d;stroke-linecap:round;stroke-linejoin:round;stroke-width:5.524546052972497px"/><path d="M180.71,6.53l10.82,55.89s-3,.35,2.52,20.18,6.79,63.9,2.88,77" style="fill:none;stroke:#f64f4d;stroke-linecap:round;stroke-linejoin:round;stroke-width:4.6037883774770805px"/><path d="M65.42,75.9s67-1,112.55,3" style="fill:none;stroke:#f64f4d;stroke-linecap:round;stroke-linejoin:round;stroke-width:4.6037883774770805px"/><ellipse cx="218.71" cy="81.36" rx="1.87" ry="7.3" transform="translate(123.21 294.27) rotate(-86.25)" style="fill:#d3d3d3"/></g></g></svg>