<svg xmlns="http://www.w3.org/2000/svg" xmlns:xlink="http://www.w3.org/1999/xlink" viewBox="0 0 427.77 197.76"><defs><linearGradient id="Dégradé_sans_nom_368" x1="54.62" y1="171.31" x2="54.62" y2="104.45" gradientUnits="userSpaceOnUse"><stop offset="0" stop-color="#6d6d6c"/><stop offset="0.18" stop-color="#60605f"/><stop offset="0.52" stop-color="#3d3d3c"/><stop offset="0.97" stop-color="#050504"/><stop offset="1"/></linearGradient><linearGradient id="Dégradé_sans_nom_368-2" x1="349.8" y1="174" x2="349.8" y2="108.21" xlink:href="#Dégradé_sans_nom_368"/></defs><title>voitureFichier 6</title><g id="Calque_2" data-name="Calque 2"><g id="voiture"><path d="M386.37,82.77c-24-11.83-55.83-22.61-97.68-50.19,0,0-51.84-33.66-96.15-32.55C108.7,2.12,62.78.41,16.22,76.62,2.47,99.13,1.56,101.4.25,120.26c-.61,8.79-.13,16.29,1.89,22.63a53.4,53.4,0,0,1,51.47-38.44c29.53,0,53.48,23.63,53.48,52.77a52,52,0,0,1-1.93,14c23.64.55,111.36,2.44,193.37,1.92a58.78,58.78,0,0,1-.81-9.73c0-30.5,23.32-55.23,52.08-55.23s52.07,24.73,52.07,55.23c0,1.73-.08,3.43-.23,5.12,13.3-3.24,23.35-8.3,25.71-16.09a9.08,9.08,0,0,0,.23-2.15c0-.26.1-13.12.12-13.47C429.08,107.23,411.32,95.08,386.37,82.77Z" style="fill:#f31512"/><path d="M178.65,6.2c-3.84-.31-36.31-4.69-82.36,8.11C53.92,26.09,37.7,63.48,37.7,63.48l151.51-1Z" style="fill:#9fe6ff"/><path d="M183.41,6.55l10.93,55.87h96.81c18.28,0,9.27-5.76,7-7.33C285.61,46.33,258.57,28.14,239,19.87,214.22,9.36,185.45,6.24,183.41,6.55,183.3,6.57,183.36,8.42,183.41,6.55Z" style="fill:#9fe6ff"/><path d="M330.81,57h0a37.4,37.4,0,0,1-25.36-4.38S239.6,7.68,196.93,5.11l15.79-3S258.33,8.76,330.81,57Z" style="fill:#9fe6ff"/><path d="M45.34,95l-8.45,1.63a7.3,7.3,0,0,1-8.57-5.7l-.81-4.08a7.21,7.21,0,0,1,5.77-8.46l8.45-1.63a7.29,7.29,0,0,1,8.57,5.69l.81,4.09A7.23,7.23,0,0,1,45.34,95Z" style="fill:#fff"/><path d="M225.46,86.91,211.34,86a5.12,5.12,0,0,1-4.81-5.42h0a5.14,5.14,0,0,1,5.5-4.75l14.12.93A5.12,5.12,0,0,1,231,82.16h0A5.15,5.15,0,0,1,225.46,86.91Z" style="fill:#fff"/><path d="M354.87,91.32l13.58,5.5a70.08,70.08,0,0,0,23.7,5.06l11.57.42A2.1,2.1,0,0,0,405,98.48c-5.3-3.7-14.21-8.83-24.62-10.37a122.83,122.83,0,0,0-24.87-.84A2.1,2.1,0,0,0,354.87,91.32Z" style="fill:#ffe5ab"/><path d="M53.61,104.45A53.4,53.4,0,0,0,2.14,142.89C9.2,164.93,35,172.77,99,171.1l6.15.15a52,52,0,0,0,1.93-14C107.09,128.08,83.14,104.45,53.61,104.45Z" style="fill:url(#Dégradé_sans_nom_368)"/><ellipse cx="54.24" cy="159.01" rx="38.02" ry="38.75" style="fill:#abaaad"/><ellipse cx="54.24" cy="159.01" rx="31.13" ry="30.72" style="fill:#d3d3d3"/><ellipse cx="53.61" cy="159.64" rx="22.41" ry="22.12" style="fill:#e2e2e2"/><path d="M42.33,143.25s-5.08,5.23-6.09,6.13-2.27-.57-2.82-1.8-2.34-7.17-1.71-9.35,1.78-1.08,2.63-.26a4,4,0,0,0,3,1.26,39.33,39.33,0,0,1,5.26.66,1.72,1.72,0,0,1,.77,2.38A9.53,9.53,0,0,1,42.33,143.25Z" style="fill:#fff"/><path d="M62.68,143.07s-7-2-8.28-2.42-.59-2.27.23-3.34,5.18-5.48,7.4-6,1.8,1,1.48,2.19a4.06,4.06,0,0,0,.32,3.24,36.85,36.85,0,0,1,1.93,4.93c.22,1.11-1.14,1.93-1.72,1.81A10.1,10.1,0,0,1,62.68,143.07Z" style="fill:#fff"/><path d="M71.39,157.43s-1.9-7.05-2.15-8.37,1.65-1.66,3-1.5,7.35,1.64,8.91,3.31,0,2.08-1.12,2.39a4,4,0,0,0-2.62,1.92,37.55,37.55,0,0,1-3.26,4.19,1.72,1.72,0,0,1-2.43-.55A10.32,10.32,0,0,1,71.39,157.43Z" style="fill:#fff"/><path d="M64.83,176.07s5.1-5.21,6.11-6.1,2.28.58,2.82,1.81,2.31,7.18,1.66,9.36-1.78,1.07-2.62.25a4.05,4.05,0,0,0-3-1.28,39.1,39.1,0,0,1-5.25-.68,1.72,1.72,0,0,1-.76-2.38A9.23,9.23,0,0,1,64.83,176.07Z" style="fill:#fff"/><path d="M44.53,176.21s7,2,8.29,2.43.59,2.27-.23,3.34-5.18,5.47-7.41,6-1.79-1.05-1.48-2.18a4,4,0,0,0-.31-3.24,39.11,39.11,0,0,1-1.94-4.94c-.21-1.11,1.15-1.93,1.73-1.81A9.75,9.75,0,0,1,44.53,176.21Z" style="fill:#fff"/><path d="M35.83,161.86s1.9,7,2.15,8.36-1.65,1.66-3,1.51-7.35-1.65-8.91-3.31,0-2.08,1.12-2.39a4.06,4.06,0,0,0,2.62-1.93,37.58,37.58,0,0,1,3.25-4.19,1.73,1.73,0,0,1,2.44.56A10,10,0,0,1,35.83,161.86Z" style="fill:#fff"/><path d="M42.33,143.25s-5.08,5.23-6.09,6.13-2.27-.57-2.82-1.8-2.34-7.17-1.71-9.35,1.78-1.08,2.63-.26a4,4,0,0,0,3,1.26,39.33,39.33,0,0,1,5.26.66,1.72,1.72,0,0,1,.77,2.38A9.53,9.53,0,0,1,42.33,143.25Z" style="fill:#fff"/><path d="M10.46,129.94S21,104.45,54.24,104.45s48.76,23.79,52,51" style="fill:none;stroke:#f64f4d;stroke-linecap:round;stroke-linejoin:round;stroke-width:5.740536327671603px"/><path d="M349.8,108.21c-28.76,0-52.08,24.73-52.08,55.23a58.78,58.78,0,0,0,.81,9.73l11.38-.09s57,3.95,91.73-4.52c.15-1.69.23-3.39.23-5.12C401.87,132.94,378.56,108.21,349.8,108.21Z" style="fill:#d3d3d3"/><path d="M349.8,108.21c-28.76,0-52.08,24.73-52.08,55.23a58.78,58.78,0,0,0,.81,9.73l11.38-.09s57,3.95,91.73-4.52c.15-1.69.23-3.39.23-5.12C401.87,132.94,378.56,108.21,349.8,108.21Z" style="fill:url(#Dégradé_sans_nom_368-2)"/><ellipse cx="349.8" cy="159.01" rx="38.02" ry="38.75" style="fill:#abaaad"/><ellipse cx="349.8" cy="159.01" rx="31.13" ry="30.72" style="fill:#d3d3d3"/><ellipse cx="349.8" cy="159.64" rx="22.41" ry="22.12" style="fill:#e2e2e2"/><path d="M338.52,143.25s-5.09,5.23-6.09,6.13-2.28-.57-2.83-1.8-2.34-7.17-1.7-9.35,1.78-1.08,2.62-.26a4.08,4.08,0,0,0,3,1.26,39.76,39.76,0,0,1,5.26.66,1.72,1.72,0,0,1,.77,2.38A9.53,9.53,0,0,1,338.52,143.25Z" style="fill:#fff"/><path d="M358.87,143.07s-7-2-8.29-2.42-.58-2.27.24-3.34,5.18-5.48,7.4-6,1.8,1,1.48,2.19a4.06,4.06,0,0,0,.32,3.24A36.85,36.85,0,0,1,362,141.7c.21,1.11-1.14,1.93-1.72,1.81A9.59,9.59,0,0,1,358.87,143.07Z" style="fill:#fff"/><path d="M367.58,157.43s-1.9-7.05-2.16-8.37,1.65-1.66,3-1.5,7.36,1.64,8.91,3.31,0,2.08-1.11,2.39a4,4,0,0,0-2.63,1.92,36.43,36.43,0,0,1-3.25,4.19,1.72,1.72,0,0,1-2.43-.55A10.32,10.32,0,0,1,367.58,157.43Z" style="fill:#fff"/><path d="M361,176.07s5.1-5.21,6.11-6.1,2.27.58,2.82,1.81,2.3,7.18,1.66,9.36-1.79,1.07-2.63.25a4,4,0,0,0-3-1.28,39.48,39.48,0,0,1-5.26-.68,1.73,1.73,0,0,1-.75-2.38A9.23,9.23,0,0,1,361,176.07Z" style="fill:#fff"/><path d="M340.72,176.21s7,2,8.29,2.43.59,2.27-.24,3.34-5.17,5.47-7.4,6-1.79-1.05-1.48-2.18a4,4,0,0,0-.32-3.24,38.91,38.91,0,0,1-1.93-4.94c-.21-1.11,1.15-1.93,1.72-1.81A9.59,9.59,0,0,1,340.72,176.21Z" style="fill:#fff"/><path d="M332,161.86s1.91,7,2.16,8.36-1.65,1.66-3,1.51-7.36-1.65-8.91-3.31,0-2.08,1.12-2.39A4.08,4.08,0,0,0,326,164.1a36.43,36.43,0,0,1,3.25-4.19,1.71,1.71,0,0,1,2.43.56A8.61,8.61,0,0,1,332,161.86Z" style="fill:#fff"/><path d="M338.52,143.25s-5.09,5.23-6.09,6.13-2.28-.57-2.83-1.8-2.34-7.17-1.7-9.35,1.78-1.08,2.62-.26a4.08,4.08,0,0,0,3,1.26,39.76,39.76,0,0,1,5.26.66,1.72,1.72,0,0,1,.77,2.38A9.53,9.53,0,0,1,338.52,143.25Z" style="fill:#fff"/><path d="M299.06,157.09s3.31-48.88,51-48.88c33.21,0,48.76,25.62,51.95,50.8" style="fill:none;stroke:#f64f4d;stroke-linecap:round;stroke-linejoin:round;stroke-width:5.524546052972497px"/><path d="M180.71,6.53l10.82,55.89s-3,.35,2.52,20.18,6.79,63.9,2.88,77" style="fill:none;stroke:#f64f4d;stroke-linecap:round;stroke-linejoin:round;stroke-width:4.6037883774770805px"/><path d="M65.42,75.9s67-1,112.55,3" style="fill:none;stroke:#f64f4d;stroke-linecap:round;stroke-linejoin:round;stroke-width:4.6037883774770805px"/><ellipse cx="218.71" cy="81.36" rx="1.87" ry="7.3" transform="translate(123.21 294.27) rotate(-86.25)" style="fill:#d3d3d3"/></g></g></svg>