<svg width="32" height="62" viewBox="0 0 32 62" fill="none" xmlns="http://www.w3.org/2000/svg">
<path d="M14.5835 9.85694C14.5835 7.58606 12.8512 5.74381 10.7158 5.74381C9.38375 5.74381 8.20887 6.46125 7.51138 7.55262C6.8339 6.36093 5.60471 5.56445 4.20115 5.56445C2.06579 5.56445 0.333496 7.4067 0.333496 9.67758C0.333496 10.8541 0.796585 11.912 1.53982 12.6629L7.08831 19.0773L13.0942 13.1006C14.0003 12.3467 14.5835 11.1733 14.5835 9.85694Z" fill="white"/>
<g clip-path="url(#clip0)">
<path d="M26.4582 2.27249C26.4582 1.07026 25.4958 0.0949554 24.3095 0.0949554C23.5694 0.0949554 22.9167 0.474777 22.5292 1.05256C22.1528 0.421667 21.47 0 20.6902 0C19.5039 0 18.5415 0.975305 18.5415 2.17754C18.5415 2.80038 18.7988 3.36046 19.2117 3.75798L22.2942 7.15385L25.6308 3.98974C26.1342 3.5906 26.4582 2.96937 26.4582 2.27249Z" fill="white"/>
</g>
<g clip-path="url(#clip1)">
<path d="M32.0002 22.5363C32.0002 19.8647 29.8829 17.6973 27.273 17.6973C25.6449 17.6973 24.209 18.5414 23.3565 19.8253C22.5284 18.4234 21.0261 17.4863 19.3106 17.4863C16.7007 17.4863 14.5835 19.6537 14.5835 22.3253C14.5835 23.7094 15.1495 24.954 16.0579 25.8374L22.8394 33.3838L30.1799 26.3524C31.2874 25.4654 32.0002 24.0849 32.0002 22.5363Z" fill="white"/>
</g>
<g clip-path="url(#clip2)">
<path d="M26.4583 45.7293C26.4583 41.7218 23.3787 38.4708 19.5825 38.4708C17.2143 38.4708 15.1257 39.7369 13.8857 41.6628C12.6813 39.5599 10.496 38.1543 8.00083 38.1543C4.20464 38.1543 1.125 41.4053 1.125 45.4128C1.125 47.4889 1.94827 49.3558 3.26957 50.6809L13.1336 62.0005L23.8107 51.4534C25.4216 50.123 26.4583 48.0522 26.4583 45.7293Z" fill="white"/>
</g>
<path d="M26.4583 45.7293C26.4583 41.7218 23.3787 38.4708 19.5825 38.4708C17.2143 38.4708 15.1257 39.7369 13.8857 41.6628C12.6813 39.5599 10.496 38.1543 8.00083 38.1543C4.20464 38.1543 1.125 41.4053 1.125 45.4128C1.125 47.4889 1.94827 49.3558 3.26957 50.6809L13.1336 62.0005L23.8107 51.4534C25.4216 50.123 26.4583 48.0522 26.4583 45.7293Z" fill="white"/>
<defs>
<clipPath id="clip0">
<rect x="18.5415" width="7.91667" height="7.15385" fill="white"/>
</clipPath>
<clipPath id="clip1">
<rect x="14.5835" y="17.4863" width="17.4167" height="15.8974" fill="white"/>
</clipPath>
<clipPath id="clip2">
<rect x="1.125" y="38.1543" width="25.3333" height="23.8462" fill="white"/>
</clipPath>
</defs>
</svg>
