<svg width="106" height="44" viewBox="0 0 106 44" fill="none" xmlns="http://www.w3.org/2000/svg">
<rect x="0.209473" width="105.088" height="43.2712" rx="21.6356" transform="rotate(0.244375 0.209473 0)" fill="#426262"/>
<path d="M25.7572 29.3264C25.5192 29.3252 25.3166 29.2541 25.1494 29.1132C24.9963 28.9584 24.9204 28.7619 24.9218 28.5239L24.9988 15.2942C25.0004 15.0282 25.0786 14.8186 25.2335 14.6654C25.3884 14.4982 25.5989 14.4154 25.8649 14.4168C26.1309 14.4182 26.3404 14.5033 26.4935 14.6722C26.6466 14.827 26.7223 15.0374 26.7208 15.3034L26.6477 27.8612L33.4306 27.8975C33.6826 27.8989 33.8782 27.9629 34.0175 28.0897C34.1568 28.2164 34.2257 28.3988 34.2243 28.6368C34.2229 28.8748 34.1519 29.0564 34.0112 29.1816C33.8704 29.3069 33.6741 29.3688 33.4221 29.3675L25.7572 29.3264ZM36.8662 29.4909C36.6142 29.4896 36.4046 29.4185 36.2375 29.2776C36.0844 29.1228 36.0086 28.9123 36.0101 28.6463L36.0617 19.7845C36.0632 19.5185 36.1414 19.3159 36.2962 19.1767C36.4651 19.0236 36.6756 18.9478 36.9276 18.9491C37.1796 18.9505 37.3821 19.0286 37.5352 19.1834C37.6884 19.3242 37.7642 19.5276 37.7627 19.7936L37.7111 28.6555C37.7095 28.9355 37.6312 29.145 37.4764 29.2842C37.3216 29.4234 37.1182 29.4923 36.8662 29.4909ZM36.9404 16.7442C36.6044 16.7424 36.332 16.6429 36.1231 16.4458C35.9143 16.2487 35.8108 15.9891 35.8126 15.6671C35.8144 15.3591 35.9209 15.1077 36.132 14.9128C36.3432 14.7179 36.6167 14.6214 36.9527 14.6232C37.2887 14.625 37.5612 14.7245 37.77 14.9216C37.9789 15.1187 38.0824 15.3713 38.0806 15.6793C38.0787 16.0012 37.9722 16.2597 37.7611 16.4546C37.55 16.6494 37.2764 16.746 36.9404 16.7442ZM49.0633 28.1073C49.2861 28.3185 49.3968 28.5431 49.3954 28.7811C49.3942 28.9911 49.3161 29.1726 49.1613 29.3258C49.0204 29.4791 48.8449 29.5551 48.6349 29.554C48.4529 29.553 48.2644 29.468 48.0694 29.299L42.616 24.5447L42.5919 28.6816C42.5903 28.9476 42.5051 29.1571 42.3362 29.3102C42.1814 29.4494 41.985 29.5184 41.747 29.5171C41.495 29.5157 41.2854 29.4446 41.1182 29.3037C40.9651 29.1489 40.8894 28.9385 40.8909 28.6725L40.9685 15.3377C40.9701 15.0717 41.0482 14.8691 41.203 14.73C41.3719 14.5769 41.5824 14.501 41.8344 14.5023C42.0724 14.5036 42.2679 14.5817 42.421 14.7365C42.5882 14.8774 42.671 15.0808 42.6695 15.3468L42.6199 23.8727L47.6656 19.3007C47.8345 19.1336 48.024 19.0506 48.234 19.0517C48.444 19.0528 48.6256 19.1308 48.7787 19.2856C48.9318 19.4404 49.0077 19.6228 49.0065 19.8328C49.0051 20.0708 48.9059 20.2803 48.7088 20.4613L44.5504 24.135L49.0633 28.1073ZM59.1326 27.1322C59.2866 27.133 59.4192 27.1967 59.5305 27.3233C59.6418 27.4499 59.6968 27.6112 59.6957 27.8072C59.6937 28.1572 59.4468 28.4779 58.9551 28.7693C58.4494 29.0606 57.9161 29.2817 57.3552 29.4327C56.7944 29.5697 56.248 29.6368 55.716 29.6339C54.134 29.6255 52.8838 29.1497 51.9652 28.2068C51.0607 27.264 50.6133 25.9665 50.6229 24.3146C50.629 23.2646 50.8373 22.3417 51.248 21.5459C51.6587 20.7361 52.2294 20.1091 52.96 19.665C53.7046 19.221 54.5458 19.0015 55.4838 19.0065C56.8138 19.0137 57.8683 19.4533 58.6472 20.3255C59.4261 21.1977 59.8113 22.3758 59.8027 23.8597C59.801 24.1397 59.7439 24.3424 59.6311 24.4678C59.5184 24.5932 59.336 24.6553 59.084 24.6539L52.3221 24.6177C52.4341 27.0263 53.5681 28.2364 55.7241 28.248C56.2701 28.2509 56.7395 28.1834 57.1323 28.0455C57.5252 27.8936 57.9463 27.6928 58.3958 27.4433C58.761 27.2352 59.0066 27.1315 59.1326 27.1322ZM55.4971 20.3296C54.6011 20.3248 53.8785 20.601 53.3293 21.158C52.794 21.7152 52.4744 22.5045 52.3705 23.5259L58.3134 23.5578C58.2914 22.5216 58.037 21.7292 57.5502 21.1806C57.0635 20.618 56.3791 20.3343 55.4971 20.3296Z" fill="white"/>
<g clip-path="url(#clip0)">
<path d="M84 20.4472C84 18.0945 82.1765 16.1858 79.9288 16.1858C78.5266 16.1858 77.2899 16.9291 76.5557 18.0598C75.8425 16.8252 74.5486 16 73.0712 16C70.8235 16 69 17.9087 69 20.2614C69 21.4803 69.4875 22.5764 70.2698 23.3543L76.1103 30L82.4323 23.8079C83.3862 23.0268 84 21.811 84 20.4472Z" fill="white"/>
</g>
<defs>
<clipPath id="clip0">
<rect x="69" y="16" width="15" height="14" fill="white"/>
</clipPath>
</defs>
</svg>
