<svg width="297" height="574" viewBox="0 0 297 574" fill="none" xmlns="http://www.w3.org/2000/svg">
<g clip-path="url(#clip0)">
<path d="M259.1 573.6L35 572.3C15.7 572.2 0 556.3 0 537L2.6 35C2.7 15.7 18.6 0 37.9 0L262 1.3C281.3 1.4 297 17.3 297 36.6L294.5 538.7C294.4 558 278.5 573.7 259.1 573.6Z" fill="#426262"/>
<path d="M24.0001 563.6C13.3001 559 6.4001 548.6 6.5001 537.1L9.0001 35.0004C9.1001 27.4004 12.1001 20.2004 17.5001 14.8004C23.0001 9.30039 30.3001 6.40039 37.8001 6.40039L66.7001 6.60039C67.0001 17.4004 73.5001 27.0004 83.5001 31.3004C86.9001 32.8004 90.4001 33.5004 94.1001 33.5004L205.4 34.1004C212.8 34.2004 219.7 31.3004 224.9 26.1004C229.9 21.1004 232.8 14.5004 233 7.50039L261.9 7.70039C265.7 7.70039 269.4 8.50039 272.9 10.0004C283.6 14.6004 290.5 25.0004 290.4 36.5004L288 538.6C287.9 546.2 284.9 553.4 279.5 558.8C274 564.2 266.8 567.2 259.2 567.1L35.0001 565.9C31.2001 565.9 27.5001 565.1 24.0001 563.6Z" fill="white"/>
<path d="M270.4 15.9005C278.7 19.4005 284 27.5005 284 36.5005L281.5 538.6C281.5 544.5 279.1 550.1 274.9 554.3C270.7 558.5 265 560.801 259.2 560.701L35.1001 559.5C32.1001 559.4 29.3001 558.901 26.6001 557.701C18.3001 554.201 13.0001 546.1 13.0001 537.1L15.4001 35.0005C15.5001 22.7005 25.5001 12.8005 37.7001 12.9005L61.0001 13.0005C63.3001 23.7005 70.6001 32.8005 81.0001 37.2005C85.2001 39.0005 89.6001 39.9005 94.1001 39.9005L205.4 40.5005C221.7 40.6005 235.3 29.2005 238.8 14.0005L261.9 14.1005C264.8 14.2005 267.7 14.8005 270.4 15.9005ZM275.4 4.10047C271.2 2.30047 266.7 1.30048 261.8 1.30048L226.6 1.00048V6.70047C226.5 18.3005 217 27.7005 205.4 27.7005L94.1001 27.1005C91.2001 27.1005 88.5001 26.5005 86.0001 25.4005C78.4001 22.2005 73.0001 14.5005 73.1001 5.90048L73.2001 0.200475L37.8001 0.000475068C18.6001 -0.0995249 2.6001 15.6005 2.6001 35.0005L0.100098 537.1C0.100098 551.6 8.9001 564.2 21.5001 569.6C25.7001 571.4 30.2001 572.401 35.1001 572.401L259.2 573.6C278.5 573.7 294.4 558 294.5 538.6L296.9 36.6005C297 22.0005 288.1 9.50047 275.4 4.10047Z" fill="#426262"/>
<path d="M66.7999 130.399C82.7999 137.199 101.2 129.799 108.1 113.799C114.9 97.7994 107.5 79.3994 91.4999 72.5994C75.4999 65.7994 57.0999 73.1994 50.1999 89.1994C43.3999 105.099 50.8999 123.599 66.7999 130.399Z" fill="#426262"/>
<path d="M241.1 403.999L56.6 402.999C50.9 402.999 46.3 398.299 46.4 392.699L47.3 208.299C47.3 202.599 52 197.999 57.6 198.099L242.1 199.099C247.8 199.099 252.4 203.799 252.3 209.399L251.4 393.799C251.5 399.399 246.8 403.999 241.1 403.999Z" fill="#CB563E"/>
<path d="M250.5 561.101L148 560.601H45.3999L45.7999 481.901C45.7999 476.201 50.4999 471.601 56.0999 471.701L240.6 472.701C246.3 472.701 250.9 477.401 250.8 483.001L250.5 561.101Z" fill="#CB563E"/>
<path d="M135.3 93.3008H155.1" stroke="#CB563E" stroke-width="6" stroke-linecap="round"/>
<path d="M177.3 93.3008H197.1" stroke="#CB563E" stroke-width="6" stroke-linecap="round"/>
<path d="M221.7 93.3008H241.5" stroke="#CB563E" stroke-width="6" stroke-linecap="round"/>
<path d="M48 417.801L88.4 418.101" stroke="#426262" stroke-width="4" stroke-miterlimit="10" stroke-linecap="round" stroke-linejoin="round"/>
<path d="M48 426.1L190.9 426.9" stroke="#426262" stroke-width="2" stroke-miterlimit="10" stroke-linecap="round" stroke-linejoin="round"/>
<path d="M48 434.5L212.3 435.4" stroke="#426262" stroke-width="2" stroke-miterlimit="10" stroke-linecap="round" stroke-linejoin="round"/>
<path d="M47.8999 442.801L221.1 443.801" stroke="#426262" stroke-width="2" stroke-miterlimit="10" stroke-linecap="round" stroke-linejoin="round"/>
<path d="M47.8999 451.1L212.2 452" stroke="#426262" stroke-width="2" stroke-miterlimit="10" stroke-linecap="round" stroke-linejoin="round"/>
<path d="M50.7998 149.801L91.0998 150.001" stroke="#426262" stroke-width="4" stroke-miterlimit="10" stroke-linecap="round" stroke-linejoin="round"/>
<path d="M50.2002 159.1L193 159.9" stroke="#426262" stroke-width="2" stroke-miterlimit="10" stroke-linecap="round" stroke-linejoin="round"/>
<path d="M57.8999 169.5H221.9C226.9 169.5 230.9 173.5 230.9 178.5C230.9 183.5 226.9 187.5 221.9 187.5H57.8999C52.8999 187.5 48.8999 183.5 48.8999 178.5C48.8999 173.5 52.8999 169.5 57.8999 169.5Z" fill="#5A8D8C"/>
<path d="M128.5 262.1L123.2 310C123 312.1 124.1 314.1 126.1 314.9C130.1 316 134.5 317.5 139.3 319.6C144.3 321.7 148.6 324 152.3 326.2C152.7 326.4 153.9 326.8 155.3 326.5C156.3 326.3 157.2 325.7 157.9 324.9L188.3 287.8C189.8 285.9 189.7 283.2 188 281.5C182.9 276.2 174.5 269 162.3 263.9C150.8 259.1 140.4 258 133.3 257.9C130.8 257.8 128.7 259.7 128.5 262.1Z" fill="white" stroke="#CB563E" stroke-width="5" stroke-miterlimit="10"/>
<path d="M123.3 308.7C119.9 308.4 116.1 308.2 111.8 308.4C109.5 308.5 107.3 308.7 105.2 308.9C101.7 309.3 98.4 306.9 97.9 303.4C96.5 294.6 95.1 285.7 93.7 276.9C93.3 274.3 94.5 271.6 96.8 270.3C102.2 267.1 113.2 262.2 128.2 264.3L123.3 308.7Z" fill="white" stroke="#CB563E" stroke-width="5" stroke-miterlimit="10"/>
<path d="M158.6 324.2C161.2 326.4 164 329 166.8 332.2C168.4 333.9 169.8 335.6 171 337.2C173.2 340 177.2 340.6 180.1 338.5C187.4 333.3 194.6 328.1 201.9 322.9C204.1 321.4 205.1 318.6 204.5 316C203 309.9 198.8 298.7 186.7 289.5L158.6 324.2Z" fill="white" stroke="#CB563E" stroke-width="5" stroke-miterlimit="10"/>
<path d="M94 278.801L79 300.001C76.7 303.201 79.6 307.501 83.5 306.601L97.9 303.401L94 278.801Z" fill="white" stroke="#CB563E" stroke-width="5" stroke-miterlimit="10"/>
<path d="M200.4 324.699L195.2 350.199C194.4 353.999 189.3 354.899 187.3 351.499L179.7 338.799L200.4 324.699Z" fill="white" stroke="#CB563E" stroke-width="5" stroke-miterlimit="10"/>
<mask id="mask0" mask-type="alpha" maskUnits="userSpaceOnUse" x="58" y="482" width="182" height="80">
<path d="M239.4 561.099L148.9 560.599H58.2998L58.6998 491.099C58.6998 486.099 62.7998 481.999 67.7998 482.099L230.7 482.999C235.7 482.999 239.8 487.099 239.7 492.099L239.4 561.099Z" fill="#CB563E"/>
</mask>
<g mask="url(#mask0)">
<path d="M216.5 571.5C216.5 547.7 197.3 528.4 173.7 528.4C168.6 528.4 163.8 529.3 159.3 530.9C151.8 518.7 138.4 510.6 123.1 510.6C99.6996 510.6 80.5996 529.8 80.5996 553.4C80.5996 559.2 81.7996 564.8 83.7996 569.8L216.5 571.5Z" fill="white" stroke="#CB563E" stroke-width="2" stroke-miterlimit="10"/>
<path d="M187.6 572.8C187.6 559.7 177.1 549 164.2 549C151.3 549 140.8 559.6 140.8 572.8H187.6Z" fill="#CB563E"/>
<path d="M147.5 571.7C147.5 571.7 149.6 557.3 163.1 555.9" stroke="white" stroke-width="2" stroke-miterlimit="10" stroke-linecap="round" stroke-linejoin="round"/>
</g>
<path d="M77.7002 364.1C78.6002 363.7 79.5002 363.5 80.5002 363.5C81.5002 363.5 82.4002 363.7 83.3002 364.1C84.2002 364.5 85.0002 365 85.7002 365.7C86.4002 366.4 86.9002 367.2 87.3002 368.2C87.7002 369.1 87.9002 370.1 87.9002 371.1C87.9002 372.1 87.7002 373.1 87.3002 374C86.9002 374.9 86.4002 375.8 85.7002 376.5L75.8002 386.8C75.4002 387.3 74.6002 387.3 74.2002 386.8L64.3002 376.5C62.9002 375.1 62.2002 373.1 62.2002 371.1C62.2002 369.1 63.0002 367.2 64.3002 365.7C65.7002 364.3 67.5002 363.5 69.5002 363.5C71.5002 363.5 73.3002 364.3 74.7002 365.7L75.1002 366.1L75.5002 365.7C76.0002 365.1 76.8002 364.5 77.7002 364.1ZM80.5002 365.9C79.8002 365.9 79.2002 366 78.6002 366.3C78.0002 366.6 77.4002 367 77.0002 367.4L75.8002 368.6C75.4002 369.1 74.6002 369.1 74.2002 368.6L73.0002 367.4C72.1002 366.4 70.8002 365.9 69.4002 365.9C68.1002 365.9 66.8002 366.5 65.8002 367.4C64.9002 368.4 64.3002 369.7 64.3002 371.1C64.3002 372.5 64.8002 373.8 65.8002 374.8L74.9002 384.3L84.0002 374.8C84.5002 374.3 84.8002 373.7 85.1002 373.1C85.4002 372.5 85.5002 371.8 85.5002 371.1C85.5002 370.4 85.4002 369.7 85.1002 369.1C84.8002 368.5 84.5002 367.9 84.0002 367.4C83.5002 366.9 83.0002 366.5 82.4002 366.3C81.8002 366 81.1002 365.9 80.5002 365.9Z" fill="white"/>
</g>
<path d="M76.25 335.857C76.25 333.586 74.5177 331.744 72.3823 331.744C71.0503 331.744 69.8754 332.461 69.1779 333.553C68.5004 332.361 67.2712 331.564 65.8677 331.564C63.7323 331.564 62 333.407 62 335.678C62 336.854 62.4631 337.912 63.2063 338.663L68.7548 345.077L74.7607 339.101C75.6669 338.347 76.25 337.173 76.25 335.857Z" fill="white"/>
<g clip-path="url(#clip1)">
<path d="M88.1247 328.272C88.1247 327.07 87.1623 326.095 85.976 326.095C85.2359 326.095 84.5832 326.475 84.1957 327.053C83.8193 326.422 83.1365 326 82.3567 326C81.1704 326 80.208 326.975 80.208 328.178C80.208 328.8 80.4653 329.36 80.8782 329.758L83.9607 333.154L87.2973 329.99C87.8007 329.591 88.1247 328.969 88.1247 328.272Z" fill="white"/>
</g>
<g clip-path="url(#clip2)">
<path d="M93.6667 348.536C93.6667 345.865 91.5494 343.697 88.9395 343.697C87.3114 343.697 85.8755 344.541 85.023 345.825C84.1949 344.423 82.6926 343.486 80.9771 343.486C78.3673 343.486 76.25 345.654 76.25 348.325C76.25 349.709 76.816 350.954 77.7244 351.837L84.5059 359.384L91.8464 352.352C92.9539 351.465 93.6667 350.085 93.6667 348.536Z" fill="white"/>
</g>
<g clip-path="url(#clip3)">
<path d="M88.1248 371.729C88.1248 367.722 85.0452 364.471 81.249 364.471C78.8808 364.471 76.7922 365.737 75.5522 367.663C74.3478 365.56 72.1626 364.154 69.6673 364.154C65.8711 364.154 62.7915 367.405 62.7915 371.413C62.7915 373.489 63.6148 375.356 64.9361 376.681L74.8001 388L85.4772 377.453C87.0881 376.123 88.1248 374.052 88.1248 371.729Z" fill="white"/>
</g>
<path d="M88.1248 371.729C88.1248 367.722 85.0452 364.471 81.249 364.471C78.8808 364.471 76.7922 365.737 75.5522 367.663C74.3478 365.56 72.1626 364.154 69.6673 364.154C65.8711 364.154 62.7915 367.405 62.7915 371.413C62.7915 373.489 63.6148 375.356 64.9361 376.681L74.8001 388L85.4772 377.453C87.0881 376.123 88.1248 374.052 88.1248 371.729Z" fill="white"/>
<defs>
<clipPath id="clip0">
<rect width="296.9" height="573.6" fill="white"/>
</clipPath>
<clipPath id="clip1">
<rect x="80.208" y="326" width="7.91667" height="7.15385" fill="white"/>
</clipPath>
<clipPath id="clip2">
<rect x="76.25" y="343.486" width="17.4167" height="15.8974" fill="white"/>
</clipPath>
<clipPath id="clip3">
<rect x="62.7915" y="364.154" width="25.3333" height="23.8462" fill="white"/>
</clipPath>
</defs>
</svg>
