<svg version="1.1" id="Calque_1" xmlns="http://www.w3.org/2000/svg" x="0" y="0" viewBox="0 0 345 360" xml:space="preserve"><style>.st1{fill:#1d1d1d}.st5{fill:#fff}.st6{fill:#ffe000}</style><switch><g><path fill="#ff6e00" d="M35 229.8V357h305V161.9z"/><path class="st1" d="M35.5 232c-.1-3.4-.3 1.9-.1-2.3.1.5.2 1.2.1 2.3z"/><path class="st1" d="M46.3 227.7c10.7-3.2 25.1-5.6 36.9-8.7 1.4-.3-.3.5 2.8-.3 11.4-3.1 29.6-6.8 43.7-9.5l-.8.3c2.7-.5 5.9-1.6 8.7-2.2 0 .1-.9.3-.2.3.7-.4 5.1-1.2 6.3-1.7 1.1-.2 1.1 0 2.5-.2l1.6-.6c4.4-1.6 10.9-2.4 17-4.1-.3.1-.9.3-.4.3 9.8-2.6 22.1-5.3 33.1-7.8-.4.2-.8.5-.1.4.5-.4 3.9-1.2 6.8-1.9 1.4 0 5-1.4 8.5-2l-.3.1c2.5-.9 3.8-.7 5.8-1.5l1.7-.1c1-.7 3.8-.6 5.8-1.3l-.1-.1c2-.5 3.1-.6 4.9-1.1h.2c4.3-1.1 6.9-1.4 6.7-1.7 1.6-.1-4.2 1-1.7.9 14.2-3.5 28.9-6.7 43.3-9.9 1.7-.2 2.7-.4 3.1-.4 1.4-.4 5.4-1.3 6.7-1.7-.5.1 1 0 1.7-.2 2.6-.5 2.8-1 5.7-1.5-1.1.3-1.5.5-1.1.6 2.4-.8 5.7-1.5 8.5-2.2-.4.2-1.1.3-1 .4 3.1-1 5.8-1.2 8.5-2l-1 .4c4.5-.8 1.2-.7 5.1-1.4-.9.3-.6.3-.7.4 3.5-1.1 9.4-2.3 12.9-3.2-.2.1-.1.1-.1.1 2-.4 4-.9 6-1.3 2.1-.5 4-.9 6.6-1.6h.3c-.1 1.3-.4 0-.4 3.8.4-.2.2 7.2.6 4.7-.1 3.6-.2 9.4-.1 11.8-.1-1.6-.5 1.8-.5-1.2l-.2 2.3c-.2-.3.1-2.3-.1-1.6 0 1.5.2 5.9.1 7.3.2 2.8.7 5.4.7 9.9-.1-2.1-.4 1.2-.5-.2l.7 6.3c0 1.5-.3.3-.2 2.5.1-.1.2.8.2 1.5 0 .6.1 6.3-.3 6.9-.1.7-.1-2.5-.2-.8 0 2.8.1 2.9.1 5.7v.1c-.1 1.8.2 5.4.4 3.4 0-1.3-.2.5-.1-1.4.2 1.3.3 4.5.3 7.3-.1-.9-.2-.8-.3-1.2.3 3.7.4 7.7.5 11.9.2.1-.3-1.6-.2-2.2-.2 5.4.3 11.1 0 15.5 0-.7.2-.4.2-.3 0 2.6-.3 2.5-.2 4.1-.1.2 0 2.1.1 3.8.1.9-.1.5-.1-1.1.1 2.4.4 12.1.1 17.6.1-.1.4 3.4.3 4.7l-.2-.5c-.1 1.2 0 4.3-.2 4.5.3 2.7-.2-10.5 0-6.8-.2 1 .4 5.1.1 4.4 0 2.6.3 5.1.1 7.5 0-.7-.3-2.1-.3 0 0 3.7.1 1 .2 4l.1 1.9c.2.1 0 3.3.2 1.9-.2.4.1 5.3-.3 4.9l-.3-.5c0 1.6.3 2.6.4 3.8 0 .2-.1.6-.1.5.4.3 0 3.8.3 5.6-.2 3.3 0 8.4-.3 10 .1 2.5.3 4.9.2 7.8 0-.6-.1-1.4-.2-1.5-.1 1.8 0 2.3.1 3.9-.1-.4-.3 3.6-.4 5.7.1 2.5.4 1.7.5 1.9-.4 2.3.3 7.1-.1 10-.1-.9-.2-3.7-.3-1.6-.2 1-.2 2-.1 3.1 0 .6.1 1.2.1 1.8 0 .9.1 1.8.1 2.9h-2c.5.1 1 .2 1.6.4-.7-.1-1.5-.1-2.4-.1H336c-1.1 0-2 .1-1.8-.1-1.2.1-4.4-.1-4 .2-6.1-.3-14.9.2-18.7-.5-.9.1-3.1 0-2.6.2 1.5.2 2-.1 2.6 0-.8 0-1 .1-1 .2-1.9-.1-3.4-.1-1.6-.4-4.2-.2-4.4.6-9.8.5.2-.1-.2-.2-1.7-.2l-3 .3c-3.5-.1-2-.3-2.1-.6-1.9 0-4.1 0-5 .2l-2.3-.3c1.6.2-1.5.2-2.4.2l.9-.1c-.3-.1-2.5 0-3.6 0 .3.2 2.5.2 3.7.3-1 .1-2.4.1-3.7.2.4-.2-3-.2-4.5-.2-1.7-.1-1.9.2-2.4.2 0-.1-2.8 0-1.4-.2.6 0 1.3.1 2.3 0-1.1-.1-1-.3-3.3-.2-1.8.1.4.5-2.9.3.9-.1 1-.2 1.7-.2l-3.1-.1-.1.2c-.4-.1-.1-.1-.3-.1-.9.2-4.8.1-5.5.3-1.6 0-3.3-.2-4.8-.2h.3c-1.8-.1-4.3 0-5.8.1h.1c-1 0-3.4 0-4.6.1-2.5-.2-.9-.8-3.6-.6-2.6 0-4 .4-3 .6-4.6-.2-9.8.2-14.1-.1-.7.1-.2.1-1.6.2-6.8-.1-14.3.3-19.7-.2 2-.1.1-.2.1-.3-1.6.2-1.9-.2-2.5.1.2.2 0 .3 1.9.4-4 .1-10.2.1-12.4-.1 1.1.1.3.2-.6.2.3-.3-2.7-.4-4.9-.3l-.3.2-1.5-.2c-.9.1-1 .4-3.2.2-.1-.1-.2-.2-.7-.2-2.3.2-5.6.4-8.1.3l-2.1-.3c-1.1 0-2.9.2-1 .3-4.3-.2-7.1-.2-8.5-.4-7.4.6-18.2.6-26.9.6l.3-.1c-2.3-.1-1.2.3-2.8.2.8-.1-1.8-.3.1-.5-3.3-.2-4.3.3-6.4.3-.3.2 1.7-.1 1.3.1-.4.1-4.6-.1-5.1.1-.8-.1-.2-.3.3-.4l-2 .1c-2.5-.3 5.7-.6 3.1-1h-1.9c-1.8-.3 4.9-.3.3-.4-2 .1-3.8.6-2 .7-4.2.1-2 .7-6.5.7-1.2-.2 3.7 0 2.8-.3-2.1-.2-4.3.1-6.2 0 2.1.1.3.4-1 .5-2.3-.1 1.5-.3-1.8-.3-.5.2-3.6.3-1 .4-1.2.4-3.4-.1-5.2.2-1.1-.3 3.4-.6-.2-.8.6.3-4.5.4-2.5.7-1.4-.1-1.6-.3-.5-.4-2-.2-4.9.5-5.6 0l-.7.3c-.6-.1-1.5-.2-2.6-.3-1.8 0-5.7.4-5.6 0-.6 0-4.6 0-3.1.3 2.5.2 2.9-.2 4.3.2-1.8-.3-3.6 0-5.1.1l-.2-.2c-.9.1-2.9 0-3.4.2.7-.1.3-.2-.4-.2l-.9.2c-3.5.1-.8-.4-4.3-.3l2.6-.2c-.6 0-1.7-.2-3.4-.1-.6.2-1.8.5-2.4.6-1.9.1-.9-.2-2.8 0l2.5-.3c.4-.1-1.7-.4-4.3-.3-1.7.1-4.2.4-1.6.5-1.3 0-3.1-.1-2.1-.3-2.9.1.4.2-2.2.4-1-.1-4.3-.3-6.2-.6l2.7-.4h-1.8c2.3-.3-1.2-.2.1-.5-1.2 0-2.7.1-3.8.1 3.5.5-3.9.7-2.9 1.1-2.3.1-3.1-.2-3.9-.4-.4-.1-.7-.2-1.3-.2H36.2c-.6 0-1.3.1-2.3.1 0-.2 0-.5-.1-.8 0 .6-.1.3-.2.1-.1-.2-.1-.2-.1 1.1h1.8-1.7c0-1.6-.1-2.3-.2-3.3 0-.2 0-.5-.1-.7v-.6-1.8c.2 2.6.4-2.8.7 1-.1-.1-.1.4-.1 1V356.8c.1-1 .2-1 .3-1.2 0-.1.1-.4.1-.8v-1.6c0-1.9-.1-4.4-.3-4.1-.3.1 0 2.9-.2 1.7-.1-3.7.3-4.4-.2-5.9 0 2.4-.2 2.9-.4 2.9l-.1-2.7.2.5c.1-4.4-.3-1.3-.3-5.6l.3-2c.3 1-.1 6.2.3 5.4 0-2.8-.2-3.7-.1-6.3 0 .6.1 1.4.1 1.9 0-1 .6-2 .3-5.9-.1-2-.2-.5-.3-.6-.1-4.4-.2-5.8-.3-8.6.3.6 0-5.1.4-1.9-.2 1.5-.2 7.9.1 9.5.4-1.6-.1 3.5.4 4.4 0-3.6.4-3.4.7-4 0-1-.1-1.9-.1-2.5-.2-.4-.2.9-.5.9.1-4-.1-7.8-.3-10 .1-1.3.4-.9.4.7-.1-4.7 0-9.8 0-14.3-.4 2.9-.1-5-.4-3-.1 2.4-.4 4.5-.6 3.2 0-1.5.2 0 .3-.6-.2-1.9.3-3 0-4.9.1 4.3.5.8.8 1.6-.2-3.1.2.1.2-2.9-.2-3.1-.3-6.9-.4-10.4.3-4.3 0-11 0-14.9.2-2 .5-.7.6-2.9 0-2.6-.4 1.9-.2-1.9l.1.4c-.1-1.2.2-7-.3-8.1l.4 1.2c0-.7-.1-1.4-.1-2 .1 0 .2-.9.3.3.3-2.4 0-5-.1-7.5l-.2 1.6c-.2-4.4 0-7.3 0-11.6l.2.1-.1-2.5c.2.6.4-1.7.2-3l.5 6.6c-.1 1.8-.3-2-.5-.8-.2 1-.1 4.9.1 5.5 0-1.5 0-1.6-.1-2.7.3-.5.3 1.8.5 2.9 0-.8.1-1.9 0-2.1.2 1.5.2 3.1.2 5.7-.1-1.7-.2.9-.3.3.3.2.4 2.7.3 5.9-.3 2.3.2 6 .1 9.7-.3-1.5-.5-3.4-.6-5.7-.1 2.3 0 2.6-.1 4.9.2 1.1.5 1.9.6 4.9l-.2.2c.1 2.7.4 2.7.3 6.2-.1 6-.1 12.1-.1 16.7l-.2.2c.4 2.5.2 8.5.4 11.9-.2 5.8.2 12.6-.2 15.6.2 10.3.3 19.2.2 29.8l-.3-1.8c.1 1 .1 1.3 0 1.6-.1.3-.1.6-.1 1.3.1-1 .2-.3.3.5.8-.1 1.4-.1 2.2-.2 4.7.2 10.8 0 15-.2l.2.2c4.2-.4 9.3 0 14.6 0 .6.1 1.6.3 3.1.3 2.9-.3 4.4-.3 8.6-.5 3.1 0 8 .1 11.2.2 11.5-.5 23.3-.2 35.3-.4l.9.2c11.6-.5 25.9 0 35.9-.3l-1 .4c3.1.1 7.1-.1 6.3-.4 3.1.1 7.8-.2 9.8.1 3.2.1 3.9-.2 6.6-.2 6.4.2 8.8.1 14.8 0h-1.5c-.7.1-.7.3.8.3 2.2-.1 8.3.1 6-.4 6.4.3 15-.2 21.2.2-.5-.1 1-.2 1.7-.2 5.6 0 11.6.3 16.1 0 .9.1-1.4.2.9.2 1.4-.1 0-.2 1.7-.2 9.1-.2 18.5.3 26.8.2 14.8-.3 30.2-.1 44.3-.2l-.2.1c4.7-.4 11.1.4 14.9-.2 1.1.1 4.3 0 3.4.2.6 0 1.4-.1 2.2-.1H338.6v-1.1-2.9c0-1.9 0-3.9-.1-5.7 0 .5 0 .8.1 1.4.2-5.5-.1-10.4.1-16.2 0 .6.1 1.7.2 1.8.2-2.2-.4-5.3.1-6.6 0-1.3-.2-.9-.2-.1.2-12.7-.1-26.3-.2-39.6.3-9.5.8-.6.4-8.1.1-.6-.2-.4-.1-.5-.1-2.9.5-4.5.3-6.5-.3.8-.2-1.3-.3-1.4.2-5.8.4-7 .2-11.6l.2.3c-.4-5.4-.2-11.6-.7-16.1-.1-26.6-.3-52.2-.4-78.1h-.1l-.4.1c-1 .2-2 .5-3 .7-27.9 6.1-55.1 12.4-83.5 18.4-6.7 1.1-7.2 1.2-14.5 3 .3-.1.7-.2.2-.2-.3.4-5.1 1.2-5.7 1.6-10.5 2.3-20.1 4.5-30.9 6.9 1.7-.4 2.5-.9.5-.4l-2.1.7h-.4c-1.4.4-2.8.8-1.4.6-27 6.3-53.7 11.6-80.2 17.6-6.3 1.3-15.2 3.4-22.1 5-20.4 4.1-38.7 7.8-59.2 12.7-.1.2 2.4-1.3 10.9-3.3z"/><path class="st1" d="M35.6 236.2c-.2.7-.3 3.2-.5 1.2.2-.2.3-1.5.5-1.2zM33.9 300.6c0 .1-.1.9-.1 1.1 0-.8-.2-1.5-.1-2.2 0 .9.1.7.2 1.1zM33.8 317.1c-.1-.2-.3-3.8-.3-5.9l.3 5.9zM33.2 332.4c-.1 1.3-.2 1-.2-.8.1-.1.1.5.2.8zM33.5 333.5c0 1.3-.1 1.9-.2 2.5.2 0 0-2.9.2-2.5zM44.8 358.9c.8 0 2.5-.1 3.3 0-.8-.1-3.9.2-3.3 0zM60.3 358.7h1.3c.9.1-.1.2-.8.2l-.5-.2zM341.1 354.8l.1 2.5-.2-.5zM341.1 231.2c-.1-1.7.1-1.2.2-1.4 0 1.5-.2-.6-.2 1.4zM340.4 164.6v.5l-.3-.2z"/><path fill="none" stroke="#ffe000" stroke-width="0" stroke-linecap="round" stroke-linejoin="round" d="M35 229.8l305-67.9"/><g><path fill="#110f44" d="M35 52v177.8L182.2 197l16.9-145z"/><path class="st1" d="M35.5 53.5c-.1-2.3-.3 1.3-.1-1.5.1.3.2.8.1 1.5z"/><path class="st1" d="M42.8 52.4c7.5-.8 17.5 0 25.8-.5 1 0-.3.4 1.9.3 8-.6 20.6-.2 30.4.2l-.6.1c1.9.1 4.1-.3 6.1-.3 0 .1-.6.1-.2.2.5-.2 3.6-.1 4.4-.3.8.1.7.3 1.7.4l1.1-.3c3.1-.6 7.6 0 11.9-.3-.2.1-.6.1-.3.2 6.9-.4 15.5-.3 23.1-.5-.3.1-.6.3-.1.4.4-.3 2.8-.4 4.8-.4.9.3 3.5-.3 5.9-.1l-.2.1c1.8-.3 2.6.2 4.1-.2l1.1.2c.8-.4 2.6.2 4.1 0v-.1c1.4-.1 2.1.1 3.4 0h.1c3-.1 4.8.1 4.7-.2 1.1.3-2.9.1-1.3.5 4-.1 8.1-.2 12.1-.2h12.5c-.2 2-.5 4.1-.7 6.1-.3 1.1-.4 1.8-.5 2.1-.1 1-.4 3.7-.3 4.7 0-.3-.2.6-.3 1.1-.3 1.8.1 2-.3 4 0-.8-.1-1.1-.2-.8.1 1.7-.3 4-.4 6 0-.3 0-.8-.1-.7 0 2.2-.5 4-.6 5.9l-.1-.7c-.6 3.1.3 1-.2 3.6 0-.6-.1-.4-.1-.6 0 2.5-.5 6.5-.7 9 0-.2-.1-.1-.1-.1-.3 2.7-.7 5.5-.9 8.5-.2 1.1-.4-.4-.7 2.5.4-.1-.4 4.9.2 3.2-.3 2.4-.9 6.3-1 7.9 0-1.1-.6 1.1-.4-.9l-.4 1.5c-.1-.2.2-1.6 0-1.1-.1 1-.3 4-.5 4.9 0 1.9.2 3.7-.1 6.8 0-1.5-.5.8-.5-.2l.2 4.3c-.1 1-.3.2-.4 1.7.1-.1.1.6.1 1-.1.4-.4 4.2-.8 4.6-.2.4.1-1.7-.1-.6-.2 1.9-.1 2-.3 3.9h-.1c-.2 1.2-.3 3.7.1 2.3.1-.9-.3.3 0-1 .1.9-.1 3.1-.3 5 0-.6-.1-.6-.2-.9 0 2.6-.2 5.2-.4 8.1.2.1-.2-1.1-.1-1.5-.7 3.6-.5 7.5-1.2 10.5 0-.5.3-.2.2-.2-.2 1.7-.5 1.6-.5 2.8-.2.1-.1 1.4-.2 2.6 0 .6-.1.3 0-.7-.1 1.6-.6 8.2-1.2 11.9.1-.1.1 2.4 0 3.2l-.2-.4c-.2.8-.3 2.9-.5 3 .1 1.9.6-7.1.5-4.6-.3.6 0 3.5-.3 2.9-.2 1.7-.1 3.4-.5 5.1.1-.5-.2-1.4-.3 0-.2 2.5 0 .7-.1 2.7l-.1 1.3c.2.1-.3 2.2.1 1.3-.1.1-.2 1-.3 1.9 0 .2 0 .4-.1.6 0 .2-.1.4-.1.6-.1.4-.2.6-.2.5-.1-.2-.2-.4-.2-.6-.1.6-.1 1.2 0 1.8-.5.2-1 .4-1.6.6h-.5c-.1.5-2.5.5-3.7 1.1-2.2.3-5.6 1.2-6.7 1.2-1.7.5-3.2 1-5.1 1.3.4-.1.9-.3 1-.4-1.2.1-1.5.3-2.6.6.2-.1-2.5.3-3.9.4-1.6.5-1 .6-1.2.8-1.6-.1-4.7 1.3-6.7 1.4.6-.2 2.4-.8 1-.6-1.6-.1-3 1-5.5 1.4l.7.2c-1.2 0-3.6 1-3.4.6-.8.3-2.9.5-2.6.8-4.1.6-9.8 2.4-12.5 2.3-.6.2-2 .5-1.7.6 1 0 1.3-.4 1.7-.4-.5.1-.6.2-.7.3-1.3.2-2.3.4-1.2-.2-2.9.4-2.8 1.2-6.4 1.9.1-.2-.2-.2-1.2.1l-1.9.7c-2.3.5-1.4 0-1.5-.3-1.2.3-2.7.6-3.3.9h-1.6c1.1 0-1 .4-1.6.6l.6-.2c-.3-.1-1.7.3-2.4.5.2.1 1.7-.2 2.5-.3-.6.2-1.6.4-2.4.8.2-.3-2.1.3-3 .5-1.1.2-1.2.5-1.6.6-.1-.1-1.8.4-1 0 .4-.1.9-.1 1.5-.3-.8.1-.7-.2-2.2.3-1.1.4.4.4-1.8.7.6-.2.7-.3 1.1-.5l-2.1.3v.2c-.3 0-.1-.1-.2-.1-.6.4-3.1.8-3.5 1.1-1 .3-2.2.3-3.2.5l.2-.1c-1.2.1-2.8.6-3.8 1v-.1c-.7.1-2.2.5-3 .8-1.7.2-.7-.7-2.5 0-1.7.4-2.6 1-1.9 1-3.1.5-6.5 1.7-9.4 2-.4.2-.1.2-1 .4-4.5.9-9.4 2.4-13.1 2.7 1.3-.4 0-.2 0-.4-1 .4-1.3.1-1.6.5.2.2.1.3 1.3.1-2.7.7-6.7 1.6-8.3 1.8.8-.1.2.1-.4.3.1-.4-1.9 0-3.3.5l-.2.2h-1c-.6.2-.5.5-2.1.7-.1-.1-.2-.1-.5-.1-.8.3-1.7.6-2.6.8l-.7.2c-.3.1-.5.1-.8.2-.8.2-1.6.3-2.3.5l-1.8.1v-.3c0-1.1-.2-3-.3-.8 0-1.2.1-2.3.1-3.3 0-.6.1-1.1.1-1.6.1-1 .1-1.7.2-2.1-.6-5.1-.6-12.4-.6-18.3l.1.2c.1-1.6-.3-.8-.2-1.9.1.5.3-1.2.5 0 .2-2.3-.3-2.9-.3-4.4-.2-.2.1 1.2-.1.9-.1-.3.1-3.1-.1-3.5.1-.6.3-.1.4.2l-.1-1.4c.3-1.7.6 3.8 1 2.1V195c.3-1.2.3 3.4.4.2-.1-1.4-.6-2.6-.7-1.3-.1-2.9-.7-1.3-.7-4.4.2-.8 0 2.5.3 1.9.2-1.5-.1-2.9 0-4.2-.1 1.4-.4.2-.5-.7.1-1.6.3 1 .3-1.2-.2-.4-.3-2.4-.4-.6-.4-.8.1-2.3-.2-3.5.3-.7.6 2.3.8-.2-.3.4-.4-3-.7-1.7.1-1 .3-1.1.4-.4.2-1.4-.5-3.3 0-3.8l-.3-.5c.1-.4.2-1 .3-1.7 0-1.2-.4-3.9 0-3.8 0-.4 0-3.2-.3-2.1-.2 1.7.2 2-.2 2.9.3-1.2 0-2.5-.1-3.5l.2-.2c-.1-.6 0-2-.2-2.3.1.5.2.2.2-.3l-.2-.6c-.1-2.4.4-.6.3-2.9l.2 1.8c0-.4.2-1.2.1-2.3-.2-.4-.5-1.3-.6-1.6-.1-1.3.2-.6 0-1.9l.3 1.7c.1.3.4-1.1.3-2.9-.1-1.1-.4-2.9-.5-1.1 0-.9.1-2.1.3-1.4-.1-2-.2.3-.4-1.5.1-.7.3-2.9.6-4.2l.4 1.8v-1.2c.3 1.6.2-.8.5.1 0-.8-.1-1.8-.1-2.6-.5 2.4-.7-2.7-1.1-2-.1-3.3 1.1-2 .4-5.5-.1.6-.5-1.1-.3 1 0-2-.4-1.4-.3-3.8.2 1.8.4-1.9.7.7-.1-.2-.1 1.4-.1 1.8.2-.8.4.2.4-1.9 0-1.3-.1-3-.3-2.8-.3.1 0 1.9-.2 1.1-.1-2.5.3-3-.2-4 0 1.6-.2 2-.4 2l-.1-1.9.2.4c.1-3-.3-.9-.3-3.8l.3-1.4c.3.7-.1 4.2.3 3.7 0-1.9-.2-2.5-.1-4.3 0 .4.1.9.1 1.3 0-.7.6-1.3.3-4-.1-1.4-.2-.4-.3-.4-.1-3-.2-3.9-.3-5.9.3.4 0-3.4.4-1.3-.2 1-.2 5.4.1 6.4.4-1.1-.1 2.4.4 3 0-2.4.4-2.3.7-2.7 0-.7-.1-1.3-.1-1.7-.2-.3-.2.6-.5.6.1-2.7-.1-5.3-.3-6.8.1-.9.4-.6.4.5-.1-3.2 0-6.7 0-9.7-.4 2-.1-3.4-.4-2.1-.1 1.6-.4 3-.6 2.1 0-1 .2 0 .3-.4-.2-1.3.3-2 0-3.3.1 2.9.5.6.8 1.1-.2-2.1.2.1.2-2-.2-2.1-.3-4.7-.4-7.1.3-2.9 0-7.5 0-10.1.2-1.4.5-.4.6-1.9 0-1.8-.4 1.3-.2-1.3l.1.2c-.1-.8.2-4.8-.3-5.5l.4.8c0-.5-.1-.9-.1-1.3.1 0 .2-.6.3.2.3-1.6 0-3.4-.1-5.1l-.2 1.1c-.2-3 0-5 0-7.9l.2.1-.1-1.7c.2.4.4-1.2.2-2.1l.5 4.5c-.1 1.2-.3-1.4-.5-.6-.2.7-.1 3.3.1 3.8 0-1 0-1.1-.1-1.9.3-.3.3 1.2.5 2 0-.5.1-1.3 0-1.4.2 1 .2 2.1.2 3.9-.1-1.2-.2.6-.3.2.3.1.4 1.8.3 4-.3 1.5.2 4.1.1 6.6-.3-1-.5-2.3-.6-3.8-.1 1.6 0 1.8-.1 3.3.2.8.5 1.3.6 3.4l-.2.1c.1 1.9.4 1.9.3 4.2-.1 4.1-.1 8.2-.1 11.3l-.2.1c.4 1.7.2 5.7.4 8.1-.2 4 .2 8.6-.2 10.6.2 7 .3 13.1.2 20.3l-.3-1.2c.2 1.3-.2.8-.1 2.1.2-1.5.3 1.8.5 2.7-.2 3.2 0 7.3.2 10.2l-.2.1c.4 2.9 0 6.3 0 9.9-.1.4-.3 1.1-.3 2.1.3 1.9.3 3 .5 5.8 0 2.1-.1 5.5-.2 7.6.5 7.8.2 15.9.4 24l-.2.6c.5 7.9 0 17.6.3 24.4l-.4-.7V226.4c.1.4.2.5.4.3v.4c.2 0 .3-.1.5-.1l.3-.1h.2l.4-.1c1-.2 1.9-.4 2.5-.4 2.1-.4 2.5-.8 4.3-1.2 4.3-.8 5.8-1.2 9.8-2.1l-1 .2c-.4.2-.4.4.6.2 1.5-.4 5.5-1.1 3.9-1.3 4.3-.7 9.9-2.4 14.1-3-.4-.1.7-.3 1.1-.5 3.7-.8 7.7-1.4 10.7-2.3.6-.1-.9.4.6.1.9-.2 0-.2 1.1-.5 6-1.6 12.3-2.5 17.8-3.8 9.7-2.4 20-4.6 29.4-6.7l-.1.1c3.1-1.1 7.5-1.3 9.8-2.4.8-.1 2.8-.6 2.3-.3 2.4-.8 7.1-1.3 10.6-2.5-.3.1-.5.1-.9.3 3.7-.6 6.9-1.6 10.8-2.3-.4.1-1.1.3-1.2.4 1.5-.1 3.4-1.2 4.4-.9.9-.2.6-.4 0-.2 2.2-.4 4.4-.9 6.7-1.4 1.1-.3 2.3-.5 3.4-.8l1.7-.4.4-.1.3-.1v-.6l.2-1.6.3-3.3c.2-2.2.4-4.3.7-6.5 1-6.4.8-.3 1.1-5.4.1-.4-.1-.3 0-.4.1-2 .9-3 .8-4.4-.4.5-.1-.9-.2-1 .6-3.9 1-4.7 1.1-7.8l.1.3c0-3.7.7-7.8.6-11 2.2-20 4.3-39.2 6.4-58.7 1.6-13.8 3.2-27.5 4.8-41.4-3.8 0-7.7-.1-11.7-.1-4.6-.4-5-.4-10-.2.2-.1.5-.1.2-.1-.3.3-3.6 0-4.1.3-7.3-.1-14 0-21.5 0 1.2 0 1.8-.3.4-.3l-1.5.2-.2-.1c-1 0-2 .2-1 .3-18.8.3-37.3-.4-55.8-.3-4.4-.1-10.6 0-15.4.1-14 .6-26.7.2-41 .5 0 0 1.9-.8 7.8-1z"/><path class="st1" d="M35.6 56.4c-.2.5-.3 2.1-.5.8.2-.2.3-1 .5-.8zM33.9 100.1c0 .1-.1.6-.1.8 0-.5-.2-1-.1-1.5 0 .6.1.5.2.7zM33.8 111.3c-.1-.2-.3-2.6-.3-4l.3 4zM33.2 121.8c-.1.9-.2.7-.2-.6.1-.1.1.3.2.6zM33.5 122.5c0 .9-.1 1.3-.2 1.7.2 0 0-2 .2-1.7zM33.1 145.1c0 .5.1 1.7 0 2.2.1-.5-.2-2.6 0-2.2zM33.3 155.7v.9c-.1.6-.2 0-.2-.6l.2-.3zM149.9 205.3l-1.1.3.1-.1zM189.1 146.9c0-1.1.2-.8.3-1-.1 1-.2-.4-.3 1zM193.6 101.8v.4l-.3-.2z"/></g><g><path fill="#83c1ff" d="M340 52H199.1l-16.9 145L340 161.9z"/><path class="st1" d="M338.7 52.5c2-.1-1.1-.3 1.3-.1-.3.1-.7.2-1.3.1z"/><path class="st1" d="M339.6 58.8c.8 6.6 0 15.3.5 22.5 0 .8-.4-.2-.3 1.7.6 7 .2 18-.2 26.6l-.1-.5c-.1 1.6.3 3.6.3 5.3-.1 0-.1-.6-.2-.2.2.4.1 3.1.3 3.8-.1.7-.3.6-.4 1.5l.3 1c.6 2.7 0 6.7.3 10.4-.1-.2-.1-.5-.2-.3.4 6 .3 13.5.5 20.2-.1-.3-.3-.5-.4-.1.3.3.4 2.4.4 4.2-.3.8.3 3.1.1 5.2l-.1-.2c.1.8.1 1.6.1 2.1-.7.1-1.3.2-2 .6h-1c-.6.5-2.2.3-3.5.8l.1.1c-1.2.4-1.8.3-2.9.6h-.1c-2.6.7-4.1.8-4 1.1-1 0 2.5-.7 1-.7-8.4 2.2-17.2 4.1-25.7 6-1 .1-1.6.2-1.9.1-.8.3-3.2.8-3.9 1.1.3-.1-.6 0-1 0-1.6.2-1.6.7-3.4 1 .7-.2.9-.4.6-.5-1.4.6-3.4 1-5.1 1.4.3-.1.7-.2.6-.3-1.8.7-3.4.7-5.1 1.2l.6-.3c-2.7.4-.7.6-3 .9.5-.2.3-.2.4-.3-2.1.8-5.6 1.5-7.7 2.1l.1-.1c-2.3.6-4.8 1-7.3 1.7-.9.1.2-.5-2.2.1.2.3-4.1 1.1-2.6 1.2-2.1.4-5.5 1-6.8 1.4.9-.3-1.1-.2.6-.6l-1.4.1c.2-.2 1.4-.3.9-.3-.9.2-3.4.9-4.2 1-1.6.6-3 1.3-5.6 2 1.2-.4-.8-.2 0-.5l-3.5 1.5c-.9.2-.3-.2-1.5.1.1.1-.4.3-.8.4-.3 0-3.6.9-4.1.6-.4-.1 1.4-.4.4-.3-1.6.4-1.7.5-3.3.9-1.1.2-3.1.9-1.9.8.7-.2-.3-.2.8-.3-.7.4-2.6.8-4.2 1.2.5-.2.4-.3.6-.4-2.1.8-4.4 1.4-6.8 2 0 .2.8-.5 1.2-.5-3.2.5-6.3 1.8-9 2 .4-.1.3.2.2.1-1.5.3-1.5.1-2.4.4-.1-.1-1.2.3-2.2.6-.5.2-.3 0 .6-.2-1.4.4-6.9 1.9-10.2 2.4.1.1-1.9.8-2.7.9l.2-.3c-.7 0-2.5.6-2.7.4-1.5.6 6.1-1.6 4-.9-.6-.1-2.9 1-2.5.6-1.5.3-2.9.9-4.4 1 .4-.1 1.1-.6-.1-.3-2.1.5-.6.2-2.3.7l-1.1.3c0 .2-1.9.4-1.1.5-.1 0-.3 0-.6.1-.4.1-.8.2-1.3.3-1.1.2-2.1.4-1.8.2.2-.1.4-.3.6-.4-.8.2-1.5.5-2.3.8 0-.3-.1-.5-.1-.9.1-.2.2-.6.2-.6-.2.1-.1-.8 0-1.8.2-1.2.3-1.8.2-2.4.4-1.9.6-5 1-5.9 0-1.5 0-2.9.3-4.6v.9c.3-1.1.2-1.3.2-2.3 0 .2.5-2.1.8-3.3 0-1.5-.3-1-.4-1.2.6-1.3.2-4.3.8-5.9 0 .5 0 2.2.2 1 .6-1.3 0-2.8.5-5l-.4.5c.3-1 .2-3.3.5-3 0-.8.4-2.6 0-2.4.7-3.6.8-8.8 1.7-11 0-.5.2-1.8 0-1.6-.3.8 0 1.2-.2 1.5 0-.5 0-.6-.1-.6.2-1.1.3-2 .5-.9.5-2.5-.3-2.7.2-5.8.1.2.2-.1.3-1V140c.3-2.1.5-1.1.7-1.2.1-1.1.3-2.5.1-3l.5-1.3c-.3.9 0-.9 0-1.4v.5c.1-.2.2-1.5.3-2.1-.2.1-.4 1.4-.5 2.1 0-.6.1-1.4 0-2.2.2.3.4-1.8.5-2.6.2-1-.1-1.2 0-1.4.1 0 .2-1.6.3-.8 0 .3-.2.8-.2 1.3.2-.7.4-.5.4-1.9 0-1-.5.2-.1-1.7 0 .5.1.6.1 1l.3-1.8-.2-.1c.1-.2.1-.1.1-.2-.2-.6.3-2.8 0-3.3.1-.9.4-1.9.5-2.8v.2c.3-1.1.3-2.5.3-3.4v.1c.1-.6.2-2 .2-2.7.3-1.5.9-.4.8-2.1.2-1.5-.1-2.4-.3-1.8.5-2.7.5-5.8 1.1-8.3 0-.4-.1-.2-.1-1 .6-4 .7-8.5 1.5-11.6 0 1.2.2.1.3.1-.1-1 .3-1.1 0-1.5-.2.1-.3 0-.5 1.1.2-2.4.6-6 .9-7.3-.2.7-.2.1-.2-.4.3.2.6-1.5.6-2.9l-.2-.2.3-.8c0-.5-.3-.6 0-1.9.1-.1.2-.1.3-.4 0-1.4 0-3.4.3-4.8l.4-1.2c0-.6 0-1.7-.2-.6.5-2.5.7-4.2 1-4.9 0-1.3 0-2.7.1-4.1.1-.7.1-1.5.2-2.3.1-.6.1-1.1.2-1.7.1-.7.1-1.4.2-2.1h8.6l-.2.1c1.4.1.7-.3 1.7-.2-.4.1 1.1.3 0 .5 2 .2 2.5-.3 3.8-.3.2-.2-1 .1-.8-.1.2-.1 2.7.1 3-.1.5.1.1.3-.2.4l1.2-.1c1.5.3-3.4.6-1.8 1h1.1c1.1.3-2.9.3-.2.4 1.2-.1 2.2-.6 1.2-.7 2.5-.1 1.2-.7 3.9-.7.7.2-2.2 0-1.6.3 1.3.2 2.6-.1 3.7 0-1.3-.1-.2-.4.6-.5 1.4.1-.9.3 1.1.3.3-.2 2.1-.3.6-.4.7-.4 2 .1 3.1-.2.6.3-2 .6.1.8-.3-.3 2.6-.4 1.5-.7.8.1.9.3.3.4 1.2.2 2.9-.5 3.3 0l.4-.3c.4.1.9.2 1.5.3 1.1 0 3.4-.4 3.3 0 .3 0 2.8 0 1.8-.3-1.5-.2-1.7.2-2.6-.2 1.1.3 2.2 0 3-.1l.1.2c.5-.1 1.7 0 2-.2-.4.1-.2.2.2.2l.5-.2c2.1-.1.5.4 2.5.3l-1.6.2c.3 0 1 .2 2 .1.4-.2 1.1-.5 1.4-.6 1.2-.1.5.2 1.6 0l-1.5.3c-.2.1 1 .4 2.5.3 1-.1 2.5-.4 1-.5.8 0 1.9.1 1.2.3 1.7-.1-.2-.2 1.3-.4.6.1 2.5.3 3.7.6l-1.6.4h1c-1.4.3.7.2-.1.5.7 0 1.6-.1 2.3-.1-2.1-.5 2.3-.7 1.7-1.1 2.9-.1 1.8 1.1 4.8.4-.5-.1.9-.5-.9-.3 1.8 0 1.2-.4 3.3-.3-1.6.2 1.7.4-.6.7.2-.1-1.3-.1-1.6-.1.7.2-.2.4 1.7.4 1.1 0 2.6-.1 2.4-.3 0-.3-1.7 0-1-.2 2.2-.1 2.6.3 3.5-.2-1.4 0-1.8-.2-1.7-.4l1.6-.1-.3.2c2.6.1.8-.3 3.3-.3l1.2.3c-.6.3-3.7-.1-3.2.3 1.6 0 2.2-.2 3.7-.1-.3 0-.8.1-1.2.1.6 0 1.2.6 3.5.3 1.2-.1.3-.2.4-.3 2.6-.1 3.4-.2 5.1-.3-.4.3 3 0 1.1.4-.9-.2-4.7-.2-5.6.1 1 .4-2.1-.1-2.6.4 2.1 0 2 .4 2.4.7.6 0 1.2-.1 1.5-.1.2-.2-.5-.2-.6-.5 2.4.1 4.6-.1 5.9-.3.8.1.5.4-.4.4 2.8-.1 5.8 0 8.5 0-1.7-.4 3-.1 1.8-.4-1.4-.1-2.7-.4-1.9-.6.9 0 0 .2.3.3 1.1-.2 1.8.3 2.9 0-2.6.1-.5.5-1 .8 1.9-.2-.1.2 1.8.2 1.8-.2 4.1-.3 6.2-.4 2.6.3 6.5 0 8.8 0 1.2.2.4.5 1.7.6 1.5 0-1.1-.4 1.1-.2l-.2.1c.7-.1 4.2.2 4.8-.3l-.7.4c.4 0 .8-.1 1.2-.1 0 .1.5.2-.2.3 1.4.3 2.9 0 4.5-.1l-1-.2c2.6-.2 4.4 0 6.9 0l-.1.2 1.5-.1c-.4.2 1 .4 1.8.2l-3.9.5c-1.1-.1 1.2-.3.5-.5-.6-.2-2.9-.1-3.3.1.9 0 .9 0 1.6-.1.3.3-1.1.3-1.7.5.5 0 1.1.1 1.2 0-.9.2-1.8.2-3.4.2 1-.1-.6-.2-.2-.3-.1.3-1.6.4-3.5.3-1.4-.3-3.6.2-5.8.1.9-.3 2-.5 3.4-.6-1.4-.1-1.5 0-2.9-.1-.7.2-1.1.5-2.9.6l-.1-.2c-1.6.1-1.6.4-3.7.3-3.6-.1-7.2-.1-9.9-.1l-.1-.2c-1.5.4-5 .2-7.1.4-3.5-.2-7.5.2-9.3-.2-6.1.2-11.4.3-17.7.2l1.1-.3c-1.1.2-.7-.2-1.8-.1 1.3.2-1.5.3-2.3.5-2.8-.2-6.4 0-8.9.2l-.1-.2c-2.5.4-5.5 0-8.7 0-.4-.1-.9-.3-1.9-.3-1.7.3-2.6.3-5.1.5-1.8 0-4.8-.1-6.6-.2-6.9.5-13.9.2-21 .4l-.5-.2c-1.7.1-3.5.2-5.3.2h-4.3c-.2 1.5-.4 2.9-.5 4.2-.2 1.8-.4 3.4-.5 4.9l1.2-.6c-.3 1.8-.4 4.2 0 3.8-.3 1.8-.3 4.6-.8 5.8-.3 1.9-.1 2.3-.2 3.9-.6 3.8-.7 5.2-1.1 8.7l.1-.9c0-.4-.2-.5-.3.4 0 1.3-.7 4.9 0 3.6-.7 3.8-.8 8.9-1.6 12.5.2-.3.1.6.1 1-.4 3.3-1.1 6.8-1.1 9.5-.1.5-.1-.9-.3.5 0 .8.2 0 .1 1-.4 5.4-1.5 10.9-2 15.8-.8 8.7-1.9 17.8-2.9 26.2l-.1-.1c0 2.8-1.1 6.5-.8 8.8-.2.7-.3 2.5-.5 2 0 2.3-1 6.2-1 9.5v-.8c-.6 3.2-.6 6.1-1.2 9.5v-1.1c-.3 1.3 0 3.2-.5 3.9-.1.8.2.6.2.1-.3 1.9-.5 3.8-.7 5.7-.1.9-.2 1.9-.3 2.9l-.1 1 .9-.3 2.8-.7c1.9-.5 3.8-.9 5.8-1.4 5.6-1 .5.7 4.8-.6.4 0 .2-.2.3-.2 1.7-.5 2.7-.1 3.8-.6-.5-.2.7-.3.7-.5 3.4-.6 4.1-.5 6.8-1.3l-.2.2c3-1.1 6.7-1.7 9.2-2.8 17.2-4 33.6-7.8 50.3-11.6 16.6-3.6 32.7-7.4 49.6-10.9 4-.5 4.3-.6 8.6-1.7-.2.1-.4.2-.1.2.1-.4 3-.7 3.4-1.1 1.5-.3 3-.7 4.5-1 .7-.2 1.5-.3 2.2-.5l.6-.1h.1v-8.1c0 1 .3 1.6.3.3l-.2-1.3.1-.2c0-.8-.2-1.8-.3-.9-.3-16.5.4-32.7.3-48.8.1-3.8 0-9.3-.1-13.4.4-12.3.8-23.4.5-36-.1.1.7 1.7.9 6.9z"/><path class="st1" d="M336.2 52.6c-.4-.2-1.9-.3-.7-.5.1.2.8.3.7.5zM297.9 50.9s-.5-.1-.7-.1c.5 0 .9-.2 1.3-.1-.4 0-.4.1-.6.2zM288.1 50.8c.1-.1 2.2-.3 3.5-.3l-3.5.3zM279 50.2c-.8-.1-.6-.2.5-.2.1.1-.3.1-.5.2zM278.3 50.5c-.8 0-1.1-.1-1.5-.2.1.2 1.8 0 1.5.2zM258.5 50.1c-.5 0-1.5.1-2 0 .6.1 2.4-.2 2 0zM249.3 50.3h-.8c-.5-.1 0-.2.5-.2l.3.2zM184.4 168.3l.1-1 .1.2zM226 188.4c.9-.3.7 0 .9 0-.9.1.3-.3-.9 0zM264.5 179.1h-.3v-.3z"/></g><g><path class="st5" d="M87.8 107.3v82.9c0 38.4-5 50.1 12.6 85.4 4.1 8.2 9.5 15.2 16 21 37.6 33.8 108.7 26.3 140.5-11.5 28.1-33.4 20.3-63.7 20.3-104.3l-1.1-69.1"/><path class="st1" d="M88.4 108.6c-.1-1.9-.3 1-.1-1.3.1.3.2.6.1 1.3zM275.9 118.1c.9 6.3.2 14.5.8 21.4 0 .8-.4-.2-.3 1.6.7 6.6.5 17.1.2 25.3l-.1-.5c-.1 1.5.4 3.4.3 5.1-.1 0-.1-.5-.2-.1.2.4.2 3 .3 3.6-.1.6-.3.6-.4 1.4l.3.9c.7 2.6 0 6.3.4 9.9-.1-.2-.1-.5-.2-.2.5 5.7.7 12.8 1 19.2-.1-.3-.3-.5-.4-.1.3.3.4 2.3.6 4-.3.8.3 2.9.2 4.9l-.1-.2c.3 1.5-.1 2.2.2 3.4l-.2.9c.4.7-.2 2.1 0 3.4h.1c.1 1.2-.1 1.8-.1 2.8l-.1.1c0 2.5-.2 4 .1 3.9-.3.9-.1-2.4-.5-1.1 0 8.3-1 16.8-3.3 24.8-.4.9-.6 1.5-.7 1.6-.2.8-1 3-1.1 3.7.1-.3-.3.5-.5.9-.3.7-.4 1.1-.4 1.6-.1.4-.2.9-.6 1.6.2-.6.2-.9 0-.7-.3 1.4-1.1 3.1-1.8 4.7.1-.3.2-.6.1-.6-.1.4-.3.9-.4 1.3-.2.4-.4.7-.6 1.1-.4.7-.8 1.4-1.1 2.1l.1-.6c-1.4 2.2 0 .9-1.2 2.8.2-.5.1-.4 0-.5-.2.5-.4 1.1-.7 1.6-.3.6-.7 1.1-1 1.7-.7 1.2-1.5 2.3-2 3.2v-.1c-.3.5-.6 1-1 1.4-.4.5-.7.9-1.1 1.4-.7.9-1.5 1.9-2.2 2.9-.6.7-.2-.5-1.6 1.4.4.2-2.6 3.1-1.3 2.4-1.4 1.5-3.8 3.7-4.7 4.7.6-.8-1 .4.2-.8-.4.2-.7.5-1.1.7.1-.2 1-.9.6-.7-.6.6-2.4 2.3-3 2.8-1 1.2-1.9 2.4-3.9 4 .9-.9-.8.1-.2-.5-.8.9-1.7 1.8-2.5 2.6-.7.5-.3-.1-1.3.7.1.1-.3.4-.6.7-.3.1-3 2-3.5 1.9-.4.1 1.1-.8.3-.4-1.3.8-1.4.9-2.7 1.7-.9.5-2.6 1.6-1.5 1.3.6-.3-.3-.1.6-.5-.5.6-2.2 1.4-3.6 2.1.5-.3.4-.4.5-.5-1.8 1.2-3.8 2.2-5.9 3.3 0 .2.7-.6 1-.7-1.4.5-2.9 1.2-4.2 1.8-.7.3-1.4.6-2 .9-.7.2-1.3.4-2 .5.4-.2.3.2.2.1-1.4.4-1.4.2-2.3.6-.1-.1-1.1.4-2.1.7-.5.2-.3 0 .6-.3-.6.2-2.3.8-4.1 1.4-1.9.5-4 1.1-5.6 1.2.1.1-1.8.7-2.6.9l.2-.3c-.7 0-2.4.5-2.6.3-.7.2.7 0 2.1-.4 1.4-.3 2.7-.7 1.7-.4-.6-.1-2.8.9-2.4.5-1.4.3-2.8.7-4.2.7.4 0 1.1-.5 0-.3-2 .3-.6.2-2.2.5l-1 .2c0 .2-1.9.2-1.1.3-.1-.1-.9 0-1.6.1-.7.1-1.3.1-1.2-.1l.3-.3c-.9.1-1.4.4-2.1.6-.1 0-.4-.1-.3-.1-.1.5-2.1.1-3.2.5-.9-.1-2.1 0-3.2 0s-2-.1-2.5-.2c-1.4.1-2.8.3-4.4.1.3 0 .8 0 .9-.1-1-.2-1.3-.1-2.2-.1.2-.1-2.1-.3-3.2-.7-1.4 0-1 .3-1.1.4-.6-.3-1.7-.3-2.7-.4-1.1-.1-2.2-.2-2.9-.5.5 0 2.1.1.9-.2-1.2-.6-2.7 0-4.7-.7l.4.5c-.9-.4-3.1-.4-2.8-.7-.7 0-2.4-.7-2.3-.3-.8-.3-1.8-.5-2.7-.8-1-.2-1.9-.6-2.9-.8-.9-.3-1.8-.6-2.6-.9-.8-.3-1.4-.7-1.9-1-.5-.1-1.6-.6-1.5-.3.7.5 1.1.3 1.4.5-.4-.1-.6-.1-.6-.1-1-.4-1.8-.8-.7-.7-2.2-1.1-2.5-.4-5.3-1.7.2-.1 0-.2-.8-.6l-1.6-.5c-1.8-.9-.9-.8-.8-1-1-.4-2.1-1.1-2.6-1.2l-1-.9c.7.7-.8-.3-1.3-.5l.5.2c-.1-.1-.4-.3-.7-.5-.4-.2-.8-.4-1-.6 0 .2 1.1 1 1.6 1.3-.3-.1-.6-.2-.9-.4-.3-.2-.7-.4-1-.5.3-.1-1.4-1.1-2.1-1.6-.8-.6-1-.4-1.3-.6.1-.1-1.3-1-.6-.7.3.2.5.6 1.1.8-.5-.4-.3-.6-1.4-1.2-.9-.5-.1.5-1.5-.7.4.2.6.2.9.4l-1.4-1.2-.2.1c-.2-.2 0-.1-.1-.2-.6-.1-2.1-1.7-2.6-1.7-.7-.6-1.4-1.3-2-1.9l.1.1c-.7-.8-1.8-1.7-2.5-2.2h.1c-.4-.4-1.4-1.4-2-1.8-.9-1.2.3-.9-1-1.9-1-1.1-1.8-1.5-1.5-.9-1.6-2.1-3.7-4.3-4.7-6.6-.3-.3-.2 0-.7-.7-1-1.7-2.1-3.4-3-5.1-.9-1.7-1.7-3.4-2.1-4.9.6 1 .2 0 .3-.1-.6-.7-.3-1.1-.7-1.2-.1.2-.3.1.1 1.1-.5-1-1.2-2.3-1.7-3.5-.5-1.2-.9-2.3-1.1-3 .2.6-.1.2-.3-.2.4 0-.3-1.5-.9-2.7l-.2-.1-.1-.9c-.2-.4-.6-.4-.9-1.6 0-.1.1-.2.1-.4-.3-.6-.7-1.3-1-2-.3-.8-.6-1.5-.8-2.3l-.1-1.2c-.2-.6-.7-1.5-.5-.5-.3-1.2-.5-2.2-.7-3-.2-.8-.2-1.4-.2-1.8-.2-.5-.4-1-.6-1.6-.2-.6-.4-1.1-.5-1.8-.3-1.2-.7-2.5-.9-3.8-.2-1.3-.5-2.7-.7-4-.1-1.3-.3-2.7-.4-3.9l.2.1c0-1.3-.3-.7-.3-1.6.2.4.2-1 .5 0 0-1.9-.4-2.4-.5-3.7-.2-.2.2 1-.1.8-.1-.2.1-2.6-.2-2.9.1-.5.3-.1.4.1l-.2-1.2c.3-1.4.7 3.2 1.1 1.7l-.1-1.1c.3-1 .4 2.8.5.1-.2-1.1-.6-2.1-.7-1.1-.1-2.4-.7-1.1-.7-3.7.2-.7 0 2.1.3 1.6.2-1.2-.1-2.4 0-3.5-.1 1.2-.4.2-.4-.6.2-1.3.3.9.3-1-.2-.3-.2-2-.4-.5-.4-.7.1-1.9-.1-3 .3-.6.6 1.9.8-.1-.3.3-.3-2.5-.7-1.5.1-.8.3-.9.4-.3.2-1.1-.4-2.8.1-3.1l-.3-.4c.1-.4.2-.9.3-1.4 0-1-.3-3.2.1-3.1 0-.3 0-2.6-.3-1.7-.2 1.4.2 1.6-.2 2.4.3-1 0-2.1-.1-2.9l.2-.1c0-.5 0-1.6-.2-1.9.1.4.2.2.2-.2l-.2-.5c-.1-2 .4-.5.4-2.4l.2 1.5c0-.3.2-1 .1-1.9-.2-.4-.5-1-.6-1.4-.1-1.1.2-.5 0-1.6l.2 1.4c.1.2.4-.9.4-2.4-.1-.9-.4-2.4-.5-.9 0-.7.1-1.8.3-1.2-.1-1.7-.2.2-.4-1.2.1-.6.3-2.4.6-3.5l.4 1.5v-1c.3 1.3.2-.7.5.1 0-.7-.1-1.5-.1-2.2-.5 2-.7-2.2-1.1-1.7-.1-2.7 1.1-1.7.4-4.5-.1.5-.5-.9-.3.8 0-1.7-.4-1.2-.3-3.1.2 1.5.4-1.6.7.6-.1-.1-.1 1.2-.1 1.5.2-.7.4.1.4-1.6 0-1.1-.1-2.5-.3-2.3-.3 0 0 1.6-.2.9-.1-2.1.3-2.5-.2-3.3 0 1.3-.2 1.7-.4 1.6l-.1-1.5.2.3c.1-2.5-.3-.7-.3-3.1l.3-1.1c.3.6-.1 3.5.3 3.1 0-1.6-.2-2.1-.1-3.6 0 .3.1.8.1 1.1 0-.6.6-1.1.3-3.3-.1-1.2-.2-.3-.3-.3-.1-2.5-.2-3.3-.3-4.9.3.3 0-2.9.4-1.1-.2.8-.2 4.5.1 5.3.4-.9-.1 2 .4 2.5 0-2 .4-1.9.7-2.2 0-.6-.1-1.1-.1-1.4-.2-.2-.2.5-.5.5.1-2.2-.1-4.4-.3-5.6.1-.8.4-.5.4.4-.1-2.7 0-5.5 0-8.1-.4 1.6-.1-2.8-.4-1.7-.1 1.4-.4 2.5-.6 1.8 0-.9.2 0 .3-.3-.2-1.1.3-1.7 0-2.7.1 2.4.5.5.8.9-.2-1.8.2.1.2-1.7-.2-1.8-.3-3.9-.4-5.9.3-2.4 0-6.2 0-8.4.2-1.1.5-.4.6-1.6 0-1.5-.4 1.1-.2-1.1l.1.2c-.1-.7.2-4-.3-4.6l.4.7c0-.4-.1-.8-.1-1.1.1 0 .2-.5.3.2.3-1.3 0-2.8-.1-4.2l-.2.9c-.2-2.5 0-4.1 0-6.5l.2.1-.1-1.4c.2.3.4-1 .2-1.7l.5 3.7c-.1 1-.3-1.1-.5-.5-.2.5-.1 2.8.1 3.1 0-.8 0-.9-.1-1.5.3-.3.3 1 .5 1.6 0-.4.1-1.1 0-1.2.2.9.2 1.8.2 3.2-.1-1-.2.5-.3.2.3.1.4 1.5.3 3.3-.3 1.3.2 3.4.1 5.5-.3-.8-.5-1.9-.6-3.2-.1 1.3 0 1.5-.1 2.8.2.6.5 1.1.6 2.8l-.2.1c.1 1.5.4 1.5.3 3.5-.1 3.4-.1 6.8-.1 9.4l-.2.1c.4 1.4.2 4.8.4 6.7-.2 3.3.2 7.1-.2 8.8.2 5.8.3 10.9.2 16.9l-.3-1c.2 1.1-.2.7-.1 1.8.2-1.2.3 1.5.5 2.2-.2 2.7 0 6.1.2 8.5l-.2.1c.4 2.4 0 5.3-.1 8.2-.1.3-.3.9-.3 1.8.3 1.6.3 2.5.4 4.9 0 1.7-.2 4.5-.4 6.3.3 6.5-.3 13.2.3 19.8l-.2.5c.2 1.6.4 3.3.6 5.1.1.9.2 1.7.3 2.6.1.9.3 1.7.4 2.6.2 1.7.6 3.4.9 5 .3 1.6.8 3.1 1.2 4.4l-.5-.4c.2.9.4 1.8.7 2.5.3.7.6 1 .6.8.4 1.7 1.5 4.1 1.6 5.2.6 1.7 1 2 1.5 3.3.6 1.7 1.1 2.8 1.5 3.9.5 1.1.9 2.2 1.7 3.7l-.3-.8c-.2-.3-.4-.3-.1.5.6 1.1 1.9 4.2 1.8 2.9 1.2 3.4 3.9 7.3 5.5 10.4-.1-.3.5.4.7.6 1.8 2.6 3.6 5.3 5.4 7 .3.4-.7-.4.1.5.5.5.1-.1.8.5 1.8 1.7 3.6 3.6 5.5 5.2.9.8 1.8 1.7 2.8 2.4 1 .7 1.9 1.5 2.8 2.1 6.8 4.5 14.5 8.3 22 10.7l-.1.1c1.3.2 2.8.8 4.2 1.2 1.4.4 2.8.8 3.9.8.6.3 2.3.5 1.8.6 1.1.1 2.5.5 4 .8 1.6.3 3.2.6 4.8.6h-.8c1.5.3 2.9.4 4.4.5 1.5.1 2.9.1 4.6.4-.3 0-.9 0-1 .1.6.1 1.4.1 2 0 .7-.1 1.3-.1 1.6.2.7 0 .5-.2.1-.2 7.1.4 14.7-.5 21.9-1.8 5.3-.7.5.7 4.5-.4.4 0 .2-.2.3-.1 1.6-.4 2.6-.1 3.6-.6-.5-.2.7-.3.7-.5 1.6-.3 2.6-.5 3.4-.7.9-.2 1.7-.4 2.8-.9l-.1.2c1.4-.7 2.9-1.2 4.3-1.8 1.4-.6 2.8-1.2 3.9-1.9 7.6-3.1 14.6-7.2 21-11.9 6.3-4.9 11.9-10.4 16.6-16.9 4.8-6.3 8.7-13.1 11.5-20.3 2.8-7.3 4.5-15 5.4-23 .4-1.9.5-2.9.6-3.9.1-1.1.2-2.2.1-4.3.1.2.1.4.1.2-.3-.2 0-2.9-.3-3.3.1-1.5.1-3 .1-4.4v-4.4c-.1-2.9-.2-5.9-.3-9 .1 1 .4 1.5.3.3l.3-1.6.1-.2c-.1-.8-.3-1.7-.3-.8-.4-7.8-.6-15.6-.5-23.3 0-7.7 0-15.4-.1-23 .1-3.6-.1-8.8-.3-12.8.3-11.7.4-22.3-.1-34.2 0 0 .9 1.5 1.1 6.4zM88.4 110.9c-.2.4-.3 1.8-.5.7.2-.1.4-.8.5-.7z"/><path class="st1" d="M86.7 147.3s-.1.5-.1.6c0-.4-.2-.9-.1-1.2.1.4.2.4.2.6zM86.6 156.6c-.1-.1-.3-2.1-.3-3.3l.3 3.3zM86 165.3c-.1.7-.2.5-.2-.5.1-.1.2.2.2.5zM86.4 165.9c0 .7-.1 1.1-.2 1.4.1 0-.1-1.7.2-1.4zM85.9 184.7c0 .5.1 1.4 0 1.9.1-.5-.2-2.3 0-1.9zM86.1 193.4v.7c-.1.5-.2 0-.2-.5l.2-.2zM159.4 317.7c-.3 0-.6-.1-1-.1l.2-.1c.2 0 .5.1.8.2zM228.1 308.2c.8-.5.7-.2.8-.2-.8.4.2-.3-.8.2zM257.6 284.9l-.2.2-.2-.3z"/><g><path class="st1" d="M197.7 185.7c-1 .1.5.3-.6.1.1-.1.3-.2.6-.1z"/><path class="st1" d="M194 185.3c-1.6-.1-3.2-1.2-4.5-2.5-1.3-1.3-2.2-3-3-4.6-.2-.4.4 0 0-.9-.4-.8-.7-1.7-.7-2.7-.1-1-.1-2.1 0-3.3.1-2.2.3-4.6.5-6.6l.1.2c.1-.8-.3-1.7-.3-2.5.1 0 .1.3.2.1-.2-.2-.1-1.5-.3-1.8.1-.3.3-.3.4-.7l-.3-.5c-.6-1.3 0-3.2-.3-5 .1.1.1.3.2.1-.2-1.4-.3-3-.3-4.7 0-1.7.3-3.4.9-4.9 0 .2.1.3.3.2-.2-.2.1-1.2.6-2 .2-.1.4-.4.6-.8.2-.4.5-.9 1-1.2v.1c.2-.4.4-.5.6-.7.2-.1.5-.2.6-.6l.5-.1c.1-.5 1.1-.4 1.5-.8l-.1-.1c.5-.3.9-.3 1.4-.5h.1c1.2-.5 2-.4 1.9-.7.5.1-1.2.4-.4.6 2-.7 4.1-.9 6.2-.9h6.3c.5.1.8.2.9.3.4-.1 1.6-.1 1.9-.3-.1 0 .3.2.5.2.8.1.8-.4 1.7-.3-.3.1-.4.2-.3.3.7-.3 1.7-.3 2.5-.4-.1.1-.3.1-.3.2.9-.3 1.7 0 2.5-.2l-.3.2c1.3.2.4-.4 1.5-.3-.3.1-.2.1-.2.2 1-.4 2.7-.4 3.8-.5-.1 0 0 .1 0 .1 1.1-.1 2.3-.1 3.6-.3.5.1-.1.5 1.1.3-.1-.4 2-.3 1.3-.7 1 0 2.7 0 3.3-.2-.5.2.5.4-.3.5l.7.2c-.1.2-.7 0-.4.2.4 0 1.7-.3 2-.3.8-.3 1.5-.8 2.7-.9-.6.2.4.4 0 .5l1.7-.9c.4-.1.1.3.7.1 0-.1.2-.2.4-.3.2 0 1.8-.2 2 .1.2.1-.7.1-.2.2.8-.1.8-.2 1.6-.3.5 0 1.5-.3.9-.4-.4 0 .2.2-.4.2.3-.2 1.3-.4 2-.5-.3.1-.2.2-.3.3 1-.4 2.1-.6 3.3-.8 0-.2-.4.4-.6.3 1.5.1 3.1-.7 4.4-.5-.2.1-.1-.2-.1-.2.7-.1.7.2 1.2 0 .1.1.6-.1 1.1-.2.2-.1.1.1-.3.1.7-.2 3.3-.8 4.9-.8 0-.1.9-.5 1.3-.5l-.1.2c.3.1 1.2-.2 1.3 0 .7-.4-2.9.7-1.9.3.3.2 1.4-.6 1.2-.2.7-.1 1.4-.5 2.1-.4-.2 0-.5.4 0 .3 1-.2.3-.2 1.1-.4l.5-.2c0-.2.9-.1.5-.3.2.2 1.4-.4 1.4 0l-.1.3c.4-.1.7-.4 1-.6.1 0 .2 0 .2.1 0-.4 1-.2 1.5-.7.9-.1 2.2-.6 2.7-.5.3-.2.6-.3.9-.5l.2-.1c.1-.1.2-.1.4-.2.3-.1.5-.1.8-.1h0c-.2.1-.4.1-.4.2h.4c.3 0 .5-.2.9-.3-.1.1.6 0 .9-.2.1 0 .1-.1.2-.2.2-.2.1-.3.1-.3l.1.1.3.3c.2.2.5.3.7.5 0 .3 0 .6-.1 1 0-.2-.1-.5-.2-.7-.1 0-.2 0-.1.1v.2c-.2.6-.1.9 0 1.4.1.2.1.5.2.8v.9l.4-.3c-.2.5.2 1.6-.2 1.5.1.4-.1 1.2.2 1.1-.3 1.7.2 4.2-.5 5.3.1.2 0 .9.2.7.2-.4-.1-.6 0-.7 0 .2.1.3.2.3-.1.5-.1 1-.4.5-.2 1.2.6 1.2.5 2.8-.1-.1-.2 0-.2.5l.3.9c-.1 1-.3.6-.6.6 0 .5 0 1.2.2 1.4l-.3.6c.2-.5.2.4.2.7l-.1-.2c-.1.1 0 .7 0 1 .2-.1.2-.7.3-1 .1.3.1.7.2 1-.2-.1-.2.9-.2 1.3-.1.5.2.5.2.7-.1 0 0 .8-.2.4 0-.2.1-.4 0-.6-.1.3-.3.3-.2.9.1.5.5-.1.3.8-.1-.2-.2-.3-.2-.5l-.1.9h.2c-.1.1-.1 0-.1.1.2.3.1 1.3.3 1.5 0 .4-.2.9-.2 1.4v-.1c-.1.5 0 1.2.1 1.6 0 .3 0 1 .1 1.3-.2.7-.8.2-.6 1 0 .7.4 1.1.6.8-.2 1.3.2 2.8-.1 4 .1.2.1.1.2.5-.1 1.9.3 4.1-.2 5.6-.1-.6-.2 0-.3 0 .2.5-.2.6.1.7.2 0 .3 0 .4-.5.1 1.2.1 2.8-.1 3.6.1-.4.2-.2.2.3-.4-.2-.2 1.2-.8 1.9 0 .1 0 .1.1.2-.2.1-.5.1-.7.2-.2.1-.2.2-.3.4-.1.1-.4.3-.9.3-.1-.1-.1-.1-.3-.1-.6.4-1.5.9-2.2.9l-.7-.1c-.3.1-.8.4-.2.4-1.2.2-2 .3-2.5.2-1.9 1.1-4.9 1.8-7.3 2.3v-.2c-.7 0-.3.3-.8.3.2-.2-.6-.2-.1-.5-1 .1-1.1.5-1.7.7-.1.2.5-.2.4 0-.1.1-1.3.1-1.4.4-.3-.1-.1-.3 0-.5l-.5.3c-.8-.2 1.5-.9.6-1.2l-.5.2c-.6-.2 1.3-.6 0-.5-.5.3-.9.8-.4.8-1.2.3-.4.8-1.7 1-.4-.1 1-.2.7-.4-.6-.1-1.2.4-1.7.4.6 0 .2.4-.2.5-.7 0 .4-.4-.6-.2-.1.2-.9.5-.2.5-.3.4-1 .1-1.4.5-.4-.2.8-.8-.2-.7.2.2-1.2.6-.6.9-.4 0-.5-.2-.2-.4-.6 0-1.3.7-1.6.3l-.1.3c-.2-.1-.5-.1-.8-.2-.5.1-1.6.6-1.6.2-.2.1-1.3.2-.8.4.7 0 .8-.3 1.2 0-.6-.2-1 .2-1.4.4l-.1-.1c-.2.1-.8.2-.9.3.2-.1.1-.2-.1-.2l-.2.3c-1 .3-.3-.4-1.3-.2l.7-.3c-.2.1-.5-.1-1 0-.2.2-.5.5-.6.7-.6.2-.3-.2-.8.1l.7-.3c.1-.1-.5-.3-1.3-.2-.5.1-1.2.5-.4.5-.4 0-.9 0-.6-.2-.8.2.1.2-.6.4-.3-.1-1.2-.2-1.8-.4l.7-.4h-.5c.6-.3-.3-.2 0-.5-.3 0-.7.1-1.1.2 1 .4-1.1.8-.7 1.2-1.4.2-.9-1-2.3-.2.2.1-.4.5.5.3-.9 0-.5.5-1.6.4.7-.2-.8-.4.2-.7-.1.2.6.1.8 0-.4-.1 0-.4-.8-.4-.5.1-1.3.2-1.1.4 0 .3.8-.1.5.2-1.1.2-1.3-.2-1.7.3.7-.1.9.2.9.3l-.8.2.1-.2c-1.3 0-.3.3-1.6.4l-.6-.3c.3-.3 1.8 0 1.5-.5-.8 0-1 .3-1.8.2.2-.1.4-.1.5-.1-.3 0-.6-.6-1.7-.1-.6.2-.1.2-.1.4-1.3.1-1.6.4-2.4.4.1-.4-1.4.1-.6-.3.4.2 2.3 0 2.7-.3-.5-.4 1 0 1.2-.4-1 .1-1-.3-1.2-.6-.3 0-.5.1-.7.2-.1.3.3.2.3.5-1.1 0-2.2.2-2.8.5-.4-.1-.3-.3.2-.4-1.3.2-2.8.2-4.1.2.8.4-1.4.2-.8.5.7.1 1.3.3.9.5-.4 0 0-.2-.2-.3-.5.2-.9-.3-1.4.1 1.2-.2.2-.5.4-.8-.9.2 0-.2-.8-.2-.9.2-2 .4-2.9.5-1.2-.3-3.1.1-4.2.1-.6-.1-.2-.5-.8-.6-.7 0 .6.4-.5.2l.1-.1c-.3.1-2-.2-2.3.3l.3-.4c-.2 0-.4.1-.6.1 0-.1-.2-.2.1-.3-.7-.3-1.4.1-2.1.1l.5.2c-1.2.2-2.1 0-3.3 0v-.2l-.7.1c.2-.2-.5-.4-.9-.2l1.9-.5c.5.1-.6.3-.2.5.3.2 1.4.1 1.6-.1-.4 0-.4 0-.8.1-.1-.3.5-.3.8-.5-.2 0-.5-.1-.6 0 .4-.2.9-.2 1.6-.2-.5.1.3.2.1.3.1-.3.8-.4 1.7-.3.6.3 1.7-.2 2.7-.1-.4.3-1 .5-1.6.6.7.1.7 0 1.4.1.3-.2.5-.5 1.4-.7v.2c.8-.1.8-.4 1.8-.4 1.7.1 3.4 0 4.7 0l.1.2c.7-.5 2.4-.3 3.3-.5 1.7.1 3.6-.4 4.4-.1 2.9-.4 5.4-.7 8.4-.9l-.5.3c.5-.3.4.1.9.1-.6-.2.7-.4 1.1-.6 1.4.1 3.1-.3 4.2-.6l.1.2c1.1-.5 2.7-.3 4.1-.4.2.1.5.2.9.1.7-.4 1.2-.5 2.3-.9.9-.1 2.3-.3 3.1-.3 3.1-1 6.5-1.4 9.7-2.4l.3.2c3.1-1.2 7.2-1.6 9.8-2.6l-.2.5c.9-.1 1.9-.6 1.6-.8.9-.1 2-.8 2.6-.6 1-.2.7-.4.9-.6.2 0 .2-.1.2-.2v-.5c0-.6 0-1.2-.1-2.1v.4c.1.2.3.2.3-.2-.1-.6.1-2.3-.4-1.7.3-1.8-.2-4.3.2-6-.1.2-.2-.3-.2-.5 0-1.6.3-3.3 0-4.6.1-.3.2.4.2-.2-.1-.4-.2 0-.2-.5-.2-2.6.3-5.3.2-7.6-.3-4.2-.1-8.6-.2-12.6h.1c-.4-1.3.4-3.2-.2-4.2.1-.3 0-1.2.2-1-.1-.2-.1-.4-.1-.7v-.6c0-.2.1-.4.1-.6 0-.1 0-.2-.1-.2h.1c.1-.2.1-.4.1-.5v.1c0 .1-.1.1-.1.2-.2.2-.3.3-.5.3l.2-.2h-.2l-.3.3c-.2.1-.5.2-.6.1-.4.1-.2.3 0 .2-3.7 1-7.4 2-11.2 2.8-2.7.1-.3-.8-2.4-.1-.2-.1-.1.2-.1.1-.8.3-1.3-.3-1.9 0 .3.3-.4.2-.3.4-1.7 0-2-.2-3.3.2l.1-.2c-1.5.6-3.3.6-4.5 1.2-8.4 1-16.4 1.9-24.6 2.5-4.1.2-8.1.4-12.1.6-2 .1-4.1.1-6.1.1-1 0-2.1 0-3.1-.1-1 0-1.9-.1-2.9-.1-1.8-.2-2-.3-3.8.3.1-.1.2-.1 0-.2 0 .3-1.3.4-1.4.8-1.3.4-2.4 1-3.3 1.8-.9.8-1.6 1.7-2.2 2.9.1-.4 0-.7-.2-.2v.6h-.1c-.1.3-.1.7.1.4l-.3 1.2c-.1.4-.1.8-.2 1.2-.1.4-.1.8-.1 1.3 0 .4-.1.8 0 1.4 0 2-.1 3.9-.1 5.8-.1 3.9-.3 7.7-.2 11.6-.1.9-.1 2 0 3.2v1.7c0 .6.1 1 .1 1.4 0 2.5 1 5 2.6 6.8 1.6 1.9 4.1 3.2 6.7 3 0 0-.2.2-.6.4-.7.2-1.5.4-2.7.1z"/><path class="st1" d="M198.9 185.7c.2.2.9.3.3.5 0-.2-.4-.4-.3-.5zM217.2 187l.3.1c-.2 0-.4.2-.6.1.3 0 .2-.1.3-.2zM221.9 186.9c-.1.2-1.1.3-1.6.4l1.6-.4zM226.3 187.2c.4.1.3.2-.2.2 0-.1.1-.1.2-.2zM226.6 186.8c.4 0 .5 0 .7.1 0-.1-.8.2-.7-.1zM236.1 186.5c.2 0 .7-.2.9-.1-.2-.1-1 .3-.9.1zM240.5 185.8h.4c.3 0 0 .2-.2.2l-.2-.2zM276.2 131.8l.1.7-.2-.1zM245 134.4c-.5.1-.3-.1-.4-.1.4-.1-.2.2.4.1zM226.2 136.7h.2l-.1.3z"/></g><g><path class="st1" d="M134.8 186.8c.8 0-.4-.3.5-.1-.1.1-.3.2-.5.1z"/><path class="st1" d="M137.8 186.3c1.1-.7 2.3-1.3 3.4-2.2 1.1-.9 2-2.1 2.4-3.4.1-.3.4.2.5-.5.1-.7.2-1.4.2-2.1 0-.8 0-1.6.1-2.4.1-1.7.3-3.5.5-5l.1.2c.1-.6-.3-1.3-.3-1.9.1 0 .1.2.2.1-.2-.2-.1-1.1-.3-1.4.1-.2.3-.2.4-.5l-.3-.4c-.6-1 0-2.4-.3-3.7.1.1.1.2.2.1-.4-2.2-.3-4.9-.5-7.3.1.1.3.2.4 0-.3-.1-.4-.9-.4-1.5.3-.3-.3-1.1-.1-1.9l.1.1c-.3-.6.2-.8-.2-1.3l.2-.4c-.4-.2.2-.8 0-1.3h-.1c-.1-.4.1-.7 0-1.1-.1-1 .1-1.5-.2-1.5.2-.3.2.9.5.4-.3-3.1-2-6.1-4.7-7.6-.2-.3-.4-.4-.4-.6-.3-.1-1.1-.4-1.4-.3.1 0-.1-.2-.3-.3-.5-.3-.7.2-1.3 0 .3 0 .4-.1.3-.3-.6.2-1.3.1-1.9.2.1-.1.3-.1.2-.2-.7.3-1.3-.1-1.9 0l.2-.2c-1-.3-.3.4-1.1.2.2 0 .1-.1.2-.2-.8.3-2.1.1-2.9.1v-.1c-.9 0-1.7-.2-2.7-.1-.3-.1.1-.4-.8-.4 0 .4-1.6 0-1.1.5-.8-.1-2-.4-2.5-.3.4-.1-.3-.5.3-.5l-.5-.3c.1-.1.5.1.4-.1h-1.6c-.6.2-1.2.5-2.2.5.5-.1-.2-.4.1-.5l-1.4.6c-.3 0 0-.3-.5-.3 0 .1-.2.1-.3.2-.1-.1-1.3-.1-1.4-.4-.1-.2.5 0 .2-.2-.6-.1-.6.1-1.2 0-.4-.1-1.2 0-.8.3.3 0-.1-.2.3-.1-.3.2-1 .2-1.6.1.2 0 .2-.1.3-.2-.8.2-1.7.2-2.6.2 0 .2.4-.3.5-.2-1.1-.4-2.4 0-3.3-.4.2 0 .1.3 0 .2-.5-.1-.5-.3-.9-.3 0-.2-.5 0-.8 0-.2.1-.1-.1.2-.1-.5.1-2.6 0-3.8-.4 0 .1-.8.2-1.1.2l.1-.2c-.2-.2-.9-.1-.9-.3-.6.2 2.3.1 1.5.2-.2-.2-1.2.2-.9-.1-.5-.1-1.1.1-1.6-.2.1.1.5-.2.1-.3-.8-.1-.2.1-.9 0h-.4c-.1.2-.7-.2-.4.1-.1-.2-1.2-.1-1-.5l.2-.3c-.3 0-.6.2-.9.2 0 0-.1-.1-.1-.2-.2.4-.8-.2-1.3 0-.7-.3-1.8-.5-2-.9-.2 0-.5 0-.7-.1-.1 0-.2 0-.3-.1 0 0-.1 0-.1-.1h.1v-.1c-.2-.2-.2-.1-.4-.1 0-.1-.5-.5-.9-1-.1 0 .2.4.3.6-.1-.2-.2-.4-.2-.5 0 0 0 .2.1.4.1.3.2.6 0 .5-.1-.1-.2-.7-.3-.6-.2-.1-.2.1-.1.4.1.3.3.6.2.9.1 0 .2 0 .4.1-.1 0-.1.2 0 .3 0 .1.1.2-.1.2.1.3-.1.9.2.9-.3 1.3.2 3.2-.5 4 .1.2 0 .7.2.6.2-.3-.1-.4 0-.6 0 .2.1.2.2.2-.1.4-.1.7-.4.3-.2.9.6.9.5 2.1-.1-.1-.2 0-.2.4l.3.6c-.1.7-.3.4-.6.4 0 .4 0 .9.2 1.1l-.3.5c.2-.4.2.3.2.5l-.1-.2c-.1.1 0 .5 0 .8.2-.1.2-.5.3-.8.1.2.1.5.2.8-.2-.1-.2.7-.2 1-.1.4.2.4.2.5-.1 0 0 .6-.2.3 0-.1.1-.3 0-.5-.1.2-.3.2-.2.7.1.4.5-.1.3.6-.1-.2-.2-.2-.2-.4l-.1.7h.2c-.1.1-.1 0-.1.1.2.2.1 1 .3 1.2 0 .3-.2.7-.2 1v-.1c-.1.4 0 .9.1 1.2 0 .2 0 .7.1 1-.2.5-.8.2-.6.8 0 .5.4.9.6.6-.2 1 .2 2.1-.1 3 .1.1.1.1.2.3-.1 1.5.3 3.1-.2 4.2-.1-.4-.2 0-.3 0 .2.3-.2.4.1.5.2 0 .3 0 .4-.4.1.9.1 2.2-.1 2.7.1-.2.2-.1.2.1-.3-.1-.4.6-.3 1.1l.2.1-.2.3c.1.2.4.2.2.7-.1 0-.2.1-.2.1.2.5.4 1.2.3 1.7l-.3.4c0 .2.2.6.3.2-.2.9-.2 1.5-.4 1.8.6 1.6.6 3.9.6 5.7h-.1c-.1.2.3.1.2.2-.1 0-.3.2-.5.1-.1.2.1.3.2.3h.4c.2-.1-.2 0 0-.1.1 0 .1.2.4.1.1.2-.1.3-.2.4h.4c.3.5-1.2.1-1 .7.1 0 .2.1.4.1.2.4-1.1-.1-.2.4.5.1.9-.2.6-.5.8.2.6-.5 1.5-.2.2.2-.7-.2-.6.1.3.4.9.1 1.2.3-.4-.2 0-.4.3-.4.4.3-.4.2.3.4.2-.1.8-.1.3-.3.3-.3.7.3 1.1.1.2.3-.8.4-.1.7-.1-.3 1-.1.7-.6.3.1.3.3 0 .4.4.2 1.1-.2 1.1.3l.2-.2c.1.1.3.2.5.4.4.1 1.3-.1 1.1.3.1 0 1 .2.7-.2-.5-.3-.6.1-.9-.3.3.4.8.1 1.1.1v.2c.2 0 .6.1.7-.1-.2.1-.1.2 0 .2l.2-.2c.8 0 .1.4.8.5l-.6.1c.1 0 .3.2.7.2.2-.2.5-.4.6-.5.4 0 .1.3.6.1l-.6.2c-.1.1.3.4.8.5.4 0 .9-.2.4-.4.3 0 .6.2.4.3.6 0 0-.2.5-.3.2.2.8.5 1.2.7l-.6.3.4.1c-.5.2.2.3-.1.5.2.1.6 0 .8 0-.7-.6.9-.5.8-1 1 0 .5 1.2 1.6.6-.2-.1.4-.4-.3-.4.6.1.5-.4 1.2-.1-.6.1.5.5-.3.7.1-.1-.4-.2-.6-.1.2.2-.1.4.5.5.4 0 .9.1.9-.2 0-.3-.6-.1-.3-.3.8 0 .9.4 1.3 0-.5 0-.6-.3-.6-.5h.6l-.1.2c.9.2.3-.3 1.2-.1l.4.4c-.2.3-1.3-.3-1.2.2.6.1.8-.1 1.3.1h-.4c.2 0 .3.7 1.2.4.4-.1.1-.2.2-.3.9.1 1.2-.1 1.9 0-.2.3 1.1.2.4.4-.3-.2-1.7-.4-2-.1.3.4-.7-.1-1 .2.8.1.7.5.8.8.2 0 .4 0 .6-.1.1-.2-.2-.3-.1-.5.8.2 1.7.1 2.2-.1.3.2.2.4-.2.4 1 0 2.1.2 3 .4-.6-.5 1.1 0 .7-.4-.5-.1-.9-.5-.6-.6.3.1 0 .2.1.3.4-.2.6.4 1 .1-.9 0-.2.5-.4.8.7-.1-.1.2.6.3.7-.1 1.5-.2 2.2-.2.9.4 2.3.2 3.2.3.4.2.1.5.6.6.6 0-.4-.4.4-.2l-.1.1c.3-.1 1.5.4 1.8-.1l-.3.4c.1 0 .3 0 .4-.1 0 .1.2.3-.1.3.5.3 1.1 0 1.6.1l-.3-.3c1-.1 1.6.2 2.5.1v.2l.5-.1c-.1.2.3.4.6.2l-1.4.5c-.4-.2.4-.2.2-.5-.2-.2-1-.2-1.2 0 .3 0 .3 0 .6-.1.1.3-.4.3-.7.5.2 0 .4.1.4 0-.3.1-.7.1-1.2.1.4-.1-.2-.2 0-.3-.1.3-.6.3-1.3.2-.5-.4-1.3.1-2.1-.1.3-.2.8-.4 1.3-.5-.5-.2-.6 0-1-.2-.3.2-.5.5-1.1.5v-.2c-.6.1-.6.3-1.4.2-1.3-.2-2.6-.3-3.6-.5v-.2c-.6.4-1.8 0-2.6.1-1.2-.3-2.7-.1-3.3-.5-2.2-.1-4.1-.2-6.4-.6l.4-.2c-.4.2-.2-.2-.6-.2.4.3-.6.2-.9.4-1-.4-2.3-.3-3.2-.2v-.2c-1 .2-2-.3-3.1-.5-.1-.1-.3-.3-.6-.4-.7.2-1 .1-1.9.2-.7-.1-1.7-.4-2.3-.7-1.3 0-2.5-.3-3.8-.6-.6-.2-1.3-.4-1.9-.6-.3-.1-.7-.2-1-.4-.4-.2-.9-.5-1.3-.8v-.4c-.4-.3-.5-.8-.6-1.3 0-.4-.1-.8-.1-1.2v-2c0-1.3.1-2.6-.1-3.7l.4.2c.1-.7-.1-1.5-.4-1.4.1-.7-.2-1.7.1-2.1.1-.7-.2-.8-.2-1.4.2-1.4.1-1.9 0-3.2v.3c.1.1.3.2.3-.2-.1-.5.1-1.8-.4-1.3.3-1.4-.2-3.2.2-4.6-.1.1-.2-.2-.2-.4 0-1.2.3-2.5 0-3.4.1-.2.2.3.2-.2-.1-.3-.2 0-.2-.4-.2-2 .3-4 .2-5.7-.3-3.2-.1-6.5-.2-9.5h.1c-.4-1 .4-2.4-.2-3.2 0-.1.1-.3.1-.5 0-.3.1-.5.2-.3-.1-.8 0-2 0-3.1.5-.1.8-.3 1.2-.5-.1 0-.1 0-.2.1.1 0 .2-.1.3-.1l.1-.1s.1-.1.1 0c-.1.1 0 .1.1.2.3.1 1 .2 1.9.3-.2 0-.5 0-.5.1.2.1.4.1.6.1l.1-.3v-.1H91.5c.1 0 .3.1.4.1.1 0 .2.1.3.2.1 0 .1.1.1.2.2.1.2-.2.1-.2 2.4 1 5.3 1.2 8.1 1.6 1.9.6 0 .8 1.6.7.1.1.1-.2.1-.1.6 0 .9.7 1.3.5-.1-.3.3-.1.3-.3 1.2.4 1.4.7 2.4.6l-.1.1c1.2-.3 2.5.1 3.5-.2 6.3.7 12.3 1 18.5 1.5 1.5.1 3 .3 4.5.3.7 0 1.5.1 2.2.1h1.3c.5 0 .9.1 1.4.2 1.8.4 3.6 1.2 5 2.5 1.4 1.2 2.5 2.8 3.1 4.6.1.9.1 1.4.2 1.8 0 .5.2 1 .3 1.9-.1-.1-.1-.2-.1-.1.3.2 0 1.2.4 1.3-.1 2.3 0 4.4 0 6.8 0-.4-.3-.6-.3-.1l.2.5-.1.1c0 .3.2.6.3.3.3 5.9-.4 11.8-.3 17.6-.1.7-.1 1.5 0 2.4v1.3c0 .5 0 1-.1 1.4-.6 2.6-2.1 4.8-4.1 6.3-1.9 1.5-4.3 2.4-6.9 2.6 0 0 .2-.2.6-.5.2-.1.5-.3.8-.4.5.6.9.4 1.3.3z"/><path class="st1" d="M133.9 186.8c-.2-.2-.7-.3-.2-.5 0 .1.2.3.2.5zM120.3 183.9l-.2-.1c.2 0 .3-.1.5 0-.3 0-.2.1-.3.1zM116.8 183.5c.1-.1.8-.2 1.3-.1l-1.3.1zM113.6 182.5c-.3-.2-.2-.2.2-.2 0 .1-.1.1-.2.2zM113.3 182.8c-.3 0-.4-.1-.5-.2 0 .1.6 0 .5.2zM106.3 181.5c-.2 0-.6.1-.7-.1.2.1.9-.1.7.1zM103.1 181.2c-.1 0-.1-.1-.3 0-.2-.1 0-.2.2-.2l.1.2zM90 133.9l.1.2-.1-.1zM111.8 137.4c.4 0 .2.2.3.2-.3 0 .1-.2-.3-.2zM126.1 138.1h-.1l.1-.3z"/></g><g><path class="st1" d="M88.6 144.9c-.2 0 0 .3-.1.1 0-.1.1-.2.1-.1zM129.7 150c-.4.8-1.1.2-1.6.7-.1 0 0-.4-.2-.3-.5.6-1.4.4-2 0v-.1c-.1-.1-.3.3-.4.3v-.2c0 .2-.2.1-.3.3-.1-.1-.1-.3-.1-.4l-.1.3c-.2.6-.5 0-.8.3v-.2c-.4.4-1 .4-1.5.5v-.4c0 .3-.2.4-.3.4-.1-.3-.2.3-.4.1v-.1c-.1.3-.2-.2-.3.2l-.1-.2c-.1.4-.2-.2-.3 0v.1c-.1.1-.1-.1-.2 0-.2.1-.3-.1-.3.2-.1-.3.2-.1.1-.5-.7.3-1.4.3-2 .2-.1-.1-.1-.2-.1-.3-.1.1-.3.1-.3.2 0 0 0-.2-.1-.2-.1-.1-.1.3-.3.2.1-.1.1-.2.1-.3-.1.2-.3.2-.4.3 0-.1.1-.1.1-.2-.2.3-.3-.1-.4.1l.1-.2c-.2-.2-.1.4-.3.2v-.2c-.2.3-.4.2-.6.3v-.1c-.2 0-.4-.1-.6 0-.1-.1 0-.4-.1-.4 0 .4-.3.1-.2.6-.2-.1-.4-.2-.5-.1.1-.1 0-.5.1-.5l-.1-.2c0-.2.1.1.1-.1-.1 0-.3.1-.3.1-.1.2-.3.6-.5.7.1-.1 0-.4 0-.5l-.3.7c-.1 0 0-.3-.1-.2 0 .1-.1.2-.1.2s-.3.1-.3-.3c0-.1.1-.1.1-.2-.1 0-.1.1-.3.1-.1-.1-.3.1-.2.3.1 0 0-.2.1-.1-.1.2-.2.3-.4.2 0-.1.1-.2.1-.3-.2.3-.4.3-.6.4 0 .2.1-.3.1-.2-.2-.3-.5.3-.7-.1v.2c-.1 0-.1-.3-.2-.2 0-.1-.1 0-.2.1s0-.1.1-.1c-.1.1-.6.3-.8.1 0 .1-.2.3-.3.3v-.2c0-.1-.2 0-.2-.2-.2.3.5-.2.3 0 0-.2-.3.3-.2 0-.1 0-.3.2-.3 0 0 0 .1-.3 0-.3-.2 0-.1.1-.2.2l-.1.1c0 .2-.1 0-.1.2 0-.2-.3.1-.2-.3l.1-.3c-.1 0-.2.3-.2.4v-.1c-.1.4-.2-.1-.3.3-.1-.2-.4-.1-.4-.3-.1.1-.3.3-.4.2 0 0 .1 0 .1-.1-.1-.1-.1 0-.2 0 0-.1-.1-.3-.2-.4-.1.1-.1.4-.2.5 0-.5-.4.2-.4-.2 0-.1.2-.2.1-.3 0-.4-.3.3-.4.1v.4c0-.2-.3.2-.2-.2-.1.1-.2-.1-.2.2-.2-.3-.7.1-.8-.6 0 .1-.1 0-.1.2s.1-.1.1 0l-.1.1c-.1-.1-.1-.1 0-.4-.2-.2-.3.6-.5.4 0-.1 0-.2-.1-.2l-.2.2c-.1-.1 0-.3 0-.6-.1 0-.2 0-.3.2l-.1-.3c0 .2-.1.1-.1.2v-.1c0-.1-.1-.1-.2 0 0 .2.1.2.1.3l-.2.2c.1-.2-.1-.2-.2-.2-.1-.1-.1.2-.1.2 0-.1-.1 0 0-.2 0 0 0 .1.1 0 0-.1 0-.3-.1-.2-.1.1-.1.5-.2.3 0-.1.1-.1.1-.2l-.1-.1v.1c-.1.2-.2 0-.3.3-.1 0-.1-.2-.2-.2-.1-.1-.2-.1-.3.1 0 0-.2 0-.2.1-.1-.2.1-.8-.1-.6-.1 0-.3.4-.2.5-.2-.2-.5.1-.6-.2 0 .1 0 .1-.1.2-.3-.1-.7.1-.9-.3.1-.1 0-.2.1-.3-.1.2 0-.2-.1.1 0 .2-.1.3 0 .4-.2.1-.5 0-.5-.2 0 .1 0 .2-.1.2.1-.3 0-.4-.2-.3l-.1.2v-.2c-.1.1-.1.4-.2.2v-.2c-.1.1-.3.4-.4.2v-.3c-.1 0-.2.2-.1.3-.2-.2-.3-.3-.3-.5-.5.5-1 .4-1.3.3v-.1c-.1-.2-.1.2-.2.1.1-.1 0-.3.1-.5-.1-.2-.2.2-.4.2-.1.2.1-.1 0 .1 0 .1-.2-.2-.3.1 0-.1.1-.3.1-.4l-.1.1c0-.4.4-.5.4-1h-.1c0-.3.3-.3.1-.4-.1.1-.3.5-.2.7-.2 0-.2.7-.4.6 0-.2.2 0 .2-.2s-.2.1-.3 0c.1.1-.1.4-.2.4-.1-.2.1-.3 0-.3-.1.2-.2.2-.1.4-.1.4-.1-.1-.3.1 0-.3.3-.6.2-.7 0 .3-.3.3-.3.7 0-.1 0-.3.1-.4-.1-.2-.3.4-.2-.1l-.1.2v-.3c-.1 0-.3.3-.2-.1 0 0-.2 0-.2.3.1.2.2-.2.2.2 0-.3-.2 0-.3.1v-.2c-.1 0-.1 0-.2.1.1-.1.1-.2 0-.2l-.1.2c-.2.1.1-.4-.1-.4l.2-.1s0-.2-.1-.1l-.3.6c-.1.1 0-.2-.1-.1l.2-.2c0-.1 0-.4-.1-.4-.1.1-.3.3-.2.5-.1 0-.1-.2 0-.3-.2 0 0 .2-.2.3 0-.2-.1-.4-.1-.6l.2-.3h-.1c.2-.2 0-.2.1-.5 0-.1-.1 0-.2.1 0 .5-.3.6-.4 1-.2.1.2-1.1-.3-.5 0 .1-.2.4 0 .3-.1-.1-.2.4-.3.2.2-.1 0-.5.2-.7-.1.1.1.1.1.1 0-.2.1-.4 0-.5-.1 0-.2 0-.3.2-.1.2.1 0 0 .2-.2 0-.1-.3-.3.1.1 0 .1.3 0 .4l-.2.1.1-.2c-.2-.2-.1.3-.3.2v-.3c.1-.3.2.2.3-.3-.1-.1-.2.2-.3 0 0 0 .1 0 .1-.1 0 0 .1-.6-.2-.3-.1.1-.1.2-.1.3-.2 0-.3.1-.5.1.1-.3-.2-.1 0-.4 0 .2.3.3.5 0 0-.4.1.1.3-.3-.2-.1 0-.4 0-.7l-.1.1c-.1.2 0 .2-.1.5-.2-.1-.4 0-.5.2 0-.1.1-.4.1-.4-.2 0-.4-.1-.6-.2 0 .4-.2 0-.3.4.1.1.1.4 0 .6-.1 0 .1-.2.1-.3-.2.2 0-.4-.2-.1.2-.1.2-.5.3-.7-.2.1.1-.2-.1-.3-.2.1-.4.2-.6.2-.1-.3-.5-.2-.7-.2 0-.2.1-.5.1-.6-.1 0 0 .4-.2.2v-.1c-.1.1-.2-.3-.4.1l.2-.3s-.1 0-.1.1c0-.1 0-.2.1-.3 0-.3-.2 0-.3-.1v.2c-.3.1-.3-.2-.5-.2l.1-.2-.2.1c.1-.2.1-.4-.1-.2l.5-.4c0 .2-.2.2-.2.4s.2.2.3 0c-.1 0-.1 0-.2.1.1-.3.2-.2.3-.4 0 0-.1-.1-.1 0 .1-.1.2-.1.3-.1-.1.1 0 .2-.1.3.1-.3.2-.3.3-.2 0 .3.3-.1.4 0-.2.2-.3.4-.4.5.1.2.1 0 .2.2.1-.2.3-.5.4-.5l-.1.2c.2-.1.2-.3.4-.2.2.2.5.3.7.3l-.1.2c.2-.4.4 0 .6-.2.2.3.6 0 .6.4.5 0 .9-.1 1.4.1l-.2.3c.1-.2 0 .2.1.2 0-.3.2-.3.3-.4.1.3.5.1.7 0v.2c.3-.3.4.1.6.2 0 .1 0 .3.1.3.2-.3.3-.2.5-.4.1 0 .3.2.4.3.6-.3 1.1.1 1.6-.1v.2c.6-.4 1.1.2 1.6 0l-.1.4c.1.2.3 0 .4-.3.1.2.4-.1.4.2.1.1.2-.2.3-.2.3.2.4.2.6.2h-.1c0 .1-.1.3 0 .3.1-.1.3.2.3-.3.2.3.7-.1.9.3 0-.1.1-.1.1-.2.2 0 .5.4.7.2 0 .1-.1.2 0 .2s0-.2.1-.2c.4-.2.8.4 1.2.4.7-.1 1.4.1 2 .1v.1c.3-.3.4.4.7-.1 0 .1.2.1.1.3.2-.2.4.3.7 0h-.1c.2.2.5 0 .7.2 0 0-.1.1-.1.2.1.2.3-.4.3.1.1 0 .1-.2 0-.2.5.2 1.2 0 1.8 0 .4.3-.1.8.3.5v-.1c.1-.1.1.5.3.3 0-.3.1-.2.1-.3.2.2.3.5.5.3v.1c.3-.4.5-.2.8-.6 1.3 0 2.6-.1 3.9-.1 1.3.2 2.5 0 3.8.3.3.4.3.4.7.2v.1c0-.3.2 0 .3-.3.5.1.9 0 1.4 0-.1 0-.1.3 0 .3l.1-.2v.1c.1 0 .1-.2.1-.3 1.2-.3 2.4.3 3.6.1.3.1.7 0 1-.1.9.3 1.8.5 2.7.1.1-.6.2.3-.2.5zM88.8 145c0 .2 0 .3-.1.5 0-.2 0-.4.1-.5z"/><path class="st1" d="M91 147.5v.1s-.1.1-.1 0c0 .1 0 0 .1-.1zM91.7 147.9c-.1.1-.2.2-.3.2l.3-.2zM92.2 148.7c0 .1 0 .2-.1.2 0-.2 0-.2.1-.2zM92.3 148.3c.1 0 .1.1.1.2 0-.1-.2.1-.1-.2zM93.7 149.2s.1-.1.1.1c0-.2-.2.1-.1-.1zM94.4 149.2c.1 0 .1 0 0 0 .1.1 0 .2 0 .2v-.2zM107.3 151.1h-.1v-.1zM112.9 151.7c.1-.1 0 .1.1.2-.1 0 0-.2-.1-.2zM116 151.2v-.3z"/></g><g><path class="st1" d="M88.6 163.4c-.2 0 0 .3-.1.1 0-.1.1-.2.1-.1zM129.7 168.5c-.4.8-1.1.2-1.6.7-.1 0 0-.4-.2-.3-.5.6-1.4.4-2 0v-.1c-.1-.1-.3.3-.4.3v-.2c0 .2-.2.1-.3.3-.1-.1-.1-.3-.1-.4l-.1.3c-.2.6-.5 0-.8.3v-.2c-.4.4-1 .4-1.5.5v-.4c0 .3-.2.4-.3.4-.1-.3-.2.3-.4.1v-.1c-.1.3-.2-.2-.3.2l-.1-.2c-.1.4-.2-.2-.3 0v.1c-.1.1-.1-.1-.2 0-.2.1-.3-.1-.3.2-.1-.3.2-.1.1-.5-.7.3-1.4.3-2 .2-.1-.1-.1-.2-.1-.3-.1.1-.3.1-.3.2 0 0 0-.2-.1-.2-.1-.1-.1.3-.3.2.1-.1.1-.2.1-.3-.1.2-.3.2-.4.3 0-.1.1-.1.1-.2-.2.3-.3-.1-.4.1l.1-.2c-.2-.2-.1.4-.3.2v-.2c-.2.3-.4.2-.6.3v-.1c-.2 0-.4-.1-.6 0-.1-.1 0-.4-.1-.4 0 .4-.3.1-.2.6-.2-.1-.4-.2-.5-.1.1-.1 0-.5.1-.5l-.1-.2c0-.2.1.1.1-.1-.1 0-.3.1-.3.1-.1.2-.3.6-.5.7.1-.1 0-.4 0-.5l-.3.7c-.1 0 0-.3-.1-.2 0 .1-.1.2-.1.2s-.3.1-.3-.3c0-.1.1-.1.1-.2-.1 0-.1.1-.3.1-.1-.1-.3.1-.2.3.1 0 0-.2.1-.1-.1.2-.2.3-.4.2 0-.1.1-.2.1-.3-.2.3-.4.3-.6.4 0 .2.1-.3.1-.2-.2-.3-.5.3-.7-.1v.2c-.1 0-.1-.3-.2-.2 0-.1-.1 0-.2.1s0-.1.1-.1c-.1.1-.6.3-.8.1 0 .1-.2.3-.3.3v-.2c0-.1-.2 0-.2-.2-.2.3.5-.2.3 0 0-.2-.3.3-.2 0-.1 0-.3.2-.3 0 0 0 .1-.3 0-.3-.2 0-.1.1-.2.2l-.1.1c0 .2-.1 0-.1.2 0-.2-.3.1-.2-.3l.1-.3c-.1 0-.2.3-.2.4v-.1c-.1.4-.2-.1-.3.3-.1-.2-.4-.1-.4-.3-.1.1-.3.3-.4.2 0 0 .1 0 .1-.1-.1-.1-.1 0-.2 0 0-.1-.1-.3-.2-.4-.1.1-.1.4-.2.5 0-.5-.4.2-.4-.2 0-.1.2-.2.1-.3 0-.4-.3.3-.4.1v.4c0-.2-.3.2-.2-.2-.1.1-.2-.1-.2.2-.2-.3-.7.1-.8-.6 0 .1-.1 0-.1.2s.1-.1.1 0l-.1.1c-.1-.1-.1-.1 0-.4-.2-.2-.3.6-.5.4 0-.1 0-.2-.1-.2l-.2.2c-.1-.1 0-.3 0-.6-.1 0-.2 0-.3.2l-.1-.3c0 .2-.1.1-.1.2v-.1c0-.1-.1-.1-.2 0 0 .2.1.2.1.3l-.2.2c.1-.2-.1-.2-.2-.2-.1-.1-.1.2-.1.2 0-.1-.1 0 0-.2 0 0 0 .1.1 0 0-.1 0-.3-.1-.2-.1.1-.1.5-.2.3 0-.1.1-.1.1-.2l-.1-.1v.1c-.1.2-.2 0-.3.3-.1 0-.1-.2-.2-.2-.1-.1-.2-.1-.3.1 0 0-.2 0-.2.1-.1-.2.1-.8-.1-.6-.1 0-.3.4-.2.5-.2-.2-.5.1-.6-.2 0 .1 0 .1-.1.2-.3-.1-.7.1-.9-.3.1-.1 0-.2.1-.3-.1.2 0-.2-.1.1 0 .2-.1.3 0 .4-.2.1-.5 0-.5-.2 0 .1 0 .2-.1.2.1-.3 0-.4-.2-.3l-.1.2v-.2c-.1.1-.1.4-.2.2v-.2c-.1.1-.3.4-.4.2v-.3c-.1 0-.2.2-.1.3-.2-.2-.3-.3-.3-.5-.5.5-1 .4-1.3.3v-.1c-.1-.2-.1.2-.2.1.1-.1 0-.3.1-.5-.1-.2-.2.2-.4.2-.1.2.1-.1 0 .1 0 .1-.2-.2-.3.1 0-.1.1-.3.1-.4l-.1.1c0-.4.4-.5.4-1h-.1c0-.3.3-.3.1-.4-.1.1-.3.5-.2.7-.2 0-.2.7-.4.6 0-.2.2 0 .2-.2s-.2.1-.3 0c.1.1-.1.4-.2.4-.1-.2.1-.3 0-.3-.1.2-.2.2-.1.4-.1.4-.1-.1-.3.1 0-.3.3-.6.2-.7 0 .3-.3.3-.3.7 0-.1 0-.3.1-.4-.1-.2-.3.4-.2-.1l-.1.2v-.3c-.1 0-.3.3-.2-.1 0 0-.2 0-.2.3.1.2.2-.2.2.2 0-.3-.2 0-.3.1v-.2c-.1 0-.1 0-.2.1.1-.1.1-.2 0-.2l-.1.2c-.2.1.1-.4-.1-.4l.2-.1s0-.2-.1-.1l-.3.6c-.1.1 0-.2-.1-.1l.2-.2c0-.1 0-.4-.1-.4-.1.1-.3.3-.2.5-.1 0-.1-.2 0-.3-.2 0 0 .2-.2.3 0-.2-.1-.4-.1-.6l.2-.3h-.1c.2-.2 0-.2.1-.5 0-.1-.1 0-.2.1 0 .5-.3.6-.4 1-.2.1.2-1.1-.3-.5 0 .1-.2.4 0 .3-.1-.1-.2.4-.3.2.2-.1 0-.5.2-.7-.1.1.1.1.1.1 0-.2.1-.4 0-.5-.1 0-.2 0-.3.2-.1.2.1 0 0 .2-.2 0-.1-.3-.3.1.1 0 .1.3 0 .4l-.2.1.1-.2c-.2-.2-.1.3-.3.2v-.3c.1-.3.2.2.3-.3-.1-.1-.2.2-.3 0 0 0 .1 0 .1-.1 0 0 .1-.6-.2-.3-.1.1-.1.2-.1.3-.2 0-.3.1-.5.1.1-.3-.2-.1 0-.4 0 .2.3.3.5 0 0-.4.1.1.3-.3-.2-.1 0-.4 0-.7l-.1.1c-.1.2 0 .2-.1.5-.2-.1-.4 0-.5.2 0-.1.1-.4.1-.4-.2 0-.4-.1-.6-.2 0 .4-.2 0-.3.4.1.1.1.4 0 .6-.1 0 .1-.2.1-.3-.2.2 0-.4-.2-.1.2-.1.2-.5.3-.7-.2.1.1-.2-.1-.3-.2.1-.4.2-.6.2-.1-.3-.5-.2-.7-.2 0-.2.1-.5.1-.6-.1 0 0 .4-.2.2v-.1c-.1.1-.2-.3-.4.1l.2-.3s-.1 0-.1.1c0-.1 0-.2.1-.3 0-.3-.2 0-.3-.1v.2c-.3.1-.3-.2-.5-.2l.1-.2-.2.1c.1-.2.1-.4-.1-.2l.5-.4c0 .2-.2.2-.2.4s.2.2.3 0c-.1 0-.1 0-.2.1.1-.3.2-.2.3-.4 0 0-.1-.1-.1 0 .1-.1.2-.1.3-.1-.1.1 0 .2-.1.3.1-.3.2-.3.3-.2 0 .3.3-.1.4 0-.2.2-.3.4-.4.5.1.2.1 0 .2.2.1-.2.3-.5.4-.5l-.1.2c.2-.1.2-.3.4-.2.2.2.5.3.7.3l-.1.2c.2-.4.4 0 .6-.2.2.3.6 0 .6.4.5 0 .9-.1 1.4.1l-.2.3c.1-.2 0 .2.1.2 0-.3.2-.3.3-.4.1.3.5.1.7 0v.2c.3-.3.4.1.6.2 0 .1 0 .3.1.3.2-.3.3-.2.5-.4.1 0 .3.2.4.3.6-.3 1.1.1 1.6-.1v.2c.6-.4 1.1.2 1.6 0l-.1.4c.1.2.3 0 .4-.3.1.2.4-.1.4.2.1.1.2-.2.3-.2.3.2.4.2.6.2h-.1c0 .1-.1.3 0 .3.1-.1.3.2.3-.3.2.3.7-.1.9.3 0-.1.1-.1.1-.2.2 0 .5.4.7.2 0 .1-.1.2 0 .2s0-.2.1-.2c.4-.2.8.4 1.2.4.7-.1 1.4.1 2 .1v.1c.3-.3.4.4.7-.1 0 .1.2.1.1.3.2-.2.4.3.7 0h-.1c.2.2.5 0 .7.2 0 0-.1.1-.1.2.1.2.3-.4.3.1.1 0 .1-.2 0-.2.5.2 1.2 0 1.8 0 .4.3-.1.8.3.5v-.1c.1-.1.1.5.3.3 0-.3.1-.2.1-.3.2.2.3.5.5.3v.1c.3-.4.5-.2.8-.6 1.3 0 2.6-.1 3.9-.1 1.3.2 2.5 0 3.8.3.3.4.3.4.7.2v.1c0-.3.2 0 .3-.3.5.1.9 0 1.4 0-.1 0-.1.3 0 .3l.1-.2v.1c.1 0 .1-.2.1-.3 1.2-.3 2.4.3 3.6.1.3.1.7 0 1-.1.9.3 1.8.5 2.7.1.1-.6.2.3-.2.5zM88.8 163.5c0 .2 0 .3-.1.5 0-.2 0-.4.1-.5z"/><path class="st1" d="M91 166v.1s-.1.1-.1 0c0 .1 0 0 .1-.1zM91.7 166.4c-.1.1-.2.2-.3.2l.3-.2zM92.2 167.2c0 .1 0 .2-.1.2 0-.1 0-.2.1-.2zM92.3 166.9c.1 0 .1.1.1.2 0-.2-.2 0-.1-.2zM93.7 167.7s.1-.1.1.1c0-.2-.2.1-.1-.1zM94.4 167.7c.1 0 .1 0 0 0 .1.1 0 .2 0 .2v-.2zM107.3 169.6h-.1v-.1zM112.9 170.2c.1-.1 0 .1.1.2-.1 0 0-.2-.1-.2zM116 169.7v-.3z"/></g><g><path class="st1" d="M219 310.7c.6.2-.2-.4.4.1-.1 0-.3 0-.4-.1zM277.4 210.5c-.4-.3-.9-.6-1.3-1s-.8-.8-1.2-1.3c-.4-.4-.9-.8-1.3-1.2-.2-.2-.4-.4-.7-.5-.2-.1-.5-.3-.8-.4-.2-.1.3-.3-.2-.6-1-.4-2.2-1-3.5-1.7-.6-.3-1.3-.6-1.9-1-.6-.3-1.3-.6-1.9-.9l.2-.1c-.2-.1-.5-.1-.8-.1h-.8c0-.1.2-.1.1-.2-.2.2-1-.1-1.2.1-.2-.1-.1-.3-.4-.5-.1.1-.2.1-.3.2-.9.6-2-.3-3.2 0 .1-.1.2-.1.1-.2-1.8.3-4.1.3-6.1.7.1-.1.1-.3 0-.4-.1.3-.7.4-1.2.6-.3-.3-.9.4-1.5.4v-.1c-.4.4-.7 0-1 .4l-.3-.2c-.1.4-.7 0-1 .3v.1c-.3.2-.6 0-.9.2-.7.3-1.2.2-1.1.5-.3-.2.7-.3.2-.6-2.4 1.1-4.9 2-7.3 3.2-.3 0-.5.1-.6 0-.2.2-.9.5-1 .7.1 0-.2-.1-.4 0-.5.1-.3.6-.8.7.1-.2.2-.3 0-.4-.3.4-.8.7-1.2 1 0-.1.1-.2.1-.3-.4.5-.9.5-1.3.9l.1-.3c-.8.2 0 .5-.7.7.1-.1 0-.2 0-.2-.4.6-1.3 1.1-1.8 1.6v-.1c-.6.4-1.2.8-1.8 1.4-.3.1-.2-.4-.8.1.2.3-.9.9-.3 1-.5.4-1.4.9-1.7 1.3.1-.3-.5-.1-.1-.5l-.5.1c-.1-.2.3-.2.1-.3-.2.2-.7.8-.9.9-.2.5-.3 1.1-.9 1.7.2-.4-.4-.2-.3-.4-.1.4-.2.9-.3 1.3-.2.2-.2-.2-.5.2.1.1 0 .2 0 .4-.1 0-.7.8-1.1.7-.2 0 .3-.4 0-.2-.4.4-.3.4-.6.8-.3.2-.5.8-.2.7.2-.2-.2-.1.1-.3 0 .3-.3.8-.7 1.1.1-.2 0-.2 0-.3-.2.7-.7 1.2-1 1.9.1.1-.1-.4.1-.4-.8.6-1 1.7-1.8 2.1.1-.1.2.1.2.1-.3.3-.5.2-.6.5-.1-.1-.2.3-.3.6 0 .2-.1 0 0-.2-.1.4-1 1.9-1.7 2.6.1 0 0 .7-.2.9l-.1-.2c-.2.1-.4.6-.6.6 0 .6.8-1.7.6-1-.3 0-.2 1-.4.7-.2.4-.3.9-.7 1.1.1-.1-.1-.5-.3-.2-.3.6 0 .2-.2.7l-.1.3c.2.1-.3.5 0 .4-.2 0-.4.9-.7.6l-.2-.2c-.1.3 0 .6 0 .8 0 0-.1.1-.2 0 .4.3-.4.6-.2 1-.4.4-.7 1.3-1.1 1.4-.1.5-.1.9-.4 1.3 0-.1.1-.2 0-.3-.3.2-.2.4-.3.6 0-.1-.5.5-.8.7-.1.5.2.4.3.5-.6.2-.2 1.3-.8 1.6 0-.2.1-.7-.2-.4-.6.2 0 .9-.4 1.4h.4c-.3.2-.1 1-.4.8.1.3-.4.7 0 .7-.3.5-.5 1.1-.7 1.7-.2.6-.3 1.1-.7 1.3 0 .2-.1.5 0 .5.3-.2 0-.4.1-.4 0 .1.1.2.1.2-.2.3-.3.5-.5.2-.4.7.4.9 0 1.8-.1-.1-.2 0-.2.3l.1.6c-.2.6-.4.3-.6.2 0 .3-.1.7 0 .9l-.4.3c.3-.2.1.3.1.5v-.2c-.1 0-.1.4-.1.6.2 0 .3-.4.4-.6.1.2 0 .4.1.7-.2-.1-.3.5-.4.7-.1.3.1.4.1.5-.1 0-.1.5-.2.2 0-.1.2-.2.1-.4-.1.2-.3.1-.3.5.1.3.5 0 .2.6 0-.2-.1-.2-.2-.3l-.2.5.2.1c-.1.1-.1 0-.1 0 .2.2-.1.8.1 1 0 .3-.3.5-.4.8v-.1c-.2.3-.2.7-.1 1-.1.2-.1.6 0 .8-.2.4-.8 0-.6.5-.1.5.3.8.5.6-.3.8 0 1.8-.5 2.5.1.1.1.1.2.3-.2 1.2-.1 2.5-.6 3.4 0-.4-.2 0-.3-.1.2.3-.3.3.1.5.2 0 .3 0 .4-.3 0 .7 0 1.8-.2 2.2.1-.2.2 0 .2.1-.3-.1-.4.4-.3.9l.2.1-.2.2c.1.2.4.2.2.6-.1 0-.2 0-.2.1.1.4.4 1 .2 1.4l-.3.4c0 .2.2.5.3.2-.2.8-.3 1.2-.5 1.5.6 1.3.7 3.2.7 4.7h-.1c-.1.4.3.2.2.5-.1-.1-.3.3-.5 0-.1.6.3.7.4 1.1.2 0-.1-.3.1-.2.1.1-.1.8.2.9-.1.2-.3.1-.4 0l.2.3c-.1.2-.3 0-.5-.2s-.4-.5-.6-.2c0 .1 0 .2.1.3-.3.3-.4-.9-.5 0 .2.4.7.6.7.3.2.7.7.3.8 1.1-.1.2-.1-.6-.3-.5-.2.4.2.7.2 1.1.1-.4.4-.1.5.1-.1.4-.3-.2-.3.3.2.1.4.6.4.1.4.2 0 .6.3.9-.2.2-.7-.5-.7.1.2-.1.4.7.8.3 0 .3-.2.3-.4.2-.1.4.6.8.1 1l.3.1c-.1.1-.1.3-.2.5.1.3.6.9.2 1 .1.1.2.8.4.5.1-.5-.3-.5 0-.8-.2.4.2.6.3.8l-.1.1c.1.1.1.5.3.5-.1-.1-.2 0-.2.1l.3.1c.3.6-.4.2-.2.8l-.3-.4c.1.1-.1.3 0 .6.2.1.5.2.7.2.2.3-.2.2.1.5l-.3-.4c-.1 0-.3.4-.2.8.1.3.5.6.5.1 0 .2 0 .6-.2.4.2.5.2-.1.5.2-.1.2-.1.8-.2 1.2l-.5-.3.1.3c-.4-.3-.1.3-.5.1 0 .2.2.4.4.6.3-.7.9.4 1.2.1.4.7-.8.9.1 1.4.1-.2.5.1.2-.4.1.5.5.2.6.8-.3-.4-.3.6-.7.1.2 0 0-.4-.1-.5-.1.3-.4.1-.2.6.1.3.4.7.5.5.2-.1-.2-.4.1-.3.4.5.1.8.6.9-.2-.4 0-.5.2-.6l.3.4h-.2c.2.7.4.1.6.7l-.2.5c-.3 0-.3-1-.7-.7.2.4.5.5.6.9-.1-.1-.1-.2-.2-.3.1.2-.4.6.2 1 .3.3.2 0 .3-.1.2.3.3.5.5.7.2.2.3.3.4.5-.3.1.4.8-.2.5 0-.2-.1-.5-.3-.7-.2-.3-.4-.6-.6-.6-.2.4-.2-.6-.6-.5.3.6-.1.7-.3.9.1.2.2.3.3.3.2 0 .1-.3.4-.4.2.7.8 1.1 1.1 1.4 0 .3-.2.3-.4.1.5.7.9 1.4 1.3 2.2 0-.6.6.7.7.2-.2-.4-.1-.8.1-.8.1.2-.1.1-.2.2.4.1 0 .6.5.7-.6-.5-.5.2-.8.2.5.3-.2.1.1.5.5.3 1 .8 1.4 1.2.2.8 1.3 1.4 1.7 1.9.1.4-.3.4-.1.8.3.3 0-.5.4.1h-.1c.2.1.8 1 1.2.8l-.4.1c.1.1.2.1.3.2-.1.1 0 .3-.3.2.1.5.7.6 1.1.8l-.1-.4c.7.3 1 .8 1.7 1.2l-.1.2.4.1c-.2.1.1.5.4.4l-1.3-.2c-.2-.3.4 0 .4-.3 0-.2-.6-.6-.8-.5.2.2.2.2.5.2-.1.3-.4 0-.7.1.1.1.2.3.3.2-.3 0-.6-.2-.9-.5.3.1 0-.3.1-.3-.2.2-.6 0-1-.5-.1-.5-.9-.6-1.4-1.1.4 0 .8.1 1.2.2-.2-.4-.3-.3-.6-.7-.3 0-.6.1-1.1-.2l.1-.2c-.4-.3-.6-.1-1-.6-.7-.8-1.4-1.8-1.8-2.4l.1-.1c-.6-.1-1.1-1.1-1.6-1.5-.4-1-1.4-1.9-1.4-2.5-.6-.8-.9-1.5-1.4-2.3-.4-.8-.9-1.6-1.2-2.5l.4.2c-.3-.2.1-.3-.1-.6-.1.5-.4-.3-.7-.5-.1-.9-.7-1.9-1.1-2.5l.2-.1c-.7-.6-.5-1.6-.7-2.6.1-.1.2-.3.1-.6-.4-.4-.5-.7-.9-1.4-.1-.5-.3-1.4-.2-2-.4-1-.5-2.1-.7-3.1-.1-1.1-.4-2.1-.5-3.2l.2-.2c-.3-1-.3-2.2-.4-3.4 0-1.1-.1-2.3-.1-3.2l.4.2c.2-.6 0-1.3-.3-1.2.2-.6-.1-1.4.2-1.8.1-.6-.2-.7-.2-1.2.2-1.2.2-1.6.2-2.7v.3c.1.1.3.2.3-.1-.1-.4.3-1.5-.3-1.1.4-1.1.1-2.7.7-3.8-.1.1-.1-.2-.2-.3.1-1 .5-2 .4-2.9.1-.2.2.3.3-.1 0-.3-.2 0-.2-.3.1-1.7.9-3.2 1.2-4.7.2-1.3.4-2.7.7-4l.2-1c.1-.3.2-.7.3-1 .2-.7.4-1.3.5-1.9l.1.1c-.1-1 1-1.8.7-2.7.2-.2.3-.7.4-.5 0-.4.2-.8.4-1.3.3-.5.5-1 .6-1.5v.3c.6-.8.6-1.8 1.3-2.7 0 .1-.1.3 0 .4.4-.3.1-1.1.6-1 .1-.2-.1-.3-.2-.1.6-1 1.1-2.1 1.7-3.2.3-.5.5-1.1.8-1.7.3-.5.6-1.1.9-1.6 1.2-1.3.7.3 1.2-1 .1 0-.1-.2 0-.1.2-.5.9-.4.9-.8-.3 0 0-.3-.1-.4.8-.7 1.1-.8 1.4-1.6l.1.1c.2-1.1 1.2-1.8 1.3-2.7 3.4-4.2 7.1-8 11.4-11.2 4.3-3 8.8-5.8 14-7.4 1.3 0 1.4-.1 2.7-.7 0 .1-.1.1 0 .1 0-.3.9-.3 1-.6 1-.2 1.9-.5 2.9-.7.9-.2 1.9-.4 2.9-.6-.3.1-.4.4-.1.3l.4-.3.1.1c.3-.1.5-.3.2-.4 1.3-.3 2.6-.3 3.9-.4 1.3.1 2.6.1 3.9.3 2.6.3 5.1 1.1 7.6 2 .5.3 1.2.6 2 .9.7.3 1.4.7 2 1 3.2 2.5 5.5 5.2 7.9 8.4.1.7-1 .7-2-.4zM218.3 310.3c0-.2-.4-.5 0-.5 0 .1.1.4 0 .5z"/><path class="st1" d="M211.1 301.3v-.2c.1.1.3.1.3.3-.1-.2-.2-.1-.3-.1zM209.6 298.8c.1 0 .6.4.8.7l-.8-.7zM208.9 296.2c0-.3.1-.2.2 0-.1.1-.2.1-.2 0zM208.5 296.2c-.1-.2-.1-.3 0-.5-.2.1.2.5 0 .5zM206.7 290.8c-.1-.1-.3-.4-.2-.5-.1.1.4.5.2.5zM205.6 288.3c0-.1 0-.1-.1-.2 0-.2.2 0 .2.1l-.1.1zM208.7 239.4v.3l-.1-.1s0-.1.1-.2zM220.1 221c.1-.3.2-.1.3-.1-.2.3-.1-.1-.3.1zM228.2 212.5v.1l-.2-.3z"/></g><g><path class="st1" d="M88.1 207c-.3.3.4 0-.2.3 0-.2.1-.3.2-.3zM119.7 300.2c.2-.3.4-.6.7-.9.3-.2.6-.5.9-.7.6-.5 1.2-1.1 1.5-1.8.1-.2.3.3.4-.1.4-1.5 1.7-3.2 2.6-4.7l.1.1c.2-.3-.1-.8.1-1.1.1 0 .1.1.2.1-.2-.1.1-.6-.1-.8.1-.1.3-.1.4-.2l-.2-.3c-.5-.7.3-1.3.1-2.1.1 0 .1.1.2.1-.2-1.2 0-2.7-.1-4.1.1.1.3.1.4 0-.3-.1-.3-.5-.4-.8.3-.2-.3-.6-.1-1h.1c-.3-.3.2-.5-.2-.7l.2-.2c-.4-.1.2-.5 0-.7h-.1c-.1-.2.1-.4 0-.6-.1-.5.1-.8-.3-.8.2-.2.1.5.5.2-.4-1.7-.5-3.5-.7-5.2.1-.2.1-.3.3-.4-.1-.2-.1-.6-.3-.8 0 .1.1-.1.2-.2.1-.3-.4-.3-.3-.7.1.1.2.2.3.1-.3-.3-.3-.7-.4-1 .1 0 .1.1.2.1-.3-.3 0-.7-.3-1l.2.1c.2-.6-.4-.1-.3-.6.1.1.1.1.2.1-.4-.4-.4-1.1-.6-1.5h.1c-.1-.5-.1-1-.3-1.5.1-.2.5 0 .3-.5-.4.1-.3-.8-.7-.5 0-.4 0-1.1-.2-1.4.2.2.4-.3.5.1l.2-.3c.2 0 0 .3.2.2 0-.2-.3-.7-.3-.8-.3-.3-.8-.5-.9-1 .2.2.4-.2.5-.1l-.8-.6c-.1-.2.3-.1.1-.3-.1 0-.2-.1-.3-.1 0-.1-.3-.7.1-.9.1-.1.1.3.2 0-.1-.3-.2-.3-.3-.6 0-.2-.3-.6-.4-.3 0 .1.2-.1.1.1-.2-.1-.4-.5-.5-.8.1.1.2.1.3.1-.4-.4-.6-.8-.8-1.2-.2 0 .3.1.3.2.1-.7-.7-1.2-.4-1.8.1.1-.2.1-.2.1-.1-.3.2-.4 0-.5.1-.1-.1-.2-.2-.4-.1-.1.1-.1.1.1-.2-.2-.7-1.3-.7-2-.1 0-.5-.3-.5-.4h.2c.1-.2-.2-.5 0-.6-.4-.2.6 1.1.3.8.2-.2-.5-.5-.2-.5-.1-.3-.4-.5-.3-.8 0 .1.4.1.3-.1-.2-.4-.1-.1-.3-.4l-.2-.2c-.2.1-.1-.4-.3-.2.2-.1-.3-.6.1-.6h.3c-.1-.2-.4-.2-.5-.3l.1-.1c-.4.1-.1-.4-.5-.5 0-.4-.3-.9-.1-1.2-.2-.2-.5-.4-.5-.8.1.1.1.1.2.1.1-.2-.1-.3-.2-.4.1 0 .1-.5.2-.8-.2-.2-.4-.1-.6 0 .3-.4-.5-.7-.3-1.1.1.1.4.3.4.1.3-.4-.5-.4-.5-.9l-.3.2c.1-.3-.4-.5-.1-.6-.2-.1-.1-.5-.4-.4 0-.8-.8-1.6-.4-2.2-.1-.1-.1-.3-.3-.2-.1.2.2.2.1.3 0-.1-.1-.1-.2-.1 0-.2-.1-.4.3-.3 0-.5-.8-.2-.9-.9.1 0 .2-.1.1-.3l-.4-.2c-.1-.4.2-.3.4-.5-.1-.2-.2-.4-.4-.5l.2-.4c-.1.3-.2-.1-.3-.2l.1.1c.1-.1-.1-.3-.2-.4-.1.1-.1.4-.1.5-.1-.1-.2-.2-.4-.3.2-.1 0-.4 0-.6 0-.2-.3-.1-.3-.2.1-.1-.1-.3.1-.2.1 0 0 .2.1.2 0-.2.2-.2 0-.4-.2-.1-.4.2-.4-.2.1.1.2 0 .3.1v-.4l-.2.1c0-.1.1 0 .1-.1-.3 0-.3-.5-.6-.4-.1-.2 0-.4-.1-.6 0-.3-.2-.5-.4-.6 0-.1-.2-.3-.4-.4 0-.3.7-.5.3-.6-.1-.3-.6-.2-.7-.1-.1-.6-.7-.9-.6-1.5-.1 0-.1 0-.3-.1-.3-.8-1-1.3-1-2.1.2.2.2-.1.3-.2-.3-.1.1-.3-.3-.2-.2.1-.3.1-.2.4-.3-.4-.7-1-.6-1.3 0 .2-.1.1-.2 0 .3-.1.2-.5-.1-.6l-.2.1.1-.3c-.1-.1-.4.1-.4-.2.1-.1.1-.1.1-.2-.3-.2-.7-.3-.7-.7l.1-.4c-.1-.1-.4-.2-.3.1-.1-.5-.3-.8-.1-1.1-1-.4-1.7-1.4-2.2-2.3l.1-.1c0-.3-.3 0-.3-.2.2 0 .1-.3.4-.3-.1-.4-.5-.3-.7-.4-.2.1.2.1 0 .2-.1 0-.2-.5-.5-.4 0-.1.3-.2.4-.2l-.2-.1c.1-.4.9.2 1-.3l-.2-.2c.1-.4.6.3.4-.2-.3-.1-.7 0-.7.2-.4-.4-.7.2-1-.2.1-.2.3.3.4.1 0-.3-.4-.3-.5-.6.1.3-.3.3-.4.2 0-.3.3 0 .1-.3-.2 0-.5-.2-.4.1-.4.1-.1-.4-.5-.4.1-.3.7 0 .6-.5-.2.2-.6-.2-.8.2 0-.2.1-.3.3-.3 0-.3-.7-.2-.4-.6l-.3.1c0-.1 0-.2.1-.4-.1-.2-.7-.3-.4-.5-.1 0-.3-.4-.5-.1 0 .3.4.1.2.5.1-.3-.3-.3-.5-.4l.1-.1c-.1 0-.2-.2-.4-.2.1 0 .2-.1.2-.2l-.3.1c-.3-.3.3-.3 0-.6l.3.1c-.1 0 0-.3-.2-.4-.2.1-.5.1-.7.2-.2-.1.1-.2-.2-.3l.4.1c.1 0 .2-.4 0-.6-.2-.1-.6-.1-.5.2-.1-.1-.1-.4.1-.4-.3-.2-.2.2-.4 0v-.9h.5l-.1-.2c.4 0 .1-.2.4-.3-.1-.1-.2-.2-.4-.3-.1.6-.8.1-1.1.5-.5-.3.6-1-.3-1 0 .1-.5.2-.1.3-.2-.3-.5.1-.6-.3.3.1.1-.5.6-.4-.1.1.1.3.2.3 0-.2.4-.3.1-.5-.2-.1-.4-.3-.5-.2-.2.2.2.2 0 .3-.4-.3-.1-.6-.6-.4.2.2.1.4-.1.5l-.3-.2.2-.1c-.3-.4-.3.1-.6-.3l.1-.4c.3-.1.4.6.7.2-.2-.2-.4-.2-.6-.5.1 0 .1.1.2.1-.1-.1.3-.6-.3-.7-.3-.1-.2.1-.3.2-.4-.3-.6-.3-.9-.5.3-.2-.4-.4.1-.4 0 .3.5.7.9.6.2-.4.2.3.6.1-.3-.3 0-.6.1-.8-.1-.1-.2-.1-.3-.1-.2.1-.1.2-.3.4-.3-.4-.7-.6-1.1-.6 0-.2.2-.3.3-.2-.5-.3-.9-.7-1.2-1.1 0 .5-.5-.3-.5.1.2.2.2.6-.1.6-.1-.1.1-.1.1-.2-.3 0 0-.5-.4-.3.5.2.4-.3.6-.5-.4-.1.1-.2-.1-.4L94 208c-.3-.5-1.1-.6-1.4-.7-.1-.2.1-.5-.1-.6-.3-.1.1.4-.3.1l.1-.1c-.1 0-.7-.4-.9 0 .1-.1.1-.2.2-.4-.1-.1-.2 0-.2.1 0-.1-.1-.2.1-.3-.2-.3-.6 0-.9 0l.2.2c-.5.2-.8 0-1.2.2l-.1-.2-.2.2c0-.2-.3-.2-.4 0 .1-.3.3-.5.5-.8.3 0-.2.3.1.5.2.1.6 0 .6-.2-.2 0-.2.1-.3.2-.1-.3.1-.3.3-.6-.1 0-.3 0-.3.1.2-.2.4-.3.7-.3-.2.1.1.2.1.3 0-.3.4-.4.8-.3.3.3.8-.1 1.3.1-.3.2-.6.4-.8.4.2.2.3.1.5.3.2-.2.4-.4.8-.4l-.1.2c.3 0 .5-.2.9 0 .6.4 1.3.8 1.7 1.2l-.1.2c.5-.2.9.5 1.4.6.4.6 1.3.9 1.3 1.4 1 .7 1.9 1.4 2.7 2.4h-.4c.3 0 0 .2.2.4 0-.4.4 0 .7 0 .2.6.9 1 1.3 1.2l-.1.1c.6.2.7.8 1.1 1.4 0 .1-.1.3 0 .5.5.1.6.2 1 .5.2.3.5.8.6 1.2 1.2.9 1.8 2.1 2.8 3.2l-.1.2c1.2.9 1.8 2.5 2.6 3.4l-.4.1c.1.4.5.7.7.4.1.4.7.7.5 1.1.1.4.4.3.6.6.2.8.4 1 .8 1.6l-.1-.2c-.1 0-.3.1-.2.2.2.2.4.9.7.4.1.8 1.1 1.5 1.1 2.3.1-.1.2 0 .3.1.3.6.4 1.4.9 1.7 0 .1-.3-.1-.2.2.1.1.2-.1.3.1.7.9.7 2.1 1.2 3 1 1.5 1.6 3.3 2.3 4.8h-.1c.6.4.1 1.4.8 1.6 0 .2.1.5-.1.5.4.3.2 1.3.8 1.8 0-.1 0-.1-.1-.1 0 .7.5 1.2.5 1.9-.1-.1-.1-.2-.2-.2-.1.3.6.5.2.8.1.1.3 0 .2-.1.3 1.5 1.1 3 1.7 4.5.1 1.2-.7.3-.1 1.1-.1.1.2 0 .1 0 .2.3-.4.7-.1.8.3-.2.2.1.4.1 0 .7-.2.9.1 1.4h-.2c.6.5.6 1.3 1.2 1.7.9 3.4 1.9 6.7 2.5 10.2.5 3.4 1.1 6.8 1.1 10.3-.3.9-.3.9-.1 1.8-.1 0-.1-.1-.1 0 .3 0 .1.6.4.7 0 1.3.1 2.5.1 3.9 0-.2-.3-.3-.3-.1l.2.3h-.1c0 .2.2.4.3.2.2 3.5-1 6.9-2.2 10.2-.2.4-.5.8-.7 1.3-.2.5-.5 1-.7 1.4-1.9 2.1-3.9 3.5-6.2 5 .5.5.4-.4 1.2-1.1z"/><path class="st1" d="M88.6 206.6c.2.1.5 0 .4.3-.2-.1-.4-.1-.4-.3zM95.3 209.3v.1c-.1 0-.2 0-.2-.1.1.1.1 0 .2 0zM96.7 210.5c-.1.1-.5-.1-.7-.2.2.1.4.1.7.2zM97.5 212.1c0 .2-.1.2-.2.1.1 0 .1 0 .2-.1zM97.8 212c.1.1.1.2.1.3.1-.1-.3-.2-.1-.3zM100.1 215.1c.1.1.3.1.2.3 0-.1-.4-.2-.2-.3zM101.4 216.3c0 .1 0 .1.1.1 0 .1-.1.1-.2 0l.1-.1zM118.1 244.7l-.2-.1h.2zM122.3 258.6c.1.2-.1.2-.1.2-.1-.1.2.1.1-.2zM124.6 266.2v-.1h.3z"/></g><g><path class="st1" d="M117.4 241.1c.1.6.2-.4.2.4-.1 0-.2-.1-.2-.4zM204.9 246.9c-.5-2 .5-4.5.2-6.6 0-.3.4.1.4-.5-.4-2.1.2-5.3.9-7.8l.1.2c.1-.5-.2-1.1-.1-1.6.1 0 .1.2.2.1-.2-.1-.1-.9-.2-1.1.1-.2.3-.2.4-.4l-.3-.3c-.6-.8.2-2-.1-3.1.1.1.1.2.2.1-.3-1.8-.2-4-.3-6 .1.1.3.2.4 0-.3-.1-.4-.7-.4-1.2.3-.2-.3-.9-.1-1.5l.1.1c-.3-.5.2-.7-.2-1l.2-.3c-.4-.2.2-.7 0-1h-.1c-.1-.4.1-.5 0-.9-.1-.8 0-1.2-.3-1.2.2-.3.2.7.5.3-.3-1.3-.4-2.5-.7-3.8-.2-1.3-.5-2.5-1-3.7 0-.3-.1-.5 0-.6-.2-.2-.6-.8-.9-.8.1 0 0-.2-.1-.3-.1-.1-.3-.1-.4-.1-.2 0-.4.1-.6 0 .2 0 .3-.1.3-.2-.5.1-1-.1-1.6-.1.1 0 .2 0 .2-.1-.6.1-1-.3-1.5-.2l.2-.1c-.7-.4-.3.3-1 .1.2 0 .1-.1.2-.2-.7.2-1.7 0-2.4 0v-.1c-.7 0-1.4-.2-2.2-.2-.3-.1.1-.4-.6-.4 0 .4-1.3 0-.9.5-.6-.1-1.6-.3-2-.3.3-.1-.3-.5.3-.5l-.4-.3c.1-.1.4.1.3-.1-.3 0-1 .1-1.3 0-.5.2-1 .6-1.8.6.4-.1-.2-.4.1-.5l-1.2.6c-.3 0 0-.3-.4-.2 0 .1-.2.1-.3.2-.1 0-1.1 0-1.2-.4-.1-.2.4 0 .1-.2-.5 0-.5.1-1 .1-.3-.1-1 .1-.6.3.2 0-.1-.2.3-.1-.2.2-.8.2-1.3.2.2 0 .2-.1.2-.2-.7.2-1.4.3-2.1.4 0 .2.3-.3.4-.2-.9-.3-1.9.2-2.7-.1.1 0 .1.2.1.2-.4 0-.4-.3-.7-.2 0-.1-.4 0-.7.1-.2.1-.1-.1.2-.1-.4.1-2.1.3-3.1 0 0 .1-.6.3-.8.3l.1-.2c-.2-.1-.7 0-.8-.2-.5.3 1.8-.2 1.2 0-.2-.2-.9.3-.8 0-.4 0-.9.2-1.3 0 .1 0 .4-.3 0-.3-.6 0-.2.1-.7.2l-.3.1c0 .2-.6 0-.3.2-.1-.2-.9.1-.9-.3l.1-.3c-.3 0-.5.3-.7.4l-.1-.1c-.1.4-.7 0-1 .3-.6-.2-1.5 0-1.7-.3-.4.1-.9.3-1.4.2.1 0 .2-.1.3-.1-.3-.1-.4 0-.7.1.1-.1-.6-.3-1-.4-.4.1-.3.4-.3.5-.4-.4-1.2.3-1.8-.1.2-.1.6-.2.3-.3-.4-.4-.8.3-1.5.1l.2.4c-.3-.2-1 .2-.9-.2-.2.1-.8-.1-.7.2-1.1-.3-2.6.2-3.3-.4-.2.1-.5 0-.5.2.3.2.4-.1.4 0-.1 0-.2.1-.2.2-.3-.1-.6-.1-.3-.4-.7-.2-.8.6-1.7.5 0-.1 0-.2-.3-.2l-.5.3c-.6 0-.4-.3-.4-.6-.3 0-.7 0-.9.2l-.4-.3c.3.2-.3.2-.4.2l.2-.1c-.1-.1-.4 0-.6 0 0 .2.4.2.6.2-.2.1-.4.1-.6.2.1-.2-.5-.2-.8-.2-.3 0-.3.2-.4.2 0-.1-.5 0-.3-.2.1 0 .2.1.4 0-.2-.1-.2-.3-.6-.1-.3.1.1.5-.5.3l.3-.3-.5-.1v.2c-.1-.1 0-.1-.1-.1-.2.2-.8.1-.9.4-.3 0-.6-.1-.8-.1-.3-.1-.7 0-1 .2-.2 0-.6 0-.8.2-.4-.1-.2-.8-.7-.5-.4 0-.7.4-.5.6-.8-.1-1.7.3-2.5 0-.1.1 0 .1-.3.2-1.2 0-2.4.4-3.4.1.3-.1 0-.2 0-.3-.3.2-.4-.2-.4.2 0 .2 0 .3.4.3-.7.2-1.7.3-2.1.1.2.1.1.1-.1.2 0-.3-.5-.3-.9-.2v.2l-.3-.2c-.1.1-.1.4-.5.3 0-.1-.1-.1-.1-.2-.4.2-.9.6-1.3.5l-.4-.2c-.2.1-.5.3-.1.3-.8 0-1.2 0-1.5-.2-1.1.8-2.8 1.3-3.8 1.8v-.1c-.4 0 0 .3-.2.4 0-.2-.4-.1-.3-.4-.5.2-.4.6-.5.8.1.2.1-.3.2 0 0 .1-.6.4-.4.6-.2 0-.3-.2-.3-.3 0 .1-.1.2-.1.3-.5.1.2-1-.4-1l-.2.3c-.4 0 .4-.8-.3-.3-.2.3 0 .9.3.7-.4.6.3.7-.1 1.2-.3 0 .3-.5 0-.5-.4.1-.3.6-.5.8.3-.2.4.2.3.4-.3.2-.1-.3-.4.1.1.2 0 .6.3.3.2.4-.3.4-.2.8-.3 0-.3-.8-.7-.3.3 0 0 .8.5.7-.2.2-.4.1-.4-.1-.3.2.1.9-.4.8l.2.2c-.1.1-.2.2-.4.3-.1.3 0 1-.4.9 0 .1-.2.7.1.6.3-.3 0-.5.4-.6-.4.2-.2.6-.1.8h-.2c0 .2-.1.5 0 .6-.1-.1-.2-.1-.2 0l.2.2c-.1.6-.4 0-.5.6l-.1-.5c0 .1-.2.2-.2.5l.5.5c0 .3-.3.1-.1.4l-.1-.5c0-.1-.4.2-.5.6 0 .3.2.8.4.4 0 .2-.2.5-.4.3 0 .5.2 0 .3.4-.2.1-.5.6-.7.9l-.3-.5-.1.3c-.2-.4-.3.2-.5-.1-.1.2 0 .5 0 .7.6-.5.5.8 1 .7 0 .8-1.1.3-.6 1.3.1-.1.4.3.4-.2-.1.5.4.4.1 1-.1-.5-.5.4-.7-.3.1.1.2-.3.1-.4-.2.2-.4-.1-.5.4 0 .3 0 .8.2.7.3 0 0-.5.3-.3 0 .6-.4.7 0 1 0-.4.3-.5.5-.4l.1.5-.2-.1c-.2.7.3.3.2 1l-.4.3c-.3-.2.2-1-.2-1-.1.5.2.6 0 1.1 0-.1 0-.2-.1-.3 0 .2-.7.3-.4 1 .1.4.2.1.3.1 0 .8.2 1 .2 1.5-.3-.1-.1.9-.4.3.2-.2.3-1.3 0-1.6-.4.2.1-.6-.3-.8-.1.6-.4.6-.7.6 0 .2.1.3.1.5.2.1.3-.1.5-.1-.1.7 0 1.4.2 1.7-.1.2-.4.1-.4-.1 0 .8 0 1.7-.1 2.5.4-.5.1.9.4.5.1-.4.4-.8.6-.5 0 .3-.2 0-.3.1.2.3-.4.5 0 .8-.1-.7-.5-.2-.8-.3.2.5-.2 0-.2.5.2.5.3 1.2.4 1.8-.3.8 0 1.9 0 2.6-.2.4-.5.1-.6.5 0 .4.4-.3.2.3l-.1-.1c.1.2-.2 1.2.3 1.4l-.4-.2c0 .1.1.2.1.3-.1 0-.2.2-.3 0-.2.4.1.9.1 1.3l.2-.3c.2.8 0 1.3.1 2h-.2l.2.4c-.2-.1-.3.3-.1.5l-.6-1.1c.1-.3.3.3.5.1.2-.2.1-.9-.1-1 0 .3 0 .3.1.5-.3.1-.3-.3-.5-.5 0 .1-.1.3 0 .4-.2-.3-.2-.5-.2-1 .1.3.2-.2.3-.1-.3 0-.4-.4-.3-1 .3-.4-.2-1-.2-1.7.3.3.5.6.6 1 .1-.4 0-.5.1-.9-.2-.2-.5-.3-.7-.8h.2c-.1-.5-.4-.5-.4-1.1.1-1.1.1-2.1.1-2.9h.2c-.4-.5-.1-1.5-.3-2.1.2-1-.1-2.2.3-2.7 0-1.8-.1-3.4.3-5.3l.3.4c-.2-.4.2-.2.2-.5-.3.3-.2-.5-.4-.8.3-.8.3-1.9.2-2.7h.2c-.2-.8.3-1.6.6-2.5.1-.1.3-.2.4-.5-.2-.6-.1-.8 0-1.6.2-.5.6-1.4.9-1.8.4-2.1 1.8-4 3.4-5.8l.3.1c.7-1 2-1.6 3.2-2 1.1-.3 2.2-.5 3.1-.8l-.1.4c.6 0 1.2-.3 1-.6.6 0 1.4-.4 1.7-.1.6 0 .7-.3 1.1-.4 1.1 0 1.6-.1 2.6-.2h-.3c-.1.1-.1.3.2.3.4-.1 1.5 0 1-.5 1.2.2 2.6-.4 3.8-.1-.1-.1.2-.2.3-.3 1-.1 2.1.1 2.8-.1.2.1-.2.2.2.2.2-.1 0-.2.3-.3 1.6-.3 3.3.1 4.7 0 2.6-.3 5.3-.3 7.8-.3v.1c.8-.4 2 .4 2.6-.2.2.1.8 0 .6.2.7-.3 1.9.2 2.8-.1-.1 0-.1 0-.2.1 1 .2 1.8-.1 2.8.1-.1 0-.3.1-.3.2.4.2.9-.4 1.1.1.2 0 .2-.2 0-.2 2.2.2 4.6 0 6.9-.1 1.7.3.1.8 1.4.5.1.1.1-.2.1-.1.5-.1.8.6 1.1.3-.1-.3.2-.2.3-.3 1 .2 1.2.5 2 .3l-.1.1c1-.4 2-.1 2.9-.6 5.2.2 10.2.2 15.3.7 1.2.2 2.5.3 3.7.6.6.1 1.3.2 1.9.4.6.1 1.3.3 2 .5.6.2 1.1.5 1.6 1 .4.4.7.8.9 1.2.4.8.7 1.5.9 2.2.4 1.4.6 2.8.7 4.1-.3 1.3-.2 1.4 0 2.7-.1 0-.1-.1-.1 0 .3 0 .1.9.4 1 0 1.9.2 3.7.2 5.6 0-.3-.3-.5-.3-.1l.2.4-.1.1c0 .3.2.5.3.3.2 4.9-.7 9.7-1 14.4-.2 1.1-.2 2.7-.3 4-.8 3.6-1.4 6.8-1.6 10.5.1-.5-.6-1.1-.7-2.6zM117.3 240.4c.2-.1.2-.6.5-.3-.2.1-.3.4-.5.3z"/><path class="st1" d="M118.7 229.1l.1-.2c0 .1.1.3.1.4-.1-.1-.2-.1-.2-.2zM118.8 226.3c.1 0 .2.7.2 1l-.2-1zM119.6 223.7c.1-.2.2-.1.2.2-.1 0-.1-.1-.2-.2zM119.3 223.5c0-.2.1-.3.2-.4-.1 0 0 .5-.2.4zM120.4 217.9c0-.1-.1-.4.1-.5-.1.1.1.7-.1.5zM120.7 215.3c0-.1.1-.1 0-.2.1-.1.2 0 .2.2h-.2zM161.3 201.8l-.3.1v-.2zM182.8 202.3c.3-.1.2.1.2.2-.2 0 .1-.2-.2-.2zM194.4 202.5h-.1l.1-.3z"/></g><g><path class="st5" d="M275.1 110c0 8.1-40 14.2-92 14.2s-94.2-6.6-94.2-14.7 42.2-14.7 94.2-14.7 92 7.1 92 15.2z"/><path class="st1" d="M275.4 111.1c.2-.8.1-.6 0-.4 0 .1-.1.2-.1.1s.1-.2.2-.7c.1.1.2.5-.1 1z"/><path class="st1" d="M272.6 106.1c-2.2-1-4.6-1.9-7.1-2.8-2.5-.9-5.2-1.7-7.7-2-.6-.1.2-.4-1.1-.6-4.8-.5-12.3-2.1-18.1-3.3l.4-.1c-1.1-.2-2.5 0-3.7-.2 0-.1.4-.1.1-.2-.3.2-2.1-.1-2.7 0-.5-.1-.4-.3-1-.5l-.7.2c-1.9.4-4.6-.5-7.2-.4.1-.1.4-.1.2-.2-4.2 0-9.3-.4-14-.5.2-.1.4-.3.1-.4-.2.3-1.7.3-2.9.3-.5-.3-2.1.2-3.6 0l.1-.1c-1.1.3-1.6-.2-2.5.1l-.7-.3c-.5.4-1.5-.3-2.4-.1v.1c-.8.1-1.3-.1-2-.1h-.1c-1.8.1-2.9-.2-2.8.1-.6-.3 1.8-.1.8-.5-6 .2-12.2.1-18.2.2-.7-.1-1.1-.2-1.3-.3-.6.1-2.3.1-2.8.3.2 0-.4-.2-.7-.2-1.1-.1-1.2.4-2.4.3.5-.1.6-.2.5-.3-1 .3-2.4.3-3.6.4.2-.1.5-.1.4-.2-1.3.3-2.4 0-3.6.2l.4-.2c-1.9-.2-.5.4-2.2.3.4-.1.2-.1.3-.2-1.5.4-3.9.4-5.4.6.1 0 .1-.1.1-.1-1.6.1-3.4.1-5.2.4-.7 0 .2-.5-1.5-.3.1.4-2.9.3-1.9.7-1.5 0-3.8.1-4.8.3.7-.2-.8-.4.5-.5l-.9-.2c.1-.2 1 0 .7-.2-.6.1-2.4.3-3 .3-1.1.3-2.1.8-4 1 .9-.2-.5-.4.1-.5l-2.5 1c-.6.1-.2-.3-1-.1.1.1-.3.2-.6.3-.2 0-2.5.4-2.8 0-.3-.1 1-.2.3-.2-1.1.1-1.2.3-2.3.4-.8 0-2.2.4-1.3.5.5-.1-.2-.2.6-.2-.5.3-1.8.5-2.9.6.4-.1.3-.2.5-.3-1.5.5-3.1.8-4.7 1.2 0 .2.6-.4.8-.3-2.2.1-4.4 1-6.3 1 .3-.1.2.2.2.2-1 .2-1-.1-1.7.1-.1-.1-.8.2-1.5.4-.3.2-.2 0 .4-.2-.9.3-4.7 1.3-7 1.7.1.1-1.3.7-1.8.8l.1-.3c-.5 0-1.7.5-1.8.3-.5.3.5-.1 1.5-.4 1-.3 1.9-.6 1.2-.3-.4-.1-1.9.9-1.7.5-1 .3-1.9.8-2.9.9.3-.1.7-.6-.1-.3-1.4.5-.4.2-1.5.7l-.7.4c0 .2-1.2.5-.6.5-.3-.1-1.9 1-1.9.6v-.3c-.6.3-.8.7-1.1 1.1-.1 0-.2.1-.2 0 .2.4-1.2.8-1.4 1.5-.4.3-.7.9-.7 1.2 0 .4.2.8.2 1.1.6.6 1.3 1 2.2 1.6-.2-.1-.5-.2-.6-.2.5.5.7.5 1.3.7-.2 0 1.1.9 1.9 1.3 1 .3.8-.1.9-.2.7.8 2.8.7 3.8 1.4-.4 0-1.5-.2-.7.1.8.7 1.9.2 3.3.8l-.3-.4c.6.4 2.2.3 2 .7.5 0 1.7.5 1.6.1 2.4.9 6 1 7.4 1.9.4 0 1.2.2 1.1 0-.6-.3-.8 0-1-.2.3 0 .4 0 .4-.1.8.2 1.4.3.6.5 1.7.5 1.9-.3 4 .2-.1.1 0 .2.7.3l1.2-.1c1.4.3.8.4.8.7.8.1 1.7.2 2.1.1l.9.4c-.6-.3.6-.1 1-.1h-.4c.1.1 1 .2 1.5.2-.1-.2-1-.3-1.5-.4.4-.1 1 0 1.5 0-.2.2 1.2.3 1.8.4.7.1.8-.1 1-.1 0 .1 1.1.1.6.3-.2 0-.5-.2-.9-.1.4.1.4.4 1.3.3.7 0-.1-.5 1.2-.2-.4 0-.4.1-.7.2l1.3.3.1-.2c.2.1 0 .1.1.1.4-.2 1.9.1 2.3-.1.6 0 1.3.3 1.9.4h-.1c.7.2 1.7.2 2.4.1.4.1 1.4.1 1.9 0 1 .3.3.9 1.4.7 1 .1 1.7-.3 1.3-.5 1.9.3 4 .1 5.8.5.3-.1.1-.1.7-.2 2.8.3 5.8.1 8 .6-.8.1-.1.2-.1.3.7-.2.8.2 1-.1-.1-.2 0-.3-.8-.4 1.7 0 4.2.1 5.1.3-.5-.1-.1-.2.3-.2-.1.3 1.1.4 2 .3l.1-.2.6.2c.4-.1.4-.4 1.3-.2 0 .1.1.2.3.2 1-.1 2.3-.4 3.3-.2l.8.3c.4 0 1.2-.2.4-.3 1.8.2 2.9.2 3.5.5 3-.6 7.5-.6 11-.5l-.1.1c.9.1.5-.3 1.2-.2-.3.1.7.3 0 .5 1.4.1 1.7-.3 2.6-.3.1-.2-.7.1-.5-.1.2-.1 1.9.1 2.1-.2.3.1.1.3-.1.4l.8-.2c1 .3-2.3.6-1.2 1l.8-.1c.7.3-2 .4-.1.4.8-.2 1.5-.6.8-.7 1.7-.1.8-.7 2.7-.7.5.2-1.5.1-1.1.3.9.2 1.8-.2 2.5-.1-.9-.1-.1-.4.4-.5 1 .1-.6.3.7.3.2-.2 1.4-.3.4-.4.5-.4 1.4.1 2.1-.2.4.3-1.4.7.1.8-.2-.3 1.8-.4 1-.8.6.1.6.3.2.4.8.1 2-.5 2.3 0l.3-.3c.3.1.6.1 1.1.3.7 0 2.3-.4 2.3 0 .2-.1 1.9-.1 1.2-.3-1-.1-1.2.2-1.8-.1.7.3 1.5-.1 2.1-.2l.1.1c.4-.1 1.2-.1 1.4-.3-.3.1-.1.2.2.2l.4-.3c1.4-.2.4.4 1.8.3l-1.1.2c.2 0 .7.1 1.4 0 .3-.2.7-.5.9-.7.8-.1.4.2 1.1 0l-1 .3c-.2.1.7.3 1.8.3.7-.1 1.7-.5.6-.5.5 0 1.3.1.9.2 1.2-.1-.2-.2.9-.4.4.1 1.8.2 2.6.4l-1.1.4h.7c-.9.3.5.2 0 .5.5 0 1.1-.1 1.6-.2-1.5-.4 1.6-.8 1.1-1.2 2-.3 1.3 1 3.3.1-.3-.1.6-.5-.6-.3 1.2 0 .8-.5 2.2-.4-1.1.3 1.2.4-.3.7.1-.2-.9 0-1.1 0 .5.1-.1.5 1.2.4.8-.1 1.8-.2 1.6-.4-.1-.2-1.2.1-.7-.2 1.5-.2 1.8.1 2.4-.4-1 .1-1.2-.1-1.2-.3l1.1-.2-.2.2c1.8 0 .5-.4 2.2-.5l.8.3c-.4.3-2.5.1-2.2.5 1.1-.1 1.5-.4 2.6-.3-.2.1-.6.1-.8.2.4 0 .9.6 2.4 0 .8-.2.2-.2.2-.4 1.8-.2 2.3-.5 3.5-.6-.2.4 2.1-.2.8.3-.6-.1-3.2.2-3.8.6.7.3-1.4.1-1.8.5 1.5-.1 1.4.3 1.7.5.4 0 .8-.2 1-.2.1-.3-.4-.2-.4-.4 1.6-.1 3.2-.4 4-.8.6.1.4.3-.2.4 1.9-.3 4-.5 5.8-.7-1.2-.2 2-.4 1.2-.6-1 .1-1.9-.1-1.4-.4.6-.1 0 .2.3.2.7-.3 1.3.2 2-.3-1.7.4-.3.5-.5.9 1.2-.4 0 .2 1.2 0 1.2-.4 2.7-.8 4.1-1.1 1.8 0 4.4-.8 5.9-1.2.8 0 .4.4 1.3.3 1-.3-.8-.2.7-.4l-.1.1c.4-.2 2.8-.5 3.1-1.1l-.4.5c.3 0 .5-.2.7-.3 0 .1.4.1 0 .3 1 0 1.9-.6 2.9-1h-.7c1.6-.7 2.8-1 4.3-1.8l.1.2c.3-.2.6-.4.8-.6-.1.3.8 0 1.1-.5-.6.7-1.3 1.3-2 1.9-.7.2.6-.6.1-.6-.4 0-1.9.7-2 1 .6-.2.6-.3 1-.5.3.2-.5.6-.9.9.3-.1.8-.2.8-.4-.5.4-1.1.7-2.1 1 .6-.4-.4 0-.2-.2 0 .3-.9.7-2.2 1-1 0-2.3.9-3.8 1.2.5-.4 1.2-.8 2.1-1.2-1 .1-1 .3-2 .4-.4.3-.6.7-1.8 1.1l-.1-.2c-1.1.3-1 .6-2.4.9-2.4.4-4.9.8-6.8 1.1l-.1-.2c-1 .6-3.4.7-4.8 1.1-2.4.1-5.1.9-6.4.6-4.2.6-7.8 1.1-12.2 1.4l.7-.4c-.8.3-.5-.1-1.3 0 .9.2-1 .4-1.6.6-2-.1-4.4.3-6.1.6l-.1-.2c-1.7.5-3.8.3-6 .3-.3-.1-.7-.2-1.3-.2-1.2.4-1.8.4-3.5.7-1.3.1-3.3 0-4.6 0-4.7.6-9.6.4-14.5.7l-.4-.2c-4.8.6-10.7.1-14.7.3l.4-.4c-1.3-.1-2.9.1-2.6.4-1.3-.1-3.2.1-4-.2-1.3-.1-1.6.1-2.7.2-2.6-.2-3.6-.2-6.1-.3l.6.1c.3-.1.3-.3-.3-.3-.9.1-3.4-.3-2.5.3-2.6-.4-6.2-.1-8.7-.6.2.1-.4.1-.7.2-2.3-.1-4.7-.6-6.6-.5-.4-.1.6-.2-.3-.3-.6 0 0 .2-.7.2-3.8-.1-7.6-.9-11-1.2-6.1-.4-12.4-1.4-18.1-2.4l.1-.1c-2 0-4.4-1.3-6.1-1.1-.4-.2-1.7-.5-1.3-.6-1.6-.1-4.2-1.3-6.5-1.8.2.1.3.1.6.1-2.1-1-4.2-1.4-6.3-2.9.2.1.7.3.8.3-.4-.3-.9-.5-1.4-.8-.5-.3-.9-.6-1-1-.4-.5-.5-.2-.2.1-.5-.6-1.1-1.3-1.4-2.3-.3-1-.1-2.2.4-3 .5-.8 1.1-1.4 1.7-1.9.6-.5 1.2-.9 1.9-1.3 2.5-1.5 5.2-2.5 7.9-3.3 3.9-.8.4.7 3.4-.5.3 0 .1-.2.2-.1 1.1-.4 1.9.1 2.7-.3-.4-.2.5-.3.5-.5 2.4-.3 2.9-.1 4.7-.7l-.1.2c2.1-.8 4.7-1 6.4-1.8 12.1-1.9 23.7-3.1 35.6-3.8 11.7-.5 23.2-1 35.2-.6 2.8.4 3 .4 6.1.3-.1.1-.3.1-.1.1.2-.3 2.2 0 2.5-.3 4.4.2 8.5.2 13 .4-.7 0-1.1.2-.2.3l.9-.2.1.1c.6 0 1.2-.1.6-.3 11.4.3 22.6 1.9 33.6 3.5 2.6.5 6.4 1 9.2 1.5 4.2 1.1 8.1 2.2 12 3.6 2 .7 3.9 1.5 5.8 2.5 1 .5 1.9 1.1 2.9 1.9.5.4.9.9 1.3 1.5s.7 1.4.7 2.2c0 0-.2-.5-.7-1.3-1.2-.5-2.2-1.3-3.8-2.2zM274.4 112.7c-.3.1-1.2.7-.7 0 .2.1.7-.2.7 0z"/><path class="st1" d="M248.9 119c0 .1-.4 0-.5 0 .3-.1.6-.2.9-.2-.4 0-.3.1-.4.2zM242.2 119.8c.1-.2 1.5-.5 2.3-.6l-2.3.6zM235.9 119.9c-.6-.1-.4-.1.3-.2.1.1-.1.1-.3.2zM235.5 120.3c-.5.1-.8 0-1-.1 0 .2 1.2-.2 1 .1zM221.9 121c-.3 0-1 .2-1.3.1.3.1 1.6-.3 1.3-.1zM215.6 121.6h-.5c-.4 0 0-.2.3-.2l.2.2zM101 115.5l.7.1-.2.2zM122.3 99.4c.7-.2.5.1.6.1-.6 0 .2-.3-.6-.1zM149.3 96.1h-.2l.1-.3z"/></g><g><path class="st1" d="M275 164.8c.3-.1-.2-.2.2-.1 0 .1-.1.2-.2.1zM200.9 170.4c1-.7 2.1.2 3.1-.2.1 0-.1.4.2.3 1-.5 2.4-.1 3.6.4l-.1.1c.2.1.5-.3.7-.2 0 .1-.1.1 0 .2.1-.2.4-.1.5-.3.1.1.1.3.2.4l.1-.3c.4-.6.9.1 1.4-.3 0 .1-.1.1 0 .2.8-.4 1.8-.3 2.7-.5 0 .1-.1.3 0 .4 0-.3.3-.4.6-.4.1.3.4-.3.7-.1v.1c.2-.3.3.2.5-.2l.1.2c.1-.4.3.2.5 0v-.1c.2-.1.3.1.4 0 .4-.1.6.1.6-.2.1.3-.3.1-.1.5 1.2-.4 2.4-.3 3.6-.4l.3.3c.1-.1.4-.1.5-.2l.1.2c.2.1.2-.4.5-.2-.1.1-.1.2-.1.3.2-.3.5-.2.7-.3 0 .1-.1.1-.1.2.2-.3.5 0 .7-.2l-.1.2c.4.2.1-.4.4-.3-.1.1 0 .1-.1.2.3-.4.8-.3 1.1-.4v.1c.3-.1.7 0 1-.1.1.1 0 .5.3.4 0-.4.6-.2.3-.6.3 0 .8.2.9 0-.1.1.2.4-.1.5l.2.2c0 .2-.2 0-.1.1.1 0 .5-.2.6-.1.2-.2.4-.7.7-.7-.2.2.1.4 0 .5l.5-.7c.1 0 0 .3.2.2 0-.1.1-.2.1-.2s.5-.1.6.2c.1.1-.2.1 0 .2.2 0 .2-.1.4-.2.2 0 .4-.2.2-.4-.1 0 .1.2-.1.1.1-.2.3-.3.6-.3-.1.1-.1.2-.1.3.3-.3.6-.4.9-.6 0-.2-.1.3-.2.2.4.2.9-.4 1.2-.1-.1 0-.1-.2 0-.2.2 0 .2.3.3.2 0 .1.2-.1.3-.1.1-.1 0 .1-.1.1.2-.1.9-.4 1.4-.2 0-.1.2-.4.3-.4v.2c.1.1.3-.1.4.1.2-.3-.8.3-.5.1.1.2.4-.4.3-.1.2 0 .4-.3.6-.1-.1 0-.1.3 0 .3.3-.1.1-.1.3-.2l.1-.1c0-.2.3 0 .1-.2.1.2.4-.2.4.2v.3c.1 0 .2-.3.3-.5l.1.1c0-.4.3 0 .4-.3.3.1.7 0 .8.2.2-.2.4-.3.6-.3 0 0-.1.1-.1.2.2.1.2 0 .3-.1 0 .1.3.2.5.4.2-.2.1-.4.1-.5.2.4.5-.3.8 0-.1.1-.3.2-.1.3.2.4.3-.4.7-.2l-.1-.4c.2.2.4-.3.4.1.1-.1.4.1.3-.3.5.2 1.2-.3 1.5.3.1-.1.2 0 .2-.2-.1-.2-.1.2-.2 0 .1 0 .1-.1.1-.2.2.1.3.1.2.4.4.2.3-.6.7-.5 0 .1 0 .2.2.2l.2-.3c.3 0 .2.3.2.6.1-.1.3-.1.4-.3l.2.3c-.2-.2.1-.2.2-.2l-.1.1c0 .1.2 0 .3 0 0-.2-.2-.2-.3-.2.1-.1.2-.1.3-.2 0 .2.3.1.4.2.1 0 .1-.2.2-.2 0 .1.2 0 .1.2 0 0-.1-.1-.2 0 .1.1.1.3.3.1.1-.1-.1-.5.2-.4-.1.1-.1.2-.1.3l.3.1v-.2.1c0-.2.4-.1.4-.4.1 0 .3.1.4.1.2.1.3 0 .5-.2.1 0 .3 0 .4-.2.2.1.2.8.4.5.2 0 .3-.4.2-.6.4.1.8-.3 1.1 0 0-.1 0-.1.1-.2.5 0 1.1-.4 1.6 0-.1.1 0 .2 0 .3.1-.2.2.2.2-.2 0-.2 0-.3-.2-.4.3-.1.8-.2 1 0-.1-.1 0-.2 0-.2 0 .3.3.3.4.2v-.2l.1.2c.1-.1 0-.4.2-.3 0 .1 0 .1.1.2.2-.2.4-.5.6-.3l.2.3c.1 0 .2-.2 0-.3.4.1.6.1.7.3.5-.7 1.4-.8 2.1-.9v.1c.2.1.1-.3.2-.2 0 .1.2.3.1.5.3.1.3-.3.5-.4 0-.2-.1.1-.1-.1 0-.1.4.1.4-.2.1.1.1.3 0 .4l.1-.2c.2.3-.4.7-.1 1.1l.1-.1c.2.3-.3.4 0 .4.1-.2.2-.6.1-.7.3-.1.1-.7.4-.7.1.2-.3.1-.2.3.2.2.3-.2.5-.1-.2-.1-.1-.4 0-.5.2.1-.1.3.2.3 0-.2.2-.3 0-.4 0-.4.3.1.4-.2.1.3-.2.7.1.7-.1-.2.3-.4.1-.8.1.1.2.3.1.4.2.1.3-.5.4 0v-.3c.1.1.1.1.2.3.1 0 .4-.4.4 0 0 0 .4-.1.2-.3-.2-.1-.2.2-.4-.1.2.3.3-.1.4-.2v.1c.1-.1.2-.1.2-.2 0 .1 0 .2.1.2v-.2c.3-.2.1.4.4.3l-.2.2s.2.2.3.1c0-.2.1-.5.1-.7.1-.1.1.2.2 0l-.2.3c0 .1.2.3.4.3.1-.1.3-.4.1-.5.1 0 .3.1.2.3.2-.1-.1-.2.1-.4.1.1.4.3.6.5l-.2.4h.1c-.1.3.1.2.1.5.1 0 .2-.1.3-.2-.3-.4.2-.7.1-1.1.4-.2.4 1 .7.3-.1-.1.1-.5-.2-.3.2 0 .1-.5.4-.3-.2.2.3.4 0 .7 0-.1-.2-.1-.2 0 .1.2 0 .4.3.4.1-.1.3-.1.3-.3 0-.2-.2.1-.2-.2.3-.1.4.2.4-.2-.2.1-.3-.2-.3-.4l.2-.1v.2c.4.1.1-.3.4-.3l.2.3c0 .3-.5-.1-.4.4.2 0 .3-.3.5-.2l-.1.1c.1 0 .3.6.5.2.1-.2 0-.2 0-.3.3-.1.4-.3.6-.4 0 .3.4 0 .2.4-.1-.2-.7-.1-.7.3.2.4-.3 0-.3.4.3 0 .3.4.4.6.1 0 .1-.1.2-.2 0-.2-.1-.2-.1-.5.3 0 .6-.2.7-.4.1.1.1.3 0 .4.4-.1.8-.2 1.1-.1-.3-.4.4-.2.2-.5-.2-.1-.4-.3-.3-.5.1 0 0 .2.1.2.1-.2.3.3.4-.1-.3.2 0 .5 0 .8.2-.2 0 .2.3.2.2-.2.5-.4.8-.5.4.2.9-.1 1.2-.2.2.1.1.5.3.5.2 0-.2-.4.1-.2v.1c.1-.1.6.1.6-.4v.4c.1 0 .1-.1.1-.1 0 .1.1.2 0 .3.2.2.4-.1.6-.1l-.2-.2c.3-.2.6-.1.9-.2v.2l.2-.2c0 .2.2.3.3.1l-.4.6c-.2-.1.1-.3 0-.5s-.4-.1-.4.2c.1 0 .1 0 .2-.1.1.3-.1.3-.1.5.1 0 .2.1.2 0-.1.2-.2.2-.4.3.1-.1-.1-.2-.1-.3 0 .3-.2.4-.4.4-.2-.3-.4.3-.8.2.1-.3.2-.5.4-.7-.2-.1-.2 0-.4-.1-.1.2-.1.5-.3.7v-.2c-.2.1-.2.4-.4.4-.5 0-1 .1-1.3.1v-.2c-.1.5-.6.3-.9.5-.5-.1-1 .3-1.3 0-.8.3-1.5.5-2.3.6l.1-.3c-.1.2-.1-.2-.3-.1.2.2-.2.3-.2.5-.4-.2-.9.1-1.2.4v-.2c-.3.4-.7.2-1.2.2-.1-.1-.2-.3-.3-.2-.2.4-.3.4-.6.6-.2 0-.7 0-.9-.1-.9.6-1.8.4-2.8.8l-.1-.2c-.9.6-2.1.3-2.8.7v-.4c-.3-.1-.6.2-.5.5-.3-.1-.6.3-.8 0-.3 0-.3.2-.5.3-.5-.1-.7 0-1.2.1h.1c0-.1 0-.3-.1-.3-.2.1-.7 0-.4.4-.5-.2-1.2.4-1.7.1.1.1-.1.2-.1.3-.5.1-1-.2-1.3.1-.1-.1.1-.2-.1-.2-.1.1 0 .2-.1.3-.7.3-1.5-.1-2.2.1-1.2.4-2.4.4-3.5.6v-.1c-.3.4-.9-.3-1.2.3-.1-.1-.3 0-.3-.2-.3.3-.9-.2-1.3.2 0 0 .1 0 .1-.1-.5-.2-.8.2-1.3 0 0 0 .1-.1.1-.2-.2-.2-.4.5-.5 0-.1 0-.1.2 0 .2-1-.1-2.1.3-3.2.5-.8-.2-.1-.8-.7-.4-.1-.1 0 .2 0 .1-.2.2-.4-.5-.5-.2.1.3-.1.2-.1.3-.5-.2-.6-.4-.9-.2v-.2c-.4.5-.9.3-1.2.8-1.2.1-2.4.3-3.5.5-1.2.2-2.3.3-3.5.4-2.3.1-4.6.3-6.9.2-.6-.4-.6-.4-1.2-.2 0-.1.1-.1 0-.1 0 .3-.4 0-.5.4h-2.6c.1 0 .2-.3 0-.3l-.2.2v-.1c-.1 0-.2.2-.1.3-1.1.1-2.2.1-3.4-.1-1.1-.2-2.2-.4-3.3-.4-.5-.2-1.3-.1-1.9 0-1.7-.6-3.1-1.1-4.9-1 .3.2.6-.6 1.4-.7zM274.7 164.9c-.1-.2-.3-.2-.2-.4.1.1.2.3.2.4z"/><path class="st1" d="M269.3 164.1l-.1-.1c.1 0 .1-.2.2-.1-.1 0-.1.1-.1.2zM268 164.2c0-.1.3-.3.4-.3l-.4.3zM266.7 163.8c-.1-.1-.1-.2 0-.2v.2zM266.7 164.1c-.1 0-.2-.1-.2-.1 0 .1.2-.1.2.1zM263.9 164.1c-.1 0-.2.2-.3 0 .2.1.4-.2.3 0zM262.8 164.5h-.1c-.1-.1 0-.2 0-.2l.1.2zM240.4 167.9l.1-.1v.1zM230.5 168.8c-.1.1-.1-.1-.1-.1.1-.1 0 .1.1.1zM225.3 169.8v.3z"/></g><g><path class="st1" d="M275 147.4c.3-.1-.2-.2.2-.1 0 .1-.1.2-.2.1zM200.9 152.9c1-.7 2.1.2 3.1-.2.1 0-.1.4.2.3 1-.5 2.4-.1 3.6.4l-.1.1c.2.1.5-.3.7-.2 0 .1-.1.1 0 .2.1-.2.4-.1.5-.3.1.1.1.3.2.4l.1-.3c.4-.6.9.1 1.4-.3 0 .1-.1.1 0 .2.8-.4 1.8-.3 2.7-.5 0 .1-.1.3 0 .4 0-.3.3-.4.6-.4.1.3.4-.3.7-.1v.1c.2-.3.3.2.5-.2l.1.2c.1-.4.3.2.5 0v-.1c.2-.1.3.1.4 0 .4-.1.6.1.6-.2.1.3-.3.1-.1.5 1.2-.4 2.4-.3 3.6-.4l.3.3c.1-.1.4-.1.5-.2l.1.2c.2.1.2-.4.5-.2-.1.1-.1.2-.1.3.2-.3.5-.2.7-.3 0 .1-.1.1-.1.2.2-.3.5 0 .7-.2l-.1.2c.4.2.1-.4.4-.3-.1.1 0 .1-.1.2.3-.4.8-.3 1.1-.4v.1c.3-.1.7 0 1-.1.1.1 0 .5.3.4 0-.4.6-.2.3-.6.3 0 .8.2.9 0-.1.1.2.4-.1.5l.2.2c0 .2-.2 0-.1.1.1 0 .5-.2.6-.1.2-.2.4-.7.7-.7-.2.2.1.4 0 .5l.5-.7c.1 0 0 .3.2.2 0-.1.1-.2.1-.2s.5-.1.6.2c.1.1-.2.1 0 .2.2 0 .2-.1.4-.2.2 0 .4-.2.2-.4-.1 0 .1.2-.1.1.1-.2.3-.3.6-.3-.1.1-.1.2-.1.3.3-.3.6-.4.9-.6 0-.2-.1.3-.2.2.4.2.9-.4 1.2-.1-.1 0-.1-.2 0-.2.2 0 .2.3.3.2 0 .1.2-.1.3-.1.1-.1 0 .1-.1.1.2-.1.9-.4 1.4-.2 0-.1.2-.4.3-.4v.2c.1.1.3-.1.4.1.2-.3-.8.3-.5.1.1.2.4-.4.3-.1.2 0 .4-.3.6-.1-.1 0-.1.3 0 .3.3-.1.1-.1.3-.2l.1-.1c0-.2.3 0 .1-.2.1.2.4-.2.4.2v.3c.1 0 .2-.3.3-.5l.1.1c0-.4.3 0 .4-.3.3.1.7 0 .8.2.2-.2.4-.3.6-.3 0 0-.1.1-.1.2.2.1.2 0 .3-.1 0 .1.3.2.5.4.2-.2.1-.4.1-.5.2.4.5-.3.8 0-.1.1-.3.2-.1.3.2.4.3-.4.7-.2l-.1-.4c.2.2.4-.3.4.1.1-.1.4.1.3-.3.5.2 1.2-.3 1.5.3.1-.1.2 0 .2-.2-.1-.2-.1.2-.2 0 .1 0 .1-.1.1-.2.2.1.3.1.2.4.4.2.3-.6.7-.5 0 .1 0 .2.2.2l.2-.3c.3 0 .2.3.2.6.1-.1.3-.1.4-.3l.2.3c-.2-.2.1-.2.2-.2l-.1.1c0 .1.2 0 .3 0 0-.2-.2-.2-.3-.2.1-.1.2-.1.3-.2 0 .2.3.1.4.2.1 0 .1-.2.2-.2 0 .1.2 0 .1.2 0 0-.1-.1-.2 0 .1.1.1.3.3.1.1-.1-.1-.5.2-.4-.1.1-.1.2-.1.3l.3.1v-.2.1c0-.2.4-.1.4-.4.1 0 .3.1.4.1.2.1.3 0 .5-.2.1 0 .3 0 .4-.2.2.1.2.8.4.5.2 0 .3-.4.2-.6.4.1.8-.3 1.1 0 0-.1 0-.1.1-.2.5 0 1.1-.4 1.6 0-.1.1 0 .2 0 .3.1-.2.2.2.2-.2 0-.2 0-.3-.2-.4.3-.1.8-.2 1 0-.1-.1 0-.2 0-.2 0 .3.3.3.4.2v-.2l.1.2c.1-.1 0-.4.2-.3 0 .1 0 .1.1.2.2-.2.4-.5.6-.3l.2.3c.1 0 .2-.2 0-.3.4.1.6.1.7.3.5-.7 1.4-.8 2.1-.9v.1c.2.1.1-.3.2-.2 0 .1.2.3.1.5.3.1.3-.3.5-.4 0-.2-.1.1-.1-.1 0-.1.4.1.4-.2.1.1.1.3 0 .4l.1-.2c.2.3-.4.7-.1 1.1l.1-.1c.2.3-.3.4 0 .4.1-.2.2-.6.1-.7.3-.1.1-.7.4-.7.1.2-.3.1-.2.3.2.2.3-.2.5-.1-.2-.1-.1-.4 0-.5.2.1-.1.3.2.3 0-.2.2-.3 0-.4 0-.4.3.1.4-.2.1.3-.2.7.1.7-.1-.2.3-.4.1-.8.1.1.2.3.1.4.2.1.3-.5.4 0v-.3c.1.1.1.1.2.3.1 0 .4-.4.4 0 0 0 .4-.1.2-.3-.2-.1-.2.2-.4-.1.2.3.3-.1.4-.2v.1c.1-.1.2-.1.2-.2 0 .1 0 .2.1.2v-.2c.3-.2.1.4.4.3l-.2.2s.2.2.3.1c0-.2.1-.5.1-.7.1-.1.1.2.2 0l-.2.3c0 .1.2.3.4.3.1-.1.3-.4.1-.5.1 0 .3.1.2.3.2-.1-.1-.2.1-.4.1.1.4.3.6.5l-.2.4h.1c-.1.3.1.2.1.5.1 0 .2-.1.3-.2-.3-.4.2-.7.1-1.1.4-.2.4 1 .7.3-.1-.1.1-.5-.2-.3.2 0 .1-.5.4-.3-.2.2.3.4 0 .7 0-.1-.2-.1-.2 0 .1.2 0 .4.3.4.1-.1.3-.1.3-.3 0-.2-.2.1-.2-.2.3-.1.4.2.4-.2-.2.1-.3-.2-.3-.4l.2-.1v.2c.4.1.1-.3.4-.3l.2.3c0 .3-.5-.1-.4.4.2 0 .3-.3.5-.2l-.1.1c.1 0 .3.6.5.2.1-.2 0-.2 0-.3.3-.1.4-.3.6-.4 0 .3.4 0 .2.4-.1-.2-.7-.1-.7.3.2.4-.3 0-.3.4.3 0 .3.4.4.6.1 0 .1-.1.2-.2 0-.2-.1-.2-.1-.5.3 0 .6-.2.7-.4.1.1.1.3 0 .4.4-.1.8-.2 1.1-.1-.3-.4.4-.2.2-.5-.2-.1-.4-.3-.3-.5.1 0 0 .2.1.2.1-.2.3.3.4-.1-.3.2 0 .5 0 .8.2-.2 0 .2.3.2.2-.2.5-.4.8-.5.4.2.9-.1 1.2-.2.2.1.1.5.3.5.2 0-.2-.4.1-.2v.1c.1-.1.6.1.6-.4v.4c.1 0 .1-.1.1-.1 0 .1.1.2 0 .3.2.2.4-.1.6-.1l-.2-.2c.3-.2.6-.1.9-.2v.2l.2-.2c0 .2.2.3.3.1l-.4.6c-.2-.1.1-.3 0-.5s-.4-.1-.4.2c.1 0 .1 0 .2-.1.1.3-.1.3-.1.5.1 0 .2.1.2 0-.1.2-.2.2-.4.3.1-.1-.1-.2-.1-.3 0 .3-.2.4-.4.4-.2-.3-.4.3-.8.2.1-.3.2-.5.4-.7-.2-.1-.2 0-.4-.1-.1.2-.1.5-.3.7v-.2c-.2.1-.2.4-.4.4-.5 0-1 .1-1.3.1v-.2c-.1.5-.6.3-.9.5-.5-.1-1 .3-1.3 0-.8.3-1.5.5-2.3.6l.1-.3c-.1.2-.1-.2-.3-.1.2.2-.2.3-.2.5-.4-.2-.9.1-1.2.4v-.2c-.3.4-.7.2-1.2.2-.1-.1-.2-.3-.3-.2-.2.4-.3.4-.6.6-.2 0-.7 0-.9-.1-.9.6-1.8.4-2.8.8l-.1-.2c-.9.6-2.1.3-2.8.7v-.4c-.3-.1-.6.2-.5.5-.3-.1-.6.3-.8 0-.3 0-.3.2-.5.3-.5-.1-.7 0-1.2.1h.1c0-.1 0-.3-.1-.3-.2.1-.7 0-.4.4-.5-.2-1.2.4-1.7.1.1.1-.1.2-.1.3-.5.1-1-.2-1.3.1-.1-.1.1-.2-.1-.2-.1.1 0 .2-.1.3-.7.3-1.5-.1-2.2.1-1.2.4-2.4.4-3.5.6v-.1c-.3.4-.9-.3-1.2.3-.1-.1-.3 0-.3-.2-.3.3-.9-.2-1.3.2 0 0 .1 0 .1-.1-.5-.2-.8.2-1.3 0 0 0 .1-.1.1-.2-.2-.2-.4.5-.5 0-.1 0-.1.2 0 .2-1-.1-2.1.3-3.2.5-.8-.2-.1-.8-.7-.4-.1-.1 0 .2 0 .1-.2.2-.4-.5-.5-.2.1.3-.1.2-.1.3-.5-.2-.6-.4-.9-.2v-.2c-.4.5-.9.3-1.2.8-1.2.1-2.4.3-3.5.5-1.2.2-2.3.3-3.5.4-2.3.1-4.6.3-6.9.2-.6-.4-.6-.4-1.2-.2 0-.1.1-.1 0-.1 0 .3-.4 0-.5.4h-2.6c.1 0 .2-.3 0-.3l-.2.2v-.1c-.1 0-.2.2-.1.3-1.1.1-2.2.1-3.4-.1-1.1-.2-2.2-.4-3.3-.4-.5-.2-1.3-.1-1.9 0-1.7-.6-3.1-1.1-4.9-1 .3.3.6-.5 1.4-.7zM274.7 147.5c-.1-.2-.3-.2-.2-.4.1.1.2.3.2.4z"/><path class="st1" d="M269.3 146.7l-.1-.1c.1 0 .1-.2.2-.1-.1 0-.1.1-.1.2zM268 146.8c0-.1.3-.3.4-.3l-.4.3zM266.7 146.4c-.1-.1-.1-.2 0-.2v.2zM266.7 146.7c-.1 0-.2-.1-.2-.1 0 .1.2-.1.2.1zM263.9 146.7c-.1 0-.2.2-.3 0 .2.1.4-.2.3 0zM262.8 147.1h-.1c-.1-.1 0-.2 0-.2l.1.2zM240.4 150.5l.1-.1v.1zM230.5 151.3c-.1.1-.1-.1-.1-.1.1 0 0 .2.1.1zM225.3 152.4v.3z"/></g><g><path class="st1" d="M130.9 305.7c-.9.1.5.1-.6.1.1-.1.3-.1.6-.1zM201 313.3c-1.2-1-2.3-2.3-3.2-3.9-.9-1.5-1.7-3.2-2.5-4.6-.2-.4.2 0-.1-.8-.7-1.4-1.4-3.4-1.9-5.5s-.8-4.3-.9-6.3l.1.2c-.1-.7-.4-1.6-.4-2.4 0 0 .1.2.1.1-.1-.2-.2-1.4-.3-1.7 0-.3.1-.3.1-.7l-.2-.4c-.4-1.2-.2-3-.4-4.7 0 .1.1.2.1.1-.3-2.7-.2-6.2-.2-9.3 0 .1.1.2.2.1-.1-.2-.1-1.1-.1-1.9.2-.4-.1-1.4.1-2.4v.1c-.1-.7.2-1.1 0-1.6l.1-.4c-.2-.3.2-1 .1-1.6 0-.6.1-.8.1-1.4 0-1.2.2-1.9.1-1.9.2-.4 0 1.2.2.5.2-4 .6-8.1 1.1-12 .1-.4.2-.7.2-.8 0-.4.1-1.5.1-1.9 0 .1.1-.2.1-.5.1-.7-.1-.8.1-1.6 0 .3 0 .4.1.3 0-.7.1-1.6.1-2.4 0 .1 0 .3.1.3 0-.9.2-1.6.2-2.4l.1.3c.2-1.2-.2-.4 0-1.5 0 .3 0 .2.1.2-.1-1 .2-2.6.2-3.6 0 .1 0 0 0 0 .1-1.1.2-2.2.3-3.4.1-.4.2.2.3-1-.2 0 .1-2-.2-1.3.1-1 .2-2.5.2-3.2.1.4.2-.5.2.3l.1-.6c.1.1 0 .6.1.4v-2c-.1-.8-.3-1.5-.4-2.7.1.6.2-.3.2 0-.2-.6-.3-1.1-.5-1.7-.1-.4.1-.1 0-.7l-.2-.4c0-.1-.1-.5-.2-.9s-.2-.8-.2-.9c0-.2.3.6.2.2-.3-.7-.4-.7-.8-1.3-.2-.4-1.1-.8-.7-.5.3.2 0-.2.3.2-.3-.2-1.1-.6-1.7-.9.2.1.2 0 .3 0-.9-.3-1.9-.7-3-1 0 .1.4 0 .6.1-1.3-.6-2.9-.6-4-1 .2 0 .1.1.1.1-.7-.1-.6-.2-1.1-.3 0-.1-.6-.1-1-.1-.2 0-.1-.1.3 0-.7 0-3.3-.2-4.8-.4 0 .1-1 .1-1.3.1l.1-.1c-.3-.1-1.2-.1-1.2-.2-.8.1 2.9.1 1.9.1-.3-.1-1.4.1-1.2-.1-.7-.1-1.4 0-2-.1.2 0 .6-.1 0-.1h-1.6c0 .1-.9-.1-.5.1-.1-.1-1.4 0-1.3-.2l.1-.1c-.4 0-.7.1-1 .2-.1 0-.2 0-.1-.1-.1.2-1-.1-1.5.1-.9-.1-2.3-.1-2.7-.2-.7.1-1.3.1-2.1.1.2 0 .4 0 .4-.1-.5-.1-.6 0-1.1 0 .1 0-1-.1-1.5-.2-.7.1-.4.2-.5.3-.6-.2-1.9.2-2.7 0 .2 0 1-.1.4-.2-.6-.2-1.3.2-2.3.2l.3.2c-.5-.1-1.5.2-1.4 0-.3.1-1.2 0-1.1.2-1.7-.1-4.1.2-5.1 0-.2 0-.8.1-.7.1.4.1.5-.1.7 0-.2 0-.3.1-.3.1-.5 0-.9 0-.4-.2-1.2 0-1.2.4-2.6.4.1-.1-.1-.1-.5 0-.3.1-.5.1-.8.2-.9.1-.6-.1-.6-.2-.5.1-1.1.2-1.3.3h-.6c.5 0-.4.2-.6.3l.2-.1c-.1 0-.7.1-.9.2.1.1.7-.1 1-.1-.2.1-.6.2-.9.3.1-.2-.8.2-1.2.3-.4.1-.4.3-.6.3 0-.1-.7.3-.4 0 .1-.1.3-.1.6-.2-.3.1-.3-.1-.8.2-.4.2.2.2-.6.5.2-.1.2-.2.4-.3l-.8.3v.1h-.1c-.2.2-1.1.7-1.1.9-.3.3-.7.4-1.1.7l.1-.1c-.4.3-.9.7-1.1 1.1-.2.2-.6.6-.7.9-.5.5-.5-.1-.8.6-.4.6-.4 1-.2.8-.7 1-1.1 2.3-1.6 3.3v.4c-.6 1.7-.6 3.7-.7 5.1-.1-.5-.1 0-.2 0 .1.4-.1.5.1.7.1-.1.1 0 .2-.5.1 1.1.4 2.6.5 3.2 0-.3.1-.1.2.1-.2 0 0 .8.2 1.3l.1.1v.4c.1.2.3.2.3.8 0 0-.1.1-.1.2.3.6.6 1.4.7 2.1v.6c.1.3.3.7.2.2.2 1.2.4 1.9.4 2.3.8 1.9 1.6 4.7 2.1 7h-.1c.1.6.2.3.3.7-.1-.2 0 .5-.2 0 .1.9.4 1.1.6 1.7.1.1-.2-.4 0-.4.1.1.2 1.2.4 1.3 0 .2-.1.1-.2 0l.2.5c0 .7-.6-1.4-.7-.7l.1.5c0 .5-.5-1.3-.2 0 .2.5.5.9.5.4.3 1.1.5.4.7 1.7 0 .4-.2-1-.3-.7 0 .6.3 1.1.4 1.7-.1-.6.2-.1.3.2.1.6-.2-.4 0 .5.1.1.4.9.3.2.3.3.2.9.4 1.4-.1.3-.5-.8-.4.1.1-.2.4 1.2.5.6 0 .4-.1.4-.2.2 0 .6.5 1.3.3 1.5l.2.2v.7c.1.5.5 1.5.3 1.5.1.1.2 1.2.3.8 0-.7-.2-.8-.1-1.2 0 .5.2 1 .3 1.4l-.1.1c.1.2.1.8.3.9-.1-.2-.1-.1-.1.1l.2.2c.2.9-.2.3 0 1.2l-.2-.7c0 .2 0 .5.1.9.1.2.3.5.4.6.1.5-.1.3.1.8l-.2-.7c-.1-.1-.1.5 0 1.2.1.4.4 1.1.3.4.1.4.1.9-.1.6.2.8.1-.1.3.6v1.7l-.3-.7.1.5c-.2-.6-.1.3-.3 0 0 .3.1.7.2 1 .1-1 .5 1 .6.7.2 1.3-.4.9.1 2.2 0-.2.3.4.1-.4.1.8.3.5.3 1.5-.1-.7-.2.8-.4-.2.1.1 0-.6 0-.7 0 .3-.2 0-.1.8.1.5.1 1.2.2 1.1.1 0-.1-.8.1-.5.1 1 0 1.2.2 1.6-.1-.6 0-.8.1-.8l.1.7-.1-.1c0 1.2.2.3.3 1.5l-.1.6c-.1-.3 0-1.7-.3-1.5.1.8.2 1 .2 1.7 0-.2 0-.4-.1-.5 0 .3-.3.6-.1 1.6.1.6.1.1.2.2.1 1.2.2 1.6.2 2.4-.2-.2 0 1.4-.2.5.1-.4.1-2.2-.1-2.6-.2.5 0-1-.2-1.2 0 1-.2.9-.3 1.1 0 .3.1.5.1.7.1.1.1-.2.2-.3 0 1.1.1 2.1.2 2.7-.1.4-.2.2-.2-.2.1 1.3 0 2.7-.1 3.9.3-.8-.1 1.4.1.8.1-.7.3-1.2.3-.8 0 .4-.1 0-.1.2.1.5-.2.8-.1 1.3 0-1.2-.2-.3-.4-.5 0 .9-.1 0-.2.8 0 .9-.1 1.9-.2 2.9-.2.6-.3 1.3-.5 2s-.3 1.4-.5 2c-.3.5-.3.1-.5.7-.2.7.4-.4-.1.5v-.1c-.1.3-.8 1.7-.8 2.1v-.4c-.1.2-.2.3-.2.5-.1 0-.2.1-.1-.1-.4.5-.7 1.2-1.1 1.7.1-.1.2-.2.4-.3-.7 1-1.3 1.6-2.2 2.3v-.1c-.2.2-.4.3-.5.4.1-.2-.5.1-.8.3.5-.4 1-.7 1.3-1.2.4-.3-.3.4 0 .3.1 0 .4-.2.6-.5.2-.2.4-.5.4-.6-.3.3-.3.3-.5.6-.2 0 .2-.5.4-.7-.1.2-.4.3-.4.4.2-.3.5-.6.9-1.2-.2.4.2-.1.2 0-.1-.1.3-.7.7-1.4.2-.2.4-.6.6-1 .1-.4.3-.9.5-1.3 0 .4-.1.9-.3 1.5.3-.5.3-.6.6-1.2 0-.3-.1-.6.1-1.4h.1c.2-.7 0-.8.3-1.7.2-.8.4-1.6.5-2.3.1-.8.2-1.5.3-2.1h.1c-.2-.7.1-2.3.1-3.2.1-.8.1-1.6.1-2.4 0-.8 0-1.4.1-1.8 0-1.4-.2-2.7-.3-4-.1-1.3-.2-2.6-.3-4.1l.2.5c-.1-.5.1-.3 0-.8-.1.6-.2-.7-.4-1 0-1.3-.3-2.9-.6-4l.1-.1c-.4-1.1-.4-2.5-.6-3.9 0-.2.1-.4 0-.9-.3-.7-.4-1.1-.6-2.2-.2-.8-.4-2.2-.5-3-.4-1.5-.8-3.1-1.1-4.6-.4-1.6-.7-3.1-1.2-4.7l.1-.3c-1-3-1.8-6.8-2.6-9.4l.3.2c-.2-.8-.6-1.8-.6-1.6-.2-.8-.7-2-.7-2.6-.2-.8-.4-1-.6-1.7-.2-.9-.4-1.4-.5-2-.2-.6-.3-1.2-.4-2 0 .1 0 .3.1.4.1.2.2.2.1-.2-.1-.3-.1-.9-.1-1.3s-.1-.7-.2-.4c0-.9.1-2 .2-3 .2-1.1.4-2.1.8-2.9-.1.1 0-.3 0-.5.6-1.5 1.5-2.9 2.2-4 .2-.2-.2.4.3-.1.2-.3-.1-.1.2-.5.8-1.1 1.8-2 2.9-2.7 1.1-.7 2.3-1.2 3.4-1.7 3.9-1.7 8.3-1.9 12.1-2v.1c1.3-.2 3 .1 4.1-.2.3 0 1.2 0 .9.1 1-.2 2.9 0 4.4-.2h-.4c1.5.1 2.8-.1 4.4 0-.2 0-.5 0-.5.1.6.1 1.5-.2 1.8 0 .4 0 .3-.1 0-.1 3.5.1 7.2.1 10.8.3 2.6.4.1.4 2.2.4.2.1.1-.1.2 0 .8 0 1.2.4 1.8.3-.2-.2.4 0 .4-.1 1.6.2 1.9.4 3.1.5l-.1.1c1.5 0 3.2.4 4.5.5 1 .3 2 .6 3 1 .5.2 1 .5 1.4.7.4.2 1 .6 1.4 1.1.8.9 1.2 2 1.4 3 .3 1 .4 2 .5 3.1.3 4 .1 8-.3 11.9-.8 7.8-1.7 15.3-2.6 23.2-.4 1.8-.4 2-.5 4 0-.1 0-.2-.1-.1.2.1-.1 1.4 0 1.6-.3 2.9-.4 5.6-.5 8.6 0-.5-.1-.7-.1-.2l.1.6v.1c0 .4.1.8.1.4-.1 7.5-.3 14.9 1.1 22.1.3 1.7.9 4.1 1.5 5.8.8 2.7 1.7 5.1 3.1 7.4 1.3 2.3 3.1 4.3 5.3 6 0 0-.2 0-.6-.2-1.2-.2-1.9-.6-2.7-1.4zM131.9 305.4c.2 0 .8-.2.4.1-.1 0-.4 0-.4-.1z"/><path class="st1" d="M140.2 290.9s.1-.2.1-.3v.6c0-.2-.1-.2-.1-.3zM140.5 286.4c.1.1.1 1 .1 1.6l-.1-1.6zM140.7 282.2c0-.4.1-.3.1.2 0 0 0-.1-.1-.2zM140.6 281.9c0-.4 0-.5.1-.7-.1 0 0 .8-.1.7zM140 272.8c0-.2-.1-.7-.1-.9 0 .2.2 1 .1.9zM139.3 268.6c0-.1 0-.2-.1-.3 0-.3.1 0 .1.2v.1zM157.9 214.1l-.4.1.1-.1zM191 217c.4.1.2.2.3.2-.3-.2.2 0-.3-.2zM195 233v-.2l.1.1z"/></g></g><g><path class="st6" d="M275.3 322.5l-21.9-17.9-23.8 15.3 10.3-26.3-21.9-18 28.3 1.7 10.2-26.4 7.2 27.4 28.2 1.6-23.8 15.3z"/><path class="st1" d="M274.4 322.5c.8.6-.3-.6.6.3-.1.1-.4 0-.6-.3zM274.8 319.1c-1.6-3-2-7.5-3.4-10.9-.1-.4.4 0 .1-.9-.7-1.5-1.3-3.5-1.8-5.7-.3-1.1-.5-2.2-.7-3.3-.1-.5-.2-1.1-.3-1.6-.1-.5-.1-.9-.2-1.3.2-.1.5-.2.7-.3l-.1.2c.3-.2.5-.3.9-.7.3-.3.7-.6 1.1-.9 0 .1-.2.2.1.2.1-.3 1.3-.9 1.5-1.3.3-.1.4.1.8-.1l.3-.5c.8-1.3 2.9-1.8 4.3-3.1 0 .1-.2.2 0 .2 2.3-2 5.6-4 8.4-5.9 0 .1-.1.4.2.3 0-.3.7-.9 1.3-1.3.4-.1.6-.3.8-.5.2-.2.3-.4.9-.7h.1c-.1-.1.2-.3.5-.4.3-.1.6-.3.2-.3h.1c.1-.1.2-.1.3-.2-.7.2-.8.1-.9 0-.1-.1-.2-.2-.7-.1l-.2.1c-.7.1-.6-.1-1.2-.1-1.3 0-1.8-.2-1.9.1-.3-.3 1.2 0 .8-.4-4.4.1-8.9-.3-13.4-.5-.5-.2-.8-.2-.9-.3-.4 0-1.7 0-2.1.1.1 0-.3-.2-.5-.2-.8-.2-.9.3-1.8.1.4-.1.5-.2.4-.3-.8.2-1.8.1-2.7.1.1 0 .4-.1.3-.2-.9.2-1.6-.1-2.4-.1 0-.1-.1-.2-.1-.3.1.1.1.1.2.1-.1-1.4-.4-.1-.6-1.4.1.3.2.1.3.2-.6-1-1-2.8-1.3-3.8 0 .1.1 0 .1 0-.3-1.2-.6-2.4-1-3.6 0-.5.5 0 .1-1.2-.3.1-.7-2.1-.9-1.2-.2-1.1-.5-2.8-.8-3.4.3.4.3-.6.6.2v-.7c.2.1.1.7.3.4-.1-.4-.6-1.7-.7-2.1-.4-.8-1-1.4-1.4-2.7.3.6.3-.5.5-.1l-.6-.8c-.2-.3-.4-.6-.6-.7-.1-.3.2-.2 0-.7-.1.1-.2-.1-.3-.1 0-.2-.4-1.1-.2-1.9 0-.4.2.5.2-.2-.2-.7-.3-.5-.4-1.2v-.1l-.2-.6c-.1 0-.1.3-.1.8.1.3 0-.8.1 0-.1.2-.1.1-.2 0-.1.4-.2.7-.3 1 .1-.3.1-.6.1-1-.3 1.6-.5 2.4-.7 3.1.1.3-.1-.7 0-.7-.2.3-.4 1-.5 1.4 0 .2-.2.6-.3 1-.1.3-.3.7-.5 1 .1-.2.3 0 .2 0-.3.7-.5.6-.6 1.1-.2 0-.2.6-.3 1.1 0 .3-.1.1 0-.3-.1.7-1 3.5-1.8 5 .1 0 0 1.1-.2 1.4l-.2-.2c-.3.3-.5 1.2-.7 1.2 0 .9.9-3 .7-1.9-.3.2-.2 1.6-.4 1.2-.3.7-.3 1.5-.8 2.1.1-.2-.1-.7-.3-.1-.4 1 0 .3-.3 1.2l-.1.6c.2.1-.4.9 0 .6-.2.1-.5 1.5-.8 1.3l-.2-.2c-.2.5 0 .8 0 1.2 0 0-.1.1-.2.1.4.2-.4 1-.3 1.7-.3.6-.7 1.5-1 2.3-.9-.1-1.7-.2-2.1-.3-.3 0-.5 0-.7.1-.2 0-.4 0-.6.1-.4 0-.8 0-1.2-.1.2 0 .4 0 .5-.1-.5-.2-.7-.1-1.2 0 .1-.1-1.1-.3-1.7-.5-.8.1-.5.3-.6.5-.7-.5-2.2.2-3-.3.3 0 1.1-.2.5-.3-.7-.5-1.4.2-2.5 0l.3.4c-.5-.3-1.7.1-1.5-.2-.4.1-1.3-.2-1.2.2-1.8-.4-4.5-.1-5.6-.8-.3 0-.9-.1-.8.1.4.2.6-.1.8 0-.2 0-.3.1-.3.1-.6-.1-1-.2-.5-.4-.6-.1-1 0-1.2.1-.2.1-.3.3-.7.2-.1-.2-.2-.2-.4-.2-.1.1-.1.2-.1.2-.5-.1-.9-.4-1.3-.7-.3 0-.8 0-.5.2-.4-.1-.8-.3-1.3-.4.7.2.4.2.2.2.1.1.1.1.2.1l-.3-.2c-.3-.1.3.3.5.4.4.1.2-.1.2-.1.4.2.5.3 1 .5-.7-.3-.1.2 0 .3.1.2.7.3.7.3-.2 0 .3.2-.2.1-.1-.1.1-.1-.3-.2-.1.1-.5 0 .1.3.4.2.7 0 .8.2-.2-.1-.3-.1-.5-.1.1.1.2.2.3.4l.3-.1c0 .1-.1 0-.1.1.2 0 .3.1.5.2.1 0 .1.1.2.1.1.1.2.1.3.1.4.3.7.7 1 1.1h-.1c.3.5 1 .8 1.4 1h-.1c.2.2.8.6 1.2.8.5.6-.3.8.5 1.1.6.5 1.2.5 1 .1 1 1 2.4 1.7 3.2 2.8.2.1.1-.1.5.2 1.5 1.4 3.5 2.5 4.5 3.9-.5-.3-.2.1-.2.3.5.2.3.5.7.4.1-.2.2-.2-.2-.7.5.3 1.1.8 1.6 1.3.4.3.7.6 1 .9l.8.8c-.3-.4.1-.1.5.1-.1 0-.1.1-.1.1-.3.4-.7 1.3-.9 2.1l.1.2c-.1.2-.2.2-.4.4 0 .3.3.4-.1 1-.1 0-.2 0-.3.1-.1.7-.2 1.7-.6 2.4l-.5.5c-.1.3-.1.9.2.4-.6 1.1-1 1.9-1.3 2.2-.3 2.3-1.4 5.3-2.4 7.7l-.1-.1c-.4.6.1.4-.2.8 0-.3-.5.4-.4-.2-.5.9-.2 1.3-.4 1.9.1.2.1-.5.3-.3 0 .1-.6 1.2-.4 1.5-.2.2-.3-.1-.4-.2l-.1.6c-.6.6.1-1.8-.6-1.2l-.2.5c-.5.4.2-1.5-.4-.2 0 .3 0 .6.1.8.1.1.2.2.4 0-.2.8.6.4.4.9-.3.2.1-.4-.2-.2-.2.2-.2.3-.2.5 0 .1.1.2 0 .3.3-.4.6-.4.6-.4-.3.4-.4.1-.5.5.2-.1.4-.1.6-.5.3-.2.3-.2.2-.1-.1.1-.2.3.1 0-.3.3-.5.6-.8.8-.2.2-.4.4-.7.8.4-.5.5-.4.9-.9.1-.1.1-.2.3-.3 0-.1.1-.1.2-.3 0 0 0 .1-.1.1-.1.2-.5.6-.8 1-.1.1.3-.2.5-.4s.3-.3-.1.2l.4-.6c-.1.1-.1.2-.1.4l.4-.4c.1-.1.2-.1.1.1.1-.1.4-.3.3-.5-.1-.1-.1 0-.2.1 0 .1-.1.1 0-.2 0 .2 0 .1.1 0s.1-.3.1-.3v.2c0-.1.1-.1 0-.3 0 0 0 .1.1.1 0 0 0 .1.1 0l.1-.3c.8-.7.4.2 1.3-.4l-.6.6c.1-.1.5-.1.9-.5 0-.3.2-.7.3-.9.4-.4.4.1.7-.4l-.5.6c-.1.1.6 0 1.3-.4.4-.3.9-1 .1-.7.3-.2.9-.4.7-.1.7-.5-.2-.1.3-.7.3 0 1.3-.4 1.9-.5l-.5.7.4-.3c-.4.6.4 0 .2.5.3-.2.6-.5.9-.7-1.2.2.6-1.2.1-1.4 1.2-.9 1.3.4 2.2-1-.3 0 .1-.6-.6 0 .8-.4.3-.7 1.3-1.1-.6.6 1-.1.1.8 0-.2-.6.2-.7.4.4-.1.2.4 1-.1.5-.3 1.1-.8.9-.9-.2-.2-.7.5-.5.1.9-.7 1.3-.5 1.4-1.1-.6.4-.9.3-1 .1l.6-.5v.2c1.2-.6.2-.5 1.3-1.1h.7c-.1.4-1.6.9-1.2 1.2.7-.4.8-.8 1.5-1.1l-.4.4c.3-.1.8.2 1.6-.7.4-.4 0-.2 0-.4.9-.6 1.8-1.5 3.1-2.3-.1.1 0 .1.1.1.4.5 1.7 1.4.6.8-.1-.2-.3-.4-.6-.6-.5.3-1.3.8-1.9 1.2-.1.1-.3.2-.4.3-.1.1-.2.1-.2.2-.1.1-.2.3-.3.4.6.1-.9.5-.9 1 .9-.6 1.1-.2 1.4-.1.3-.1.4-.4.6-.5 0-.3-.4-.1-.5-.3.2-.1.3-.2.5-.3.2-.1.4-.3.6-.4.4-.3.8-.6 1.1-.8.4.3.9.5 1.2.7.4.5.1.6-.4.2.4.3.7.6 1.1.8l.8.7c.6.5 1.1.9 1.6 1.4-.4-.9 1.2.9 1 .2-.5-.5-.8-1.1-.4-1 .3.3-.1.1 0 .3.6.2.5.8 1.1.9-1.1-.7-.5.2-.9.3.8.5-.2.1.5.7.8.5 1.8 1.1 2.7 1.7.8 1.1 2.6 2.1 3.5 2.8.4.5-.2.5.3 1 .6.5-.2-.7.6.2h-.1c.3.2 1.5 1.5 2.1 1.3l-.5.1c.1.2.4.2.5.3-.1.1 0 .3-.3.2.4.7 1.2.9 1.8 1.4l-.2-.5c1.1.7 1.7 1.4 2.7 2.2l-.2.1.7.4c-.3 0 .2.6.6.7l-1.9-.8c-.3-.4.6.2.5-.2-.1-.3-1.1-1-1.3-1 .3.3.4.3.7.4-.1.3-.6-.1-1-.2.2.1.4.4.5.4-.5-.2-.8-.5-1.4-.9.5.2-.1-.3.1-.3-.2.2-.8-.2-1.5-.9-.3-.7-1.5-1-2.3-1.8.5.1 1.1.3 1.7.6-.5-.5-.6-.5-1.1-1-.4-.1-.8 0-1.6-.4l.1-.2c-.7-.4-.9-.2-1.7-.9-1.3-1.2-2.8-2.4-3.8-3.3l.1-.2c-.9-.1-2.1-1.5-3-2-.5-.6-1.2-1.1-1.8-1.5-.2-.2-.5-.4-.7-.5-.2-.1-.3-.3-.4-.4h-.2c-.2.2-.4.3-.7.5l-.9.6c-.6.4-1.2.8-1.8 1.3-1.2.8-2.4 1.6-3.8 2.5l.3-.5c-.4.5-.4.1-.9.4.7-.1-.5.7-.7 1-1.3.6-2.7 1.8-3.7 2.6l-.2-.1c-.9 1-2.3 1.6-3.7 2.4-.2 0-.5 0-.9.3-.5.7-1.1 1.1-2.7 2.3-1.2.8-3.1 1.9-4.1 2.4-.7.6-1.5 1.1-2.2 1.6.6-1.8 1.5-4.1 2.3-6.3.4-1.1.8-2.2 1.3-3.3.3-.7.5-1.4.7-2.2l.3-.2c.8-3.4 2.8-7.3 3.6-10.2l.3.4c.5-.8.7-2 .3-1.9.5-.8.7-2.3 1.2-2.7.4-.9.3-1.2.5-1.9.2-.2.2-.4.3-.5l-.3-.3c-.3-.2-.6-.5-1-.8l.3.3c.2.1.3-.1 0-.4-.6-.3-1.9-1.7-1.6-.9-1.3-1.4-3.6-2.7-4.9-4.2 0 .2-.3-.1-.6-.1-1.3-1.1-2.5-2.4-3.7-3.1-.2-.2.5.1 0-.4-.3-.2-.1.1-.6-.1-1.1-.8-2.2-1.7-3.2-2.6l-.4-.3-.6-.6c-.4-.4-.9-.8-1.3-1.1-.8-.7-1.6-1.4-2.5-2.1-1.5-1.2-3.1-2.4-4.7-3.7 2.9.1 5.9.3 8.9.5 2.1.1 4.2.2 6.2.4l-.1.1c1.4-.3 3.3.6 4.5.1.3.1 1.3.1 1 .3 1.1-.2 3.2.4 4.8.2h-.4c1.6.3 3.1.1 4.9.4-.2 0-.5 0-.6.1.7.2 1.6-.3 2 .2.4 0 .3-.2.1-.2.3 0 .7.1 1 .1l.2-.4.3-.9c.3-.8.6-1.6.8-2.3.5-1.6 1.1-3.1 1.6-4.7 1.3-2.6.8.1 1.3-2.1.2-.1-.1-.2 0-.2.2-.9 1-1.1 1-1.7-.4.1 0-.4-.2-.5.8-1.6 1.2-1.8 1.5-3.2l.1.2c.1-.8.4-1.7.6-2.5.2-.6.7-2.1.9-3.4 1.1-3 2.3-6 3.4-8.8.8 3.1 1.7 6.1 2.5 9.2.3 1.2.7 2.5 1 3.7l.7 2.5c.9 3.3 1.9 6.7 2.8 10.1.5 1.9 1 3.8 1.4 5.6 2.5.1 5.1.3 7.6.4 3.1.2 6.1.4 9.2.7 1 .3 1.6.4 2.1.4h3.3c-.2.1-.5.1-.2.1.2-.2.9-.1 1.7-.1.8 0 1.5.1 1.9-.1 2.4.1 4.7.3 7 .4-3 2-6 3.9-9.2 6 .8-.6.9-.9 0-.3l-.8.8h-.2c-.2.1-.3.2-.4.3l-.2.2c-.1.1 0 .2.2.1-3 2.1-6 3.9-9.1 5.8-2.7 1.6-5.3 3.2-8 4.8 0 .1 0 .1.1.3l.4 1.6c.4 1.9 1.2 4.5 1.8 6.6 1.2 6.2 2.2 11.7 4.1 17.7.2-.1-.8-.7-1.7-3.2z"/><path class="st1" d="M273.5 321.8c-.1-.3-.6-.8 0-.6-.1.1.1.5 0 .6zM259.5 308.2c-.1 0-.2-.2-.2-.3.2.1.5.2.5.4-.1-.2-.1-.1-.3-.1zM255.8 305c.2-.1 1 .5 1.5.9l-1.5-.9zM250.3 304.5c-.4.1-.3 0 .1-.3 0 .1-.1.2-.1.3zM250.2 305c-.3.2-.5.2-.7.3 0 0 .6-.6.7-.3zM241.5 310c-.2.1-.6.5-.8.5.2 0 .8-.8.8-.5zM237.7 312.7c-.1.1-.2.1-.3.2-.3.1-.1-.2.1-.3l.2.1zM235.6 277.7l-.6.1.1-.1zM256 255.3c.1-.5.1.2.1.2-.1.2 0-.6-.1-.2zM260.8 268.7v-.2h.3z"/></g><g><path class="st6" d="M103.9 98.7l-36-16.6L41 111.2l4.6-39.4L9.5 55.2l39-7.7L53.1 8l19.4 34.7 38.9-7.8L84.5 64z"/><path class="st1" d="M102.8 98.7c1.4.5-.6-.6.9.3-.2.1-.5 0-.9-.3z"/><path class="st1" d="M101.9 94.3c-3-3.7-5.3-9.5-8.2-13.7-.3-.5.4-.1-.3-1.2-1.4-1.9-2.9-4.4-4.4-7.2-.7-1.4-1.5-2.8-2.2-4.2-.7-1.4-1.4-2.9-1.9-3.9.3-.3.5-.5.8-.7l-.1.3.5-.5c.2-.2.4-.5.6-.8.4-.5.8-1.1 1.2-1.5.1 0-.2.4.1.2 0-.4 1.4-1.7 1.6-2.2.4-.3.5-.1 1-.5l.3-.7c.9-1.9 3.2-3.4 4.8-5.6 0 .1-.2.4 0 .2 2.6-3.4 6.3-7.3 9.4-10.9-.1.2-.1.5.2.3 0-.2.2-.6.5-1s.8-1 1.1-1.4c.3-.1.6-.5.9-1 .3-.4.5-.8 1.1-1.3h.1c0-.2.3-.5.6-.8.3-.3.6-.6.3-.5h.1v-.2c-.7.4-.9.3-1.1.3-.2 0-.5-.1-1.1.1l-.1.1c-.8.3-1 .1-1.7.3-.4.1-.8.2-1.1.2-.4.1-.7.1-.9.2-.5.1-.7.2-.7.3-.7-.1 1.8-.5.7-.6-6 1.5-12.2 2.7-18.3 3.9-.7 0-1.2.1-1.3 0-.6.2-2.3.5-2.8.8.2 0-.4-.1-.8 0-1.1.1-1.1.6-2.4.7.5-.2.6-.3.4-.4-1 .5-2.4.7-3.6 1 .2-.1.5-.2.4-.3-1.1.5-2.2.4-3.2.7-.1-.1-.2-.2-.2-.3.1.1.2.1.3.2-.7-1.7-.6-.2-1.3-1.8.2.3.2.2.3.2-1.1-1.2-2.2-3.4-3.1-4.7.1.1.1 0 .1 0-.9-1.5-1.6-3-2.7-4.6-.3-.6.5 0-.4-1.6-.3.2-1.6-2.6-1.5-1.5-.7-1.4-1.8-3.5-2.4-4.4.5.5 0-.9.7.2l-.3-.9c.2 0 .4.9.5.5-.3-.6-1.4-2.1-1.6-2.6-.8-.9-1.7-1.7-2.7-3.3.6.7.1-.6.5-.1l-1.9-2c-.3-.5.2-.3-.3-1-.1.1-.3-.2-.5-.4l-.2-.4-.3-.6c-.2-.4-.4-.9-.4-1.3-.1-.4.5.7.2 0-.5-.9-.6-.7-1-1.6v-.1c-.2-.4-.4-.7-.5-.8-.1-.1-.1.2.1.7.2.4-.2-.8.2.1-.1.1-.2 0-.3-.2 0 .5-.1 1-.1 1.3 0-.4-.1-.6-.1-1 .1 1.9 0 2.9 0 3.9.1 0 0-.1-.1-.2s-.1-.4-.1-.4c0 .2-.1.3-.1.5v.7c-.1.6-.1 1.1-.1 1.7-.1 1.1-.1 2.2-.4 3.1 0-.3.3-.1.2-.1-.1 1.1-.4 1-.4 1.7-.2.1-.1.9-.1 1.6.1.4-.1.2 0-.5 0 1-.2 5.1-.7 7.4.1 0 .2 1.5.1 2l-.4-.2c-.2.5-.2 1.8-.4 1.9.1 1.2.3-4.4.3-2.9-.2.4.1 2.2-.2 1.8-.1 1.1 0 2.2-.3 3.2.1-.3-.2-.9-.3 0-.1 1.5.1.4 0 1.7v.8c.2.1-.2 1.4.1.8-.2.2-.1 2.2-.5 2l-.2-.3c-.1.7.2 1.1.2 1.7 0 .1-.1.3-.2.2.4.2-.2 1.6 0 2.4-.1.5-.3 2-.5 3.1-.6.1-1.2.2-1.7.3-.2 0-.5.1-.7.1h-.3c-1 .3-2 .7-3.2.8.2-.1.6-.2.6-.3-.8 0-.9.2-1.6.4.1-.1-1.6 0-2.4.1-1 .3-.6.5-.7.7-1-.2-2.9.9-4.2.7.4-.1 1.5-.5.6-.5-1-.2-1.9.7-3.5.8l.5.3c-.7-.1-2.2.7-2.1.3-.5.2-1.8.2-1.6.6-2.6.2-6.1 1.4-7.8 1.1-.4.1-1.3.3-1 .4.6.1.8-.3 1.1-.2-.4 0-.4.1-.5.1-.8.1-1.4.2-.7-.3-1.8.1-1.7 1-3.9 1.3 0-.2-.1-.2-.4-.1-.2.1-.3.2-.4.3-.7.1-.9-.2-1.2-.3-.4.1-1.1.3-.9.4h-1.5c.9 0 .4.1.1.2.1 0 .2.1.3.1l-.3-.2c-.2 0 .5.3.9.4.3 0 0-.2-.1-.3.5.1.7.2 1.3.4-.7-.1.2.3.4.4.3.2.7.1.8.1-.2.1.5.2 0 .2-.2 0-.1-.2-.4-.2.1.1-.2.3.5.4.5.1.3-.4.8 0h-.5l.3.2.6.3.1-.2c.1.1 0 .1.1.2.5 0 1.9.8 2.2.7.6.3 1.2.7 1.8 1h-.1c.6.4 1.6.8 2.3.9h-.1c.4.2 1.3.6 1.8.7.9.6 0 .9 1.2 1.2 1 .4 1.7.3 1.4 0 1.7 1 3.9 1.5 5.4 2.6.3 0 .2-.1.7.1 2.6 1.3 5.6 2.3 7.5 3.6-.8-.3-.1.2-.2.3.7.1.7.5 1 .3 0-.2.1-.3-.6-.7.8.3 1.8.7 2.7 1.2l.6.3c.2.1.5.2.7.4.6.3 1.1.6 1.4.7-.6-.4 0-.2.6 0-.1 0-.1.1 0 .2-.1.3-.2.8-.3 1.3-.1.5-.1 1.3-.1 1.6l.2.2-.3.6c0 .4.4.4.1 1.4-.1 0-.2.1-.2.3 0 1 .2 2.4-.1 3.4l-.4.8c0 .5.1 1.2.2.5-.4 1.8-.5 3-.9 3.5.2 3.2-.3 7.7-.7 11.3l-.1-.1c-.3 1 .2.5 0 1.2-.1-.3-.4.7-.5-.1-.3 1.4 0 1.8 0 2.7.2.2 0-.7.2-.5.1.2-.4 1.9-.1 2.2-.2.3-.3 0-.4-.2v.9c-.5 1-.3-2.4-.9-1.4v.8c-.4.7-.1-2.1-.4-.2 0 .9.4 1.7.6.9-.1.9.1 1.1.2 1.4.1.1.1.2.2.5V104.8c-.1.1-.1 0-.1-.5 0-.4.1-.8-.1-.7-.1.2-.1.4-.2.7v.5c0 .2.1.4 0 .6.2-.4.4-.2.5-.2-.1.2-.2.2-.2.2-.1 0-.1 0-.1.3.2-.1.3 0 .5-.4.2-.2.2-.2.1 0-.1.1-.1.3.1 0-.2.3-.4.7-.5.9-.2.2-.3.4-.4.9.3-.5.3-.3.6-.9l.2-.4c0-.1.1-.2.1-.3v.1c-.1.2-.3.7-.5 1.2 0 .1.3-.3.4-.6.1-.3.2-.4.1.1l.2-.6c0 .1 0 .2.1.3.1-.1.2-.4.3-.5.1-.2.2-.2.3 0-.2.1 1.1-1.3.4-.9-.2.2-.4.3-.5.4l-.1.1c0 .1-.1.1-.2 0 .1.1.1.1.1 0l.1-.1c.2-.3.4-.6.5-.9h.2c.2-.3.8-.9.8-1.2-.1.3.1.2.3 0l.1-.4c.9-1.2.5 0 1.5-1.1l-.6.9c.1-.2.6-.4 1-1 0-.3.2-.9.2-1.2.5-.7.4-.1.8-.8l-.5 1c-.1.2.7-.3 1.5-1.1.4-.6.9-1.6.1-.8.4-.4 1-.9.8-.5.8-1-.3 0 .4-.9.4-.2 1.5-1.1 2.2-1.6l-.9 1.2.5-.5c-.4.9.5-.2.3.4.4-.3.7-.9 1-1.3-1.4.8.6-1.7 0-1.7 1.3-1.6 1.7-.2 2.6-2.2-.3.2.1-.8-.7.2.9-.9.3-.9 1.4-1.9-.6.9 1.1-.6.2.8 0-.2-.7.6-.8.8.5-.3.3.4 1.1-.6.5-.6 1.2-1.4 1-1.5-.2-.1-.8.9-.6.4 1-1.2 1.5-1.2 1.6-1.9-.7.8-1 .8-1.1.6l.7-.9v.3c1.3-1.3.1-.6 1.4-1.9l.8-.4c-.1.5-1.9 1.8-1.3 1.9.8-.8.9-1.3 1.7-2-.1.2-.4.5-.5.7.3-.3 1-.2 1.9-1.7.5-.7 0-.3-.1-.4.6-.7 1-1.2 1.3-1.6l.1-.1.1-.1.2-.3.4-.5c.3-.4.6-.7 1-1.1 0 .1 0 .1.2 0 .7.4 2.8 1.3 1.1.8-.2-.1-.6-.4-1.1-.6-.3.3-.7.7-1 1.1l-.6.6-.3.3-.2.2c-.4.5-.7 1-.8 1.2.8-.2-1 1-1 1.6 1-1.1 1.3-.8 1.6-.8.3-.3.5-.7.6-.9-.1-.3-.4.1-.6 0l.5-.5.6-.6c.4-.5.9-1 1.3-1.5.7.3 1.4.5 1.9.6.1.1.2.1.2.2l.1.1v.1c-.1.1-.3 0-.8-.2.5.2 1 .4 1.6.7l1.5.5c.9.4 1.8.9 2.7 1.3-.9-.9 2 .8 1.3.1-.9-.5-1.6-1.1-1-1.1.6.3-.1.2.1.3.8.1 1 .8 1.9.9-1.7-.6-.5.3-1 .4 1.3.4-.1.2 1 .7 1.3.4 2.8.9 4.1 1.5 1.5 1 4.2 1.9 5.7 2.6.7.5 0 .6.9 1 1 .4-.6-.7.8.1h-.2c.5.1 2.6 1.5 3.2 1.2l-.6.1c.3.2.5.2.8.3 0 .1.2.4-.2.2.8.7 1.9.8 2.9 1.3l-.4-.2c1.8.6 2.8 1.3 4.5 2l-.1.2 1 .3c-.3.1.5.6 1.1.7l-2.7-.7c-.6-.4.9.1.5-.3-.3-.3-1.8-1-2.2-.9.6.3.6.3 1.1.4.1.4-.8 0-1.3-.1.3.1.7.4.8.4-.7-.1-1.3-.4-2.3-.8.7.2-.3-.3 0-.3-.2.2-1.2-.1-2.4-.8-.7-.7-2.4-.9-3.8-1.6.7 0 1.5.2 2.4.4-.8-.5-1-.4-1.8-1-.5 0-1 .1-2.2-.3v-.2c-1.1-.4-1.2-.1-2.5-.8-2.3-1.1-4.6-2.2-6.3-3.1V87c-1.2-.1-3.3-1.3-4.7-1.8-1.9-1-4.6-2-5.1-2.4 0 .2-.1.2-.2.3-.6.7-1.2 1.5-1.8 2.2-.7.8-1.3 1.6-2 2.3-1.4 1.5-2.7 3.1-4.3 4.7l.3-.8c-.4.7-.5.3-1 .9.8-.5-.5 1-.8 1.5-1.5 1.3-3.1 3.4-4.1 4.8l-.2-.1c-.9 1.6-2.6 2.9-4.2 4.5-.2.1-.6.3-1.1.8-.6 1.1-1 1.6-2.1 3l-1.1 1.1c-.4.4-.9.9-1.3 1.4l-2.3 2.3c-.8.9-1.6 1.9-2.4 2.8.2-2.8.6-6.2 1-9.5.1-1.1.2-2.3.4-3.4.1-1.1.2-2.1.3-3.2l.3-.3c.1-4.9 1.2-10.9 1.5-15.1l.4.4c.3-1.3.2-3-.1-2.7.3-1.3.2-3.3.6-4.1.2-1.3 0-1.7.1-2.8 0-.2.1-.5.1-.7 0-.1 0-.1.1-.2 0-.1.1-.2.1-.3-.1 0-.2-.1-.3-.1-.1-.1-.3-.1-.4-.2-.6-.2-1.2-.5-1.9-.8l.6.3c.3 0 .4-.1-.2-.4-.9-.3-3.1-1.6-2.5-.7-2.3-1.4-5.8-2.4-8.1-3.9.1.2-.5 0-.8-.1-2.2-1-4.3-2.3-6.1-2.9-.3-.2.6 0-.2-.4-.5-.2-.1.2-.8-.1-1.8-.7-3.6-1.6-5.3-2.4-.8-.4-1.7-.9-2.5-1.3l-.6-.3c-.4-.2-.7-.3-1-.5l-2.1-.9c-2.4-1.1-5-2.2-7.6-3.3C10.6 53.3 17 52 23 50.8v.1c1.9-.8 4.7-.5 6.1-1.4.5 0 1.8-.3 1.5-.1 1.5-.6 4.4-.6 6.6-1.4-.2 0-.3.1-.6.2 2.3-.2 4.3-.9 6.7-1.2-.2.1-.7.2-.7.3 1 0 2.1-.8 2.7-.5.5-.1.3-.3 0-.2l1.8-.3.3-2.4c.1-1.1.2-2.3.3-3.5l.6-6.9c.7-3.9.8-.2.8-3.3.1-.2-.2-.2-.1-.2 0-1.2.7-1.8.6-2.7-.3.3-.1-.6-.3-.6.5-2.4.8-2.9.8-4.8l.1.2c-.2-2.3.4-4.9.1-6.8.5-4.3 1-8.5 1.4-12.6 2.1 3.7 4.3 7.5 6.4 11.2 1.2 2.1 2.5 4.2 3.7 6.4 2.4 4.2 4.9 8.5 7.3 12.7 1.4 2.6 2.9 5.1 4.3 7.6 3.7-.7 7.4-1.5 11.1-2.2 4.2-.8 8.5-1.6 12.8-2.4 2.9-.2 3.1-.2 6.2-1-.1.1-.3.1-.1.2 0-.1.2-.2.4-.2.1 0 .2-.1.4-.1s.3-.1.5-.1c1-.2 2.1-.4 2.4-.7 3.3-.7 6.5-1.3 9.7-1.9-3.1 3.4-6.2 6.8-9.5 10.4.5-.6.5-1-.1-.4l-.5.8h-.2c-.4.5-.7 1.1-.2.7-3.3 3.8-6.8 7.5-10.3 11.1-3.2 3.3-6.3 6.6-9.4 9.8l.1.2.4.7 1.1 2c1.2 2.4 3.2 5.8 4.7 8.3 3.9 7.9 7.5 14.9 12.1 22.5.2-.3-1.1-.9-3.1-4z"/><path class="st1" d="M101.2 98c-.2-.3-1.1-.8-.3-.6.1.2.5.6.3.6zM77.2 85.1c-.1 0-.3-.2-.4-.3.3.1.7.1.9.3h-.5zM70.9 82.1c.2-.1 1.6.4 2.4.8l-2.4-.8zM64.1 83.5c-.5.3-.4.2.1-.4.1.1-.1.3-.1.4zM64 84.1c-.4.4-.6.5-.8.7.1 0 .7-1 .8-.7zM54.1 94.1c-.2.3-.6.9-1 1 .4-.1 1.1-1.3 1-1zM49.9 99.1c-.2.1-.2.2-.4.4-.3.2-.1-.1.1-.4h.3zM34 51.5l-.7.2.1-.2zM53.6 12.7c0-.6.1.1.2.1 0 .3-.1-.5-.2-.1zM65.3 30.6l-.1-.2.3-.1z"/></g></g></switch></svg>