<svg version="1.1" id="Calque_1" xmlns="http://www.w3.org/2000/svg" x="0" y="0" viewBox="0 0 280 400" xml:space="preserve"><style>.st0{fill:#fff}</style><switch><g><path d="M55.9 299.8c0-5.2 3.8-8.9 9-8.9s7.3 3 7.3 4.6c0 2-2.6 2.3-2.7 2.2-.7-1.6-1.9-2.8-4.3-2.8-2.7 0-4.7 2.1-4.7 4.9 0 2.9 2 5 4.7 5 2.3 0 3.7-1.2 4.3-2.8.1-.2 2.7.1 2.7 2.2 0 1.6-2.2 4.6-7.3 4.6-5.3 0-9-3.7-9-9zM75.6 306.1v-21.6c0-.2.9-.6 1.9-.6 1.5 0 3.1.8 3.1 4v18.2c0 1.8-.9 2.3-2.2 2.3h-.5c-1.3.1-2.3-.5-2.3-2.3zM85 285.9c0-1.5 1-2.5 2.8-2.5s2.8.9 2.8 2.5-1 2.5-2.8 2.5-2.8-.9-2.8-2.5zm.3 20.2v-12.7c0-1.8.9-2.4 2.2-2.4h.5c1.3 0 2.2.6 2.2 2.4v12.7c0 1.8-.9 2.3-2.2 2.3h-.5c-1.3.1-2.2-.5-2.2-2.3zM107.3 312.8v-7.2c-1.1 2-3 3.2-5.5 3.2-4.6 0-7.9-3.6-7.9-9s3.3-9 8-9c2.6 0 4.6 1.2 5.6 2.8.4-2 1.8-2.6 3-2.6 1 0 1.9.4 1.9.6v21.1c0 1.8-.9 2.4-2.2 2.4h-.5c-1.5.1-2.4-.5-2.4-2.3zm0-12v-3.2c-.7-1.7-2.2-2.8-4.2-2.8-2.7 0-4.4 2-4.4 5s1.8 5 4.4 5c2.2.1 4.2-1.7 4.2-4zM128.4 305.8c-1.2 1.8-2.9 3-5.6 3-4.5 0-6.3-3.2-6.3-7.1v-8.3c0-1.8.9-2.4 2.2-2.4h.5c1.3 0 2.2.6 2.2 2.4v7.5c0 2.3 1.2 3.7 3.2 3.7 1.6 0 3-.9 3.7-2.2v-9c0-1.8.9-2.4 2.2-2.4h.5c1.3 0 2.2.6 2.2 2.4v14.5c0 .2-.8.6-1.9.6-1.1 0-2.5-.6-2.9-2.7zM136.8 299.9c0-5.2 3.7-9.1 8.9-9.1 5 0 8.5 3.5 8.5 8.5v.3c0 .9-.3 1.4-1.2 1.4h-11.8c.4 2.6 2.3 4.1 5 4.1 2.6 0 4-1.2 4.8-2.5 0-.1 2.4.2 2.4 2.2 0 1.9-2.6 3.9-7.4 3.9-5.6.1-9.2-3.4-9.2-8.8zm4.4-1.7h8.4c-.1-2.4-1.6-4-4-4-2.3.1-4.1 1.7-4.4 4zM156.8 306.6v-.3c0-1.1.3-1.5 1.1-2.3l7.6-8.9h-6.6c-1.4 0-2-.6-2-1.8v-.3c0-1.2.6-1.8 2-1.8h11c1.3 0 1.9.8 1.9 1.7v.2c0 1.1-.3 1.4-1.1 2.3l-7.8 9h7.2c1.4 0 2 .6 2 1.8v.2c0 1.2-.6 1.8-2 1.8h-11.4c-1.4.1-1.9-.7-1.9-1.6zM24.7 341.9c0-5.2 3.7-9.1 8.9-9.1 5 0 8.5 3.5 8.5 8.5v.3c0 .9-.3 1.4-1.2 1.4H29.1c.4 2.6 2.3 4.1 5 4.1 2.6 0 4-1.2 4.8-2.5 0-.1 2.4.2 2.4 2.2 0 1.9-2.6 3.9-7.4 3.9-5.5.1-9.2-3.4-9.2-8.8zm4.4-1.7h8.4c-.1-2.4-1.6-4-4-4-2.3.1-4 1.7-4.4 4zM44.1 335.4v-.3c0-1.2.7-1.8 2.1-1.8h.8v-2.2c0-1.6.8-2.4 2.2-2.4h.4c1.3 0 2.2.6 2.2 2.4v2.2h3c1.4 0 2 .6 2 1.8v.3c0 1.2-.6 1.8-2 1.8h-3v7.3c0 1.7.6 2.5 1.9 2.5 1 0 1.7-.5 2.2-1.2.1-.1 1.2.6 1.2 1.9 0 1.7-1.7 3.1-4.5 3.1-3.8 0-5.5-2-5.5-5.8v-7.8h-.8c-1.5-.1-2.2-.7-2.2-1.8zM66 341.8c0-5.4 3.3-9 8-9 2.5 0 4.4 1.1 5.5 2.6v-8.9c0-.2.9-.6 1.9-.6 1.5 0 3.1.8 3.1 4v18.2c0 1.8-.9 2.3-2.2 2.3h-.5c-1.3 0-2.2-.5-2.2-2.3v-.6c-1.1 2-3 3.2-5.5 3.2-4.8.1-8.1-3.5-8.1-8.9zm13.4 1v-3.3c-.7-1.7-2.2-2.7-4.2-2.7-2.7 0-4.4 2-4.4 5s1.8 5 4.4 5c2.3.1 4.2-1.6 4.2-4zM87.9 341.9c0-5.2 3.7-9.1 8.9-9.1 5 0 8.5 3.5 8.5 8.5v.3c0 .9-.3 1.4-1.2 1.4H92.3c.4 2.6 2.3 4.1 5 4.1 2.6 0 4-1.2 4.8-2.5 0-.1 2.4.2 2.4 2.2 0 1.9-2.6 3.9-7.4 3.9-5.6.1-9.2-3.4-9.2-8.8zm4.4-1.7h8.4c-.1-2.4-1.6-4-4-4-2.3.1-4 1.7-4.4 4zm5.6-14.7c.6-.4 1.2-.6 1.8-.6 1.3 0 2.2.8 2.2 1.9 0 1-.6 2-1.7 2.7-2.7 1.6-6 1.6-6.3 1.2-.3-.4 1.7-3.7 4-5.2zM108.7 354.8v-21.1c0-.1.9-.6 1.9-.6 1.3 0 2.7.6 3 3 1.1-2 3-3.2 5.6-3.2 4.6 0 7.9 3.5 7.9 8.9 0 5.3-3.3 9-8 9-2.6 0-4.6-1.4-5.5-3.1v7.1c0 1.8-.9 2.4-2.2 2.4h-.4c-1.4 0-2.3-.6-2.3-2.4zm13.6-13c0-3-1.8-5-4.4-5-2.1 0-3.6 1.1-4.3 2.8v3.3c.1 2.3 1.9 3.9 4.3 3.9 2.7.1 4.4-2 4.4-5zM129.7 341.8c0-5.2 3.7-8.9 9.2-8.9 5.4 0 9.1 3.7 9.1 9s-3.7 8.9-9.2 8.9c-5.4 0-9.1-3.6-9.1-9zm13.9.1c0-3-2-5.1-4.8-5.1s-4.8 2.1-4.8 5.1c0 3 2 5.1 4.8 5.1 2.8-.1 4.8-2.2 4.8-5.1zM150.3 347c0-1.3 1.4-2.1 1.5-2 1.2 1.3 3.1 2.3 5.6 2.3 1.9 0 3-.6 3-1.6 0-1.3-1.4-1.5-3.7-2-2.3-.5-6-1.3-6-5.2 0-3.3 2.8-5.5 7.1-5.5 4.6 0 6.9 1.7 6.9 3.6 0 1.3-1.5 2.2-1.6 2.1-1.2-1.3-3-2.3-5-2.3-1.9 0-2.9.6-2.9 1.7 0 1.2 1.4 1.4 3.6 1.9 2.4.5 6.3 1.3 6.3 5.2 0 3.4-2.8 5.5-7.5 5.5-4.9 0-7.3-1.7-7.3-3.7zM168 341.9c0-5.2 3.7-9.1 8.9-9.1 5 0 8.5 3.5 8.5 8.5v.3c0 .9-.3 1.4-1.2 1.4h-11.8c.4 2.6 2.3 4.1 5 4.1 2.6 0 4-1.2 4.8-2.5 0-.1 2.4.2 2.4 2.2 0 1.9-2.6 3.9-7.4 3.9-5.6.1-9.2-3.4-9.2-8.8zm4.4-1.7h8.4c-.1-2.4-1.6-4-4-4-2.3.1-4.1 1.7-4.4 4zM188 348.6v-.3c0-1.1.3-1.5 1.1-2.3l7.6-8.9h-6.6c-1.4 0-2-.6-2-1.8v-.3c0-1.2.6-1.8 2-1.8h11c1.3 0 1.9.8 1.9 1.7v.2c0 1.1-.3 1.4-1.1 2.3l-7.8 9h7.2c1.4 0 2 .6 2 1.8v.2c0 1.2-.6 1.8-2 1.8h-11.4c-1.4.1-1.9-.7-1.9-1.6zM0 383.8c0-5.4 3.3-9 8-9 2.5 0 4.4 1.1 5.5 2.6v-8.9c0-.2.9-.6 1.9-.6 1.5 0 3.1.8 3.1 4v18.2c0 1.8-.9 2.3-2.2 2.3h-.5c-1.3 0-2.2-.5-2.2-2.3v-.6c-1.1 2-3 3.2-5.5 3.2-4.8.1-8.1-3.5-8.1-8.9zm13.5 1v-3.3c-.7-1.7-2.2-2.7-4.2-2.7-2.7 0-4.4 2-4.4 5s1.8 5 4.4 5c2.2.1 4.2-1.6 4.2-4zM22 387.8c0-3.9 3.5-5.7 11-5.8h.6c0-2.2-1.2-3.4-3.5-3.4-2.4 0-3.6 1.3-4.2 2.6 0 .1-3.2.2-3.2-2.1 0-2.1 2.5-4.2 7.7-4.2 5.4 0 8.1 2.5 8.1 7V392c0 .2-.9.6-1.9.6-1.6 0-2.6-.8-2.9-2.7-1.2 1.8-3.4 2.8-5.9 2.8-3.7 0-5.8-2-5.8-4.9zm11.5-2.2v-1h-.9c-3.9.1-5.9.9-5.9 2.7 0 1.3 1 2.1 2.7 2.1 2.4.1 4.1-1.5 4.1-3.8zM47.5 377.9c1.2-1.8 3-3 5.6-3 4.4 0 6.3 3.2 6.3 7.1v8.2c0 1.8-.9 2.3-2.2 2.3h-.5c-1.3 0-2.2-.5-2.2-2.3v-7.5c0-2.3-1.2-3.7-3.2-3.7-1.8 0-3.1.9-3.8 2.2v8.9c0 1.8-.9 2.3-2.2 2.3h-.5c-1.3 0-2.2-.5-2.2-2.3v-14.5c0-.1.9-.6 1.9-.6 1.3.1 2.6.7 3 2.9zM62.5 389c0-1.3 1.4-2.1 1.5-2 1.2 1.3 3.1 2.3 5.6 2.3 1.9 0 3-.6 3-1.6 0-1.3-1.4-1.5-3.7-2-2.3-.5-6-1.3-6-5.2 0-3.3 2.8-5.5 7.1-5.5 4.6 0 6.9 1.7 6.9 3.6 0 1.3-1.5 2.2-1.6 2.1-1.2-1.3-3-2.3-5-2.3-1.9 0-2.9.6-2.9 1.7 0 1.2 1.4 1.4 3.6 1.9 2.4.5 6.3 1.3 6.3 5.2 0 3.4-2.8 5.5-7.5 5.5-4.9 0-7.3-1.7-7.3-3.7zM87.9 390.1v-21.6c0-.2.9-.6 1.9-.6 1.5 0 3.1.8 3.1 4v18.2c0 1.8-.9 2.3-2.2 2.3h-.5c-1.4.1-2.3-.5-2.3-2.3zM96.4 383.9c0-5.2 3.7-9.1 8.9-9.1 5 0 8.5 3.5 8.5 8.5v.3c0 .9-.3 1.4-1.2 1.4h-11.8c.4 2.6 2.3 4.1 5 4.1 2.6 0 4-1.2 4.8-2.5 0-.1 2.4.2 2.4 2.2 0 1.9-2.6 3.9-7.4 3.9-5.5.1-9.2-3.4-9.2-8.8zm4.5-1.7h8.4c-.1-2.4-1.6-4-4-4-2.3.1-4.1 1.7-4.4 4zM123.9 396.8v-21.1c0-.1.9-.6 1.9-.6 1.3 0 2.7.6 3 3 1.1-2 3-3.2 5.6-3.2 4.6 0 7.9 3.5 7.9 8.9 0 5.3-3.3 9-8 9-2.6 0-4.6-1.4-5.5-3.1v7.1c0 1.8-.9 2.4-2.2 2.4h-.5c-1.2 0-2.2-.6-2.2-2.4zm13.7-13c0-3-1.8-5-4.4-5-2.1 0-3.6 1.1-4.3 2.8v3.3c.1 2.3 1.9 3.9 4.3 3.9 2.6.1 4.4-2 4.4-5zM144.9 387.8c0-3.9 3.5-5.7 11-5.8h.6c0-2.2-1.2-3.4-3.5-3.4-2.4 0-3.6 1.3-4.2 2.6 0 .1-3.2.2-3.2-2.1 0-2.1 2.5-4.2 7.7-4.2 5.4 0 8.1 2.5 8.1 7V392c0 .2-.9.6-1.9.6-1.6 0-2.6-.8-2.9-2.7-1.2 1.8-3.4 2.8-5.9 2.8-3.6 0-5.8-2-5.8-4.9zm11.6-2.2v-1h-.9c-3.9.1-5.9.9-5.9 2.7 0 1.3 1 2.1 2.7 2.1 2.4.1 4.1-1.5 4.1-3.8zM170.5 377.9c1.2-1.8 3-3 5.6-3 4.4 0 6.3 3.2 6.3 7.1v8.2c0 1.8-.9 2.3-2.2 2.3h-.5c-1.3 0-2.2-.5-2.2-2.3v-7.5c0-2.3-1.2-3.7-3.2-3.7-1.8 0-3.1.9-3.8 2.2v8.9c0 1.8-.9 2.3-2.2 2.3h-.5c-1.3 0-2.2-.5-2.2-2.3v-14.5c0-.1.9-.6 1.9-.6 1.2.1 2.6.7 3 2.9zM186.5 369.9c0-1.5 1-2.5 2.8-2.5s2.8.9 2.8 2.5-1 2.5-2.8 2.5-2.8-.9-2.8-2.5zm.3 20.2v-12.7c0-1.8.9-2.4 2.2-2.4h.5c1.3 0 2.2.6 2.2 2.4v12.7c0 1.8-.9 2.3-2.2 2.3h-.5c-1.3.1-2.2-.5-2.2-2.3zM195.4 383.9c0-5.2 3.7-9.1 8.9-9.1 5 0 8.5 3.5 8.5 8.5v.3c0 .9-.3 1.4-1.2 1.4h-11.8c.4 2.6 2.3 4.1 5 4.1 2.6 0 4-1.2 4.8-2.5 0-.1 2.4.2 2.4 2.2 0 1.9-2.6 3.9-7.4 3.9-5.6.1-9.2-3.4-9.2-8.8zm4.4-1.7h8.4c-.1-2.4-1.6-4-4-4-2.3.1-4 1.7-4.4 4zM221.1 378c.7-2 2.1-3.1 4.2-3.1 2 0 3.2 1.1 3.2 2.9 0 2-1.5 2.7-1.6 2.6-.5-.5-1.3-.8-2.2-.8-2.4 0-3.5 2.1-3.5 5.5v5.1c0 1.8-.9 2.3-2.2 2.3h-.5c-1.3 0-2.2-.5-2.2-2.3v-14.5c0-.1.9-.6 1.9-.6 1.2 0 2.6.6 2.9 2.9z"/><g><circle cx="84" cy="42" r="22"/></g><path d="M84 74c-17.6 0-32-14.4-32-32s14.4-32 32-32 32 14.4 32 32-14.4 32-32 32zm0-60c-15.4 0-28 12.6-28 28s12.6 28 28 28 28-12.6 28-28-12.6-28-28-28z"/><path d="M84 0C60.8 0 42 18.8 42 42c0 17.2 10.4 32 25.2 38.5 1.9.8 3.9 1.6 6 2.1 3.4.9 7 1.4 10.8 1.4 4.2 0 8.2-.6 11.9-1.7 2.1-.6 4.1-1.4 6-2.3 14.2-6.7 24.1-21.2 24.1-38 0-23.2-18.8-42-42-42zm17.9 75.5c-1.9 1-3.9 1.9-6 2.6C92.2 79.3 88.2 80 84 80c-3.7 0-7.3-.5-10.8-1.6-2.1-.6-4.1-1.4-6-2.3C54.7 69.9 46 56.9 46 42 46 21.1 63.1 4 84 4s38 17.1 38 38c0 14.5-8.1 27.1-20.1 33.5z"/><g><path class="st0" d="M101.9 139.5v.3h-3z"/><path d="M101.9 139.5v.3h-3z"/></g><g><path d="M101.9 139.5v.3h-3zM84.6 26.2c-9.6 0-17.3 7.8-17.3 17.3v36.9c1.9.8 3.9 1.6 6 2.1v-39c0-6.3 5.1-11.3 11.3-11.3 6.3 0 11.3 5.1 11.3 11.3v38.7c2.1-.6 4.1-1.4 6-2.3V43.6c0-9.6-7.7-17.4-17.3-17.4z"/><path d="M188 95.9V179c0 39.6-32.2 71.8-71.8 71.8-18.6 0-34.9-4.3-47.2-12.3-11.7-7.7-20.8-21.2-25.5-38.2-3.8-13.6-6.3-27.5-8.7-41.1l-.3-1.4c-.4-2.1-.8-4.3-1.3-6.5-2.1-9.5-4.5-20.3.1-29.9 2.7-5.5 7.1-9.1 12.3-9.7 5.2-.7 10.4 1.6 14.3 6.2 3.1 3.7 5.4 9.4 7.2 15.8V80.5c1.9.8 3.9 1.6 6 2.1v89.2l-6 .4c-.2-1.7-.4-3.7-.7-5.9-1.5-13.6-4.1-36.4-11.1-44.7-2.6-3.1-5.9-4.6-9-4.2-3.1.4-5.8 2.7-7.6 6.4-3.7 7.8-1.7 17.1.3 26.1.5 2.2 1 4.6 1.4 6.8l.2 1.4c2.4 13.4 4.9 27.3 8.6 40.5 4.3 15.5 12.5 27.9 23 34.8 11.3 7.4 26.5 11.4 43.9 11.4 36.3 0 65.8-29.5 65.8-65.8V95.9c0-6.3-5.1-11.3-11.3-11.3-6.3 0-11.3 5.1-11.3 11.3v43.9h-6V95.9c0-6.3-5.1-11.3-11.3-11.3-6.3 0-11.3 5.1-11.3 11.3v43.9h-6V95.9c0-6.3-5.1-11.3-11.3-11.3-6.3 0-11.3 5.1-11.3 11.3v43.6l-3 .2h-3V82.3c2.1-.6 4.1-1.4 6-2.3v2.8c3-2.6 7-4.2 11.3-4.2 5.9 0 11.2 3 14.3 7.6 3.1-4.6 8.4-7.6 14.3-7.6s11.2 3 14.3 7.6c3.1-4.6 8.4-7.6 14.3-7.6 9.6-.1 17.4 7.7 17.4 17.3z"/><path class="st0" d="M182 95.9V179c0 36.3-29.5 65.8-65.8 65.8-17.4 0-32.6-3.9-43.9-11.4-10.5-6.9-18.6-19.2-23-34.8-3.7-13.3-6.2-27.1-8.6-40.5l-.2-1.4c-.4-2.2-.9-4.5-1.4-6.8-2-9-4-18.3-.3-26.1 1.8-3.7 4.5-6 7.6-6.4 3.1-.4 6.4 1.1 9 4.2 7 8.3 9.6 31 11.1 44.7.2 2.2.5 4.2.7 5.9l6-.4V43.6c0-6.3 5.1-11.3 11.3-11.3 6.3 0 11.3 5.1 11.3 11.3v96.2h6V95.9c0-6.3 5.1-11.3 11.3-11.3 6.2 0 11.3 5.1 11.3 11.3v43.9h6V95.9c0-6.3 5.1-11.3 11.3-11.3 6.2 0 11.3 5.1 11.3 11.3v43.9h6V95.9c0-6.3 5.1-11.3 11.3-11.3 6.6-.1 11.7 5 11.7 11.3z"/></g><g><path d="M141.2 45l-.4-4c.1 0 2.3-.2 6.1-.3l.1 4c-3.6.1-5.8.3-5.8.3zM261.9 143.7c-.3-4.1-.8-8.2-1.4-12.1l4-.6c.6 4 1.1 8.2 1.4 12.4l-4 .3zm-3.8-24c-1-4-2.2-7.9-3.6-11.6l3.7-1.4c1.4 3.8 2.7 7.8 3.8 12l-3.9 1zm-8.6-22.6c-1.9-3.6-4-7.1-6.3-10.3l3.3-2.3c2.4 3.4 4.6 7 6.6 10.8l-3.6 1.8zm-13.9-19.6c-2.7-2.9-5.7-5.7-8.8-8.2l2.5-3.1c3.3 2.7 6.4 5.5 9.2 8.6l-2.9 2.7zm-18.7-15.2c-3.4-2.1-7-4-10.7-5.7l1.7-3.6c3.9 1.8 7.6 3.8 11.1 5.9l-2.1 3.4zM195 52.1c-3.8-1.3-7.7-2.4-11.7-3.4l.9-3.9c4.1 1 8.2 2.1 12.1 3.5l-1.3 3.8zm-23.7-5.7c-4-.6-8.1-1-12.1-1.3l.3-4c4.2.3 8.4.7 12.5 1.4l-.7 3.9zM266.2 162.1l-4-.1c.1-2 .1-4 .1-5.9h4c0 1.9 0 3.9-.1 6z"/></g><path d="M263.7 179.8l-15.9-15.9 2.9-2.8 13 13.1 13.1-13.1 2.9 2.8z"/></g></switch></svg>