<svg id="Calque_1" data-name="Calque 1" xmlns="http://www.w3.org/2000/svg" viewBox="0 0 1440 1024"><title>Borne(herbe-eau-route)</title><g id="fond"><g id="train"><g id="train-2"><rect x="59.22" y="610.29" width="7.39" height="4.14" rx="0.91" style="fill:#8fc3e2"/><rect x="68.82" y="610.29" width="7.39" height="4.14" rx="0.91" style="fill:#8fc3e2"/></g><rect x="-513.71" y="630.17" width="677.91" height="12.65" style="fill:#8dc2e2"/><rect x="10.6" y="642.82" width="12.79" height="3.39" style="fill:#8dc2e2"/><rect x="8.86" y="646.22" width="15.84" height="3.39" style="fill:#8dc2e2"/><rect x="13.26" y="649.62" width="7.03" height="27.89" style="fill:#8dc2e2"/><rect x="141.36" y="642.82" width="12.79" height="3.39" style="fill:#8dc2e2"/><rect x="255.38" y="630.17" width="1150.11" height="12.65" style="fill:#8dc2e2"/><rect x="779.69" y="642.82" width="12.79" height="3.39" style="fill:#8dc2e2"/><rect x="777.94" y="646.22" width="15.84" height="3.39" style="fill:#8dc2e2"/><rect x="782.35" y="649.62" width="7.03" height="78.77" style="fill:#8dc2e2"/><rect x="683.33" y="642.82" width="12.79" height="3.39" style="fill:#8dc2e2"/><rect x="681.59" y="646.22" width="15.84" height="3.39" style="fill:#8dc2e2"/><rect x="685.99" y="649.62" width="7.03" height="78.77" style="fill:#8dc2e2"/><rect x="586.98" y="642.82" width="12.79" height="3.39" style="fill:#8dc2e2"/><rect x="585.23" y="646.22" width="15.84" height="3.39" style="fill:#8dc2e2"/><rect x="589.63" y="649.62" width="7.03" height="55.47" style="fill:#8dc2e2"/><rect x="490.62" y="642.82" width="12.79" height="3.39" style="fill:#8dc2e2"/><rect x="488.87" y="646.22" width="15.84" height="3.39" style="fill:#8dc2e2"/><rect x="493.28" y="649.62" width="7.03" height="35.32" style="fill:#8dc2e2"/><rect x="394.26" y="642.82" width="12.79" height="3.39" style="fill:#8dc2e2"/><rect x="392.51" y="646.22" width="15.84" height="3.39" style="fill:#8dc2e2"/><rect x="396.92" y="649.62" width="7.03" height="27.89" style="fill:#8dc2e2"/><rect x="881.39" y="642.82" width="12.79" height="3.39" style="fill:#8dc2e2"/><rect x="879.64" y="646.22" width="15.84" height="3.39" style="fill:#8dc2e2"/><rect x="884.05" y="649.62" width="7.03" height="78.77" style="fill:#8dc2e2"/><rect x="983.09" y="642.82" width="12.79" height="3.39" style="fill:#8dc2e2"/><rect x="981.34" y="646.22" width="15.84" height="3.39" style="fill:#8dc2e2"/><rect x="985.74" y="649.62" width="7.03" height="78.77" style="fill:#8dc2e2"/><rect x="1084.78" y="642.82" width="12.79" height="3.39" style="fill:#8dc2e2"/><rect x="1083.03" y="646.22" width="15.84" height="3.39" style="fill:#8dc2e2"/><rect x="1087.44" y="649.62" width="7.03" height="78.77" style="fill:#8dc2e2"/><rect x="1186.48" y="642.82" width="12.79" height="3.39" style="fill:#8dc2e2"/><rect x="1184.73" y="646.22" width="15.84" height="3.39" style="fill:#8dc2e2"/><rect x="1189.14" y="649.62" width="7.03" height="78.77" style="fill:#8dc2e2"/><rect x="1288.17" y="642.82" width="12.79" height="3.39" style="fill:#8dc2e2"/><rect x="1286.43" y="646.22" width="15.84" height="3.39" style="fill:#8dc2e2"/><rect x="1290.83" y="649.62" width="7.03" height="78.77" style="fill:#8dc2e2"/></g><path d="M-697,761.59c5.06-3.41,10-7,14.92-10.54,26.18-19.19,114.11-77.14,244-95.77,156.47-22.46,239.46,24.62,408-8.56,236.14-46.48,316.48-16.12,403.3,8.56,75.59,21.49,289.75,67,440.43,69.9s330.32-69.31,463.61-63.13,256.63-118,468.78,95.24c0,0,26.7,122-329.7,115.88C1062.9,867.06-946.87,930.31-697,761.59Z" style="fill:#e5eec9"/><path d="M4320,762.72l748,17.95a950.79,950.79,0,0,1,116.45,8.18l587.75,77.8c-203.55,5.33-586,69.43-1050.5,69.51-1537.52.28-4060-83.28-4698.65-80.87-831.57,3.15-1488.29-52.62-1488.29-52.62s313.32-40.58,861.61-36.19,928.24-18,1348.6-10.4,696.94,7.25,696.94,7.25l294-35.39a730.66,730.66,0,0,1,133-3.8l535.63,35.55q15.21,1,30.45,1.21l445,1.82H4320" style="fill:#80bbde"/><path d="M-2876.18,871.76h0c307.14-119.87,575.33-16,693-63.34,114.14-45.95,413.12,29.6,564.23.41s291.36.94,361.48,7.58,259.7,59.3,394.75,61.91S-519.06,808.51-399.6,814c92.83,4.25,195.7,35.15,307.57,104.34,38.17,23.61,219,29.13-26.63,17.84,0,0,115.52,78.7-203.92,73.25C-639.35,1004-2694.34,1070.34-2876.18,871.76Z" style="fill:#e5eec9"/><path d="M4320,824c-318.24,3.16-845,.08-1438.91,0-1366.48-.2-3084.17,1-3404.51,27.17-142,11.61-696.57-15.57-1004.39,4.4S-2035.7,842.2-2282,835.33s-514.36,41.78-760.61,43.22-593.77-16.38-1086.28-23-946.53-20.19-946.53-20.19c-364.78,0-566.79,107-686.82,117.33v72.2l12963.66,1V868.19c-1.09.11-1428.14-1.64-1429.23-1.54C5672.09,876.37,4447.82,824,4320,824" style="fill:#c5e567"/><path d="M1247.58,653.4a2.34,2.34,0,0,0-2.11-.11c-.93.4-2.32,1.44-3.43,4.12-1.56,3.75-4.58,10.8.53,13.83a7.33,7.33,0,0,0,8-.32c2.38-1.82,4.14-5.71-.24-14A7.57,7.57,0,0,0,1247.58,653.4Z" style="fill:#8dc2e2"/><rect x="1245.44" y="670.68" width="1.48" height="11.51" style="fill:#3b6177"/></g><g id="ECOLE"><path d="M269.89,629.86s-5.52-.67-7.39,10.71c-1.69,10.29,3.39,12.12,7.39,12.12Z" style="fill:#9db56b"/><path d="M269.89,629.86s5.52-.67,7.39,10.71c1.69,10.29-3.39,12.12-7.39,12.12Z" style="fill:#b6c891"/><rect x="269.09" y="652.69" width="1.62" height="9.89" style="fill:#5e7e8f"/><path d="M518.35,675.6s-5.52-.67-7.39,10.72c-1.69,10.29,3.39,12.11,7.39,12.11Z" style="fill:#9db56b"/><path d="M518.35,675.6s5.53-.67,7.39,10.72c1.69,10.29-3.39,12.11-7.39,12.11Z" style="fill:#b6c891"/><rect x="517.55" y="698.43" width="1.62" height="9.89" style="fill:#5e7e8f"/><path d="M468.18,661.43s-4-.48-5.31,7.7c-1.22,7.4,2.44,8.72,5.31,8.72Z" style="fill:#9db56b"/><path d="M468.18,661.43s4-.48,5.32,7.7c1.21,7.4-2.44,8.72-5.32,8.72Z" style="fill:#b6c891"/><rect x="467.61" y="677.85" width="1.17" height="7.11" style="fill:#5e7e8f"/><path d="M530.23,669.94s-4-.48-5.32,7.7c-1.21,7.4,2.44,8.71,5.32,8.71Z" style="fill:#9db56b"/><path d="M530.23,669.94s4-.48,5.31,7.7c1.22,7.4-2.44,8.71-5.31,8.71Z" style="fill:#b6c891"/><rect x="529.65" y="686.35" width="1.17" height="7.11" style="fill:#5e7e8f"/><path d="M612.81,690s-2.9-.35-3.89,5.65c-.89,5.42,1.79,6.38,3.89,6.38Z" style="fill:#9db56b"/><path d="M612.81,690s2.91-.35,3.9,5.65c.89,5.42-1.79,6.38-3.9,6.38Z" style="fill:#b6c891"/><rect x="612.39" y="702.04" width="0.85" height="5.21" style="fill:#5e7e8f"/><path d="M344.81,659.88s-9.19-1.11-12.29,17.82c-2.81,17.12,5.64,20.16,12.29,20.16Z" style="fill:#9db56b"/><path d="M344.81,659.88s9.19-1.11,12.3,17.82c2.81,17.12-5.65,20.16-12.3,20.16Z" style="fill:#b6c891"/><rect x="343.48" y="697.86" width="2.7" height="16.45" style="fill:#5e7e8f"/><path d="M374.62,660.1s-6.33-.76-8.48,12.29c-1.93,11.8,3.9,13.9,8.48,13.9Z" style="fill:#9db56b"/><path d="M374.62,660.1s6.34-.76,8.48,12.29c1.94,11.8-3.89,13.9-8.48,13.9Z" style="fill:#b6c891"/><rect x="373.71" y="686.29" width="1.86" height="11.34" style="fill:#5e7e8f"/><path d="M1164.15,644.71s-6.33-.77-8.47,12.28c-1.94,11.8,3.89,13.9,8.47,13.9Z" style="fill:#9db56b"/><path d="M1164.15,644.71s6.34-.77,8.48,12.28c1.94,11.8-3.89,13.9-8.48,13.9Z" style="fill:#b6c891"/><rect x="1163.24" y="670.89" width="1.86" height="11.34" style="fill:#5e7e8f"/><path d="M1307.17,631s-6.34-.77-8.48,12.29c-1.94,11.8,3.89,13.89,8.48,13.89Z" style="fill:#9db56b"/><path d="M1307.17,631s6.33-.77,8.47,12.29c1.94,11.8-3.89,13.89-8.47,13.89Z" style="fill:#b6c891"/><rect x="1306.25" y="657.21" width="1.86" height="11.34" style="fill:#5e7e8f"/><path d="M1346.39,636.57s-4.4-.53-5.89,8.55c-1.35,8.2,2.7,9.66,5.89,9.66Z" style="fill:#9db56b"/><path d="M1346.39,636.57s4.4-.53,5.89,8.55c1.35,8.2-2.7,9.66-5.89,9.66Z" style="fill:#b6c891"/><rect x="1345.75" y="654.78" width="1.29" height="7.88" style="fill:#5e7e8f"/><rect x="1242.15" y="797.91" width="9.98" height="70.34" style="fill:#5e7e8f"/><polygon points="1247.14 621.59 1247.14 797.91 1190.03 797.91 1247.14 621.59" style="fill:#9db56b"/><polyline points="1304.26 797.37 1247.14 621.05 1247.14 797.37" style="fill:#b6c891"/><rect x="1139.21" y="677.11" width="2.57" height="18.15" style="fill:#5e7e8f"/><polygon points="1140.5 631.61 1140.5 677.11 1125.76 677.11 1140.5 631.61" style="fill:#9db56b"/><polyline points="1155.23 676.97 1140.5 631.47 1140.5 676.97" style="fill:#b6c891"/><rect x="1326.05" y="684.42" width="2.57" height="18.15" style="fill:#5e7e8f"/><polygon points="1327.34 638.92 1327.34 684.42 1312.6 684.42 1327.34 638.92" style="fill:#9db56b"/><polyline points="1342.08 684.28 1327.34 638.78 1327.34 684.28" style="fill:#b6c891"/><rect x="1361.28" y="534.86" width="54.17" height="157.94" style="fill:#8dc2e2"/><rect id="fenetre" x="1366.8" y="542.63" width="7.56" height="13.53" style="fill:#cae2f1"/><rect id="fenetre-2" x="1378.43" y="542.63" width="7.56" height="13.53" style="fill:#cae2f1"/><rect id="fenetre-3" x="1390.07" y="542.63" width="7.56" height="13.53" style="fill:#cae2f1"/><rect id="fenetre-4" x="1401.71" y="542.63" width="7.56" height="13.53" style="fill:#cae2f1"/><rect id="fenetre-5" x="1366.8" y="560.81" width="7.56" height="13.53" style="fill:#cae2f1"/><rect id="fenetre-6" x="1378.43" y="560.81" width="7.56" height="13.53" style="fill:#cae2f1"/><rect id="fenetre-7" x="1390.07" y="560.81" width="7.56" height="13.53" style="fill:#cae2f1"/><rect id="fenetre-8" x="1401.71" y="560.81" width="7.56" height="13.53" style="fill:#cae2f1"/><rect id="fenetre-9" x="1366.8" y="578.98" width="7.56" height="13.53" style="fill:#cae2f1"/><rect id="fenetre-10" x="1378.43" y="578.98" width="7.56" height="13.53" style="fill:#cae2f1"/><rect id="fenetre-11" x="1390.07" y="578.98" width="7.56" height="13.53" style="fill:#cae2f1"/><rect id="fenetre-12" x="1401.71" y="578.98" width="7.56" height="13.53" style="fill:#cae2f1"/><rect id="fenetre-13" x="1366.8" y="597.16" width="7.56" height="13.53" style="fill:#cae2f1"/><rect id="fenetre-14" x="1378.43" y="597.16" width="7.56" height="13.53" style="fill:#cae2f1"/><rect id="fenetre-15" x="1390.07" y="597.16" width="7.56" height="13.53" style="fill:#cae2f1"/><rect id="fenetre-16" x="1401.71" y="597.16" width="7.56" height="13.53" style="fill:#cae2f1"/><rect id="fenetre-17" x="1366.8" y="615.34" width="7.56" height="13.53" style="fill:#cae2f1"/><rect id="fenetre-18" x="1378.43" y="615.34" width="7.56" height="13.53" style="fill:#cae2f1"/><rect id="fenetre-19" x="1390.07" y="615.34" width="7.56" height="13.53" style="fill:#cae2f1"/><rect id="fenetre-20" x="1401.71" y="615.34" width="7.56" height="13.53" style="fill:#cae2f1"/><rect id="fenetre-21" x="1366.8" y="633.52" width="7.56" height="13.53" style="fill:#cae2f1"/><rect id="fenetre-22" x="1378.43" y="633.52" width="7.56" height="13.53" style="fill:#cae2f1"/><rect id="fenetre-23" x="1390.07" y="633.52" width="7.56" height="13.53" style="fill:#cae2f1"/><rect id="fenetre-24" x="1401.71" y="633.52" width="7.56" height="13.53" style="fill:#cae2f1"/><rect id="fenetre-25" x="1366.8" y="651.69" width="7.56" height="13.53" style="fill:#cae2f1"/><rect id="fenetre-26" x="1378.43" y="651.69" width="7.56" height="13.53" style="fill:#cae2f1"/><rect id="fenetre-27" x="1390.07" y="651.69" width="7.56" height="13.53" style="fill:#cae2f1"/><rect id="fenetre-28" x="1401.71" y="651.69" width="7.56" height="13.53" style="fill:#cae2f1"/><rect id="fenetre-29" x="1366.8" y="669.87" width="7.56" height="13.53" style="fill:#cae2f1"/><rect id="fenetre-30" x="1378.43" y="669.87" width="7.56" height="13.53" style="fill:#cae2f1"/><rect id="fenetre-31" x="1390.07" y="669.87" width="7.56" height="13.53" style="fill:#cae2f1"/><rect id="fenetre-32" x="1401.71" y="669.87" width="7.56" height="13.53" style="fill:#cae2f1"/><rect x="303.7" y="676.31" width="1.63" height="10.78" style="fill:#5e7e8f"/><polygon points="304.51 649.29 304.51 676.31 295.2 676.31 304.51 649.29" style="fill:#9db56b"/><polyline points="313.82 676.22 304.51 649.21 304.51 676.22" style="fill:#b6c891"/><rect x="447.03" y="675.44" width="1.63" height="10.78" style="fill:#5e7e8f"/><polygon points="447.84 648.43 447.84 675.44 438.53 675.44 447.84 648.43" style="fill:#9db56b"/><polyline points="457.15 675.36 447.84 648.35 447.84 675.36" style="fill:#b6c891"/><rect x="26.81" y="520.15" width="54.17" height="157.94" style="fill:#8dc2e2"/><rect id="fenetre-33" x="32.32" y="527.92" width="7.56" height="13.53" style="fill:#cae2f1"/><rect id="fenetre-34" x="43.96" y="527.92" width="7.56" height="13.53" style="fill:#cae2f1"/><rect id="fenetre-35" x="55.6" y="527.92" width="7.56" height="13.53" style="fill:#cae2f1"/><rect id="fenetre-36" x="67.24" y="527.92" width="7.56" height="13.53" style="fill:#cae2f1"/><rect id="fenetre-37" x="32.32" y="546.1" width="7.56" height="13.53" style="fill:#cae2f1"/><rect id="fenetre-38" x="43.96" y="546.1" width="7.56" height="13.53" style="fill:#cae2f1"/><rect id="fenetre-39" x="55.6" y="546.1" width="7.56" height="13.53" style="fill:#cae2f1"/><rect id="fenetre-40" x="67.24" y="546.1" width="7.56" height="13.53" style="fill:#cae2f1"/><rect id="fenetre-41" x="32.32" y="564.28" width="7.56" height="13.53" style="fill:#cae2f1"/><rect id="fenetre-42" x="43.96" y="564.28" width="7.56" height="13.53" style="fill:#cae2f1"/><rect id="fenetre-43" x="55.6" y="564.28" width="7.56" height="13.53" style="fill:#cae2f1"/><rect id="fenetre-44" x="67.24" y="564.28" width="7.56" height="13.53" style="fill:#cae2f1"/><rect id="fenetre-45" x="32.32" y="582.45" width="7.56" height="13.53" style="fill:#cae2f1"/><rect id="fenetre-46" x="43.96" y="582.45" width="7.56" height="13.53" style="fill:#cae2f1"/><rect id="fenetre-47" x="55.6" y="582.45" width="7.56" height="13.53" style="fill:#cae2f1"/><rect id="fenetre-48" x="67.24" y="582.45" width="7.56" height="13.53" style="fill:#cae2f1"/><rect id="fenetre-49" x="32.32" y="600.63" width="7.56" height="13.53" style="fill:#cae2f1"/><rect id="fenetre-50" x="43.96" y="600.63" width="7.56" height="13.53" style="fill:#cae2f1"/><rect id="fenetre-51" x="55.6" y="600.63" width="7.56" height="13.53" style="fill:#cae2f1"/><rect id="fenetre-52" x="67.24" y="600.63" width="7.56" height="13.53" style="fill:#cae2f1"/><rect id="fenetre-53" x="32.32" y="618.81" width="7.56" height="13.53" style="fill:#cae2f1"/><rect id="fenetre-54" x="43.96" y="618.81" width="7.56" height="13.53" style="fill:#cae2f1"/><rect id="fenetre-55" x="55.6" y="618.81" width="7.56" height="13.53" style="fill:#cae2f1"/><rect id="fenetre-56" x="67.24" y="618.81" width="7.56" height="13.53" style="fill:#cae2f1"/><rect id="fenetre-57" x="32.32" y="636.99" width="7.56" height="13.53" style="fill:#cae2f1"/><rect id="fenetre-58" x="43.96" y="636.99" width="7.56" height="13.53" style="fill:#cae2f1"/><rect id="fenetre-59" x="55.6" y="636.99" width="7.56" height="13.53" style="fill:#cae2f1"/><rect id="fenetre-60" x="67.24" y="636.99" width="7.56" height="13.53" style="fill:#cae2f1"/><rect id="fenetre-61" x="32.32" y="655.16" width="7.56" height="13.53" style="fill:#cae2f1"/><rect id="fenetre-62" x="43.96" y="655.16" width="7.56" height="13.53" style="fill:#cae2f1"/><rect id="fenetre-63" x="55.6" y="655.16" width="7.56" height="13.53" style="fill:#cae2f1"/><rect id="fenetre-64" x="67.24" y="655.16" width="7.56" height="13.53" style="fill:#cae2f1"/><path d="M101.32,631.09s-38.45-4.64-51.45,74.58C38.11,777.29,73.49,790,101.32,790Z" style="fill:#9db56b"/><path d="M101.32,631.09s38.45-4.64,51.45,74.58C164.53,777.29,129.15,790,101.32,790Z" style="fill:#b6c891"/><rect x="95.76" y="790.02" width="11.29" height="68.82" style="fill:#5e7e8f"/><rect x="-34.87" y="435.53" width="70.58" height="249.43" transform="translate(-5.18 0.03) rotate(-0.53)" style="fill:#8dc2e2"/><rect id="fenetre-65" x="-5.58" y="455" width="11.85" height="218.59" transform="translate(-5.22 0.03) rotate(-0.53)" style="fill:#cae2f1"/><rect id="fenetre-66" x="12.64" y="454.82" width="11.85" height="218.59" transform="translate(-5.22 0.2) rotate(-0.53)" style="fill:#cae2f1"/></g><g id="bateau"><line x1="663.76" y1="783.29" x2="849.38" y2="783.29" style="fill:none;stroke:#f2f2f2;stroke-miterlimit:10"/><line x1="674.85" y1="778.21" x2="860.48" y2="778.21" style="fill:none;stroke:#f2f2f2;stroke-miterlimit:10"/><line x1="709.64" y1="789.05" x2="844.74" y2="788.36" style="fill:none;stroke:#f2f2f2;stroke-miterlimit:10"/><line x1="439.44" y1="783.62" x2="360.93" y2="783.62" style="fill:none;stroke:#f2f2f2;stroke-miterlimit:10"/><line x1="436.36" y1="788.7" x2="384.87" y2="788.7" style="fill:none;stroke:#f2f2f2;stroke-miterlimit:10"/><line x1="426.71" y1="777.86" x2="389.23" y2="778.55" style="fill:none;stroke:#f2f2f2;stroke-miterlimit:10"/></g><g id="borne"><rect x="1071.06" y="857.36" width="1.54" height="4.71" style="fill:#79787d"/></g><path d="M1542.58,1024l-3100.32-.05h0A125.69,125.69,0,0,1-1432,898.23l2848.93,0A125.69,125.69,0,0,1,1542.58,1024Z" style="fill:#79787d"/><path d="M-1503.79,1023.88s-2.9-78.29,63.65-78.87,2880,0,2880,0,54.41,8.53,51.85,82.69" style="fill:none;stroke:#fff;stroke-miterlimit:5;stroke-width:3px;stroke-dasharray:80"/></svg>