<svg xmlns="http://www.w3.org/2000/svg" viewBox="0 0 1440 1024"><title>FOND BORNE</title><g id="fond"><g id="train"><rect x="384.53" y="642.82" width="12.79" height="3.39" style="fill:#79787d"/><rect x="382.78" y="646.22" width="15.84" height="3.39" style="fill:#79787d"/><rect x="387.19" y="649.62" width="7.03" height="27.89" style="fill:#79787d"/><path d="M160.82,630.17H0q.08,6.33.16,12.65H160.82Z" style="fill:#79787d"/><rect x="7.23" y="642.82" width="12.79" height="3.39" style="fill:#79787d"/><rect x="5.48" y="646.22" width="15.84" height="3.39" style="fill:#79787d"/><rect x="9.89" y="649.62" width="7.03" height="27.89" style="fill:#79787d"/><rect x="137.98" y="642.82" width="12.79" height="3.39" style="fill:#79787d"/><rect x="252" y="630.17" width="1188" height="12.65" style="fill:#79787d"/><rect x="776.32" y="642.82" width="12.79" height="3.39" style="fill:#79787d"/><rect x="774.57" y="646.22" width="15.84" height="3.39" style="fill:#79787d"/><rect x="778.98" y="649.62" width="7.03" height="78.77" style="fill:#79787d"/><rect x="679.96" y="642.82" width="12.79" height="3.39" style="fill:#79787d"/><rect x="678.21" y="646.22" width="15.84" height="3.39" style="fill:#79787d"/><rect x="682.62" y="649.62" width="7.03" height="78.77" style="fill:#79787d"/><rect x="583.6" y="642.82" width="12.79" height="3.39" style="fill:#79787d"/><rect x="581.85" y="646.22" width="15.84" height="3.39" style="fill:#79787d"/><rect x="586.26" y="649.62" width="7.03" height="55.47" style="fill:#79787d"/><rect x="487.24" y="642.82" width="12.79" height="3.39" style="fill:#79787d"/><rect x="485.49" y="646.22" width="15.84" height="3.39" style="fill:#79787d"/><rect x="489.9" y="649.62" width="7.03" height="35.32" style="fill:#79787d"/><rect x="390.88" y="642.82" width="12.79" height="3.39" style="fill:#79787d"/><rect x="389.13" y="646.22" width="15.84" height="3.39" style="fill:#79787d"/><rect x="393.54" y="649.62" width="7.03" height="27.89" style="fill:#79787d"/><rect x="878.01" y="642.82" width="12.79" height="3.39" style="fill:#79787d"/><rect x="876.26" y="646.22" width="15.84" height="3.39" style="fill:#79787d"/><rect x="880.67" y="649.62" width="7.03" height="78.77" style="fill:#79787d"/><rect x="979.71" y="642.82" width="12.79" height="3.39" style="fill:#79787d"/><rect x="977.96" y="646.22" width="15.84" height="3.39" style="fill:#79787d"/><rect x="982.37" y="649.62" width="7.03" height="78.77" style="fill:#79787d"/><rect x="1081.41" y="642.82" width="12.79" height="3.39" style="fill:#79787d"/><rect x="1079.66" y="646.22" width="15.84" height="3.39" style="fill:#79787d"/><rect x="1084.06" y="649.62" width="7.03" height="78.77" style="fill:#79787d"/><rect x="1183.1" y="642.82" width="12.79" height="3.39" style="fill:#79787d"/><rect x="1181.35" y="646.22" width="15.84" height="3.39" style="fill:#79787d"/><rect x="1185.76" y="649.62" width="7.03" height="78.77" style="fill:#79787d"/><rect x="1284.8" y="642.82" width="12.79" height="3.39" style="fill:#79787d"/><rect x="1283.05" y="646.22" width="15.84" height="3.39" style="fill:#79787d"/><rect x="1287.46" y="649.62" width="7.03" height="78.77" style="fill:#79787d"/></g><rect x="1284.05" y="348.89" width="138.82" height="326.72" style="fill:#b3d6eb"/><rect id="fenetre" x="1298.18" y="364.98" width="19.39" height="28" style="fill:#d1eced"/><rect id="fenetre-2" data-name="fenetre" x="1328.01" y="364.98" width="19.39" height="28" style="fill:#d1eced"/><rect id="fenetre-3" data-name="fenetre" x="1357.83" y="364.98" width="19.39" height="28" style="fill:#d1eced"/><rect id="fenetre-4" data-name="fenetre" x="1387.66" y="364.98" width="19.39" height="28" style="fill:#d1eced"/><rect id="fenetre-5" data-name="fenetre" x="1298.18" y="402.58" width="19.39" height="28" style="fill:#d1eced"/><rect id="fenetre-6" data-name="fenetre" x="1328.01" y="402.58" width="19.39" height="28" style="fill:#d1eced"/><rect id="fenetre-7" data-name="fenetre" x="1357.83" y="402.58" width="19.39" height="28" style="fill:#d1eced"/><rect id="fenetre-8" data-name="fenetre" x="1387.66" y="402.58" width="19.39" height="28" style="fill:#d1eced"/><rect id="fenetre-9" data-name="fenetre" x="1298.18" y="440.18" width="19.39" height="28" style="fill:#d1eced"/><rect id="fenetre-10" data-name="fenetre" x="1328.01" y="440.18" width="19.39" height="28" style="fill:#d1eced"/><rect id="fenetre-11" data-name="fenetre" x="1357.83" y="440.18" width="19.39" height="28" style="fill:#d1eced"/><rect id="fenetre-12" data-name="fenetre" x="1387.66" y="440.18" width="19.39" height="28" style="fill:#d1eced"/><rect id="fenetre-13" data-name="fenetre" x="1298.18" y="477.78" width="19.39" height="28" style="fill:#d1eced"/><rect id="fenetre-14" data-name="fenetre" x="1328.01" y="477.78" width="19.39" height="28" style="fill:#d1eced"/><rect id="fenetre-15" data-name="fenetre" x="1357.83" y="477.78" width="19.39" height="28" style="fill:#d1eced"/><rect id="fenetre-16" data-name="fenetre" x="1387.66" y="477.78" width="19.39" height="28" style="fill:#d1eced"/><rect id="fenetre-17" data-name="fenetre" x="1298.18" y="515.38" width="19.39" height="28" style="fill:#d1eced"/><rect id="fenetre-18" data-name="fenetre" x="1328.01" y="515.38" width="19.39" height="28" style="fill:#d1eced"/><rect id="fenetre-19" data-name="fenetre" x="1357.83" y="515.38" width="19.39" height="28" style="fill:#d1eced"/><rect id="fenetre-20" data-name="fenetre" x="1387.66" y="515.38" width="19.39" height="28" style="fill:#d1eced"/><rect id="fenetre-21" data-name="fenetre" x="1298.18" y="552.99" width="19.39" height="28" style="fill:#d1eced"/><rect id="fenetre-22" data-name="fenetre" x="1328.01" y="552.99" width="19.39" height="28" style="fill:#d1eced"/><rect id="fenetre-23" data-name="fenetre" x="1357.83" y="552.99" width="19.39" height="28" style="fill:#d1eced"/><rect id="fenetre-24" data-name="fenetre" x="1387.66" y="552.99" width="19.39" height="28" style="fill:#d1eced"/><rect id="fenetre-25" data-name="fenetre" x="1298.18" y="590.59" width="19.39" height="28" style="fill:#d1eced"/><rect id="fenetre-26" data-name="fenetre" x="1328.01" y="590.59" width="19.39" height="28" style="fill:#d1eced"/><rect id="fenetre-27" data-name="fenetre" x="1357.83" y="590.59" width="19.39" height="28" style="fill:#d1eced"/><rect id="fenetre-28" data-name="fenetre" x="1387.66" y="590.59" width="19.39" height="28" style="fill:#d1eced"/><rect id="fenetre-29" data-name="fenetre" x="1298.18" y="628.19" width="19.39" height="28" style="fill:#d1eced"/><rect id="fenetre-30" data-name="fenetre" x="1328.01" y="628.19" width="19.39" height="28" style="fill:#d1eced"/><rect id="fenetre-31" data-name="fenetre" x="1357.83" y="628.19" width="19.39" height="28" style="fill:#d1eced"/><rect id="fenetre-32" data-name="fenetre" x="1387.66" y="628.19" width="19.39" height="28" style="fill:#d1eced"/><path d="M1440,636.49c-63.92,7.7-106.94,28.3-166.13,25.56-133.29-6.18-312.93,66.08-463.61,63.13s-363.11-55.81-440.43-69.9C290.19,640.76,215.33,602.36,0,640.54c.83,64.33,0,129.26,0,194v46.6c543.27,11.07,1219.87-11.31,1413-8,18.07.32,10.88.54,27,.23-.84-24.15,0-48.13,0-72.14C1440,745.49,1440.1,691.67,1440,636.49Z" style="fill:#c0cfa0"/><path d="M1440,763.32c-273.44,1.86-420.45-2.23-698.38-7.24-248.8-4.49-474.11,1.34-737.89,6.08l0,93.18c9.44,0,6.48,0,16-.05,538.22-2,945,4.22,1420,2.42" style="fill:#80bbde"/><path d="M-.31,908.92c71.22-29.82,81.89-62.5,81.89-62.5,245.66,11.29,148.83-38.85,120.74-64.76-34.2-31.54-109.45-41.6-202-42.15" style="fill:#dcefa2"/><path d="M1440.05,820.7C907.62,817,395.7,820.63,0,829.79c-1.48,79.13,3,129.83,0,194.64l1438.38-.39" style="fill:#b7df41"/></g><g id="NUAGES"><path d="M678.45,147.31s6.06-10.54,18.71-10c0,0,12.64.57,15.21,10,0,0,8-3.7,14.25,2.57a12.22,12.22,0,0,1,4.27,10,14.35,14.35,0,0,1,8.27,15.68c-1.71,11.68-15.68,10.83-15.68,10.83s-8.83,7.72-19.66,0c0,0-10.26,8-18.53.56,0,0-17.93,9.64-27.55-8.46a22.1,22.1,0,0,1-.66-20.08C659.93,152.58,665.91,146.88,678.45,147.31Z" style="fill:#cce4f2"/><path d="M1329.1,170h58.28a16.79,16.79,0,0,0,11.62-4.45,14.62,14.62,0,0,0,4.51-12.2s-1.28-12.17-12.49-13.46c0,0-.64-8-10.57-5.12,0,0-2.24-6.41-9.93-3.84,0,0-1-15.7-18.26-15.7s-17.94,14.41-17.94,14.41-11.21-3.2-13.13,9.61c0,0-10.25,1.28-11.53,14.74-.69,7.2,4,11.29,8.42,13.52A24.56,24.56,0,0,0,1329.1,170Z" style="fill:#cce4f2"/><path d="M734.74,171.38s5-10.81,23.1-8.54c0,0,2.49-11.1,19.56-11.86s21.68,10.2,21.68,10.2,8.18-4.15,18.13,2.41c0,0,5.33,3.22,5.33,7.79,0,0,16.71,7.1,10.67,18.2s-18.49,10.09-25.6,9.33c0,0-11.73,17.15-37,5,0,0-15.28,12.11-31.28-3.53,0,0-16.48,5.4-26.1-4.93-4.34-4.65-5.44-10.56-2.42-15.71C713.6,175.07,720,170.29,734.74,171.38Z" style="fill:#cce4f2"/><path d="M960.18,96.64s6.08-14,28.2-11c0,0,3-14.32,23.86-15.3s26.46,13.16,26.46,13.16,10-5.35,22.13,3.12c0,0,6.5,4.15,6.5,10,0,0,20.39,9.16,13,23.49s-22.56,13-31.24,12.05c0,0-14.31,22.14-45.11,6.51,0,0-18.66,15.63-38.18-4.56,0,0-20.11,7-31.85-6.37-5.29-6-6.64-13.63-3-20.27C934.39,101.4,942.21,95.23,960.18,96.64Z" style="fill:#cce4f2"/><path d="M1134,228.83h58.27a16.8,16.8,0,0,0,11.62-4.46,14.61,14.61,0,0,0,4.52-12.2s-1.28-12.17-12.5-13.45c0,0-.64-8-10.57-5.13,0,0-2.24-6.4-9.93-3.84,0,0-1-15.7-18.25-15.7s-17.94,14.42-17.94,14.42-11.21-3.21-13.13,9.61c0,0-10.25,1.28-11.54,14.73-.68,7.21,4,11.29,8.43,13.53A24.63,24.63,0,0,0,1134,228.83Z" style="fill:#cce4f2"/><path d="M179,136.54s3.53-10.82,16.4-8.55c0,0,1.76-11.1,13.87-11.85s15.39,10.2,15.39,10.2,5.8-4.15,12.86,2.41c0,0,3.79,3.21,3.79,7.79,0,0,11.85,7.09,7.56,18.19s-13.11,10.09-18.16,9.34c0,0-8.32,17.15-26.23,5,0,0-10.85,12.11-22.2-3.53,0,0-11.7,5.4-18.52-4.93a16.86,16.86,0,0,1-1.72-15.71C164,140.22,168.57,135.45,179,136.54Z" style="fill:#cce4f2"/><path d="M456.43,75.38s6.07-14,28.2-11c0,0,3-14.33,23.86-15.3S535,62.21,535,62.21s10-5.35,22.12,3.12c0,0,6.51,4.15,6.51,10,0,0,20.39,9.16,13,23.49s-22.55,13-31.23,12c0,0-14.32,22.15-45.12,6.52,0,0-18.65,15.63-38.17-4.56,0,0-20.12,7-31.86-6.37-5.28-6-6.63-13.63-2.95-20.27C430.64,80.14,438.45,74,456.43,75.38Z" style="fill:#cce4f2"/><path d="M56.67,247.47h91.88c6.76,0,13.41-1.5,18.31-4.45,4.24-2.56,7.77-6.44,7.12-12.21,0,0-2-12.17-19.69-13.45,0,0-1-8-16.67-5.12,0,0-3.54-6.41-15.66-3.85,0,0-1.51-15.69-28.78-15.69S64.9,207.11,64.9,207.11s-17.68-3.2-20.71,9.61c0,0-16.16,1.28-18.18,14.73-1.08,7.21,6.25,11.29,13.28,13.53A57.89,57.89,0,0,0,56.67,247.47Z" style="fill:#cce4f2"/></g><g id="arbre"><rect x="1256.33" y="639.27" width="3.01" height="25.13" style="fill:#5e7e8f"/><circle cx="1257.83" cy="625.54" r="16.95" style="fill:#9db56b"/></g><g id="panneau_photovoltaique" data-name="panneau photovoltaique"><g id="photovoltaique"><rect x="1" y="898.34" width="1439.04" height="125.69" style="fill:#79787d"/><line x1="-1375.68" y1="947.45" x2="1392" y2="947.45" style="fill:none;stroke:#fff;stroke-miterlimit:10;stroke-width:1.43699560656086px;stroke-dasharray:45.00289535522461,45.00289535522461"/><line x1="1414.5" y1="947.45" x2="1436.77" y2="947.45" style="fill:none;stroke:#fff;stroke-miterlimit:10;stroke-width:1.43699560656086px"/></g></g></svg>