<svg xmlns="http://www.w3.org/2000/svg" viewBox="0 0 95.69 167.98"><title>borneFichier 4</title><g id="Calque_2" data-name="Calque 2"><g id="borne"><rect x="44.5" width="45.2" height="145.38" style="fill:#82a043"/><rect x="54.26" y="11.12" width="27.16" height="20.71" style="fill:#fbfbfb"/><rect x="38.99" y="145.38" width="56.7" height="22.6" style="fill:#93ad5c"/><circle cx="67.84" cy="44.3" r="5" style="fill:#f31512"/><path d="M62.85,44.3V36.1h10v8.2s0-4.92-5-5S62.85,44.3,62.85,44.3Z" style="fill:#00324e"/><circle cx="67.84" cy="62.52" r="9.24" style="fill:#00324e"/><circle cx="67.84" cy="62.52" r="5.91" style="fill:#88b309"/><polygon points="70.29 82.9 72.98 85.38 65.65 92.71 71.58 95.63 63.93 103.28 69.21 96.27 61.93 93.09 70.29 82.9" style="fill:#ffc441"/><path d="M70.29,119.05v-5.24s-.5-10.27-11.76-10.12-24.83,1.89-33.91.64S7.11,98.47,3.33,80.57c0,0-5.52-24.8,18.15-30.76,0,0,4.87-2,20.65-2.3V45S26,44.68,18.24,48-4,58.24,1.06,82c0,0,1.62,24.51,24.64,25,0,0,14.48.42,32.21-.73,0,0,10.73-.57,9.88,12.84A4.85,4.85,0,0,1,70.29,119.05Z" style="fill:#a8a7aa"/><path d="M72.49,112.56H64.74v23.8s-.22,6.33,3.88,6.22,3.87-4,3.87-6.66Z" style="fill:#d3d3d3"/><path d="M44.5,40.74s-3.22,1.14-3.13,5.61,3.13,5.86,3.13,5.86Z" style="fill:#79787d"/></g></g></svg>