<svg xmlns="http://www.w3.org/2000/svg" viewBox="0 0 481.35 28.7"><title>trainFichier 3</title><g id="Calque_2" data-name="Calque 2"><g id="fond"><g id="train"><g id="train-2" data-name="train"><circle cx="17.78" cy="27.08" r="1.62" style="fill:#79787d"/><circle cx="32.66" cy="27.08" r="1.62" style="fill:#79787d"/><circle cx="54.98" cy="27.08" r="1.62" style="fill:#79787d"/><circle cx="69.62" cy="27.08" r="1.62" style="fill:#79787d"/><circle cx="91.46" cy="27.08" r="1.62" style="fill:#79787d"/><circle cx="106.34" cy="27.08" r="1.62" style="fill:#79787d"/><circle cx="463.57" cy="27.08" r="1.62" style="fill:#79787d"/><circle cx="448.7" cy="27.08" r="1.62" style="fill:#79787d"/><circle cx="426.38" cy="27.08" r="1.62" style="fill:#79787d"/><circle cx="411.74" cy="27.08" r="1.62" style="fill:#79787d"/><circle cx="389.9" cy="27.08" r="1.62" style="fill:#79787d"/><circle cx="375.02" cy="27.08" r="1.62" style="fill:#79787d"/><circle cx="138.5" cy="27.08" r="1.62" style="fill:#79787d"/><circle cx="153.37" cy="27.08" r="1.62" style="fill:#79787d"/><circle cx="175.69" cy="27.08" r="1.62" style="fill:#79787d"/><circle cx="190.33" cy="27.08" r="1.62" style="fill:#79787d"/><circle cx="210.97" cy="27.08" r="1.62" style="fill:#79787d"/><circle cx="225.61" cy="27.08" r="1.62" style="fill:#79787d"/><circle cx="256.81" cy="27.08" r="1.62" style="fill:#79787d"/><circle cx="271.69" cy="27.08" r="1.62" style="fill:#79787d"/><circle cx="294.01" cy="27.08" r="1.62" style="fill:#79787d"/><circle cx="308.65" cy="27.08" r="1.62" style="fill:#79787d"/><circle cx="329.29" cy="27.08" r="1.62" style="fill:#79787d"/><circle cx="343.93" cy="27.08" r="1.62" style="fill:#79787d"/><path d="M120.9,6.48c0-.41,0-2.53-.05-3C120.76,2.07,121.22,0,119,0H29.7s-7.36-.2-19,9.58l-8.76,7.7A5.59,5.59,0,0,0,.26,23.17C.86,25,2.47,26.71,6.41,26.9c8.24.39,102.82,0,110.27,0h1.16c1,0,3.17.26,3-2.25C120.74,22,121,9.73,120.9,6.48Z" style="fill:#9a9a9d"/><path d="M15.29,6h11.5s2.45.17,0,2.63-4.42,4.86-8,4.88-12.6,0-12.6,0S13.71,7.09,15.29,6Z" style="fill:#8fc3e2"/><rect x="37.68" y="8.4" width="5.09" height="14.32" rx="2.44" ry="2.44" style="fill:#a4a3a7"/><rect x="44.52" y="8.4" width="7.39" height="4.14" rx="0.91" ry="0.91" style="fill:#8fc3e2"/><rect x="54.12" y="8.4" width="7.39" height="4.14" rx="0.91" ry="0.91" style="fill:#8fc3e2"/><rect x="63.72" y="8.4" width="7.39" height="4.14" rx="0.91" ry="0.91" style="fill:#8fc3e2"/><rect x="73.32" y="8.4" width="7.39" height="4.14" rx="0.91" ry="0.91" style="fill:#8fc3e2"/><rect x="82.92" y="8.4" width="7.39" height="4.14" rx="0.91" ry="0.91" style="fill:#8fc3e2"/><rect x="92.52" y="8.4" width="7.39" height="4.14" rx="0.91" ry="0.91" style="fill:#8fc3e2"/><rect x="102.12" y="8.4" width="7.39" height="4.14" rx="0.91" ry="0.91" style="fill:#8fc3e2"/><rect x="113.28" y="8.4" width="5.09" height="14.32" rx="2.44" ry="2.44" style="fill:#a4a3a7"/><path d="M360.77,6.48c0-.41,0-2.53.05-3,.09-1.42-.37-3.49,1.86-3.49h89.05s7.34-.2,18.95,9.58l8.74,7.7a5.59,5.59,0,0,1,1.67,5.89c-.59,1.82-2.2,3.54-6.13,3.73-8.22.39-102.55,0-110,0h-1.16c-1,0-3.16.26-3-2.25C360.93,22,360.7,9.73,360.77,6.48Z" style="fill:#9a9a9d"/><path d="M466.07,6h-11.5s-2.45.17,0,2.63,4.41,4.86,8,4.88,12.59,0,12.59,0S467.65,7.09,466.07,6Z" style="fill:#8fc3e2"/><rect x="438.58" y="8.4" width="5.09" height="14.32" rx="2.44" ry="2.44" transform="translate(882.25 31.12) rotate(-180)" style="fill:#a4a3a7"/><rect x="429.44" y="8.4" width="7.39" height="4.14" rx="0.91" ry="0.91" transform="translate(866.27 20.95) rotate(-180)" style="fill:#8fc3e2"/><rect x="419.84" y="8.4" width="7.39" height="4.14" rx="0.91" ry="0.91" transform="translate(847.07 20.95) rotate(-180)" style="fill:#8fc3e2"/><rect x="410.24" y="8.4" width="7.39" height="4.14" rx="0.91" ry="0.91" transform="translate(827.87 20.95) rotate(-180)" style="fill:#8fc3e2"/><rect x="400.64" y="8.4" width="7.39" height="4.14" rx="0.91" ry="0.91" transform="translate(808.68 20.95) rotate(-180)" style="fill:#8fc3e2"/><rect x="391.04" y="8.4" width="7.39" height="4.14" rx="0.91" ry="0.91" transform="translate(789.48 20.95) rotate(-180)" style="fill:#8fc3e2"/><rect x="381.44" y="8.4" width="7.39" height="4.14" rx="0.91" ry="0.91" transform="translate(770.28 20.95) rotate(-180)" style="fill:#8fc3e2"/><rect x="371.84" y="8.4" width="7.39" height="4.14" rx="0.91" ry="0.91" transform="translate(751.08 20.95) rotate(-180)" style="fill:#8fc3e2"/><rect x="362.98" y="8.4" width="5.09" height="14.32" rx="2.44" ry="2.44" transform="translate(731.06 31.12) rotate(-180)" style="fill:#a4a3a7"/><ellipse cx="120.91" cy="13.58" rx="0.32" ry="11.87" style="fill:#79787d"/><ellipse cx="121.39" cy="13.58" rx="0.32" ry="11.87" style="fill:#79787d"/><ellipse cx="121.87" cy="13.58" rx="0.32" ry="11.87" style="fill:#79787d"/><ellipse cx="122.35" cy="13.58" rx="0.32" ry="11.87" style="fill:#79787d"/><ellipse cx="122.83" cy="13.58" rx="0.32" ry="11.87" style="fill:#79787d"/><ellipse cx="123.31" cy="13.58" rx="0.32" ry="11.87" style="fill:#79787d"/><ellipse cx="123.79" cy="13.58" rx="0.32" ry="11.87" style="fill:#79787d"/><rect x="124.11" width="114.87" height="27.08" rx="2.88" ry="2.88" style="fill:#9a9a9d"/><rect x="128.16" y="8.4" width="5.09" height="14.32" rx="2.44" ry="2.44" style="fill:#a4a3a7"/><rect x="135" y="8.4" width="7.39" height="4.14" rx="0.91" ry="0.91" style="fill:#8fc3e2"/><rect x="144.6" y="8.4" width="7.39" height="4.14" rx="0.91" ry="0.91" style="fill:#8fc3e2"/><rect x="154.2" y="8.4" width="7.39" height="4.14" rx="0.91" ry="0.91" style="fill:#8fc3e2"/><rect x="163.8" y="8.4" width="7.39" height="4.14" rx="0.91" ry="0.91" style="fill:#8fc3e2"/><rect x="173.4" y="8.4" width="7.39" height="4.14" rx="0.91" ry="0.91" style="fill:#8fc3e2"/><rect x="183" y="8.4" width="7.39" height="4.14" rx="0.91" ry="0.91" style="fill:#8fc3e2"/><rect x="192.6" y="8.4" width="7.39" height="4.14" rx="0.91" ry="0.91" style="fill:#8fc3e2"/><rect x="231.12" y="8.4" width="5.09" height="14.32" rx="2.44" ry="2.44" style="fill:#a4a3a7"/><rect x="202.19" y="8.4" width="7.39" height="4.14" rx="0.91" ry="0.91" style="fill:#8fc3e2"/><rect x="211.79" y="8.4" width="7.39" height="4.14" rx="0.91" ry="0.91" style="fill:#8fc3e2"/><rect x="221.39" y="8.4" width="7.39" height="4.14" rx="0.91" ry="0.91" style="fill:#8fc3e2"/><ellipse cx="239.23" cy="13.58" rx="0.32" ry="11.87" style="fill:#79787d"/><ellipse cx="239.71" cy="13.58" rx="0.32" ry="11.87" style="fill:#79787d"/><ellipse cx="240.19" cy="13.58" rx="0.32" ry="11.87" style="fill:#79787d"/><ellipse cx="240.67" cy="13.58" rx="0.32" ry="11.87" style="fill:#79787d"/><ellipse cx="241.15" cy="13.58" rx="0.32" ry="11.87" style="fill:#79787d"/><ellipse cx="241.63" cy="13.58" rx="0.32" ry="11.87" style="fill:#79787d"/><ellipse cx="242.11" cy="13.58" rx="0.32" ry="11.87" style="fill:#79787d"/><rect x="242.43" width="114.87" height="27.08" rx="2.88" ry="2.88" style="fill:#9a9a9d"/><rect x="246.47" y="8.4" width="5.09" height="14.32" rx="2.44" ry="2.44" style="fill:#a4a3a7"/><rect x="253.31" y="8.4" width="7.39" height="4.14" rx="0.91" ry="0.91" style="fill:#8fc3e2"/><rect x="262.91" y="8.4" width="7.39" height="4.14" rx="0.91" ry="0.91" style="fill:#8fc3e2"/><rect x="272.51" y="8.4" width="7.39" height="4.14" rx="0.91" ry="0.91" style="fill:#8fc3e2"/><rect x="282.11" y="8.4" width="7.39" height="4.14" rx="0.91" ry="0.91" style="fill:#8fc3e2"/><rect x="291.71" y="8.4" width="7.39" height="4.14" rx="0.91" ry="0.91" style="fill:#8fc3e2"/><rect x="301.31" y="8.4" width="7.39" height="4.14" rx="0.91" ry="0.91" style="fill:#8fc3e2"/><rect x="310.91" y="8.4" width="7.39" height="4.14" rx="0.91" ry="0.91" style="fill:#8fc3e2"/><rect x="349.43" y="8.4" width="5.09" height="14.32" rx="2.44" ry="2.44" style="fill:#a4a3a7"/><rect x="320.51" y="8.4" width="7.39" height="4.14" rx="0.91" ry="0.91" style="fill:#8fc3e2"/><rect x="330.11" y="8.4" width="7.39" height="4.14" rx="0.91" ry="0.91" style="fill:#8fc3e2"/><rect x="339.71" y="8.4" width="7.39" height="4.14" rx="0.91" ry="0.91" style="fill:#8fc3e2"/><ellipse cx="357.52" cy="13.58" rx="0.34" ry="11.87" style="fill:#79787d"/><ellipse cx="358.04" cy="13.58" rx="0.34" ry="11.87" style="fill:#79787d"/><ellipse cx="358.55" cy="13.58" rx="0.34" ry="11.87" style="fill:#79787d"/><ellipse cx="359.06" cy="13.58" rx="0.34" ry="11.87" style="fill:#79787d"/><ellipse cx="359.58" cy="13.58" rx="0.34" ry="11.87" style="fill:#79787d"/><ellipse cx="360.09" cy="13.58" rx="0.34" ry="11.87" style="fill:#79787d"/><ellipse cx="360.61" cy="13.58" rx="0.34" ry="11.87" style="fill:#79787d"/></g></g></g></g></svg>