<svg width="91" height="350" viewBox="0 0 91 350" fill="none" xmlns="http://www.w3.org/2000/svg">
<path d="M75.8315 122.681C75.8315 77.2171 62.3375 62.0625 62.3375 62.0625L56.0966 116.788L33.6628 114.262L40.4098 122.681C43.7833 158.042 13.4219 203.001 13.4219 203.001C57.2773 279.953 64.0243 350.001 64.0243 350.001C114.627 220.344 75.8315 122.681 75.8315 122.681Z" fill="#F9E9D7"/>
<path d="M51.3741 119.135L6.67535 115.094C2.79583 114.757 -0.0716181 111.221 0.265731 107.517L9.54284 7.32789C9.88019 3.45504 13.4224 0.592489 17.1332 0.929259L61.832 4.9705C65.7115 5.30727 68.5789 8.84335 68.2416 12.5478L58.9645 112.737C58.6271 116.61 55.2536 119.472 51.3741 119.135Z" fill="#426262"/>
<path d="M52.0479 117.45C51.8792 117.45 51.7105 117.45 51.5419 117.45L6.84305 113.409C3.97558 113.072 1.78282 110.546 1.9515 107.516L11.2286 7.32653C11.3973 4.63237 13.7587 2.44336 16.6262 2.44336C16.7949 2.44336 16.9635 2.44336 17.1322 2.44336L22.5298 2.94852C22.5298 4.2956 23.0358 5.64267 23.8792 6.65298C24.8913 7.83168 26.2406 8.67361 27.9274 8.84199L50.1925 10.8626C50.3611 10.8626 50.5298 10.8626 50.6985 10.8626C53.566 10.8626 55.9274 8.84198 56.4334 5.97944L61.831 6.4846C63.1804 6.65299 64.5298 7.32652 65.3732 8.33683C66.2166 9.51553 66.7226 10.8626 66.5539 12.2097L57.2768 112.399C57.1081 115.261 54.7467 117.45 52.0479 117.45Z" fill="white"/>
<path d="M16.4577 4.12746C16.6264 4.12746 16.6264 4.12746 16.7951 4.12746L20.8433 4.46423C21.518 7.66354 24.2168 10.1893 27.5903 10.5261L49.8553 12.5467C50.024 12.5467 50.3613 12.5467 50.53 12.5467C53.5662 12.5467 56.4337 10.5261 57.6144 7.83192L61.6626 8.1687C63.6867 8.33709 65.2047 10.1893 65.0361 12.2099L55.7589 112.399C55.5903 114.251 53.9035 115.767 52.0481 115.767C51.8794 115.767 51.8794 115.767 51.7108 115.767L7.01197 111.725C5.99992 111.557 5.15655 111.22 4.48185 110.378C3.80715 109.705 3.4698 108.694 3.63848 107.684L12.9156 7.49516C13.0843 5.64293 14.6023 4.12746 16.4577 4.12746ZM16.4577 0.759766C12.9156 0.759766 9.71075 3.45393 9.37341 7.15839L0.0962974 107.347C-0.241052 111.22 2.62642 114.588 6.50594 114.925L51.2047 118.966C51.3734 118.966 51.7107 118.966 51.8794 118.966C55.4216 118.966 58.6264 116.272 58.9638 112.567L68.2409 12.3783C68.5782 8.50547 65.7108 5.13777 61.8312 4.801L54.7469 4.12746L54.5782 5.30615C54.4096 7.49515 52.5541 9.17901 50.3614 9.17901C50.1927 9.17901 50.024 9.17901 50.024 9.17901L27.7589 7.15839C25.3975 6.99001 23.7108 4.801 23.8794 2.612L24.0481 1.43331L16.9638 0.759766C16.9638 0.759766 16.7951 0.759766 16.4577 0.759766Z" fill="#426262"/>
<path d="M74.8191 102.474C74.8191 102.474 74.1444 78.8999 62.3372 62.0614C50.53 45.2229 33.6625 35.1199 47.1565 58.6937C60.6504 82.2676 59.4697 107.525 59.4697 107.525L74.8191 102.474Z" fill="#F9E9D7"/>
</svg>
