<svg width="52" height="51" viewBox="0 0 52 51" fill="none" xmlns="http://www.w3.org/2000/svg">
<g clip-path="url(#clip0)">
<path d="M25.6871 36.8535C25.1243 36.6665 24.6478 36.2015 24.2326 35.4873C23.1775 33.6619 22.6263 31.9722 22.5449 30.3382C22.4635 28.7042 22.6363 26.8375 22.9998 24.6325C23.2951 22.9229 23.4247 21.5229 23.4181 20.4582C23.4114 19.3936 23.137 18.3984 22.5607 17.3929C21.9504 16.3073 21.02 15.6491 19.8535 15.4411C18.687 15.2331 17.3979 15.5236 16.0656 16.2806C14.8876 16.9198 13.9206 17.7931 13.1397 18.929C12.3838 20.0362 11.5461 21.4757 10.6516 23.2188C10.1 24.1508 9.5756 24.7535 9.04904 25.0014C8.48159 25.4154 7.85293 25.4231 7.14716 25.1621C6.44139 24.9011 5.90587 24.3848 5.4657 23.6994C4.94841 22.7451 4.89185 21.7378 5.3255 20.7032C5.98398 18.7548 7.06231 16.9196 8.5355 15.2261C10.0087 13.5327 11.6725 12.1563 13.5813 11.094C15.5696 9.99994 17.5396 9.34383 19.496 9.18004C21.4523 9.01625 23.227 9.29955 24.7656 10.033C26.3337 10.792 27.5772 11.9242 28.4757 13.5126C29.4672 15.2324 29.939 16.9538 29.8365 18.68C29.7341 20.4062 29.3865 22.4737 28.7438 24.9401C28.2079 27.0455 27.8876 28.7838 27.7784 30.1007C27.6693 31.4177 27.8574 32.6907 28.3769 33.9998C28.5902 34.5887 28.606 35.1067 28.3994 35.5825C28.2177 36.0296 27.8682 36.4314 27.3461 36.7336C26.8195 36.9815 26.2499 37.0406 25.6871 36.8535ZM30.2584 47.3855C29.1623 47.037 28.3113 46.3471 27.7055 45.3159C27.0997 44.2846 26.9252 43.1747 27.1909 42.0948C27.4566 41.015 28.1262 40.1856 29.1703 39.5812C30.1894 39.0055 31.2743 38.8903 32.3954 39.2101C33.4915 39.5585 34.3424 40.2484 34.9482 41.2796C35.5835 42.3365 35.7286 43.4208 35.4084 44.5037C35.1177 45.6123 34.473 46.4129 33.4539 46.9887C32.4098 47.5931 31.3545 47.7339 30.2584 47.3855Z" fill="#CB563E"/>
<path d="M21.2279 7.30911C21.2279 7.30911 31.6676 7.81891 31.8244 19.553" stroke="url(#paint0_radial)" stroke-miterlimit="10" stroke-linecap="round" stroke-linejoin="round"/>
<path d="M20.9296 26.7141C20.9296 26.7141 19.6579 31.1545 22.1537 34.8385" stroke="url(#paint1_radial)" stroke-miterlimit="10" stroke-linecap="round" stroke-linejoin="round"/>
</g>
<defs>
<radialGradient id="paint0_radial" cx="0" cy="0" r="1" gradientUnits="userSpaceOnUse" gradientTransform="translate(27.2813 12.563) rotate(41.0215) scale(8.01544 2.29185)">
<stop stop-color="#CB563E"/>
<stop offset="1" stop-color="#CB563E" stop-opacity="0"/>
</radialGradient>
<radialGradient id="paint1_radial" cx="0" cy="0" r="1" gradientUnits="userSpaceOnUse" gradientTransform="translate(21.5416 30.7763) rotate(41.0215) scale(3.12798 2.66303)">
<stop stop-color="#CB563E"/>
<stop offset="1" stop-color="#CB563E" stop-opacity="0"/>
</radialGradient>
<clipPath id="clip0">
<rect x="0.718506" y="22.6758" width="28.8012" height="42.0341" transform="rotate(-48.9785 0.718506 22.6758)" fill="white"/>
</clipPath>
</defs>
</svg>
