<svg width="57" height="75" viewBox="0 0 57 75" fill="none" xmlns="http://www.w3.org/2000/svg">
<g clip-path="url(#clip0)">
<path d="M16.4409 50.864C15.9485 50.0427 15.8541 48.9719 16.0971 47.6603C16.7257 44.3145 17.8285 41.6651 19.4481 39.5783C21.0676 37.4914 23.2433 35.387 26.0086 33.069C28.1692 31.2859 29.801 29.7076 30.9131 28.3967C32.0252 27.0858 32.7362 25.5783 33.0884 23.7403C33.4833 21.7686 33.0362 19.9836 31.8265 18.5015C30.6167 17.0194 28.7323 16.0186 26.3039 15.544C24.1886 15.0874 22.0855 15.1394 19.9339 15.7089C17.8431 16.2696 15.3025 17.1512 12.3729 18.3448C10.7167 18.9058 9.44029 19.0923 8.53459 18.8418C7.40402 18.7517 6.62591 18.0998 6.03616 17.0375C5.44642 15.9752 5.3338 14.7794 5.51596 13.4768C5.88649 11.7638 6.87706 10.4706 8.4968 9.65974C11.3533 7.96637 14.605 6.85329 18.1912 6.32938C21.7773 5.80547 25.2631 5.87042 28.7187 6.57783C32.305 7.32994 35.4082 8.59926 37.9765 10.4571C40.5448 12.315 42.4203 14.5293 43.533 17.0464C44.6548 19.6261 44.9864 22.3211 44.4155 25.2118C43.8203 28.3613 42.5868 30.966 40.6451 32.9724C38.7033 34.9787 36.1022 37.1452 32.7199 39.4896C29.8483 41.5042 27.6269 43.2962 26.1076 44.7942C24.5882 46.2922 23.4792 48.0493 22.7379 50.1993C22.3795 51.1449 21.8538 51.7959 21.1001 52.1612C20.4073 52.5176 19.5563 52.642 18.599 52.4628C17.6933 52.2123 16.9334 51.6853 16.4409 50.864ZM10.9579 68.5727C9.98207 66.9926 9.66575 65.2523 10.0089 63.3519C10.352 61.4515 11.3061 59.9085 12.7678 58.8655C14.2295 57.8225 15.9222 57.5114 17.8369 57.8697C19.6908 58.2369 21.1407 59.2374 22.1772 60.8086C23.153 62.3887 23.4693 64.129 23.1262 66.0294C22.7922 67.9922 21.829 69.4728 20.2974 70.4622C18.7749 71.514 17.143 71.8163 15.289 71.4491C13.3743 71.0908 11.9337 70.1528 10.9579 68.5727Z" fill="#CB563E"/>
<path d="M42.0678 9.98674C42.0678 9.98674 54.3172 21.5957 42.1627 36.1319" stroke="url(#paint0_radial)" stroke-width="2" stroke-miterlimit="10" stroke-linecap="round" stroke-linejoin="round"/>
<path d="M21.2838 33.4404C21.2838 33.4404 15.0542 37.5407 14.2346 44.6787" stroke="url(#paint1_radial)" stroke-width="2" stroke-miterlimit="10" stroke-linecap="round" stroke-linejoin="round"/>
</g>
<defs>
<radialGradient id="paint0_radial" cx="0" cy="0" r="1" gradientUnits="userSpaceOnUse" gradientTransform="translate(47.5001 18.999) rotate(81.4692) scale(10.1119 2.89128)">
<stop stop-color="#CB563E"/>
<stop offset="1" stop-color="#CB563E" stop-opacity="0"/>
</radialGradient>
<radialGradient id="paint1_radial" cx="0" cy="0" r="1" gradientUnits="userSpaceOnUse" gradientTransform="translate(17.7592 39.0595) rotate(81.6882) scale(5.05058 4.29986)">
<stop stop-color="#CB563E"/>
<stop offset="1" stop-color="#CB563E" stop-opacity="0"/>
</radialGradient>
<clipPath id="clip0">
<rect x="0.837402" y="7.3125" width="46.5169" height="67.8895" transform="rotate(-8.31179 0.837402 7.3125)" fill="white"/>
</clipPath>
</defs>
</svg>
