<svg width="65" height="94" viewBox="0 0 65 94" fill="none" xmlns="http://www.w3.org/2000/svg">
<path d="M12.43 63.5943C11.8972 62.3283 11.986 60.791 12.6076 58.9824C14.2059 54.3705 16.337 50.8437 19.0897 48.2213C21.8424 45.5988 25.3942 43.0667 29.8341 40.3538C33.2971 38.274 35.961 36.3749 37.8257 34.7472C39.6904 33.1194 41.0224 31.13 41.9104 28.5979C42.8871 25.885 42.6207 23.2626 41.2 20.9114C39.7792 18.5602 37.2929 16.7516 33.9187 15.576C30.9884 14.4909 27.9693 14.1291 24.7727 14.4909C21.6648 14.8526 17.8466 15.576 13.4067 16.6612C10.9204 17.1133 9.05572 17.1133 7.81258 16.5708C6.21424 16.209 5.23748 15.1239 4.61591 13.4961C3.99434 11.8684 4.08313 10.1502 4.61591 8.34163C5.50387 5.99045 7.191 4.36271 9.6773 3.54884C14.1171 1.74024 19.0009 0.835938 24.2399 0.835938C29.4789 0.835938 34.4515 1.64981 39.2465 3.36798C44.2191 5.17658 48.3925 7.61819 51.6779 10.7832C54.9634 13.9483 57.1833 17.4751 58.2489 21.2731C59.3144 25.1616 59.2256 29.0501 57.8049 33.029C56.2953 37.3697 53.9866 40.806 50.79 43.2476C47.5933 45.6892 43.4199 48.2212 38.0921 50.8437C33.5635 53.1045 30.0116 55.1844 27.5254 56.993C25.0391 58.8016 23.0855 61.0623 21.576 63.9561C20.8656 65.2221 19.9777 66.036 18.8233 66.3977C17.7578 66.7594 16.5146 66.7594 15.1827 66.3073C13.9395 65.7647 12.9628 64.8604 12.43 63.5943ZM0.886467 87.5583C-0.179089 85.1167 -0.267885 82.5846 0.620078 79.9622C1.50804 77.3397 3.19517 75.3502 5.50387 74.1747C7.81258 72.9991 10.2989 72.9086 12.9628 73.8129C15.5379 74.7172 17.4026 76.4354 18.5569 78.877C19.6225 81.3186 19.7113 83.8507 18.8233 86.4731C17.9354 89.186 16.2482 91.0851 13.8507 92.1702C11.4532 93.3458 9.05573 93.4362 6.48063 92.5319C3.81674 91.6276 1.95202 89.9999 0.886467 87.5583Z" fill="#CB563E"/>
<path d="M57.4778 11C57.4778 11 72.9982 29.9512 52 48" stroke="url(#paint0_radial)" stroke-width="2" stroke-miterlimit="10" stroke-linecap="round" stroke-linejoin="round"/>
<path d="M23 40C23 40 13.5714 44.375 11 54" stroke="url(#paint1_radial)" stroke-width="2" stroke-miterlimit="10" stroke-linecap="round" stroke-linejoin="round"/>
<defs>
<radialGradient id="paint0_radial" cx="0" cy="0" r="1" gradientUnits="userSpaceOnUse" gradientTransform="translate(57.5 29.5) rotate(90) scale(18.5 5.5)">
<stop stop-color="#CB563E"/>
<stop offset="1" stop-color="#CB563E" stop-opacity="0"/>
</radialGradient>
<radialGradient id="paint1_radial" cx="0" cy="0" r="1" gradientUnits="userSpaceOnUse" gradientTransform="translate(17 47) rotate(90) scale(7 6)">
<stop stop-color="#CB563E"/>
<stop offset="1" stop-color="#CB563E" stop-opacity="0"/>
</radialGradient>
</defs>
</svg>
