<svg width="367" height="424" viewBox="0 0 367 424" fill="none" xmlns="http://www.w3.org/2000/svg">
<path d="M1.07861 112.945C1.07861 102.452 9.5852 93.9453 20.0786 93.9453H173.814V422.001H1.07861V112.945Z" fill="#426262" stroke="#5A8D8C" stroke-width="2"/>
<path d="M100.241 78.6172H32.5592C27.5886 78.6172 23.5592 82.6466 23.5592 87.6172V93.9885H100.241V78.6172Z" fill="#426262" stroke="#5A8D8C" stroke-width="2"/>
<path d="M268.802 78.6172H336.484C341.454 78.6172 345.484 82.6466 345.484 87.6172V93.9885H268.802V78.6172Z" fill="#426262" stroke="#5A8D8C" stroke-width="2"/>
<path d="M193.186 93.9453H346.921C357.414 93.9453 365.921 102.452 365.921 112.945V422.001H193.186V93.9453Z" fill="#426262" stroke="#5A8D8C" stroke-width="2"/>
<rect x="263.715" y="111.34" width="14.3058" height="19.415" rx="3" fill="white"/>
<rect x="17.4502" y="111.34" width="14.3058" height="19.415" rx="3" fill="white"/>
<rect x="263.715" y="139.953" width="14.3058" height="19.415" rx="3" fill="white"/>
<rect x="17.4502" y="139.953" width="14.3058" height="19.415" rx="3" fill="white"/>
<rect x="263.715" y="168.562" width="14.3058" height="18.3932" rx="3" fill="white"/>
<rect x="17.4502" y="168.562" width="14.3058" height="18.3932" rx="3" fill="white"/>
<rect x="263.715" y="197.176" width="14.3058" height="18.3932" rx="3" fill="white"/>
<rect x="17.4502" y="197.176" width="14.3058" height="18.3932" rx="3" fill="white"/>
<rect x="263.715" y="225.789" width="14.3058" height="18.3932" rx="3" fill="white"/>
<rect x="263.715" y="311.621" width="14.3058" height="18.3932" rx="3" fill="white"/>
<rect x="17.4502" y="225.789" width="14.3058" height="18.3932" rx="3" fill="white"/>
<rect x="17.4502" y="311.621" width="14.3058" height="18.3932" rx="3" fill="white"/>
<rect x="263.715" y="254.395" width="14.3058" height="18.3932" rx="3" fill="white"/>
<rect x="263.715" y="340.234" width="14.3058" height="18.3932" rx="3" fill="white"/>
<rect x="17.4502" y="254.395" width="14.3058" height="18.3932" rx="3" fill="white"/>
<rect x="17.4502" y="340.234" width="14.3058" height="18.3932" rx="3" fill="white"/>
<rect x="263.715" y="281.988" width="14.3058" height="19.415" rx="3" fill="white"/>
<rect x="263.715" y="367.824" width="14.3058" height="19.415" rx="3" fill="white"/>
<rect x="17.4502" y="281.988" width="14.3058" height="19.415" rx="3" fill="white"/>
<rect x="17.4502" y="367.824" width="14.3058" height="19.415" rx="3" fill="white"/>
<rect x="287.217" y="111.34" width="14.3058" height="19.415" rx="3" fill="white"/>
<rect x="40.9526" y="111.34" width="14.3058" height="19.415" rx="3" fill="white"/>
<rect x="287.217" y="139.953" width="14.3058" height="19.415" rx="3" fill="white"/>
<rect x="40.9526" y="139.953" width="14.3058" height="19.415" rx="3" fill="white"/>
<rect x="287.217" y="168.562" width="14.3058" height="18.3932" rx="3" fill="white"/>
<rect x="40.9526" y="168.562" width="14.3058" height="18.3932" rx="3" fill="white"/>
<rect x="287.217" y="197.176" width="14.3058" height="18.3932" rx="3" fill="white"/>
<rect x="40.9526" y="197.176" width="14.3058" height="18.3932" rx="3" fill="white"/>
<rect x="287.217" y="225.789" width="14.3058" height="18.3932" rx="3" fill="white"/>
<rect x="287.217" y="311.621" width="14.3058" height="18.3932" rx="3" fill="white"/>
<rect x="40.9526" y="225.789" width="14.3058" height="18.3932" rx="3" fill="white"/>
<rect x="40.9526" y="311.621" width="14.3058" height="18.3932" rx="3" fill="white"/>
<rect x="287.217" y="254.395" width="14.3058" height="18.3932" rx="3" fill="white"/>
<rect x="287.217" y="340.234" width="14.3058" height="18.3932" rx="3" fill="white"/>
<rect x="40.9526" y="254.395" width="14.3058" height="18.3932" rx="3" fill="white"/>
<rect x="40.9526" y="340.234" width="14.3058" height="18.3932" rx="3" fill="white"/>
<rect x="287.217" y="281.988" width="14.3058" height="19.415" rx="3" fill="white"/>
<rect x="287.217" y="367.824" width="14.3058" height="19.415" rx="3" fill="white"/>
<rect x="40.9526" y="281.988" width="14.3058" height="19.415" rx="3" fill="white"/>
<rect x="40.9526" y="367.824" width="14.3058" height="19.415" rx="3" fill="white"/>
<rect x="311.742" y="111.34" width="14.3058" height="19.415" rx="3" fill="white"/>
<rect x="65.4771" y="111.34" width="14.3058" height="19.415" rx="3" fill="white"/>
<rect x="311.742" y="139.953" width="14.3058" height="19.415" rx="3" fill="white"/>
<rect x="65.4771" y="139.953" width="14.3058" height="19.415" rx="3" fill="white"/>
<rect x="311.742" y="168.562" width="14.3058" height="18.3932" rx="3" fill="white"/>
<rect x="65.4771" y="168.562" width="14.3058" height="18.3932" rx="3" fill="white"/>
<rect x="311.742" y="197.176" width="14.3058" height="18.3932" rx="3" fill="white"/>
<rect x="65.4771" y="197.176" width="14.3058" height="18.3932" rx="3" fill="white"/>
<rect x="311.742" y="225.789" width="14.3058" height="18.3932" rx="3" fill="white"/>
<rect x="311.742" y="311.621" width="14.3058" height="18.3932" rx="3" fill="white"/>
<rect x="65.4771" y="225.789" width="14.3058" height="18.3932" rx="3" fill="white"/>
<rect x="65.4771" y="311.621" width="14.3058" height="18.3932" rx="3" fill="white"/>
<rect x="311.742" y="254.395" width="14.3058" height="18.3932" rx="3" fill="white"/>
<rect x="311.742" y="340.234" width="14.3058" height="18.3932" rx="3" fill="white"/>
<rect x="65.4771" y="254.395" width="14.3058" height="18.3932" rx="3" fill="white"/>
<rect x="65.4771" y="340.234" width="14.3058" height="18.3932" rx="3" fill="white"/>
<rect x="311.742" y="281.988" width="14.3058" height="19.415" rx="3" fill="white"/>
<rect x="311.742" y="367.824" width="14.3058" height="19.415" rx="3" fill="white"/>
<rect x="65.4771" y="281.988" width="14.3058" height="19.415" rx="3" fill="white"/>
<rect x="65.4771" y="367.824" width="14.3058" height="19.415" rx="3" fill="white"/>
<rect x="335.244" y="111.34" width="14.3058" height="19.415" rx="3" fill="white"/>
<rect x="88.9795" y="111.34" width="14.3058" height="19.415" rx="3" fill="white"/>
<rect x="335.244" y="139.953" width="14.3058" height="19.415" rx="3" fill="white"/>
<rect x="88.9795" y="139.953" width="14.3058" height="19.415" rx="3" fill="white"/>
<rect x="335.244" y="168.562" width="14.3058" height="18.3932" rx="3" fill="white"/>
<rect x="88.9795" y="168.562" width="14.3058" height="18.3932" rx="3" fill="white"/>
<rect x="335.244" y="197.176" width="14.3058" height="18.3932" rx="3" fill="white"/>
<rect x="88.9795" y="197.176" width="14.3058" height="18.3932" rx="3" fill="white"/>
<rect x="335.244" y="225.789" width="14.3058" height="18.3932" rx="3" fill="white"/>
<rect x="335.244" y="311.621" width="14.3058" height="18.3932" rx="3" fill="white"/>
<rect x="88.9795" y="225.789" width="14.3058" height="18.3932" rx="3" fill="white"/>
<rect x="88.9795" y="311.621" width="14.3058" height="18.3932" rx="3" fill="white"/>
<rect x="335.244" y="254.395" width="14.3058" height="18.3932" rx="3" fill="white"/>
<rect x="335.244" y="340.234" width="14.3058" height="18.3932" rx="3" fill="white"/>
<rect x="88.9795" y="254.395" width="14.3058" height="18.3932" rx="3" fill="white"/>
<rect x="88.9795" y="340.234" width="14.3058" height="18.3932" rx="3" fill="white"/>
<rect x="335.244" y="281.988" width="14.3058" height="19.415" rx="3" fill="white"/>
<rect x="335.244" y="367.824" width="14.3058" height="19.415" rx="3" fill="white"/>
<rect x="88.9795" y="281.988" width="14.3058" height="19.415" rx="3" fill="white"/>
<rect x="88.9795" y="367.824" width="14.3058" height="19.415" rx="3" fill="white"/>
<path d="M127.81 24.3047C127.81 18.7818 132.287 14.3047 137.81 14.3047H229.191C234.713 14.3047 239.191 18.7818 239.191 24.3047V35.7634H127.81V24.3047Z" fill="#CB563E"/>
<path d="M158.465 10C158.465 4.47715 162.942 0 168.465 0H198.535C204.058 0 208.535 4.47715 208.535 10V21.4587H158.465V10Z" fill="#CB563E"/>
<path d="M97.1543 51.6758C97.1543 40.6301 106.109 31.6758 117.154 31.6758H250.868C261.914 31.6758 270.868 40.6301 270.868 51.6758V420.999H97.1543V51.6758Z" fill="#CB563E"/>
<circle cx="182.989" cy="355.555" r="34.7427" fill="white"/>
<rect x="148.247" y="355.555" width="69.4854" height="65.3981" fill="white"/>
<rect x="163.574" y="103.16" width="40.8738" height="52.1141" rx="10" fill="white"/>
<rect x="124" y="191" width="120" height="51" rx="10" fill="white"/>
<circle cx="327" cy="34" r="9" fill="#71C0A0"/>
</svg>
