<svg width="1110" height="156" viewBox="0 0 1110 156" fill="none" xmlns="http://www.w3.org/2000/svg">
<rect x="1" y="29" width="36" height="81" rx="18" fill="white" stroke="#5A8D8C" stroke-width="2"/>
<rect x="26" y="92" width="18" height="41" rx="9" fill="#CB563E" stroke="#5A8D8C" stroke-width="2"/>
<rect x="394" y="1" width="36" height="81" rx="18" fill="white" stroke="#5A8D8C" stroke-width="2"/>
<rect x="374" y="40" width="24" height="54" rx="12" fill="#71C0A0" stroke="#5A8D8C" stroke-width="2"/>
<rect x="678" y="77" width="24" height="54" rx="12" fill="white" stroke="#5A8D8C" stroke-width="2"/>
<rect x="695" y="15" width="42" height="93" rx="21" fill="#CB563E" stroke="#5A8D8C" stroke-width="2"/>
<rect x="1075" y="49" width="34" height="77" rx="17" fill="#CB563E" stroke="#5A8D8C" stroke-width="2"/>
<path d="M19 53L19 155" stroke="#5A8D8C" stroke-width="2" stroke-linecap="round"/>
<path d="M35 110L35 155" stroke="#5A8D8C" stroke-width="2" stroke-linecap="round"/>
<path d="M412 27L412 154" stroke="#5A8D8C" stroke-width="2" stroke-linecap="round"/>
<path d="M1092 78L1092 154" stroke="#5A8D8C" stroke-width="2" stroke-linecap="round"/>
<path d="M386 63L386 154" stroke="#5A8D8C" stroke-width="2" stroke-linecap="round"/>
<path d="M690 100L690 153" stroke="#5A8D8C" stroke-width="2" stroke-linecap="round"/>
<path d="M466 142.491C466 136.643 461.31 131.983 455.425 131.983C454.23 131.983 453.034 132.166 451.931 132.531C452.391 130.612 452.667 128.51 452.667 126.5C452.667 111.879 440.713 100 426 100C413.126 100 402.368 109.138 399.885 121.2C392.069 122.297 386 128.967 386 137.009C386 145.872 393.172 153 402.092 153C402.276 153 402.368 153 402.552 153H455.885C461.494 152.726 466 148.157 466 142.491Z" fill="#CB563E" stroke="#5A8D8C" stroke-width="2" stroke-miterlimit="10"/>
<path d="M437 147.052C437 143.741 439.697 141.103 443.08 141.103C443.768 141.103 444.455 141.207 445.09 141.414C444.825 140.328 444.667 139.138 444.667 138C444.667 129.724 451.54 123 460 123C467.402 123 473.589 128.172 475.016 135C479.51 135.621 483 139.397 483 143.948C483 148.966 478.876 153 473.747 153C473.641 153 473.589 153 473.483 153H442.816C439.591 152.845 437 150.259 437 147.052Z" fill="white" stroke="#5A8D8C" stroke-width="2" stroke-miterlimit="10"/>
<path d="M1041 147.052C1041 143.741 1043.7 141.103 1047.08 141.103C1047.77 141.103 1048.46 141.207 1049.09 141.414C1048.83 140.328 1048.67 139.138 1048.67 138C1048.67 129.724 1055.54 123 1064 123C1071.4 123 1077.59 128.172 1079.02 135C1083.51 135.621 1087 139.397 1087 143.948C1087 148.966 1082.88 153 1077.75 153C1077.64 153 1077.59 153 1077.48 153H1046.82C1043.59 152.845 1041 150.259 1041 147.052Z" fill="white" stroke="#5A8D8C" stroke-width="2" stroke-miterlimit="10"/>
<path d="M1103 150.026C1103 148.371 1101.65 147.052 1099.96 147.052C1099.62 147.052 1099.27 147.103 1098.96 147.207C1099.09 146.664 1099.17 146.069 1099.17 145.5C1099.17 141.362 1095.73 138 1091.5 138C1087.8 138 1084.71 140.586 1083.99 144C1081.74 144.31 1080 146.198 1080 148.474C1080 150.983 1082.06 153 1084.63 153C1084.68 153 1084.71 153 1084.76 153H1100.09C1101.7 152.922 1103 151.629 1103 150.026Z" fill="#71C0A0" stroke="#5A8D8C" stroke-width="2" stroke-miterlimit="10"/>
<path d="M85.9998 144.466C85.9998 139.585 89.9407 135.695 94.8861 135.695C95.8907 135.695 96.8952 135.847 97.8225 136.153C97.4361 134.551 97.2043 132.797 97.2043 131.119C97.2043 118.915 107.25 109 119.613 109C130.432 109 139.473 116.627 141.559 126.695C148.127 127.61 153.227 133.178 153.227 139.89C153.227 147.288 147.2 153.237 139.704 153.237C139.55 153.237 139.473 153.237 139.318 153.237H94.4998C89.7861 153.008 85.9998 149.195 85.9998 144.466Z" fill="#71C0A0" stroke="#5A8D8C" stroke-width="2" stroke-miterlimit="10"/>
<path d="M716 63L716 154" stroke="#5A8D8C" stroke-width="2" stroke-linecap="round"/>
</svg>
