<svg width="47" height="47" viewBox="0 0 47 47" fill="none" xmlns="http://www.w3.org/2000/svg">
<g clip-path="url(#clip0)">
<path d="M23.5286 0C10.5335 0 0 10.5335 0 23.5286C0 36.5238 10.5335 47.0572 23.5286 47.0572C36.5238 47.0572 47.0572 36.5238 47.0572 23.5286C47.0572 10.5335 36.4665 0 23.5286 0ZM40.989 25.4178H23.0706C22.0402 25.4178 21.1815 24.5591 21.1815 23.5286V8.52984C21.1815 7.49939 22.0402 6.64068 23.0706 6.64068C24.1011 6.64068 24.9598 7.49939 24.9598 8.52984V21.6395H40.989C42.0195 21.6395 42.8782 22.4982 42.8782 23.5286C42.8782 24.5591 42.0195 25.4178 40.989 25.4178Z" fill="#71C0A0"/>
</g>
<defs>
<clipPath id="clip0">
<rect width="47" height="47" fill="white"/>
</clipPath>
</defs>
</svg>
