<svg width="59" height="38" viewBox="0 0 59 38" fill="none" xmlns="http://www.w3.org/2000/svg">
<path d="M48.0962 1.96031L4.68561 13.3168C3.59404 13.6093 2.66992 14.2699 2.17007 15.2297C1.60601 16.2066 1.47882 17.273 1.7071 18.3818L5.53122 32.9105C6.11619 35.0936 8.41302 36.4739 10.5962 35.889L54.0067 24.5324C56.2541 23.9303 57.5702 21.6506 56.9853 19.4675L53.1611 4.93883C52.559 2.69147 50.2793 1.37534 48.0962 1.96031ZM37.6488 24.0981C36.3797 26.2963 34.309 27.8146 31.869 28.4684L31.8048 28.4856C29.3648 29.1394 26.7952 28.7957 24.5798 27.4623C22.3816 26.1932 20.7818 24.0755 20.1923 21.6183C18.8973 16.5285 21.9056 11.3179 26.9782 9.95875L27.0424 9.94154C32.1322 8.64656 37.3427 11.6549 38.7192 16.7917C39.3259 19.3131 38.9822 21.8827 37.6488 24.0981Z" fill="#CB563E"/>
</svg>
