<svg id="Calque_2" data-name="Calque 2" xmlns="http://www.w3.org/2000/svg" viewBox="0 0 4081.89 2902.68"><title>PERSO FOND</title><rect x="2823.81" y="1506.23" width="305.32" height="748.88" style="fill:#c5d2ed"/><rect id="fenetre" x="2854.89" y="1543.1" width="42.64" height="64.17" style="fill:#d8e0f3"/><rect id="fenetre-2" data-name="fenetre" x="2920.49" y="1543.1" width="42.64" height="64.17" style="fill:#d8e0f3"/><rect id="fenetre-3" data-name="fenetre" x="2986.09" y="1543.1" width="42.64" height="64.17" style="fill:#d8e0f3"/><rect id="fenetre-4" data-name="fenetre" x="3051.69" y="1543.1" width="42.64" height="64.17" style="fill:#d8e0f3"/><rect id="fenetre-5" data-name="fenetre" x="2854.89" y="1629.28" width="42.64" height="64.17" style="fill:#d8e0f3"/><rect id="fenetre-6" data-name="fenetre" x="2920.49" y="1629.28" width="42.64" height="64.17" style="fill:#d8e0f3"/><rect id="fenetre-7" data-name="fenetre" x="2986.09" y="1629.28" width="42.64" height="64.17" style="fill:#d8e0f3"/><rect id="fenetre-8" data-name="fenetre" x="3051.69" y="1629.28" width="42.64" height="64.17" style="fill:#d8e0f3"/><rect id="fenetre-9" data-name="fenetre" x="2854.89" y="1715.47" width="42.64" height="64.17" style="fill:#d8e0f3"/><rect id="fenetre-10" data-name="fenetre" x="2920.49" y="1715.47" width="42.64" height="64.17" style="fill:#d8e0f3"/><rect id="fenetre-11" data-name="fenetre" x="2986.09" y="1715.47" width="42.64" height="64.17" style="fill:#d8e0f3"/><rect id="fenetre-12" data-name="fenetre" x="3051.69" y="1715.47" width="42.64" height="64.17" style="fill:#d8e0f3"/><rect id="fenetre-13" data-name="fenetre" x="2854.89" y="1801.66" width="42.64" height="64.17" style="fill:#d8e0f3"/><rect id="fenetre-14" data-name="fenetre" x="2920.49" y="1801.66" width="42.64" height="64.17" style="fill:#d8e0f3"/><rect id="fenetre-15" data-name="fenetre" x="2986.09" y="1801.66" width="42.64" height="64.17" style="fill:#d8e0f3"/><rect id="fenetre-16" data-name="fenetre" x="3051.69" y="1801.66" width="42.64" height="64.17" style="fill:#d8e0f3"/><rect id="fenetre-17" data-name="fenetre" x="2854.89" y="1887.84" width="42.64" height="64.17" style="fill:#d8e0f3"/><rect id="fenetre-18" data-name="fenetre" x="2920.49" y="1887.84" width="42.64" height="64.17" style="fill:#d8e0f3"/><rect id="fenetre-19" data-name="fenetre" x="2986.09" y="1887.84" width="42.64" height="64.17" style="fill:#d8e0f3"/><rect id="fenetre-20" data-name="fenetre" x="3051.69" y="1887.84" width="42.64" height="64.17" style="fill:#d8e0f3"/><rect id="fenetre-21" data-name="fenetre" x="2854.89" y="1974.03" width="42.64" height="64.17" style="fill:#d8e0f3"/><rect id="fenetre-22" data-name="fenetre" x="2920.49" y="1974.03" width="42.64" height="64.17" style="fill:#d8e0f3"/><rect id="fenetre-23" data-name="fenetre" x="2986.09" y="1974.03" width="42.64" height="64.17" style="fill:#d8e0f3"/><rect id="fenetre-24" data-name="fenetre" x="3051.69" y="1974.03" width="42.64" height="64.17" style="fill:#d8e0f3"/><rect id="fenetre-25" data-name="fenetre" x="2854.89" y="2060.22" width="42.64" height="64.17" style="fill:#d8e0f3"/><rect id="fenetre-26" data-name="fenetre" x="2920.49" y="2060.22" width="42.64" height="64.17" style="fill:#d8e0f3"/><rect id="fenetre-27" data-name="fenetre" x="2986.09" y="2060.22" width="42.64" height="64.17" style="fill:#d8e0f3"/><rect id="fenetre-28" data-name="fenetre" x="3051.69" y="2060.22" width="42.64" height="64.17" style="fill:#d8e0f3"/><rect id="fenetre-29" data-name="fenetre" x="2854.89" y="2146.41" width="42.64" height="64.17" style="fill:#d8e0f3"/><rect id="fenetre-30" data-name="fenetre" x="2920.49" y="2146.41" width="42.64" height="64.17" style="fill:#d8e0f3"/><rect id="fenetre-31" data-name="fenetre" x="2986.09" y="2146.41" width="42.64" height="64.17" style="fill:#d8e0f3"/><rect id="fenetre-32" data-name="fenetre" x="3051.69" y="2146.41" width="42.64" height="64.17" style="fill:#d8e0f3"/><path d="M4081.89,2218c-918.36,6.39-1832,42.62-3052.08,32.93C632.9,2247.81,307.08,2252,0,2261.3v179.83c750,35.34,1717.34,65.9,2820.41,61.76,447.38-1.68,855.31-1.49,1261.48-.45C4082.59,2405.27,4081.89,2317.39,4081.89,2218Z" style="fill:#9eb7e0"/><path d="M0,2816.6c1138.37,1.27,2246.54-23.28,2628.26-16.81,741,12.56,1274.06-148.06,1450.11-208.92.43-17.26.28-35.62.78-52.88-623.5-300-755.41-293.86-1086.44-308.91-341.34-15.5-1522,206.5-1907.91,199.09C708.39,2421,211.47,2278.67,0,2254.23Z" style="fill:#dde7af"/><line x1="1596.34" y1="2044.35" x2="1431.76" y2="2149.41" style="fill:none;stroke:#e52520;stroke-miterlimit:10;stroke-width:1.01559969557531px"/><line x1="1597.06" y1="2052.2" x2="1481.35" y2="2149.1" style="fill:none;stroke:#e52520;stroke-miterlimit:10;stroke-width:1.02002446668372px"/><line x1="1596.42" y1="2060.97" x2="1539.1" y2="2148.82" style="fill:none;stroke:#e52520;stroke-miterlimit:10;stroke-width:1.02002446668372px"/><line x1="1608.78" y1="2044.29" x2="1774.37" y2="2147.77" style="fill:none;stroke:#e52520;stroke-miterlimit:10;stroke-width:1.01559957397892px"/><line x1="1608.14" y1="2052.15" x2="1724.78" y2="2147.94" style="fill:none;stroke:#e52520;stroke-miterlimit:10;stroke-width:1.02002446668372px"/><line x1="1608.86" y1="2060.91" x2="1667.03" y2="2148.21" style="fill:none;stroke:#e52520;stroke-miterlimit:10;stroke-width:1.02002446668372px"/><rect x="1378.46" y="2147.43" width="905.75" height="16.3" transform="translate(-10.25 8.75) rotate(-0.27)" style="fill:#79787d"/><rect x="1594.54" y="2164.81" width="19.42" height="61.92" transform="translate(-10.45 7.67) rotate(-0.27)" style="fill:#d3d3d3"/><rect x="1586.82" y="2226.72" width="37.04" height="24.71" transform="translate(-10.65 7.68) rotate(-0.27)" style="fill:#d3d3d3"/><rect x="1402.53" y="2165.72" width="19.42" height="61.92" transform="translate(-10.45 6.76) rotate(-0.27)" style="fill:#d3d3d3"/><rect x="1394.81" y="2227.64" width="37.04" height="24.71" transform="translate(-10.66 6.76) rotate(-0.27)" style="fill:#d3d3d3"/><rect x="1596.83" y="2142.75" width="12.86" height="5.84" transform="translate(-10.21 7.67) rotate(-0.27)" style="fill:#e52520"/><rect x="1596.81" y="2136.9" width="12.86" height="5.84" transform="matrix(1, 0, 0, 1, -10.18, 7.67)" style="fill:#fdfdfd"/><rect x="1596.78" y="2131.06" width="12.86" height="5.84" transform="translate(-10.15 7.66) rotate(-0.27)" style="fill:#e52520"/><rect x="1596.75" y="2125.22" width="12.86" height="5.84" transform="translate(-10.12 7.66) rotate(-0.27)" style="fill:#fdfdfd"/><rect x="1596.72" y="2119.37" width="12.86" height="5.84" transform="translate(-10.1 7.66) rotate(-0.27)" style="fill:#e52520"/><rect x="1596.69" y="2113.53" width="12.86" height="5.84" transform="translate(-10.07 7.66) rotate(-0.27)" style="fill:#fdfdfd"/><rect x="1596.67" y="2107.69" width="12.86" height="5.84" transform="translate(-10.04 7.66) rotate(-0.27)" style="fill:#e52520"/><rect x="1596.64" y="2101.84" width="12.86" height="5.84" transform="translate(-10.01 7.66) rotate(-0.27)" style="fill:#fdfdfd"/><rect x="1596.61" y="2096" width="12.86" height="5.84" transform="translate(-9.98 7.66) rotate(-0.27)" style="fill:#e52520"/><rect x="1596.58" y="2090.16" width="12.86" height="5.84" transform="translate(-9.96 7.66) rotate(-0.27)" style="fill:#fdfdfd"/><rect x="1596.55" y="2084.31" width="12.86" height="5.84" transform="translate(-9.93 7.66) rotate(-0.27)" style="fill:#e52520"/><rect x="1596.52" y="2078.47" width="12.86" height="5.84" transform="translate(-9.9 7.66) rotate(-0.27)" style="fill:#fdfdfd"/><rect x="1596.5" y="2072.63" width="12.86" height="5.84" transform="translate(-9.87 7.66) rotate(-0.27)" style="fill:#e52520"/><rect x="1596.47" y="2066.78" width="12.86" height="5.84" transform="translate(-9.85 7.66) rotate(-0.27)" style="fill:#fdfdfd"/><rect x="1596.44" y="2060.94" width="12.86" height="5.84" transform="translate(-9.82 7.66) rotate(-0.27)" style="fill:#e52520"/><rect x="1596.41" y="2055.1" width="12.86" height="5.84" transform="translate(-9.79 7.66) rotate(-0.27)" style="fill:#fdfdfd"/><rect x="1596.38" y="2049.25" width="12.86" height="5.84" transform="translate(-9.76 7.66) rotate(-0.27)" style="fill:#e52520"/><rect x="1596.35" y="2043.41" width="12.86" height="5.84" transform="translate(-9.73 7.66) rotate(-0.27)" style="fill:#fdfdfd"/><line x1="2055.15" y1="2043.4" x2="1890.56" y2="2147.22" style="fill:none;stroke:#e52520;stroke-miterlimit:10;stroke-width:1.0095930258403px"/><line x1="2055.86" y1="2050.02" x2="1940.15" y2="2146.91" style="fill:none;stroke:#e52520;stroke-miterlimit:10;stroke-width:1.02002446668372px"/><line x1="2055.23" y1="2058.79" x2="1997.9" y2="2146.64" style="fill:none;stroke:#e52520;stroke-miterlimit:10;stroke-width:1.02002446668372px"/><line x1="2067.58" y1="2043.34" x2="2233.18" y2="2145.59" style="fill:none;stroke:#e52520;stroke-miterlimit:10;stroke-width:1.0095930258403px"/><line x1="2066.94" y1="2049.96" x2="2183.58" y2="2145.75" style="fill:none;stroke:#e52520;stroke-miterlimit:10;stroke-width:1.02002446668372px"/><line x1="2067.66" y1="2058.73" x2="2125.83" y2="2146.03" style="fill:none;stroke:#e52520;stroke-miterlimit:10;stroke-width:1.02002446668372px"/><rect x="2055.64" y="2140.56" width="12.86" height="5.84" transform="translate(-10.19 9.85) rotate(-0.27)" style="fill:#e52520"/><rect x="2055.61" y="2134.72" width="12.86" height="5.84" transform="matrix(1, 0, 0, 1, -10.16, 9.85)" style="fill:#fdfdfd"/><rect x="2055.58" y="2128.87" width="12.86" height="5.84" transform="translate(-10.14 9.85) rotate(-0.27)" style="fill:#e52520"/><rect x="2055.55" y="2123.03" width="12.86" height="5.84" transform="translate(-10.11 9.85) rotate(-0.27)" style="fill:#fdfdfd"/><rect x="2055.52" y="2117.19" width="12.86" height="5.84" transform="translate(-10.08 9.85) rotate(-0.27)" style="fill:#e52520"/><rect x="2055.5" y="2111.34" width="12.86" height="5.84" transform="translate(-10.05 9.85) rotate(-0.27)" style="fill:#fdfdfd"/><rect x="2055.47" y="2105.5" width="12.86" height="5.84" transform="translate(-10.03 9.85) rotate(-0.27)" style="fill:#e52520"/><rect x="2055.44" y="2099.66" width="12.86" height="5.84" transform="translate(-10 9.85) rotate(-0.27)" style="fill:#fdfdfd"/><rect x="2055.41" y="2093.81" width="12.86" height="5.84" transform="translate(-9.97 9.85) rotate(-0.27)" style="fill:#e52520"/><rect x="2055.38" y="2087.97" width="12.86" height="5.84" transform="translate(-9.94 9.85) rotate(-0.27)" style="fill:#fdfdfd"/><rect x="2055.35" y="2082.13" width="12.86" height="5.84" transform="matrix(1, 0, 0, 1, -9.91, 9.85)" style="fill:#e52520"/><rect x="2055.33" y="2076.28" width="12.86" height="5.84" transform="translate(-9.89 9.85) rotate(-0.27)" style="fill:#fdfdfd"/><rect x="2055.3" y="2070.44" width="12.86" height="5.84" transform="translate(-9.86 9.85) rotate(-0.27)" style="fill:#e52520"/><rect x="2055.27" y="2064.6" width="12.86" height="5.84" transform="matrix(1, 0, 0, 1, -9.83, 9.85)" style="fill:#fdfdfd"/><rect x="2055.24" y="2058.75" width="12.86" height="5.84" transform="translate(-9.8 9.85) rotate(-0.27)" style="fill:#e52520"/><rect x="2055.21" y="2052.91" width="12.86" height="5.84" transform="translate(-9.77 9.85) rotate(-0.27)" style="fill:#fdfdfd"/><rect x="2055.18" y="2047.07" width="12.86" height="5.84" transform="translate(-9.75 9.85) rotate(-0.27)" style="fill:#e52520"/><rect x="2055.16" y="2041.23" width="12.86" height="5.84" transform="translate(-9.72 9.85) rotate(-0.27)" style="fill:#fdfdfd"/><rect x="2052.33" y="2162.63" width="19.42" height="61.92" transform="translate(-10.43 9.85) rotate(-0.27)" style="fill:#d3d3d3"/><rect x="2044.61" y="2224.54" width="37.04" height="24.71" transform="translate(-10.64 9.86) rotate(-0.27)" style="fill:#d3d3d3"/><rect x="2244.34" y="2161.71" width="19.42" height="61.92" transform="translate(-10.42 10.77) rotate(-0.27)" style="fill:#d3d3d3"/><rect x="2236.62" y="2223.63" width="37.04" height="24.71" transform="translate(-10.63 10.77) rotate(-0.27)" style="fill:#d3d3d3"/><path d="M4081.89,2902.68c-1343.17.06-2830.38-.42-4081.89,0V2411.79c174.17,2.94,324.64,5.21,504.91,7.63,1407.23,18.88,2400.19,69.41,3103.81,65.33,159.68-.93,308.51-7.8,473.17-19.11Z" style="fill:#b5cf48"/><rect x="39.89" y="1693.26" width="201.65" height="667.49" style="fill:#fdd288"/><rect id="fenetre-33" data-name="fenetre" x="71.37" y="1745.34" width="33.85" height="584.96" style="fill:#d8e0f3"/><rect id="fenetre-34" data-name="fenetre" x="123.44" y="1745.34" width="33.85" height="584.96" style="fill:#d8e0f3"/><rect id="fenetre-35" data-name="fenetre" x="175.51" y="1745.34" width="33.85" height="584.96" style="fill:#d8e0f3"/><rect x="3119.96" y="2182.71" width="14.44" height="119.71" style="fill:#3f516a"/><path d="M3140.8,1999.56a22.08,22.08,0,0,0-20.55-1.16c-9.12,4.21-22.62,15-33.45,42.89-15.2,39-44.62,112.27,5.17,143.74,24.18,15.28,56.1,14.79,78.24-3.27,23.16-18.88,40.31-59.37-2.31-145.77C3167.9,2036,3158.65,2010,3140.8,1999.56Z" style="fill:#b4cb72"/><path d="M4081.87,1386.36l.63,768.76H3868.1l213.77-768.76" style="fill:#5a822e"/><rect x="377.21" y="2243.36" width="14.65" height="121.42" style="fill:#5e6880"/><ellipse cx="384.54" cy="2177" rx="82.48" ry="81.88" style="fill:#a0ae78"/></svg>