<?xml version="1.0" encoding="utf-8"?>
<!-- Generator: Adobe Illustrator 24.0.3, SVG Export Plug-In . SVG Version: 6.00 Build 0)  -->
<svg version="1.1" id="Calque_1" xmlns="http://www.w3.org/2000/svg" xmlns:xlink="http://www.w3.org/1999/xlink" x="0px" y="0px"
	 viewBox="0 0 193 438" style="enable-background:new 0 0 193 438;" xml:space="preserve">
<style type="text/css">
	.st0{fill:#00324E;}
	.st1{fill:url(#SVGID_1_);}
	.st2{fill:#FEE7C3;}
	.st3{fill:url(#SVGID_2_);}
	.st4{fill:url(#SVGID_3_);}
	.st5{fill:url(#SVGID_4_);}
	.st6{fill:#00324E;stroke:#00324E;stroke-linecap:round;stroke-linejoin:round;stroke-miterlimit:10;}
	.st7{fill:none;stroke:url(#SVGID_5_);stroke-width:0.5;stroke-miterlimit:10;}
	.st8{opacity:0.3;fill:url(#SVGID_6_);}
	.st9{fill:url(#SVGID_7_);}
	.st10{fill:url(#SVGID_8_);}
	.st11{fill:url(#SVGID_9_);}
	.st12{fill:url(#SVGID_10_);}
	.st13{fill:none;stroke:url(#SVGID_11_);stroke-width:0.5;stroke-miterlimit:10;}
	.st14{opacity:0.3;fill:url(#SVGID_12_);}
</style>
<g>
	<g>
		<path d="M2060.71-599.51c0,0,2.65,1.48,3,5.9c0.35,4.42-1.94,6.71-3,10.42c-1.06,3.71-1.9,6.48-3.84,7.36
			c-1.94,0.88-7.29,1.82-11.17,1.82c-3.89,0-8.48-0.18-9.18-2.3c-0.71-2.12-0.71-3.71,1.41-6.54s8.3-11.24,7.77-13.95
			s-0.71-4.95-0.71-4.95L2060.71-599.51z"/>
		<path d="M2111.84-601.74c0,0-2.53,8-1.08,10.34c1.44,2.35,2.17,1.99,6.5,6.5s6.14,8.31,10.47,8.67c4.33,0.36,10.89,0.9,13.23,1.08
			c2.35,0.18,5.55-1.8,5.37-4.33c-0.18-2.53-2.17-5.78-5.96-9.48s-7.62-7.59-9.32-11.61c-1.7-4.01-1.7-4.01-1.7-4.01L2111.84-601.74
			z"/>
		<path class="st0" d="M2033.01-793.38c0,0-6.23,55.1,2.87,89.59c0,0,7.15,93.93,6.55,99.1c-0.61,5.17-0.61,5.17-0.61,5.17h20.39
			l2.13-74.55l-3.65-12.17l3.65-77.29c0,0,2.74-1.52,4.56,0.61c1.83,2.13,28,75.16,28,75.16s-1.52,8.52,0,19.78
			s13.69,68.47,13.69,68.47s15.88-1.26,20.47-1.05s0.42,0,0-6.46c-0.32-4.95-5.53-51.42-7.2-75.47c-0.64-9.26-2.29-18.41-4.82-27.34
			c-1.49-5.28-2.78-11.17-2.78-15.82c0-11.05-15.22-61.92-18.97-66.3S2033.01-793.38,2033.01-793.38z"/>
		<linearGradient id="SVGID_1_" gradientUnits="userSpaceOnUse" x1="2058.2595" y1="-884.5535" x2="2056.7883" y2="-778.1471">
			<stop  offset="0" style="stop-color:#FBC36B"/>
			<stop  offset="1" style="stop-color:#FAAF39"/>
		</linearGradient>
		<path class="st1" d="M2007.59-905.12c11.47-9.13,26.13-10.69,28.58-11.21c2.45-0.52,44.18-2.35,50.96-1.83
			c6.78,0.52,20.86,3.65,25.3,8.87c4.43,5.22,23.73,44.33,23.47,51.38c-0.26,7.04-11.5,39.01-24.49,51.39c0,0-1.4-9.79-10.19-8.59
			c0,0,9.79-37.75,17.58-40.75c0,0-19.58-18.4-17.52-33.26c0,0-0.63,70.04-1.48,80.58c-0.85,10.54,1.2,18.6,1.2,18.6
			s-18.23,4.27-39.3,3.42s-31.04-1.99-31.61-5.41c-0.57-3.42,4.71-24.56,4.61-31.11c-0.1-6.55-8.03-54.54-10.02-60.31
			c0,0-17.37,28.19-24.78,29.05c0,0,24.21,29.33,26.49,34.17c0,0-5.85,9.52-4.32,12.38c0,0-3.67-0.46-7.71-4.37
			c-4.04-3.91-34.39-26.43-34.54-40.22C1979.65-866.12,2007.59-905.12,2007.59-905.12z"/>
		<path class="st2" d="M2025.34-818.56c0,0,1.85,0.82,4.36,0c2.5-0.82,4.95-2.93,4.95-2.93l-0.34,4.22c0,0-0.53,1.51-0.02,2.81
			c0.34,0.88,9.44,9.86,10.41,11.18c1.87,2.53,2.65,9.71,0.34,10.29c-9.11,2.31-13.96-2.77-16.54-4.38
			c-2.02-1.26-3.39-3.87-4.22-5.54s-3.08-6.84-3.08-6.84S2018.79-812.83,2025.34-818.56z"/>
		<linearGradient id="SVGID_2_" gradientUnits="userSpaceOnUse" x1="2057.6433" y1="-937.0087" x2="2059.7854" y2="-860.6035">
			<stop  offset="0" style="stop-color:#FBC36B"/>
			<stop  offset="1" style="stop-color:#FAAF39"/>
		</linearGradient>
		<path class="st3" d="M2036.17-914.46c-1.5-2.29,2.39-2.38,2.99-4.76c0.6-2.38-0.4-5.36,2.98-6.15s24.82-4.17,27.6-3.97
			c2.78,0.2,4.37,0.2,6.15,2.38c1.79,2.18,2.98,6.37,4.17,7.54s0.18,2.71-0.79,4.96c-1.7,3.94-6.58,10.28-9.17,10.62
			c-2.58,0.34-16.98,0.23-21.15-0.02C2044.78-904.12,2039.22-909.8,2036.17-914.46z"/>
		<linearGradient id="SVGID_3_" gradientUnits="userSpaceOnUse" x1="2056.5571" y1="-938.7044" x2="2057.155" y2="-913.5893">
			<stop  offset="0" style="stop-color:#FDDD96"/>
			<stop  offset="1" style="stop-color:#FEEDC8"/>
		</linearGradient>
		<path class="st4" d="M2070.1-925.02c0,0-2.9,8.58-6.43,9.21s-13.33,0.07-14.61-1.35c-1.28-1.42-5.32-5.21-5.32-5.21v-10.6v-3.78
			h24.6C2068.33-936.75,2067.57-927.67,2070.1-925.02z"/>
		<path class="st2" d="M2055.97-925.15c2.9,0,7.95-2.54,10.47-6.43c2.52-3.88,3.66-6.83,3.66-6.83v-2.14c0,0,0.56,1.54,1.63,0
			c1.07-1.54,2.23-7.3,1.74-9.25s-0.97-3.19-2.23-2.77l0.19-16.65c0,0-5.29,4.42-8.81,4.42s-10.73,0.68-11.69,0s-1.28-2.89-2.72-3.4
			c-1.44-0.51-3.97-0.68-4.47,0.51c-0.5,1.19-4.66,7.82-4.66,7.82v7.48c0,0-2.08-1.76-2.08,0.82s0.52,13.36,4.51,11.84
			c0,0,1.09,5.44,2.23,7.28C2044.88-930.58,2050.67-925.14,2055.97-925.15z"/>
		<linearGradient id="SVGID_4_" gradientUnits="userSpaceOnUse" x1="2056.3242" y1="-986.132" x2="2054.6731" y2="-954.4843">
			<stop  offset="0.1084" style="stop-color:#00324E"/>
			<stop  offset="1" style="stop-color:#000000"/>
		</linearGradient>
		<path class="st5" d="M2040.03-950.03c0,0-2.01-12.03,1.14-11.92c3.14,0.11,1.48-4.55,5.16-4.1s1.22,2.43,5.17,3.24
			c3.95,0.81,1.97-1.28,5.42-0.54c3.44,0.74,6.71,5.76,11.62,1.1c0,0,3.82,4.28,2.71,9.69c0,0,2.22-9.24,1.3-14.19
			c-0.93-4.96-2.58-10.03-6.63-13.37s-14.28-2.93-16-2.49c-2.65,0.68-8.11,3.45-9.78,6.8c-2.63,5.27-2.69,12.94-2.62,14.86
			C2037.82-951.95,2040.03-950.03,2040.03-950.03z"/>
		<path class="st6" d="M2059.26-953.82c-1.12-1.35,3.93-1.72,5.13-1.59c1.2,0.13,3.28,1.59,3.28,1.59s-3.16-0.13-4.2,0
			S2060.25-952.63,2059.26-953.82z"/>
		<path class="st6" d="M2051.65-953.82c1.05-1.35-3.7-1.72-4.83-1.59c-1.13,0.13-3.09,1.59-3.09,1.59s2.98-0.13,3.96,0
			S2050.72-952.63,2051.65-953.82z"/>
		
			<linearGradient id="SVGID_5_" gradientUnits="userSpaceOnUse" x1="2193.9197" y1="-470.7557" x2="2193.9197" y2="-485.6989" gradientTransform="matrix(0.9964 -0.0853 0.0787 0.9194 -91.058 -320.4888)">
			<stop  offset="0.1084" style="stop-color:#00324E"/>
			<stop  offset="1" style="stop-color:#000000"/>
		</linearGradient>
		<path class="st7" d="M2058.89-954.35c0,0-1.22,4.74-0.88,6.22c0.34,1.49,0.3,2.37,0.27,3.1c-0.04,0.74,1.69,1.5,1.45,2.38
			s-0.77,1.37-2.03,1.84c-1.26,0.47-1.74-0.44-2.45-0.45"/>
		<linearGradient id="SVGID_6_" gradientUnits="userSpaceOnUse" x1="2056.8474" y1="-933.064" x2="2056.8474" y2="-936.7513">
			<stop  offset="0" style="stop-color:#FBC36B"/>
			<stop  offset="1" style="stop-color:#FAAF39"/>
		</linearGradient>
		<path class="st8" d="M2052.18-934.9c0,0,2.25-1.85,2.94-1.85s0.85,0.33,1.79,0.26s0.27-0.2,1.3-0.26
			c1.03-0.07,2.15,1.32,3.07,1.32s-1.13,2.18-2.18,2.31c-1.05,0.13-4.15,0-5.27,0S2052.18-934.9,2052.18-934.9z"/>
	</g>
	<path class="st2" d="M2101.22-815.12l-1.29,0.49c0,0.49,0,0.87-0.02,2.31c-0.02,1.35-0.09,3.06-0.57,5.16
		c-0.48,2.13-4.9,11.07-5.46,12.8c-0.55,1.73-2.49,7.09-2.33,9.49c0.38,5.56,9.41,1.37,11.2,0.85c2.76-0.79,4.47-8.83,4.47-11.05
		c0-2.22,1.23-11.05,4.05-12.14l0,0l0,0c-0.38-5.89-6.5-9.76-10.02-7.94L2101.22-815.12z"/>
</g>
<g>
	<g>
		<path d="M86.77,397.7c0,0,2.65,1.48,3,5.9c0.35,4.42-1.94,6.71-3,10.42c-1.06,3.71-1.9,6.48-3.84,7.36
			c-1.94,0.88-7.29,1.82-11.17,1.82s-8.48-0.18-9.18-2.3c-0.71-2.12-0.71-3.71,1.41-6.54c2.12-2.83,8.3-11.24,7.77-13.95
			c-0.53-2.72-0.71-4.95-0.71-4.95L86.77,397.7z"/>
		<path d="M137.9,395.47c0,0-2.53,8-1.08,10.34s2.17,1.99,6.5,6.5c4.33,4.51,6.14,8.31,10.47,8.67c4.33,0.36,10.89,0.9,13.23,1.08
			s5.55-1.8,5.37-4.33c-0.18-2.53-2.17-5.78-5.96-9.48s-7.62-7.59-9.32-11.61c-1.7-4.01-1.7-4.01-1.7-4.01L137.9,395.47z"/>
		<path class="st0" d="M59.07,203.83c0,0-6.23,55.1,2.87,89.59c0,0,7.15,93.93,6.55,99.1c-0.61,5.17-0.61,5.17-0.61,5.17h20.39
			l2.13-74.55l-3.65-12.17l3.65-77.29c0,0,2.74-1.52,4.56,0.61s28,75.16,28,75.16s-1.52,8.52,0,19.78
			c1.52,11.26,13.69,68.47,13.69,68.47s15.88-1.26,20.47-1.05c4.59,0.21,0.42,0,0-6.46c-0.32-4.95-5.53-51.42-7.2-75.47
			c-0.64-9.26-2.29-18.41-4.82-27.34c-1.49-5.28-2.78-11.17-2.78-15.82c0-11.05-15.22-61.92-18.97-66.3
			C119.59,200.88,59.07,203.83,59.07,203.83z"/>
		<linearGradient id="SVGID_7_" gradientUnits="userSpaceOnUse" x1="84.3178" y1="112.6543" x2="82.8467" y2="219.0607">
			<stop  offset="0" style="stop-color:#FBC36B"/>
			<stop  offset="1" style="stop-color:#FAAF39"/>
		</linearGradient>
		<path class="st9" d="M33.65,92.08c11.47-9.13,26.13-10.69,28.58-11.21c2.45-0.52,44.18-2.35,50.96-1.83
			c6.78,0.52,20.86,3.65,25.3,8.87c4.43,5.22,23.73,44.33,23.47,51.38c-0.26,7.04-11.5,39.01-24.49,51.39c0,0-1.4-9.79-10.19-8.59
			c0,0,9.79-37.75,17.58-40.75c0,0-19.58-18.4-17.52-33.26c0,0-0.63,70.04-1.48,80.58c-0.85,10.54,1.2,18.6,1.2,18.6
			s-18.23,4.27-39.3,3.42c-21.07-0.85-31.04-1.99-31.61-5.41c-0.57-3.42,4.71-24.56,4.61-31.11s-8.03-54.54-10.02-60.31
			c0,0-17.37,28.19-24.78,29.05c0,0,24.21,29.33,26.49,34.17c0,0-5.85,9.52-4.32,12.38c0,0-3.67-0.46-7.71-4.37
			c-4.04-3.91-34.39-26.43-34.54-40.22S33.65,92.08,33.65,92.08z"/>
		<path class="st2" d="M51.4,178.65c0,0,1.85,0.82,4.36,0s4.95-2.93,4.95-2.93l-0.34,4.22c0,0-0.53,1.51-0.02,2.81
			c0.34,0.88,9.44,9.86,10.41,11.18c1.87,2.53,2.65,9.71,0.34,10.29c-9.11,2.31-13.96-2.77-16.54-4.38
			c-2.02-1.26-3.39-3.87-4.22-5.54c-0.83-1.67-3.08-6.84-3.08-6.84S44.85,184.37,51.4,178.65z"/>
		<linearGradient id="SVGID_8_" gradientUnits="userSpaceOnUse" x1="83.7015" y1="60.199" x2="85.8437" y2="136.6043">
			<stop  offset="0" style="stop-color:#FBC36B"/>
			<stop  offset="1" style="stop-color:#FAAF39"/>
		</linearGradient>
		<path class="st10" d="M62.23,82.75c-1.5-2.29,2.39-2.38,2.99-4.76c0.6-2.38-0.4-5.36,2.98-6.15c3.38-0.79,24.82-4.17,27.6-3.97
			c2.78,0.2,4.37,0.2,6.15,2.38c1.79,2.18,2.98,6.37,4.17,7.54c1.19,1.18,0.18,2.71-0.79,4.96c-1.7,3.94-6.58,10.28-9.17,10.62
			C93.57,93.71,79.17,93.6,75,93.35C70.83,93.09,65.28,87.4,62.23,82.75z"/>
		<linearGradient id="SVGID_9_" gradientUnits="userSpaceOnUse" x1="82.6154" y1="58.5034" x2="83.2133" y2="83.6185">
			<stop  offset="0" style="stop-color:#FDDD96"/>
			<stop  offset="1" style="stop-color:#FEEDC8"/>
		</linearGradient>
		<path class="st11" d="M96.15,72.19c0,0-2.9,8.58-6.43,9.21c-3.53,0.63-13.33,0.07-14.61-1.35c-1.28-1.42-5.32-5.21-5.32-5.21
			v-10.6v-3.78h24.6C94.39,60.46,93.63,69.54,96.15,72.19z"/>
		<path class="st2" d="M82.03,72.06c2.9,0,7.95-2.54,10.47-6.43c2.52-3.88,3.66-6.83,3.66-6.83v-2.14c0,0,0.56,1.54,1.63,0
			c1.07-1.54,2.23-7.3,1.74-9.25c-0.48-1.95-0.97-3.19-2.23-2.77l0.19-16.65c0,0-5.29,4.42-8.81,4.42c-3.52,0-10.73,0.68-11.69,0
			c-0.96-0.68-1.28-2.89-2.72-3.4c-1.44-0.51-3.97-0.68-4.47,0.51c-0.5,1.19-4.66,7.82-4.66,7.82v7.48c0,0-2.08-1.76-2.08,0.82
			c0,2.58,0.52,13.36,4.51,11.84c0,0,1.09,5.44,2.23,7.28C70.94,66.62,76.73,72.06,82.03,72.06z"/>
		<linearGradient id="SVGID_10_" gradientUnits="userSpaceOnUse" x1="82.3825" y1="11.0759" x2="80.7313" y2="42.7235">
			<stop  offset="0.1084" style="stop-color:#00324E"/>
			<stop  offset="1" style="stop-color:#000000"/>
		</linearGradient>
		<path class="st12" d="M66.09,47.18c0,0-2.01-12.03,1.14-11.92c3.14,0.11,1.48-4.55,5.16-4.1c3.68,0.45,1.22,2.43,5.17,3.24
			s1.97-1.28,5.42-0.54c3.44,0.74,6.71,5.76,11.62,1.1c0,0,3.82,4.28,2.71,9.69c0,0,2.22-9.24,1.3-14.19s-2.58-10.03-6.63-13.37
			c-4.05-3.34-14.28-2.93-16-2.49c-2.65,0.68-8.11,3.45-9.78,6.8c-2.63,5.27-2.69,12.94-2.62,14.86
			C63.88,45.26,66.09,47.18,66.09,47.18z"/>
		<path class="st6" d="M85.32,43.39c-1.12-1.35,3.93-1.72,5.13-1.59s3.28,1.59,3.28,1.59s-3.16-0.13-4.2,0
			C88.48,43.52,86.31,44.58,85.32,43.39z"/>
		<path class="st6" d="M77.71,43.39c1.05-1.35-3.7-1.72-4.83-1.59c-1.13,0.13-3.09,1.59-3.09,1.59s2.98-0.13,3.96,0
			C74.73,43.52,76.78,44.58,77.71,43.39z"/>
		
			<linearGradient id="SVGID_11_" gradientUnits="userSpaceOnUse" x1="142.0859" y1="423.4897" x2="142.0859" y2="408.5465" gradientTransform="matrix(0.9964 -0.0853 0.0787 0.9194 -91.058 -320.4888)">
			<stop  offset="0.1084" style="stop-color:#00324E"/>
			<stop  offset="1" style="stop-color:#000000"/>
		</linearGradient>
		<path class="st13" d="M84.94,42.86c0,0-1.22,4.74-0.88,6.22c0.34,1.49,0.3,2.37,0.27,3.1c-0.04,0.74,1.69,1.5,1.45,2.38
			s-0.77,1.37-2.03,1.84c-1.26,0.47-1.74-0.44-2.45-0.45"/>
		<linearGradient id="SVGID_12_" gradientUnits="userSpaceOnUse" x1="82.9056" y1="64.1438" x2="82.9056" y2="60.4565">
			<stop  offset="0" style="stop-color:#FBC36B"/>
			<stop  offset="1" style="stop-color:#FAAF39"/>
		</linearGradient>
		<path class="st14" d="M78.24,62.3c0,0,2.25-1.85,2.94-1.85s0.85,0.33,1.79,0.26s0.27-0.2,1.3-0.26c1.03-0.07,2.15,1.32,3.07,1.32
			c0.92,0-1.13,2.18-2.18,2.31c-1.05,0.13-4.15,0-5.27,0C78.77,64.09,78.24,62.3,78.24,62.3z"/>
	</g>
	<path class="st2" d="M127.28,182.09l-1.29,0.49c0,0.49,0,0.87-0.02,2.31c-0.02,1.35-0.09,3.06-0.57,5.16
		c-0.48,2.13-4.9,11.07-5.46,12.8s-2.49,7.09-2.33,9.49c0.38,5.56,9.41,1.37,11.2,0.85c2.76-0.79,4.47-8.83,4.47-11.05
		s1.23-11.05,4.05-12.14l0,0l0,0c-0.38-5.89-6.5-9.76-10.02-7.94L127.28,182.09z"/>
</g>
</svg>
