<?xml version="1.0" encoding="utf-8"?>
<!-- Generator: Adobe Illustrator 24.0.3, SVG Export Plug-In . SVG Version: 6.00 Build 0)  -->
<svg version="1.1" id="Calque_1" xmlns="http://www.w3.org/2000/svg" xmlns:xlink="http://www.w3.org/1999/xlink" x="0px" y="0px"
	 viewBox="0 0 193 438" style="enable-background:new 0 0 193 438;" xml:space="preserve">
<style type="text/css">
	.st0{fill:#D3D3D3;}
	.st1{fill:url(#SVGID_1_);}
	.st2{fill:#FFFFFF;}
	.st3{fill:#F98C8B;}
	.st4{fill:#FEE7C3;}
	.st5{fill:url(#SVGID_2_);}
	.st6{fill:url(#SVGID_3_);}
	.st7{fill:url(#SVGID_4_);}
	.st8{fill:url(#SVGID_5_);}
	.st9{fill:url(#SVGID_6_);stroke:url(#SVGID_7_);stroke-miterlimit:10;}
	.st10{fill:url(#SVGID_8_);stroke:url(#SVGID_9_);stroke-miterlimit:10;}
	.st11{fill:url(#SVGID_10_);}
	.st12{fill:url(#SVGID_11_);}
	.st13{fill:#00324E;}
	.st14{fill:#00324E;stroke:#FFFFFF;stroke-width:0.5;stroke-linecap:round;stroke-linejoin:round;stroke-miterlimit:10;}
	.st15{fill:url(#SVGID_12_);}
	.st16{fill:none;stroke:#FFFFFF;stroke-width:0.5;stroke-linecap:round;stroke-linejoin:round;stroke-miterlimit:10;}
	.st17{fill:none;stroke:url(#SVGID_13_);stroke-width:0.5;stroke-miterlimit:10;}
</style>
<g>
	
		<rect x="124.91" y="210.4" transform="matrix(1 -4.800853e-03 4.800853e-03 1 -1.061 0.6185)" class="st0" width="6.8" height="21.83"/>
	
		<rect x="122.21" y="232.23" transform="matrix(1 -4.800853e-03 4.800853e-03 1 -1.1343 0.6205)" class="st0" width="12.96" height="8.71"/>
	<linearGradient id="SVGID_1_" gradientUnits="userSpaceOnUse" x1="96.154" y1="50.5227" x2="97.4485" y2="99.9718">
		<stop  offset="0" style="stop-color:#FDDD96"/>
		<stop  offset="1" style="stop-color:#FEEDC8"/>
	</linearGradient>
	<path class="st1" d="M83.1,84.65c0,0,4.68-1.01,4.96-3.53s-4.27-12.97-4.27-12.97s19.76-6.09,22.04-10.22
		c0,0-0.95,16.83,3.18,19.31c4.13,2.48,6.68,3.91,6.68,3.91l-2.49,4.15l-20.54,17.51L78.6,95.46L83.1,84.65z"/>
	<polygon class="st2" points="80.53,87.98 110.56,87.11 90.84,102.3 	"/>
	<path class="st3" d="M145.82,111.57c-0.36-7.05-1.16-13.22-2.69-16.61c-0.26-0.58-0.56-1.13-0.88-1.66
		c-4.91-2.59-9.42-2.76-12.29-0.23c-3.9,3.43-2.64,11.49-2.64,11.49c-0.53,5.5,0.25,20.43-0.62,32.41c0.51,6.11,1.52,12,3.35,16.55
		c0,0-3.2,22.06,4.6,61.32c0,0,5.89,2.03,8.1,1.47c2.21-0.55,0.91-55.06,2.16-64.28C144.91,152.04,146.71,129.05,145.82,111.57z"/>
	<path class="st4" d="M105.44,367.36c0,0,0.97,7.74-0.15,12.14c-1.11,4.4-13.76,17.72-14.39,19.8c-0.64,2.08,2.37,3.05,6.09,2.86
		c3.72-0.19,12.62-6.58,15.68-10.03c3.06-3.45,8.73-10.92,8.77-14.58c0.04-3.66-4.19-6.03-4-8.58c0.19-2.55-1.66-3.99-1.66-3.99
		L105.44,367.36"/>
	<path class="st4" d="M82.09,27.02c5.32-2.63,16.24-2.43,20.57,9.72s6.86,20.96-3.9,32.7S77.54,59.28,76.03,53.75
		S68.66,33.65,82.09,27.02z"/>
	<linearGradient id="SVGID_2_" gradientUnits="userSpaceOnUse" x1="144.3199" y1="203.8514" x2="138.8163" y2="229.6492">
		<stop  offset="0" style="stop-color:#FDDD96"/>
		<stop  offset="1" style="stop-color:#FEEDC8"/>
	</linearGradient>
	<path class="st5" d="M135.85,214.61c0,0,1.96,0.29,3.6,0.23c1.64-0.05,3.31,1.47,3.31,1.47s-0.38,5.91,0,9.49s1.26,14.9,0,17.77
		s-2.64,9.55-3.72,10.37c-1.08,0.82-1.79,0.33-2.27-0.82c-3.35-8.05-2.11-19.6-2.11-19.6c-0.44-0.32-0.45,0.42-0.97,1.48
		c-1.15,2.34-2.01,5.43-2.96,5.57c-0.95,0.14-1.09-1.64,0-5.32C131.81,231.57,134.45,214.59,135.85,214.61z"/>
	<linearGradient id="SVGID_3_" gradientUnits="userSpaceOnUse" x1="82.6371" y1="192.6381" x2="137.0538" y2="378.2691">
		<stop  offset="0.1157" style="stop-color:#00324E"/>
		<stop  offset="0.258" style="stop-color:#12252F"/>
		<stop  offset="0.5815" style="stop-color:#000000"/>
		<stop  offset="0.9009" style="stop-color:#033049"/>
	</linearGradient>
	<path class="st6" d="M115.56,364.86c0,0,6.27-71.58-5.23-84.12s-6.79-57.48-6.79-57.48l-4.19-71.22l-21.81,2.06
		c0,0,1.84,9.19,0,13.32c-1.84,4.14-8.8,56.16,5.25,94.21c14.33,38.8,22.46,105.73,22.46,105.73S110.42,369.18,115.56,364.86z"/>
	<path class="st4" d="M68.28,174.64c0,0,5.21,4.52,6.85,6.08c1.27,1.21,3.37,2.88,1.86,9.69c-1.54,6.94-1.96,3.48-3.16,6.62
		c-0.43,1.12-3.92,13.07-5.51,13.07c-2.68-0.01-1.87-5.12-2.07-7.75c-0.18-2.4,0.08-7.44,2.57-13.06c2.12-4.78-3.14-7.67-3.14-7.67
		S67.34,174.44,68.28,174.64z"/>
	<linearGradient id="SVGID_4_" gradientUnits="userSpaceOnUse" x1="90.2598" y1="385.8483" x2="122.83" y2="385.8483">
		<stop  offset="0.1157" style="stop-color:#00324E"/>
		<stop  offset="0.258" style="stop-color:#12252F"/>
		<stop  offset="0.5815" style="stop-color:#000000"/>
		<stop  offset="0.9009" style="stop-color:#033049"/>
	</linearGradient>
	<path class="st7" d="M115.56,364.86c0,0-0.09-1.6,1.14-1.35c1.24,0.25,1.61,3.03,1.85,4.24c0.25,1.2,2.29,3.43,2.81,4.42
		s2.13,4.45,1.14,10.75s-3.83,18.17-3.83,18.17h-4.45v-3.44c0,0-0.99,4.92-3.34,6.41c-2.35,1.48-7.54,4.7-11.62,4.08
		c-4.08-0.62-7.31-0.6-8.26-3.34c-0.95-2.74-0.93-3.48-0.35-5.33c0.52-1.68,1.33-2.55,1.33-2.55s-2.74,4.77,1.24,5.06
		c3.98,0.29,7.71-0.62,10.85-2.82s10.22-8.04,13.18-15.12S115.24,368.96,115.56,364.86z"/>
	<linearGradient id="SVGID_5_" gradientUnits="userSpaceOnUse" x1="91.9971" y1="396.5286" x2="107.6745" y2="396.5286">
		<stop  offset="0.1084" style="stop-color:#00324E"/>
		<stop  offset="1" style="stop-color:#000000"/>
	</linearGradient>
	<path class="st8" d="M96,391.53c0,0,3.39-4,11.68,6.12l-5.46,4.65c0,0-4.78-6.62-10.22-5.39L96,391.53z"/>
	<path class="st3" d="M68.32,111.52c0.35-0.89,0.65-1.74,0.89-2.56C69.21,108.96,68.76,109.85,68.32,111.52z"/>
	<linearGradient id="SVGID_6_" gradientUnits="userSpaceOnUse" x1="93.3087" y1="46.3288" x2="101.932" y2="46.3288">
		<stop  offset="0" style="stop-color:#FBC36B"/>
		<stop  offset="1" style="stop-color:#FAAF39"/>
	</linearGradient>
	<linearGradient id="SVGID_7_" gradientUnits="userSpaceOnUse" x1="92.8087" y1="46.3288" x2="104.0936" y2="46.3288">
		<stop  offset="0" style="stop-color:#FBC36B"/>
		<stop  offset="1" style="stop-color:#FAAF39"/>
	</linearGradient>
	<path class="st9" d="M93.47,46.72c-1.13-1.01,3.95-1.29,5.16-1.19c1.21,0.1,3.3,1.19,3.3,1.19s-3.19-0.1-4.23,0
		C96.66,46.82,94.47,47.62,93.47,46.72z"/>
	<linearGradient id="SVGID_8_" gradientUnits="userSpaceOnUse" x1="78.7683" y1="46.3288" x2="86.8908" y2="46.3288">
		<stop  offset="0" style="stop-color:#FBC36B"/>
		<stop  offset="1" style="stop-color:#FAAF39"/>
	</linearGradient>
	<linearGradient id="SVGID_9_" gradientUnits="userSpaceOnUse" x1="76.7176" y1="46.3288" x2="87.3908" y2="46.3288">
		<stop  offset="0" style="stop-color:#FBC36B"/>
		<stop  offset="1" style="stop-color:#FAAF39"/>
	</linearGradient>
	<path class="st10" d="M86.74,46.72c1.06-1.01-3.72-1.29-4.86-1.19s-3.11,1.19-3.11,1.19s3-0.1,3.98,0
		C83.74,46.82,85.8,47.62,86.74,46.72z"/>
	<path class="st4" d="M83.12,372.71c0,0-2.17,15.38-2.26,17.94c-0.09,2.56-2.18,15.41-4.6,18.95c-2.42,3.54-6.16,6.32-5.17,7.7
		s1.52,1.18,4.57,1.38c3.05,0.2,4.99,0.46,6.63,0.03c2.56-0.66,4.03-1.9,4.75-2.89c0.72-0.98,4.39-8.95,4.48-10.82
		c0.09-1.87,1.75-7.57,1.82-9.93c0.07-2.36,0.47-3.44,0-6.59s-1.99-8.66-0.58-13.82s-5.04-1.49-5.04-1.49L83.12,372.71"/>
	<linearGradient id="SVGID_10_" gradientUnits="userSpaceOnUse" x1="70.0609" y1="398.4026" x2="94.9396" y2="398.4026">
		<stop  offset="0.1157" style="stop-color:#00324E"/>
		<stop  offset="0.258" style="stop-color:#12252F"/>
		<stop  offset="0.5815" style="stop-color:#000000"/>
		<stop  offset="0.9009" style="stop-color:#033049"/>
	</linearGradient>
	<path class="st11" d="M70.92,423.71c1.36,3.14,9.07,2.09,14.3,1.09c5.23-1,6.06-7.83,6.31-11.02c0.25-3.19,1.12-2,1.12-2
		s2.45-17.48,2.28-20.3c-0.17-2.82-0.07-3.19-0.7-5.46c-0.63-2.28-1.61-8.74,0-13.38c0,0-1.54-2.55-1.96-1.27
		c-0.42,1.27,0.48,3.31,0.48,3.31s-2.57,2.85-1.33,8.01c1.25,5.16,0.94,9.11,0.24,12.75c-0.7,3.64-1.4,17.94-6.79,22.25
		c0,0-3.21,1.41-7.55,1.12s-6.94-0.09-6.42-2.73C70.92,416.06,68.99,419.24,70.92,423.71z"/>
	<linearGradient id="SVGID_11_" gradientUnits="userSpaceOnUse" x1="73.1128" y1="412.2253" x2="89.8682" y2="412.2253">
		<stop  offset="0.1084" style="stop-color:#00324E"/>
		<stop  offset="1" style="stop-color:#000000"/>
	</linearGradient>
	<path class="st12" d="M73.11,413.43c0,0,8.85,0.39,11.77,4.24l0.42,0.85l4.57-7.74c0,0-9.29-6.21-12.11-4.56
		C77.75,406.21,75.31,410.8,73.11,413.43z"/>
	<path class="st13" d="M93.13,226.04c-7.19,19.28-11.25,66.96-11.25,74.29c0,7.33,1.07,74.38,1.07,74.38
		c1.76,4.45,9.24,1.95,9.24,1.95c15.16-56.91,11.3-76.79,11.3-76.79c11.77-17.85,21.45-63.5,21.45-63.5
		c16.08-27.8,2.85-61.41,0-65.84c-2.85-4.43-4.08-16.55-4.08-16.55c-20.38-4.43-37.91,0-37.91,0"/>
	<path class="st14" d="M83.91,273.31c0,0,7.76-53.78,12.22-64.88"/>
	<path class="st3" d="M115.68,81.15c0,0-17.29,15.16-24.29,17c-7,1.84-8.29-13.5-8.29-13.5c-9.66,2.86-23.73,8.41-29.99,17.02
		c-6.26,8.61-16.96,21.4-22.44,38.62c-5.48,17.22,27.15,39.2,35.53,42.03c0,0,4.27-6.17,3-7.77c-3.44-4.34-17.25-31.51-21.47-31.51
		c0,0,15.61-18.96,20.58-31.52c0.44-1.66,0.89-2.56,0.89-2.56c-0.24,0.81-0.54,1.67-0.89,2.56c-0.87,3.27-1.72,9.58,0.89,18.25
		c3.94,13.07-1.81,23.63,8.34,24.34c10.15,0.71,26.52-0.04,42.91-0.39c3.94-0.08,5.58-7.54,6.24-16.74
		c0.87-11.97,0.1-26.9,0.62-32.41c0,0-1.26-8.06,2.64-11.49c2.87-2.53,7.39-2.36,12.29,0.23C136.1,82.95,120.24,80.8,115.68,81.15z"
		/>
	<linearGradient id="SVGID_12_" gradientUnits="userSpaceOnUse" x1="61.6065" y1="66.8877" x2="151.9628" y2="66.8877">
		<stop  offset="0" style="stop-color:#FBC36B"/>
		<stop  offset="1" style="stop-color:#FAAF39"/>
	</linearGradient>
	<path class="st15" d="M144.3,116.67c8.69-5.16,9.49-16.17,4.91-25.18c-1.2-2.36-6.03-11.84-5.08-15.17
		c2.73-9.55-4.09-15.68-8.86-20.3c-4.77-4.62-8.97-6.21-10.35-16.41c-1.62-11.94-15.09-18.74-21.37-21.88
		c-4.6-2.3-10.31,0.98-10.31,0.98s-4.13-7.9-15.72-1.58s-8.31,19.58-8.31,19.58s-1.89,9.79-5.05,18.95
		c-3.16,9.16,5.05,13.9,5.05,13.9s-7.26,2.53-7.57,11.55c-0.32,9.02,2.32,12.47,11.88,16.25c10.58,4.18,10.75-6.49,10.75-6.49
		s-0.92-2.92,3.43-8.76c1-1.34,1.34-3.1,1.29-4.87c-0.09-2.95-1.56-5.66-3.75-7.64c-0.84-0.76-1.78-1.75-2.55-2.9
		c-0.1-0.15-0.19-0.29-0.28-0.43c-2.65-4.07-3.92-8.86-3.74-13.71c0.06-1.7,0.06-3.87-0.05-6.65c-0.45-11.13,6.29-13.68,9.46-16.78
		s9.08,5.15,9.08,5.15c0.4,7.16,5.06,10.02,7.07,15.56s-4.22,12.56-5.39,19.78c-1.11,6.86,5.09,12.6,10.69,13.15
		c0.85,0.08,1.68,0.29,2.39,0.77c1.27,0.86,2.82,2.63,2.49,6.1c0,0-1.09,3.76,0.1,11.06c0.86,5.26,3.67,10.11,8.09,13.08
		C127.19,116.88,134.97,122.21,144.3,116.67z"/>
	<path class="st16" d="M127.74,117.15c0,0-1.53,10.52-1.11,21.84"/>
	
		<linearGradient id="SVGID_13_" gradientUnits="userSpaceOnUse" x1="-132.8817" y1="-802.6075" x2="-129.6374" y2="-802.6075" gradientTransform="matrix(0.9863 0.1649 -0.1649 0.9863 84.6309 866.011)">
		<stop  offset="0" style="stop-color:#FBC36B"/>
		<stop  offset="1" style="stop-color:#FAAF39"/>
	</linearGradient>
	<path class="st17" d="M87.34,46.47c0,0,0.74,4.32-0.29,7.24c-0.87,2.47-1.68,2.16-1.72,3.77c-0.02,1.03,1.04,1.3,2.74,1.28"/>
	<path class="st3" d="M85.25,63.5l2.72-1.74l1.25,1.4l1.59-1.4l2.96,1.91c0.91,0.65-0.22,1.73-1.15,2.33
		c-0.79,0.51-1.84,1.04-3.11,0.87C85.68,66.32,85.25,63.5,85.25,63.5z"/>
</g>
</svg>
