<svg xmlns="http://www.w3.org/2000/svg" viewBox="0 0 1440 1024"><title>FOND MAISON </title><g id="fond"><rect x="1093.69" y="577.56" width="75.59" height="186.77" style="fill:#b0d5eb"/><rect id="fenetre" x="1101.38" y="586.76" width="10.56" height="16" style="fill:#cae2f1"/><rect id="fenetre-2" data-name="fenetre" x="1117.63" y="586.76" width="10.56" height="16" style="fill:#cae2f1"/><rect id="fenetre-3" data-name="fenetre" x="1133.87" y="586.76" width="10.56" height="16" style="fill:#cae2f1"/><rect id="fenetre-4" data-name="fenetre" x="1150.11" y="586.76" width="10.56" height="16" style="fill:#cae2f1"/><rect id="fenetre-5" data-name="fenetre" x="1101.38" y="608.25" width="10.56" height="16" style="fill:#cae2f1"/><rect id="fenetre-6" data-name="fenetre" x="1117.63" y="608.25" width="10.56" height="16" style="fill:#cae2f1"/><rect id="fenetre-7" data-name="fenetre" x="1133.87" y="608.25" width="10.56" height="16" style="fill:#cae2f1"/><rect id="fenetre-8" data-name="fenetre" x="1150.11" y="608.25" width="10.56" height="16" style="fill:#cae2f1"/><rect id="fenetre-9" data-name="fenetre" x="1101.38" y="629.75" width="10.56" height="16" style="fill:#cae2f1"/><rect id="fenetre-10" data-name="fenetre" x="1117.63" y="629.75" width="10.56" height="16" style="fill:#cae2f1"/><rect id="fenetre-11" data-name="fenetre" x="1133.87" y="629.75" width="10.56" height="16" style="fill:#cae2f1"/><rect id="fenetre-12" data-name="fenetre" x="1150.11" y="629.75" width="10.56" height="16" style="fill:#cae2f1"/><rect id="fenetre-13" data-name="fenetre" x="1101.38" y="651.24" width="10.56" height="16" style="fill:#cae2f1"/><rect id="fenetre-14" data-name="fenetre" x="1117.63" y="651.24" width="10.56" height="16" style="fill:#cae2f1"/><rect id="fenetre-15" data-name="fenetre" x="1133.87" y="651.24" width="10.56" height="16" style="fill:#cae2f1"/><rect id="fenetre-16" data-name="fenetre" x="1150.11" y="651.24" width="10.56" height="16" style="fill:#cae2f1"/><rect id="fenetre-17" data-name="fenetre" x="1101.38" y="672.74" width="10.56" height="16" style="fill:#cae2f1"/><rect id="fenetre-18" data-name="fenetre" x="1117.63" y="672.74" width="10.56" height="16" style="fill:#cae2f1"/><rect id="fenetre-19" data-name="fenetre" x="1133.87" y="672.74" width="10.56" height="16" style="fill:#cae2f1"/><rect id="fenetre-20" data-name="fenetre" x="1150.11" y="672.74" width="10.56" height="16" style="fill:#cae2f1"/><rect id="fenetre-21" data-name="fenetre" x="1101.38" y="694.23" width="10.56" height="16" style="fill:#cae2f1"/><rect id="fenetre-22" data-name="fenetre" x="1117.63" y="694.23" width="10.56" height="16" style="fill:#cae2f1"/><rect id="fenetre-23" data-name="fenetre" x="1133.87" y="694.23" width="10.56" height="16" style="fill:#cae2f1"/><rect id="fenetre-24" data-name="fenetre" x="1150.11" y="694.23" width="10.56" height="16" style="fill:#cae2f1"/><rect id="fenetre-25" data-name="fenetre" x="1101.38" y="715.73" width="10.56" height="16" style="fill:#cae2f1"/><rect id="fenetre-26" data-name="fenetre" x="1117.63" y="715.73" width="10.56" height="16" style="fill:#cae2f1"/><rect id="fenetre-27" data-name="fenetre" x="1133.87" y="715.73" width="10.56" height="16" style="fill:#cae2f1"/><rect id="fenetre-28" data-name="fenetre" x="1150.11" y="715.73" width="10.56" height="16" style="fill:#cae2f1"/><rect id="fenetre-29" data-name="fenetre" x="1101.38" y="737.22" width="10.56" height="16" style="fill:#cae2f1"/><rect id="fenetre-30" data-name="fenetre" x="1117.63" y="737.22" width="10.56" height="16" style="fill:#cae2f1"/><rect id="fenetre-31" data-name="fenetre" x="1133.87" y="737.22" width="10.56" height="16" style="fill:#cae2f1"/><rect id="fenetre-32" data-name="fenetre" x="1150.11" y="737.22" width="10.56" height="16" style="fill:#cae2f1"/><rect x="246.75" y="489.16" width="106.86" height="264.02" style="fill:#b0d5eb"/><rect id="fenetre-33" data-name="fenetre" x="257.62" y="502.16" width="14.92" height="22.62" style="fill:#cae2f1"/><rect id="fenetre-34" data-name="fenetre" x="280.58" y="502.16" width="14.92" height="22.62" style="fill:#cae2f1"/><rect id="fenetre-35" data-name="fenetre" x="303.54" y="502.16" width="14.92" height="22.62" style="fill:#cae2f1"/><rect id="fenetre-36" data-name="fenetre" x="326.5" y="502.16" width="14.92" height="22.62" style="fill:#cae2f1"/><rect id="fenetre-37" data-name="fenetre" x="257.62" y="532.55" width="14.92" height="22.62" style="fill:#cae2f1"/><rect id="fenetre-38" data-name="fenetre" x="280.58" y="532.55" width="14.92" height="22.62" style="fill:#cae2f1"/><rect id="fenetre-39" data-name="fenetre" x="303.54" y="532.55" width="14.92" height="22.62" style="fill:#cae2f1"/><rect id="fenetre-40" data-name="fenetre" x="326.5" y="532.55" width="14.92" height="22.62" style="fill:#cae2f1"/><rect id="fenetre-41" data-name="fenetre" x="257.62" y="562.93" width="14.92" height="22.62" style="fill:#cae2f1"/><rect id="fenetre-42" data-name="fenetre" x="280.58" y="562.93" width="14.92" height="22.62" style="fill:#cae2f1"/><rect id="fenetre-43" data-name="fenetre" x="303.54" y="562.93" width="14.92" height="22.62" style="fill:#cae2f1"/><rect id="fenetre-44" data-name="fenetre" x="326.5" y="562.93" width="14.92" height="22.62" style="fill:#cae2f1"/><rect id="fenetre-45" data-name="fenetre" x="257.62" y="593.32" width="14.92" height="22.62" style="fill:#cae2f1"/><rect id="fenetre-46" data-name="fenetre" x="280.58" y="593.32" width="14.92" height="22.62" style="fill:#cae2f1"/><rect id="fenetre-47" data-name="fenetre" x="303.54" y="593.32" width="14.92" height="22.62" style="fill:#cae2f1"/><rect id="fenetre-48" data-name="fenetre" x="326.5" y="593.32" width="14.92" height="22.62" style="fill:#cae2f1"/><rect id="fenetre-49" data-name="fenetre" x="257.62" y="623.7" width="14.92" height="22.62" style="fill:#cae2f1"/><rect id="fenetre-50" data-name="fenetre" x="280.58" y="623.7" width="14.92" height="22.62" style="fill:#cae2f1"/><rect id="fenetre-51" data-name="fenetre" x="303.54" y="623.7" width="14.92" height="22.62" style="fill:#cae2f1"/><rect id="fenetre-52" data-name="fenetre" x="326.5" y="623.7" width="14.92" height="22.62" style="fill:#cae2f1"/><rect id="fenetre-53" data-name="fenetre" x="257.62" y="654.09" width="14.92" height="22.62" style="fill:#cae2f1"/><rect id="fenetre-54" data-name="fenetre" x="280.58" y="654.09" width="14.92" height="22.62" style="fill:#cae2f1"/><rect id="fenetre-55" data-name="fenetre" x="303.54" y="654.09" width="14.92" height="22.62" style="fill:#cae2f1"/><rect id="fenetre-56" data-name="fenetre" x="326.5" y="654.09" width="14.92" height="22.62" style="fill:#cae2f1"/><rect id="fenetre-57" data-name="fenetre" x="257.62" y="684.47" width="14.92" height="22.62" style="fill:#cae2f1"/><rect id="fenetre-58" data-name="fenetre" x="280.58" y="684.47" width="14.92" height="22.62" style="fill:#cae2f1"/><rect id="fenetre-59" data-name="fenetre" x="303.54" y="684.47" width="14.92" height="22.62" style="fill:#cae2f1"/><rect id="fenetre-60" data-name="fenetre" x="326.5" y="684.47" width="14.92" height="22.62" style="fill:#cae2f1"/><rect id="fenetre-61" data-name="fenetre" x="257.62" y="714.86" width="14.92" height="22.62" style="fill:#cae2f1"/><rect id="fenetre-62" data-name="fenetre" x="280.58" y="714.86" width="14.92" height="22.62" style="fill:#cae2f1"/><rect id="fenetre-63" data-name="fenetre" x="303.54" y="714.86" width="14.92" height="22.62" style="fill:#cae2f1"/><rect id="fenetre-64" data-name="fenetre" x="326.5" y="714.86" width="14.92" height="22.62" style="fill:#cae2f1"/><path d="M1440,744.77c-55.88-2.71-118.32-1-182.73,11.4-151.11,29.2-450.09-46.35-564.23-.4-115.39,46.45-392.41-68.2-693,40.64-1.29,44.41,1,93.13,0,137.3C144.48,983.44,823.69,978.52,1440,972Z" style="fill:#dcefa2"/><path d="M1440,1024.53,0,1024.64c0-50.8.33-101.81,0-152.81,200.63-13.19,400.38-41.94,595.3-36.5,246.25,6.87,446.33,40.15,754.15,20.19,28.27-1.84,58.63-3.27,90.55-4.38Z" style="fill:#b7df41"/><rect x="148.3" y="868.23" width="12.46" height="104.05" style="fill:#004b78"/><path d="M166.28,709a18.91,18.91,0,0,0-17.73-1c-7.87,3.66-19.52,13.08-28.87,37.28-13.11,33.93-38.5,97.58,4.47,124.94,20.86,13.28,48.4,12.85,67.51-2.84,20-16.42,34.77-51.6-2-126.71C189.66,740.7,181.68,718.08,166.28,709Z" style="fill:#88b309"/></g><g id="ECOLE"><circle cx="1203.13" cy="687.43" r="50.3" style="fill:#b7df41"/><rect x="1196.5" y="742.37" width="11.49" height="135.56" style="fill:#00324e"/><ellipse cx="1203.62" cy="743.69" rx="71.18" ry="51.95" style="fill:#b7df41"/><polygon points="0 489.5 44.86 329.81 164.25 762.34 0 762.34 0 489.5" style="fill:#598104"/><rect x="38.3" y="762.34" width="24.55" height="172.55" style="fill:#004b78"/></g><g id="arbre"><rect x="1319.59" y="794.84" width="14.13" height="117.96" style="fill:#00324e"/><circle cx="1326.66" cy="730.37" r="79.55" style="fill:#598104"/></g></svg>