<svg xmlns="http://www.w3.org/2000/svg" viewBox="0 0 607.49 199.93"><title>grande maisonFichier 2</title><g id="Calque_2" data-name="Calque 2"><g id="fond"><g id="GRANDE_MAISOn" data-name="GRANDE MAISOn"><polygon points="36.8 197.13 193.6 197.13 193.6 62.88 36.8 108.01 36.8 197.13" style="fill:#f99a04"/><path d="M23.09,109.73h3v7s0,1.1,3.66,1.65,8,.92,8,7.91v69.36a6.46,6.46,0,0,1-1.6,4l-2.56-.59,1-1.62a5.87,5.87,0,0,0,.37-2.77c0-2-.18-70.69-.18-70.69s.21-2.59-2.89-3-8.7-.87-8.74-3.72S23.09,109.73,23.09,109.73Z" style="fill:#d3d3d3"/><polygon points="193.6 58.74 193.6 68.59 6.27 120.97 3.09 116.5 0.36 112.47 193.6 58.74" style="fill:#f2f2f2;stroke:#fcf8f0;stroke-miterlimit:10;stroke-width:0.452061590793626px"/><rect x="95.5" y="109.78" width="74.99" height="57.31" style="fill:#d1eced"/><rect x="91.25" y="167.09" width="81.48" height="3.13" style="fill:#ffc441"/><rect x="193.6" y="6.13" width="246.79" height="191" style="fill:#f99a04"/><path d="M170.53,9.84h4.95V24.56s0,2.32,6.1,3.48S194.91,30,194.91,44.69v146s-.12,5.53-2.66,8.52L188,198l1.68-3.4s.7-1.53.61-5.83S190,39.91,190,39.91s.36-5.45-4.83-6.36-14.51-1.82-14.59-7.82S170.53,9.84,170.53,9.84Z" style="fill:#d3d3d3"/><ellipse cx="190.12" cy="198.71" rx="1.19" ry="2.25" transform="translate(-32.91 359.61) rotate(-82.07)" style="fill:#ccc8b8"/><rect x="259.78" y="109.78" width="35.25" height="87.35" style="fill:#ffc441"/><rect x="266.03" y="116.38" width="7.43" height="72.12" style="fill:#d1eced"/><rect x="261.4" y="149.91" width="1.77" height="10.01" style="fill:#d3d3d3"/><rect x="262.29" y="152.25" width="7.48" height="0.89" style="fill:#d3d3d3"/><rect x="160.62" y="0.26" width="279.76" height="12.37" style="fill:#f2f2f2;stroke:#fcf8f0;stroke-miterlimit:10;stroke-width:0.524177515607959px"/><rect x="207.68" y="116.38" width="39.06" height="50.78" style="fill:#d1eced"/><rect x="205.47" y="167.16" width="42.44" height="1.63" style="fill:#ffc441"/><rect x="319.84" y="36.68" width="39.06" height="50.78" style="fill:#d1eced"/><rect x="317.62" y="87.46" width="42.44" height="1.63" style="fill:#ffc441"/><rect x="271.09" y="36.68" width="15.42" height="50.78" style="fill:#d1eced"/><rect x="269.62" y="87.46" width="18.31" height="1.63" style="fill:#ffc441"/><rect x="205.44" y="36.68" width="39.06" height="50.78" style="fill:#d1eced"/><rect x="203.23" y="87.46" width="42.44" height="1.63" style="fill:#ffc441"/><rect x="308.65" y="107.63" width="116.41" height="89.77" style="fill:#d1eced"/><line x1="366.67" y1="107.63" x2="366.67" y2="197.4" style="fill:none;stroke:#d3d3d3;stroke-miterlimit:10;stroke-width:0.448587800680627px"/><rect x="308.65" y="149.91" width="1.77" height="10.01" style="fill:#d3d3d3"/><rect x="307.3" y="154.95" width="7.48" height="0.89" transform="translate(324.81 -192.03) rotate(65.73)" style="fill:#d3d3d3"/><rect x="423.29" y="149.91" width="1.77" height="10.01" transform="translate(848.35 309.83) rotate(-180)" style="fill:#d3d3d3"/><rect x="418.94" y="154.95" width="7.48" height="0.89" transform="translate(738.1 -166.03) rotate(114.27)" style="fill:#d3d3d3"/><rect x="378.16" y="36.68" width="39.06" height="50.78" style="fill:#d1eced"/><rect x="375.94" y="87.46" width="42.44" height="1.63" style="fill:#ffc441"/><rect x="440.39" y="89.86" width="146.53" height="107.27" style="fill:#faaf04"/><rect x="470.54" y="120.97" width="92.96" height="76.15" style="fill:#d3d3d3"/><path d="M599.57,95.62h-3.05v7.85s0,1.24-3.75,1.86-8.2,1-8.2,8.89v77.89s.07,2.95,1.64,4.54l2.64-.67-1-1.82a6.91,6.91,0,0,1-.38-3.11c0-2.29.18-79.39.18-79.39a3.23,3.23,0,0,1,3-3.39c3.19-.49,8.92-1,9-4.17S599.57,95.62,599.57,95.62Z" style="fill:#d3d3d3"/><ellipse cx="587.52" cy="196.32" rx="1.38" ry="0.78" transform="translate(-23.49 94.38) rotate(-9.01)" style="fill:#ccc8b8"/><rect x="440.46" y="86.13" width="167.03" height="12.37" style="fill:#f2f2f2"/></g></g></g></svg>