<svg xmlns="http://www.w3.org/2000/svg" viewBox="0 0 607.48663 199.68308"><title>grande-maisonFichier 9</title><g id="Calque_2" data-name="Calque 2"><g id="panneau_photovoltaique" data-name="panneau photovoltaique"><g id="photovoltaique"><polygon points="36.795 197.126 193.597 197.126 193.597 62.885 36.795 108.008 36.795 197.126" style="fill:#fbb84f"/><path d="M23.08761,109.72521h2.96647v6.99059s0,1.10378,3.65105,1.65567,7.98667.91981,7.98667,7.9104v69.354a6.50066,6.50066,0,0,1-1.59734,4.04718l-2.568-.59662,1.00414-1.619a5.7947,5.7947,0,0,0,.36995-2.76943c-.05285-2.04511-.182-70.6885-.182-70.6885s.21428-2.59118-2.89272-3.023-8.6911-.86372-8.73821-3.714S23.08761,109.72521,23.08761,109.72521Z" style="fill:#d3d3d3"/><polygon points="193.597 58.742 193.597 68.591 6.274 120.973 3.091 116.496 0.363 112.467 193.597 58.742" style="fill:#f2f2f2;stroke:#fcf8f0;stroke-miterlimit:10;stroke-width:0.452061590793626px"/><rect x="95.50101" y="109.78035" width="74.99083" height="57.30643" style="fill:#f2f2f2"/><rect x="91.2478" y="167.08678" width="81.48257" height="3.13395" style="fill:#ffcd5d"/><rect x="193.59698" y="6.12521" width="246.78849" height="191.00098" style="fill:#fbb84f"/><path d="M170.52681,9.84118h4.95383V24.557s0,2.32355,6.097,3.48533,13.33724,1.93629,13.33724,16.65211V190.69089s-.12145,5.53363-2.66745,8.51969l-4.2884-1.25595,1.67687-3.40824s.70605-1.52474.61779-5.82989-.304-148.80566-.304-148.80566.35782-5.45466-4.83068-6.36377-14.5136-1.81823-14.59227-7.81836S170.52681,9.84118,170.52681,9.84118Z" style="fill:#d3d3d3"/><rect x="259.78126" y="109.78035" width="35.24925" height="87.34584" style="fill:#ffcd5d"/><rect x="266.02693" y="116.37998" width="7.43247" height="72.11598" style="fill:#f2f2f2"/><rect x="261.39983" y="149.90761" width="1.77478" height="10.01482" style="fill:#d3d3d3"/><rect x="262.28722" y="152.25285" width="7.47942" height="0.88739" style="fill:#d3d3d3"/><rect x="160.6224" y="0.26209" width="279.76308" height="12.36597" style="fill:#f2f2f2;stroke:#fcf8f0;stroke-miterlimit:10;stroke-width:0.524177515607959px"/><rect x="207.68489" y="116.37998" width="39.05777" height="50.77537" style="fill:#f2f2f2"/><rect x="205.46967" y="167.15535" width="42.43889" height="1.63227" style="fill:#ffcd5d"/><rect x="319.83891" y="36.68145" width="39.05777" height="50.77537" style="fill:#f2f2f2"/><rect x="317.62369" y="87.45683" width="42.43889" height="1.63227" style="fill:#ffcd5d"/><rect x="271.08901" y="36.68145" width="15.41829" height="50.77537" style="fill:#f2f2f2"/><rect x="269.61898" y="87.45683" width="18.30799" height="1.63227" style="fill:#ffcd5d"/><rect x="205.44181" y="36.68145" width="39.05777" height="50.77537" style="fill:#f2f2f2"/><rect x="203.22659" y="87.45683" width="42.43889" height="1.63227" style="fill:#ffcd5d"/><rect x="308.65137" y="107.63245" width="116.4094" height="89.77043" style="fill:#f2f2f2"/><line x1="366.67042" y1="107.63245" x2="366.67042" y2="197.40288" style="fill:none;stroke:#d3d3d3;stroke-miterlimit:10;stroke-width:0.448587800680627px"/><rect x="308.65137" y="149.90817" width="1.77478" height="10.01482" style="fill:#d3d3d3"/><rect x="307.29568" y="154.94511" width="7.47942" height="0.88739" transform="translate(324.81402 -192.02859) rotate(65.72512)" style="fill:#d3d3d3"/><rect x="423.28599" y="149.90817" width="1.77478" height="10.01482" transform="translate(848.34676 309.83116) rotate(-180)" style="fill:#d3d3d3"/><rect x="418.93704" y="154.94511" width="7.47942" height="0.88739" transform="translate(738.0953 -166.03374) rotate(114.27488)" style="fill:#d3d3d3"/><rect x="378.159" y="36.68145" width="39.05777" height="50.77537" style="fill:#f2f2f2"/><rect x="375.94378" y="87.45683" width="42.43889" height="1.63227" style="fill:#ffcd5d"/><rect x="440.38548" y="89.85742" width="146.52611" height="107.26878" style="fill:#fbb84f"/><rect x="470.53753" y="120.97302" width="92.96238" height="76.15318" style="fill:#d3d3d3"/><path d="M599.57089,95.622h-3.04708v7.85105s0,1.23963-3.75025,1.85945-8.20366,1.033-8.20366,8.88408v77.89059s.0747,2.95225,1.64073,4.54534l2.63777-.67006-1.03143-1.81833a7.0445,7.0445,0,0,1-.38-3.11031c.05429-2.29684.187-79.38933.187-79.38933a3.23622,3.23622,0,0,1,2.97132-3.39514c3.19142-.485,8.92724-.97,8.97563-4.17118S599.57089,95.622,599.57089,95.622Z" style="fill:#d3d3d3"/><rect x="440.45725" y="86.12752" width="167.02938" height="12.36597" style="fill:#f2f2f2"/></g></g></g></svg>