<?xml version="1.0" encoding="UTF-8" standalone="no"?>
<svg
   xmlns:dc="http://purl.org/dc/elements/1.1/"
   xmlns:cc="http://creativecommons.org/ns#"
   xmlns:rdf="http://www.w3.org/1999/02/22-rdf-syntax-ns#"
   xmlns:svg="http://www.w3.org/2000/svg"
   xmlns="http://www.w3.org/2000/svg"
   xmlns:sodipodi="http://sodipodi.sourceforge.net/DTD/sodipodi-0.dtd"
   xmlns:inkscape="http://www.inkscape.org/namespaces/inkscape"
   viewBox="0 0 1579.82 735.55"
   version="1.1"
   id="svg38"
   sodipodi:docname="little-house.svg"
   inkscape:version="0.92.4 (5da689c313, 2019-01-14)">
  <metadata
     id="metadata44">
    <rdf:RDF>
      <cc:Work
         rdf:about="">
        <dc:format>image/svg+xml</dc:format>
        <dc:type
           rdf:resource="http://purl.org/dc/dcmitype/StillImage" />
        <dc:title>petite maisonFichier 1</dc:title>
      </cc:Work>
    </rdf:RDF>
  </metadata>
  <defs
     id="defs42" />
  <sodipodi:namedview
     pagecolor="#ffffff"
     bordercolor="#666666"
     borderopacity="1"
     objecttolerance="10000"
     gridtolerance="10"
     guidetolerance="10"
     inkscape:pageopacity="0"
     inkscape:pageshadow="2"
     inkscape:window-width="1920"
     inkscape:window-height="1017"
     id="namedview40"
     showgrid="false"
     inkscape:zoom="4"
     inkscape:cx="803.00798"
     inkscape:cy="2.9724018"
     inkscape:window-x="-8"
     inkscape:window-y="-8"
     inkscape:window-maximized="1"
     inkscape:current-layer="svg38"
     inkscape:snap-object-midpoints="true"
     inkscape:snap-path-clip="true"
     inkscape:snap-path-mask="true">
    <inkscape:grid
       type="xygrid"
       id="grid830" />
  </sodipodi:namedview>
  <title
     id="title2">petite maisonFichier 1</title>
  <g
     id="Calque_2"
     data-name="Calque 2"
     inkscape:transform-center-x="-0.00024158537"
     inkscape:transform-center-y="-367.75953">
    <g
       id="Calque_3"
       data-name="Calque 3">
      <polygon
         points="841.25,138.16 158.6,334.61 158.6,722.58 841.25,722.58 "
         style="fill:#0d334e"
         id="polygon4" />
      <path
         d="m 98.93,342.08 h 12.91 v 30.43 c 0,0 0,4.81 15.9,7.21 15.9,2.4 34.77,4 34.77,34.44 v 301.93 c 0,0 -0.32,11.45 -6.95,17.62 l -11.18,-2.59 4.37,-7 c 0,0 1.84,-3.16 1.61,-12.06 -0.23,-8.9 -0.79,-307.74 -0.79,-307.74 0,0 0.93,-11.32 -12.57,-13.21 -13.5,-1.89 -37.83,-3.76 -38,-16.17 -0.17,-12.41 -0.07,-32.86 -0.07,-32.86 z"
         style="fill:#79797e"
         id="path6"
         inkscape:connector-curvature="0" />
      <ellipse
         cx="150.02"
         cy="732.42999"
         rx="3.04"
         ry="5.8600001"
         transform="rotate(-82.34,150.0026,732.42389)"
         style="fill:#ccc8b8"
         id="ellipse8" />
      <polygon
         points="0,354.01 841.25,120.12 841.25,163 25.73,391.05 11.88,371.56 "
         style="fill:#d3d3d3"
         id="polygon10" />
      <rect
         x="414.17999"
         y="342.32001"
         width="326.47"
         height="249.48"
         style="fill:#d8e0f3"
         id="rect12" />
      <rect
         x="395.67001"
         y="591.79999"
         width="354.73999"
         height="13.64"
         style="fill:#004c79"
         id="rect14" />
      <polygon
         points="1570.97,722.58 1570.97,255.59 841.25,48.01 841.25,722.58 "
         style="fill:#0877bd"
         id="polygon16" />
      <path
         d="m 777.76,64.73 h 14.06 v 51.82 c 0,0 0,8.19 17.31,12.28 17.31,4.09 37.87,6.82 37.87,58.64 v 514.18 c 0,0 -0.34,19.49 -7.57,30 l -12.17,-4.43 4.76,-12 c 0,0 2,-5.37 1.75,-20.53 -0.25,-15.16 -0.86,-524.07 -0.86,-524.07 0,0 1,-19.21 -13.71,-22.41 -14.71,-3.2 -41.2,-6.41 -41.42,-27.54 -0.22,-21.13 -0.02,-55.94 -0.02,-55.94 z"
         style="fill:#79797e"
         id="path18"
         inkscape:connector-curvature="0" />
      <ellipse
         cx="833.38"
         cy="729.46997"
         rx="5.0599999"
         ry="6.54"
         transform="rotate(-67.17,833.44935,729.47985)"
         style="fill:#ccc8b8"
         id="ellipse20" />
      <polygon
         points="1579.82,234.01 739.74,0 734.28,59.61 1578.45,293.2 "
         style="fill:#d3d3d3"
         id="polygon22" />
      <rect
         x="855.26001"
         y="342.32001"
         width="153.46001"
         height="380.26001"
         style="fill:#004c79"
         id="rect24" />
      <rect
         x="882.45001"
         y="371.04999"
         width="32.360001"
         height="313.95999"
         style="fill:#d8e0f3"
         id="rect26" />
      <rect
         x="862.31"
         y="517.01001"
         width="7.73"
         height="43.599998"
         style="fill:#0b3c60"
         id="rect28" />
      <rect
         x="866.16998"
         y="527.21997"
         width="32.560001"
         height="3.8599999"
         style="fill:#0b3c60"
         id="rect30" />
      <rect
         x="1204.6899"
         y="408.28"
         width="211.38"
         height="161.53"
         style="fill:#d8e0f3"
         id="rect32" />
      <rect
         x="1192.7"
         y="569.81"
         width="241.57001"
         height="8.8299999"
         style="fill:#004c79"
         id="rect34" />
    </g>
  </g>
</svg>
