<svg xmlns="http://www.w3.org/2000/svg" viewBox="0 0 409.5 222.89"><title>moyenne maisonFichier 1</title><g id="Calque_2" data-name="Calque 2"><g id="MAISONS"><g id="moyenne_maison" data-name="moyenne maison"><polygon points="40.99 219.57 215.68 219.57 215.68 70.02 40.99 120.29 40.99 219.57" style="fill:#f31512"/><path d="M25.72,122.2H29V130s0,1.23,4.06,1.84,8.9,1,8.9,8.82v77.26s-.08,2.93-1.78,4.51l-2.86-.66L38.47,220a6.42,6.42,0,0,0,.41-3.08c-.06-2.28-.2-78.75-.2-78.75s.24-2.89-3.22-3.37-9.69-1-9.74-4.14S25.72,122.2,25.72,122.2Z" style="fill:#d3d3d3"/><ellipse cx="38.79" cy="222.09" rx="0.78" ry="1.5" transform="translate(-186.49 230.93) rotate(-82.34)" style="fill:#ccc8b8"/><polygon points="215.68 65.4 215.68 76.38 6.99 134.73 3.44 129.75 0.41 125.26 215.68 65.4" style="fill:#f2f2f2;stroke:#fcf8f0;stroke-miterlimit:10;stroke-width:0.503631923169224px"/><rect x="106.4" y="122.26" width="83.55" height="63.84" style="fill:#d1eced"/><rect x="101.66" y="186.11" width="90.78" height="3.49" style="fill:#f99a04"/><rect x="215.68" y="6.78" width="186.74" height="212.79" style="fill:#f31512"/><path d="M190,10.92h5.52v16.4s0,2.59,6.79,3.88,14.86,2.16,14.86,18.55V212.4s-.13,6.17-3,9.5l-4.78-1.4,1.87-3.8s.79-1.7.69-6.5-.34-165.78-.34-165.78.4-6.07-5.38-7.09-16.17-2-16.26-8.71S190,10.92,190,10.92Z" style="fill:#d3d3d3"/><ellipse cx="211.81" cy="221.34" rx="1.33" ry="2.5" transform="translate(-36.62 400.6) rotate(-82.07)" style="fill:#ccc8b8"/><rect x="289.42" y="122.26" width="39.27" height="97.31" style="fill:#f99a04"/><rect x="296.37" y="129.62" width="8.28" height="80.34" style="fill:#d1eced"/><rect x="291.22" y="166.97" width="1.98" height="11.16" style="fill:#79787d"/><rect x="292.21" y="169.58" width="8.33" height="0.99" style="fill:#79787d"/><rect x="178.95" y="0.25" width="230.3" height="13.78" style="fill:#f2f2f2;stroke:#fcf8f0;stroke-miterlimit:10;stroke-width:0.501986105589973px"/><rect x="231.38" y="129.62" width="43.51" height="56.57" style="fill:#d1eced"/><rect x="228.91" y="186.18" width="47.28" height="1.82" style="fill:#f99a04"/><rect x="346.33" y="129.62" width="43.51" height="56.57" style="fill:#d1eced"/><rect x="343.86" y="186.18" width="47.28" height="1.82" style="fill:#f99a04"/><rect x="346.33" y="40.83" width="43.51" height="56.57" style="fill:#d1eced"/><rect x="343.86" y="97.39" width="47.28" height="1.82" style="fill:#f99a04"/><rect x="287.85" y="40.83" width="43.51" height="56.57" style="fill:#d1eced"/><rect x="285.39" y="97.39" width="47.28" height="1.82" style="fill:#f99a04"/><rect x="228.88" y="40.83" width="43.51" height="56.57" style="fill:#d1eced"/><rect x="226.41" y="97.39" width="47.28" height="1.82" style="fill:#f99a04"/></g></g></g></svg>