<svg id="Calque_2" data-name="Calque 2" xmlns="http://www.w3.org/2000/svg" viewBox="0 0 652.78 551.5"><defs><style>.cls-1{fill:#dfe7cf;}.cls-2{fill:#e9efde;}.cls-3{fill:#b6c891;}.cls-4{fill:#9db56b;}</style></defs><title>Logo-Web-Pays-de-la-Loire</title><path class="cls-1" d="M313,74h92s109.47,97,110,279c.5,171.5-110,272-110,272H313s139.5-96.5,135.5-271.5S354.5,112.5,313,74Z" transform="translate(-19.73 -74)"/><path class="cls-2" d="M472.5,74.5h129s72,116,71,279-72,272-72,272h-128s88-93,89-272S472.5,74.5,472.5,74.5Z" transform="translate(-19.73 -74)"/><path class="cls-3" d="M203,619c51,0,186-108,186-259C389,195,265,75,204.54,74.67c-.79,0-1.54.21-1.54,1Z" transform="translate(-19.73 -74)"/><path class="cls-4" d="M203,618.51c-50.25,0-183.27-108-183.27-259,0-165,122.18-285,181.75-285.33.79,0,1.52.21,1.52,1Z" transform="translate(-19.73 -74)"/></svg>