<svg id="Calque_1" data-name="Calque 1" xmlns="http://www.w3.org/2000/svg" viewBox="0 0 136.22 177.73"><defs><style>.cls-1{fill:#d8e7bc;}.cls-2{fill:#ef7d64;}.cls-3{fill:#fcf9f1;}.cls-4{fill:#2c4068;}.cls-5{fill:#e2deca;}</style></defs><title>petite maison</title><path class="cls-1" d="M135.56,190.89a62.93,62.93,0,0,1-21.77-.2,28.2,28.2,0,0,0-11.34.4c-13.39,3.14-19.77,3-32.78,5.87s-25.15,20.44-8.09,24.26,20.8-6.95,40.87-6.47,23.38,9.54,45.3,4.29,50.1-11.73,39.26-17.79C178.12,196.27,154.3,187.52,135.56,190.89Z" transform="translate(-53.18 -44.31)"/><rect id="facade" class="cls-2" x="18.81" y="88.7" width="102.78" height="69.56"/><rect id="porte" class="cls-3" x="75.78" y="110.04" width="27.06" height="49.22"/><rect id="fenetre" class="cls-3" x="35.73" y="110.04" width="26" height="26"/><polygon id="toit" class="cls-4" points="10.78 96.51 127.43 96.51 117.17 71.26 22.81 71.26 10.78 96.51"/><path id="feu_chemine" data-name="feu chemine" class="cls-3" d="M77.63,82c-3.16-6.13,3.7-13.74,1.23-20.18-.63-1.65-1.83-3-2.48-4.67a9,9,0,0,1,2-9.24,12.28,12.28,0,0,1,9-3.55c2.8,0,6,1.28,6.72,4,.88,3.32-2.48,6.57-1.94,10,.43,2.76,3.25,4.47,5.93,5.23s5.6,1,8,2.45a8.67,8.67,0,0,1,1.82,12.5c-1.28,1.47-3.06,2.46-4.23,4-1.37,1.81-1.77,4.16-2,6.42a101.73,101.73,0,0,0-.71,14.28H98.19c-2.63-7.57,1-10-6.76-14.31C86.89,86.35,80.4,87.32,77.63,82Z" transform="translate(-53.18 -44.31)"/><rect id="cheminé" class="cls-5" x="41.73" y="52.87" width="9.87" height="26.53"/></svg>