<svg width="488" height="419" viewBox="0 0 488 419" fill="none" xmlns="http://www.w3.org/2000/svg">
<path d="M308.442 362.68L304.933 345.488H288.115C287.823 352.768 285.776 359.582 282.412 365.623L308.442 362.68Z" fill="#426262"/>
<path d="M204.029 345.336H185.896L179.607 376.776L214.704 372.904C208.562 365.625 204.468 356.023 204.029 345.336Z" fill="#426262"/>
<path d="M308.443 362.684L282.559 365.471C275.247 378.791 261.647 387.619 246.145 387.619C233.715 387.619 222.601 381.888 214.85 372.906L179.753 376.778L171.418 418.595H319.703L308.443 362.684Z" fill="#5A8D8C"/>
<path d="M456.874 1.96875H30.8835C14.9436 1.96875 2.07471 15.598 2.07471 32.4798V277.807V316.527C2.07471 333.409 14.9436 347.038 30.8835 347.038H456.874C472.813 347.038 485.682 333.409 485.682 316.527V277.807V32.4798C485.536 15.598 472.667 1.96875 456.874 1.96875Z" fill="#5A8D8C" stroke="#5A8D8C" stroke-width="3" stroke-miterlimit="10"/>
<path d="M239.5 203C253.583 203 265 191.583 265 177.5C265 163.417 253.583 152 239.5 152C225.417 152 214 163.417 214 177.5C214 191.583 225.417 203 239.5 203Z" fill="white"/>
</svg>
