<svg width="289" height="202" viewBox="0 0 289 202" fill="none" xmlns="http://www.w3.org/2000/svg">
<path d="M263.765 200.147H25.2518C12.3829 200.147 2 188.996 2 175.521V26.9929C2 13.3636 12.5291 2.36719 25.2518 2.36719H263.765C276.634 2.36719 287.017 13.5184 287.017 26.9929V175.521C287.017 189.151 276.488 200.147 263.765 200.147Z" fill="white" stroke="#426262" stroke-width="3" stroke-miterlimit="10"/>
<path d="M15.3076 22.81C16.7613 22.81 17.9398 21.5619 17.9398 20.0222C17.9398 18.4825 16.7613 17.2344 15.3076 17.2344C13.8538 17.2344 12.6753 18.4825 12.6753 20.0222C12.6753 21.5619 13.8538 22.81 15.3076 22.81Z" fill="white"/>
<path d="M27.8842 22.81C29.338 22.81 30.5165 21.5619 30.5165 20.0222C30.5165 18.4825 29.338 17.2344 27.8842 17.2344C26.4305 17.2344 25.252 18.4825 25.252 20.0222C25.252 21.5619 26.4305 22.81 27.8842 22.81Z" fill="white"/>
<path d="M40.3144 22.81C41.7682 22.81 42.9467 21.5619 42.9467 20.0222C42.9467 18.4825 41.7682 17.2344 40.3144 17.2344C38.8606 17.2344 37.6821 18.4825 37.6821 20.0222C37.6821 21.5619 38.8606 22.81 40.3144 22.81Z" fill="white"/>
<path d="M210.973 106.602H78.0435V122.554H210.973V106.602Z" fill="#FDE8D5"/>
<path d="M176.607 96.3789H111.093C103.489 96.3789 97.3467 89.874 97.3467 81.8203V70.3593C97.3467 62.3057 103.489 55.8008 111.093 55.8008H176.607C184.212 55.8008 190.354 62.3057 190.354 70.3593V81.8203C190.354 89.874 184.066 96.3789 176.607 96.3789Z" fill="#446A6F"/>
<path d="M87.1104 115.273L91.3512 118.836" stroke="#D94D34" stroke-width="0.5" stroke-miterlimit="10"/>
<path d="M85.0629 116.357C86.5167 116.357 87.6952 115.109 87.6952 113.569C87.6952 112.029 86.5167 110.781 85.0629 110.781C83.6092 110.781 82.4307 112.029 82.4307 113.569C82.4307 115.109 83.6092 116.357 85.0629 116.357Z" fill="#FDE8D5" stroke="#D94D34" stroke-width="0.5" stroke-miterlimit="10"/>
<path d="M139.902 135.719H104.074V146.096H139.902V135.719Z" fill="#5A8D8C"/>
<path d="M184.797 135.719H148.969V146.096H184.797V135.719Z" fill="#5A8D8C"/>
<path d="M121.476 139.281L123.377 159.106L128.934 153.685L136.246 151.826L121.476 139.281Z" fill="#D94D34"/>
<path d="M203.808 119.299H202.346C201.322 119.299 200.591 118.525 200.591 117.441V114.343C200.591 113.259 201.322 112.484 202.346 112.484H203.808C204.832 112.484 205.563 113.259 205.563 114.343V117.441C205.563 118.37 204.832 119.299 203.808 119.299Z" fill="#D94D34"/>
</svg>
