<svg width="289" height="202" viewBox="0 0 289 202" fill="none" xmlns="http://www.w3.org/2000/svg">
<path d="M263.555 199.873H25.0413C12.1724 199.873 1.78955 188.722 1.78955 175.248V26.7194C1.78955 13.0901 12.3186 2.09375 25.0413 2.09375H263.555C276.424 2.09375 286.807 13.245 286.807 26.7194V175.248C286.807 188.877 276.277 199.873 263.555 199.873Z" fill="white" stroke="#426262" stroke-width="3" stroke-miterlimit="10"/>
<path d="M198.625 114.379L200.526 134.358L205.937 128.937L213.395 126.924L198.625 114.379Z" fill="#D94D34"/>
<path d="M15.0971 22.5365C16.5509 22.5365 17.7294 21.2884 17.7294 19.7487C17.7294 18.2091 16.5509 16.9609 15.0971 16.9609C13.6434 16.9609 12.4648 18.2091 12.4648 19.7487C12.4648 21.2884 13.6434 22.5365 15.0971 22.5365Z" fill="#71C0A0"/>
<path d="M27.6733 22.5365C29.1271 22.5365 30.3055 21.2884 30.3055 19.7487C30.3055 18.2091 29.1271 16.9609 27.6733 16.9609C26.2195 16.9609 25.041 18.2091 25.041 19.7487C25.041 21.2884 26.2195 22.5365 27.6733 22.5365Z" fill="#71C0A0"/>
<path d="M40.104 22.5365C41.5577 22.5365 42.7362 21.2884 42.7362 19.7487C42.7362 18.2091 41.5577 16.9609 40.104 16.9609C38.6502 16.9609 37.4717 18.2091 37.4717 19.7487C37.4717 21.2884 38.6502 22.5365 40.104 22.5365Z" fill="#71C0A0"/>
<path d="M46.9767 49.9543H23.4325C19.4841 49.9543 16.4131 46.547 16.4131 42.5201C16.4131 38.3384 19.6303 35.0859 23.4325 35.0859H46.9767C50.9251 35.0859 53.9962 38.4933 53.9962 42.5201C53.9962 46.7018 50.9251 49.9543 46.9767 49.9543Z" fill="#71C0A0"/>
<path d="M87.4846 45.4628H62.6242C61.4543 45.4628 60.4307 44.3786 60.4307 43.1396C60.4307 41.9006 61.4543 40.8164 62.6242 40.8164H87.4846C88.6545 40.8164 89.6782 41.9006 89.6782 43.1396C89.5319 44.3786 88.6545 45.4628 87.4846 45.4628Z" fill="#5A8D8C"/>
<path d="M129.455 45.4628H104.594C103.425 45.4628 102.401 44.3786 102.401 43.1396C102.401 41.9006 103.425 40.8164 104.594 40.8164H129.455C130.625 40.8164 131.648 41.9006 131.648 43.1396C131.648 44.3786 130.625 45.4628 129.455 45.4628Z" fill="#5A8D8C"/>
<path d="M171.571 45.4628H146.711C145.541 45.4628 144.517 44.3786 144.517 43.1396C144.517 41.9006 145.541 40.8164 146.711 40.8164H171.571C172.741 40.8164 173.765 41.9006 173.765 43.1396C173.618 44.3786 172.741 45.4628 171.571 45.4628Z" fill="#5A8D8C"/>
<path d="M213.541 45.4628H188.681C187.511 45.4628 186.487 44.3786 186.487 43.1396C186.487 41.9006 187.511 40.8164 188.681 40.8164H213.541C214.711 40.8164 215.735 41.9006 215.735 43.1396C215.735 44.3786 214.711 45.4628 213.541 45.4628Z" fill="#5A8D8C"/>
<path d="M250.539 48.4052H268.819C271.744 48.4052 274.084 45.9271 274.084 42.8295C274.084 39.732 271.744 37.2539 268.819 37.2539H250.539C247.615 37.2539 245.275 39.732 245.275 42.8295C245.421 45.9271 247.761 48.4052 250.539 48.4052Z" fill="#5A8D8C"/>
<path d="M258.144 76.7462H240.156C237.963 76.7462 236.208 74.8877 236.208 72.5645C236.208 70.2414 237.963 68.3828 240.156 68.3828H258.144C260.337 68.3828 262.092 70.2414 262.092 72.5645C261.946 74.8877 260.191 76.7462 258.144 76.7462Z" fill="#D94D34"/>
<path d="M146.272 62.3447H21.5314C19.0454 62.3447 16.998 60.1763 16.998 57.5434C16.998 54.9105 19.0454 52.7422 21.5314 52.7422H146.272C148.758 52.7422 150.806 54.9105 150.806 57.5434C150.659 60.1763 148.758 62.3447 146.272 62.3447Z" fill="#5A8D8C"/>
<path d="M68.1813 107.567H22.7013C19.6303 107.567 16.998 104.779 16.998 101.527V74.4231C16.998 71.1706 19.6303 68.3828 22.7013 68.3828H68.1813C71.2523 68.3828 73.8845 71.1706 73.8845 74.4231V101.527C73.8845 104.934 71.3985 107.567 68.1813 107.567Z" fill="#80BEA3"/>
<path d="M69.3511 178.192H22.1163C19.4841 178.192 17.2905 175.869 17.2905 173.081V144.119C17.2905 141.331 19.4841 139.008 22.1163 139.008H69.3511C71.9834 139.008 74.1769 141.331 74.1769 144.119V173.081C74.1769 175.869 71.9834 178.192 69.3511 178.192Z" fill="#80BEA3"/>
<path d="M32.207 132.04H18.7531C17.5832 132.04 16.5596 130.956 16.5596 129.717V115.933C16.5596 114.694 17.5832 113.609 18.7531 113.609H32.207C33.3769 113.609 34.4005 114.694 34.4005 115.933V129.717C34.4005 130.956 33.5231 132.04 32.207 132.04Z" fill="#80BEA3"/>
<path d="M51.8027 132.039H38.2026C37.0327 132.039 36.1553 130.955 36.1553 129.87V116.086C36.1553 114.847 37.1789 113.918 38.2026 113.918H51.8027C52.9726 113.918 53.85 115.002 53.85 116.086V129.87C53.9963 131.109 52.9726 132.039 51.8027 132.039Z" fill="#80BEA3"/>
<path d="M71.2524 132.039H57.6523C56.4824 132.039 55.605 130.955 55.605 129.87V116.086C55.605 114.847 56.6287 113.918 57.6523 113.918H71.2524C72.4223 113.918 73.2998 115.002 73.2998 116.086V129.87C73.446 131.109 72.4223 132.039 71.2524 132.039Z" fill="#80BEA3"/>
<path d="M142.031 72.2557H90.9943C89.8244 72.2557 88.8008 71.1716 88.8008 69.9325C88.8008 68.6935 89.8244 67.6094 90.9943 67.6094H142.031C143.201 67.6094 144.225 68.6935 144.225 69.9325C144.225 71.3265 143.201 72.2557 142.031 72.2557Z" fill="#5A8D8C"/>
<path d="M120.388 91.4589H90.8479C89.678 91.4589 88.6543 90.3747 88.6543 89.1357C88.6543 87.8967 89.678 86.8125 90.8479 86.8125H120.388C121.558 86.8125 122.581 87.8967 122.581 89.1357C122.435 90.5296 121.558 91.4589 120.388 91.4589Z" fill="#5A8D8C"/>
<path d="M114.392 101.064H90.7019C89.532 101.064 88.5083 99.9802 88.5083 98.7411C88.5083 97.5021 89.532 96.418 90.7019 96.418H114.392C115.562 96.418 116.586 97.5021 116.586 98.7411C116.586 100.135 115.562 101.064 114.392 101.064Z" fill="#5A8D8C"/>
<path d="M114.392 159.764H90.7019C89.532 159.764 88.5083 158.679 88.5083 157.44C88.5083 156.201 89.532 155.117 90.7019 155.117H114.392C115.562 155.117 116.586 156.201 116.586 157.44C116.586 158.834 115.562 159.764 114.392 159.764Z" fill="#5A8D8C"/>
<path d="M176.397 159.764H152.707C151.537 159.764 150.513 158.679 150.513 157.44C150.513 156.201 151.537 155.117 152.707 155.117H176.397C177.567 155.117 178.591 156.201 178.591 157.44C178.591 158.834 177.567 159.764 176.397 159.764Z" fill="#5A8D8C"/>
<path d="M238.402 152.017H214.711C213.541 152.017 212.518 150.933 212.518 149.694C212.518 148.455 213.541 147.371 214.711 147.371H238.402C239.572 147.371 240.595 148.455 240.595 149.694C240.595 151.088 239.572 152.017 238.402 152.017Z" fill="#5A8D8C"/>
<path d="M132.233 118.408H90.8479C89.678 118.408 88.6543 117.324 88.6543 116.085C88.6543 114.846 89.678 113.762 90.8479 113.762H132.233C133.403 113.762 134.427 114.846 134.427 116.085C134.28 117.479 133.403 118.408 132.233 118.408Z" fill="#5A8D8C"/>
<path d="M130.917 134.825H91.2868C89.6782 134.825 88.2158 133.431 88.2158 131.573C88.2158 129.869 89.532 128.32 91.2868 128.32H130.917C132.526 128.32 133.988 129.714 133.988 131.573C133.842 133.431 132.526 134.825 130.917 134.825Z" fill="#5A8D8C"/>
<path d="M182.539 91.4589H152.999C151.829 91.4589 150.806 90.3747 150.806 89.1357C150.806 87.8967 151.829 86.8125 152.999 86.8125H182.539C183.709 86.8125 184.733 87.8967 184.733 89.1357C184.733 90.5296 183.709 91.4589 182.539 91.4589Z" fill="#D94D34"/>
<path d="M176.543 101.064H152.853C151.683 101.064 150.659 99.9802 150.659 98.7411C150.659 97.5021 151.683 96.418 152.853 96.418H176.543C177.713 96.418 178.737 97.5021 178.737 98.7411C178.737 100.135 177.713 101.064 176.543 101.064Z" fill="#D94D34"/>
<path d="M194.384 118.408H152.999C151.829 118.408 150.806 117.324 150.806 116.085C150.806 114.846 151.829 113.762 152.999 113.762H194.384C195.554 113.762 196.578 114.846 196.578 116.085C196.578 117.479 195.554 118.408 194.384 118.408Z" fill="#D94D34"/>
<path d="M201.842 82.787H90.9943C89.8244 82.787 88.8008 81.7028 88.8008 80.4638C88.8008 79.2248 89.8244 78.1406 90.9943 78.1406H201.842C203.012 78.1406 204.036 79.2248 204.036 80.4638C204.036 81.8577 203.012 82.787 201.842 82.787Z" fill="#5A8D8C"/>
<path d="M162.504 146.905C165.412 146.905 167.769 144.409 167.769 141.33C167.769 138.25 165.412 135.754 162.504 135.754C159.597 135.754 157.24 138.25 157.24 141.33C157.24 144.409 159.597 146.905 162.504 146.905Z" fill="#5A8D8C"/>
<path d="M176.689 146.905C179.597 146.905 181.954 144.409 181.954 141.33C181.954 138.25 179.597 135.754 176.689 135.754C173.782 135.754 171.425 138.25 171.425 141.33C171.425 144.409 173.782 146.905 176.689 146.905Z" fill="#5A8D8C"/>
<path d="M190.874 146.905C193.782 146.905 196.139 144.409 196.139 141.33C196.139 138.25 193.782 135.754 190.874 135.754C187.967 135.754 185.61 138.25 185.61 141.33C185.61 144.409 187.967 146.905 190.874 146.905Z" fill="#5A8D8C"/>
</svg>
