<svg width="463" height="461" viewBox="0 0 463 461" fill="none" xmlns="http://www.w3.org/2000/svg">
<path d="M377.232 155.701C373.362 143.873 367.505 139.372 363.53 125.033C360.288 113.31 360.392 103.052 361.125 96.0391C361.334 93.8411 361.334 91.643 361.334 89.4449C361.334 40.5643 321.692 0.894531 272.845 0.894531C225.777 0.894531 187.285 37.7382 184.566 84.2115C184.252 90.387 183.415 96.4578 181.846 102.424C177.348 119.066 165.843 147.327 137.183 161.144C95.031 181.345 61.0371 213.688 45.9752 267.383C37.9213 296.377 18.1525 313.961 1.73087 323.905C-0.0472681 325.056 0.8941 327.777 2.98603 327.568C17.3158 326.103 34.365 328.929 46.4982 345.885C71.2876 380.531 138.857 391.521 190.841 326.207C229.438 277.641 253.39 255.032 279.748 245.403C289.79 241.739 293.241 243.937 308.617 239.541C332.674 232.738 365.204 223.422 376.291 197.255C384.24 178.309 377.755 157.375 377.232 155.701Z" fill="#CB563E"/>
<path d="M324.21 203.212C296.345 176.414 296.131 156.477 297.31 149.189L304.49 144.258C312.743 138.577 317.673 129.251 317.673 119.176V77.3722V42H230.862V77.3722V101.49C230.219 101.382 229.576 101.275 228.933 101.275C221.967 101.275 216.394 106.849 216.394 113.816C216.394 120.784 221.967 126.357 228.933 126.357C229.79 126.357 230.755 126.25 231.505 126.036C233.327 134.397 238.686 141.793 246.402 146.08L255.834 151.332C256.584 159.907 254.226 178.665 228.719 203.212C193.459 237.19 106.219 335.482 90.6792 459.392H276.089H277.054H462.464C446.817 335.482 359.577 237.19 324.21 203.212Z" fill="#F9E9D7"/>
<path d="M323.246 203.21C319.495 199.565 316.28 196.135 313.493 192.812C304.598 203.96 290.879 211.035 275.554 211.035C260.228 211.035 246.51 203.96 237.614 192.812C234.828 196.135 231.613 199.673 227.861 203.21C192.494 237.189 105.255 335.373 89.7148 459.39H275.125H276.09H461.5C445.745 335.48 358.506 237.189 323.246 203.21Z" fill="#80BEA3" stroke="#5A8D8C" stroke-width="2" stroke-miterlimit="10" stroke-linecap="round" stroke-linejoin="round"/>
<path d="M214.358 311.043C214.358 311.043 179.312 392.078 179.312 459.392" stroke="#5A8D8C" stroke-width="2" stroke-miterlimit="10" stroke-linecap="round" stroke-linejoin="round"/>
<path d="M337.929 311.043C337.929 311.043 372.974 392.078 372.974 459.392" stroke="#5A8D8C" stroke-width="2" stroke-miterlimit="10" stroke-linecap="round" stroke-linejoin="round"/>
<circle cx="252.5" cy="249.5" r="4.5" fill="#5A8D8C"/>
<circle cx="308.5" cy="221.5" r="4.5" fill="#5A8D8C"/>
<circle cx="290.5" cy="292.5" r="4.5" fill="#5A8D8C"/>
<circle cx="183.5" cy="310.5" r="4.5" fill="#5A8D8C"/>
<circle cx="201.5" cy="258.5" r="4.5" fill="#5A8D8C"/>
<circle cx="240.5" cy="333.5" r="4.5" fill="#5A8D8C"/>
<circle cx="236.5" cy="292.5" r="4.5" fill="#5A8D8C"/>
<circle cx="317.5" cy="258.5" r="4.5" fill="#5A8D8C"/>
<circle cx="354.5" cy="310.5" r="4.5" fill="#5A8D8C"/>
<circle cx="354.5" cy="274.5" r="4.5" fill="#5A8D8C"/>
<circle cx="236.5" cy="221.5" r="4.5" fill="#5A8D8C"/>
<circle cx="295.5" cy="342.5" r="4.5" fill="#5A8D8C"/>
<circle cx="333.5" cy="376.5" r="4.5" fill="#5A8D8C"/>
<circle cx="268.5" cy="372.5" r="4.5" fill="#5A8D8C"/>
<circle cx="213.5" cy="392.5" r="4.5" fill="#5A8D8C"/>
<circle cx="261.5" cy="425.5" r="4.5" fill="#5A8D8C"/>
<circle cx="222.5" cy="444.5" r="4.5" fill="#5A8D8C"/>
<circle cx="312.5" cy="444.5" r="4.5" fill="#5A8D8C"/>
<circle cx="304.5" cy="397.5" r="4.5" fill="#5A8D8C"/>
<circle cx="350.5" cy="425.5" r="4.5" fill="#5A8D8C"/>
<circle cx="432.5" cy="434.5" r="4.5" fill="#5A8D8C"/>
<circle cx="392.5" cy="329.5" r="4.5" fill="#5A8D8C"/>
<circle cx="427.5" cy="371.5" r="4.5" fill="#5A8D8C"/>
<circle cx="377.5" cy="362.5" r="4.5" fill="#5A8D8C"/>
<circle cx="401.5" cy="401.5" r="4.5" fill="#5A8D8C"/>
<circle cx="147.5" cy="329.5" r="4.5" fill="#5A8D8C"/>
<circle cx="159.5" cy="444.5" r="4.5" fill="#5A8D8C"/>
<circle cx="123.5" cy="416.5" r="4.5" fill="#5A8D8C"/>
<circle cx="179.5" cy="362.5" r="4.5" fill="#5A8D8C"/>
<circle cx="143.5" cy="377.5" r="4.5" fill="#5A8D8C"/>
<circle cx="159.5" cy="405.5" r="4.5" fill="#5A8D8C"/>
<circle cx="102.5" cy="448.5" r="4.5" fill="#5A8D8C"/>
<circle cx="383.5" cy="449.5" r="4.5" fill="#5A8D8C"/>
<circle cx="224" cy="132" r="7" stroke="white" stroke-width="2"/>
<path d="M282.468 42.6581C282.468 42.6581 283.514 67.1508 274.1 74.2683C264.687 81.2812 256.737 75.943 249.729 90.3874C242.721 104.936 229.856 100.54 229.856 100.54L205.799 101.168L219.919 35.2266H327.654V84.5259C327.654 84.6306 284.56 78.6644 282.468 42.6581Z" fill="#CB563E"/>
<path d="M283.5 132C281.5 132 279.333 133.333 278.5 134C278 133.333 276.4 132 274 132C271.6 132 269.667 133.333 269 134C269.5 136.333 272.1 141 278.5 141C284.9 141 287.833 136.333 288.5 134C287.667 133.333 285.5 132 283.5 132Z" fill="#CB563E"/>
</svg>
