<svg width="683" height="459" viewBox="0 0 683 459" fill="none" xmlns="http://www.w3.org/2000/svg">
<rect x="1" y="1" width="681" height="457" rx="19" fill="white" stroke="#5A8D8C" stroke-width="2"/>
<circle cx="21" cy="19" r="5" fill="#CB563E"/>
<circle cx="37" cy="19" r="5" fill="#FDE8D5"/>
<circle cx="54" cy="19" r="5" fill="#71C0A0"/>
<path d="M1 34H682" stroke="#5A8D8C" stroke-width="2"/>
<path d="M33.6641 48.4644L33.0123 45.9471L35.3369 46.2509L34.2289 48.204C35.3369 48.5078 36.2928 49.2022 36.9662 50.1137L37.9004 48.4644L38.6608 47.119C39.0735 46.3377 38.7911 45.3395 38.009 44.9055C37.2052 44.4498 36.2059 44.7319 35.7497 45.5348L35.7279 45.5782L32.643 45.0791C32.6213 45.0791 32.5778 45.0574 32.5344 45.0574C32.4909 45.0574 32.4475 45.0574 32.404 45.0791C32.2302 45.1442 32.1651 45.3395 32.2302 45.5131L32.9037 48.3993C32.882 48.3993 32.8603 48.3993 32.8385 48.3993C30.2316 48.3993 28.1025 50.526 28.1025 53.1301C28.1025 55.7342 30.2316 57.8608 32.8385 57.8608C35.4455 57.8608 37.5745 55.7342 37.5745 53.1301C37.5745 50.7864 35.88 48.855 33.6641 48.4644ZM32.8385 56.5805C30.9268 56.5805 29.3843 55.0397 29.3843 53.1301C29.3843 51.2204 30.9268 49.6796 32.8385 49.6796C34.7503 49.6796 36.2928 51.2204 36.2928 53.1301C36.2928 55.0397 34.7503 56.5805 32.8385 56.5805Z" fill="#426262"/>
<path d="M39.1171 44.6023C40.1165 44.6023 40.9203 43.7994 40.9203 42.8012C40.9203 41.8029 40.1165 41 39.1171 41C38.1178 41 37.314 41.8029 37.314 42.8012C37.314 43.7994 38.1178 44.6023 39.1171 44.6023Z" fill="#426262"/>
<path d="M21.9763 46.0781C22.0197 46.1215 22.0632 46.1649 22.1066 46.2083C22.1501 46.2517 22.2153 46.2951 22.2804 46.3602C22.3456 46.4036 22.4325 46.447 22.5194 46.5121C22.6932 46.5989 22.9105 46.7074 23.1494 46.7508C23.3884 46.7942 23.6708 46.8376 23.975 46.7942C24.2357 46.7508 24.4964 46.7074 24.8005 46.664C25.0829 46.6206 25.3654 46.5989 25.6695 46.5772C25.8216 46.5772 25.9736 46.5555 26.104 46.5555L26.3212 46.5338C26.3864 46.5338 26.4733 46.5338 26.5385 46.5338C26.6906 46.5338 26.8426 46.5338 26.9947 46.5338C27.1468 46.5338 27.2989 46.5338 27.4292 46.5338C27.4944 46.5338 27.5813 46.5338 27.6465 46.5338C27.7116 46.5338 27.7985 46.5338 27.8637 46.5555C27.9289 46.5555 28.0158 46.5555 28.0809 46.5772C28.1461 46.5772 28.233 46.5772 28.2982 46.5989C28.4285 46.6206 28.5806 46.6206 28.711 46.6423C28.8413 46.664 28.9717 46.6857 29.102 46.6857C29.2324 46.7074 29.3627 46.7291 29.4713 46.7508C29.6017 46.7725 29.7103 46.7942 29.8189 46.8159C29.9276 46.8376 30.0362 46.8593 30.1448 46.881C30.2534 46.9027 30.3403 46.9244 30.4272 46.9462C30.601 46.9896 30.7748 47.033 30.8834 47.0764C31.0138 47.1198 31.1224 47.1415 31.1876 47.1632C31.2528 47.1849 31.2962 47.2066 31.2962 47.2066C31.2962 47.2066 31.2745 47.1849 31.2093 47.1415C31.1876 47.1198 31.1441 47.0981 31.1007 47.0547C31.0572 47.033 31.0138 46.9896 30.9486 46.9462C30.84 46.881 30.6879 46.7942 30.5141 46.7074C30.4272 46.664 30.3403 46.6206 30.2317 46.5772C30.1448 46.5338 30.0362 46.4904 29.9276 46.447C29.8189 46.4036 29.7103 46.3602 29.58 46.3168C29.4496 46.2734 29.341 46.23 29.2106 46.2083C29.0803 46.1649 28.9499 46.1432 28.7979 46.0998C28.6675 46.0781 28.5154 46.0347 28.3634 46.013C28.2113 45.9913 28.0592 45.9696 27.9072 45.9479C27.842 45.9479 27.7551 45.9262 27.6899 45.9262C27.603 45.9262 27.5378 45.9262 27.4509 45.9045C27.2989 45.9045 27.1468 45.8828 26.973 45.8828C26.8209 45.8828 26.6471 45.8828 26.495 45.8828C26.4081 45.8828 26.343 45.8828 26.2561 45.8828L26.0171 45.9045C25.865 45.9262 25.713 45.9262 25.5609 45.9479C25.4088 45.9696 25.2567 45.9913 25.1047 46.013C25.0395 46.0347 24.9526 46.0347 24.8874 46.0564C24.8222 46.0781 24.7353 46.0781 24.6702 46.0998C24.5181 46.1432 24.3877 46.1649 24.2574 46.2083C24.1922 46.23 24.127 46.2517 24.0619 46.2517C24.0184 46.2517 23.9967 46.2734 23.9532 46.2734H23.9315H23.9098L23.8663 46.2951C23.7577 46.3168 23.6491 46.3385 23.5405 46.3602C23.4319 46.3819 23.3232 46.3819 23.2146 46.3602C22.9974 46.3602 22.8018 46.3168 22.628 46.2734C22.5411 46.2517 22.4542 46.23 22.3891 46.1866C22.3239 46.1649 22.237 46.1432 22.1935 46.0998C22.1284 46.0781 22.0849 46.0564 22.0415 46.0347C21.998 46.013 21.9546 45.9913 21.9328 45.9696C21.8677 45.9262 21.8242 45.9262 21.8242 45.9262C21.8242 45.9262 21.8459 45.9479 21.8894 46.013C21.9111 45.9913 21.9328 46.0347 21.9763 46.0781Z" fill="#426262"/>
<path d="M23.8012 48.6588C23.8881 48.6588 23.9532 48.6588 24.0401 48.6588C24.1922 48.6588 24.366 48.6588 24.5181 48.6588C24.6702 48.6588 24.844 48.6588 24.996 48.6805C25.0829 48.6805 25.1481 48.6805 25.235 48.6805C25.3219 48.6805 25.3871 48.6805 25.474 48.7022C25.5609 48.7022 25.6261 48.7022 25.713 48.7239C25.7781 48.7239 25.865 48.7239 25.9302 48.7456C26.0823 48.7673 26.2343 48.789 26.3647 48.789C26.5168 48.8107 26.6471 48.8324 26.7775 48.8541C26.8426 48.8541 26.9078 48.8758 26.973 48.8758C27.0382 48.8975 27.1033 48.8975 27.1685 48.9192C27.2989 48.9409 27.4292 48.9626 27.5378 48.9843C27.6465 49.006 27.7768 49.0277 27.8854 49.0494C27.9941 49.0712 28.1027 49.0929 28.1896 49.1146C28.3851 49.158 28.5589 49.2014 28.6892 49.2448C28.8196 49.2882 28.9282 49.3099 29.0151 49.3533C29.0803 49.375 29.1237 49.3967 29.1237 49.3967C29.1237 49.3967 29.102 49.375 29.0368 49.3316C29.0151 49.3099 28.9717 49.2882 28.9282 49.2448C28.8848 49.2014 28.8196 49.1797 28.7544 49.1363C28.6241 49.0495 28.472 48.9626 28.2982 48.8758C28.2113 48.8324 28.1027 48.789 27.9941 48.7456C27.8854 48.7022 27.7768 48.6588 27.6682 48.6154C27.5596 48.572 27.4292 48.5286 27.2989 48.4852C27.1685 48.4418 27.0382 48.3984 26.9078 48.355C26.7775 48.3116 26.6254 48.2682 26.4733 48.2465C26.3212 48.2031 26.1692 48.1814 26.0171 48.1597C25.865 48.138 25.713 48.1163 25.5392 48.0946C25.4523 48.0946 25.3871 48.0729 25.3002 48.0729C25.2133 48.0729 25.1264 48.0512 25.0612 48.0512C24.8874 48.0512 24.7353 48.0295 24.5615 48.0295C24.3877 48.0295 24.2357 48.0295 24.0619 48.0295C23.975 48.0295 23.8881 48.0295 23.8012 48.0295L23.5405 48.0512C23.3667 48.0729 23.2146 48.0729 23.0408 48.0946C22.867 48.1163 22.7149 48.138 22.5629 48.1814C22.476 48.2031 22.4108 48.2031 22.3239 48.2248C22.237 48.2465 22.1718 48.2465 22.0849 48.2682C21.9328 48.3116 21.7808 48.3333 21.6287 48.3767C21.5635 48.3984 21.4766 48.4201 21.4114 48.4418C21.368 48.4418 21.3463 48.4635 21.3028 48.4635H21.2811H21.2594L21.2159 48.4852C21.1073 48.5286 20.977 48.5286 20.8466 48.5503C20.7163 48.572 20.6076 48.572 20.499 48.5503C20.2818 48.5503 20.0645 48.5069 19.869 48.4418C19.7821 48.4201 19.6952 48.3984 19.6083 48.355C19.5214 48.3333 19.4562 48.2899 19.391 48.2682C19.3259 48.2465 19.2607 48.2031 19.2172 48.1814C19.1738 48.1597 19.1303 48.138 19.0869 48.1163C19.0434 48.0295 19 48.0078 19 48.0078C19 48.0078 19.0217 48.0295 19.0869 48.0946C19.1086 48.1163 19.1521 48.1597 19.1955 48.2031C19.239 48.2465 19.2824 48.2899 19.3476 48.3333C19.3693 48.3767 19.4345 48.4201 19.5214 48.4852C19.5866 48.5503 19.6735 48.5937 19.7604 48.6371C19.9559 48.7456 20.1731 48.8324 20.4338 48.8975C20.6945 48.9626 20.977 48.9843 21.3028 48.9409C21.5852 48.8975 21.8677 48.8541 22.1718 48.8107C22.476 48.7673 22.7801 48.7456 23.0843 48.7022C23.2363 48.7022 23.4101 48.6805 23.5622 48.6805L23.8012 48.6588Z" fill="#426262"/>
<path d="M27.7548 51.1771C27.7114 51.1337 27.6245 51.0903 27.5593 51.0252C27.5159 51.0035 27.4724 50.9818 27.429 50.9384C27.3855 50.9167 27.3203 50.895 27.2769 50.8516C27.1683 50.8082 27.0596 50.743 26.9293 50.6996C26.8641 50.6779 26.7989 50.6562 26.7338 50.6345C26.6686 50.6128 26.5817 50.5911 26.5165 50.5694C26.4514 50.5477 26.3645 50.5477 26.2993 50.526C26.2558 50.526 26.2124 50.5043 26.1907 50.5043C26.1472 50.5043 26.1038 50.5043 26.082 50.4826C25.9951 50.4826 25.93 50.4609 25.8431 50.4609C25.7562 50.4609 25.691 50.4609 25.6041 50.4609C25.5172 50.4609 25.452 50.4609 25.3651 50.4826C25.2782 50.4826 25.213 50.5043 25.1261 50.5043C25.0392 50.526 24.9741 50.526 24.8872 50.5477C24.822 50.5694 24.7351 50.5694 24.6699 50.5911C24.6047 50.6128 24.5178 50.6345 24.4527 50.6562C24.4092 50.6779 24.3875 50.6779 24.3441 50.6996L24.3006 50.7213H24.2789H24.2572C24.1703 50.7647 24.0616 50.7864 23.9747 50.7864C23.8878 50.7864 23.7792 50.7864 23.6923 50.7864C23.6054 50.7864 23.5402 50.7647 23.4751 50.743C23.4533 50.743 23.4099 50.7213 23.3882 50.7213C23.3664 50.7213 23.3447 50.6996 23.323 50.6996C23.2795 50.6779 23.2578 50.6779 23.2578 50.6779C23.2578 50.6779 23.2578 50.6996 23.2795 50.7213C23.3013 50.743 23.323 50.8082 23.3882 50.8516C23.4316 50.9167 23.4968 50.9601 23.5837 51.0252C23.6706 51.0903 23.7792 51.1337 23.9096 51.1771C24.0399 51.2205 24.192 51.2422 24.3441 51.2205H24.3875H24.4092H24.3875H24.4309C24.4527 51.2205 24.4961 51.2205 24.5178 51.2205C24.583 51.2205 24.6482 51.1988 24.7134 51.1988C24.8437 51.1771 24.9958 51.1771 25.1261 51.1771C25.1913 51.1771 25.2565 51.1771 25.3434 51.1771C25.4086 51.1771 25.4955 51.1771 25.5606 51.1771C25.6258 51.1771 25.7127 51.1771 25.7779 51.1771C25.8431 51.1771 25.93 51.1771 25.9951 51.1771C26.1255 51.1771 26.2776 51.1771 26.4079 51.1771C26.4731 51.1771 26.5383 51.1771 26.6034 51.1771C26.6686 51.1771 26.7338 51.1771 26.7989 51.1988C26.8641 51.1988 26.9293 51.1988 26.9727 51.2205C27.0379 51.2205 27.0814 51.2205 27.1465 51.2422C27.2552 51.2422 27.3638 51.2639 27.4507 51.2639C27.5376 51.2856 27.6245 51.2856 27.6897 51.2856C27.82 51.3073 27.9069 51.3073 27.9069 51.3073C27.9069 51.3073 27.8852 51.2856 27.8635 51.2639C27.8635 51.2639 27.82 51.2205 27.7548 51.1771Z" fill="#426262"/>
<path d="M39.1606 50.7864C39.1388 50.7864 39.1388 50.7864 39.1606 50.7864C38.9868 50.5911 38.7261 50.4609 38.4219 50.4609H37.2271C37.5746 51.0469 37.8353 51.7196 37.9222 52.4357H38.4219C38.4436 52.4357 38.4654 52.4357 38.4871 52.4357L42.0282 56.4504C42.2237 56.7759 42.6365 56.8844 42.9624 56.6891C43.2883 56.4938 43.3969 56.0814 43.2014 55.7559L39.1606 50.7864Z" fill="#426262"/>
<path d="M46.0475 51.1371H43.6361V48.9453H42.6367V54.6743H43.6361V52.0702H46.0475V54.6743H47.0468V48.9453H46.0475V51.1371Z" fill="#426262"/>
<path d="M51.5438 54.6712V51.1123L50.892 51.4812C50.6096 51.1557 50.1316 51.0038 49.4799 51.0255C48.9368 51.0255 48.5023 51.1991 48.1547 51.568C47.8071 51.9152 47.6333 52.3709 47.6333 52.8917C47.6333 53.4343 47.8071 53.89 48.1547 54.2589C48.5023 54.6278 48.9368 54.8014 49.4799 54.8014C49.8927 54.8014 50.262 54.6712 50.5444 54.3891V54.6712H51.5438ZM50.3054 53.6513C50.1316 53.8466 49.8709 53.9551 49.5668 53.9551C49.3061 53.9551 49.0671 53.8466 48.8933 53.6079C48.7195 53.3909 48.6326 53.1521 48.6326 52.87C48.6326 52.5879 48.7195 52.3492 48.9151 52.1322C49.0889 51.9369 49.3278 51.8284 49.6103 51.8284C49.8927 51.8284 50.1316 51.9152 50.3054 52.1105C50.4792 52.3058 50.5661 52.5445 50.5661 52.8483C50.5879 53.1738 50.501 53.4343 50.3054 53.6513Z" fill="#426262"/>
<path d="M53.151 52.7417C53.151 52.1558 53.3899 51.852 53.8679 51.852C54.1286 51.852 54.3024 51.9171 54.3893 52.0256C54.4544 52.1341 54.4979 52.3077 54.4979 52.5681V54.6731H55.4755V52.5681C55.4755 51.5265 54.9324 51.0273 53.8461 51.0273C53.3682 51.049 52.9989 51.2227 52.6947 51.5482L52.1733 51.0924V54.6731H53.151V52.7417Z" fill="#426262"/>
<path d="M59.973 48.9648H59.0171V51.1566C58.7998 51.0047 58.6043 50.9179 58.4305 50.8962C58.2784 50.8745 58.1046 50.8528 57.9308 50.8528C57.3877 50.8528 56.9315 51.0481 56.6056 51.417C56.2798 51.7859 56.106 52.2634 56.106 52.8276C56.106 53.3701 56.2798 53.8258 56.6491 54.1947C56.9967 54.5636 57.4529 54.759 57.9743 54.759C58.6477 54.8024 59.1474 54.6287 59.4516 54.2598L59.973 54.6938V48.9648ZM58.7564 53.6305C58.5826 53.8258 58.3219 53.9126 58.0177 53.9126C57.7353 53.9126 57.4963 53.8041 57.3443 53.5871C57.1705 53.3918 57.1053 53.1531 57.1053 52.8493C57.1053 52.5455 57.1922 52.2851 57.3443 52.0898C57.5181 51.8727 57.757 51.7425 58.0395 51.7425C58.3653 51.7425 58.6043 51.851 58.7781 52.0464C58.9519 52.2634 59.0388 52.5238 59.0388 52.8276C59.0388 53.1748 58.9519 53.4352 58.7564 53.6305Z" fill="#426262"/>
<path d="M61.7108 49.1367H60.7114V50.1567H61.7108V49.1367Z" fill="#426262"/>
<path d="M61.7325 51.0039H60.7549V54.6713H61.7325V51.0039Z" fill="#426262"/>
<path d="M64.3613 51.0273C63.7312 51.0707 63.2967 51.2444 63.0578 51.5916L62.5146 51.1141V56.7129H63.4923V54.4995C63.7964 54.7599 64.1657 54.9118 64.6002 54.9118C65.1216 54.9118 65.5561 54.7165 65.9037 54.3259C66.2078 53.9569 66.3817 53.5012 66.3817 52.9587C66.3817 52.4162 66.2296 51.9605 65.9037 51.6133C65.5561 51.201 65.0347 51.0273 64.3613 51.0273ZM64.9695 53.8701C64.8609 53.9569 64.7523 53.9786 64.6437 54.0004C64.4916 54.0221 64.4264 54.0221 64.4047 54.0221C64.1223 54.0221 63.8833 53.8918 63.7312 53.6748C63.5792 53.4795 63.4923 53.2191 63.4923 52.9153C63.4923 52.6332 63.5792 52.3728 63.753 52.1775C63.9268 51.9605 64.144 51.8737 64.4264 51.8737C64.7306 51.8737 64.9695 51.9822 65.1651 52.1775C65.3389 52.3728 65.4475 52.6332 65.4475 52.937C65.404 53.3493 65.252 53.6748 64.9695 53.8701Z" fill="#426262"/>
<path d="M68.0113 48.9648H67.0337V54.6721H68.033L68.0113 48.9648Z" fill="#426262"/>
<path d="M71.5959 54.3891V54.6712H72.5735V51.1123L71.9218 51.4812C71.6394 51.1557 71.1614 51.0038 70.5097 51.0255C69.9666 51.0255 69.5321 51.1991 69.1845 51.568C68.8369 51.9152 68.6631 52.3709 68.6631 52.8917C68.6631 53.4343 68.8369 53.89 69.1845 54.2589C69.5321 54.6278 69.9666 54.8014 70.5097 54.8014C70.9442 54.8014 71.2918 54.6712 71.5959 54.3891ZM69.9231 53.6079C69.7493 53.3909 69.6624 53.1521 69.6624 52.87C69.6624 52.5879 69.7493 52.3492 69.9448 52.1322C70.1186 51.9369 70.3576 51.8284 70.64 51.8284C70.9225 51.8284 71.1614 51.9152 71.3352 52.1105C71.509 52.3058 71.5959 52.5445 71.5959 52.8483C71.5959 53.1738 71.509 53.4126 71.3135 53.6296C71.1397 53.8249 70.879 53.9334 70.5749 53.9334C70.3359 53.9551 70.0969 53.8466 69.9231 53.6079Z" fill="#426262"/>
<path d="M74.8545 51.0273C74.3765 51.049 74.0072 51.2227 73.703 51.5482L73.1816 51.0924V54.6731H74.1593V52.7417C74.1593 52.1558 74.3982 51.852 74.8762 51.852C75.1369 51.852 75.3107 51.9171 75.3976 52.0256C75.4627 52.1341 75.5062 52.3077 75.5062 52.5681V54.6731H76.4838V52.5681C76.5055 51.5265 75.9624 51.0273 74.8545 51.0273Z" fill="#426262"/>
<path d="M80.5464 54.543C80.8071 54.3694 81.0244 54.1741 81.2199 53.9137L80.4161 53.5448C80.1988 53.8486 79.8295 54.0005 79.3516 54.0005C78.6347 53.9571 78.2002 53.675 78.0698 53.1325H81.4154C81.4154 52.5466 81.2199 52.0475 80.8071 51.5917C80.3944 51.1577 79.873 50.9407 79.2429 50.9624C78.6129 50.9624 78.1133 51.1794 77.7005 51.5917C77.2877 52.0041 77.1139 52.4164 77.1574 52.8287C77.1356 53.4146 77.2877 53.8703 77.657 54.1958C78.0046 54.5864 78.5695 54.7818 79.3516 54.7601C79.8947 54.7818 80.2857 54.7167 80.5464 54.543ZM79.3081 51.787C79.873 51.8304 80.2423 52.0692 80.4595 52.5249H78.0698C78.2871 52.0909 78.6998 51.8304 79.3081 51.787Z" fill="#426262"/>
<path d="M83.5007 51.0264V49.7461H82.5231V51.0264L82.0234 51.9162H82.5231V54.6722H83.5007V51.9162H84.1742V51.0264H83.5007Z" fill="#426262"/>
<path d="M50.0228 57.6671C50.0228 58.0794 49.849 58.253 49.5665 58.253C49.3276 58.253 49.132 58.0794 49.132 57.6671V56.582H48.8931V57.6671C48.8931 58.2313 49.1755 58.4483 49.5448 58.4483C49.9359 58.4483 50.24 58.2096 50.24 57.6454V56.582H50.001V57.6671H50.0228Z" fill="#426262"/>
<path d="M51.3268 57.0586C51.1095 57.0586 50.9575 57.1888 50.8923 57.2973L50.8706 57.0803H50.6533C50.6533 57.1888 50.675 57.2973 50.675 57.4275V58.3823H50.914V57.6011C50.914 57.5577 50.914 57.5143 50.9357 57.4926C50.9792 57.3624 51.1095 57.2539 51.2616 57.2539C51.4789 57.2539 51.5658 57.4275 51.5658 57.6445V58.404H51.8047V57.6228C51.783 57.1671 51.5006 57.0586 51.3268 57.0586Z" fill="#426262"/>
<path d="M54.1943 57.0586C54.064 57.0586 53.9771 57.102 53.9119 57.1454C53.8467 57.1888 53.8033 57.2539 53.7598 57.319C53.6947 57.1671 53.5643 57.0586 53.3905 57.0586C53.1733 57.0586 53.0429 57.1671 52.9777 57.2973L52.956 57.0803H52.7388C52.7388 57.1888 52.7605 57.2973 52.7605 57.4275V58.3823H52.9995V57.5794C52.9995 57.536 52.9995 57.4926 53.0212 57.4709C53.0646 57.3407 53.1733 57.2322 53.3253 57.2322C53.4991 57.2322 53.6078 57.3841 53.6078 57.6011V58.3823H53.8467V57.5794C53.8467 57.536 53.8467 57.4926 53.8685 57.4492C53.9119 57.3407 54.0205 57.2322 54.1509 57.2322C54.3464 57.2322 54.4333 57.3841 54.4333 57.6445V58.3823H54.6723V57.6011C54.6288 57.1888 54.3681 57.0586 54.1943 57.0586Z" fill="#426262"/>
<path d="M55.5844 57.0586C55.215 57.0586 54.9326 57.319 54.9326 57.753C54.9326 58.1653 55.215 58.4257 55.5626 58.4257C55.8885 58.4257 56.2144 58.2087 56.2144 57.7313C56.2144 57.3407 55.9537 57.0586 55.5844 57.0586ZM55.5626 58.2738C55.3237 58.2738 55.1716 58.0568 55.1716 57.7747C55.1716 57.5143 55.3019 57.2539 55.5844 57.2539C55.8668 57.2539 55.9754 57.536 55.9754 57.753C55.9754 58.0568 55.8016 58.2738 55.5626 58.2738Z" fill="#426262"/>
<path d="M57.1705 57.0586C56.9533 57.0586 56.8012 57.1888 56.736 57.2973L56.7143 57.0803H56.4971C56.4971 57.1888 56.4971 57.2973 56.4971 57.4275V58.3823H56.736V57.6011C56.736 57.5577 56.736 57.5143 56.7578 57.4926C56.8012 57.3624 56.9316 57.2539 57.0836 57.2539C57.3009 57.2539 57.3878 57.4275 57.3878 57.6445V58.404H57.6268V57.6228C57.6485 57.1671 57.3661 57.0586 57.1705 57.0586Z" fill="#426262"/>
<path d="M59.1687 56.4727H58.9298V57.2756C58.8646 57.1671 58.7342 57.0803 58.5387 57.0803C58.2128 57.0803 57.9521 57.3407 57.9521 57.7964C57.9521 58.187 58.1911 58.4691 58.517 58.4691C58.7342 58.4691 58.8863 58.3606 58.9732 58.2087V58.4474H59.1905C59.1905 58.3606 59.1905 58.2304 59.1905 58.1002V56.4727H59.1687ZM58.9298 57.8615C58.9298 57.9049 58.9298 57.9266 58.908 57.97C58.8646 58.1436 58.7125 58.2521 58.5604 58.2521C58.2997 58.2521 58.1694 58.0351 58.1694 57.7747C58.1694 57.4926 58.3215 57.2756 58.5604 57.2756C58.7342 57.2756 58.8646 57.4058 58.908 57.5577C58.908 57.5794 58.9298 57.6228 58.9298 57.6662V57.8615Z" fill="#426262"/>
<path d="M60.0814 57.0586C59.6904 57.0586 59.4731 57.3624 59.4731 57.7747C59.4731 58.1653 59.7121 58.4474 60.1249 58.4474C60.3421 58.4474 60.4725 58.404 60.5594 58.3606L60.5159 58.187C60.429 58.2304 60.3204 58.2521 60.1466 58.2521C59.9076 58.2521 59.6904 58.1219 59.6904 57.7964H60.6246C60.6246 57.7747 60.6246 57.7313 60.6246 57.6879C60.6246 57.4492 60.5159 57.0586 60.0814 57.0586ZM59.7121 57.6228C59.7338 57.4492 59.8425 57.2322 60.0814 57.2322C60.3421 57.2322 60.4073 57.4709 60.4073 57.6228H59.7121Z" fill="#426262"/>
<path d="M62.4276 57.6011C62.4276 57.3407 62.3189 57.0586 61.9279 57.0586C61.7541 57.0586 61.602 57.102 61.4934 57.1671L61.5586 57.319C61.6455 57.2539 61.7758 57.2105 61.9062 57.2105C62.1669 57.2105 62.2103 57.4058 62.2103 57.5143V57.536C61.7106 57.536 61.4282 57.7096 61.4282 58.0351C61.4282 58.2304 61.5586 58.404 61.841 58.404C62.0365 58.404 62.1669 58.3172 62.2538 58.2087L62.2755 58.3823H62.4927C62.471 58.2955 62.471 58.187 62.471 58.0568V57.6011H62.4276ZM62.2103 57.97C62.2103 57.9917 62.2103 58.0134 62.1886 58.0568C62.1451 58.1653 62.0365 58.2738 61.8627 58.2738C61.7324 58.2738 61.6455 58.2087 61.6455 58.0351C61.6455 57.7747 61.9496 57.7313 62.2103 57.7313V57.97Z" fill="#426262"/>
<path d="M63.4271 57.2539C63.5575 57.2539 63.6444 57.2756 63.7095 57.319L63.7747 57.1237C63.7095 57.0803 63.5792 57.0586 63.4489 57.0586C63.0144 57.0586 62.7319 57.3624 62.7319 57.753C62.7319 58.1653 62.9926 58.4257 63.3837 58.4257C63.5575 58.4257 63.7095 58.3823 63.753 58.3389L63.7095 58.1653C63.6444 58.187 63.5575 58.2304 63.4054 58.2304C63.1447 58.2304 62.9492 58.0351 62.9492 57.7313C62.9709 57.4926 63.123 57.2539 63.4271 57.2539Z" fill="#426262"/>
<path d="M64.6439 57.2539C64.7743 57.2539 64.8612 57.2756 64.9263 57.319L64.9915 57.1237C64.9263 57.0803 64.796 57.0586 64.6656 57.0586C64.2312 57.0586 63.9487 57.3624 63.9487 57.753C63.9487 58.1653 64.2094 58.4257 64.6005 58.4257C64.7743 58.4257 64.9263 58.3823 64.9698 58.3389L64.9263 58.1653C64.8612 58.187 64.7743 58.2304 64.6222 58.2304C64.3615 58.2304 64.166 58.0351 64.166 57.7313C64.166 57.4926 64.3398 57.2539 64.6439 57.2539Z" fill="#426262"/>
<path d="M65.7514 57.0586C65.3603 57.0586 65.1431 57.3624 65.1431 57.7747C65.1431 58.1653 65.382 58.4474 65.7948 58.4474C66.0121 58.4474 66.1424 58.404 66.2293 58.3606L66.1859 58.187C66.099 58.2304 65.9903 58.2521 65.8165 58.2521C65.5776 58.2521 65.3603 58.1219 65.3603 57.7964H66.2945C66.2945 57.7747 66.2945 57.7313 66.2945 57.6879C66.2945 57.4492 66.1859 57.0586 65.7514 57.0586ZM65.3603 57.6228C65.382 57.4492 65.4907 57.2322 65.7296 57.2322C65.9903 57.2322 66.0555 57.4709 66.0555 57.6228H65.3603Z" fill="#426262"/>
<path d="M67.0116 57.6463C66.8378 57.5811 66.7509 57.5377 66.7509 57.4292C66.7509 57.3207 66.8378 57.2556 66.9682 57.2556C67.0985 57.2556 67.1854 57.299 67.2289 57.3424L67.294 57.1688C67.2289 57.1254 67.0985 57.082 66.9682 57.082C66.6858 57.082 66.512 57.2556 66.512 57.4726C66.512 57.6246 66.6206 57.7548 66.8596 57.8416C67.0333 57.9067 67.0985 57.9718 67.0985 58.0803C67.0985 58.1888 67.0116 58.2756 66.8378 58.2756C66.7075 58.2756 66.5989 58.2322 66.512 58.1888L66.4468 58.3624C66.5337 58.4275 66.664 58.4492 66.8161 58.4492C67.1202 58.4492 67.3158 58.2756 67.3158 58.0586C67.3592 57.8416 67.2506 57.7331 67.0116 57.6463Z" fill="#426262"/>
<path d="M68.0981 57.6463C67.9243 57.5811 67.8374 57.5377 67.8374 57.4292C67.8374 57.3207 67.9243 57.2556 68.0546 57.2556C68.185 57.2556 68.2718 57.299 68.3153 57.3424L68.3805 57.1688C68.3153 57.1254 68.185 57.082 68.0546 57.082C67.7722 57.082 67.5984 57.2556 67.5984 57.4726C67.5984 57.6246 67.707 57.7548 67.946 57.8416C68.1198 57.9067 68.1849 57.9718 68.1849 58.0803C68.1849 58.1888 68.098 58.2756 67.9243 58.2756C67.7939 58.2756 67.6853 58.2322 67.5984 58.1888L67.5332 58.3624C67.6201 58.4275 67.7505 58.4492 67.9025 58.4492C68.2067 58.4492 68.4022 58.2756 68.4022 58.0586C68.4456 57.8416 68.3153 57.7331 68.0981 57.6463Z" fill="#426262"/>
<path d="M68.9885 57.1016H68.7495V58.4253H68.9885V57.1016Z" fill="#426262"/>
<path d="M68.8581 56.582C68.7712 56.582 68.7061 56.6471 68.7061 56.7339C68.7061 56.8207 68.7712 56.8858 68.8581 56.8858C68.945 56.8858 69.0102 56.8207 69.0102 56.7339C69.0102 56.6471 68.945 56.582 68.8581 56.582Z" fill="#426262"/>
<path d="M70.0748 57.0586C69.8576 57.0586 69.7055 57.1454 69.6186 57.2973V56.4727H69.3796V58.0568C69.3796 58.1653 69.3796 58.3172 69.3579 58.404H69.5752L69.5969 58.187C69.7055 58.3606 69.8576 58.4257 70.0314 58.4257C70.3355 58.4257 70.6179 58.187 70.6179 57.7313C70.6397 57.3407 70.4007 57.0586 70.0748 57.0586ZM69.9879 58.2521C69.8141 58.2521 69.6838 58.1436 69.6186 57.97C69.6186 57.9483 69.5969 57.9049 69.5969 57.8832V57.6445C69.5969 57.6011 69.5969 57.5794 69.6186 57.536C69.6621 57.3624 69.8141 57.2322 69.9879 57.2322C70.2486 57.2322 70.379 57.4492 70.379 57.7313C70.379 58.0568 70.2486 58.2521 69.9879 58.2521Z" fill="#426262"/>
<path d="M71.1613 56.4727H70.9224V58.404H71.1613V56.4727Z" fill="#426262"/>
<path d="M72.0956 57.0586C71.7045 57.0586 71.4873 57.3624 71.4873 57.7747C71.4873 58.1653 71.7263 58.4474 72.139 58.4474C72.3563 58.4474 72.4866 58.404 72.5735 58.3606L72.5301 58.187C72.4432 58.2304 72.3346 58.2521 72.1608 58.2521C71.9218 58.2521 71.7046 58.1219 71.7046 57.7964H72.6387C72.6387 57.7747 72.6387 57.7313 72.6387 57.6879C72.6387 57.4492 72.5301 57.0586 72.0956 57.0586ZM71.7046 57.6228C71.7263 57.4492 71.8349 57.2322 72.0739 57.2322C72.3346 57.2322 72.3997 57.4709 72.3997 57.6228H71.7046Z" fill="#426262"/>
<path d="M74.2023 57.0586C73.985 57.0586 73.8329 57.1454 73.7243 57.319L73.7026 57.102H73.4854C73.4854 57.2322 73.5071 57.3624 73.5071 57.536V58.9683H73.746V58.2521C73.8329 58.3823 73.985 58.4691 74.1588 58.4691C74.463 58.4691 74.7671 58.2304 74.7671 57.753C74.7671 57.3407 74.5281 57.0586 74.2023 57.0586ZM74.1154 58.2521C73.9416 58.2521 73.7895 58.1436 73.746 57.97C73.746 57.9483 73.746 57.9049 73.746 57.8832V57.6662C73.746 57.6445 73.746 57.6011 73.7678 57.5577C73.8112 57.3841 73.9633 57.2539 74.1371 57.2539C74.3978 57.2539 74.5281 57.4709 74.5281 57.753C74.5281 58.0568 74.3761 58.2521 74.1154 58.2521Z" fill="#426262"/>
<path d="M75.6151 57.0586C75.2458 57.0586 74.9634 57.319 74.9634 57.753C74.9634 58.1653 75.2458 58.4257 75.5934 58.4257C75.9193 58.4257 76.2451 58.2087 76.2451 57.7313C76.2451 57.3407 76.0062 57.0586 75.6151 57.0586ZM75.6151 58.2738C75.3761 58.2738 75.2241 58.0568 75.2241 57.7747C75.2241 57.5143 75.3544 57.2539 75.6368 57.2539C75.9193 57.2539 76.0279 57.536 76.0279 57.753C76.0062 58.0568 75.8324 58.2738 75.6151 58.2738Z" fill="#426262"/>
<path d="M77.6565 57.1016H77.4176V57.9045C77.4176 57.9479 77.4176 57.9913 77.3958 58.0347C77.3524 58.1432 77.2438 58.2517 77.07 58.2517C76.8527 58.2517 76.7658 58.0781 76.7658 57.8394V57.1016H76.5269V57.8611C76.5269 58.3168 76.7658 58.447 76.9831 58.447C77.222 58.447 77.3524 58.3168 77.4176 58.2083L77.4393 58.4253H77.6565C77.6565 58.3168 77.6565 58.2083 77.6565 58.0564V57.1016Z" fill="#426262"/>
<path d="M78.2653 57.3665L78.2436 57.1061H78.0264C78.0264 57.2363 78.0481 57.3665 78.0481 57.5184V58.4298H78.2871V57.7137C78.2871 57.6703 78.2871 57.6269 78.3088 57.6052C78.3305 57.4316 78.4609 57.3014 78.6347 57.3014C78.6564 57.3014 78.6998 57.3014 78.7216 57.3014V57.0844C78.6998 57.0844 78.6781 57.0844 78.6564 57.0844C78.4826 57.0627 78.3305 57.1929 78.2653 57.3665Z" fill="#426262"/>
<path d="M79.8075 56.7109L79.5686 56.776V57.1016H79.373V57.2752H79.5686V57.9913C79.5686 58.1432 79.5903 58.2734 79.6555 58.3385C79.7206 58.4036 79.8075 58.447 79.9162 58.447C80.0031 58.447 80.09 58.4253 80.1334 58.4253L80.1117 58.2517C80.09 58.2517 80.0465 58.2734 79.9813 58.2734C79.851 58.2734 79.8075 58.1866 79.8075 58.013V57.2752H80.1551V57.1016H79.8075V56.7109Z" fill="#426262"/>
<path d="M80.9589 57.0586C80.5896 57.0586 80.3071 57.319 80.3071 57.753C80.3071 58.1653 80.5895 58.4257 80.9371 58.4257C81.263 58.4257 81.5889 58.2087 81.5889 57.7313C81.6106 57.3407 81.3499 57.0586 80.9589 57.0586ZM80.9589 58.2738C80.7199 58.2738 80.5678 58.0568 80.5678 57.7747C80.5678 57.5143 80.6982 57.2539 80.9806 57.2539C81.263 57.2539 81.3716 57.536 81.3716 57.753C81.3499 58.0568 81.1761 58.2738 80.9589 58.2738Z" fill="#426262"/>
<path d="M83.0013 57.1016H82.7623V57.9045C82.7623 57.9479 82.7623 57.9913 82.7406 58.0347C82.6971 58.1432 82.5885 58.2517 82.4147 58.2517C82.1975 58.2517 82.1106 58.0781 82.1106 57.8394V57.1016H81.8716V57.8611C81.8716 58.3168 82.1106 58.447 82.3278 58.447C82.5668 58.447 82.6971 58.3168 82.7623 58.2083L82.784 58.4253H83.0013C83.0013 58.3168 82.9795 58.2083 82.9795 58.0564V57.1016H83.0013Z" fill="#426262"/>
<path d="M83.8271 57.6463C83.6533 57.5811 83.5664 57.5377 83.5664 57.4292C83.5664 57.3207 83.6533 57.2556 83.7836 57.2556C83.914 57.2556 84.0009 57.299 84.0443 57.3424L84.1095 57.1688C84.0443 57.1254 83.914 57.082 83.7836 57.082C83.5012 57.082 83.3274 57.2556 83.3274 57.4726C83.3274 57.6246 83.436 57.7548 83.675 57.8416C83.8488 57.9067 83.914 57.9718 83.914 58.0803C83.914 58.1888 83.8271 58.2756 83.6533 58.2756C83.5229 58.2756 83.4143 58.2322 83.3274 58.1888L83.3057 58.3624C83.3926 58.4275 83.5229 58.4492 83.675 58.4492C83.9791 58.4492 84.1747 58.2756 84.1747 58.0586C84.1747 57.8416 84.066 57.7331 83.8271 57.6463Z" fill="#426262"/>
<rect x="222" y="111" width="437" height="327" rx="29" stroke="#5A8D8C" stroke-width="2"/>
<rect x="1" y="65" width="682" height="25" fill="#5A8D8C"/>
<path d="M21 89H200V409C200 425.016 187.016 438 171 438H50C33.9837 438 21 425.016 21 409V89Z" fill="#F9E9D7" stroke="#5A8D8C" stroke-width="2"/>
<rect x="218" y="75" width="36" height="6" rx="3" fill="white"/>
<rect x="117" y="47" width="36" height="6" rx="3" fill="#426262"/>
<rect x="249" y="47" width="36" height="6" rx="3" fill="#426262"/>
<rect x="624" y="47" width="36" height="6" rx="3" fill="#CB563E"/>
<rect x="591" y="47" width="19" height="6" rx="3" fill="#CB563E"/>
<rect x="562" y="47" width="19" height="6" rx="3" fill="#CB563E"/>
<rect x="183" y="47" width="36" height="6" rx="3" fill="#426262"/>
<rect x="309.5" y="41.5" width="114" height="16" rx="8" stroke="#CB563E"/>
<path fill-rule="evenodd" clip-rule="evenodd" d="M413.125 46.5C411.675 46.5 410.5 47.6753 410.5 49.125C410.5 50.5747 411.675 51.75 413.125 51.75C414.575 51.75 415.75 50.5747 415.75 49.125C415.75 47.6753 414.575 46.5 413.125 46.5ZM409.75 49.125C409.75 47.261 411.261 45.75 413.125 45.75C414.989 45.75 416.5 47.261 416.5 49.125C416.5 50.989 414.989 52.5 413.125 52.5C411.261 52.5 409.75 50.989 409.75 49.125Z" fill="#CB563E"/>
<path fill-rule="evenodd" clip-rule="evenodd" d="M414.979 50.9786C415.125 50.8321 415.362 50.8321 415.509 50.9786L417.14 52.6098C417.287 52.7563 417.287 52.9937 417.14 53.1402C416.994 53.2866 416.756 53.2866 416.61 53.1402L414.979 51.5089C414.832 51.3625 414.832 51.125 414.979 50.9786Z" fill="#CB563E"/>
<rect x="274" y="75" width="36" height="6" rx="3" fill="white"/>
<rect x="330" y="75" width="36" height="6" rx="3" fill="white"/>
<rect x="386" y="75" width="36" height="6" rx="3" fill="white"/>
<rect x="442" y="75" width="36" height="6" rx="3" fill="white"/>
<rect x="238" y="374" width="406" height="49" rx="24.5" fill="#426262"/>
<rect x="31" y="380" width="158" height="48" rx="24" fill="white" stroke="#426262" stroke-width="2"/>
<circle cx="56" cy="404" r="19" fill="#CB563E"/>
<path d="M95 391H133" stroke="#CB563E" stroke-width="5" stroke-linecap="round"/>
<path d="M95 404H150" stroke="#71C0A0" stroke-width="3" stroke-linecap="round"/>
<path d="M95 411H166" stroke="#71C0A0" stroke-width="3" stroke-linecap="round"/>
<path d="M95 418H161" stroke="#71C0A0" stroke-width="3" stroke-linecap="round"/>
<rect x="31" y="244" width="158" height="48" rx="24" fill="white" stroke="#426262" stroke-width="2"/>
<circle cx="56" cy="268" r="19" fill="#CB563E"/>
<path d="M95 255H133" stroke="#CB563E" stroke-width="5" stroke-linecap="round"/>
<path d="M95 268H150" stroke="#71C0A0" stroke-width="3" stroke-linecap="round"/>
<path d="M95 275H166" stroke="#71C0A0" stroke-width="3" stroke-linecap="round"/>
<path d="M95 282H161" stroke="#71C0A0" stroke-width="3" stroke-linecap="round"/>
<rect x="31" y="177" width="158" height="48" rx="24" fill="#426262" stroke="#426262" stroke-width="2"/>
<circle cx="56" cy="201" r="19" fill="white"/>
<path d="M95 201H150" stroke="white" stroke-width="3" stroke-linecap="round"/>
<path d="M95 208H166" stroke="white" stroke-width="3" stroke-linecap="round"/>
<path d="M95 215H161" stroke="white" stroke-width="3" stroke-linecap="round"/>
<path d="M100.524 185.48C100.756 185.48 100.94 185.552 101.076 185.696C101.212 185.832 101.28 186.016 101.28 186.248V193.292C101.28 193.524 101.208 193.712 101.064 193.856C100.928 194 100.748 194.072 100.524 194.072C100.292 194.072 100.108 194 99.972 193.856C99.836 193.712 99.768 193.524 99.768 193.292V190.328H95.436V193.292C95.436 193.524 95.364 193.712 95.22 193.856C95.084 194 94.9 194.072 94.668 194.072C94.444 194.072 94.26 194 94.116 193.856C93.98 193.712 93.912 193.524 93.912 193.292V186.248C93.912 186.016 93.98 185.832 94.116 185.696C94.252 185.552 94.436 185.48 94.668 185.48C94.9 185.48 95.084 185.552 95.22 185.696C95.364 185.832 95.436 186.016 95.436 186.248V189.08H99.768V186.248C99.768 186.016 99.836 185.832 99.972 185.696C100.108 185.552 100.292 185.48 100.524 185.48ZM105.644 194.096C105.044 194.096 104.516 193.972 104.06 193.724C103.612 193.476 103.264 193.12 103.016 192.656C102.768 192.192 102.644 191.652 102.644 191.036C102.644 190.42 102.768 189.884 103.016 189.428C103.264 188.964 103.612 188.608 104.06 188.36C104.516 188.112 105.044 187.988 105.644 187.988C106.244 187.988 106.768 188.112 107.216 188.36C107.672 188.608 108.02 188.964 108.26 189.428C108.508 189.884 108.632 190.42 108.632 191.036C108.632 191.652 108.508 192.192 108.26 192.656C108.02 193.12 107.672 193.476 107.216 193.724C106.768 193.972 106.244 194.096 105.644 194.096ZM105.632 192.932C106.12 192.932 106.492 192.772 106.748 192.452C107.004 192.132 107.132 191.66 107.132 191.036C107.132 190.42 107.004 189.952 106.748 189.632C106.492 189.304 106.124 189.14 105.644 189.14C105.164 189.14 104.792 189.304 104.528 189.632C104.272 189.952 104.144 190.42 104.144 191.036C104.144 191.66 104.272 192.132 104.528 192.452C104.784 192.772 105.152 192.932 105.632 192.932ZM112.883 192.956C113.283 192.98 113.483 193.16 113.483 193.496C113.483 193.688 113.403 193.836 113.243 193.94C113.091 194.036 112.871 194.076 112.583 194.06L112.259 194.036C110.915 193.94 110.243 193.22 110.243 191.876V189.26H109.643C109.427 189.26 109.259 189.212 109.139 189.116C109.027 189.02 108.971 188.88 108.971 188.696C108.971 188.512 109.027 188.372 109.139 188.276C109.259 188.18 109.427 188.132 109.643 188.132H110.243V187.028C110.243 186.812 110.311 186.64 110.447 186.512C110.583 186.384 110.767 186.32 110.999 186.32C111.223 186.32 111.403 186.384 111.539 186.512C111.675 186.64 111.743 186.812 111.743 187.028V188.132H112.763C112.979 188.132 113.143 188.18 113.255 188.276C113.375 188.372 113.435 188.512 113.435 188.696C113.435 188.88 113.375 189.02 113.255 189.116C113.143 189.212 112.979 189.26 112.763 189.26H111.743V191.984C111.743 192.576 112.015 192.892 112.559 192.932L112.883 192.956ZM118.908 192.392C119.044 192.392 119.152 192.444 119.232 192.548C119.32 192.652 119.364 192.792 119.364 192.968C119.364 193.216 119.216 193.424 118.92 193.592C118.648 193.744 118.34 193.868 117.996 193.964C117.652 194.052 117.324 194.096 117.012 194.096C116.068 194.096 115.32 193.824 114.768 193.28C114.216 192.736 113.94 191.992 113.94 191.048C113.94 190.448 114.06 189.916 114.3 189.452C114.54 188.988 114.876 188.628 115.308 188.372C115.748 188.116 116.244 187.988 116.796 187.988C117.324 187.988 117.784 188.104 118.176 188.336C118.568 188.568 118.872 188.896 119.088 189.32C119.304 189.744 119.412 190.244 119.412 190.82C119.412 191.164 119.26 191.336 118.956 191.336H115.416C115.464 191.888 115.62 192.296 115.884 192.56C116.148 192.816 116.532 192.944 117.036 192.944C117.292 192.944 117.516 192.912 117.708 192.848C117.908 192.784 118.132 192.696 118.38 192.584C118.62 192.456 118.796 192.392 118.908 192.392ZM116.832 189.044C116.424 189.044 116.096 189.172 115.848 189.428C115.608 189.684 115.464 190.052 115.416 190.532H118.128C118.112 190.044 117.992 189.676 117.768 189.428C117.544 189.172 117.232 189.044 116.832 189.044ZM121.383 194.072C121.167 194.072 120.987 194.012 120.843 193.892C120.707 193.764 120.639 193.584 120.639 193.352V186.188C120.639 185.956 120.707 185.78 120.843 185.66C120.987 185.54 121.167 185.48 121.383 185.48C121.599 185.48 121.779 185.54 121.923 185.66C122.067 185.78 122.139 185.956 122.139 186.188V193.352C122.139 193.584 122.067 193.764 121.923 193.892C121.779 194.012 121.599 194.072 121.383 194.072ZM131.84 185.48C132.064 185.48 132.248 185.544 132.392 185.672C132.536 185.8 132.608 185.968 132.608 186.176V193.352C132.608 193.568 132.54 193.74 132.404 193.868C132.268 193.996 132.088 194.06 131.864 194.06C131.64 194.06 131.46 193.996 131.324 193.868C131.188 193.74 131.12 193.568 131.12 193.352V193.052C130.944 193.38 130.688 193.636 130.352 193.82C130.024 194.004 129.648 194.096 129.224 194.096C128.72 194.096 128.268 193.968 127.868 193.712C127.476 193.456 127.168 193.096 126.944 192.632C126.728 192.16 126.62 191.62 126.62 191.012C126.62 190.404 126.728 189.872 126.944 189.416C127.168 188.96 127.476 188.608 127.868 188.36C128.26 188.112 128.712 187.988 129.224 187.988C129.648 187.988 130.024 188.076 130.352 188.252C130.68 188.428 130.932 188.676 131.108 188.996V186.152C131.108 185.952 131.172 185.792 131.3 185.672C131.436 185.544 131.616 185.48 131.84 185.48ZM129.62 192.932C130.1 192.932 130.468 192.768 130.724 192.44C130.988 192.112 131.12 191.644 131.12 191.036C131.12 190.428 130.988 189.964 130.724 189.644C130.468 189.316 130.104 189.152 129.632 189.152C129.152 189.152 128.78 189.312 128.516 189.632C128.252 189.952 128.12 190.412 128.12 191.012C128.12 191.62 128.252 192.092 128.516 192.428C128.78 192.764 129.148 192.932 129.62 192.932ZM138.783 188.012C139.015 188.012 139.199 188.076 139.335 188.204C139.471 188.332 139.539 188.504 139.539 188.72V193.376C139.539 193.584 139.467 193.752 139.323 193.88C139.187 194.008 139.007 194.072 138.783 194.072C138.567 194.072 138.395 194.012 138.267 193.892C138.139 193.772 138.075 193.608 138.075 193.4V193.1C137.891 193.42 137.643 193.668 137.331 193.844C137.019 194.012 136.667 194.096 136.275 194.096C134.835 194.096 134.115 193.288 134.115 191.672V188.72C134.115 188.504 134.183 188.332 134.319 188.204C134.455 188.076 134.635 188.012 134.859 188.012C135.091 188.012 135.275 188.076 135.411 188.204C135.547 188.332 135.615 188.504 135.615 188.72V191.684C135.615 192.1 135.699 192.408 135.867 192.608C136.035 192.808 136.299 192.908 136.659 192.908C137.075 192.908 137.407 192.772 137.655 192.5C137.911 192.22 138.039 191.852 138.039 191.396V188.72C138.039 188.504 138.107 188.332 138.243 188.204C138.379 188.076 138.559 188.012 138.783 188.012ZM148.27 194.108C147.454 194.108 146.738 193.932 146.122 193.58C145.514 193.228 145.046 192.724 144.718 192.068C144.39 191.412 144.226 190.644 144.226 189.764C144.226 188.884 144.39 188.12 144.718 187.472C145.046 186.816 145.514 186.312 146.122 185.96C146.738 185.608 147.454 185.432 148.27 185.432C148.798 185.432 149.294 185.512 149.758 185.672C150.222 185.824 150.634 186.048 150.994 186.344C151.098 186.424 151.17 186.508 151.21 186.596C151.25 186.684 151.27 186.792 151.27 186.92C151.27 187.096 151.222 187.244 151.126 187.364C151.03 187.484 150.914 187.544 150.778 187.544C150.618 187.544 150.454 187.488 150.286 187.376C149.942 187.12 149.622 186.944 149.326 186.848C149.03 186.744 148.702 186.692 148.342 186.692C147.51 186.692 146.878 186.952 146.446 187.472C146.022 187.992 145.81 188.756 145.81 189.764C145.81 190.78 146.022 191.548 146.446 192.068C146.878 192.588 147.51 192.848 148.342 192.848C148.686 192.848 149.002 192.796 149.29 192.692C149.586 192.588 149.918 192.412 150.286 192.164C150.366 192.116 150.446 192.076 150.526 192.044C150.606 192.012 150.69 191.996 150.778 191.996C150.914 191.996 151.03 192.056 151.126 192.176C151.222 192.296 151.27 192.444 151.27 192.62C151.27 192.74 151.25 192.848 151.21 192.944C151.17 193.032 151.098 193.116 150.994 193.196C150.634 193.492 150.222 193.72 149.758 193.88C149.294 194.032 148.798 194.108 148.27 194.108ZM157.018 192.392C157.154 192.392 157.262 192.444 157.342 192.548C157.43 192.652 157.474 192.792 157.474 192.968C157.474 193.216 157.326 193.424 157.03 193.592C156.758 193.744 156.45 193.868 156.106 193.964C155.762 194.052 155.434 194.096 155.122 194.096C154.178 194.096 153.43 193.824 152.878 193.28C152.326 192.736 152.05 191.992 152.05 191.048C152.05 190.448 152.17 189.916 152.41 189.452C152.65 188.988 152.986 188.628 153.418 188.372C153.858 188.116 154.354 187.988 154.906 187.988C155.434 187.988 155.894 188.104 156.286 188.336C156.678 188.568 156.982 188.896 157.198 189.32C157.414 189.744 157.522 190.244 157.522 190.82C157.522 191.164 157.37 191.336 157.066 191.336H153.526C153.574 191.888 153.73 192.296 153.994 192.56C154.258 192.816 154.642 192.944 155.146 192.944C155.402 192.944 155.626 192.912 155.818 192.848C156.018 192.784 156.242 192.696 156.49 192.584C156.73 192.456 156.906 192.392 157.018 192.392ZM154.942 189.044C154.534 189.044 154.206 189.172 153.958 189.428C153.718 189.684 153.574 190.052 153.526 190.532H156.238C156.222 190.044 156.102 189.676 155.878 189.428C155.654 189.172 155.342 189.044 154.942 189.044ZM162.157 187.988C162.861 187.988 163.385 188.188 163.729 188.588C164.073 188.988 164.245 189.592 164.245 190.4V193.352C164.245 193.576 164.177 193.752 164.041 193.88C163.913 194.008 163.733 194.072 163.501 194.072C163.269 194.072 163.085 194.008 162.949 193.88C162.813 193.752 162.745 193.576 162.745 193.352V190.484C162.745 190.028 162.657 189.696 162.481 189.488C162.313 189.28 162.045 189.176 161.677 189.176C161.245 189.176 160.897 189.312 160.633 189.584C160.377 189.856 160.249 190.22 160.249 190.676V193.352C160.249 193.576 160.181 193.752 160.045 193.88C159.909 194.008 159.725 194.072 159.493 194.072C159.261 194.072 159.077 194.008 158.941 193.88C158.813 193.752 158.749 193.576 158.749 193.352V188.708C158.749 188.5 158.817 188.332 158.953 188.204C159.089 188.076 159.273 188.012 159.505 188.012C159.713 188.012 159.881 188.076 160.009 188.204C160.145 188.324 160.213 188.484 160.213 188.684V189.008C160.413 188.68 160.681 188.428 161.017 188.252C161.353 188.076 161.733 187.988 162.157 187.988ZM168.816 192.956C169.216 192.98 169.416 193.16 169.416 193.496C169.416 193.688 169.336 193.836 169.176 193.94C169.024 194.036 168.804 194.076 168.516 194.06L168.192 194.036C166.848 193.94 166.176 193.22 166.176 191.876V189.26H165.576C165.36 189.26 165.192 189.212 165.072 189.116C164.96 189.02 164.904 188.88 164.904 188.696C164.904 188.512 164.96 188.372 165.072 188.276C165.192 188.18 165.36 188.132 165.576 188.132H166.176V187.028C166.176 186.812 166.244 186.64 166.38 186.512C166.516 186.384 166.7 186.32 166.932 186.32C167.156 186.32 167.336 186.384 167.472 186.512C167.608 186.64 167.676 186.812 167.676 187.028V188.132H168.696C168.912 188.132 169.076 188.18 169.188 188.276C169.308 188.372 169.368 188.512 169.368 188.696C169.368 188.88 169.308 189.02 169.188 189.116C169.076 189.212 168.912 189.26 168.696 189.26H167.676V191.984C167.676 192.576 167.948 192.892 168.492 192.932L168.816 192.956ZM173.474 188.012C173.682 187.996 173.846 188.04 173.966 188.144C174.086 188.248 174.146 188.404 174.146 188.612C174.146 188.828 174.094 188.988 173.99 189.092C173.886 189.196 173.698 189.264 173.426 189.296L173.066 189.332C172.594 189.38 172.246 189.54 172.022 189.812C171.806 190.084 171.698 190.424 171.698 190.832V193.352C171.698 193.584 171.626 193.764 171.482 193.892C171.338 194.012 171.158 194.072 170.942 194.072C170.726 194.072 170.546 194.012 170.402 193.892C170.266 193.764 170.198 193.584 170.198 193.352V188.708C170.198 188.484 170.266 188.312 170.402 188.192C170.546 188.072 170.722 188.012 170.93 188.012C171.138 188.012 171.306 188.072 171.434 188.192C171.562 188.304 171.626 188.468 171.626 188.684V189.164C171.778 188.812 172.002 188.54 172.298 188.348C172.602 188.156 172.938 188.048 173.306 188.024L173.474 188.012ZM179.319 192.392C179.455 192.392 179.563 192.444 179.643 192.548C179.731 192.652 179.775 192.792 179.775 192.968C179.775 193.216 179.627 193.424 179.331 193.592C179.059 193.744 178.751 193.868 178.407 193.964C178.063 194.052 177.735 194.096 177.423 194.096C176.479 194.096 175.731 193.824 175.179 193.28C174.627 192.736 174.351 191.992 174.351 191.048C174.351 190.448 174.471 189.916 174.711 189.452C174.951 188.988 175.287 188.628 175.719 188.372C176.159 188.116 176.655 187.988 177.207 187.988C177.735 187.988 178.195 188.104 178.587 188.336C178.979 188.568 179.283 188.896 179.499 189.32C179.715 189.744 179.823 190.244 179.823 190.82C179.823 191.164 179.671 191.336 179.367 191.336H175.827C175.875 191.888 176.031 192.296 176.295 192.56C176.559 192.816 176.943 192.944 177.447 192.944C177.703 192.944 177.927 192.912 178.119 192.848C178.319 192.784 178.543 192.696 178.791 192.584C179.031 192.456 179.207 192.392 179.319 192.392ZM177.243 189.044C176.835 189.044 176.507 189.172 176.259 189.428C176.019 189.684 175.875 190.052 175.827 190.532H178.539C178.523 190.044 178.403 189.676 178.179 189.428C177.955 189.172 177.643 189.044 177.243 189.044Z" fill="white"/>
<rect x="31" y="110" width="158" height="48" rx="24" fill="white" stroke="#426262" stroke-width="2"/>
<circle cx="56" cy="134" r="19" fill="#CB563E"/>
<path d="M95 121H133" stroke="#CB563E" stroke-width="5" stroke-linecap="round"/>
<path d="M95 134H150" stroke="#71C0A0" stroke-width="3" stroke-linecap="round"/>
<path d="M95 141H166" stroke="#71C0A0" stroke-width="3" stroke-linecap="round"/>
<path d="M95 148H161" stroke="#71C0A0" stroke-width="3" stroke-linecap="round"/>
<rect x="31" y="311" width="158" height="48" rx="24" fill="white" stroke="#426262" stroke-width="2"/>
<circle cx="56" cy="335" r="19" fill="#CB563E"/>
<path d="M95 322H133" stroke="#CB563E" stroke-width="5" stroke-linecap="round"/>
<path d="M95 335H150" stroke="#71C0A0" stroke-width="3" stroke-linecap="round"/>
<path d="M95 342H166" stroke="#71C0A0" stroke-width="3" stroke-linecap="round"/>
<path d="M95 349H161" stroke="#71C0A0" stroke-width="3" stroke-linecap="round"/>
<circle cx="619" cy="399" r="17" fill="white"/>
<path d="M621.306 394.04L615.161 396.473C614.667 396.674 614.338 397.149 614.356 397.68C614.356 398.21 614.685 398.686 615.179 398.869L617.337 399.692L618.142 401.831C618.325 402.325 618.8 402.654 619.331 402.654C619.331 402.654 619.331 402.654 619.349 402.654C619.88 402.654 620.337 402.344 620.538 401.85L622.97 395.705C623.153 395.229 623.044 394.699 622.678 394.333C622.312 393.949 621.782 393.839 621.306 394.04ZM619.313 401.393L618.544 399.344L619.55 398.338C619.788 398.1 619.788 397.698 619.55 397.46C619.313 397.223 618.91 397.223 618.672 397.46L617.667 398.466L615.618 397.625L621.763 395.193L621.818 395.247L619.313 401.393Z" fill="#CB563E"/>
<path d="M619.331 390.656C614.539 390.656 610.644 393.985 610.644 398.045C610.644 399.947 611.485 401.739 613.003 403.111C612.674 403.916 612.18 404.867 611.576 405.544C611.284 405.873 611.211 406.348 611.393 406.751C611.576 407.135 611.96 407.373 612.381 407.373C612.399 407.373 612.418 407.373 612.436 407.373C614.85 407.244 616.533 406.22 617.575 405.306C623.117 406.275 628 402.617 628 398.063C628.018 393.985 624.123 390.656 619.331 390.656ZM617.539 404.026C617.337 403.989 617.136 404.044 616.99 404.19C616.167 404.977 614.777 405.909 612.747 406.111C613.46 405.214 614.009 404.026 614.338 403.166C614.429 402.91 614.356 402.636 614.155 402.453C612.71 401.282 611.906 399.709 611.906 398.045C611.906 394.643 615.252 391.882 619.349 391.882C623.446 391.882 626.793 394.643 626.793 398.045C626.775 401.922 622.422 405.032 617.539 404.026Z" fill="#CB563E"/>
<path d="M52.6817 127C54.542 127 56.0001 128.508 56.0001 130.318C56.0001 132.179 54.4917 133.687 52.6817 133.687C50.8214 133.687 49.3633 132.179 49.3633 130.318C49.3633 128.508 50.8214 127 52.6817 127ZM52.6817 128.156C51.475 128.156 50.4694 129.112 50.4694 130.318C50.4694 131.525 51.475 132.531 52.6817 132.531C53.8884 132.531 54.8437 131.525 54.8437 130.318C54.8437 129.112 53.8884 128.156 52.6817 128.156Z" fill="white"/>
<path d="M48.1564 140.225C48.1564 140.576 47.905 140.828 47.5531 140.828C47.2514 140.828 47 140.576 47 140.225C47 137.107 49.5642 134.543 52.6815 134.543C55.7988 134.543 58.3631 137.107 58.3631 140.225C58.3631 140.576 58.1117 140.828 57.7597 140.828C57.4581 140.828 57.2067 140.576 57.2067 140.225C57.2067 137.761 55.1955 135.699 52.6815 135.699C50.1676 135.699 48.1564 137.761 48.1564 140.225Z" fill="white"/>
<path d="M60.173 127.5C61.7317 127.5 63.0389 128.807 63.0389 130.366C63.0389 131.975 61.7317 133.282 60.173 133.282C58.5641 133.282 57.3071 131.975 57.3071 130.366C57.3071 128.807 58.5641 127.5 60.173 127.5ZM60.173 128.656C59.2177 128.656 58.4133 129.411 58.4133 130.366C58.4133 131.321 59.2177 132.126 60.173 132.126C61.1283 132.126 61.8825 131.321 61.8825 130.366C61.8825 129.411 61.1283 128.656 60.173 128.656Z" fill="white"/>
<path d="M58.2625 135.499C57.9609 135.65 57.6089 135.6 57.4581 135.298C57.3072 135.047 57.4078 134.695 57.6592 134.544C58.4134 134.091 59.2681 133.84 60.1731 133.84C62.8379 133.84 64.9999 136.002 64.9999 138.667C64.9999 138.968 64.7485 139.22 64.4469 139.22C64.0949 139.22 63.8435 138.968 63.8435 138.667C63.8435 136.605 62.1843 134.996 60.1731 134.996C59.4692 134.996 58.8156 135.147 58.2625 135.499Z" fill="white"/>
<path d="M52.6817 328C54.542 328 56.0001 329.508 56.0001 331.318C56.0001 333.179 54.4917 334.687 52.6817 334.687C50.8214 334.687 49.3633 333.179 49.3633 331.318C49.3633 329.508 50.8214 328 52.6817 328ZM52.6817 329.156C51.475 329.156 50.4694 330.112 50.4694 331.318C50.4694 332.525 51.475 333.531 52.6817 333.531C53.8884 333.531 54.8437 332.525 54.8437 331.318C54.8437 330.112 53.8884 329.156 52.6817 329.156Z" fill="white"/>
<path d="M48.1564 341.225C48.1564 341.576 47.905 341.828 47.5531 341.828C47.2514 341.828 47 341.576 47 341.225C47 338.107 49.5642 335.543 52.6815 335.543C55.7988 335.543 58.3631 338.107 58.3631 341.225C58.3631 341.576 58.1117 341.828 57.7597 341.828C57.4581 341.828 57.2067 341.576 57.2067 341.225C57.2067 338.761 55.1955 336.699 52.6815 336.699C50.1676 336.699 48.1564 338.761 48.1564 341.225Z" fill="white"/>
<path d="M60.173 328.5C61.7317 328.5 63.0389 329.807 63.0389 331.366C63.0389 332.975 61.7317 334.282 60.173 334.282C58.5641 334.282 57.3071 332.975 57.3071 331.366C57.3071 329.807 58.5641 328.5 60.173 328.5ZM60.173 329.656C59.2177 329.656 58.4133 330.411 58.4133 331.366C58.4133 332.321 59.2177 333.126 60.173 333.126C61.1283 333.126 61.8825 332.321 61.8825 331.366C61.8825 330.411 61.1283 329.656 60.173 329.656Z" fill="white"/>
<path d="M58.2625 336.499C57.9609 336.65 57.6089 336.6 57.4581 336.298C57.3072 336.047 57.4078 335.695 57.6592 335.544C58.4134 335.091 59.2681 334.84 60.1731 334.84C62.8379 334.84 64.9999 337.002 64.9999 339.667C64.9999 339.968 64.7485 340.22 64.4469 340.22C64.0949 340.22 63.8435 339.968 63.8435 339.667C63.8435 337.605 62.1843 335.996 60.1731 335.996C59.4692 335.996 58.8156 336.147 58.2625 336.499Z" fill="white"/>
<path d="M52.6817 261C54.542 261 56.0001 262.508 56.0001 264.318C56.0001 266.179 54.4917 267.687 52.6817 267.687C50.8214 267.687 49.3633 266.179 49.3633 264.318C49.3633 262.508 50.8214 261 52.6817 261ZM52.6817 262.156C51.475 262.156 50.4694 263.112 50.4694 264.318C50.4694 265.525 51.475 266.531 52.6817 266.531C53.8884 266.531 54.8437 265.525 54.8437 264.318C54.8437 263.112 53.8884 262.156 52.6817 262.156Z" fill="white"/>
<path d="M48.1564 274.225C48.1564 274.576 47.905 274.828 47.5531 274.828C47.2514 274.828 47 274.576 47 274.225C47 271.107 49.5642 268.543 52.6815 268.543C55.7988 268.543 58.3631 271.107 58.3631 274.225C58.3631 274.576 58.1117 274.828 57.7597 274.828C57.4581 274.828 57.2067 274.576 57.2067 274.225C57.2067 271.761 55.1955 269.699 52.6815 269.699C50.1676 269.699 48.1564 271.761 48.1564 274.225Z" fill="white"/>
<path d="M60.173 261.5C61.7317 261.5 63.0389 262.807 63.0389 264.366C63.0389 265.975 61.7317 267.282 60.173 267.282C58.5641 267.282 57.3071 265.975 57.3071 264.366C57.3071 262.807 58.5641 261.5 60.173 261.5ZM60.173 262.656C59.2177 262.656 58.4133 263.411 58.4133 264.366C58.4133 265.321 59.2177 266.126 60.173 266.126C61.1283 266.126 61.8825 265.321 61.8825 264.366C61.8825 263.411 61.1283 262.656 60.173 262.656Z" fill="white"/>
<path d="M58.2625 269.499C57.9609 269.65 57.6089 269.6 57.4581 269.298C57.3072 269.047 57.4078 268.695 57.6592 268.544C58.4134 268.091 59.2681 267.84 60.1731 267.84C62.8379 267.84 64.9999 270.002 64.9999 272.667C64.9999 272.968 64.7485 273.22 64.4469 273.22C64.0949 273.22 63.8435 272.968 63.8435 272.667C63.8435 270.605 62.1843 268.996 60.1731 268.996C59.4692 268.996 58.8156 269.147 58.2625 269.499Z" fill="white"/>
<path d="M52.6817 397C54.542 397 56.0001 398.508 56.0001 400.318C56.0001 402.179 54.4917 403.687 52.6817 403.687C50.8214 403.687 49.3633 402.179 49.3633 400.318C49.3633 398.508 50.8214 397 52.6817 397ZM52.6817 398.156C51.475 398.156 50.4694 399.112 50.4694 400.318C50.4694 401.525 51.475 402.531 52.6817 402.531C53.8884 402.531 54.8437 401.525 54.8437 400.318C54.8437 399.112 53.8884 398.156 52.6817 398.156Z" fill="white"/>
<path d="M48.1564 410.225C48.1564 410.576 47.905 410.828 47.5531 410.828C47.2514 410.828 47 410.576 47 410.225C47 407.107 49.5642 404.543 52.6815 404.543C55.7988 404.543 58.3631 407.107 58.3631 410.225C58.3631 410.576 58.1117 410.828 57.7597 410.828C57.4581 410.828 57.2067 410.576 57.2067 410.225C57.2067 407.761 55.1955 405.699 52.6815 405.699C50.1676 405.699 48.1564 407.761 48.1564 410.225Z" fill="white"/>
<path d="M60.173 397.5C61.7317 397.5 63.0389 398.807 63.0389 400.366C63.0389 401.975 61.7317 403.282 60.173 403.282C58.5641 403.282 57.3071 401.975 57.3071 400.366C57.3071 398.807 58.5641 397.5 60.173 397.5ZM60.173 398.656C59.2177 398.656 58.4133 399.411 58.4133 400.366C58.4133 401.321 59.2177 402.126 60.173 402.126C61.1283 402.126 61.8825 401.321 61.8825 400.366C61.8825 399.411 61.1283 398.656 60.173 398.656Z" fill="white"/>
<path d="M58.2625 405.499C57.9609 405.65 57.6089 405.6 57.4581 405.298C57.3072 405.047 57.4078 404.695 57.6592 404.544C58.4134 404.091 59.2681 403.84 60.1731 403.84C62.8379 403.84 64.9999 406.002 64.9999 408.667C64.9999 408.968 64.7485 409.22 64.4469 409.22C64.0949 409.22 63.8435 408.968 63.8435 408.667C63.8435 406.605 62.1843 404.996 60.1731 404.996C59.4692 404.996 58.8156 405.147 58.2625 405.499Z" fill="white"/>
<path d="M52.001 193C51.4556 193 51.001 193.455 51.001 194V195.001C51.001 195.546 51.4551 196 52 196.001V199H49C48.4546 199 48 199.455 48 200V208C48 208.545 48.4546 209 49 209H53C53.0789 209 53.1546 208.989 53.2246 208.973C53.2249 208.973 53.2253 208.973 53.2256 208.973C53.3148 208.989 53.4062 209 53.5 209H54.5H57.5H58.5C58.5928 209 58.6832 208.989 58.7715 208.973C58.8424 208.99 58.9189 209 58.999 209H63C63.5454 209 64 208.545 64 208V200.002C64 199.457 63.5454 199.002 63 199.002H60V196.001C60.5449 196 60.999 195.546 60.999 195.001V194C60.999 193.455 60.5444 193 59.999 193H52.001ZM52.001 194H59.999V195.001H59.3848C59.3773 195 59.3698 195 59.3623 195H52.6377C52.6322 195 52.6266 195.001 52.6211 195.001H52.001V194ZM53 196.001H59V199.464C58.9992 199.476 58.9989 199.488 58.999 199.5V207.502C58.999 207.509 58.9964 207.515 58.9961 207.522C58.9938 207.577 58.9829 207.628 58.9658 207.676C58.9544 207.706 58.9379 207.734 58.9209 207.761C58.9102 207.779 58.8996 207.796 58.8867 207.812C58.8604 207.844 58.8306 207.873 58.7969 207.897C58.7891 207.903 58.7806 207.908 58.7725 207.913C58.7354 207.937 58.6956 207.957 58.6523 207.971C58.6037 207.986 58.5549 208 58.5 208H58V205.5C58 204.678 57.3224 204 56.5 204H55.5C54.6776 204 54 204.678 54 205.5V208H53.5C53.4451 208 53.3963 207.986 53.3477 207.971C53.3043 207.957 53.2646 207.937 53.2275 207.913C53.2184 207.907 53.2089 207.902 53.2002 207.896C53.1681 207.872 53.1396 207.845 53.1143 207.814C53.0987 207.795 53.0857 207.774 53.0732 207.752C53.0588 207.728 53.0443 207.705 53.0342 207.678C53.0143 207.622 53 207.564 53 207.5V199.5V196.001ZM54.002 197.499C53.8713 197.502 53.7469 197.556 53.6555 197.649C53.5641 197.743 53.5129 197.868 53.5129 197.999C53.5129 198.13 53.5641 198.255 53.6555 198.349C53.7469 198.442 53.8713 198.496 54.002 198.499H55.002C55.1326 198.496 55.257 198.442 55.3484 198.349C55.4398 198.255 55.491 198.13 55.491 197.999C55.491 197.868 55.4398 197.743 55.3484 197.649C55.257 197.556 55.1326 197.502 55.002 197.499H54.002ZM56.998 197.499C56.8674 197.502 56.743 197.556 56.6516 197.649C56.5602 197.743 56.509 197.868 56.509 197.999C56.509 198.13 56.5602 198.255 56.6516 198.349C56.743 198.442 56.8674 198.496 56.998 198.499H57.999C58.1297 198.496 58.2541 198.442 58.3455 198.349C58.4369 198.255 58.4881 198.13 58.4881 197.999C58.4881 197.868 58.4369 197.743 58.3455 197.649C58.2541 197.556 58.1297 197.502 57.999 197.499H56.998ZM54.002 199.5C53.9354 199.499 53.8691 199.51 53.8072 199.535C53.7452 199.559 53.6888 199.596 53.6412 199.642C53.5935 199.689 53.5557 199.745 53.5299 199.806C53.504 199.867 53.4907 199.933 53.4907 200C53.4907 200.067 53.504 200.133 53.5299 200.194C53.5557 200.255 53.5935 200.311 53.6412 200.358C53.6888 200.404 53.7452 200.441 53.8072 200.465C53.8691 200.49 53.9354 200.501 54.002 200.5H57.999C58.0656 200.501 58.1318 200.49 58.1938 200.465C58.2557 200.441 58.3122 200.404 58.3598 200.358C58.4074 200.311 58.4453 200.255 58.4711 200.194C58.4969 200.133 58.5102 200.067 58.5102 200C58.5102 199.933 58.4969 199.867 58.4711 199.806C58.4453 199.745 58.4074 199.689 58.3598 199.642C58.3122 199.596 58.2557 199.559 58.1938 199.535C58.1318 199.51 58.0656 199.499 57.999 199.5H54.002ZM49 200H52V207.5C52 207.676 52.037 207.843 52.0937 208H49V200ZM60 200.002H63V208H59.9062C59.963 207.843 60 207.676 60 207.5V200.002ZM49.9492 201.5C49.8165 201.507 49.6919 201.566 49.6029 201.665C49.5139 201.764 49.4677 201.894 49.4746 202.026C49.4815 202.159 49.5408 202.284 49.6395 202.373C49.7382 202.462 49.8682 202.508 50.001 202.501H51.001C51.1337 202.501 51.261 202.448 51.3549 202.354C51.4487 202.261 51.5015 202.133 51.5015 202C51.5015 201.868 51.4487 201.74 51.3549 201.647C51.261 201.553 51.1337 201.5 51.001 201.5H50.001C49.9837 201.499 49.9665 201.499 49.9492 201.5ZM53.9502 201.5C53.8175 201.507 53.6929 201.566 53.6039 201.665C53.5149 201.764 53.4687 201.894 53.4756 202.026C53.4824 202.159 53.5418 202.284 53.6405 202.373C53.7392 202.462 53.8692 202.508 54.002 202.501H57.999C58.1318 202.501 58.2591 202.448 58.3529 202.354C58.4468 202.261 58.4995 202.133 58.4995 202C58.4995 201.868 58.4468 201.74 58.3529 201.647C58.2591 201.553 58.1318 201.5 57.999 201.5H54.002C53.9847 201.499 53.9674 201.499 53.9502 201.5ZM60.9512 201.5C60.8184 201.506 60.6937 201.565 60.6043 201.664C60.5149 201.762 60.4683 201.892 60.4746 202.024C60.481 202.157 60.5398 202.282 60.6381 202.371C60.7365 202.461 60.8663 202.507 60.999 202.501H62C62.1327 202.501 62.26 202.448 62.3539 202.354C62.4478 202.261 62.5005 202.133 62.5005 202C62.5005 201.868 62.4478 201.74 62.3539 201.647C62.26 201.553 62.1327 201.5 62 201.5H60.999C60.9831 201.499 60.9671 201.499 60.9512 201.5ZM49.9492 203.501C49.8187 203.511 49.6971 203.571 49.6105 203.669C49.5239 203.767 49.4792 203.896 49.486 204.026C49.4927 204.157 49.5504 204.28 49.6467 204.369C49.7429 204.457 49.8701 204.505 50.001 204.501H51.001C51.1317 204.498 51.256 204.444 51.3474 204.351C51.4388 204.257 51.49 204.132 51.49 204.001C51.49 203.87 51.4388 203.745 51.3474 203.651C51.256 203.558 51.1317 203.504 51.001 203.501H50.001C49.9837 203.5 49.9665 203.5 49.9492 203.501ZM60.9512 203.501C60.8206 203.51 60.6989 203.57 60.612 203.668C60.5251 203.766 60.4799 203.894 60.4862 204.024C60.4924 204.155 60.5496 204.278 60.6455 204.367C60.7413 204.456 60.8682 204.504 60.999 204.501H62C62.1307 204.498 62.255 204.444 62.3464 204.351C62.4378 204.257 62.489 204.132 62.489 204.001C62.489 203.87 62.4378 203.745 62.3464 203.651C62.255 203.558 62.1307 203.504 62 203.501H60.999C60.9831 203.5 60.9671 203.5 60.9512 203.501ZM55.5 205H56.5C56.7856 205 57 205.214 57 205.5V208H55V205.5C55 205.214 55.2144 205 55.5 205Z" fill="#426262"/>
<path d="M246 281C246 269.954 254.954 261 266 261H328C335.732 261 342 267.268 342 275C342 282.732 335.732 289 328 289H246V281Z" fill="#CB563E"/>
<path d="M268.424 249.48C268.648 249.48 268.828 249.552 268.964 249.696C269.1 249.832 269.168 250.016 269.168 250.248V257.352C269.168 257.576 269.104 257.752 268.976 257.88C268.848 258.008 268.68 258.072 268.472 258.072C268.264 258.072 268.1 258.008 267.98 257.88C267.86 257.752 267.8 257.576 267.8 257.352V252.408L265.76 256.272C265.664 256.448 265.56 256.58 265.448 256.668C265.336 256.748 265.204 256.788 265.052 256.788C264.9 256.788 264.768 256.748 264.656 256.668C264.544 256.588 264.44 256.456 264.344 256.272L262.292 252.468V257.352C262.292 257.568 262.228 257.744 262.1 257.88C261.98 258.008 261.816 258.072 261.608 258.072C261.4 258.072 261.236 258.008 261.116 257.88C260.996 257.752 260.936 257.576 260.936 257.352V250.248C260.936 250.016 261 249.832 261.128 249.696C261.264 249.552 261.444 249.48 261.668 249.48C261.98 249.48 262.224 249.652 262.4 249.996L265.064 255.072L267.716 249.996C267.892 249.652 268.128 249.48 268.424 249.48ZM273.546 258.096C272.946 258.096 272.418 257.972 271.962 257.724C271.514 257.476 271.166 257.12 270.918 256.656C270.67 256.192 270.546 255.652 270.546 255.036C270.546 254.42 270.67 253.884 270.918 253.428C271.166 252.964 271.514 252.608 271.962 252.36C272.418 252.112 272.946 251.988 273.546 251.988C274.146 251.988 274.67 252.112 275.118 252.36C275.574 252.608 275.922 252.964 276.162 253.428C276.41 253.884 276.534 254.42 276.534 255.036C276.534 255.652 276.41 256.192 276.162 256.656C275.922 257.12 275.574 257.476 275.118 257.724C274.67 257.972 274.146 258.096 273.546 258.096ZM273.534 256.932C274.022 256.932 274.394 256.772 274.65 256.452C274.906 256.132 275.034 255.66 275.034 255.036C275.034 254.42 274.906 253.952 274.65 253.632C274.394 253.304 274.026 253.14 273.546 253.14C273.066 253.14 272.694 253.304 272.43 253.632C272.174 253.952 272.046 254.42 272.046 255.036C272.046 255.66 272.174 256.132 272.43 256.452C272.686 256.772 273.054 256.932 273.534 256.932ZM278.516 258.072C278.3 258.072 278.12 258.012 277.976 257.892C277.84 257.764 277.772 257.584 277.772 257.352V252.72C277.772 252.488 277.84 252.312 277.976 252.192C278.12 252.072 278.3 252.012 278.516 252.012C278.732 252.012 278.912 252.072 279.056 252.192C279.2 252.312 279.272 252.488 279.272 252.72V257.352C279.272 257.584 279.2 257.764 279.056 257.892C278.912 258.012 278.732 258.072 278.516 258.072ZM278.516 250.944C278.244 250.944 278.028 250.872 277.868 250.728C277.708 250.576 277.628 250.38 277.628 250.14C277.628 249.9 277.708 249.708 277.868 249.564C278.028 249.42 278.244 249.348 278.516 249.348C278.78 249.348 278.992 249.42 279.152 249.564C279.32 249.708 279.404 249.9 279.404 250.14C279.404 250.38 279.324 250.576 279.164 250.728C279.004 250.872 278.788 250.944 278.516 250.944Z" fill="#426262"/>
<path d="M263 272H319" stroke="white" stroke-width="3" stroke-linecap="round"/>
<path d="M263 279H331" stroke="white" stroke-width="3" stroke-linecap="round"/>
<path d="M246 157C246 145.954 254.954 137 266 137H432.5C443.27 137 452 145.73 452 156.5C452 167.27 443.27 176 432.5 176H246V157Z" fill="#CB563E"/>
<path d="M268.424 124.48C268.648 124.48 268.828 124.552 268.964 124.696C269.1 124.832 269.168 125.016 269.168 125.248V132.352C269.168 132.576 269.104 132.752 268.976 132.88C268.848 133.008 268.68 133.072 268.472 133.072C268.264 133.072 268.1 133.008 267.98 132.88C267.86 132.752 267.8 132.576 267.8 132.352V127.408L265.76 131.272C265.664 131.448 265.56 131.58 265.448 131.668C265.336 131.748 265.204 131.788 265.052 131.788C264.9 131.788 264.768 131.748 264.656 131.668C264.544 131.588 264.44 131.456 264.344 131.272L262.292 127.468V132.352C262.292 132.568 262.228 132.744 262.1 132.88C261.98 133.008 261.816 133.072 261.608 133.072C261.4 133.072 261.236 133.008 261.116 132.88C260.996 132.752 260.936 132.576 260.936 132.352V125.248C260.936 125.016 261 124.832 261.128 124.696C261.264 124.552 261.444 124.48 261.668 124.48C261.98 124.48 262.224 124.652 262.4 124.996L265.064 130.072L267.716 124.996C267.892 124.652 268.128 124.48 268.424 124.48ZM273.546 133.096C272.946 133.096 272.418 132.972 271.962 132.724C271.514 132.476 271.166 132.12 270.918 131.656C270.67 131.192 270.546 130.652 270.546 130.036C270.546 129.42 270.67 128.884 270.918 128.428C271.166 127.964 271.514 127.608 271.962 127.36C272.418 127.112 272.946 126.988 273.546 126.988C274.146 126.988 274.67 127.112 275.118 127.36C275.574 127.608 275.922 127.964 276.162 128.428C276.41 128.884 276.534 129.42 276.534 130.036C276.534 130.652 276.41 131.192 276.162 131.656C275.922 132.12 275.574 132.476 275.118 132.724C274.67 132.972 274.146 133.096 273.546 133.096ZM273.534 131.932C274.022 131.932 274.394 131.772 274.65 131.452C274.906 131.132 275.034 130.66 275.034 130.036C275.034 129.42 274.906 128.952 274.65 128.632C274.394 128.304 274.026 128.14 273.546 128.14C273.066 128.14 272.694 128.304 272.43 128.632C272.174 128.952 272.046 129.42 272.046 130.036C272.046 130.66 272.174 131.132 272.43 131.452C272.686 131.772 273.054 131.932 273.534 131.932ZM278.516 133.072C278.3 133.072 278.12 133.012 277.976 132.892C277.84 132.764 277.772 132.584 277.772 132.352V127.72C277.772 127.488 277.84 127.312 277.976 127.192C278.12 127.072 278.3 127.012 278.516 127.012C278.732 127.012 278.912 127.072 279.056 127.192C279.2 127.312 279.272 127.488 279.272 127.72V132.352C279.272 132.584 279.2 132.764 279.056 132.892C278.912 133.012 278.732 133.072 278.516 133.072ZM278.516 125.944C278.244 125.944 278.028 125.872 277.868 125.728C277.708 125.576 277.628 125.38 277.628 125.14C277.628 124.9 277.708 124.708 277.868 124.564C278.028 124.42 278.244 124.348 278.516 124.348C278.78 124.348 278.992 124.42 279.152 124.564C279.32 124.708 279.404 124.9 279.404 125.14C279.404 125.38 279.324 125.576 279.164 125.728C279.004 125.872 278.788 125.944 278.516 125.944Z" fill="#426262"/>
<path d="M263 150H428" stroke="white" stroke-width="3" stroke-linecap="round"/>
<path d="M263 157H403" stroke="white" stroke-width="3" stroke-linecap="round"/>
<path d="M263 164H420" stroke="white" stroke-width="3" stroke-linecap="round"/>
<path d="M566 242C566 235.925 570.925 231 577 231H619C627.284 231 634 237.716 634 246V253H577C570.925 253 566 248.075 566 242Z" fill="#71C0A0"/>
<path d="M578 242L621 242" stroke="white" stroke-width="3" stroke-linecap="round"/>
<path d="M428 203.5C428 192.73 436.73 184 447.5 184H614C625.046 184 634 192.954 634 204V223H447.5C436.73 223 428 214.27 428 203.5Z" fill="#71C0A0"/>
<path d="M539.254 170.48C539.486 170.48 539.67 170.552 539.806 170.696C539.942 170.832 540.01 171.016 540.01 171.248V178.292C540.01 178.524 539.938 178.712 539.794 178.856C539.658 179 539.478 179.072 539.254 179.072C539.022 179.072 538.838 179 538.702 178.856C538.566 178.712 538.498 178.524 538.498 178.292V175.328H534.166V178.292C534.166 178.524 534.094 178.712 533.95 178.856C533.814 179 533.63 179.072 533.398 179.072C533.174 179.072 532.99 179 532.846 178.856C532.71 178.712 532.642 178.524 532.642 178.292V171.248C532.642 171.016 532.71 170.832 532.846 170.696C532.982 170.552 533.166 170.48 533.398 170.48C533.63 170.48 533.814 170.552 533.95 170.696C534.094 170.832 534.166 171.016 534.166 171.248V174.08H538.498V171.248C538.498 171.016 538.566 170.832 538.702 170.696C538.838 170.552 539.022 170.48 539.254 170.48ZM544.374 179.096C543.774 179.096 543.246 178.972 542.79 178.724C542.342 178.476 541.994 178.12 541.746 177.656C541.498 177.192 541.374 176.652 541.374 176.036C541.374 175.42 541.498 174.884 541.746 174.428C541.994 173.964 542.342 173.608 542.79 173.36C543.246 173.112 543.774 172.988 544.374 172.988C544.974 172.988 545.498 173.112 545.946 173.36C546.402 173.608 546.75 173.964 546.99 174.428C547.238 174.884 547.362 175.42 547.362 176.036C547.362 176.652 547.238 177.192 546.99 177.656C546.75 178.12 546.402 178.476 545.946 178.724C545.498 178.972 544.974 179.096 544.374 179.096ZM544.362 177.932C544.85 177.932 545.222 177.772 545.478 177.452C545.734 177.132 545.862 176.66 545.862 176.036C545.862 175.42 545.734 174.952 545.478 174.632C545.222 174.304 544.854 174.14 544.374 174.14C543.894 174.14 543.522 174.304 543.258 174.632C543.002 174.952 542.874 175.42 542.874 176.036C542.874 176.66 543.002 177.132 543.258 177.452C543.514 177.772 543.882 177.932 544.362 177.932ZM543.522 172.172C543.41 172.34 543.27 172.424 543.102 172.424C542.974 172.424 542.858 172.376 542.754 172.28C542.658 172.184 542.61 172.072 542.61 171.944C542.61 171.84 542.646 171.736 542.718 171.632L543.774 170.204C543.87 170.084 543.962 169.996 544.05 169.94C544.138 169.884 544.246 169.856 544.374 169.856C544.51 169.856 544.622 169.884 544.71 169.94C544.798 169.996 544.886 170.088 544.974 170.216L546.03 171.632C546.102 171.728 546.138 171.832 546.138 171.944C546.138 172.072 546.086 172.184 545.982 172.28C545.886 172.376 545.774 172.424 545.646 172.424C545.478 172.424 545.338 172.34 545.226 172.172L544.374 170.852L543.522 172.172ZM551.613 177.956C552.013 177.98 552.213 178.16 552.213 178.496C552.213 178.688 552.133 178.836 551.973 178.94C551.821 179.036 551.601 179.076 551.313 179.06L550.989 179.036C549.645 178.94 548.973 178.22 548.973 176.876V174.26H548.373C548.157 174.26 547.989 174.212 547.869 174.116C547.757 174.02 547.701 173.88 547.701 173.696C547.701 173.512 547.757 173.372 547.869 173.276C547.989 173.18 548.157 173.132 548.373 173.132H548.973V172.028C548.973 171.812 549.041 171.64 549.177 171.512C549.313 171.384 549.497 171.32 549.729 171.32C549.953 171.32 550.133 171.384 550.269 171.512C550.405 171.64 550.473 171.812 550.473 172.028V173.132H551.493C551.709 173.132 551.873 173.18 551.985 173.276C552.105 173.372 552.165 173.512 552.165 173.696C552.165 173.88 552.105 174.02 551.985 174.116C551.873 174.212 551.709 174.26 551.493 174.26H550.473V176.984C550.473 177.576 550.745 177.892 551.289 177.932L551.613 177.956ZM557.639 177.392C557.775 177.392 557.883 177.444 557.963 177.548C558.051 177.652 558.095 177.792 558.095 177.968C558.095 178.216 557.947 178.424 557.651 178.592C557.379 178.744 557.071 178.868 556.727 178.964C556.383 179.052 556.055 179.096 555.743 179.096C554.799 179.096 554.051 178.824 553.499 178.28C552.947 177.736 552.671 176.992 552.671 176.048C552.671 175.448 552.791 174.916 553.031 174.452C553.271 173.988 553.607 173.628 554.039 173.372C554.479 173.116 554.975 172.988 555.527 172.988C556.055 172.988 556.515 173.104 556.907 173.336C557.299 173.568 557.603 173.896 557.819 174.32C558.035 174.744 558.143 175.244 558.143 175.82C558.143 176.164 557.991 176.336 557.687 176.336H554.147C554.195 176.888 554.351 177.296 554.615 177.56C554.879 177.816 555.263 177.944 555.767 177.944C556.023 177.944 556.247 177.912 556.439 177.848C556.639 177.784 556.863 177.696 557.111 177.584C557.351 177.456 557.527 177.392 557.639 177.392ZM555.563 174.044C555.155 174.044 554.827 174.172 554.579 174.428C554.339 174.684 554.195 175.052 554.147 175.532H556.859C556.843 175.044 556.723 174.676 556.499 174.428C556.275 174.172 555.963 174.044 555.563 174.044ZM560.114 179.072C559.898 179.072 559.718 179.012 559.574 178.892C559.438 178.764 559.37 178.584 559.37 178.352V171.188C559.37 170.956 559.438 170.78 559.574 170.66C559.718 170.54 559.898 170.48 560.114 170.48C560.33 170.48 560.51 170.54 560.654 170.66C560.798 170.78 560.87 170.956 560.87 171.188V178.352C560.87 178.584 560.798 178.764 560.654 178.892C560.51 179.012 560.33 179.072 560.114 179.072ZM570.571 170.48C570.795 170.48 570.979 170.544 571.123 170.672C571.267 170.8 571.339 170.968 571.339 171.176V178.352C571.339 178.568 571.271 178.74 571.135 178.868C570.999 178.996 570.819 179.06 570.595 179.06C570.371 179.06 570.191 178.996 570.055 178.868C569.919 178.74 569.851 178.568 569.851 178.352V178.052C569.675 178.38 569.419 178.636 569.083 178.82C568.755 179.004 568.379 179.096 567.955 179.096C567.451 179.096 566.999 178.968 566.599 178.712C566.207 178.456 565.899 178.096 565.675 177.632C565.459 177.16 565.351 176.62 565.351 176.012C565.351 175.404 565.459 174.872 565.675 174.416C565.899 173.96 566.207 173.608 566.599 173.36C566.991 173.112 567.443 172.988 567.955 172.988C568.379 172.988 568.755 173.076 569.083 173.252C569.411 173.428 569.663 173.676 569.839 173.996V171.152C569.839 170.952 569.903 170.792 570.031 170.672C570.167 170.544 570.347 170.48 570.571 170.48ZM568.351 177.932C568.831 177.932 569.199 177.768 569.455 177.44C569.719 177.112 569.851 176.644 569.851 176.036C569.851 175.428 569.719 174.964 569.455 174.644C569.199 174.316 568.835 174.152 568.363 174.152C567.883 174.152 567.511 174.312 567.247 174.632C566.983 174.952 566.851 175.412 566.851 176.012C566.851 176.62 566.983 177.092 567.247 177.428C567.511 177.764 567.879 177.932 568.351 177.932ZM577.514 173.012C577.746 173.012 577.93 173.076 578.066 173.204C578.202 173.332 578.27 173.504 578.27 173.72V178.376C578.27 178.584 578.198 178.752 578.054 178.88C577.918 179.008 577.738 179.072 577.514 179.072C577.298 179.072 577.126 179.012 576.998 178.892C576.87 178.772 576.806 178.608 576.806 178.4V178.1C576.622 178.42 576.374 178.668 576.062 178.844C575.75 179.012 575.398 179.096 575.006 179.096C573.566 179.096 572.846 178.288 572.846 176.672V173.72C572.846 173.504 572.914 173.332 573.05 173.204C573.186 173.076 573.366 173.012 573.59 173.012C573.822 173.012 574.006 173.076 574.142 173.204C574.278 173.332 574.346 173.504 574.346 173.72V176.684C574.346 177.1 574.43 177.408 574.598 177.608C574.766 177.808 575.03 177.908 575.39 177.908C575.806 177.908 576.138 177.772 576.386 177.5C576.642 177.22 576.77 176.852 576.77 176.396V173.72C576.77 173.504 576.838 173.332 576.974 173.204C577.11 173.076 577.29 173.012 577.514 173.012ZM587.001 179.108C586.185 179.108 585.469 178.932 584.853 178.58C584.245 178.228 583.777 177.724 583.449 177.068C583.121 176.412 582.957 175.644 582.957 174.764C582.957 173.884 583.121 173.12 583.449 172.472C583.777 171.816 584.245 171.312 584.853 170.96C585.469 170.608 586.185 170.432 587.001 170.432C587.529 170.432 588.025 170.512 588.489 170.672C588.953 170.824 589.365 171.048 589.725 171.344C589.829 171.424 589.901 171.508 589.941 171.596C589.981 171.684 590.001 171.792 590.001 171.92C590.001 172.096 589.953 172.244 589.857 172.364C589.761 172.484 589.645 172.544 589.509 172.544C589.349 172.544 589.185 172.488 589.017 172.376C588.673 172.12 588.353 171.944 588.057 171.848C587.761 171.744 587.433 171.692 587.073 171.692C586.241 171.692 585.609 171.952 585.177 172.472C584.753 172.992 584.541 173.756 584.541 174.764C584.541 175.78 584.753 176.548 585.177 177.068C585.609 177.588 586.241 177.848 587.073 177.848C587.417 177.848 587.733 177.796 588.021 177.692C588.317 177.588 588.649 177.412 589.017 177.164C589.097 177.116 589.177 177.076 589.257 177.044C589.337 177.012 589.421 176.996 589.509 176.996C589.645 176.996 589.761 177.056 589.857 177.176C589.953 177.296 590.001 177.444 590.001 177.62C590.001 177.74 589.981 177.848 589.941 177.944C589.901 178.032 589.829 178.116 589.725 178.196C589.365 178.492 588.953 178.72 588.489 178.88C588.025 179.032 587.529 179.108 587.001 179.108ZM595.748 177.392C595.884 177.392 595.992 177.444 596.072 177.548C596.16 177.652 596.204 177.792 596.204 177.968C596.204 178.216 596.056 178.424 595.76 178.592C595.488 178.744 595.18 178.868 594.836 178.964C594.492 179.052 594.164 179.096 593.852 179.096C592.908 179.096 592.16 178.824 591.608 178.28C591.056 177.736 590.78 176.992 590.78 176.048C590.78 175.448 590.9 174.916 591.14 174.452C591.38 173.988 591.716 173.628 592.148 173.372C592.588 173.116 593.084 172.988 593.636 172.988C594.164 172.988 594.624 173.104 595.016 173.336C595.408 173.568 595.712 173.896 595.928 174.32C596.144 174.744 596.252 175.244 596.252 175.82C596.252 176.164 596.1 176.336 595.796 176.336H592.256C592.304 176.888 592.46 177.296 592.724 177.56C592.988 177.816 593.372 177.944 593.876 177.944C594.132 177.944 594.356 177.912 594.548 177.848C594.748 177.784 594.972 177.696 595.22 177.584C595.46 177.456 595.636 177.392 595.748 177.392ZM593.672 174.044C593.264 174.044 592.936 174.172 592.688 174.428C592.448 174.684 592.304 175.052 592.256 175.532H594.968C594.952 175.044 594.832 174.676 594.608 174.428C594.384 174.172 594.072 174.044 593.672 174.044ZM600.887 172.988C601.591 172.988 602.115 173.188 602.459 173.588C602.803 173.988 602.975 174.592 602.975 175.4V178.352C602.975 178.576 602.907 178.752 602.771 178.88C602.643 179.008 602.463 179.072 602.231 179.072C601.999 179.072 601.815 179.008 601.679 178.88C601.543 178.752 601.475 178.576 601.475 178.352V175.484C601.475 175.028 601.387 174.696 601.211 174.488C601.043 174.28 600.775 174.176 600.407 174.176C599.975 174.176 599.627 174.312 599.363 174.584C599.107 174.856 598.979 175.22 598.979 175.676V178.352C598.979 178.576 598.911 178.752 598.775 178.88C598.639 179.008 598.455 179.072 598.223 179.072C597.991 179.072 597.807 179.008 597.671 178.88C597.543 178.752 597.479 178.576 597.479 178.352V173.708C597.479 173.5 597.547 173.332 597.683 173.204C597.819 173.076 598.003 173.012 598.235 173.012C598.443 173.012 598.611 173.076 598.739 173.204C598.875 173.324 598.943 173.484 598.943 173.684V174.008C599.143 173.68 599.411 173.428 599.747 173.252C600.083 173.076 600.463 172.988 600.887 172.988ZM607.547 177.956C607.947 177.98 608.147 178.16 608.147 178.496C608.147 178.688 608.067 178.836 607.907 178.94C607.755 179.036 607.535 179.076 607.247 179.06L606.923 179.036C605.579 178.94 604.907 178.22 604.907 176.876V174.26H604.307C604.091 174.26 603.923 174.212 603.803 174.116C603.691 174.02 603.635 173.88 603.635 173.696C603.635 173.512 603.691 173.372 603.803 173.276C603.923 173.18 604.091 173.132 604.307 173.132H604.907V172.028C604.907 171.812 604.975 171.64 605.111 171.512C605.247 171.384 605.431 171.32 605.663 171.32C605.887 171.32 606.067 171.384 606.203 171.512C606.339 171.64 606.407 171.812 606.407 172.028V173.132H607.427C607.643 173.132 607.807 173.18 607.919 173.276C608.039 173.372 608.099 173.512 608.099 173.696C608.099 173.88 608.039 174.02 607.919 174.116C607.807 174.212 607.643 174.26 607.427 174.26H606.407V176.984C606.407 177.576 606.679 177.892 607.223 177.932L607.547 177.956ZM612.204 173.012C612.412 172.996 612.576 173.04 612.696 173.144C612.816 173.248 612.876 173.404 612.876 173.612C612.876 173.828 612.824 173.988 612.72 174.092C612.616 174.196 612.428 174.264 612.156 174.296L611.796 174.332C611.324 174.38 610.976 174.54 610.752 174.812C610.536 175.084 610.428 175.424 610.428 175.832V178.352C610.428 178.584 610.356 178.764 610.212 178.892C610.068 179.012 609.888 179.072 609.672 179.072C609.456 179.072 609.276 179.012 609.132 178.892C608.996 178.764 608.928 178.584 608.928 178.352V173.708C608.928 173.484 608.996 173.312 609.132 173.192C609.276 173.072 609.452 173.012 609.66 173.012C609.868 173.012 610.036 173.072 610.164 173.192C610.292 173.304 610.356 173.468 610.356 173.684V174.164C610.508 173.812 610.732 173.54 611.028 173.348C611.332 173.156 611.668 173.048 612.036 173.024L612.204 173.012ZM618.049 177.392C618.185 177.392 618.293 177.444 618.373 177.548C618.461 177.652 618.505 177.792 618.505 177.968C618.505 178.216 618.357 178.424 618.061 178.592C617.789 178.744 617.481 178.868 617.137 178.964C616.793 179.052 616.465 179.096 616.153 179.096C615.209 179.096 614.461 178.824 613.909 178.28C613.357 177.736 613.081 176.992 613.081 176.048C613.081 175.448 613.201 174.916 613.441 174.452C613.681 173.988 614.017 173.628 614.449 173.372C614.889 173.116 615.385 172.988 615.937 172.988C616.465 172.988 616.925 173.104 617.317 173.336C617.709 173.568 618.013 173.896 618.229 174.32C618.445 174.744 618.553 175.244 618.553 175.82C618.553 176.164 618.401 176.336 618.097 176.336H614.557C614.605 176.888 614.761 177.296 615.025 177.56C615.289 177.816 615.673 177.944 616.177 177.944C616.433 177.944 616.657 177.912 616.849 177.848C617.049 177.784 617.273 177.696 617.521 177.584C617.761 177.456 617.937 177.392 618.049 177.392ZM615.973 174.044C615.565 174.044 615.237 174.172 614.989 174.428C614.749 174.684 614.605 175.052 614.557 175.532H617.269C617.253 175.044 617.133 174.676 616.909 174.428C616.685 174.172 616.373 174.044 615.973 174.044Z" fill="#426262"/>
<path d="M448 197H596" stroke="white" stroke-width="3" stroke-linecap="round"/>
<path d="M448 204H619" stroke="white" stroke-width="3" stroke-linecap="round"/>
<path d="M448 211H605" stroke="white" stroke-width="3" stroke-linecap="round"/>
<path d="M473 316.5C473 305.73 481.73 297 492.5 297H614C625.046 297 634 305.954 634 317V336H492.5C481.73 336 473 327.27 473 316.5Z" fill="#71C0A0"/>
<path d="M539.254 283.48C539.486 283.48 539.67 283.552 539.806 283.696C539.942 283.832 540.01 284.016 540.01 284.248V291.292C540.01 291.524 539.938 291.712 539.794 291.856C539.658 292 539.478 292.072 539.254 292.072C539.022 292.072 538.838 292 538.702 291.856C538.566 291.712 538.498 291.524 538.498 291.292V288.328H534.166V291.292C534.166 291.524 534.094 291.712 533.95 291.856C533.814 292 533.63 292.072 533.398 292.072C533.174 292.072 532.99 292 532.846 291.856C532.71 291.712 532.642 291.524 532.642 291.292V284.248C532.642 284.016 532.71 283.832 532.846 283.696C532.982 283.552 533.166 283.48 533.398 283.48C533.63 283.48 533.814 283.552 533.95 283.696C534.094 283.832 534.166 284.016 534.166 284.248V287.08H538.498V284.248C538.498 284.016 538.566 283.832 538.702 283.696C538.838 283.552 539.022 283.48 539.254 283.48ZM544.374 292.096C543.774 292.096 543.246 291.972 542.79 291.724C542.342 291.476 541.994 291.12 541.746 290.656C541.498 290.192 541.374 289.652 541.374 289.036C541.374 288.42 541.498 287.884 541.746 287.428C541.994 286.964 542.342 286.608 542.79 286.36C543.246 286.112 543.774 285.988 544.374 285.988C544.974 285.988 545.498 286.112 545.946 286.36C546.402 286.608 546.75 286.964 546.99 287.428C547.238 287.884 547.362 288.42 547.362 289.036C547.362 289.652 547.238 290.192 546.99 290.656C546.75 291.12 546.402 291.476 545.946 291.724C545.498 291.972 544.974 292.096 544.374 292.096ZM544.362 290.932C544.85 290.932 545.222 290.772 545.478 290.452C545.734 290.132 545.862 289.66 545.862 289.036C545.862 288.42 545.734 287.952 545.478 287.632C545.222 287.304 544.854 287.14 544.374 287.14C543.894 287.14 543.522 287.304 543.258 287.632C543.002 287.952 542.874 288.42 542.874 289.036C542.874 289.66 543.002 290.132 543.258 290.452C543.514 290.772 543.882 290.932 544.362 290.932ZM543.522 285.172C543.41 285.34 543.27 285.424 543.102 285.424C542.974 285.424 542.858 285.376 542.754 285.28C542.658 285.184 542.61 285.072 542.61 284.944C542.61 284.84 542.646 284.736 542.718 284.632L543.774 283.204C543.87 283.084 543.962 282.996 544.05 282.94C544.138 282.884 544.246 282.856 544.374 282.856C544.51 282.856 544.622 282.884 544.71 282.94C544.798 282.996 544.886 283.088 544.974 283.216L546.03 284.632C546.102 284.728 546.138 284.832 546.138 284.944C546.138 285.072 546.086 285.184 545.982 285.28C545.886 285.376 545.774 285.424 545.646 285.424C545.478 285.424 545.338 285.34 545.226 285.172L544.374 283.852L543.522 285.172ZM551.613 290.956C552.013 290.98 552.213 291.16 552.213 291.496C552.213 291.688 552.133 291.836 551.973 291.94C551.821 292.036 551.601 292.076 551.313 292.06L550.989 292.036C549.645 291.94 548.973 291.22 548.973 289.876V287.26H548.373C548.157 287.26 547.989 287.212 547.869 287.116C547.757 287.02 547.701 286.88 547.701 286.696C547.701 286.512 547.757 286.372 547.869 286.276C547.989 286.18 548.157 286.132 548.373 286.132H548.973V285.028C548.973 284.812 549.041 284.64 549.177 284.512C549.313 284.384 549.497 284.32 549.729 284.32C549.953 284.32 550.133 284.384 550.269 284.512C550.405 284.64 550.473 284.812 550.473 285.028V286.132H551.493C551.709 286.132 551.873 286.18 551.985 286.276C552.105 286.372 552.165 286.512 552.165 286.696C552.165 286.88 552.105 287.02 551.985 287.116C551.873 287.212 551.709 287.26 551.493 287.26H550.473V289.984C550.473 290.576 550.745 290.892 551.289 290.932L551.613 290.956ZM557.639 290.392C557.775 290.392 557.883 290.444 557.963 290.548C558.051 290.652 558.095 290.792 558.095 290.968C558.095 291.216 557.947 291.424 557.651 291.592C557.379 291.744 557.071 291.868 556.727 291.964C556.383 292.052 556.055 292.096 555.743 292.096C554.799 292.096 554.051 291.824 553.499 291.28C552.947 290.736 552.671 289.992 552.671 289.048C552.671 288.448 552.791 287.916 553.031 287.452C553.271 286.988 553.607 286.628 554.039 286.372C554.479 286.116 554.975 285.988 555.527 285.988C556.055 285.988 556.515 286.104 556.907 286.336C557.299 286.568 557.603 286.896 557.819 287.32C558.035 287.744 558.143 288.244 558.143 288.82C558.143 289.164 557.991 289.336 557.687 289.336H554.147C554.195 289.888 554.351 290.296 554.615 290.56C554.879 290.816 555.263 290.944 555.767 290.944C556.023 290.944 556.247 290.912 556.439 290.848C556.639 290.784 556.863 290.696 557.111 290.584C557.351 290.456 557.527 290.392 557.639 290.392ZM555.563 287.044C555.155 287.044 554.827 287.172 554.579 287.428C554.339 287.684 554.195 288.052 554.147 288.532H556.859C556.843 288.044 556.723 287.676 556.499 287.428C556.275 287.172 555.963 287.044 555.563 287.044ZM560.114 292.072C559.898 292.072 559.718 292.012 559.574 291.892C559.438 291.764 559.37 291.584 559.37 291.352V284.188C559.37 283.956 559.438 283.78 559.574 283.66C559.718 283.54 559.898 283.48 560.114 283.48C560.33 283.48 560.51 283.54 560.654 283.66C560.798 283.78 560.87 283.956 560.87 284.188V291.352C560.87 291.584 560.798 291.764 560.654 291.892C560.51 292.012 560.33 292.072 560.114 292.072ZM570.571 283.48C570.795 283.48 570.979 283.544 571.123 283.672C571.267 283.8 571.339 283.968 571.339 284.176V291.352C571.339 291.568 571.271 291.74 571.135 291.868C570.999 291.996 570.819 292.06 570.595 292.06C570.371 292.06 570.191 291.996 570.055 291.868C569.919 291.74 569.851 291.568 569.851 291.352V291.052C569.675 291.38 569.419 291.636 569.083 291.82C568.755 292.004 568.379 292.096 567.955 292.096C567.451 292.096 566.999 291.968 566.599 291.712C566.207 291.456 565.899 291.096 565.675 290.632C565.459 290.16 565.351 289.62 565.351 289.012C565.351 288.404 565.459 287.872 565.675 287.416C565.899 286.96 566.207 286.608 566.599 286.36C566.991 286.112 567.443 285.988 567.955 285.988C568.379 285.988 568.755 286.076 569.083 286.252C569.411 286.428 569.663 286.676 569.839 286.996V284.152C569.839 283.952 569.903 283.792 570.031 283.672C570.167 283.544 570.347 283.48 570.571 283.48ZM568.351 290.932C568.831 290.932 569.199 290.768 569.455 290.44C569.719 290.112 569.851 289.644 569.851 289.036C569.851 288.428 569.719 287.964 569.455 287.644C569.199 287.316 568.835 287.152 568.363 287.152C567.883 287.152 567.511 287.312 567.247 287.632C566.983 287.952 566.851 288.412 566.851 289.012C566.851 289.62 566.983 290.092 567.247 290.428C567.511 290.764 567.879 290.932 568.351 290.932ZM577.514 286.012C577.746 286.012 577.93 286.076 578.066 286.204C578.202 286.332 578.27 286.504 578.27 286.72V291.376C578.27 291.584 578.198 291.752 578.054 291.88C577.918 292.008 577.738 292.072 577.514 292.072C577.298 292.072 577.126 292.012 576.998 291.892C576.87 291.772 576.806 291.608 576.806 291.4V291.1C576.622 291.42 576.374 291.668 576.062 291.844C575.75 292.012 575.398 292.096 575.006 292.096C573.566 292.096 572.846 291.288 572.846 289.672V286.72C572.846 286.504 572.914 286.332 573.05 286.204C573.186 286.076 573.366 286.012 573.59 286.012C573.822 286.012 574.006 286.076 574.142 286.204C574.278 286.332 574.346 286.504 574.346 286.72V289.684C574.346 290.1 574.43 290.408 574.598 290.608C574.766 290.808 575.03 290.908 575.39 290.908C575.806 290.908 576.138 290.772 576.386 290.5C576.642 290.22 576.77 289.852 576.77 289.396V286.72C576.77 286.504 576.838 286.332 576.974 286.204C577.11 286.076 577.29 286.012 577.514 286.012ZM587.001 292.108C586.185 292.108 585.469 291.932 584.853 291.58C584.245 291.228 583.777 290.724 583.449 290.068C583.121 289.412 582.957 288.644 582.957 287.764C582.957 286.884 583.121 286.12 583.449 285.472C583.777 284.816 584.245 284.312 584.853 283.96C585.469 283.608 586.185 283.432 587.001 283.432C587.529 283.432 588.025 283.512 588.489 283.672C588.953 283.824 589.365 284.048 589.725 284.344C589.829 284.424 589.901 284.508 589.941 284.596C589.981 284.684 590.001 284.792 590.001 284.92C590.001 285.096 589.953 285.244 589.857 285.364C589.761 285.484 589.645 285.544 589.509 285.544C589.349 285.544 589.185 285.488 589.017 285.376C588.673 285.12 588.353 284.944 588.057 284.848C587.761 284.744 587.433 284.692 587.073 284.692C586.241 284.692 585.609 284.952 585.177 285.472C584.753 285.992 584.541 286.756 584.541 287.764C584.541 288.78 584.753 289.548 585.177 290.068C585.609 290.588 586.241 290.848 587.073 290.848C587.417 290.848 587.733 290.796 588.021 290.692C588.317 290.588 588.649 290.412 589.017 290.164C589.097 290.116 589.177 290.076 589.257 290.044C589.337 290.012 589.421 289.996 589.509 289.996C589.645 289.996 589.761 290.056 589.857 290.176C589.953 290.296 590.001 290.444 590.001 290.62C590.001 290.74 589.981 290.848 589.941 290.944C589.901 291.032 589.829 291.116 589.725 291.196C589.365 291.492 588.953 291.72 588.489 291.88C588.025 292.032 587.529 292.108 587.001 292.108ZM595.748 290.392C595.884 290.392 595.992 290.444 596.072 290.548C596.16 290.652 596.204 290.792 596.204 290.968C596.204 291.216 596.056 291.424 595.76 291.592C595.488 291.744 595.18 291.868 594.836 291.964C594.492 292.052 594.164 292.096 593.852 292.096C592.908 292.096 592.16 291.824 591.608 291.28C591.056 290.736 590.78 289.992 590.78 289.048C590.78 288.448 590.9 287.916 591.14 287.452C591.38 286.988 591.716 286.628 592.148 286.372C592.588 286.116 593.084 285.988 593.636 285.988C594.164 285.988 594.624 286.104 595.016 286.336C595.408 286.568 595.712 286.896 595.928 287.32C596.144 287.744 596.252 288.244 596.252 288.82C596.252 289.164 596.1 289.336 595.796 289.336H592.256C592.304 289.888 592.46 290.296 592.724 290.56C592.988 290.816 593.372 290.944 593.876 290.944C594.132 290.944 594.356 290.912 594.548 290.848C594.748 290.784 594.972 290.696 595.22 290.584C595.46 290.456 595.636 290.392 595.748 290.392ZM593.672 287.044C593.264 287.044 592.936 287.172 592.688 287.428C592.448 287.684 592.304 288.052 592.256 288.532H594.968C594.952 288.044 594.832 287.676 594.608 287.428C594.384 287.172 594.072 287.044 593.672 287.044ZM600.887 285.988C601.591 285.988 602.115 286.188 602.459 286.588C602.803 286.988 602.975 287.592 602.975 288.4V291.352C602.975 291.576 602.907 291.752 602.771 291.88C602.643 292.008 602.463 292.072 602.231 292.072C601.999 292.072 601.815 292.008 601.679 291.88C601.543 291.752 601.475 291.576 601.475 291.352V288.484C601.475 288.028 601.387 287.696 601.211 287.488C601.043 287.28 600.775 287.176 600.407 287.176C599.975 287.176 599.627 287.312 599.363 287.584C599.107 287.856 598.979 288.22 598.979 288.676V291.352C598.979 291.576 598.911 291.752 598.775 291.88C598.639 292.008 598.455 292.072 598.223 292.072C597.991 292.072 597.807 292.008 597.671 291.88C597.543 291.752 597.479 291.576 597.479 291.352V286.708C597.479 286.5 597.547 286.332 597.683 286.204C597.819 286.076 598.003 286.012 598.235 286.012C598.443 286.012 598.611 286.076 598.739 286.204C598.875 286.324 598.943 286.484 598.943 286.684V287.008C599.143 286.68 599.411 286.428 599.747 286.252C600.083 286.076 600.463 285.988 600.887 285.988ZM607.547 290.956C607.947 290.98 608.147 291.16 608.147 291.496C608.147 291.688 608.067 291.836 607.907 291.94C607.755 292.036 607.535 292.076 607.247 292.06L606.923 292.036C605.579 291.94 604.907 291.22 604.907 289.876V287.26H604.307C604.091 287.26 603.923 287.212 603.803 287.116C603.691 287.02 603.635 286.88 603.635 286.696C603.635 286.512 603.691 286.372 603.803 286.276C603.923 286.18 604.091 286.132 604.307 286.132H604.907V285.028C604.907 284.812 604.975 284.64 605.111 284.512C605.247 284.384 605.431 284.32 605.663 284.32C605.887 284.32 606.067 284.384 606.203 284.512C606.339 284.64 606.407 284.812 606.407 285.028V286.132H607.427C607.643 286.132 607.807 286.18 607.919 286.276C608.039 286.372 608.099 286.512 608.099 286.696C608.099 286.88 608.039 287.02 607.919 287.116C607.807 287.212 607.643 287.26 607.427 287.26H606.407V289.984C606.407 290.576 606.679 290.892 607.223 290.932L607.547 290.956ZM612.204 286.012C612.412 285.996 612.576 286.04 612.696 286.144C612.816 286.248 612.876 286.404 612.876 286.612C612.876 286.828 612.824 286.988 612.72 287.092C612.616 287.196 612.428 287.264 612.156 287.296L611.796 287.332C611.324 287.38 610.976 287.54 610.752 287.812C610.536 288.084 610.428 288.424 610.428 288.832V291.352C610.428 291.584 610.356 291.764 610.212 291.892C610.068 292.012 609.888 292.072 609.672 292.072C609.456 292.072 609.276 292.012 609.132 291.892C608.996 291.764 608.928 291.584 608.928 291.352V286.708C608.928 286.484 608.996 286.312 609.132 286.192C609.276 286.072 609.452 286.012 609.66 286.012C609.868 286.012 610.036 286.072 610.164 286.192C610.292 286.304 610.356 286.468 610.356 286.684V287.164C610.508 286.812 610.732 286.54 611.028 286.348C611.332 286.156 611.668 286.048 612.036 286.024L612.204 286.012ZM618.049 290.392C618.185 290.392 618.293 290.444 618.373 290.548C618.461 290.652 618.505 290.792 618.505 290.968C618.505 291.216 618.357 291.424 618.061 291.592C617.789 291.744 617.481 291.868 617.137 291.964C616.793 292.052 616.465 292.096 616.153 292.096C615.209 292.096 614.461 291.824 613.909 291.28C613.357 290.736 613.081 289.992 613.081 289.048C613.081 288.448 613.201 287.916 613.441 287.452C613.681 286.988 614.017 286.628 614.449 286.372C614.889 286.116 615.385 285.988 615.937 285.988C616.465 285.988 616.925 286.104 617.317 286.336C617.709 286.568 618.013 286.896 618.229 287.32C618.445 287.744 618.553 288.244 618.553 288.82C618.553 289.164 618.401 289.336 618.097 289.336H614.557C614.605 289.888 614.761 290.296 615.025 290.56C615.289 290.816 615.673 290.944 616.177 290.944C616.433 290.944 616.657 290.912 616.849 290.848C617.049 290.784 617.273 290.696 617.521 290.584C617.761 290.456 617.937 290.392 618.049 290.392ZM615.973 287.044C615.565 287.044 615.237 287.172 614.989 287.428C614.749 287.684 614.605 288.052 614.557 288.532H617.269C617.253 288.044 617.133 287.676 616.909 287.428C616.685 287.172 616.373 287.044 615.973 287.044Z" fill="#426262"/>
<path d="M490 310H616" stroke="white" stroke-width="3" stroke-linecap="round"/>
<path d="M490 317H605" stroke="white" stroke-width="3" stroke-linecap="round"/>
<path d="M490 324H612" stroke="white" stroke-width="3" stroke-linecap="round"/>
</svg>
