<svg width="755" height="496" viewBox="0 0 755 496" fill="none" xmlns="http://www.w3.org/2000/svg">
<path d="M733.923 494.184H21.0765C10.4171 494.184 1.81689 485.465 1.81689 474.93V21.0703C1.81689 10.4141 10.5382 1.81641 21.0765 1.81641H733.923C744.583 1.81641 753.183 10.5352 753.183 21.0703V474.93C753.183 485.586 744.462 494.184 733.923 494.184Z" fill="white" stroke="#426262" stroke-width="3" stroke-miterlimit="10"/>
<path d="M36.9444 52.7969C40.7576 52.7969 43.8488 49.7066 43.8488 45.8945C43.8488 42.0825 40.7576 38.9922 36.9444 38.9922C33.1312 38.9922 30.04 42.0825 30.04 45.8945C30.04 49.7066 33.1312 52.7969 36.9444 52.7969Z" fill="white"/>
<path d="M69.8917 52.7969C73.7049 52.7969 76.7961 49.7066 76.7961 45.8945C76.7961 42.0825 73.7049 38.9922 69.8917 38.9922C66.0785 38.9922 62.9873 42.0825 62.9873 45.8945C62.9873 49.7066 66.0785 52.7969 69.8917 52.7969Z" fill="white"/>
<path d="M102.96 52.7969C106.773 52.7969 109.864 49.7066 109.864 45.8945C109.864 42.0825 106.773 38.9922 102.96 38.9922C99.1469 38.9922 96.0557 42.0825 96.0557 45.8945C96.0557 49.7066 99.1469 52.7969 102.96 52.7969Z" fill="white"/>
<path d="M133.727 121.094H46.0291C42.7586 121.094 40.2148 118.43 40.2148 115.281V89.6094C40.2148 86.3398 42.8797 83.7969 46.0291 83.7969H133.606C136.876 83.7969 139.42 86.4609 139.42 89.6094V115.281C139.541 118.551 136.997 121.094 133.727 121.094Z" fill="#71C0A0"/>
<path d="M231.357 109.711H158.195C157.226 109.711 156.378 108.863 156.378 107.895V100.145C156.378 99.1758 157.226 98.3281 158.195 98.3281H231.357C232.326 98.3281 233.174 99.1758 233.174 100.145V107.895C233.174 108.984 232.447 109.711 231.357 109.711Z" fill="#5A8D8C"/>
<path d="M342.312 109.711H269.15C268.181 109.711 267.333 108.863 267.333 107.895V100.145C267.333 99.1758 268.181 98.3281 269.15 98.3281H342.312C343.281 98.3281 344.129 99.1758 344.129 100.145V107.895C344.129 108.984 343.281 109.711 342.312 109.711Z" fill="#5A8D8C"/>
<path d="M453.145 109.711H379.983C379.014 109.711 378.166 108.863 378.166 107.895V100.145C378.166 99.1758 379.014 98.3281 379.983 98.3281H453.145C454.114 98.3281 454.962 99.1758 454.962 100.145V107.895C454.962 108.984 454.114 109.711 453.145 109.711Z" fill="#5A8D8C"/>
<path d="M564.1 109.711H490.938C489.969 109.711 489.121 108.863 489.121 107.895V100.145C489.121 99.1758 489.969 98.3281 490.938 98.3281H564.1C565.069 98.3281 565.917 99.1758 565.917 100.145V107.895C565.796 108.984 565.069 109.711 564.1 109.711Z" fill="#5A8D8C"/>
<path d="M648.285 116.977H715.633C718.056 116.977 719.994 115.039 719.994 112.617V93.7266C719.994 91.3047 718.056 89.3672 715.633 89.3672H648.285C645.862 89.3672 643.924 91.3047 643.924 93.7266V112.617C643.924 115.039 645.862 116.977 648.285 116.977Z" fill="#5A8D8C"/>
<path d="M204.224 438.676H46.5139C45.1616 438.676 44.0166 437.531 44.0166 436.18V146.402C44.0166 145.052 45.1616 143.906 46.5139 143.906H204.224C205.577 143.906 206.722 145.051 206.722 146.402V436.18C206.722 437.531 205.577 438.676 204.224 438.676Z" fill="white" stroke="#5A8D8C" stroke-width="3"/>
<path d="M710.546 438.676H236.929C235.577 438.676 234.432 437.531 234.432 436.18V146.402C234.432 145.052 235.577 143.906 236.929 143.906H710.546C711.898 143.906 713.043 145.052 713.043 146.402V436.18C713.043 437.531 711.898 438.676 710.546 438.676Z" fill="white" stroke="#5A8D8C" stroke-width="3"/>
<path d="M269.513 390.406H635.324C640.654 390.406 645.014 394.766 645.014 400.094V420.074C645.014 425.402 640.654 429.762 635.324 429.762H269.513C264.183 429.762 259.823 425.402 259.823 420.074V400.094C259.823 394.766 264.183 390.406 269.513 390.406Z" fill="#71C0A0"/>
<path d="M695.162 427.945H664.517C659.187 427.945 654.826 423.586 654.826 418.258V400.699C654.826 395.371 659.187 391.012 664.517 391.012H695.162C700.492 391.012 704.853 395.371 704.853 400.699V418.258C704.853 423.586 700.492 427.945 695.162 427.945Z" fill="#456A6F"/>
<path d="M621.516 158.875H258.733C252.555 158.875 247.589 163.84 247.589 170.016V187.09C247.589 193.266 252.555 198.23 258.733 198.23C259.823 198.23 260.55 199.32 260.065 200.289L256.068 209.25C255.462 210.582 256.916 211.793 258.127 211.187L281.626 198.352C281.869 198.23 282.111 198.23 282.353 198.23H621.637C627.814 198.23 632.781 193.266 632.781 187.09V170.016C632.66 163.84 627.693 158.875 621.516 158.875Z" fill="#D94D34"/>
<path d="M292.77 166.746H482.459" stroke="white" stroke-width="3" stroke-miterlimit="10" stroke-linecap="round" stroke-linejoin="round"/>
<path d="M292.77 178.129H554.773" stroke="white" stroke-width="3" stroke-miterlimit="10" stroke-linecap="round" stroke-linejoin="round"/>
<path d="M292.77 189.633H570.156" stroke="white" stroke-width="3" stroke-miterlimit="10" stroke-linecap="round" stroke-linejoin="round"/>
<path d="M331.41 228.504H694.314C700.492 228.504 705.458 233.469 705.458 239.645V256.719C705.458 262.895 700.492 267.859 694.314 267.859C693.224 267.859 692.497 268.949 692.981 269.918L696.979 278.879C697.584 280.211 696.131 281.422 694.92 280.816L671.42 267.98C671.178 267.859 670.936 267.859 670.694 267.859H331.41C325.232 267.859 320.266 262.895 320.266 256.719V239.766C320.266 233.59 325.232 228.504 331.41 228.504Z" fill="#5A8D8C"/>
<path d="M648.042 236.496H458.354" stroke="white" stroke-width="3" stroke-miterlimit="10" stroke-linecap="round" stroke-linejoin="round"/>
<path d="M648.042 247.879H386.039" stroke="white" stroke-width="3" stroke-miterlimit="10" stroke-linecap="round" stroke-linejoin="round"/>
<path d="M648.042 259.262H370.656" stroke="white" stroke-width="3" stroke-miterlimit="10" stroke-linecap="round" stroke-linejoin="round"/>
<path d="M621.516 298.254H258.733C252.555 298.254 247.589 303.219 247.589 309.395V326.469C247.589 332.645 252.555 337.609 258.733 337.609C259.823 337.609 260.55 338.699 260.065 339.668L256.068 348.629C255.462 349.961 256.916 351.172 258.127 350.566L281.626 337.73C281.869 337.609 282.111 337.609 282.353 337.609H621.637C627.814 337.609 632.781 332.645 632.781 326.469V309.395C632.66 303.219 627.693 298.254 621.516 298.254Z" fill="#D94D34"/>
<path d="M292.77 306.125H482.459" stroke="white" stroke-width="3" stroke-miterlimit="10" stroke-linecap="round" stroke-linejoin="round"/>
<path d="M292.77 317.508H554.773" stroke="white" stroke-width="3" stroke-miterlimit="10" stroke-linecap="round" stroke-linejoin="round"/>
<path d="M292.77 328.891H570.156" stroke="white" stroke-width="3" stroke-miterlimit="10" stroke-linecap="round" stroke-linejoin="round"/>
<path d="M182.3 429.156H62.745C57.4153 429.156 53.0547 424.797 53.0547 419.469V399.973C53.0547 394.645 57.4153 390.285 62.745 390.285H182.3C187.63 390.285 191.99 394.645 191.99 399.973V419.469C191.99 424.797 187.63 429.156 182.3 429.156Z" fill="#5A8D8C"/>
<path d="M75.8271 212.187C88.6046 212.187 98.9629 201.832 98.9629 189.059C98.9629 176.285 88.6046 165.93 75.8271 165.93C63.0496 165.93 52.6914 176.285 52.6914 189.059C52.6914 201.832 63.0496 212.187 75.8271 212.187Z" fill="#71C0A0"/>
<path d="M116.769 173.68H187.024C192.111 173.68 196.23 177.797 196.23 182.883V195.234C196.23 200.32 192.111 204.437 187.024 204.437H116.769C111.681 204.437 107.563 200.32 107.563 195.234V182.883C107.563 177.797 111.681 173.68 116.769 173.68Z" fill="#71C0A0"/>
<path d="M75.8271 286.922C88.6046 286.922 98.9629 276.567 98.9629 263.793C98.9629 251.019 88.6046 240.664 75.8271 240.664C63.0496 240.664 52.6914 251.019 52.6914 263.793C52.6914 276.567 63.0496 286.922 75.8271 286.922Z" fill="#5A8D8C"/>
<path d="M116.769 248.414H187.024C192.111 248.414 196.23 252.531 196.23 257.617V269.969C196.23 275.055 192.111 279.172 187.024 279.172H116.769C111.681 279.172 107.563 275.055 107.563 269.969V257.617C107.563 252.531 111.681 248.414 116.769 248.414Z" fill="#5A8D8C"/>
<path d="M75.8271 361.539C88.6046 361.539 98.9629 351.184 98.9629 338.41C98.9629 325.636 88.6046 315.281 75.8271 315.281C63.0496 315.281 52.6914 325.636 52.6914 338.41C52.6914 351.184 63.0496 361.539 75.8271 361.539Z" fill="#71C0A0"/>
<path d="M116.769 323.031H187.024C192.111 323.031 196.23 327.148 196.23 332.234V344.586C196.23 349.672 192.111 353.789 187.024 353.789H116.769C111.681 353.789 107.563 349.672 107.563 344.586V332.234C107.563 327.148 111.681 323.031 116.769 323.031Z" fill="#71C0A0"/>
</svg>
