<svg width="683" height="459" viewBox="0 0 683 459" fill="none" xmlns="http://www.w3.org/2000/svg">
<rect x="1" y="1" width="681" height="457" rx="19" fill="white" stroke="#5A8D8C" stroke-width="2"/>
<circle cx="21" cy="19" r="5" fill="#CB563E"/>
<circle cx="37" cy="19" r="5" fill="#FDE8D5"/>
<circle cx="54" cy="19" r="5" fill="#71C0A0"/>
<path d="M1 34H682" stroke="#5A8D8C" stroke-width="2"/>
<path d="M33.6641 48.4644L33.0123 45.9471L35.3369 46.2509L34.2289 48.204C35.3369 48.5078 36.2928 49.2022 36.9662 50.1137L37.9004 48.4644L38.6608 47.119C39.0735 46.3377 38.7911 45.3395 38.009 44.9055C37.2052 44.4498 36.2059 44.7319 35.7497 45.5348L35.7279 45.5782L32.643 45.0791C32.6213 45.0791 32.5778 45.0574 32.5344 45.0574C32.4909 45.0574 32.4475 45.0574 32.404 45.0791C32.2302 45.1442 32.1651 45.3395 32.2302 45.5131L32.9037 48.3993C32.882 48.3993 32.8603 48.3993 32.8385 48.3993C30.2316 48.3993 28.1025 50.526 28.1025 53.1301C28.1025 55.7342 30.2316 57.8608 32.8385 57.8608C35.4455 57.8608 37.5745 55.7342 37.5745 53.1301C37.5745 50.7864 35.88 48.855 33.6641 48.4644ZM32.8385 56.5805C30.9268 56.5805 29.3843 55.0397 29.3843 53.1301C29.3843 51.2204 30.9268 49.6796 32.8385 49.6796C34.7503 49.6796 36.2928 51.2204 36.2928 53.1301C36.2928 55.0397 34.7503 56.5805 32.8385 56.5805Z" fill="#426262"/>
<path d="M39.1171 44.6023C40.1165 44.6023 40.9203 43.7994 40.9203 42.8012C40.9203 41.8029 40.1165 41 39.1171 41C38.1178 41 37.314 41.8029 37.314 42.8012C37.314 43.7994 38.1178 44.6023 39.1171 44.6023Z" fill="#426262"/>
<path d="M21.9763 46.0781C22.0197 46.1215 22.0632 46.1649 22.1066 46.2083C22.1501 46.2517 22.2153 46.2951 22.2804 46.3602C22.3456 46.4036 22.4325 46.447 22.5194 46.5121C22.6932 46.5989 22.9105 46.7074 23.1494 46.7508C23.3884 46.7942 23.6708 46.8376 23.975 46.7942C24.2357 46.7508 24.4964 46.7074 24.8005 46.664C25.0829 46.6206 25.3654 46.5989 25.6695 46.5772C25.8216 46.5772 25.9736 46.5555 26.104 46.5555L26.3212 46.5338C26.3864 46.5338 26.4733 46.5338 26.5385 46.5338C26.6906 46.5338 26.8426 46.5338 26.9947 46.5338C27.1468 46.5338 27.2989 46.5338 27.4292 46.5338C27.4944 46.5338 27.5813 46.5338 27.6465 46.5338C27.7116 46.5338 27.7985 46.5338 27.8637 46.5555C27.9289 46.5555 28.0158 46.5555 28.0809 46.5772C28.1461 46.5772 28.233 46.5772 28.2982 46.5989C28.4285 46.6206 28.5806 46.6206 28.711 46.6423C28.8413 46.664 28.9717 46.6857 29.102 46.6857C29.2324 46.7074 29.3627 46.7291 29.4713 46.7508C29.6017 46.7725 29.7103 46.7942 29.8189 46.8159C29.9276 46.8376 30.0362 46.8593 30.1448 46.881C30.2534 46.9027 30.3403 46.9244 30.4272 46.9462C30.601 46.9896 30.7748 47.033 30.8834 47.0764C31.0138 47.1198 31.1224 47.1415 31.1876 47.1632C31.2528 47.1849 31.2962 47.2066 31.2962 47.2066C31.2962 47.2066 31.2745 47.1849 31.2093 47.1415C31.1876 47.1198 31.1441 47.0981 31.1007 47.0547C31.0572 47.033 31.0138 46.9896 30.9486 46.9462C30.84 46.881 30.6879 46.7942 30.5141 46.7074C30.4272 46.664 30.3403 46.6206 30.2317 46.5772C30.1448 46.5338 30.0362 46.4904 29.9276 46.447C29.8189 46.4036 29.7103 46.3602 29.58 46.3168C29.4496 46.2734 29.341 46.23 29.2106 46.2083C29.0803 46.1649 28.9499 46.1432 28.7979 46.0998C28.6675 46.0781 28.5154 46.0347 28.3634 46.013C28.2113 45.9913 28.0592 45.9696 27.9072 45.9479C27.842 45.9479 27.7551 45.9262 27.6899 45.9262C27.603 45.9262 27.5378 45.9262 27.4509 45.9045C27.2989 45.9045 27.1468 45.8828 26.973 45.8828C26.8209 45.8828 26.6471 45.8828 26.495 45.8828C26.4081 45.8828 26.343 45.8828 26.2561 45.8828L26.0171 45.9045C25.865 45.9262 25.713 45.9262 25.5609 45.9479C25.4088 45.9696 25.2567 45.9913 25.1047 46.013C25.0395 46.0347 24.9526 46.0347 24.8874 46.0564C24.8222 46.0781 24.7353 46.0781 24.6702 46.0998C24.5181 46.1432 24.3877 46.1649 24.2574 46.2083C24.1922 46.23 24.127 46.2517 24.0619 46.2517C24.0184 46.2517 23.9967 46.2734 23.9532 46.2734H23.9315H23.9098L23.8663 46.2951C23.7577 46.3168 23.6491 46.3385 23.5405 46.3602C23.4319 46.3819 23.3232 46.3819 23.2146 46.3602C22.9974 46.3602 22.8018 46.3168 22.628 46.2734C22.5411 46.2517 22.4542 46.23 22.3891 46.1866C22.3239 46.1649 22.237 46.1432 22.1935 46.0998C22.1284 46.0781 22.0849 46.0564 22.0415 46.0347C21.998 46.013 21.9546 45.9913 21.9328 45.9696C21.8677 45.9262 21.8242 45.9262 21.8242 45.9262C21.8242 45.9262 21.8459 45.9479 21.8894 46.013C21.9111 45.9913 21.9328 46.0347 21.9763 46.0781Z" fill="#426262"/>
<path d="M23.8012 48.6588C23.8881 48.6588 23.9532 48.6588 24.0401 48.6588C24.1922 48.6588 24.366 48.6588 24.5181 48.6588C24.6702 48.6588 24.844 48.6588 24.996 48.6805C25.0829 48.6805 25.1481 48.6805 25.235 48.6805C25.3219 48.6805 25.3871 48.6805 25.474 48.7022C25.5609 48.7022 25.6261 48.7022 25.713 48.7239C25.7781 48.7239 25.865 48.7239 25.9302 48.7456C26.0823 48.7673 26.2343 48.789 26.3647 48.789C26.5168 48.8107 26.6471 48.8324 26.7775 48.8541C26.8426 48.8541 26.9078 48.8758 26.973 48.8758C27.0382 48.8975 27.1033 48.8975 27.1685 48.9192C27.2989 48.9409 27.4292 48.9626 27.5378 48.9843C27.6465 49.006 27.7768 49.0277 27.8854 49.0494C27.9941 49.0712 28.1027 49.0929 28.1896 49.1146C28.3851 49.158 28.5589 49.2014 28.6892 49.2448C28.8196 49.2882 28.9282 49.3099 29.0151 49.3533C29.0803 49.375 29.1237 49.3967 29.1237 49.3967C29.1237 49.3967 29.102 49.375 29.0368 49.3316C29.0151 49.3099 28.9717 49.2882 28.9282 49.2448C28.8848 49.2014 28.8196 49.1797 28.7544 49.1363C28.6241 49.0495 28.472 48.9626 28.2982 48.8758C28.2113 48.8324 28.1027 48.789 27.9941 48.7456C27.8854 48.7022 27.7768 48.6588 27.6682 48.6154C27.5596 48.572 27.4292 48.5286 27.2989 48.4852C27.1685 48.4418 27.0382 48.3984 26.9078 48.355C26.7775 48.3116 26.6254 48.2682 26.4733 48.2465C26.3212 48.2031 26.1692 48.1814 26.0171 48.1597C25.865 48.138 25.713 48.1163 25.5392 48.0946C25.4523 48.0946 25.3871 48.0729 25.3002 48.0729C25.2133 48.0729 25.1264 48.0512 25.0612 48.0512C24.8874 48.0512 24.7353 48.0295 24.5615 48.0295C24.3877 48.0295 24.2357 48.0295 24.0619 48.0295C23.975 48.0295 23.8881 48.0295 23.8012 48.0295L23.5405 48.0512C23.3667 48.0729 23.2146 48.0729 23.0408 48.0946C22.867 48.1163 22.7149 48.138 22.5629 48.1814C22.476 48.2031 22.4108 48.2031 22.3239 48.2248C22.237 48.2465 22.1718 48.2465 22.0849 48.2682C21.9328 48.3116 21.7808 48.3333 21.6287 48.3767C21.5635 48.3984 21.4766 48.4201 21.4114 48.4418C21.368 48.4418 21.3463 48.4635 21.3028 48.4635H21.2811H21.2594L21.2159 48.4852C21.1073 48.5286 20.977 48.5286 20.8466 48.5503C20.7163 48.572 20.6076 48.572 20.499 48.5503C20.2818 48.5503 20.0645 48.5069 19.869 48.4418C19.7821 48.4201 19.6952 48.3984 19.6083 48.355C19.5214 48.3333 19.4562 48.2899 19.391 48.2682C19.3259 48.2465 19.2607 48.2031 19.2172 48.1814C19.1738 48.1597 19.1303 48.138 19.0869 48.1163C19.0434 48.0295 19 48.0078 19 48.0078C19 48.0078 19.0217 48.0295 19.0869 48.0946C19.1086 48.1163 19.1521 48.1597 19.1955 48.2031C19.239 48.2465 19.2824 48.2899 19.3476 48.3333C19.3693 48.3767 19.4345 48.4201 19.5214 48.4852C19.5866 48.5503 19.6735 48.5937 19.7604 48.6371C19.9559 48.7456 20.1731 48.8324 20.4338 48.8975C20.6945 48.9626 20.977 48.9843 21.3028 48.9409C21.5852 48.8975 21.8677 48.8541 22.1718 48.8107C22.476 48.7673 22.7801 48.7456 23.0843 48.7022C23.2363 48.7022 23.4101 48.6805 23.5622 48.6805L23.8012 48.6588Z" fill="#426262"/>
<path d="M27.7548 51.1771C27.7114 51.1337 27.6245 51.0903 27.5593 51.0252C27.5159 51.0035 27.4724 50.9818 27.429 50.9384C27.3855 50.9167 27.3203 50.895 27.2769 50.8516C27.1683 50.8082 27.0596 50.743 26.9293 50.6996C26.8641 50.6779 26.7989 50.6562 26.7338 50.6345C26.6686 50.6128 26.5817 50.5911 26.5165 50.5694C26.4514 50.5477 26.3645 50.5477 26.2993 50.526C26.2558 50.526 26.2124 50.5043 26.1907 50.5043C26.1472 50.5043 26.1038 50.5043 26.082 50.4826C25.9951 50.4826 25.93 50.4609 25.8431 50.4609C25.7562 50.4609 25.691 50.4609 25.6041 50.4609C25.5172 50.4609 25.452 50.4609 25.3651 50.4826C25.2782 50.4826 25.213 50.5043 25.1261 50.5043C25.0392 50.526 24.9741 50.526 24.8872 50.5477C24.822 50.5694 24.7351 50.5694 24.6699 50.5911C24.6047 50.6128 24.5178 50.6345 24.4527 50.6562C24.4092 50.6779 24.3875 50.6779 24.3441 50.6996L24.3006 50.7213H24.2789H24.2572C24.1703 50.7647 24.0616 50.7864 23.9747 50.7864C23.8878 50.7864 23.7792 50.7864 23.6923 50.7864C23.6054 50.7864 23.5402 50.7647 23.4751 50.743C23.4533 50.743 23.4099 50.7213 23.3882 50.7213C23.3664 50.7213 23.3447 50.6996 23.323 50.6996C23.2795 50.6779 23.2578 50.6779 23.2578 50.6779C23.2578 50.6779 23.2578 50.6996 23.2795 50.7213C23.3013 50.743 23.323 50.8082 23.3882 50.8516C23.4316 50.9167 23.4968 50.9601 23.5837 51.0252C23.6706 51.0903 23.7792 51.1337 23.9096 51.1771C24.0399 51.2205 24.192 51.2422 24.3441 51.2205H24.3875H24.4092H24.3875H24.4309C24.4527 51.2205 24.4961 51.2205 24.5178 51.2205C24.583 51.2205 24.6482 51.1988 24.7134 51.1988C24.8437 51.1771 24.9958 51.1771 25.1261 51.1771C25.1913 51.1771 25.2565 51.1771 25.3434 51.1771C25.4086 51.1771 25.4955 51.1771 25.5606 51.1771C25.6258 51.1771 25.7127 51.1771 25.7779 51.1771C25.8431 51.1771 25.93 51.1771 25.9951 51.1771C26.1255 51.1771 26.2776 51.1771 26.4079 51.1771C26.4731 51.1771 26.5383 51.1771 26.6034 51.1771C26.6686 51.1771 26.7338 51.1771 26.7989 51.1988C26.8641 51.1988 26.9293 51.1988 26.9727 51.2205C27.0379 51.2205 27.0814 51.2205 27.1465 51.2422C27.2552 51.2422 27.3638 51.2639 27.4507 51.2639C27.5376 51.2856 27.6245 51.2856 27.6897 51.2856C27.82 51.3073 27.9069 51.3073 27.9069 51.3073C27.9069 51.3073 27.8852 51.2856 27.8635 51.2639C27.8635 51.2639 27.82 51.2205 27.7548 51.1771Z" fill="#426262"/>
<path d="M39.1606 50.7864C39.1388 50.7864 39.1388 50.7864 39.1606 50.7864C38.9868 50.5911 38.7261 50.4609 38.4219 50.4609H37.2271C37.5746 51.0469 37.8353 51.7196 37.9222 52.4357H38.4219C38.4436 52.4357 38.4654 52.4357 38.4871 52.4357L42.0282 56.4504C42.2237 56.7759 42.6365 56.8844 42.9624 56.6891C43.2883 56.4938 43.3969 56.0814 43.2014 55.7559L39.1606 50.7864Z" fill="#426262"/>
<path d="M46.0475 51.1371H43.6361V48.9453H42.6367V54.6743H43.6361V52.0702H46.0475V54.6743H47.0468V48.9453H46.0475V51.1371Z" fill="#426262"/>
<path d="M51.5438 54.6712V51.1123L50.892 51.4812C50.6096 51.1557 50.1316 51.0038 49.4799 51.0255C48.9368 51.0255 48.5023 51.1991 48.1547 51.568C47.8071 51.9152 47.6333 52.3709 47.6333 52.8917C47.6333 53.4343 47.8071 53.89 48.1547 54.2589C48.5023 54.6278 48.9368 54.8014 49.4799 54.8014C49.8927 54.8014 50.262 54.6712 50.5444 54.3891V54.6712H51.5438ZM50.3054 53.6513C50.1316 53.8466 49.8709 53.9551 49.5668 53.9551C49.3061 53.9551 49.0671 53.8466 48.8933 53.6079C48.7195 53.3909 48.6326 53.1521 48.6326 52.87C48.6326 52.5879 48.7195 52.3492 48.9151 52.1322C49.0889 51.9369 49.3278 51.8284 49.6103 51.8284C49.8927 51.8284 50.1316 51.9152 50.3054 52.1105C50.4792 52.3058 50.5661 52.5445 50.5661 52.8483C50.5879 53.1738 50.501 53.4343 50.3054 53.6513Z" fill="#426262"/>
<path d="M53.151 52.7417C53.151 52.1558 53.3899 51.852 53.8679 51.852C54.1286 51.852 54.3024 51.9171 54.3893 52.0256C54.4544 52.1341 54.4979 52.3077 54.4979 52.5681V54.6731H55.4755V52.5681C55.4755 51.5265 54.9324 51.0273 53.8461 51.0273C53.3682 51.049 52.9989 51.2227 52.6947 51.5482L52.1733 51.0924V54.6731H53.151V52.7417Z" fill="#426262"/>
<path d="M59.973 48.9648H59.0171V51.1566C58.7998 51.0047 58.6043 50.9179 58.4305 50.8962C58.2784 50.8745 58.1046 50.8528 57.9308 50.8528C57.3877 50.8528 56.9315 51.0481 56.6056 51.417C56.2798 51.7859 56.106 52.2634 56.106 52.8276C56.106 53.3701 56.2798 53.8258 56.6491 54.1947C56.9967 54.5636 57.4529 54.759 57.9743 54.759C58.6477 54.8024 59.1474 54.6287 59.4516 54.2598L59.973 54.6938V48.9648ZM58.7564 53.6305C58.5826 53.8258 58.3219 53.9126 58.0177 53.9126C57.7353 53.9126 57.4963 53.8041 57.3443 53.5871C57.1705 53.3918 57.1053 53.1531 57.1053 52.8493C57.1053 52.5455 57.1922 52.2851 57.3443 52.0898C57.5181 51.8727 57.757 51.7425 58.0395 51.7425C58.3653 51.7425 58.6043 51.851 58.7781 52.0464C58.9519 52.2634 59.0388 52.5238 59.0388 52.8276C59.0388 53.1748 58.9519 53.4352 58.7564 53.6305Z" fill="#426262"/>
<path d="M61.7108 49.1367H60.7114V50.1567H61.7108V49.1367Z" fill="#426262"/>
<path d="M61.7325 51.0039H60.7549V54.6713H61.7325V51.0039Z" fill="#426262"/>
<path d="M64.3613 51.0273C63.7312 51.0707 63.2967 51.2444 63.0578 51.5916L62.5146 51.1141V56.7129H63.4923V54.4995C63.7964 54.7599 64.1657 54.9118 64.6002 54.9118C65.1216 54.9118 65.5561 54.7165 65.9037 54.3259C66.2078 53.9569 66.3817 53.5012 66.3817 52.9587C66.3817 52.4162 66.2296 51.9605 65.9037 51.6133C65.5561 51.201 65.0347 51.0273 64.3613 51.0273ZM64.9695 53.8701C64.8609 53.9569 64.7523 53.9786 64.6437 54.0004C64.4916 54.0221 64.4264 54.0221 64.4047 54.0221C64.1223 54.0221 63.8833 53.8918 63.7312 53.6748C63.5792 53.4795 63.4923 53.2191 63.4923 52.9153C63.4923 52.6332 63.5792 52.3728 63.753 52.1775C63.9268 51.9605 64.144 51.8737 64.4264 51.8737C64.7306 51.8737 64.9695 51.9822 65.1651 52.1775C65.3389 52.3728 65.4475 52.6332 65.4475 52.937C65.404 53.3493 65.252 53.6748 64.9695 53.8701Z" fill="#426262"/>
<path d="M68.0113 48.9648H67.0337V54.6721H68.033L68.0113 48.9648Z" fill="#426262"/>
<path d="M71.5959 54.3891V54.6712H72.5735V51.1123L71.9218 51.4812C71.6394 51.1557 71.1614 51.0038 70.5097 51.0255C69.9666 51.0255 69.5321 51.1991 69.1845 51.568C68.8369 51.9152 68.6631 52.3709 68.6631 52.8917C68.6631 53.4343 68.8369 53.89 69.1845 54.2589C69.5321 54.6278 69.9666 54.8014 70.5097 54.8014C70.9442 54.8014 71.2918 54.6712 71.5959 54.3891ZM69.9231 53.6079C69.7493 53.3909 69.6624 53.1521 69.6624 52.87C69.6624 52.5879 69.7493 52.3492 69.9448 52.1322C70.1186 51.9369 70.3576 51.8284 70.64 51.8284C70.9225 51.8284 71.1614 51.9152 71.3352 52.1105C71.509 52.3058 71.5959 52.5445 71.5959 52.8483C71.5959 53.1738 71.509 53.4126 71.3135 53.6296C71.1397 53.8249 70.879 53.9334 70.5749 53.9334C70.3359 53.9551 70.0969 53.8466 69.9231 53.6079Z" fill="#426262"/>
<path d="M74.8545 51.0273C74.3765 51.049 74.0072 51.2227 73.703 51.5482L73.1816 51.0924V54.6731H74.1593V52.7417C74.1593 52.1558 74.3982 51.852 74.8762 51.852C75.1369 51.852 75.3107 51.9171 75.3976 52.0256C75.4627 52.1341 75.5062 52.3077 75.5062 52.5681V54.6731H76.4838V52.5681C76.5055 51.5265 75.9624 51.0273 74.8545 51.0273Z" fill="#426262"/>
<path d="M80.5464 54.543C80.8071 54.3694 81.0244 54.1741 81.2199 53.9137L80.4161 53.5448C80.1988 53.8486 79.8295 54.0005 79.3516 54.0005C78.6347 53.9571 78.2002 53.675 78.0698 53.1325H81.4154C81.4154 52.5466 81.2199 52.0475 80.8071 51.5917C80.3944 51.1577 79.873 50.9407 79.2429 50.9624C78.6129 50.9624 78.1133 51.1794 77.7005 51.5917C77.2877 52.0041 77.1139 52.4164 77.1574 52.8287C77.1356 53.4146 77.2877 53.8703 77.657 54.1958C78.0046 54.5864 78.5695 54.7818 79.3516 54.7601C79.8947 54.7818 80.2857 54.7167 80.5464 54.543ZM79.3081 51.787C79.873 51.8304 80.2423 52.0692 80.4595 52.5249H78.0698C78.2871 52.0909 78.6998 51.8304 79.3081 51.787Z" fill="#426262"/>
<path d="M83.5007 51.0264V49.7461H82.5231V51.0264L82.0234 51.9162H82.5231V54.6722H83.5007V51.9162H84.1742V51.0264H83.5007Z" fill="#426262"/>
<path d="M50.0228 57.6671C50.0228 58.0794 49.849 58.253 49.5665 58.253C49.3276 58.253 49.132 58.0794 49.132 57.6671V56.582H48.8931V57.6671C48.8931 58.2313 49.1755 58.4483 49.5448 58.4483C49.9359 58.4483 50.24 58.2096 50.24 57.6454V56.582H50.001V57.6671H50.0228Z" fill="#426262"/>
<path d="M51.3268 57.0586C51.1095 57.0586 50.9575 57.1888 50.8923 57.2973L50.8706 57.0803H50.6533C50.6533 57.1888 50.675 57.2973 50.675 57.4275V58.3823H50.914V57.6011C50.914 57.5577 50.914 57.5143 50.9357 57.4926C50.9792 57.3624 51.1095 57.2539 51.2616 57.2539C51.4789 57.2539 51.5658 57.4275 51.5658 57.6445V58.404H51.8047V57.6228C51.783 57.1671 51.5006 57.0586 51.3268 57.0586Z" fill="#426262"/>
<path d="M54.1943 57.0586C54.064 57.0586 53.9771 57.102 53.9119 57.1454C53.8467 57.1888 53.8033 57.2539 53.7598 57.319C53.6947 57.1671 53.5643 57.0586 53.3905 57.0586C53.1733 57.0586 53.0429 57.1671 52.9777 57.2973L52.956 57.0803H52.7388C52.7388 57.1888 52.7605 57.2973 52.7605 57.4275V58.3823H52.9995V57.5794C52.9995 57.536 52.9995 57.4926 53.0212 57.4709C53.0646 57.3407 53.1733 57.2322 53.3253 57.2322C53.4991 57.2322 53.6078 57.3841 53.6078 57.6011V58.3823H53.8467V57.5794C53.8467 57.536 53.8467 57.4926 53.8685 57.4492C53.9119 57.3407 54.0205 57.2322 54.1509 57.2322C54.3464 57.2322 54.4333 57.3841 54.4333 57.6445V58.3823H54.6723V57.6011C54.6288 57.1888 54.3681 57.0586 54.1943 57.0586Z" fill="#426262"/>
<path d="M55.5844 57.0586C55.215 57.0586 54.9326 57.319 54.9326 57.753C54.9326 58.1653 55.215 58.4257 55.5626 58.4257C55.8885 58.4257 56.2144 58.2087 56.2144 57.7313C56.2144 57.3407 55.9537 57.0586 55.5844 57.0586ZM55.5626 58.2738C55.3237 58.2738 55.1716 58.0568 55.1716 57.7747C55.1716 57.5143 55.3019 57.2539 55.5844 57.2539C55.8668 57.2539 55.9754 57.536 55.9754 57.753C55.9754 58.0568 55.8016 58.2738 55.5626 58.2738Z" fill="#426262"/>
<path d="M57.1705 57.0586C56.9533 57.0586 56.8012 57.1888 56.736 57.2973L56.7143 57.0803H56.4971C56.4971 57.1888 56.4971 57.2973 56.4971 57.4275V58.3823H56.736V57.6011C56.736 57.5577 56.736 57.5143 56.7578 57.4926C56.8012 57.3624 56.9316 57.2539 57.0836 57.2539C57.3009 57.2539 57.3878 57.4275 57.3878 57.6445V58.404H57.6268V57.6228C57.6485 57.1671 57.3661 57.0586 57.1705 57.0586Z" fill="#426262"/>
<path d="M59.1687 56.4727H58.9298V57.2756C58.8646 57.1671 58.7342 57.0803 58.5387 57.0803C58.2128 57.0803 57.9521 57.3407 57.9521 57.7964C57.9521 58.187 58.1911 58.4691 58.517 58.4691C58.7342 58.4691 58.8863 58.3606 58.9732 58.2087V58.4474H59.1905C59.1905 58.3606 59.1905 58.2304 59.1905 58.1002V56.4727H59.1687ZM58.9298 57.8615C58.9298 57.9049 58.9298 57.9266 58.908 57.97C58.8646 58.1436 58.7125 58.2521 58.5604 58.2521C58.2997 58.2521 58.1694 58.0351 58.1694 57.7747C58.1694 57.4926 58.3215 57.2756 58.5604 57.2756C58.7342 57.2756 58.8646 57.4058 58.908 57.5577C58.908 57.5794 58.9298 57.6228 58.9298 57.6662V57.8615Z" fill="#426262"/>
<path d="M60.0814 57.0586C59.6904 57.0586 59.4731 57.3624 59.4731 57.7747C59.4731 58.1653 59.7121 58.4474 60.1249 58.4474C60.3421 58.4474 60.4725 58.404 60.5594 58.3606L60.5159 58.187C60.429 58.2304 60.3204 58.2521 60.1466 58.2521C59.9076 58.2521 59.6904 58.1219 59.6904 57.7964H60.6246C60.6246 57.7747 60.6246 57.7313 60.6246 57.6879C60.6246 57.4492 60.5159 57.0586 60.0814 57.0586ZM59.7121 57.6228C59.7338 57.4492 59.8425 57.2322 60.0814 57.2322C60.3421 57.2322 60.4073 57.4709 60.4073 57.6228H59.7121Z" fill="#426262"/>
<path d="M62.4276 57.6011C62.4276 57.3407 62.3189 57.0586 61.9279 57.0586C61.7541 57.0586 61.602 57.102 61.4934 57.1671L61.5586 57.319C61.6455 57.2539 61.7758 57.2105 61.9062 57.2105C62.1669 57.2105 62.2103 57.4058 62.2103 57.5143V57.536C61.7106 57.536 61.4282 57.7096 61.4282 58.0351C61.4282 58.2304 61.5586 58.404 61.841 58.404C62.0365 58.404 62.1669 58.3172 62.2538 58.2087L62.2755 58.3823H62.4927C62.471 58.2955 62.471 58.187 62.471 58.0568V57.6011H62.4276ZM62.2103 57.97C62.2103 57.9917 62.2103 58.0134 62.1886 58.0568C62.1451 58.1653 62.0365 58.2738 61.8627 58.2738C61.7324 58.2738 61.6455 58.2087 61.6455 58.0351C61.6455 57.7747 61.9496 57.7313 62.2103 57.7313V57.97Z" fill="#426262"/>
<path d="M63.4271 57.2539C63.5575 57.2539 63.6444 57.2756 63.7095 57.319L63.7747 57.1237C63.7095 57.0803 63.5792 57.0586 63.4489 57.0586C63.0144 57.0586 62.7319 57.3624 62.7319 57.753C62.7319 58.1653 62.9926 58.4257 63.3837 58.4257C63.5575 58.4257 63.7095 58.3823 63.753 58.3389L63.7095 58.1653C63.6444 58.187 63.5575 58.2304 63.4054 58.2304C63.1447 58.2304 62.9492 58.0351 62.9492 57.7313C62.9709 57.4926 63.123 57.2539 63.4271 57.2539Z" fill="#426262"/>
<path d="M64.6439 57.2539C64.7743 57.2539 64.8612 57.2756 64.9263 57.319L64.9915 57.1237C64.9263 57.0803 64.796 57.0586 64.6656 57.0586C64.2312 57.0586 63.9487 57.3624 63.9487 57.753C63.9487 58.1653 64.2094 58.4257 64.6005 58.4257C64.7743 58.4257 64.9263 58.3823 64.9698 58.3389L64.9263 58.1653C64.8612 58.187 64.7743 58.2304 64.6222 58.2304C64.3615 58.2304 64.166 58.0351 64.166 57.7313C64.166 57.4926 64.3398 57.2539 64.6439 57.2539Z" fill="#426262"/>
<path d="M65.7514 57.0586C65.3603 57.0586 65.1431 57.3624 65.1431 57.7747C65.1431 58.1653 65.382 58.4474 65.7948 58.4474C66.0121 58.4474 66.1424 58.404 66.2293 58.3606L66.1859 58.187C66.099 58.2304 65.9903 58.2521 65.8165 58.2521C65.5776 58.2521 65.3603 58.1219 65.3603 57.7964H66.2945C66.2945 57.7747 66.2945 57.7313 66.2945 57.6879C66.2945 57.4492 66.1859 57.0586 65.7514 57.0586ZM65.3603 57.6228C65.382 57.4492 65.4907 57.2322 65.7296 57.2322C65.9903 57.2322 66.0555 57.4709 66.0555 57.6228H65.3603Z" fill="#426262"/>
<path d="M67.0116 57.6463C66.8378 57.5811 66.7509 57.5377 66.7509 57.4292C66.7509 57.3207 66.8378 57.2556 66.9682 57.2556C67.0985 57.2556 67.1854 57.299 67.2289 57.3424L67.294 57.1688C67.2289 57.1254 67.0985 57.082 66.9682 57.082C66.6858 57.082 66.512 57.2556 66.512 57.4726C66.512 57.6246 66.6206 57.7548 66.8596 57.8416C67.0333 57.9067 67.0985 57.9718 67.0985 58.0803C67.0985 58.1888 67.0116 58.2756 66.8378 58.2756C66.7075 58.2756 66.5989 58.2322 66.512 58.1888L66.4468 58.3624C66.5337 58.4275 66.664 58.4492 66.8161 58.4492C67.1202 58.4492 67.3158 58.2756 67.3158 58.0586C67.3592 57.8416 67.2506 57.7331 67.0116 57.6463Z" fill="#426262"/>
<path d="M68.0981 57.6463C67.9243 57.5811 67.8374 57.5377 67.8374 57.4292C67.8374 57.3207 67.9243 57.2556 68.0546 57.2556C68.185 57.2556 68.2718 57.299 68.3153 57.3424L68.3805 57.1688C68.3153 57.1254 68.185 57.082 68.0546 57.082C67.7722 57.082 67.5984 57.2556 67.5984 57.4726C67.5984 57.6246 67.707 57.7548 67.946 57.8416C68.1198 57.9067 68.1849 57.9718 68.1849 58.0803C68.1849 58.1888 68.098 58.2756 67.9243 58.2756C67.7939 58.2756 67.6853 58.2322 67.5984 58.1888L67.5332 58.3624C67.6201 58.4275 67.7505 58.4492 67.9025 58.4492C68.2067 58.4492 68.4022 58.2756 68.4022 58.0586C68.4456 57.8416 68.3153 57.7331 68.0981 57.6463Z" fill="#426262"/>
<path d="M68.9885 57.1016H68.7495V58.4253H68.9885V57.1016Z" fill="#426262"/>
<path d="M68.8581 56.582C68.7712 56.582 68.7061 56.6471 68.7061 56.7339C68.7061 56.8207 68.7712 56.8858 68.8581 56.8858C68.945 56.8858 69.0102 56.8207 69.0102 56.7339C69.0102 56.6471 68.945 56.582 68.8581 56.582Z" fill="#426262"/>
<path d="M70.0748 57.0586C69.8576 57.0586 69.7055 57.1454 69.6186 57.2973V56.4727H69.3796V58.0568C69.3796 58.1653 69.3796 58.3172 69.3579 58.404H69.5752L69.5969 58.187C69.7055 58.3606 69.8576 58.4257 70.0314 58.4257C70.3355 58.4257 70.6179 58.187 70.6179 57.7313C70.6397 57.3407 70.4007 57.0586 70.0748 57.0586ZM69.9879 58.2521C69.8141 58.2521 69.6838 58.1436 69.6186 57.97C69.6186 57.9483 69.5969 57.9049 69.5969 57.8832V57.6445C69.5969 57.6011 69.5969 57.5794 69.6186 57.536C69.6621 57.3624 69.8141 57.2322 69.9879 57.2322C70.2486 57.2322 70.379 57.4492 70.379 57.7313C70.379 58.0568 70.2486 58.2521 69.9879 58.2521Z" fill="#426262"/>
<path d="M71.1613 56.4727H70.9224V58.404H71.1613V56.4727Z" fill="#426262"/>
<path d="M72.0956 57.0586C71.7045 57.0586 71.4873 57.3624 71.4873 57.7747C71.4873 58.1653 71.7263 58.4474 72.139 58.4474C72.3563 58.4474 72.4866 58.404 72.5735 58.3606L72.5301 58.187C72.4432 58.2304 72.3346 58.2521 72.1608 58.2521C71.9218 58.2521 71.7046 58.1219 71.7046 57.7964H72.6387C72.6387 57.7747 72.6387 57.7313 72.6387 57.6879C72.6387 57.4492 72.5301 57.0586 72.0956 57.0586ZM71.7046 57.6228C71.7263 57.4492 71.8349 57.2322 72.0739 57.2322C72.3346 57.2322 72.3997 57.4709 72.3997 57.6228H71.7046Z" fill="#426262"/>
<path d="M74.2023 57.0586C73.985 57.0586 73.8329 57.1454 73.7243 57.319L73.7026 57.102H73.4854C73.4854 57.2322 73.5071 57.3624 73.5071 57.536V58.9683H73.746V58.2521C73.8329 58.3823 73.985 58.4691 74.1588 58.4691C74.463 58.4691 74.7671 58.2304 74.7671 57.753C74.7671 57.3407 74.5281 57.0586 74.2023 57.0586ZM74.1154 58.2521C73.9416 58.2521 73.7895 58.1436 73.746 57.97C73.746 57.9483 73.746 57.9049 73.746 57.8832V57.6662C73.746 57.6445 73.746 57.6011 73.7678 57.5577C73.8112 57.3841 73.9633 57.2539 74.1371 57.2539C74.3978 57.2539 74.5281 57.4709 74.5281 57.753C74.5281 58.0568 74.3761 58.2521 74.1154 58.2521Z" fill="#426262"/>
<path d="M75.6151 57.0586C75.2458 57.0586 74.9634 57.319 74.9634 57.753C74.9634 58.1653 75.2458 58.4257 75.5934 58.4257C75.9193 58.4257 76.2451 58.2087 76.2451 57.7313C76.2451 57.3407 76.0062 57.0586 75.6151 57.0586ZM75.6151 58.2738C75.3761 58.2738 75.2241 58.0568 75.2241 57.7747C75.2241 57.5143 75.3544 57.2539 75.6368 57.2539C75.9193 57.2539 76.0279 57.536 76.0279 57.753C76.0062 58.0568 75.8324 58.2738 75.6151 58.2738Z" fill="#426262"/>
<path d="M77.6565 57.1016H77.4176V57.9045C77.4176 57.9479 77.4176 57.9913 77.3958 58.0347C77.3524 58.1432 77.2438 58.2517 77.07 58.2517C76.8527 58.2517 76.7658 58.0781 76.7658 57.8394V57.1016H76.5269V57.8611C76.5269 58.3168 76.7658 58.447 76.9831 58.447C77.222 58.447 77.3524 58.3168 77.4176 58.2083L77.4393 58.4253H77.6565C77.6565 58.3168 77.6565 58.2083 77.6565 58.0564V57.1016Z" fill="#426262"/>
<path d="M78.2653 57.3665L78.2436 57.1061H78.0264C78.0264 57.2363 78.0481 57.3665 78.0481 57.5184V58.4298H78.2871V57.7137C78.2871 57.6703 78.2871 57.6269 78.3088 57.6052C78.3305 57.4316 78.4609 57.3014 78.6347 57.3014C78.6564 57.3014 78.6998 57.3014 78.7216 57.3014V57.0844C78.6998 57.0844 78.6781 57.0844 78.6564 57.0844C78.4826 57.0627 78.3305 57.1929 78.2653 57.3665Z" fill="#426262"/>
<path d="M79.8075 56.7109L79.5686 56.776V57.1016H79.373V57.2752H79.5686V57.9913C79.5686 58.1432 79.5903 58.2734 79.6555 58.3385C79.7206 58.4036 79.8075 58.447 79.9162 58.447C80.0031 58.447 80.09 58.4253 80.1334 58.4253L80.1117 58.2517C80.09 58.2517 80.0465 58.2734 79.9813 58.2734C79.851 58.2734 79.8075 58.1866 79.8075 58.013V57.2752H80.1551V57.1016H79.8075V56.7109Z" fill="#426262"/>
<path d="M80.9589 57.0586C80.5896 57.0586 80.3071 57.319 80.3071 57.753C80.3071 58.1653 80.5895 58.4257 80.9371 58.4257C81.263 58.4257 81.5889 58.2087 81.5889 57.7313C81.6106 57.3407 81.3499 57.0586 80.9589 57.0586ZM80.9589 58.2738C80.7199 58.2738 80.5678 58.0568 80.5678 57.7747C80.5678 57.5143 80.6982 57.2539 80.9806 57.2539C81.263 57.2539 81.3716 57.536 81.3716 57.753C81.3499 58.0568 81.1761 58.2738 80.9589 58.2738Z" fill="#426262"/>
<path d="M83.0013 57.1016H82.7623V57.9045C82.7623 57.9479 82.7623 57.9913 82.7406 58.0347C82.6971 58.1432 82.5885 58.2517 82.4147 58.2517C82.1975 58.2517 82.1106 58.0781 82.1106 57.8394V57.1016H81.8716V57.8611C81.8716 58.3168 82.1106 58.447 82.3278 58.447C82.5668 58.447 82.6971 58.3168 82.7623 58.2083L82.784 58.4253H83.0013C83.0013 58.3168 82.9795 58.2083 82.9795 58.0564V57.1016H83.0013Z" fill="#426262"/>
<path d="M83.8271 57.6463C83.6533 57.5811 83.5664 57.5377 83.5664 57.4292C83.5664 57.3207 83.6533 57.2556 83.7836 57.2556C83.914 57.2556 84.0009 57.299 84.0443 57.3424L84.1095 57.1688C84.0443 57.1254 83.914 57.082 83.7836 57.082C83.5012 57.082 83.3274 57.2556 83.3274 57.4726C83.3274 57.6246 83.436 57.7548 83.675 57.8416C83.8488 57.9067 83.914 57.9718 83.914 58.0803C83.914 58.1888 83.8271 58.2756 83.6533 58.2756C83.5229 58.2756 83.4143 58.2322 83.3274 58.1888L83.3057 58.3624C83.3926 58.4275 83.5229 58.4492 83.675 58.4492C83.9791 58.4492 84.1747 58.2756 84.1747 58.0586C84.1747 57.8416 84.066 57.7331 83.8271 57.6463Z" fill="#426262"/>
<path d="M246 157C246 145.954 254.954 137 266 137H432.5C443.27 137 452 145.73 452 156.5C452 167.27 443.27 176 432.5 176H246V157Z" fill="#CB563E"/>
<path d="M428 203.5C428 192.73 436.73 184 447.5 184H614C625.046 184 634 192.954 634 204V223H447.5C436.73 223 428 214.27 428 203.5Z" fill="#71C0A0"/>
<path d="M566 242C566 235.925 570.925 231 577 231H619C627.284 231 634 237.716 634 246V253H577C570.925 253 566 248.075 566 242Z" fill="#71C0A0"/>
<path d="M473 316.5C473 305.73 481.73 297 492.5 297H614C625.046 297 634 305.954 634 317V336H492.5C481.73 336 473 327.27 473 316.5Z" fill="#71C0A0"/>
<path d="M246 281C246 269.954 254.954 261 266 261H328C335.732 261 342 267.268 342 275C342 282.732 335.732 289 328 289H246V281Z" fill="#CB563E"/>
<rect x="222" y="111" width="437" height="327" rx="29" stroke="#5A8D8C" stroke-width="2"/>
<rect x="1" y="65" width="682" height="25" fill="#5A8D8C"/>
<path d="M21 89H200V409C200 425.016 187.016 438 171 438H50C33.9837 438 21 425.016 21 409V89Z" fill="#F9E9D7" stroke="#5A8D8C" stroke-width="2"/>
<rect x="218" y="75" width="36" height="6" rx="3" fill="white"/>
<rect x="117" y="47" width="36" height="6" rx="3" fill="#426262"/>
<rect x="249" y="47" width="36" height="6" rx="3" fill="#426262"/>
<rect x="624" y="47" width="36" height="6" rx="3" fill="#CB563E"/>
<rect x="591" y="47" width="19" height="6" rx="3" fill="#CB563E"/>
<rect x="562" y="47" width="19" height="6" rx="3" fill="#CB563E"/>
<rect x="183" y="47" width="36" height="6" rx="3" fill="#426262"/>
<rect x="309.5" y="41.5" width="114" height="16" rx="8" stroke="#CB563E"/>
<path fill-rule="evenodd" clip-rule="evenodd" d="M413.125 46.5C411.675 46.5 410.5 47.6753 410.5 49.125C410.5 50.5747 411.675 51.75 413.125 51.75C414.575 51.75 415.75 50.5747 415.75 49.125C415.75 47.6753 414.575 46.5 413.125 46.5ZM409.75 49.125C409.75 47.261 411.261 45.75 413.125 45.75C414.989 45.75 416.5 47.261 416.5 49.125C416.5 50.989 414.989 52.5 413.125 52.5C411.261 52.5 409.75 50.989 409.75 49.125Z" fill="#CB563E"/>
<path fill-rule="evenodd" clip-rule="evenodd" d="M414.979 50.9786C415.125 50.8321 415.362 50.8321 415.509 50.9786L417.14 52.6098C417.287 52.7563 417.287 52.9937 417.14 53.1402C416.994 53.2866 416.756 53.2866 416.61 53.1402L414.979 51.5089C414.832 51.3625 414.832 51.125 414.979 50.9786Z" fill="#CB563E"/>
<rect x="274" y="75" width="36" height="6" rx="3" fill="white"/>
<rect x="330" y="75" width="36" height="6" rx="3" fill="white"/>
<rect x="386" y="75" width="36" height="6" rx="3" fill="white"/>
<rect x="442" y="75" width="36" height="6" rx="3" fill="white"/>
<rect x="238" y="374" width="406" height="49" rx="24.5" fill="#426262"/>
<rect x="31" y="380" width="158" height="48" rx="24" fill="white" stroke="#426262" stroke-width="2"/>
<circle cx="56" cy="404" r="19" fill="#CB563E"/>
<path d="M95 391H133" stroke="#CB563E" stroke-width="5" stroke-linecap="round"/>
<path d="M95 404H150" stroke="#71C0A0" stroke-width="3" stroke-linecap="round"/>
<path d="M95 411H166" stroke="#71C0A0" stroke-width="3" stroke-linecap="round"/>
<path d="M95 418H161" stroke="#71C0A0" stroke-width="3" stroke-linecap="round"/>
<rect x="31" y="244" width="158" height="48" rx="24" fill="white" stroke="#426262" stroke-width="2"/>
<circle cx="56" cy="268" r="19" fill="#CB563E"/>
<path d="M95 255H133" stroke="#CB563E" stroke-width="5" stroke-linecap="round"/>
<path d="M95 268H150" stroke="#71C0A0" stroke-width="3" stroke-linecap="round"/>
<path d="M95 275H166" stroke="#71C0A0" stroke-width="3" stroke-linecap="round"/>
<path d="M95 282H161" stroke="#71C0A0" stroke-width="3" stroke-linecap="round"/>
<rect x="31" y="177" width="158" height="48" rx="24" fill="#426262" stroke="#426262" stroke-width="2"/>
<circle cx="56" cy="201" r="19" fill="white"/>
<path d="M95 201H150" stroke="white" stroke-width="3" stroke-linecap="round"/>
<path d="M95 208H166" stroke="white" stroke-width="3" stroke-linecap="round"/>
<path d="M95 215H161" stroke="white" stroke-width="3" stroke-linecap="round"/>
<path d="M100.524 184.48C100.756 184.48 100.94 184.552 101.076 184.696C101.212 184.832 101.28 185.016 101.28 185.248V192.292C101.28 192.524 101.208 192.712 101.064 192.856C100.928 193 100.748 193.072 100.524 193.072C100.292 193.072 100.108 193 99.972 192.856C99.836 192.712 99.768 192.524 99.768 192.292V189.328H95.436V192.292C95.436 192.524 95.364 192.712 95.22 192.856C95.084 193 94.9 193.072 94.668 193.072C94.444 193.072 94.26 193 94.116 192.856C93.98 192.712 93.912 192.524 93.912 192.292V185.248C93.912 185.016 93.98 184.832 94.116 184.696C94.252 184.552 94.436 184.48 94.668 184.48C94.9 184.48 95.084 184.552 95.22 184.696C95.364 184.832 95.436 185.016 95.436 185.248V188.08H99.768V185.248C99.768 185.016 99.836 184.832 99.972 184.696C100.108 184.552 100.292 184.48 100.524 184.48ZM105.644 193.096C105.044 193.096 104.516 192.972 104.06 192.724C103.612 192.476 103.264 192.12 103.016 191.656C102.768 191.192 102.644 190.652 102.644 190.036C102.644 189.42 102.768 188.884 103.016 188.428C103.264 187.964 103.612 187.608 104.06 187.36C104.516 187.112 105.044 186.988 105.644 186.988C106.244 186.988 106.768 187.112 107.216 187.36C107.672 187.608 108.02 187.964 108.26 188.428C108.508 188.884 108.632 189.42 108.632 190.036C108.632 190.652 108.508 191.192 108.26 191.656C108.02 192.12 107.672 192.476 107.216 192.724C106.768 192.972 106.244 193.096 105.644 193.096ZM105.632 191.932C106.12 191.932 106.492 191.772 106.748 191.452C107.004 191.132 107.132 190.66 107.132 190.036C107.132 189.42 107.004 188.952 106.748 188.632C106.492 188.304 106.124 188.14 105.644 188.14C105.164 188.14 104.792 188.304 104.528 188.632C104.272 188.952 104.144 189.42 104.144 190.036C104.144 190.66 104.272 191.132 104.528 191.452C104.784 191.772 105.152 191.932 105.632 191.932ZM112.883 191.956C113.283 191.98 113.483 192.16 113.483 192.496C113.483 192.688 113.403 192.836 113.243 192.94C113.091 193.036 112.871 193.076 112.583 193.06L112.259 193.036C110.915 192.94 110.243 192.22 110.243 190.876V188.26H109.643C109.427 188.26 109.259 188.212 109.139 188.116C109.027 188.02 108.971 187.88 108.971 187.696C108.971 187.512 109.027 187.372 109.139 187.276C109.259 187.18 109.427 187.132 109.643 187.132H110.243V186.028C110.243 185.812 110.311 185.64 110.447 185.512C110.583 185.384 110.767 185.32 110.999 185.32C111.223 185.32 111.403 185.384 111.539 185.512C111.675 185.64 111.743 185.812 111.743 186.028V187.132H112.763C112.979 187.132 113.143 187.18 113.255 187.276C113.375 187.372 113.435 187.512 113.435 187.696C113.435 187.88 113.375 188.02 113.255 188.116C113.143 188.212 112.979 188.26 112.763 188.26H111.743V190.984C111.743 191.576 112.015 191.892 112.559 191.932L112.883 191.956ZM118.908 191.392C119.044 191.392 119.152 191.444 119.232 191.548C119.32 191.652 119.364 191.792 119.364 191.968C119.364 192.216 119.216 192.424 118.92 192.592C118.648 192.744 118.34 192.868 117.996 192.964C117.652 193.052 117.324 193.096 117.012 193.096C116.068 193.096 115.32 192.824 114.768 192.28C114.216 191.736 113.94 190.992 113.94 190.048C113.94 189.448 114.06 188.916 114.3 188.452C114.54 187.988 114.876 187.628 115.308 187.372C115.748 187.116 116.244 186.988 116.796 186.988C117.324 186.988 117.784 187.104 118.176 187.336C118.568 187.568 118.872 187.896 119.088 188.32C119.304 188.744 119.412 189.244 119.412 189.82C119.412 190.164 119.26 190.336 118.956 190.336H115.416C115.464 190.888 115.62 191.296 115.884 191.56C116.148 191.816 116.532 191.944 117.036 191.944C117.292 191.944 117.516 191.912 117.708 191.848C117.908 191.784 118.132 191.696 118.38 191.584C118.62 191.456 118.796 191.392 118.908 191.392ZM116.832 188.044C116.424 188.044 116.096 188.172 115.848 188.428C115.608 188.684 115.464 189.052 115.416 189.532H118.128C118.112 189.044 117.992 188.676 117.768 188.428C117.544 188.172 117.232 188.044 116.832 188.044ZM121.383 193.072C121.167 193.072 120.987 193.012 120.843 192.892C120.707 192.764 120.639 192.584 120.639 192.352V185.188C120.639 184.956 120.707 184.78 120.843 184.66C120.987 184.54 121.167 184.48 121.383 184.48C121.599 184.48 121.779 184.54 121.923 184.66C122.067 184.78 122.139 184.956 122.139 185.188V192.352C122.139 192.584 122.067 192.764 121.923 192.892C121.779 193.012 121.599 193.072 121.383 193.072ZM132.284 188.632C132.772 188.768 133.148 189.016 133.412 189.376C133.684 189.736 133.82 190.176 133.82 190.696C133.82 191.416 133.56 191.98 133.04 192.388C132.528 192.796 131.82 193 130.916 193H127.82C127.588 193 127.404 192.936 127.268 192.808C127.14 192.68 127.076 192.5 127.076 192.268V185.272C127.076 185.04 127.14 184.86 127.268 184.732C127.404 184.604 127.588 184.54 127.82 184.54H130.796C131.676 184.54 132.364 184.736 132.86 185.128C133.364 185.512 133.616 186.052 133.616 186.748C133.616 187.196 133.496 187.584 133.256 187.912C133.024 188.24 132.7 188.48 132.284 188.632ZM128.588 188.104H130.544C131.608 188.104 132.14 187.708 132.14 186.916C132.14 186.516 132.008 186.22 131.744 186.028C131.48 185.836 131.08 185.74 130.544 185.74H128.588V188.104ZM130.748 191.8C131.308 191.8 131.716 191.7 131.972 191.5C132.228 191.3 132.356 190.988 132.356 190.564C132.356 190.14 132.224 189.824 131.96 189.616C131.704 189.408 131.3 189.304 130.748 189.304H128.588V191.8H130.748Z" fill="white"/>
<path d="M268.424 124.48C268.648 124.48 268.828 124.552 268.964 124.696C269.1 124.832 269.168 125.016 269.168 125.248V132.352C269.168 132.576 269.104 132.752 268.976 132.88C268.848 133.008 268.68 133.072 268.472 133.072C268.264 133.072 268.1 133.008 267.98 132.88C267.86 132.752 267.8 132.576 267.8 132.352V127.408L265.76 131.272C265.664 131.448 265.56 131.58 265.448 131.668C265.336 131.748 265.204 131.788 265.052 131.788C264.9 131.788 264.768 131.748 264.656 131.668C264.544 131.588 264.44 131.456 264.344 131.272L262.292 127.468V132.352C262.292 132.568 262.228 132.744 262.1 132.88C261.98 133.008 261.816 133.072 261.608 133.072C261.4 133.072 261.236 133.008 261.116 132.88C260.996 132.752 260.936 132.576 260.936 132.352V125.248C260.936 125.016 261 124.832 261.128 124.696C261.264 124.552 261.444 124.48 261.668 124.48C261.98 124.48 262.224 124.652 262.4 124.996L265.064 130.072L267.716 124.996C267.892 124.652 268.128 124.48 268.424 124.48ZM273.546 133.096C272.946 133.096 272.418 132.972 271.962 132.724C271.514 132.476 271.166 132.12 270.918 131.656C270.67 131.192 270.546 130.652 270.546 130.036C270.546 129.42 270.67 128.884 270.918 128.428C271.166 127.964 271.514 127.608 271.962 127.36C272.418 127.112 272.946 126.988 273.546 126.988C274.146 126.988 274.67 127.112 275.118 127.36C275.574 127.608 275.922 127.964 276.162 128.428C276.41 128.884 276.534 129.42 276.534 130.036C276.534 130.652 276.41 131.192 276.162 131.656C275.922 132.12 275.574 132.476 275.118 132.724C274.67 132.972 274.146 133.096 273.546 133.096ZM273.534 131.932C274.022 131.932 274.394 131.772 274.65 131.452C274.906 131.132 275.034 130.66 275.034 130.036C275.034 129.42 274.906 128.952 274.65 128.632C274.394 128.304 274.026 128.14 273.546 128.14C273.066 128.14 272.694 128.304 272.43 128.632C272.174 128.952 272.046 129.42 272.046 130.036C272.046 130.66 272.174 131.132 272.43 131.452C272.686 131.772 273.054 131.932 273.534 131.932ZM278.516 133.072C278.3 133.072 278.12 133.012 277.976 132.892C277.84 132.764 277.772 132.584 277.772 132.352V127.72C277.772 127.488 277.84 127.312 277.976 127.192C278.12 127.072 278.3 127.012 278.516 127.012C278.732 127.012 278.912 127.072 279.056 127.192C279.2 127.312 279.272 127.488 279.272 127.72V132.352C279.272 132.584 279.2 132.764 279.056 132.892C278.912 133.012 278.732 133.072 278.516 133.072ZM278.516 125.944C278.244 125.944 278.028 125.872 277.868 125.728C277.708 125.576 277.628 125.38 277.628 125.14C277.628 124.9 277.708 124.708 277.868 124.564C278.028 124.42 278.244 124.348 278.516 124.348C278.78 124.348 278.992 124.42 279.152 124.564C279.32 124.708 279.404 124.9 279.404 125.14C279.404 125.38 279.324 125.576 279.164 125.728C279.004 125.872 278.788 125.944 278.516 125.944Z" fill="#426262"/>
<path d="M268.424 249.48C268.648 249.48 268.828 249.552 268.964 249.696C269.1 249.832 269.168 250.016 269.168 250.248V257.352C269.168 257.576 269.104 257.752 268.976 257.88C268.848 258.008 268.68 258.072 268.472 258.072C268.264 258.072 268.1 258.008 267.98 257.88C267.86 257.752 267.8 257.576 267.8 257.352V252.408L265.76 256.272C265.664 256.448 265.56 256.58 265.448 256.668C265.336 256.748 265.204 256.788 265.052 256.788C264.9 256.788 264.768 256.748 264.656 256.668C264.544 256.588 264.44 256.456 264.344 256.272L262.292 252.468V257.352C262.292 257.568 262.228 257.744 262.1 257.88C261.98 258.008 261.816 258.072 261.608 258.072C261.4 258.072 261.236 258.008 261.116 257.88C260.996 257.752 260.936 257.576 260.936 257.352V250.248C260.936 250.016 261 249.832 261.128 249.696C261.264 249.552 261.444 249.48 261.668 249.48C261.98 249.48 262.224 249.652 262.4 249.996L265.064 255.072L267.716 249.996C267.892 249.652 268.128 249.48 268.424 249.48ZM273.546 258.096C272.946 258.096 272.418 257.972 271.962 257.724C271.514 257.476 271.166 257.12 270.918 256.656C270.67 256.192 270.546 255.652 270.546 255.036C270.546 254.42 270.67 253.884 270.918 253.428C271.166 252.964 271.514 252.608 271.962 252.36C272.418 252.112 272.946 251.988 273.546 251.988C274.146 251.988 274.67 252.112 275.118 252.36C275.574 252.608 275.922 252.964 276.162 253.428C276.41 253.884 276.534 254.42 276.534 255.036C276.534 255.652 276.41 256.192 276.162 256.656C275.922 257.12 275.574 257.476 275.118 257.724C274.67 257.972 274.146 258.096 273.546 258.096ZM273.534 256.932C274.022 256.932 274.394 256.772 274.65 256.452C274.906 256.132 275.034 255.66 275.034 255.036C275.034 254.42 274.906 253.952 274.65 253.632C274.394 253.304 274.026 253.14 273.546 253.14C273.066 253.14 272.694 253.304 272.43 253.632C272.174 253.952 272.046 254.42 272.046 255.036C272.046 255.66 272.174 256.132 272.43 256.452C272.686 256.772 273.054 256.932 273.534 256.932ZM278.516 258.072C278.3 258.072 278.12 258.012 277.976 257.892C277.84 257.764 277.772 257.584 277.772 257.352V252.72C277.772 252.488 277.84 252.312 277.976 252.192C278.12 252.072 278.3 252.012 278.516 252.012C278.732 252.012 278.912 252.072 279.056 252.192C279.2 252.312 279.272 252.488 279.272 252.72V257.352C279.272 257.584 279.2 257.764 279.056 257.892C278.912 258.012 278.732 258.072 278.516 258.072ZM278.516 250.944C278.244 250.944 278.028 250.872 277.868 250.728C277.708 250.576 277.628 250.38 277.628 250.14C277.628 249.9 277.708 249.708 277.868 249.564C278.028 249.42 278.244 249.348 278.516 249.348C278.78 249.348 278.992 249.42 279.152 249.564C279.32 249.708 279.404 249.9 279.404 250.14C279.404 250.38 279.324 250.576 279.164 250.728C279.004 250.872 278.788 250.944 278.516 250.944Z" fill="#426262"/>
<path d="M585.169 170.48C585.401 170.48 585.585 170.552 585.721 170.696C585.857 170.832 585.925 171.016 585.925 171.248V178.292C585.925 178.524 585.853 178.712 585.709 178.856C585.573 179 585.393 179.072 585.169 179.072C584.937 179.072 584.753 179 584.617 178.856C584.481 178.712 584.413 178.524 584.413 178.292V175.328H580.081V178.292C580.081 178.524 580.009 178.712 579.865 178.856C579.729 179 579.545 179.072 579.313 179.072C579.089 179.072 578.905 179 578.761 178.856C578.625 178.712 578.557 178.524 578.557 178.292V171.248C578.557 171.016 578.625 170.832 578.761 170.696C578.897 170.552 579.081 170.48 579.313 170.48C579.545 170.48 579.729 170.552 579.865 170.696C580.009 170.832 580.081 171.016 580.081 171.248V174.08H584.413V171.248C584.413 171.016 584.481 170.832 584.617 170.696C584.753 170.552 584.937 170.48 585.169 170.48ZM590.288 179.096C589.688 179.096 589.16 178.972 588.704 178.724C588.256 178.476 587.908 178.12 587.66 177.656C587.412 177.192 587.288 176.652 587.288 176.036C587.288 175.42 587.412 174.884 587.66 174.428C587.908 173.964 588.256 173.608 588.704 173.36C589.16 173.112 589.688 172.988 590.288 172.988C590.888 172.988 591.412 173.112 591.86 173.36C592.316 173.608 592.664 173.964 592.904 174.428C593.152 174.884 593.276 175.42 593.276 176.036C593.276 176.652 593.152 177.192 592.904 177.656C592.664 178.12 592.316 178.476 591.86 178.724C591.412 178.972 590.888 179.096 590.288 179.096ZM590.276 177.932C590.764 177.932 591.136 177.772 591.392 177.452C591.648 177.132 591.776 176.66 591.776 176.036C591.776 175.42 591.648 174.952 591.392 174.632C591.136 174.304 590.768 174.14 590.288 174.14C589.808 174.14 589.436 174.304 589.172 174.632C588.916 174.952 588.788 175.42 588.788 176.036C588.788 176.66 588.916 177.132 589.172 177.452C589.428 177.772 589.796 177.932 590.276 177.932ZM589.436 172.172C589.324 172.34 589.184 172.424 589.016 172.424C588.888 172.424 588.772 172.376 588.668 172.28C588.572 172.184 588.524 172.072 588.524 171.944C588.524 171.84 588.56 171.736 588.632 171.632L589.688 170.204C589.784 170.084 589.876 169.996 589.964 169.94C590.052 169.884 590.16 169.856 590.288 169.856C590.424 169.856 590.536 169.884 590.624 169.94C590.712 169.996 590.8 170.088 590.888 170.216L591.944 171.632C592.016 171.728 592.052 171.832 592.052 171.944C592.052 172.072 592 172.184 591.896 172.28C591.8 172.376 591.688 172.424 591.56 172.424C591.392 172.424 591.252 172.34 591.14 172.172L590.288 170.852L589.436 172.172ZM597.527 177.956C597.927 177.98 598.127 178.16 598.127 178.496C598.127 178.688 598.047 178.836 597.887 178.94C597.735 179.036 597.515 179.076 597.227 179.06L596.903 179.036C595.559 178.94 594.887 178.22 594.887 176.876V174.26H594.287C594.071 174.26 593.903 174.212 593.783 174.116C593.671 174.02 593.615 173.88 593.615 173.696C593.615 173.512 593.671 173.372 593.783 173.276C593.903 173.18 594.071 173.132 594.287 173.132H594.887V172.028C594.887 171.812 594.955 171.64 595.091 171.512C595.227 171.384 595.411 171.32 595.643 171.32C595.867 171.32 596.047 171.384 596.183 171.512C596.319 171.64 596.387 171.812 596.387 172.028V173.132H597.407C597.623 173.132 597.787 173.18 597.899 173.276C598.019 173.372 598.079 173.512 598.079 173.696C598.079 173.88 598.019 174.02 597.899 174.116C597.787 174.212 597.623 174.26 597.407 174.26H596.387V176.984C596.387 177.576 596.659 177.892 597.203 177.932L597.527 177.956ZM603.553 177.392C603.689 177.392 603.797 177.444 603.877 177.548C603.965 177.652 604.009 177.792 604.009 177.968C604.009 178.216 603.861 178.424 603.565 178.592C603.293 178.744 602.985 178.868 602.641 178.964C602.297 179.052 601.969 179.096 601.657 179.096C600.713 179.096 599.965 178.824 599.413 178.28C598.861 177.736 598.585 176.992 598.585 176.048C598.585 175.448 598.705 174.916 598.945 174.452C599.185 173.988 599.521 173.628 599.953 173.372C600.393 173.116 600.889 172.988 601.441 172.988C601.969 172.988 602.429 173.104 602.821 173.336C603.213 173.568 603.517 173.896 603.733 174.32C603.949 174.744 604.057 175.244 604.057 175.82C604.057 176.164 603.905 176.336 603.601 176.336H600.061C600.109 176.888 600.265 177.296 600.529 177.56C600.793 177.816 601.177 177.944 601.681 177.944C601.937 177.944 602.161 177.912 602.353 177.848C602.553 177.784 602.777 177.696 603.025 177.584C603.265 177.456 603.441 177.392 603.553 177.392ZM601.477 174.044C601.069 174.044 600.741 174.172 600.493 174.428C600.253 174.684 600.109 175.052 600.061 175.532H602.773C602.757 175.044 602.637 174.676 602.413 174.428C602.189 174.172 601.877 174.044 601.477 174.044ZM606.028 179.072C605.812 179.072 605.632 179.012 605.488 178.892C605.352 178.764 605.284 178.584 605.284 178.352V171.188C605.284 170.956 605.352 170.78 605.488 170.66C605.632 170.54 605.812 170.48 606.028 170.48C606.244 170.48 606.424 170.54 606.568 170.66C606.712 170.78 606.784 170.956 606.784 171.188V178.352C606.784 178.584 606.712 178.764 606.568 178.892C606.424 179.012 606.244 179.072 606.028 179.072ZM616.929 174.632C617.417 174.768 617.793 175.016 618.057 175.376C618.329 175.736 618.465 176.176 618.465 176.696C618.465 177.416 618.205 177.98 617.685 178.388C617.173 178.796 616.465 179 615.561 179H612.465C612.233 179 612.049 178.936 611.913 178.808C611.785 178.68 611.721 178.5 611.721 178.268V171.272C611.721 171.04 611.785 170.86 611.913 170.732C612.049 170.604 612.233 170.54 612.465 170.54H615.441C616.321 170.54 617.009 170.736 617.505 171.128C618.009 171.512 618.261 172.052 618.261 172.748C618.261 173.196 618.141 173.584 617.901 173.912C617.669 174.24 617.345 174.48 616.929 174.632ZM613.233 174.104H615.189C616.253 174.104 616.785 173.708 616.785 172.916C616.785 172.516 616.653 172.22 616.389 172.028C616.125 171.836 615.725 171.74 615.189 171.74H613.233V174.104ZM615.393 177.8C615.953 177.8 616.361 177.7 616.617 177.5C616.873 177.3 617.001 176.988 617.001 176.564C617.001 176.14 616.869 175.824 616.605 175.616C616.349 175.408 615.945 175.304 615.393 175.304H613.233V177.8H615.393Z" fill="#426262"/>
<path d="M585.169 283.48C585.401 283.48 585.585 283.552 585.721 283.696C585.857 283.832 585.925 284.016 585.925 284.248V291.292C585.925 291.524 585.853 291.712 585.709 291.856C585.573 292 585.393 292.072 585.169 292.072C584.937 292.072 584.753 292 584.617 291.856C584.481 291.712 584.413 291.524 584.413 291.292V288.328H580.081V291.292C580.081 291.524 580.009 291.712 579.865 291.856C579.729 292 579.545 292.072 579.313 292.072C579.089 292.072 578.905 292 578.761 291.856C578.625 291.712 578.557 291.524 578.557 291.292V284.248C578.557 284.016 578.625 283.832 578.761 283.696C578.897 283.552 579.081 283.48 579.313 283.48C579.545 283.48 579.729 283.552 579.865 283.696C580.009 283.832 580.081 284.016 580.081 284.248V287.08H584.413V284.248C584.413 284.016 584.481 283.832 584.617 283.696C584.753 283.552 584.937 283.48 585.169 283.48ZM590.288 292.096C589.688 292.096 589.16 291.972 588.704 291.724C588.256 291.476 587.908 291.12 587.66 290.656C587.412 290.192 587.288 289.652 587.288 289.036C587.288 288.42 587.412 287.884 587.66 287.428C587.908 286.964 588.256 286.608 588.704 286.36C589.16 286.112 589.688 285.988 590.288 285.988C590.888 285.988 591.412 286.112 591.86 286.36C592.316 286.608 592.664 286.964 592.904 287.428C593.152 287.884 593.276 288.42 593.276 289.036C593.276 289.652 593.152 290.192 592.904 290.656C592.664 291.12 592.316 291.476 591.86 291.724C591.412 291.972 590.888 292.096 590.288 292.096ZM590.276 290.932C590.764 290.932 591.136 290.772 591.392 290.452C591.648 290.132 591.776 289.66 591.776 289.036C591.776 288.42 591.648 287.952 591.392 287.632C591.136 287.304 590.768 287.14 590.288 287.14C589.808 287.14 589.436 287.304 589.172 287.632C588.916 287.952 588.788 288.42 588.788 289.036C588.788 289.66 588.916 290.132 589.172 290.452C589.428 290.772 589.796 290.932 590.276 290.932ZM589.436 285.172C589.324 285.34 589.184 285.424 589.016 285.424C588.888 285.424 588.772 285.376 588.668 285.28C588.572 285.184 588.524 285.072 588.524 284.944C588.524 284.84 588.56 284.736 588.632 284.632L589.688 283.204C589.784 283.084 589.876 282.996 589.964 282.94C590.052 282.884 590.16 282.856 590.288 282.856C590.424 282.856 590.536 282.884 590.624 282.94C590.712 282.996 590.8 283.088 590.888 283.216L591.944 284.632C592.016 284.728 592.052 284.832 592.052 284.944C592.052 285.072 592 285.184 591.896 285.28C591.8 285.376 591.688 285.424 591.56 285.424C591.392 285.424 591.252 285.34 591.14 285.172L590.288 283.852L589.436 285.172ZM597.527 290.956C597.927 290.98 598.127 291.16 598.127 291.496C598.127 291.688 598.047 291.836 597.887 291.94C597.735 292.036 597.515 292.076 597.227 292.06L596.903 292.036C595.559 291.94 594.887 291.22 594.887 289.876V287.26H594.287C594.071 287.26 593.903 287.212 593.783 287.116C593.671 287.02 593.615 286.88 593.615 286.696C593.615 286.512 593.671 286.372 593.783 286.276C593.903 286.18 594.071 286.132 594.287 286.132H594.887V285.028C594.887 284.812 594.955 284.64 595.091 284.512C595.227 284.384 595.411 284.32 595.643 284.32C595.867 284.32 596.047 284.384 596.183 284.512C596.319 284.64 596.387 284.812 596.387 285.028V286.132H597.407C597.623 286.132 597.787 286.18 597.899 286.276C598.019 286.372 598.079 286.512 598.079 286.696C598.079 286.88 598.019 287.02 597.899 287.116C597.787 287.212 597.623 287.26 597.407 287.26H596.387V289.984C596.387 290.576 596.659 290.892 597.203 290.932L597.527 290.956ZM603.553 290.392C603.689 290.392 603.797 290.444 603.877 290.548C603.965 290.652 604.009 290.792 604.009 290.968C604.009 291.216 603.861 291.424 603.565 291.592C603.293 291.744 602.985 291.868 602.641 291.964C602.297 292.052 601.969 292.096 601.657 292.096C600.713 292.096 599.965 291.824 599.413 291.28C598.861 290.736 598.585 289.992 598.585 289.048C598.585 288.448 598.705 287.916 598.945 287.452C599.185 286.988 599.521 286.628 599.953 286.372C600.393 286.116 600.889 285.988 601.441 285.988C601.969 285.988 602.429 286.104 602.821 286.336C603.213 286.568 603.517 286.896 603.733 287.32C603.949 287.744 604.057 288.244 604.057 288.82C604.057 289.164 603.905 289.336 603.601 289.336H600.061C600.109 289.888 600.265 290.296 600.529 290.56C600.793 290.816 601.177 290.944 601.681 290.944C601.937 290.944 602.161 290.912 602.353 290.848C602.553 290.784 602.777 290.696 603.025 290.584C603.265 290.456 603.441 290.392 603.553 290.392ZM601.477 287.044C601.069 287.044 600.741 287.172 600.493 287.428C600.253 287.684 600.109 288.052 600.061 288.532H602.773C602.757 288.044 602.637 287.676 602.413 287.428C602.189 287.172 601.877 287.044 601.477 287.044ZM606.028 292.072C605.812 292.072 605.632 292.012 605.488 291.892C605.352 291.764 605.284 291.584 605.284 291.352V284.188C605.284 283.956 605.352 283.78 605.488 283.66C605.632 283.54 605.812 283.48 606.028 283.48C606.244 283.48 606.424 283.54 606.568 283.66C606.712 283.78 606.784 283.956 606.784 284.188V291.352C606.784 291.584 606.712 291.764 606.568 291.892C606.424 292.012 606.244 292.072 606.028 292.072ZM616.929 287.632C617.417 287.768 617.793 288.016 618.057 288.376C618.329 288.736 618.465 289.176 618.465 289.696C618.465 290.416 618.205 290.98 617.685 291.388C617.173 291.796 616.465 292 615.561 292H612.465C612.233 292 612.049 291.936 611.913 291.808C611.785 291.68 611.721 291.5 611.721 291.268V284.272C611.721 284.04 611.785 283.86 611.913 283.732C612.049 283.604 612.233 283.54 612.465 283.54H615.441C616.321 283.54 617.009 283.736 617.505 284.128C618.009 284.512 618.261 285.052 618.261 285.748C618.261 286.196 618.141 286.584 617.901 286.912C617.669 287.24 617.345 287.48 616.929 287.632ZM613.233 287.104H615.189C616.253 287.104 616.785 286.708 616.785 285.916C616.785 285.516 616.653 285.22 616.389 285.028C616.125 284.836 615.725 284.74 615.189 284.74H613.233V287.104ZM615.393 290.8C615.953 290.8 616.361 290.7 616.617 290.5C616.873 290.3 617.001 289.988 617.001 289.564C617.001 289.14 616.869 288.824 616.605 288.616C616.349 288.408 615.945 288.304 615.393 288.304H613.233V290.8H615.393Z" fill="#426262"/>
<rect x="31" y="110" width="158" height="48" rx="24" fill="white" stroke="#426262" stroke-width="2"/>
<circle cx="56" cy="134" r="19" fill="#CB563E"/>
<path d="M95 121H133" stroke="#CB563E" stroke-width="5" stroke-linecap="round"/>
<path d="M95 134H150" stroke="#71C0A0" stroke-width="3" stroke-linecap="round"/>
<path d="M95 141H166" stroke="#71C0A0" stroke-width="3" stroke-linecap="round"/>
<path d="M95 148H161" stroke="#71C0A0" stroke-width="3" stroke-linecap="round"/>
<rect x="31" y="311" width="158" height="48" rx="24" fill="white" stroke="#426262" stroke-width="2"/>
<circle cx="56" cy="335" r="19" fill="#CB563E"/>
<path d="M95 322H133" stroke="#CB563E" stroke-width="5" stroke-linecap="round"/>
<path d="M95 335H150" stroke="#71C0A0" stroke-width="3" stroke-linecap="round"/>
<path d="M95 342H166" stroke="#71C0A0" stroke-width="3" stroke-linecap="round"/>
<path d="M95 349H161" stroke="#71C0A0" stroke-width="3" stroke-linecap="round"/>
<path d="M265.898 406C265.492 406 265.17 405.888 264.932 405.664C264.708 405.44 264.596 405.125 264.596 404.719V392.476C264.596 392.07 264.708 391.755 264.932 391.531C265.17 391.307 265.492 391.195 265.898 391.195H273.479C273.885 391.195 274.2 391.286 274.424 391.468C274.648 391.65 274.76 391.909 274.76 392.245C274.76 392.595 274.648 392.868 274.424 393.064C274.2 393.246 273.885 393.337 273.479 393.337H267.242V397.411H273.059C273.465 397.411 273.78 397.502 274.004 397.684C274.228 397.866 274.34 398.132 274.34 398.482C274.34 398.818 274.228 399.077 274.004 399.259C273.78 399.441 273.465 399.532 273.059 399.532H267.242V403.858H273.479C273.885 403.858 274.2 403.956 274.424 404.152C274.648 404.334 274.76 404.6 274.76 404.95C274.76 405.286 274.648 405.545 274.424 405.727C274.2 405.909 273.885 406 273.479 406H265.898ZM270.224 389.956C270.112 390.012 270 390.04 269.888 390.04C269.706 390.04 269.552 389.984 269.426 389.872C269.3 389.746 269.237 389.606 269.237 389.452C269.237 389.298 269.314 389.144 269.468 388.99L271.379 387.016C271.645 386.736 271.946 386.596 272.282 386.596C272.562 386.596 272.8 386.701 272.996 386.911C273.206 387.107 273.311 387.338 273.311 387.604C273.311 387.786 273.248 387.961 273.122 388.129C273.01 388.297 272.835 388.444 272.597 388.57L270.224 389.956ZM281.288 406.168C280.266 406.168 279.363 405.951 278.579 405.517C277.809 405.083 277.214 404.467 276.794 403.669C276.374 402.871 276.164 401.94 276.164 400.876C276.164 399.812 276.381 398.874 276.815 398.062C277.263 397.236 277.886 396.599 278.684 396.151C279.482 395.703 280.399 395.479 281.435 395.479C281.981 395.479 282.527 395.556 283.073 395.71C283.633 395.864 284.123 396.074 284.543 396.34C284.991 396.634 285.215 397.005 285.215 397.453C285.215 397.761 285.138 398.013 284.984 398.209C284.844 398.391 284.655 398.482 284.417 398.482C284.263 398.482 284.102 398.447 283.934 398.377C283.766 398.307 283.598 398.223 283.43 398.125C283.122 397.943 282.828 397.803 282.548 397.705C282.268 397.593 281.946 397.537 281.582 397.537C280.714 397.537 280.042 397.824 279.566 398.398C279.104 398.958 278.873 399.77 278.873 400.834C278.873 401.884 279.104 402.696 279.566 403.27C280.042 403.83 280.714 404.11 281.582 404.11C281.932 404.11 282.24 404.061 282.506 403.963C282.786 403.851 283.094 403.704 283.43 403.522C283.64 403.396 283.822 403.305 283.976 403.249C284.13 403.179 284.284 403.144 284.438 403.144C284.662 403.144 284.851 403.242 285.005 403.438C285.159 403.634 285.236 403.879 285.236 404.173C285.236 404.411 285.18 404.621 285.068 404.803C284.97 404.971 284.802 405.125 284.564 405.265C284.13 405.545 283.626 405.769 283.052 405.937C282.478 406.091 281.89 406.168 281.288 406.168ZM292.718 395.521C293.082 395.493 293.369 395.57 293.579 395.752C293.789 395.934 293.894 396.207 293.894 396.571C293.894 396.949 293.803 397.229 293.621 397.411C293.439 397.593 293.11 397.712 292.634 397.768L292.004 397.831C291.178 397.915 290.569 398.195 290.177 398.671C289.799 399.147 289.61 399.742 289.61 400.456V404.866C289.61 405.272 289.484 405.587 289.232 405.811C288.98 406.021 288.665 406.126 288.287 406.126C287.909 406.126 287.594 406.021 287.342 405.811C287.104 405.587 286.985 405.272 286.985 404.866V396.739C286.985 396.347 287.104 396.046 287.342 395.836C287.594 395.626 287.902 395.521 288.266 395.521C288.63 395.521 288.924 395.626 289.148 395.836C289.372 396.032 289.484 396.319 289.484 396.697V397.537C289.75 396.921 290.142 396.445 290.66 396.109C291.192 395.773 291.78 395.584 292.424 395.542L292.718 395.521ZM296.326 406.126C295.948 406.126 295.633 406.021 295.381 405.811C295.143 405.587 295.024 405.272 295.024 404.866V396.76C295.024 396.354 295.143 396.046 295.381 395.836C295.633 395.626 295.948 395.521 296.326 395.521C296.704 395.521 297.019 395.626 297.271 395.836C297.523 396.046 297.649 396.354 297.649 396.76V404.866C297.649 405.272 297.523 405.587 297.271 405.811C297.019 406.021 296.704 406.126 296.326 406.126ZM296.326 393.652C295.85 393.652 295.472 393.526 295.192 393.274C294.912 393.008 294.772 392.665 294.772 392.245C294.772 391.825 294.912 391.489 295.192 391.237C295.472 390.985 295.85 390.859 296.326 390.859C296.788 390.859 297.159 390.985 297.439 391.237C297.733 391.489 297.88 391.825 297.88 392.245C297.88 392.665 297.74 393.008 297.46 393.274C297.18 393.526 296.802 393.652 296.326 393.652ZM304.073 406.168C302.547 406.168 301.315 405.867 300.377 405.265C299.929 404.999 299.705 404.621 299.705 404.131C299.705 403.851 299.782 403.627 299.936 403.459C300.09 403.277 300.279 403.186 300.503 403.186C300.741 403.186 301.07 403.298 301.49 403.522C301.938 403.732 302.344 403.893 302.708 404.005C303.086 404.117 303.562 404.173 304.136 404.173C304.724 404.173 305.179 404.075 305.501 403.879C305.837 403.683 306.005 403.41 306.005 403.06C306.005 402.822 305.935 402.633 305.795 402.493C305.669 402.353 305.431 402.227 305.081 402.115C304.745 401.989 304.227 401.849 303.527 401.695C302.281 401.443 301.385 401.086 300.839 400.624C300.307 400.162 300.041 399.525 300.041 398.713C300.041 398.097 300.223 397.544 300.587 397.054C300.951 396.55 301.448 396.165 302.078 395.899C302.722 395.619 303.45 395.479 304.262 395.479C304.85 395.479 305.417 395.556 305.963 395.71C306.509 395.85 306.999 396.06 307.433 396.34C307.881 396.62 308.105 396.991 308.105 397.453C308.105 397.733 308.028 397.971 307.874 398.167C307.72 398.349 307.531 398.44 307.307 398.44C307.153 398.44 306.999 398.412 306.845 398.356C306.705 398.286 306.523 398.188 306.299 398.062C305.893 397.852 305.543 397.698 305.249 397.6C304.955 397.488 304.591 397.432 304.157 397.432C303.639 397.432 303.226 397.537 302.918 397.747C302.624 397.957 302.477 398.244 302.477 398.608C302.477 398.958 302.631 399.224 302.939 399.406C303.247 399.588 303.842 399.77 304.724 399.952C305.662 400.148 306.397 400.372 306.929 400.624C307.461 400.876 307.839 401.191 308.063 401.569C308.301 401.947 308.42 402.43 308.42 403.018C308.42 403.97 308.021 404.733 307.223 405.307C306.439 405.881 305.389 406.168 304.073 406.168ZM321.584 404.173C322.284 404.215 322.634 404.53 322.634 405.118C322.634 405.454 322.494 405.713 322.214 405.895C321.948 406.063 321.563 406.133 321.059 406.105L320.492 406.063C318.14 405.895 316.964 404.635 316.964 402.283V397.705H315.914C315.536 397.705 315.242 397.621 315.032 397.453C314.836 397.285 314.738 397.04 314.738 396.718C314.738 396.396 314.836 396.151 315.032 395.983C315.242 395.815 315.536 395.731 315.914 395.731H316.964V393.799C316.964 393.421 317.083 393.12 317.321 392.896C317.559 392.672 317.881 392.56 318.287 392.56C318.679 392.56 318.994 392.672 319.232 392.896C319.47 393.12 319.589 393.421 319.589 393.799V395.731H321.374C321.752 395.731 322.039 395.815 322.235 395.983C322.445 396.151 322.55 396.396 322.55 396.718C322.55 397.04 322.445 397.285 322.235 397.453C322.039 397.621 321.752 397.705 321.374 397.705H319.589V402.472C319.589 403.508 320.065 404.061 321.017 404.131L321.584 404.173ZM328.685 406.168C327.635 406.168 326.711 405.951 325.913 405.517C325.129 405.083 324.52 404.46 324.086 403.648C323.652 402.836 323.435 401.891 323.435 400.813C323.435 399.735 323.652 398.797 324.086 397.999C324.52 397.187 325.129 396.564 325.913 396.13C326.711 395.696 327.635 395.479 328.685 395.479C329.735 395.479 330.652 395.696 331.436 396.13C332.234 396.564 332.843 397.187 333.263 397.999C333.697 398.797 333.914 399.735 333.914 400.813C333.914 401.891 333.697 402.836 333.263 403.648C332.843 404.46 332.234 405.083 331.436 405.517C330.652 405.951 329.735 406.168 328.685 406.168ZM328.664 404.131C329.518 404.131 330.169 403.851 330.617 403.291C331.065 402.731 331.289 401.905 331.289 400.813C331.289 399.735 331.065 398.916 330.617 398.356C330.169 397.782 329.525 397.495 328.685 397.495C327.845 397.495 327.194 397.782 326.732 398.356C326.284 398.916 326.06 399.735 326.06 400.813C326.06 401.905 326.284 402.731 326.732 403.291C327.18 403.851 327.824 404.131 328.664 404.131ZM342.045 395.479C343.277 395.479 344.194 395.829 344.796 396.529C345.398 397.229 345.699 398.286 345.699 399.7V404.866C345.699 405.258 345.58 405.566 345.342 405.79C345.118 406.014 344.803 406.126 344.397 406.126C343.991 406.126 343.669 406.014 343.431 405.79C343.193 405.566 343.074 405.258 343.074 404.866V399.847C343.074 399.049 342.92 398.468 342.612 398.104C342.318 397.74 341.849 397.558 341.205 397.558C340.449 397.558 339.84 397.796 339.378 398.272C338.93 398.748 338.706 399.385 338.706 400.183V404.866C338.706 405.258 338.587 405.566 338.349 405.79C338.111 406.014 337.789 406.126 337.383 406.126C336.977 406.126 336.655 406.014 336.417 405.79C336.193 405.566 336.081 405.258 336.081 404.866V396.739C336.081 396.375 336.2 396.081 336.438 395.857C336.676 395.633 336.998 395.521 337.404 395.521C337.768 395.521 338.062 395.633 338.286 395.857C338.524 396.067 338.643 396.347 338.643 396.697V397.264C338.993 396.69 339.462 396.249 340.05 395.941C340.638 395.633 341.303 395.479 342.045 395.479ZM366.267 395.479C367.387 395.479 368.241 395.815 368.829 396.487C369.431 397.145 369.732 398.216 369.732 399.7V404.866C369.732 405.272 369.606 405.587 369.354 405.811C369.116 406.021 368.801 406.126 368.409 406.126C368.031 406.126 367.716 406.021 367.464 405.811C367.226 405.587 367.107 405.272 367.107 404.866V399.7C367.107 398.93 366.967 398.384 366.687 398.062C366.421 397.726 366.008 397.558 365.448 397.558C364.762 397.558 364.216 397.796 363.81 398.272C363.404 398.734 363.201 399.371 363.201 400.183V404.866C363.201 405.272 363.075 405.587 362.823 405.811C362.585 406.021 362.277 406.126 361.899 406.126C361.521 406.126 361.206 406.021 360.954 405.811C360.702 405.587 360.576 405.272 360.576 404.866V399.7C360.576 398.93 360.436 398.384 360.156 398.062C359.89 397.726 359.477 397.558 358.917 397.558C358.231 397.558 357.685 397.796 357.279 398.272C356.887 398.734 356.691 399.371 356.691 400.183V404.866C356.691 405.272 356.565 405.587 356.313 405.811C356.061 406.021 355.746 406.126 355.368 406.126C354.99 406.126 354.675 406.021 354.423 405.811C354.185 405.587 354.066 405.272 354.066 404.866V396.739C354.066 396.347 354.192 396.046 354.444 395.836C354.696 395.626 355.011 395.521 355.389 395.521C355.753 395.521 356.047 395.626 356.271 395.836C356.509 396.032 356.628 396.319 356.628 396.697V397.201C356.95 396.641 357.377 396.214 357.909 395.92C358.455 395.626 359.078 395.479 359.778 395.479C361.318 395.479 362.347 396.123 362.865 397.411C363.173 396.823 363.628 396.354 364.23 396.004C364.832 395.654 365.511 395.479 366.267 395.479ZM380.527 403.186C380.765 403.186 380.954 403.277 381.094 403.459C381.248 403.641 381.325 403.886 381.325 404.194C381.325 404.628 381.066 404.992 380.548 405.286C380.072 405.552 379.533 405.769 378.931 405.937C378.329 406.091 377.755 406.168 377.209 406.168C375.557 406.168 374.248 405.692 373.282 404.74C372.316 403.788 371.833 402.486 371.833 400.834C371.833 399.784 372.043 398.853 372.463 398.041C372.883 397.229 373.471 396.599 374.227 396.151C374.997 395.703 375.865 395.479 376.831 395.479C377.755 395.479 378.56 395.682 379.246 396.088C379.932 396.494 380.464 397.068 380.842 397.81C381.22 398.552 381.409 399.427 381.409 400.435C381.409 401.037 381.143 401.338 380.611 401.338H374.416C374.5 402.304 374.773 403.018 375.235 403.48C375.697 403.928 376.369 404.152 377.251 404.152C377.699 404.152 378.091 404.096 378.427 403.984C378.777 403.872 379.169 403.718 379.603 403.522C380.023 403.298 380.331 403.186 380.527 403.186ZM376.894 397.327C376.18 397.327 375.606 397.551 375.172 397.999C374.752 398.447 374.5 399.091 374.416 399.931H379.162C379.134 399.077 378.924 398.433 378.532 397.999C378.14 397.551 377.594 397.327 376.894 397.327ZM387.273 406.168C385.747 406.168 384.515 405.867 383.577 405.265C383.129 404.999 382.905 404.621 382.905 404.131C382.905 403.851 382.982 403.627 383.136 403.459C383.29 403.277 383.479 403.186 383.703 403.186C383.941 403.186 384.27 403.298 384.69 403.522C385.138 403.732 385.544 403.893 385.908 404.005C386.286 404.117 386.762 404.173 387.336 404.173C387.924 404.173 388.379 404.075 388.701 403.879C389.037 403.683 389.205 403.41 389.205 403.06C389.205 402.822 389.135 402.633 388.995 402.493C388.869 402.353 388.631 402.227 388.281 402.115C387.945 401.989 387.427 401.849 386.727 401.695C385.481 401.443 384.585 401.086 384.039 400.624C383.507 400.162 383.241 399.525 383.241 398.713C383.241 398.097 383.423 397.544 383.787 397.054C384.151 396.55 384.648 396.165 385.278 395.899C385.922 395.619 386.65 395.479 387.462 395.479C388.05 395.479 388.617 395.556 389.163 395.71C389.709 395.85 390.199 396.06 390.633 396.34C391.081 396.62 391.305 396.991 391.305 397.453C391.305 397.733 391.228 397.971 391.074 398.167C390.92 398.349 390.731 398.44 390.507 398.44C390.353 398.44 390.199 398.412 390.045 398.356C389.905 398.286 389.723 398.188 389.499 398.062C389.093 397.852 388.743 397.698 388.449 397.6C388.155 397.488 387.791 397.432 387.357 397.432C386.839 397.432 386.426 397.537 386.118 397.747C385.824 397.957 385.677 398.244 385.677 398.608C385.677 398.958 385.831 399.224 386.139 399.406C386.447 399.588 387.042 399.77 387.924 399.952C388.862 400.148 389.597 400.372 390.129 400.624C390.661 400.876 391.039 401.191 391.263 401.569C391.501 401.947 391.62 402.43 391.62 403.018C391.62 403.97 391.221 404.733 390.423 405.307C389.639 405.881 388.589 406.168 387.273 406.168ZM397.466 406.168C395.94 406.168 394.708 405.867 393.77 405.265C393.322 404.999 393.098 404.621 393.098 404.131C393.098 403.851 393.175 403.627 393.329 403.459C393.483 403.277 393.672 403.186 393.896 403.186C394.134 403.186 394.463 403.298 394.883 403.522C395.331 403.732 395.737 403.893 396.101 404.005C396.479 404.117 396.955 404.173 397.529 404.173C398.117 404.173 398.572 404.075 398.894 403.879C399.23 403.683 399.398 403.41 399.398 403.06C399.398 402.822 399.328 402.633 399.188 402.493C399.062 402.353 398.824 402.227 398.474 402.115C398.138 401.989 397.62 401.849 396.92 401.695C395.674 401.443 394.778 401.086 394.232 400.624C393.7 400.162 393.434 399.525 393.434 398.713C393.434 398.097 393.616 397.544 393.98 397.054C394.344 396.55 394.841 396.165 395.471 395.899C396.115 395.619 396.843 395.479 397.655 395.479C398.243 395.479 398.81 395.556 399.356 395.71C399.902 395.85 400.392 396.06 400.826 396.34C401.274 396.62 401.498 396.991 401.498 397.453C401.498 397.733 401.421 397.971 401.267 398.167C401.113 398.349 400.924 398.44 400.7 398.44C400.546 398.44 400.392 398.412 400.238 398.356C400.098 398.286 399.916 398.188 399.692 398.062C399.286 397.852 398.936 397.698 398.642 397.6C398.348 397.488 397.984 397.432 397.55 397.432C397.032 397.432 396.619 397.537 396.311 397.747C396.017 397.957 395.87 398.244 395.87 398.608C395.87 398.958 396.024 399.224 396.332 399.406C396.64 399.588 397.235 399.77 398.117 399.952C399.055 400.148 399.79 400.372 400.322 400.624C400.854 400.876 401.232 401.191 401.456 401.569C401.694 401.947 401.813 402.43 401.813 403.018C401.813 403.97 401.414 404.733 400.616 405.307C399.832 405.881 398.782 406.168 397.466 406.168ZM408.393 395.479C409.821 395.479 410.878 395.836 411.564 396.55C412.264 397.25 412.614 398.321 412.614 399.763V404.887C412.614 405.265 412.502 405.566 412.278 405.79C412.054 406 411.746 406.105 411.354 406.105C410.99 406.105 410.689 405.993 410.451 405.769C410.227 405.545 410.115 405.251 410.115 404.887V404.425C409.877 404.971 409.499 405.398 408.981 405.706C408.477 406.014 407.889 406.168 407.217 406.168C406.531 406.168 405.908 406.028 405.348 405.748C404.788 405.468 404.347 405.083 404.025 404.593C403.703 404.103 403.542 403.557 403.542 402.955C403.542 402.199 403.731 401.604 404.109 401.17C404.501 400.736 405.131 400.421 405.999 400.225C406.867 400.029 408.064 399.931 409.59 399.931H410.115V399.448C410.115 398.762 409.968 398.265 409.674 397.957C409.38 397.635 408.904 397.474 408.246 397.474C407.84 397.474 407.427 397.537 407.007 397.663C406.587 397.775 406.09 397.943 405.516 398.167C405.152 398.349 404.886 398.44 404.718 398.44C404.466 398.44 404.256 398.349 404.088 398.167C403.934 397.985 403.857 397.747 403.857 397.453C403.857 397.215 403.913 397.012 404.025 396.844C404.151 396.662 404.354 396.494 404.634 396.34C405.124 396.074 405.705 395.864 406.377 395.71C407.063 395.556 407.735 395.479 408.393 395.479ZM407.742 404.278C408.442 404.278 409.009 404.047 409.443 403.585C409.891 403.109 410.115 402.5 410.115 401.758V401.317H409.737C408.799 401.317 408.071 401.359 407.553 401.443C407.035 401.527 406.664 401.674 406.44 401.884C406.216 402.094 406.104 402.381 406.104 402.745C406.104 403.193 406.258 403.564 406.566 403.858C406.888 404.138 407.28 404.278 407.742 404.278ZM423.976 395.521C424.368 395.521 424.683 395.633 424.921 395.857C425.159 396.081 425.278 396.382 425.278 396.76V405.055C425.278 406.665 424.83 407.883 423.934 408.709C423.038 409.535 421.715 409.948 419.965 409.948C418.439 409.948 417.165 409.661 416.143 409.087C415.625 408.779 415.366 408.408 415.366 407.974C415.366 407.666 415.436 407.421 415.576 407.239C415.73 407.057 415.926 406.966 416.164 406.966C416.29 406.966 416.444 406.994 416.626 407.05C416.808 407.12 416.997 407.197 417.193 407.281C417.697 407.491 418.145 407.652 418.537 407.764C418.943 407.876 419.405 407.932 419.923 407.932C421.757 407.932 422.674 407.036 422.674 405.244V403.9C422.366 404.474 421.918 404.922 421.33 405.244C420.742 405.552 420.07 405.706 419.314 405.706C418.418 405.706 417.62 405.496 416.92 405.076C416.234 404.642 415.695 404.04 415.303 403.27C414.911 402.5 414.715 401.611 414.715 400.603C414.715 399.595 414.904 398.706 415.282 397.936C415.674 397.152 416.22 396.55 416.92 396.13C417.62 395.696 418.418 395.479 419.314 395.479C420.07 395.479 420.742 395.64 421.33 395.962C421.918 396.27 422.366 396.711 422.674 397.285V396.739C422.674 396.375 422.793 396.081 423.031 395.857C423.269 395.633 423.584 395.521 423.976 395.521ZM420.007 403.669C420.847 403.669 421.498 403.396 421.96 402.85C422.436 402.304 422.674 401.555 422.674 400.603C422.674 399.637 422.436 398.881 421.96 398.335C421.498 397.789 420.847 397.516 420.007 397.516C419.181 397.516 418.53 397.789 418.054 398.335C417.578 398.881 417.34 399.637 417.34 400.603C417.34 401.555 417.578 402.304 418.054 402.85C418.53 403.396 419.181 403.669 420.007 403.669ZM436.124 403.186C436.362 403.186 436.551 403.277 436.691 403.459C436.845 403.641 436.922 403.886 436.922 404.194C436.922 404.628 436.663 404.992 436.145 405.286C435.669 405.552 435.13 405.769 434.528 405.937C433.926 406.091 433.352 406.168 432.806 406.168C431.154 406.168 429.845 405.692 428.879 404.74C427.913 403.788 427.43 402.486 427.43 400.834C427.43 399.784 427.64 398.853 428.06 398.041C428.48 397.229 429.068 396.599 429.824 396.151C430.594 395.703 431.462 395.479 432.428 395.479C433.352 395.479 434.157 395.682 434.843 396.088C435.529 396.494 436.061 397.068 436.439 397.81C436.817 398.552 437.006 399.427 437.006 400.435C437.006 401.037 436.74 401.338 436.208 401.338H430.013C430.097 402.304 430.37 403.018 430.832 403.48C431.294 403.928 431.966 404.152 432.848 404.152C433.296 404.152 433.688 404.096 434.024 403.984C434.374 403.872 434.766 403.718 435.2 403.522C435.62 403.298 435.928 403.186 436.124 403.186ZM432.491 397.327C431.777 397.327 431.203 397.551 430.769 397.999C430.349 398.447 430.097 399.091 430.013 399.931H434.759C434.731 399.077 434.521 398.433 434.129 397.999C433.737 397.551 433.191 397.327 432.491 397.327Z" fill="white"/>
<path d="M263 150H428" stroke="white" stroke-width="3" stroke-linecap="round"/>
<path d="M448 197H596" stroke="white" stroke-width="3" stroke-linecap="round"/>
<path d="M490 310H616" stroke="white" stroke-width="3" stroke-linecap="round"/>
<path d="M263 272H319" stroke="white" stroke-width="3" stroke-linecap="round"/>
<path d="M263 279H331" stroke="white" stroke-width="3" stroke-linecap="round"/>
<path d="M263 157H403" stroke="white" stroke-width="3" stroke-linecap="round"/>
<path d="M448 204H619" stroke="white" stroke-width="3" stroke-linecap="round"/>
<path d="M490 317H605" stroke="white" stroke-width="3" stroke-linecap="round"/>
<path d="M263 164H420" stroke="white" stroke-width="3" stroke-linecap="round"/>
<path d="M448 211H605" stroke="white" stroke-width="3" stroke-linecap="round"/>
<path d="M578 242L621 242" stroke="white" stroke-width="3" stroke-linecap="round"/>
<path d="M490 324H612" stroke="white" stroke-width="3" stroke-linecap="round"/>
<circle cx="619" cy="399" r="17" fill="white"/>
<path d="M621.306 394.04L615.161 396.473C614.667 396.674 614.338 397.149 614.356 397.68C614.356 398.21 614.685 398.686 615.179 398.869L617.337 399.692L618.142 401.831C618.325 402.325 618.8 402.654 619.331 402.654C619.331 402.654 619.331 402.654 619.349 402.654C619.88 402.654 620.337 402.344 620.538 401.85L622.97 395.705C623.153 395.229 623.044 394.699 622.678 394.333C622.312 393.949 621.782 393.839 621.306 394.04ZM619.313 401.393L618.544 399.344L619.55 398.338C619.788 398.1 619.788 397.698 619.55 397.46C619.313 397.223 618.91 397.223 618.672 397.46L617.667 398.466L615.618 397.625L621.763 395.193L621.818 395.247L619.313 401.393Z" fill="#CB563E"/>
<path d="M619.331 390.656C614.539 390.656 610.644 393.985 610.644 398.045C610.644 399.947 611.485 401.739 613.003 403.111C612.674 403.916 612.18 404.867 611.576 405.544C611.284 405.873 611.211 406.348 611.393 406.751C611.576 407.135 611.96 407.373 612.381 407.373C612.399 407.373 612.418 407.373 612.436 407.373C614.85 407.244 616.533 406.22 617.575 405.306C623.117 406.275 628 402.617 628 398.063C628.018 393.985 624.123 390.656 619.331 390.656ZM617.539 404.026C617.337 403.989 617.136 404.044 616.99 404.19C616.167 404.977 614.777 405.909 612.747 406.111C613.46 405.214 614.009 404.026 614.338 403.166C614.429 402.91 614.356 402.636 614.155 402.453C612.71 401.282 611.906 399.709 611.906 398.045C611.906 394.643 615.252 391.882 619.349 391.882C623.446 391.882 626.793 394.643 626.793 398.045C626.775 401.922 622.422 405.032 617.539 404.026Z" fill="#CB563E"/>
<path d="M52.6817 127C54.542 127 56.0001 128.508 56.0001 130.318C56.0001 132.179 54.4917 133.687 52.6817 133.687C50.8214 133.687 49.3633 132.179 49.3633 130.318C49.3633 128.508 50.8214 127 52.6817 127ZM52.6817 128.156C51.475 128.156 50.4694 129.112 50.4694 130.318C50.4694 131.525 51.475 132.531 52.6817 132.531C53.8884 132.531 54.8437 131.525 54.8437 130.318C54.8437 129.112 53.8884 128.156 52.6817 128.156Z" fill="white"/>
<path d="M48.1564 140.225C48.1564 140.576 47.905 140.828 47.5531 140.828C47.2514 140.828 47 140.576 47 140.225C47 137.107 49.5642 134.543 52.6815 134.543C55.7988 134.543 58.3631 137.107 58.3631 140.225C58.3631 140.576 58.1117 140.828 57.7597 140.828C57.4581 140.828 57.2067 140.576 57.2067 140.225C57.2067 137.761 55.1955 135.699 52.6815 135.699C50.1676 135.699 48.1564 137.761 48.1564 140.225Z" fill="white"/>
<path d="M60.173 127.5C61.7317 127.5 63.0389 128.807 63.0389 130.366C63.0389 131.975 61.7317 133.282 60.173 133.282C58.5641 133.282 57.3071 131.975 57.3071 130.366C57.3071 128.807 58.5641 127.5 60.173 127.5ZM60.173 128.656C59.2177 128.656 58.4133 129.411 58.4133 130.366C58.4133 131.321 59.2177 132.126 60.173 132.126C61.1283 132.126 61.8825 131.321 61.8825 130.366C61.8825 129.411 61.1283 128.656 60.173 128.656Z" fill="white"/>
<path d="M58.2625 135.499C57.9609 135.65 57.6089 135.6 57.4581 135.298C57.3072 135.047 57.4078 134.695 57.6592 134.544C58.4134 134.091 59.2681 133.84 60.1731 133.84C62.8379 133.84 64.9999 136.002 64.9999 138.667C64.9999 138.968 64.7485 139.22 64.4469 139.22C64.0949 139.22 63.8435 138.968 63.8435 138.667C63.8435 136.605 62.1843 134.996 60.1731 134.996C59.4692 134.996 58.8156 135.147 58.2625 135.499Z" fill="white"/>
<path d="M52.6817 328C54.542 328 56.0001 329.508 56.0001 331.318C56.0001 333.179 54.4917 334.687 52.6817 334.687C50.8214 334.687 49.3633 333.179 49.3633 331.318C49.3633 329.508 50.8214 328 52.6817 328ZM52.6817 329.156C51.475 329.156 50.4694 330.112 50.4694 331.318C50.4694 332.525 51.475 333.531 52.6817 333.531C53.8884 333.531 54.8437 332.525 54.8437 331.318C54.8437 330.112 53.8884 329.156 52.6817 329.156Z" fill="white"/>
<path d="M48.1564 341.225C48.1564 341.576 47.905 341.828 47.5531 341.828C47.2514 341.828 47 341.576 47 341.225C47 338.107 49.5642 335.543 52.6815 335.543C55.7988 335.543 58.3631 338.107 58.3631 341.225C58.3631 341.576 58.1117 341.828 57.7597 341.828C57.4581 341.828 57.2067 341.576 57.2067 341.225C57.2067 338.761 55.1955 336.699 52.6815 336.699C50.1676 336.699 48.1564 338.761 48.1564 341.225Z" fill="white"/>
<path d="M60.173 328.5C61.7317 328.5 63.0389 329.807 63.0389 331.366C63.0389 332.975 61.7317 334.282 60.173 334.282C58.5641 334.282 57.3071 332.975 57.3071 331.366C57.3071 329.807 58.5641 328.5 60.173 328.5ZM60.173 329.656C59.2177 329.656 58.4133 330.411 58.4133 331.366C58.4133 332.321 59.2177 333.126 60.173 333.126C61.1283 333.126 61.8825 332.321 61.8825 331.366C61.8825 330.411 61.1283 329.656 60.173 329.656Z" fill="white"/>
<path d="M58.2625 336.499C57.9609 336.65 57.6089 336.6 57.4581 336.298C57.3072 336.047 57.4078 335.695 57.6592 335.544C58.4134 335.091 59.2681 334.84 60.1731 334.84C62.8379 334.84 64.9999 337.002 64.9999 339.667C64.9999 339.968 64.7485 340.22 64.4469 340.22C64.0949 340.22 63.8435 339.968 63.8435 339.667C63.8435 337.605 62.1843 335.996 60.1731 335.996C59.4692 335.996 58.8156 336.147 58.2625 336.499Z" fill="white"/>
<path d="M52.6817 261C54.542 261 56.0001 262.508 56.0001 264.318C56.0001 266.179 54.4917 267.687 52.6817 267.687C50.8214 267.687 49.3633 266.179 49.3633 264.318C49.3633 262.508 50.8214 261 52.6817 261ZM52.6817 262.156C51.475 262.156 50.4694 263.112 50.4694 264.318C50.4694 265.525 51.475 266.531 52.6817 266.531C53.8884 266.531 54.8437 265.525 54.8437 264.318C54.8437 263.112 53.8884 262.156 52.6817 262.156Z" fill="white"/>
<path d="M48.1564 274.225C48.1564 274.576 47.905 274.828 47.5531 274.828C47.2514 274.828 47 274.576 47 274.225C47 271.107 49.5642 268.543 52.6815 268.543C55.7988 268.543 58.3631 271.107 58.3631 274.225C58.3631 274.576 58.1117 274.828 57.7597 274.828C57.4581 274.828 57.2067 274.576 57.2067 274.225C57.2067 271.761 55.1955 269.699 52.6815 269.699C50.1676 269.699 48.1564 271.761 48.1564 274.225Z" fill="white"/>
<path d="M60.173 261.5C61.7317 261.5 63.0389 262.807 63.0389 264.366C63.0389 265.975 61.7317 267.282 60.173 267.282C58.5641 267.282 57.3071 265.975 57.3071 264.366C57.3071 262.807 58.5641 261.5 60.173 261.5ZM60.173 262.656C59.2177 262.656 58.4133 263.411 58.4133 264.366C58.4133 265.321 59.2177 266.126 60.173 266.126C61.1283 266.126 61.8825 265.321 61.8825 264.366C61.8825 263.411 61.1283 262.656 60.173 262.656Z" fill="white"/>
<path d="M58.2625 269.499C57.9609 269.65 57.6089 269.6 57.4581 269.298C57.3072 269.047 57.4078 268.695 57.6592 268.544C58.4134 268.091 59.2681 267.84 60.1731 267.84C62.8379 267.84 64.9999 270.002 64.9999 272.667C64.9999 272.968 64.7485 273.22 64.4469 273.22C64.0949 273.22 63.8435 272.968 63.8435 272.667C63.8435 270.605 62.1843 268.996 60.1731 268.996C59.4692 268.996 58.8156 269.147 58.2625 269.499Z" fill="white"/>
<path d="M52.6817 397C54.542 397 56.0001 398.508 56.0001 400.318C56.0001 402.179 54.4917 403.687 52.6817 403.687C50.8214 403.687 49.3633 402.179 49.3633 400.318C49.3633 398.508 50.8214 397 52.6817 397ZM52.6817 398.156C51.475 398.156 50.4694 399.112 50.4694 400.318C50.4694 401.525 51.475 402.531 52.6817 402.531C53.8884 402.531 54.8437 401.525 54.8437 400.318C54.8437 399.112 53.8884 398.156 52.6817 398.156Z" fill="white"/>
<path d="M48.1564 410.225C48.1564 410.576 47.905 410.828 47.5531 410.828C47.2514 410.828 47 410.576 47 410.225C47 407.107 49.5642 404.543 52.6815 404.543C55.7988 404.543 58.3631 407.107 58.3631 410.225C58.3631 410.576 58.1117 410.828 57.7597 410.828C57.4581 410.828 57.2067 410.576 57.2067 410.225C57.2067 407.761 55.1955 405.699 52.6815 405.699C50.1676 405.699 48.1564 407.761 48.1564 410.225Z" fill="white"/>
<path d="M60.173 397.5C61.7317 397.5 63.0389 398.807 63.0389 400.366C63.0389 401.975 61.7317 403.282 60.173 403.282C58.5641 403.282 57.3071 401.975 57.3071 400.366C57.3071 398.807 58.5641 397.5 60.173 397.5ZM60.173 398.656C59.2177 398.656 58.4133 399.411 58.4133 400.366C58.4133 401.321 59.2177 402.126 60.173 402.126C61.1283 402.126 61.8825 401.321 61.8825 400.366C61.8825 399.411 61.1283 398.656 60.173 398.656Z" fill="white"/>
<path d="M58.2625 405.499C57.9609 405.65 57.6089 405.6 57.4581 405.298C57.3072 405.047 57.4078 404.695 57.6592 404.544C58.4134 404.091 59.2681 403.84 60.1731 403.84C62.8379 403.84 64.9999 406.002 64.9999 408.667C64.9999 408.968 64.7485 409.22 64.4469 409.22C64.0949 409.22 63.8435 408.968 63.8435 408.667C63.8435 406.605 62.1843 404.996 60.1731 404.996C59.4692 404.996 58.8156 405.147 58.2625 405.499Z" fill="white"/>
<path d="M52.001 193C51.4556 193 51.001 193.455 51.001 194V195.001C51.001 195.546 51.4551 196 52 196.001V199H49C48.4546 199 48 199.455 48 200V208C48 208.545 48.4546 209 49 209H53C53.0789 209 53.1546 208.989 53.2246 208.973C53.2249 208.973 53.2253 208.973 53.2256 208.973C53.3148 208.989 53.4062 209 53.5 209H54.5H57.5H58.5C58.5928 209 58.6832 208.989 58.7715 208.973C58.8424 208.99 58.9189 209 58.999 209H63C63.5454 209 64 208.545 64 208V200.002C64 199.457 63.5454 199.002 63 199.002H60V196.001C60.5449 196 60.999 195.546 60.999 195.001V194C60.999 193.455 60.5444 193 59.999 193H52.001ZM52.001 194H59.999V195.001H59.3848C59.3773 195 59.3698 195 59.3623 195H52.6377C52.6322 195 52.6266 195.001 52.6211 195.001H52.001V194ZM53 196.001H59V199.464C58.9992 199.476 58.9989 199.488 58.999 199.5V207.502C58.999 207.509 58.9964 207.515 58.9961 207.522C58.9938 207.577 58.9829 207.628 58.9658 207.676C58.9544 207.706 58.9379 207.734 58.9209 207.761C58.9102 207.779 58.8996 207.796 58.8867 207.812C58.8604 207.844 58.8306 207.873 58.7969 207.897C58.7891 207.903 58.7806 207.908 58.7725 207.913C58.7354 207.937 58.6956 207.957 58.6523 207.971C58.6037 207.986 58.5549 208 58.5 208H58V205.5C58 204.678 57.3224 204 56.5 204H55.5C54.6776 204 54 204.678 54 205.5V208H53.5C53.4451 208 53.3963 207.986 53.3477 207.971C53.3043 207.957 53.2646 207.937 53.2275 207.913C53.2184 207.907 53.2089 207.902 53.2002 207.896C53.1681 207.872 53.1396 207.845 53.1143 207.814C53.0987 207.795 53.0857 207.774 53.0732 207.752C53.0588 207.728 53.0443 207.705 53.0342 207.678C53.0143 207.622 53 207.564 53 207.5V199.5V196.001ZM54.002 197.499C53.8713 197.502 53.7469 197.556 53.6555 197.649C53.5641 197.743 53.5129 197.868 53.5129 197.999C53.5129 198.13 53.5641 198.255 53.6555 198.349C53.7469 198.442 53.8713 198.496 54.002 198.499H55.002C55.1326 198.496 55.257 198.442 55.3484 198.349C55.4398 198.255 55.491 198.13 55.491 197.999C55.491 197.868 55.4398 197.743 55.3484 197.649C55.257 197.556 55.1326 197.502 55.002 197.499H54.002ZM56.998 197.499C56.8674 197.502 56.743 197.556 56.6516 197.649C56.5602 197.743 56.509 197.868 56.509 197.999C56.509 198.13 56.5602 198.255 56.6516 198.349C56.743 198.442 56.8674 198.496 56.998 198.499H57.999C58.1297 198.496 58.2541 198.442 58.3455 198.349C58.4369 198.255 58.4881 198.13 58.4881 197.999C58.4881 197.868 58.4369 197.743 58.3455 197.649C58.2541 197.556 58.1297 197.502 57.999 197.499H56.998ZM54.002 199.5C53.9354 199.499 53.8691 199.51 53.8072 199.535C53.7452 199.559 53.6888 199.596 53.6412 199.642C53.5935 199.689 53.5557 199.745 53.5299 199.806C53.504 199.867 53.4907 199.933 53.4907 200C53.4907 200.067 53.504 200.133 53.5299 200.194C53.5557 200.255 53.5935 200.311 53.6412 200.358C53.6888 200.404 53.7452 200.441 53.8072 200.465C53.8691 200.49 53.9354 200.501 54.002 200.5H57.999C58.0656 200.501 58.1318 200.49 58.1938 200.465C58.2557 200.441 58.3122 200.404 58.3598 200.358C58.4074 200.311 58.4453 200.255 58.4711 200.194C58.4969 200.133 58.5102 200.067 58.5102 200C58.5102 199.933 58.4969 199.867 58.4711 199.806C58.4453 199.745 58.4074 199.689 58.3598 199.642C58.3122 199.596 58.2557 199.559 58.1938 199.535C58.1318 199.51 58.0656 199.499 57.999 199.5H54.002ZM49 200H52V207.5C52 207.676 52.037 207.843 52.0937 208H49V200ZM60 200.002H63V208H59.9062C59.963 207.843 60 207.676 60 207.5V200.002ZM49.9492 201.5C49.8165 201.507 49.6919 201.566 49.6029 201.665C49.5139 201.764 49.4677 201.894 49.4746 202.026C49.4815 202.159 49.5408 202.284 49.6395 202.373C49.7382 202.462 49.8682 202.508 50.001 202.501H51.001C51.1337 202.501 51.261 202.448 51.3549 202.354C51.4487 202.261 51.5015 202.133 51.5015 202C51.5015 201.868 51.4487 201.74 51.3549 201.647C51.261 201.553 51.1337 201.5 51.001 201.5H50.001C49.9837 201.499 49.9665 201.499 49.9492 201.5ZM53.9502 201.5C53.8175 201.507 53.6929 201.566 53.6039 201.665C53.5149 201.764 53.4687 201.894 53.4756 202.026C53.4824 202.159 53.5418 202.284 53.6405 202.373C53.7392 202.462 53.8692 202.508 54.002 202.501H57.999C58.1318 202.501 58.2591 202.448 58.3529 202.354C58.4468 202.261 58.4995 202.133 58.4995 202C58.4995 201.868 58.4468 201.74 58.3529 201.647C58.2591 201.553 58.1318 201.5 57.999 201.5H54.002C53.9847 201.499 53.9674 201.499 53.9502 201.5ZM60.9512 201.5C60.8184 201.506 60.6937 201.565 60.6043 201.664C60.5149 201.762 60.4683 201.892 60.4746 202.024C60.481 202.157 60.5398 202.282 60.6381 202.371C60.7365 202.461 60.8663 202.507 60.999 202.501H62C62.1327 202.501 62.26 202.448 62.3539 202.354C62.4478 202.261 62.5005 202.133 62.5005 202C62.5005 201.868 62.4478 201.74 62.3539 201.647C62.26 201.553 62.1327 201.5 62 201.5H60.999C60.9831 201.499 60.9671 201.499 60.9512 201.5ZM49.9492 203.501C49.8187 203.511 49.6971 203.571 49.6105 203.669C49.5239 203.767 49.4792 203.896 49.486 204.026C49.4927 204.157 49.5504 204.28 49.6467 204.369C49.7429 204.457 49.8701 204.505 50.001 204.501H51.001C51.1317 204.498 51.256 204.444 51.3474 204.351C51.4388 204.257 51.49 204.132 51.49 204.001C51.49 203.87 51.4388 203.745 51.3474 203.651C51.256 203.558 51.1317 203.504 51.001 203.501H50.001C49.9837 203.5 49.9665 203.5 49.9492 203.501ZM60.9512 203.501C60.8206 203.51 60.6989 203.57 60.612 203.668C60.5251 203.766 60.4799 203.894 60.4862 204.024C60.4924 204.155 60.5496 204.278 60.6455 204.367C60.7413 204.456 60.8682 204.504 60.999 204.501H62C62.1307 204.498 62.255 204.444 62.3464 204.351C62.4378 204.257 62.489 204.132 62.489 204.001C62.489 203.87 62.4378 203.745 62.3464 203.651C62.255 203.558 62.1307 203.504 62 203.501H60.999C60.9831 203.5 60.9671 203.5 60.9512 203.501ZM55.5 205H56.5C56.7856 205 57 205.214 57 205.5V208H55V205.5C55 205.214 55.2144 205 55.5 205Z" fill="#426262"/>
</svg>
