<?xml version="1.0" encoding="utf-8"?>
<!-- Generator: Adobe Illustrator 23.0.1, SVG Export Plug-In . SVG Version: 6.00 Build 0)  -->
<svg version="1.1" id="svg_capsule" xmlns="http://www.w3.org/2000/svg" xmlns:xlink="http://www.w3.org/1999/xlink" x="0px" y="0px"
	 viewBox="0 0 210.17 462.46" style="enable-background:new 0 0 210.17 462.46;" xml:space="preserve">
<!-- <style type="text/css">
	.st0{fill:none;stroke:#FFFFFF;stroke-width:2;stroke-linecap:round;stroke-miterlimit:10;}
	.st1{fill:#FFFFFF;}
	.st2{fill:none;stroke:#FFFFFF;stroke-width:2;stroke-linecap:round;stroke-linejoin:round;stroke-miterlimit:10;}
	.st3{fill:none;stroke:#FFFFFF;stroke-width:2.5918;stroke-linecap:round;stroke-linejoin:round;stroke-miterlimit:10;}
	.st4{fill:none;stroke:#FFFFFF;stroke-width:2.0403;stroke-linecap:round;stroke-linejoin:round;stroke-miterlimit:10;}
	.st5{fill:none;stroke:#FFFFFF;stroke-width:1.7326;stroke-linecap:round;stroke-linejoin:round;stroke-miterlimit:10;}
	.st6{fill:none;stroke:#FFFFFF;stroke-width:2.0425;stroke-linecap:round;stroke-linejoin:round;stroke-miterlimit:10;}
	.st7{fill:none;stroke:#FFFFFF;stroke-width:2.0223;stroke-linecap:round;stroke-linejoin:round;stroke-miterlimit:10;}
	.st8{display:none;}

		.st9{display:inline;fill:none;stroke:#000000;stroke-width:2.0403;stroke-linecap:round;stroke-linejoin:round;stroke-miterlimit:10;}

		.st10{display:inline;fill:none;stroke:#000000;stroke-width:1.7326;stroke-linecap:round;stroke-linejoin:round;stroke-miterlimit:10;}

		.st11{display:inline;fill:none;stroke:#000000;stroke-width:2.0425;stroke-linecap:round;stroke-linejoin:round;stroke-miterlimit:10;}

		.st12{display:inline;fill:none;stroke:#000000;stroke-width:2.0223;stroke-linecap:round;stroke-linejoin:round;stroke-miterlimit:10;}
</style> -->
<g>
	<path class="st0" d="M139.31,186.22c0,0-16.95-10.11-9.23-29.34c7.82-19.5,24.29-12.57,24.29-29.55c0-16.6-17.44-11.33-16.48-32.47
		"/>
	<g>
		<g>
			<path class="st0" d="M96.44,27.45c2.74-1.39,5.83-2.18,9.09-2.18c11.1,0,20.19,9.09,20.19,20.19c0,0,0,8.91,0,14.23"/>
			<path class="st0" d="M76.65,65.43c0-7.09,0-20.14,0-20.14c0-15.09,12.35-27.43,27.43-27.43c15.09,0,27.43,12.35,27.43,27.43
				c0,0,0,12.1,0,19.33"/>
			<path class="st0" d="M132.59,56.96c0.25,0,0.39,0,0.39,0c10.43,0,18.96,8.53,18.96,18.96c0.12,11.68-5.31,18.29-17.26,18.93
				c-1.79,0.1-3.31-1.34-3.31-3.13l0-10.96"/>
			<path class="st0" d="M76.05,56.96c-0.25,0-0.39,0-0.39,0c-10.43,0-18.96,8.53-18.96,18.96c-0.12,11.68,5.31,18.29,17.26,18.93
				c1.79,0.1,3.31-1.34,3.31-3.13l0-10.96"/>
		</g>
		<g>
			<path class="st0" d="M63.56,77.99c0.26,5.87,2.98,8.39,7.58,9.69"/>
			<circle class="st1" cx="70.45" cy="80.34" r="1.77"/>
		</g>
		<g>
			<path class="st0" d="M145.46,77.99c-0.26,5.87-2.98,8.39-7.58,9.69"/>
			<circle class="st1" cx="138.69" cy="80.34" r="1.77"/>
		</g>
	</g>
</g>
<path class="st2" d="M125.81,149.79c-42.62,0-92.58,0-92.58,0V5.19h144.6v144.6c0,0-22.76,0-34.78,0"/>
<rect x="7.17" y="5.18" class="st2" width="196.72" height="196.72"/>
<line class="st2" x1="33.23" y1="149.79" x2="7.17" y2="201.9"/>
<line class="st2" x1="177.83" y1="149.79" x2="203.89" y2="201.9"/>
<path class="st2" d="M131.73,184.84c0,1.05,2.88,1.89,6.44,1.89s6.44-0.85,6.44-1.89"/>
<rect x="7.17" y="201.9" class="st3" width="196.72" height="257.21"/>
<g>
	<rect x="101.35" y="201.9" class="st3" width="14.64" height="87.37"/>

		<rect x="152.49" y="238.13" transform="matrix(-1.836970e-16 1 -1 -1.836970e-16 441.76 122.1354)" class="st3" width="14.64" height="87.64"/>
</g>
<g>
	<rect x="115.99" y="201.9" class="st3" width="14.64" height="72.73"/>

		<rect x="159.94" y="230.68" transform="matrix(-1.836970e-16 1 -1 -1.836970e-16 434.5667 100.0468)" class="st3" width="14.64" height="73.25"/>
</g>
<g>
	<rect x="130.63" y="201.9" class="st3" width="14.64" height="58.09"/>

		<rect x="167.26" y="223.36" transform="matrix(-1.836970e-16 1 -1 -1.836970e-16 427.2462 78.0854)" class="st3" width="14.64" height="58.61"/>
</g>
<g>
	<rect x="145.27" y="201.9" class="st3" width="14.64" height="43.44"/>

		<rect x="174.58" y="216.04" transform="matrix(-1.836970e-16 1 -1 -1.836970e-16 419.9257 56.1239)" class="st3" width="14.64" height="43.97"/>
</g>
<g>
	<rect x="159.92" y="201.9" class="st3" width="14.64" height="28.8"/>

		<rect x="181.9" y="208.72" transform="matrix(-1.836970e-16 1 -1 -1.836970e-16 412.6052 34.1625)" class="st3" width="14.64" height="29.33"/>
</g>
<g>
	<rect x="174.56" y="201.9" class="st3" width="14.64" height="14.17"/>
	<rect x="189.2" y="201.9" class="st3" width="14.69" height="14.16"/>
</g>
<line class="st3" x1="23.72" y1="208.98" x2="23.72" y2="335.63"/>
<line class="st3" x1="42.43" y1="230.94" x2="42.43" y2="357.59"/>
<line class="st3" x1="63.56" y1="208.98" x2="63.56" y2="335.63"/>
<line class="st3" x1="82.86" y1="230.94" x2="82.86" y2="357.59"/>
<line class="st3" x1="82.86" y1="459.12" x2="82.86" y2="398.99"/>
<line class="st3" x1="64.14" y1="459.12" x2="64.14" y2="377.03"/>
<line class="st3" x1="43.02" y1="459.12" x2="43.02" y2="398.99"/>
<line class="st3" x1="23.72" y1="459.12" x2="23.72" y2="377.03"/>
<path class="st4" d="M116.12,362.56c1.4-0.77,3.02-1.21,4.75-1.21c5.28,0,9.56,4.1,9.56,9.16v88.61"/>
<path class="st4" d="M125.04,387.18c-1.26,0.59-2.67,0.91-4.17,0.91c-5.28,0-9.56-4.1-9.56-9.16v-88.86"/>
<path class="st5" d="M115.99,374.41c0-4.3,2.23-7.79,4.98-7.79h0c2.75,0,4.98,3.49,4.98,7.79v84.7"/>
<path class="st5" d="M125.95,375.69c0,4.3-2.23,7.79-4.98,7.79h0c-2.75,0-4.98-3.49-4.98-7.79v-85.6"/>
<path class="st6" d="M124.98,392.34c-1.34,0.43-2.77,0.67-4.25,0.67c-7.94,0-14.38-6.7-14.38-14.97v-87.95"/>
<path class="st6" d="M116.71,357.28c1.28-0.39,2.63-0.59,4.02-0.59c7.94,0,14.38,6.7,14.38,14.97v87.46"/>
<path class="st7" d="M125.24,397.74c-1.5,0.37-3.06,0.56-4.68,0.56c-10.61,0-19.21-8.41-19.21-18.79v-89.43"/>
<path class="st7" d="M116.17,351.39c1.41-0.32,2.88-0.49,4.39-0.49c10.61,0,19.21,8.41,19.21,18.79v89.43"/>
<path class="st4" d="M180.08,362.52c1.38-0.75,2.98-1.17,4.68-1.17c5.28,0,9.56,4.1,9.56,9.16v88.61"/>
<path class="st4" d="M189.24,387.03c-1.34,0.68-2.86,1.07-4.48,1.07c-5.28,0-9.56-4.1-9.56-9.16v-88.86"/>
<path class="st5" d="M179.88,374.41c0-4.3,2.23-7.79,4.98-7.79l0,0c2.75,0,4.98,3.49,4.98,7.79v84.7"/>
<path class="st5" d="M189.83,375.69c0,4.3-2.23,7.79-4.98,7.79l0,0c-2.75,0-4.98-3.49-4.98-7.79v-85.6"/>
<path class="st6" d="M189.56,392.09c-1.54,0.59-3.21,0.91-4.95,0.91c-7.94,0-14.38-6.7-14.38-14.97v-87.95"/>
<path class="st6" d="M180.08,357.45c1.43-0.49,2.95-0.76,4.54-0.76c7.94,0,14.38,6.7,14.38,14.97v87.46"/>
<path class="st7" d="M189.35,397.69c-1.56,0.4-3.21,0.62-4.9,0.62c-10.61,0-19.21-8.41-19.21-18.79v-89.43"/>
<path class="st7" d="M180.2,351.35c1.37-0.3,2.79-0.46,4.25-0.46c10.61,0,19.21,8.41,19.21,18.79v89.43"/>
<g class="st8">
	<path class="st9" d="M-505.36,356.09c1.34-0.69,2.88-1.08,4.51-1.08c5.28,0,9.56,4.1,9.56,9.16v141.31"/>
	<path class="st9" d="M-496.39,380.7c-1.33,0.67-2.85,1.06-4.46,1.06c-5.28,0-9.56-4.1-9.56-9.16v-36.56"/>
	<path class="st10" d="M-505.74,368.07c0-4.3,2.23-7.79,4.98-7.79l0,0c2.75,0,4.98,3.49,4.98,7.79v137.4"/>
	<path class="st10" d="M-495.78,369.35c0,4.3-2.23,7.79-4.98,7.79l0,0c-2.75,0-4.98-3.49-4.98-7.79v-33.31"/>
	<path class="st11" d="M-495.99,385.73c-1.56,0.6-3.25,0.94-5.01,0.94c-7.94,0-14.38-6.7-14.38-14.97v-35.65"/>
	<path class="st11" d="M-505.55,351.11c1.43-0.5,2.96-0.76,4.55-0.76c7.94,0,14.38,6.7,14.38,14.97v140.16"/>
	<path class="st12" d="M-496.12,391.31c-1.61,0.43-3.3,0.65-5.04,0.65c-10.61,0-19.21-8.41-19.21-18.79v-37.13"/>
	<path class="st12" d="M-505.63,345.06c1.43-0.33,2.93-0.51,4.46-0.51c10.61,0,19.21,8.41,19.21,18.79v142.13"/>
</g>
<circle class="st7" cx="23.72" cy="354.76" r="6.45"/>
<circle class="st7" cx="42.43" cy="377.03" r="6.45"/>
<circle class="st7" cx="82.86" cy="377.03" r="6.45"/>
<circle class="st7" cx="63.56" cy="354.76" r="6.45"/>
<circle class="st1" cx="23.72" cy="354.76" r="1.43"/>
<circle class="st1" cx="63.56" cy="354.76" r="1.43"/>
<circle class="st1" cx="42.43" cy="377.03" r="1.43"/>
<circle class="st1" cx="82.86" cy="377.03" r="1.43"/>
<circle class="st1" cx="120.97" cy="374.95" r="1.43"/>
<circle class="st1" cx="184.85" cy="374.95" r="1.43"/>
</svg>
