<?xml version="1.0" encoding="utf-8"?>
<!-- Generator: Adobe Illustrator 22.1.0, SVG Export Plug-In . SVG Version: 6.00 Build 0)  -->
<svg version="1.1" id="svg_brand" xmlns="http://www.w3.org/2000/svg" xmlns:xlink="http://www.w3.org/1999/xlink" x="0px" y="0px"
	 viewBox="0 0 345.9 481.1" style="enable-background:new 0 0 345.9 481.1;" xml:space="preserve">
<!-- <style type="text/css">
	.st0{fill:#FFFFFF;}
</style> -->
<g>
	<path class="st0" d="M222.3,244.9c-0.8,0.9-1.1,1.2-1.4,1.6c-26.9,41.1-85,40.8-112.6-0.3c-21.9-32.4-19.5-80.5,5.4-109.4
		c24.9-28.8,68.8-31.8,96.8-6.3c4.4,4,7.9,9,11.8,13.6c0.1-0.7,0.2-1.7,0.2-2.6c0-5.3-0.1-10.7,0.1-16c0.2-4.7,3.7-8.2,8.3-8.5
		c4.6-0.4,8.5,2.5,9.5,7.1c0.3,1.2,0.3,2.4,0.3,3.6c0,45.3,0,90.6,0,135.9c0,6.1-2.7,9.6-7.8,10.3c-5.7,0.8-10.2-2.8-10.3-8.6
		c-0.2-5.6,0-11.1-0.1-16.7C222.5,247.6,222.4,246.6,222.3,244.9z M111.2,197.4c0,12.1,3.7,26,10.6,37.2c19.1,31,61.8,34.7,85.6,7.3
		c21.2-24.4,21.7-67.4,1-92.2c-22.5-27-63.2-25.8-84.1,2.4C115,164.8,111.4,179.3,111.2,197.4z"/>
	<path class="st0" d="M38.1,437.1c5.2-6.2,10.8-9.9,18.1-9.7c7.3,0.2,12.8,3.4,15.8,10.8c0.7-0.8,1.3-1.4,1.8-2.1
		c4.5-5.3,10.2-8.2,17-8.8c9.9-0.8,17,5.2,18.2,15.5c0.7,5.7,0.4,11.5,0.5,17.3c0.1,5.5,0.2,10.9-0.1,16.4c-0.1,1.2-1.6,3.1-2.7,3.3
		c-2.1,0.4-3-1.3-3-3.4c0-8.8,0-17.6,0-26.4c0-1.6,0.1-3.1-0.1-4.7c-1.1-8.4-6-12.8-13.7-12.5c-8.6,0.3-16.1,6.9-16.3,14.7
		c-0.2,8.5-0.1,16.9-0.1,25.4c0,1,0,2,0,3c0,2.1-0.6,4-3,4c-2.5,0-3-1.8-2.9-4c0-7.2,0.1-14.5,0-21.7c0-3.3,0.1-6.7-0.4-10
		c-1.4-9.3-8.3-13.4-17.3-10.7c-7.2,2.2-11.5,8-11.6,15.7c0,8.7,0,17.4,0,26c0,2.2-0.2,4.6-3.1,4.6c-2.9-0.1-3-2.4-3-4.7
		c0-14.1,0-28.3,0-42.4c0-0.7-0.2-1.5,0.1-2c0.8-1,1.9-2.5,2.9-2.6c1,0,2.5,1.4,2.8,2.5C38.5,432.5,38.1,434.3,38.1,437.1z"/>
	<path class="st0" d="M228.8,437c0-5.6,0-10.3,0-14.9c0-4.5,0-8.9,0-13.4c0-2.1,0.3-4.3,3-4.2c2.8,0,3,2.1,2.9,4.3
		c0,22.3,0,44.5,0,66.8c0,2.1-0.2,4.3-2.9,4.4c-2.9,0-3.1-2.3-3.1-4.5c0-1.4,0-2.9,0-5c-1,1.1-1.6,1.6-2.1,2.3
		c-8.8,10.8-24.7,11.1-33.9,0.7c-8.9-10.1-9.3-27.2-1-37.8c9.2-11.8,25.8-12,35.3-0.6C227.3,435.4,227.7,435.8,228.8,437z
		 M230,453.7c-1.3-4.1-2-8.4-4-12.1c-6.7-12.4-23.7-12.8-30.8-0.6c-5.2,8.9-5.1,18.2,0.6,26.8c7.1,10.7,22.5,10.4,29.5-0.2
		C228.1,463.4,229.2,458.8,230,453.7z"/>
	<path class="st0" d="M344.7,238.2c0.4,0.7,1.1,1.5,1.1,2.2c0,14.7,0,29.4-0.1,44.1c0,4-2.7,6.1-5.8,7.9
		C321,303,302,313.6,283.1,324.2c-34.7,19.4-69.3,38.8-104,58.3c-4.2,2.4-8,2.4-12.2,0c-53.6-30.1-107.2-60.1-160.8-90.1
		C2,290.1,0,287,0.1,282.2c0.1-13.5,0-26.9,0.1-40.4c0-0.8-0.1-1.6,0.1-2.3c0.1-0.4,0.6-0.7,1-1.1c0.3,0.3,0.9,0.6,1,1
		c0.2,0.9,0.1,1.8,0.1,2.7c0,13.1,0.1,26.3,0,39.4c0,4.3,1.5,7,5.3,9.1c53.5,29.9,107,59.8,160.5,89.9c3.5,2,6.5,2,10,0
		c53.6-30.1,107.2-60.1,160.8-90.1c3.4-1.9,4.9-4.3,4.9-8.3c-0.2-13.4-0.1-26.7-0.1-40.1c0-1.2,0-2.4,0-3.6
		C344,238.4,344.3,238.3,344.7,238.2z"/>
	<path class="st0" d="M0.1,121c0-5.8,0.3-11.6-0.1-17.4c-0.4-6,2.2-9.6,7.4-12.5c41.7-23.2,83.4-46.6,125-69.9
		c11.7-6.5,23.3-13,34.9-19.6c3.9-2.2,7.4-2.2,11.3,0C232.3,31.8,286,61.8,339.8,91.8c4.1,2.3,6.2,5.3,6.2,10.1
		c-0.1,13,0,26.1,0,39.1c0,0.7,0.1,1.4-0.1,2c-0.1,0.4-0.6,0.7-1,1.1c-0.4-0.4-1-0.8-1.1-1.3c-0.2-0.9-0.1-1.8-0.1-2.7
		c0-12.8-0.1-25.6,0-38.4c0-3.7-1.4-6-4.6-7.8C285.2,64,231.4,33.8,177.7,3.7c-3.3-1.8-6.1-1.8-9.4,0C114.5,33.9,60.7,64,6.9,94.1
		c-3.3,1.9-4.7,4.4-4.7,8.1c0.1,12.5,0,24.9,0,37.4c0,0.8,0.2,1.6,0,2.3c-0.2,0.8-0.8,1.5-1.2,2.3c-0.3-0.7-0.9-1.4-0.9-2.2
		c-0.1-3.2,0-6.5,0-9.7C0.1,128.6,0.1,124.8,0.1,121z"/>
	<path class="st0" d="M318.9,436.9c0-2.3,0-3.7,0-5.2c0.1-2.1,0.7-3.9,3.2-3.8c2.3,0.1,2.8,1.9,2.8,3.8c0,8.3,0,16.7,0,25
		c0,6.3,0,12.7,0,19c0,2.1-0.4,4-2.8,4.1c-2.6,0.1-3.2-1.9-3.2-4.1c0-1.4,0-2.9,0-4.5c-0.5,0.2-0.9,0.2-1,0.4
		c-6.5,8.5-15.1,11.1-25.2,8.2c-9.2-2.6-15.9-12.3-16.6-23c-0.7-9.6,1.5-18.2,9-24.8c9.8-8.6,24.2-7.1,32.3,3
		C317.7,435.5,318,435.8,318.9,436.9z M281.8,454.7c0.1,0.8,0.1,2.5,0.4,4.1c1.4,8.4,7.1,14.9,14.6,16.4c7.4,1.5,14.8-1.4,18.7-7.9
		c5.3-8.8,5.5-18,0-26.8c-6.6-10.5-21.3-11.2-29-1.6C283.1,443.2,281.8,448.3,281.8,454.7z"/>
	<path class="st0" d="M131.5,453.8c-0.2,9.5,4.4,17,11.9,20.2c8.2,3.5,16.8,1.7,23-4.6c1.3-1.3,2.6-2.8,4.5-1.2
		c2.1,1.8,0.5,3.4-0.8,4.8c-7.7,8.2-17.2,9.9-27.5,6.6c-10.4-3.4-15.7-11.2-16.8-21.9c-0.8-7.7,0.6-15.1,5.3-21.5
		c6-8.1,16.2-11.4,25.8-8.3c9.7,3.1,16.3,12.2,16.3,22.1c0,3.3-1.9,3.8-4.6,3.8c-11,0-22,0-33,0C134.3,453.8,133,453.8,131.5,453.8z
		 M166.8,448.3c-0.4-9-7.6-15.6-16.9-16c-8.7-0.3-16.7,6.7-17.8,16C143.7,448.3,155.2,448.3,166.8,448.3z"/>
	<path class="st0" d="M260.1,453.7c0,7.2,0,14.5,0,21.7c0,2.3-0.2,4.6-3.1,4.5c-2.8-0.1-3-2.4-3-4.7c0-14.6,0-29.1,0-43.7
		c0-2.3,0.3-4.6,3.1-4.5c2.9,0,3,2.4,3,4.7C260,439,260.1,446.4,260.1,453.7z"/>
	<path class="st0" d="M156.5,408.5c3.5,0.1,4.9,2.5,3.2,4.6c-2.8,3.4-6,6.5-9.2,9.5c-0.5,0.5-1.9,0.1-2.9,0.2c0.1-0.9-0.2-2,0.2-2.7
		c2-3.3,4-6.6,6.3-9.8C154.7,409.4,156,408.9,156.5,408.5z"/>
	<path class="st0" d="M261.2,415.8c0,2.4-1.3,3.9-4,3.9c-2.9,0-4.3-1.5-4.3-4.3c0-2.8,1.7-4,4.3-4.1
		C259.8,411.4,261.2,412.9,261.2,415.8z"/>
</g>
</svg>
