<?xml version="1.0" encoding="utf-8"?>
<!-- Generator: Adobe Illustrator 22.1.0, SVG Export Plug-In . SVG Version: 6.00 Build 0)  -->
<svg class="slide2" id="svg_micro_chant" version="1.1" xmlns="http://www.w3.org/2000/svg" xmlns:xlink="http://www.w3.org/1999/xlink" x="0px" y="0px"
	 viewBox="0 0 102.9 87.3" style="enable-background:new 0 0 102.9 87.3;" xml:space="preserve">
<!-- <style type="text/css">
	.st0{fill:none;stroke:#FFFFFF;stroke-linecap:round;stroke-linejoin:round;stroke-miterlimit:10;}
</style> -->
<g id="Calque_1">
</g>
<g id="Calque_4">
</g>
<g id="Calque_6">
</g>
<g id="Calque_8">
	<g>
		<path class="st0" d="M54.4,26.2L1.7,72.9c0,0-5.9,10.6,8.9,13.9"/>
		<line class="st0" x1="13" y1="85.4" x2="70.7" y2="48.1"/>
		<path class="st0" d="M56.7,36c3.3,7.3,10.4,12.5,18.8,13c0.4,0,0.9,0,1.3,0c4.4,0,8.4-1.3,11.8-3.5c0,0,0,0,0,0
			c3-1.9,5.5-4.6,7.3-7.7c0.7-1.1,1.2-2.3,1.6-3.6c0,0,0,0,0,0c0.6-1.7,1-3.4,1.1-5.2v0c0.1-0.7,0.1-1.3,0.1-2
			c0-1.7-0.2-3.3-0.5-4.9c-0.3-1.3-0.7-2.5-1.2-3.8C93.8,10.4,85.9,4.9,76.8,4.9c-5.7,0-10.9,2.2-14.8,5.7c0,0,0,0,0,0
			c-3.5,3.1-5.9,7.3-6.8,12.1c-0.3,1.4-0.9,4.5-0.4,6.4"/>
		<path class="st0" d="M84.3,43.8c-1.7-0.7-3.2-1.5-4.6-2.4c-0.5-0.3-0.9-0.5-1.3-0.8c-0.7-0.5-1.4-1-2.1-1.5c0,0,0,0,0,0
			c-0.8-0.6-1.5-1.2-2.2-1.9C62.1,26.2,62,11,62,10.6c0,0,0,0,0,0"/>
		<path class="st0" d="M43.4,38.9c0,0,0.6,13.5,14.4,17.5"/>
		<path class="st0" d="M51.3,29.1c0,0-1.7,15.7,15.7,21.4"/>
		<line class="st0" x1="3.1" y1="77.4" x2="42.5" y2="46.6"/>
		<line class="st0" x1="46.2" y1="43.8" x2="51.2" y2="39.8"/>
		<path class="st0" d="M98.3,22.1c-0.3-0.4-0.5-0.7-0.8-1"/>
		<path class="st0" d="M81.5,24.9c1.6-0.9,3.3-1.6,5-2c2.1-0.5,4.3-0.5,6.3,0.3c1.7,0.7,3.3,1.9,4.7,3.8c0.5,0.6,0.9,1.3,1.3,2v0
			c0,0,0.1,0.1,0.1,0.2"/>
		<path class="st0" d="M70.7,33.6L70.7,33.6c0.1,0.2,0.2,0.3,0.4,0.5c0.3,0.3,0.5,0.6,0.8,0.9c0,0,0.1,0.1,0.1,0.1
			c0.3,0.3,0.6,0.7,1,1c0.3,0.4,0.7,0.7,1.1,1"/>
		<line class="st0" x1="79.5" y1="37" x2="79.5" y2="37"/>
		<path class="st0" d="M85.5,16.1c0.7,2.2,0.9,4.5,1,6.8c0,2.1-0.1,4.1-0.4,6.1h0c-0.3,2.1-0.8,4-1.2,5.8v0
			c-0.6,2.2-1.3,4.1-1.8,5.5"/>
		<line class="st0" x1="86.5" y1="7.1" x2="86.5" y2="7.1"/>
		<path class="st0" d="M88.9,39.1c0.6-1.3,1.2-2.9,1.8-4.7c0.6-1.6,1.1-3.4,1.4-5.3c0.4-1.9,0.6-3.9,0.7-5.9
			c0.1-2.1-0.1-4.2-0.6-6.3"/>
		<path class="st0" d="M97.1,18.3c0.2,0.9,0.3,1.9,0.4,2.8c0.2,2.1,0.2,4,0,5.9c-0.2,1.9-0.6,3.7-1,5.3c-0.4,1.5-1,2.9-1.6,4.2
			c-0.5,1.1-1,2.1-1.6,3"/>
		<path class="st0" d="M88.7,45.5C88.7,45.5,88.7,45.5,88.7,45.5"/>
		<path class="st0" d="M76.2,39C76.2,39,76.2,39,76.2,39"/>
		<path class="st0" d="M79.5,37L79.5,37c1.5-0.8,3.3-1.7,5.3-2.2v0c1.9-0.5,3.9-0.7,5.8-0.4c1.5,0.3,2.9,0.9,4.2,2.1
			c0.4,0.4,0.8,0.8,1.1,1.3"/>
		<path class="st0" d="M97.6,34.2C97.6,34.2,97.6,34.2,97.6,34.2c0-0.1-0.4-0.9-1.2-1.9c-0.9-1.1-2.3-2.5-4.3-3.2
			c-1.6-0.6-3.6-0.8-6-0.1h0c-1.6,0.4-3.3,1.2-5.3,2.5"/>
		<line class="st0" x1="15" y1="86.8" x2="55.2" y2="61.1"/>
		<line class="st0" x1="48.7" y1="28" x2="35.1" y2="40.5"/>
		<path class="st0" d="M51.2,51c0,0,2.4,2.7,6.6,3.8"/>
		<path class="st0" d="M70.7,1.9c0,0,15.8-6.2,26.8,7.7"/>
		<path class="st0" d="M98.9,5.7c0,0,3.5,3.1,3.5,7.8"/>
		<path class="st0" d="M94.6,49.3c0,0-1.2,3.1-4.4,4.2"/>
		<path class="st0" d="M74,52.9c0,0,9.7,2.9,16.2-3.4"/>
	</g>
</g>
</svg>
