<?xml version="1.0" encoding="utf-8"?>
<!-- Generator: Adobe Illustrator 22.1.0, SVG Export Plug-In . SVG Version: 6.00 Build 0)  -->
<svg version="1.1" id='svg_micro-canon' class='slide2' xmlns="http://www.w3.org/2000/svg" xmlns:xlink="http://www.w3.org/1999/xlink" x="0px" y="0px"
	 viewBox="0 0 146 111.1" style="enable-background:new 0 0 146 111.1;" xml:space="preserve">
<!-- <style type="text/css">
	.st0{fill:none;stroke:#FFFFFF;stroke-miterlimit:10;}
	.st1{fill:none;stroke:#FFFFFF;stroke-linecap:round;stroke-linejoin:round;stroke-miterlimit:10;}
</style> -->
<g id="Calque_1">
</g>
<g id="Calque_4">
	<g>
		<circle class="st0" cx="18.3" cy="58.6" r="17.8"/>
		<path class="st0" d="M130.7,30.9c1.7-0.4,3.3-1.1,4.8-2h0c4.3-2.7,7.2-7.5,7.2-13c0-8.5-6.9-15.4-15.4-15.4
			c-1.7,0-3.3,0.3-4.8,0.8c-0.4,0.1-0.7,0.2-1.1,0.4l-0.1,0"/>
		<line class="st0" x1="12.5" y1="41.7" x2="122.4" y2="1.3"/>
		<line class="st0" x1="23.4" y1="75.7" x2="135.4" y2="28.9"/>
		<path class="st1" d="M96,48.4c0,0,5.5,1.4,9.7-1.1s7.3-7.9,15.5-10.6c8.2-2.7,8.7-2.7,6.4-4.5"/>
		<path class="st1" d="M130.5,32.2c0,0,0.9-1,0.9,7.3s0.5,43.6,0.5,43.6"/>
		<path class="st1" d="M83.5,52.3c0,0-1.4,28.9-1.3,31.9s11.5,16.3,43.9,4.2"/>
		<path class="st1" d="M88.6,91.9v2.4c0,0,9.1,8.8,36.4-0.9"/>
		<path class="st1" d="M89.9,95.2c0,0,0.5,3.5,3.7,5.2c3.2,1.7,16.7,4.4,33.6-3.2c0.3-0.1,0.6-0.3,1-0.3l5.2,0.4
			c0.5,0,0.9-0.4,0.9-0.9v-8.1c0-0.3-0.3-0.5-0.5-0.4c-1.1,0.3-3.3,0.6-3.3-1.4c0-1.7,1.4-1.5,1.4-1.5"/>
		<path class="st1" d="M104.2,54.9V87c0,0,2.4,3.7,18.2-2.9"/>
		<path class="st1" d="M114.8,4.1c0,0,26.6,0.7,17.1,26.3"/>
		<line class="st1" x1="128.8" y1="39" x2="128.8" y2="79.7"/>
		<line class="st1" x1="111.9" y1="8" x2="30.2" y2="39"/>
		<path class="st1" d="M134,11.6c0,0,4.6,4.1,1.5,14.9"/>
		<path class="st1" d="M34.8,40.5c0,0,11.5,7.3,6.4,22.2"/>
		<path class="st1" d="M42.5,37.7c0,0,11.5,7.3,6.4,22.2"/>
		<path class="st1" d="M50.2,34.7c0,0,11.5,7.3,6.4,22.2"/>
		<path class="st1" d="M56.8,32.2c0,0,11.5,7.3,6.4,22.2"/>
		<path class="st1" d="M63.6,29.7c0,0,11.5,7.3,6.4,22.2"/>
		<path class="st1" d="M70.5,26.6c0,0,11.5,7.3,6.4,22.2"/>
		<path class="st1" d="M77.2,24.5c0,0,11.5,7.3,6.4,22.2"/>
		<path class="st1" d="M106.8,13.4c0,0,11.5,7.3,6.4,22.2"/>
		<path class="st1" d="M111,11.6c0,0,11.5,7.3,6.4,22.2"/>
		<line class="st1" x1="16.1" y1="43.2" x2="32.3" y2="64.4"/>
		<line class="st1" x1="12" y1="45" x2="29.6" y2="68.7"/>
		<line class="st1" x1="8.1" y1="47.8" x2="25.5" y2="71.6"/>
		<line class="st1" x1="5" y1="51.5" x2="21" y2="73.4"/>
		<line class="st1" x1="3.8" y1="56.6" x2="15.8" y2="73.1"/>
		<line class="st1" x1="22.6" y1="44" x2="33.5" y2="58.6"/>
		<line class="st1" x1="33.1" y1="57.5" x2="13.2" y2="72.7"/>
		<line class="st1" x1="31.9" y1="52.8" x2="8.9" y2="69.9"/>
		<line class="st1" x1="29.5" y1="48.8" x2="5.7" y2="66.2"/>
		<line class="st1" x1="25.5" y1="45.9" x2="4.2" y2="61.4"/>
		<line class="st1" x1="21" y1="44.2" x2="3.8" y2="56.6"/>
		<line class="st1" x1="32.8" y1="62.5" x2="19" y2="73.7"/>
		<line class="st1" x1="15.8" y1="43.9" x2="4.6" y2="52.2"/>
		<line class="st1" x1="3.6" y1="60.8" x2="12" y2="72.1"/>
		<line class="st1" x1="121.9" y1="3.9" x2="126.9" y2="2.1"/>
		<path class="st1" d="M95.2,101.1c0,0,10.9,14.2,32.1-3.8"/>
		<polyline class="st1" points="97.5,103.2 93.8,104.5 105.7,108.2 115.3,104.7 		"/>
		<polyline class="st1" points="93.8,104.5 93.8,106.7 105.6,110.6 105.7,108.2 		"/>
		<polyline class="st1" points="105.6,110.6 120.3,104.5 120.3,102.3 		"/>
		<line class="st1" x1="86.6" y1="45.8" x2="110.7" y2="35.6"/>
		<line class="st1" x1="106.8" y1="51.6" x2="106.8" y2="68.1"/>
		<path class="st1" d="M131.7,66.8c0,0,2-0.2,4.8,2.6s9,7.6,9,7.6s-0.2,2.8-1.8,2.7"/>
		<path class="st1" d="M131.9,74.8l7.4,5.5c0,0,0.8,0.3,1.4-0.5"/>
		<line class="st1" x1="134" y1="69.6" x2="142.6" y2="76.8"/>
		<path class="st1" d="M89.9,93.7c0,0,5,3.8,16.9,2.4"/>
	</g>
</g>
</svg>
