<?xml version="1.0" encoding="utf-8"?>
<!-- Generator: Adobe Illustrator 23.0.1, SVG Export Plug-In . SVG Version: 6.00 Build 0)  -->
<svg version="1.1" id="Calque_1" xmlns="http://www.w3.org/2000/svg" xmlns:xlink="http://www.w3.org/1999/xlink" x="0px" y="0px"
	 viewBox="0 0 144 75.93" style="enable-background:new 0 0 144 75.93;" xml:space="preserve">
<style type="text/css">
	.st0{fill:none;stroke:#FFFFFF;stroke-linecap:round;stroke-linejoin:round;stroke-miterlimit:10;}
</style>
<g>
	<path class="st0" d="M10.34,7.77c-6.28,3.96-9.19,7.91-9.78,12.5c-0.22,1.74,0.23,4.13,0.68,6.12c1.29,5.73,4.75,16.17,7.43,17.53
		c3.59,1.83,9.34-1.31,13.34-3.7s10.64-9.17,11.62-11.34c1.77-3.89,1.14-6.69,0-11.07S29.12,6.49,27.02,4.96s-6.84-2.51-10.35-0.87
		C14.87,4.93,12.63,6.32,10.34,7.77z"/>
	<path class="st0" d="M36.18,19.53c-0.77-3.06-2.42-9.17-5.11-13.51c-2.82-4.56-7.3-4.45-7.3-4.45s4.56-3.3,14.99,1.67
		C50.2,8.69,86.57,30.91,97.43,41.99s1.74,20.64-2.17,22.17c-3.91,1.52-31.73,1.52-54.98-5.22S10.39,47.66,7.56,45.71
		c0,0,3.37,2.77,11.01-1.24s11.67-8.68,11.67-8.68"/>
	<path class="st0" d="M45.06,9.61c0,0,5.87,15.65,3.69,24.12S28.33,53.07,28.33,53.07"/>
	<path class="st0" d="M97.22,58.72c-37.38,5.65-56.93-7.82-56.93-7.82"/>
	<path class="st0" d="M97.43,41.99l-8.49-11.18c-0.25-0.33-0.68-0.47-1.08-0.35l-1.17,0.36"/>
	<path class="st0" d="M130.29,64.03l12.33,5.44c0.56,0.25,0.91,0.81,0.88,1.43c-0.04,0.97-0.26,2.48-1.11,3.87
		c-0.34,0.56-1.05,0.79-1.68,0.59l-13.15-4.09"/>
	<path class="st0" d="M124.96,59.6c0,0,1.23,5.89-2.61,9.26"/>
	<path class="st0" d="M121.82,58.34c0,0,1.23,5.89-2.61,9.26"/>
	<path class="st0" d="M119.01,57c0,0,1.23,5.89-2.61,9.26"/>
	<path class="st0" d="M100.2,62.62c5.8-4.87,3.72-13.6,3.72-13.6l25.66,12.8c0.35,0.17,0.58,0.51,0.63,0.89
		c0.21,1.76,0.41,6.8-3.7,9.37c-0.27,0.17-0.6,0.2-0.91,0.12l-25.4-7.22"/>
	<line class="st0" x1="36.92" y1="30.44" x2="48.29" y2="35.07"/>
	<line class="st0" x1="50.85" y1="36.12" x2="101.86" y2="56.74"/>
	<path class="st0" d="M58.78,55.5c0,0,12.26,4.6,38.44,3.22"/>
	<path class="st0" d="M25.82,27.54c0,0-4.13-6.46-6.06-16.01"/>
	<path class="st0" d="M28.32,26.2c0,0-3.84-6.39-5.19-12.72"/>
	<path class="st0" d="M26.7,23.88c0,0-12.31,6.12-18.42,13.69"/>
	<path class="st0" d="M28.32,26.2c0,0-10.79,5.79-14.97,10.62"/>
	<path class="st0" d="M25.72,21.58c0,0-4.18,1.95-5.96,3.36"/>
	<polygon class="st0" points="17.29,18.4 18.53,20.3 16.29,21.76 17.14,23.06 11.64,26.64 10.8,25.34 8.56,26.8 7.32,24.9 
		9.55,23.44 8.61,21.99 14.11,18.41 15.05,19.86 	"/>
</g>
</svg>
