<?xml version="1.0" encoding="utf-8"?>
<!-- Generator: Adobe Illustrator 22.1.0, SVG Export Plug-In . SVG Version: 6.00 Build 0)  -->
<svg version="1.1" id="svg_micro-couple" class="slide2" xmlns="http://www.w3.org/2000/svg" xmlns:xlink="http://www.w3.org/1999/xlink" x="0px" y="0px"
	 viewBox="0 0 137.9 65.7" style="enable-background:new 0 0 137.9 65.7;" xml:space="preserve">
<!-- <style type="text/css">
	.st0{fill:none;stroke:#FFFFFF;stroke-linecap:round;stroke-linejoin:round;stroke-miterlimit:10;}
</style> -->
<g id="Calque_1">
</g>
<g id="Calque_4">
</g>
<g id="Calque_6">
	<g>
		<path class="st0" d="M62.3,31.6v6.5c0,1.3,0.4,2.7,1.6,3.2c2.3,1.1,6.4,1.9,10.4,0.4"/>
		<path class="st0" d="M59.5,16v7.2c0,2.6,1.3,5.1,3.4,6.6l0,0"/>
		<path class="st0" d="M79.5,16v7.2c0,2.6-1.3,5.1-3.4,6.6v0"/>
		<line class="st0" x1="62.9" y1="27" x2="62.9" y2="16"/>
		<path class="st0" d="M63.9,41.3v6c0,0,5.2,3.7,12.3,0v-8.2v-22"/>
		<line class="st0" x1="74.2" y1="47.7" x2="74.2" y2="43.8"/>
		<line class="st0" x1="74.2" y1="16" x2="74.2" y2="35.3"/>
		<line class="st0" x1="73.8" y1="37.1" x2="73.8" y2="39.7"/>
		<path class="st0" d="M64.5,47.7v2.5c0,0,4.7,2.7,10.7,0v-2"/>
		<path class="st0" d="M64.9,52.7c0,0,0.2,4.7,0.7,5.3c3.1,3.4,7.5,1.1,8.4,0.4c0.8-0.7,1.2-8.2,1.2-8.2"/>
		<path class="st0" d="M66.5,58.8v3.1c0,1.8,1.5,3.3,3.3,3.3h0c1.8,0,3.3-1.5,3.3-3.3v-1.5"/>
		<line class="st0" x1="31.8" y1="16" x2="107.7" y2="16"/>
		<ellipse transform="matrix(0.9305 -0.3662 0.3662 0.9305 -7.6254 2.7914)" class="st0" cx="3.5" cy="21.5" rx="1.8" ry="7"/>
		<path class="st0" d="M29.2,18.9c0.9-0.4,0.5-3.6-0.9-7.1C26.8,8.2,25,5.6,24,5.9"/>
		<path class="st0" d="M1,15"/>
		<line class="st0" x1="1" y1="15" x2="24" y2="5.9"/>
		<line class="st0" x1="8.5" y1="27" x2="29.2" y2="18.9"/>
		<path class="st0" d="M9.1,16c0,0,2.9,3.7,2.9,9.7"/>
		<path class="st0" d="M12,14.5c0,0,2.9,3.7,2.9,9.7"/>
		<path class="st0" d="M25,10.1c0,0,2.6,3.9,2.6,9.3"/>
		<path class="st0" d="M14.7,13.8c0,0,2.9,3.7,2.9,9.7"/>
		<line class="st0" x1="0.6" y1="17.2" x2="4.2" y2="18.6"/>
		<line class="st0" x1="1.2" y1="20.3" x2="5.7" y2="22.2"/>
		<line class="st0" x1="2.6" y1="23.8" x2="6.5" y2="25.7"/>
		<path class="st0" d="M23.4,7.6c0,0,0.5,0.5,0.9,1.3"/>
		<line class="st0" x1="1" y1="13.2" x2="17.6" y2="6.6"/>
		<line class="st0" x1="11.3" y1="7.3" x2="19.6" y2="4"/>
		<ellipse transform="matrix(0.3662 -0.9305 0.9305 0.3662 65.1646 138.6885)" class="st0" cx="134.4" cy="21.5" rx="7" ry="1.8"/>
		<path class="st0" d="M113.9,5.9c-0.9-0.4-2.8,2.3-4.2,5.8c-1.4,3.6-1.8,6.8-0.9,7.1"/>
		<path class="st0" d="M137,15"/>
		<line class="st0" x1="137" y1="15" x2="113.9" y2="5.9"/>
		<line class="st0" x1="129.4" y1="27" x2="108.8" y2="18.9"/>
		<path class="st0" d="M128.8,16c0,0-2.9,3.7-2.9,9.7"/>
		<path class="st0" d="M125.9,14.6c0,0-2.9,3.7-2.9,9.7"/>
		<path class="st0" d="M112.9,10.1c0,0-2.6,3.9-2.6,9.3"/>
		<path class="st0" d="M123.2,13.8c0,0-2.9,3.7-2.9,9.7"/>
		<line class="st0" x1="137.4" y1="17.2" x2="133.8" y2="18.6"/>
		<line class="st0" x1="136.7" y1="20.3" x2="132.2" y2="22.2"/>
		<line class="st0" x1="135.3" y1="23.8" x2="131.4" y2="25.7"/>
		<path class="st0" d="M114.6,7.6c0,0-0.5,0.5-0.9,1.3"/>
		<line class="st0" x1="137" y1="13.1" x2="120.3" y2="6.5"/>
		<line class="st0" x1="126.7" y1="7.2" x2="118.3" y2="4"/>
		<path class="st0" d="M111.1,5c-0.5-2.9-2.2-4.5-2.2-4.5H30.8c0,0-4.2,2.1-4,8.3"/>
		<line class="st0" x1="31.8" y1="13.4" x2="104.7" y2="13.4"/>
		<line class="st0" x1="75.6" y1="8.9" x2="86.2" y2="8.9"/>
		<line class="st0" x1="33.9" y1="2.9" x2="38.1" y2="2.9"/>
		<line class="st0" x1="81.2" y1="11.1" x2="107" y2="11.1"/>
	</g>
</g>
</svg>
