<?xml version="1.0" encoding="utf-8"?>
<!-- Generator: Adobe Illustrator 22.1.0, SVG Export Plug-In . SVG Version: 6.00 Build 0)  -->
<svg version="1.1" xmlns="http://www.w3.org/2000/svg" xmlns:xlink="http://www.w3.org/1999/xlink" x="0px" y="0px"
	 viewBox="0 0 36.8 34.3" style="enable-background:new 0 0 36.8 34.3;" xml:space="preserve">
<style type="text/css">
	.st0{fill:none;stroke:#FFFFFF;stroke-miterlimit:10;}
	.st1{fill:none;stroke:#FFFFFF;stroke-linecap:round;stroke-linejoin:round;stroke-miterlimit:10;}
</style>
<g id="Calque_1">
</g>
<g id="Calque_4">
	<g>
		<path class="st0" d="M3.7,15.8h8.8c1.8,0,3.2-2.4,3.2-4.2V8.1c0-4.2-3.4-7.6-7.6-7.6h0c-4.2,0-7.6,3.4-7.6,7.6v3.6
			C0.5,13.4,1.9,15.8,3.7,15.8z"/>
		<path class="st1" d="M9.8,3.3c0,0,3.3,1.7,3.3,3.8s0,5.9,0,5.9"/>
		<path class="st1" d="M5.2,17.7v4.5c0,0,2.7,1.9,5.9,0V16"/>
		<line class="st1" x1="9.8" y1="22.7" x2="9.8" y2="19.9"/>
		<path class="st1" d="M5.2,22.2c0,0,0.1,0.8-1.6,0.8v3.3c0,0,2.2,0.7,2.2,1.7c0,0,1.8,1.3,4,0c0,0-0.2-1.1,1.9-1v-3.3"/>
		<line class="st1" x1="5.7" y1="27.7" x2="5.7" y2="24.4"/>
		<polyline class="st1" points="11.4,22.2 33.5,23.5 33.5,28.7 11.6,27.1 		"/>
		<path class="st1" d="M25.8,28.1v1.1c0,0.3,0.2,0.5,0.5,0.5L29,30c0.3,0,0.6-0.2,0.6-0.5v-1.1"/>
		<polyline class="st1" points="21.7,22.7 36.3,22.5 36.3,28.1 33.5,28.1 		"/>
		<line class="st1" x1="14.5" y1="22.4" x2="14.5" y2="25.8"/>
		<line class="st1" x1="19.4" y1="24.1" x2="33.5" y2="25"/>
		<line class="st1" x1="36.3" y1="26.6" x2="34.5" y2="26.6"/>
		<path class="st1" d="M6.1,28.3v5c0,0,0.9,1.1,3.1,0v-3.5"/>
	</g>
</g>
<g id="Calque_6">
</g>
<g id="Calque_8">
</g>
</svg>
