<?xml version="1.0" encoding="utf-8"?>
<!-- Generator: Adobe Illustrator 23.0.1, SVG Export Plug-In . SVG Version: 6.00 Build 0)  -->
<svg version="1.1" id="svg_mix_table" xmlns="http://www.w3.org/2000/svg" xmlns:xlink="http://www.w3.org/1999/xlink" x="0px" y="0px"
	 viewBox="0 0 741.6 449.51" style="enable-background:new 0 0 741.6 449.51;" xml:space="preserve">
<!-- <style type="text/css">
	.st0{opacity:0.5;fill:#FFF8E6;stroke:#FFF8E6;stroke-width:2.0609;stroke-linecap:round;stroke-miterlimit:10;}
	.st1{opacity:0.74;}
	.st2{opacity:0.5;fill:#FFFFFF;stroke:#FFFFFF;stroke-width:2.0609;stroke-linecap:round;stroke-miterlimit:10;}
	.st3{opacity:0.5;fill:none;stroke:#FFFFFF;stroke-width:2.0609;stroke-linecap:round;stroke-miterlimit:10;}
	.st4{opacity:0.5;fill:#FFFFFF;}
	.st5{display:none;}
	.st6{fill:none;stroke:#FFFFFF;stroke-width:5.2156;stroke-linecap:round;stroke-miterlimit:10;}
	.st7{opacity:0.6;fill:none;stroke:#FFFFFF;stroke-width:3;stroke-linecap:round;stroke-miterlimit:10;}
	.st8{fill:none;stroke:#FFFFFF;stroke-width:3;stroke-linecap:round;stroke-miterlimit:10;}
	.st9{fill:none;stroke:#FFFFFF;stroke-width:2;stroke-linecap:round;stroke-miterlimit:10;}
	.st10{fill:none;stroke:#FFF8E6;stroke-width:5.2156;stroke-linecap:round;stroke-miterlimit:10;}
	.st11{fill:none;stroke:#FFF8E6;stroke-width:1.5461;stroke-linecap:round;stroke-miterlimit:10;}
	.st12{fill:#FFFFFF;}
</style> -->
<g>
	<g>
		<circle class="st0" cx="258.84" cy="248.7" r="10.29"/>
		<circle class="st1" cx="258.84" cy="248.7" r="5.62"/>
		<circle class="st1" cx="258.84" cy="248.7" r="10.29"/>
	</g>
</g>
<g>
	<circle class="st2" cx="258.81" cy="248.7" r="10.29"/>
	<circle class="st1" cx="258.81" cy="248.7" r="10.29"/>
	<line class="st3" x1="258.81" y1="248.7" x2="257.05" y2="240.47"/>
</g>
<g>
	<circle class="st4" cx="277.13" cy="248.7" r="1.13"/>
	<circle class="st4" cx="270.07" cy="233.99" r="1.13"/>
	<circle class="st4" cx="253.95" cy="230.34" r="1.13"/>
	<circle class="st4" cx="241.33" cy="240.41" r="1.13"/>
	<circle class="st4" cx="241.33" cy="257" r="1.13"/>
	<circle class="st4" cx="253.95" cy="267.07" r="1.13"/>
	<circle class="st4" cx="270.07" cy="263.42" r="1.13"/>
	<circle class="st4" cx="277.13" cy="248.7" r="1.13"/>
</g>
<g>
	<g>
		<circle class="st0" cx="313.23" cy="248.7" r="10.29"/>
		<circle class="st1" cx="313.23" cy="248.7" r="5.62"/>
		<circle class="st1" cx="313.23" cy="248.7" r="10.29"/>
	</g>
</g>
<g>
	<circle class="st2" cx="313.2" cy="248.7" r="10.29"/>
	<circle class="st1" cx="313.2" cy="248.7" r="10.29"/>
	<line class="st3" x1="313.2" y1="248.7" x2="306.13" y2="244.13"/>
</g>
<g>
	<circle class="st4" cx="331.53" cy="248.7" r="1.13"/>
	<circle class="st4" cx="324.46" cy="233.99" r="1.13"/>
	<circle class="st4" cx="308.34" cy="230.34" r="1.13"/>
	<circle class="st4" cx="295.72" cy="240.41" r="1.13"/>
	<circle class="st4" cx="295.72" cy="257" r="1.13"/>
	<circle class="st4" cx="308.34" cy="267.07" r="1.13"/>
	<circle class="st4" cx="324.46" cy="263.42" r="1.13"/>
	<circle class="st4" cx="331.53" cy="248.7" r="1.13"/>
</g>
<rect x="-6.89" class="st5" width="826.17" height="525.57"/>
<path class="st6" d="M100.63,446.9c-33.49,0-53.86,0-53.86,0c-24.39,0-44.17-19.77-44.17-44.17V46.77
	c0-24.39,19.77-44.17,44.17-44.17c0,0,122.64,0,260.99,0"/>
<path class="st6" d="M418.44,2.61c21.51,0,42.72,0,63.24,0"/>
<path class="st6" d="M677.75,2.61h13.53c24.83,0,44.96,20.13,44.96,44.96v354.37c0,24.83-20.13,44.96-44.96,44.96H269.81"/>
<path class="st6" d="M217.64,446.9c-25.68,0-49.7,0-71.15,0"/>
<path class="st7" d="M132.95,272.08h-5.12c-4.65,0-8.43-3.77-8.43-8.43V60.73c0-4.65,3.77-8.43,8.43-8.43h5.12
	c4.65,0,8.43,3.77,8.43,8.43v202.92C141.38,268.31,137.6,272.08,132.95,272.08z"/>
<line class="st8" x1="130.39" y1="41.48" x2="130.39" y2="282.9"/>
<line class="st9" x1="75.89" y1="105.82" x2="94.41" y2="105.82"/>
<line class="st9" x1="75.89" y1="128.37" x2="94.41" y2="128.37"/>
<line class="st9" x1="75.89" y1="150.92" x2="94.41" y2="150.92"/>
<line class="st9" x1="75.89" y1="173.47" x2="94.41" y2="173.47"/>
<line class="st9" x1="75.89" y1="196.01" x2="94.41" y2="196.01"/>
<line class="st9" x1="75.89" y1="218.56" x2="94.41" y2="218.56"/>
<line class="st8" x1="63.92" y1="241.11" x2="94.98" y2="241.11"/>
<line class="st8" x1="63.92" y1="83.27" x2="94.98" y2="83.27"/>
<line class="st9" x1="166.19" y1="105.82" x2="184.71" y2="105.82"/>
<line class="st9" x1="166.19" y1="128.37" x2="184.71" y2="128.37"/>
<line class="st9" x1="166.19" y1="150.92" x2="184.71" y2="150.92"/>
<line class="st9" x1="166.19" y1="173.47" x2="184.71" y2="173.47"/>
<line class="st9" x1="166.19" y1="196.01" x2="184.71" y2="196.01"/>
<line class="st9" x1="166.19" y1="218.56" x2="184.71" y2="218.56"/>
<line class="st8" x1="166.19" y1="241.11" x2="197.25" y2="241.11"/>
<line class="st8" x1="166.19" y1="83.27" x2="197.25" y2="83.27"/>
<path class="st10" d="M474.43,206.48"/>
<path class="st7" d="M660.3,357.28v5.12c0,4.65-3.77,8.43-8.43,8.43H448.95c-4.65,0-8.43-3.77-8.43-8.43v-5.12
	c0-4.65,3.77-8.43,8.43-8.43h202.92C656.53,348.86,660.3,352.63,660.3,357.28z"/>
<line class="st8" x1="429.7" y1="359.84" x2="671.13" y2="359.84"/>
<line class="st9" x1="494.04" y1="330.28" x2="494.04" y2="311.76"/>
<line class="st9" x1="516.59" y1="330.28" x2="516.59" y2="311.76"/>
<line class="st9" x1="539.14" y1="330.28" x2="539.14" y2="311.76"/>
<line class="st9" x1="561.69" y1="330.28" x2="561.69" y2="311.76"/>
<line class="st9" x1="584.24" y1="330.28" x2="584.24" y2="311.76"/>
<line class="st9" x1="606.78" y1="330.28" x2="606.78" y2="311.76"/>
<line class="st8" x1="629.33" y1="330.28" x2="629.33" y2="299.22"/>
<line class="st8" x1="471.5" y1="330.28" x2="471.5" y2="299.22"/>
<path class="st8" d="M476.98,110.42l1.75,26.45c0.03,1,1.39,1.03,1.45,0.02l2.98-47.23c0.06-0.99,1.39-0.98,1.45,0l4.18,69.78
	c0.06,0.99,1.39,0.99,1.45,0l5.36-86.54c0.06-0.99,1.4-0.99,1.45,0l6.04,101.91c0.06,0.99,1.39,0.99,1.45,0l6.91-114.34
	c0.06-0.99,1.4-0.99,1.45,0l6.99,124.07c0.06,0.99,1.4,0.99,1.45,0l7.87-132.83c0.06-0.99,1.39-0.99,1.45,0l8.41,139.47
	c0.06,0.93,1.31,0.94,1.37,0l9.43-146.39c0.05-0.77,1.08-0.76,1.13,0L560,194.83c0.04,0.6,0.84,0.6,0.88,0l8.49-143.53
	c0.06-0.99,1.39-0.99,1.45,0L579,184.86c0.06,0.99,1.39,0.99,1.45,0l7.59-125.39c0.06-0.99,1.39-0.99,1.45,0l7.22,114.64
	c0.06,0.99,1.39,0.98,1.45,0l6.01-100.7c0.06-0.99,1.4-0.99,1.45,0l4.81,84.89c0.06,0.99,1.39,0.99,1.45,0l4.14-68.44
	c0.06-0.99,1.39-0.99,1.45,0l3.16,49.33c0.06,0.99,1.4,0.98,1.45,0l1.73-29.56"/>
<circle class="st8" cx="310.03" cy="115.61" r="31.2"/>
<path class="st8" d="M310.03,115.61c0,0,7.29-6.14,19.52-16.43"/>
<circle class="st11" cx="113.21" cy="319.27" r="4.3"/>
<circle class="st11" cx="113.21" cy="336.7" r="4.3"/>
<circle class="st11" cx="113.21" cy="354.13" r="4.3"/>
<circle class="st11" cx="113.21" cy="371.56" r="4.3"/>
<circle class="st11" cx="113.21" cy="388.99" r="4.3"/>
<circle class="st11" cx="113.21" cy="406.42" r="4.3"/>
<circle class="st11" cx="130.39" cy="319.27" r="4.3"/>
<circle class="st11" cx="130.39" cy="336.7" r="4.3"/>
<circle class="st11" cx="130.39" cy="354.13" r="4.3"/>
<circle class="st11" cx="130.39" cy="371.56" r="4.3"/>
<circle class="st11" cx="130.39" cy="388.99" r="4.3"/>
<circle class="st11" cx="130.39" cy="406.42" r="4.3"/>
<circle class="st11" cx="147.57" cy="319.27" r="4.3"/>
<circle class="st11" cx="147.57" cy="336.7" r="4.3"/>
<circle class="st11" cx="147.57" cy="354.13" r="4.3"/>
<circle class="st11" cx="147.57" cy="371.56" r="4.3"/>
<circle class="st11" cx="147.57" cy="388.99" r="4.3"/>
<circle class="st11" cx="147.57" cy="406.42" r="4.3"/>
<g>
	<g>
		<circle class="st0" cx="444.53" cy="248.7" r="10.29"/>
		<circle class="st1" cx="444.53" cy="248.7" r="5.62"/>
		<circle class="st1" cx="444.53" cy="248.7" r="10.29"/>
	</g>
</g>
<g>
	<g>
		<circle class="st0" cx="367.06" cy="248.7" r="10.29"/>
		<circle class="st1" cx="367.06" cy="248.7" r="5.62"/>
		<circle class="st1" cx="367.06" cy="248.7" r="10.29"/>
	</g>
</g>
<g>
	<g>
		<circle class="st0" cx="497.47" cy="248.7" r="10.29"/>
		<circle class="st1" cx="497.47" cy="248.7" r="5.62"/>
		<circle class="st1" cx="497.47" cy="248.7" r="10.29"/>
	</g>
</g>
<g>
	<g>
		<circle class="st0" cx="550.41" cy="248.7" r="10.29"/>
		<circle class="st1" cx="550.41" cy="248.7" r="5.62"/>
		<circle class="st1" cx="550.41" cy="248.7" r="10.29"/>
	</g>
</g>
<g>
	<g>
		<circle class="st0" cx="603.36" cy="248.7" r="10.29"/>
		<circle class="st1" cx="603.36" cy="248.7" r="5.62"/>
		<circle class="st1" cx="603.36" cy="248.7" r="10.29"/>
	</g>
</g>
<g>
	<g>
		<circle class="st0" cx="656.3" cy="248.7" r="10.29"/>
		<circle class="st1" cx="656.3" cy="248.7" r="5.62"/>
		<circle class="st1" cx="656.3" cy="248.7" r="10.29"/>
	</g>
</g>
<g>
	<circle class="st2" cx="367.03" cy="248.7" r="10.29"/>
	<circle class="st1" cx="367.03" cy="248.7" r="10.29"/>
	<line class="st3" x1="367.03" y1="248.7" x2="358.79" y2="250.47"/>
</g>
<g>
	<circle class="st4" cx="385.35" cy="248.7" r="1.13"/>
	<circle class="st4" cx="378.29" cy="233.99" r="1.13"/>
	<circle class="st4" cx="362.17" cy="230.34" r="1.13"/>
	<circle class="st4" cx="349.55" cy="240.41" r="1.13"/>
	<circle class="st4" cx="349.55" cy="257" r="1.13"/>
	<circle class="st4" cx="362.17" cy="267.07" r="1.13"/>
	<circle class="st4" cx="378.29" cy="263.42" r="1.13"/>
	<circle class="st4" cx="385.35" cy="248.7" r="1.13"/>
</g>
<g>
	<g>
		<circle class="st0" cx="258.84" cy="318.86" r="10.29"/>
		<circle class="st1" cx="258.84" cy="318.86" r="5.62"/>
		<circle class="st1" cx="258.84" cy="318.86" r="10.29"/>
	</g>
</g>
<g>
	<circle class="st2" cx="258.81" cy="318.86" r="10.29"/>
	<circle class="st1" cx="258.81" cy="318.86" r="10.29"/>
	<line class="st3" x1="258.81" y1="318.86" x2="263.39" y2="311.79"/>
</g>
<g>
	<circle class="st4" cx="277.13" cy="318.86" r="1.13"/>
	<circle class="st4" cx="270.07" cy="304.15" r="1.13"/>
	<circle class="st4" cx="253.95" cy="300.5" r="1.13"/>
	<circle class="st4" cx="241.33" cy="310.57" r="1.13"/>
	<circle class="st4" cx="241.33" cy="327.16" r="1.13"/>
	<circle class="st4" cx="253.95" cy="337.23" r="1.13"/>
	<circle class="st4" cx="270.07" cy="333.58" r="1.13"/>
	<circle class="st4" cx="277.13" cy="318.86" r="1.13"/>
</g>
<g>
	<g>
		<circle class="st0" cx="313.23" cy="318.86" r="10.29"/>
		<circle class="st1" cx="313.23" cy="318.86" r="5.62"/>
		<circle class="st1" cx="313.23" cy="318.86" r="10.29"/>
	</g>
</g>
<g>
	<circle class="st2" cx="313.2" cy="318.86" r="10.29"/>
	<circle class="st1" cx="313.2" cy="318.86" r="10.29"/>
	<line class="st3" x1="313.2" y1="318.86" x2="321.44" y2="317.1"/>
</g>
<g>
	<circle class="st4" cx="331.53" cy="318.86" r="1.13"/>
	<circle class="st4" cx="324.46" cy="304.15" r="1.13"/>
	<circle class="st4" cx="308.34" cy="300.5" r="1.13"/>
	<circle class="st4" cx="295.72" cy="310.57" r="1.13"/>
	<circle class="st4" cx="295.72" cy="327.16" r="1.13"/>
	<circle class="st4" cx="308.34" cy="337.23" r="1.13"/>
	<circle class="st4" cx="324.46" cy="333.58" r="1.13"/>
	<circle class="st4" cx="331.53" cy="318.86" r="1.13"/>
</g>
<g>
	<g>
		<circle class="st0" cx="367.06" cy="318.86" r="10.29"/>
		<circle class="st1" cx="367.06" cy="318.86" r="5.62"/>
		<circle class="st1" cx="367.06" cy="318.86" r="10.29"/>
	</g>
</g>
<g>
	<circle class="st2" cx="367.03" cy="318.86" r="10.29"/>
	<circle class="st1" cx="367.03" cy="318.86" r="10.29"/>
	<line class="st3" x1="367.03" y1="318.86" x2="368.79" y2="327.1"/>
</g>
<g>
	<circle class="st4" cx="385.35" cy="318.86" r="1.13"/>
	<circle class="st4" cx="378.29" cy="304.15" r="1.13"/>
	<circle class="st4" cx="362.17" cy="300.5" r="1.13"/>
	<circle class="st4" cx="349.55" cy="310.57" r="1.13"/>
	<circle class="st4" cx="349.55" cy="327.16" r="1.13"/>
	<circle class="st4" cx="362.17" cy="337.23" r="1.13"/>
	<circle class="st4" cx="378.29" cy="333.58" r="1.13"/>
	<circle class="st4" cx="385.35" cy="318.86" r="1.13"/>
</g>
<g>
	<g>
		<circle class="st0" cx="258.84" cy="389.03" r="10.29"/>
		<circle class="st1" cx="258.84" cy="389.03" r="5.62"/>
		<circle class="st1" cx="258.84" cy="389.03" r="10.29"/>
	</g>
</g>
<g>
	<circle class="st2" cx="258.81" cy="389.03" r="10.29"/>
	<circle class="st1" cx="258.81" cy="389.03" r="10.29"/>
	<line class="st3" x1="258.81" y1="389.03" x2="265.88" y2="393.6"/>
</g>
<g>
	<circle class="st4" cx="277.13" cy="389.02" r="1.13"/>
	<circle class="st4" cx="270.07" cy="374.31" r="1.13"/>
	<circle class="st4" cx="253.95" cy="370.66" r="1.13"/>
	<circle class="st4" cx="241.33" cy="380.73" r="1.13"/>
	<circle class="st4" cx="241.33" cy="397.32" r="1.13"/>
	<circle class="st4" cx="253.95" cy="407.39" r="1.13"/>
	<circle class="st4" cx="270.07" cy="403.74" r="1.13"/>
	<circle class="st4" cx="277.13" cy="389.02" r="1.13"/>
</g>
<g>
	<g>
		<circle class="st0" cx="313.23" cy="389.03" r="10.29"/>
		<circle class="st1" cx="313.23" cy="389.03" r="5.62"/>
		<circle class="st1" cx="313.23" cy="389.03" r="10.29"/>
	</g>
</g>
<g>
	<circle class="st2" cx="313.2" cy="389.03" r="10.29"/>
	<circle class="st1" cx="313.2" cy="389.03" r="10.29"/>
	<line class="st3" x1="313.2" y1="389.03" x2="306.13" y2="384.45"/>
</g>
<g>
	<circle class="st4" cx="331.53" cy="389.02" r="1.13"/>
	<circle class="st4" cx="324.46" cy="374.31" r="1.13"/>
	<circle class="st4" cx="308.34" cy="370.66" r="1.13"/>
	<circle class="st4" cx="295.72" cy="380.73" r="1.13"/>
	<circle class="st4" cx="295.72" cy="397.32" r="1.13"/>
	<circle class="st4" cx="308.34" cy="407.39" r="1.13"/>
	<circle class="st4" cx="324.46" cy="403.74" r="1.13"/>
	<circle class="st4" cx="331.53" cy="389.02" r="1.13"/>
</g>
<g>
	<g>
		<circle class="st0" cx="367.06" cy="389.03" r="10.29"/>
		<circle class="st1" cx="367.06" cy="389.03" r="5.62"/>
		<circle class="st1" cx="367.06" cy="389.03" r="10.29"/>
	</g>
</g>
<g>
	<circle class="st2" cx="367.03" cy="389.03" r="10.29"/>
	<circle class="st1" cx="367.03" cy="389.03" r="10.29"/>
	<line class="st3" x1="367.03" y1="389.03" x2="365.27" y2="380.79"/>
</g>
<g>
	<circle class="st4" cx="385.35" cy="389.02" r="1.13"/>
	<circle class="st4" cx="378.29" cy="374.31" r="1.13"/>
	<circle class="st4" cx="362.17" cy="370.66" r="1.13"/>
	<circle class="st4" cx="349.55" cy="380.73" r="1.13"/>
	<circle class="st4" cx="349.55" cy="397.32" r="1.13"/>
	<circle class="st4" cx="362.17" cy="407.39" r="1.13"/>
	<circle class="st4" cx="378.29" cy="403.74" r="1.13"/>
	<circle class="st4" cx="385.35" cy="389.02" r="1.13"/>
</g>
<g>
	<circle class="st12" cx="375.04" cy="115.51" r="3.22"/>
	<circle class="st12" cx="359.78" cy="73.69" r="3.22"/>
	<circle class="st12" cx="321.8" cy="51.65" r="3.22"/>
	<circle class="st12" cx="277.37" cy="59.46" r="3.22"/>
	<circle class="st12" cx="249.28" cy="92.86" r="3.22"/>
	<circle class="st12" cx="249.28" cy="138.16" r="3.22"/>
	<circle class="st12" cx="277.37" cy="171.56" r="3.22"/>
	<circle class="st12" cx="321.8" cy="179.38" r="3.22"/>
	<circle class="st12" cx="359.78" cy="157.33" r="3.22"/>
	<circle class="st12" cx="375.04" cy="115.51" r="3.22"/>
</g>
</svg>
