<?xml version="1.0" encoding="UTF-8" standalone="no"?>
<!-- Created with Inkscape (http://www.inkscape.org/) -->

<svg xmlns:dc="http://purl.org/dc/elements/1.1/" 
   xmlns:cc="http://creativecommons.org/ns#" 
   xmlns:rdf="http://www.w3.org/1999/02/22-rdf-syntax-ns#" 
   xmlns:svg="http://www.w3.org/2000/svg" 
   xmlns="http://www.w3.org/2000/svg" 
   xmlns:sodipodi="http://sodipodi.sourceforge.net/DTD/sodipodi-0.dtd" 
   xmlns:inkscape="http://www.inkscape.org/namespaces/inkscape" viewBox="0 0 4.5728808 1.2392901" version="1.1" id="svg845" inkscape:version="0.92.4 (5da689c313, 2019-01-14)" sodipodi:docname="minus-slider.svg">
   <defs id="defs839" />
   <sodipodi:namedview id="base" pagecolor="#ffffff" bordercolor="#666666" borderopacity="1.0" inkscape:pageopacity="0.0" inkscape:pageshadow="2" inkscape:zoom="64" inkscape:cx="-1.9966304" inkscape:cy="3.8291353" inkscape:document-units="mm" inkscape:current-layer="g4536" showgrid="false" inkscape:window-width="1920" inkscape:window-height="1017" inkscape:window-x="-8" inkscape:window-y="-8" inkscape:window-maximized="1" />
   <metadata id="metadata842">
      <rdf:RDF>
         <cc:Work rdf:about="">
            <dc:format>image/svg+xml</dc:format>
            <dc:type rdf:resource="http://purl.org/dc/dcmitype/StillImage" />
            <dc:title />
         </cc:Work>
      </rdf:RDF>
   </metadata>
   <g inkscape:label="Calque 1" inkscape:groupmode="layer" id="layer1" transform="translate(-94.011371,-170.46209)">
      <g id="g4536">
         <path inkscape:connector-curvature="0" id="path1403" d="m 94.223281,170.46209 c -0.0564,0 -0.10598,0.0212 -0.14831,0.0636 -0.0423,0.0353 -0.0636,0.081 -0.0636,0.13746 v 0.84697 c 0,0.0565 0.0212,0.10218 0.0636,0.13746 0.0423,0.0353 0.0919,0.0527 0.14831,0.0527 h 2.05311 c 0.0564,0 0.10597,-0.0174 0.14831,-0.0527 0.0423,-0.0353 0.0636,-0.081 0.0636,-0.13746 v -0.84697 c 0,-0.0564 -0.0212,-0.10219 -0.0636,-0.13746 -0.0423,-0.0423 -0.0919,-0.0636 -0.14831,-0.0636 z" style="opacity:1;fill:#000000;fill-opacity:1;stroke:none;stroke-width:0.1;stroke-linecap:round;stroke-linejoin:round;stroke-miterlimit:4;stroke-dasharray:none;stroke-opacity:1" />
         <path inkscape:connector-curvature="0" id="path1403-1" d="m 96.319232,170.46319 c -0.0564,0 -0.10598,0.0212 -0.14831,0.0636 -0.0423,0.0353 -0.0636,0.081 -0.0636,0.13746 v 0.84697 c 0,0.0565 0.0212,0.10218 0.0636,0.13746 0.0423,0.0353 0.0919,0.0527 0.14831,0.0527 h 2.05311 c 0.0564,0 0.10597,-0.0174 0.14831,-0.0527 0.0423,-0.0353 0.0636,-0.081 0.0636,-0.13746 v -0.84697 c 0,-0.0564 -0.0212,-0.10219 -0.0636,-0.13746 -0.0423,-0.0423 -0.0919,-0.0636 -0.14831,-0.0636 z" style="opacity:1;fill:#000000;fill-opacity:1;stroke:none;stroke-width:0.1;stroke-linecap:round;stroke-linejoin:round;stroke-miterlimit:4;stroke-dasharray:none;stroke-opacity:1" />
      </g>
   </g>
</svg>
