<svg xmlns="http://www.w3.org/2000/svg" xmlns:xlink="http://www.w3.org/1999/xlink" viewBox="0 0 1920 1080"><defs><style>.cls-1,.cls-5{fill:none;}.cls-2{fill:#ff6e00;}.cls-3{clip-path:url(#clip-path);}.cls-4,.cls-7{fill:#ff9700;}.cls-4{opacity:0.1;}.cls-5{stroke:#ffbc00;stroke-linecap:round;stroke-linejoin:round;stroke-width:10px;}.cls-6{fill:#1d1e1b;}.cls-8{fill:#ffbc00;}.cls-9{clip-path:url(#clip-path-2);}.cls-10{fill:#fff;}.cls-11{font-size:29.66px;fill:#252525;font-family:MuseoSans-900, Museo Sans;font-weight:900;}.cls-12{font-size:13.4px;}.cls-13{letter-spacing:-0.01em;}.cls-14{letter-spacing:-0.05em;}.cls-15{letter-spacing:0em;}</style><clipPath id="clip-path"><rect class="cls-1" x="320" y="181" width="1280" height="720"/></clipPath><clipPath id="clip-path-2"><rect class="cls-2" x="823.25" y="346.5" width="249.5" height="499" rx="15.99"/></clipPath></defs><title>1</title><g id="Frame_1" data-name="Frame 1"><g class="cls-3"><path class="cls-4" d="M1578.27,846.31A12,12,0,0,0,1590,831.87a186.25,186.25,0,0,0-26.19-64.19c-18.68-28.63-44.84-51.66-64.64-79.52-54.09-76.08-55-178.47-99.82-260.36-50.47-92.24-158.89-149.24-263.49-138.51-65,6.68-125,36.56-184.39,63.79-165.35,75.8-339.3,135-493.65,231.29-23,14.32-45.83,29.78-62.6,51C364.71,674,358.35,727.32,367,775.72c3.77,21,10.07,41.4,17.78,61.32l0,.08a12,12,0,0,0,11.12,7.59Z"/><path class="cls-2" d="M1201.51,865.5h-12A2.48,2.48,0,0,1,1187,863v0c-.08-14.32-.21-36,23.2-61.89a69.11,69.11,0,0,0,16.3-29.76,52.23,52.23,0,0,0,1.58-11.38,2.47,2.47,0,0,1,2.24-2.41l12-1.17a2.49,2.49,0,0,1,2.72,2.46c.06,7.78-1.68,30.86-22.27,53.66-19,21-18.9,36.63-18.82,50.39v.1A2.48,2.48,0,0,1,1201.51,865.5Z"/><path class="cls-2" d="M1306.57,865.5h-12a2.51,2.51,0,0,1-2.51-2.52v-.07c.08-13.76.18-29.37-18.82-50.39-20.55-22.76-22.32-45.81-22.26-53.62a2.5,2.5,0,0,1,2.75-2.48l14.28,1.43-8.46-.85,6.16.57A2.5,2.5,0,0,1,1268,760a52.67,52.67,0,0,0,1.59,11.35,69,69,0,0,0,16.29,29.76c23.41,25.93,23.29,47.57,23.2,61.89h0A2.5,2.5,0,0,1,1306.57,865.5Z"/><rect class="cls-2" x="1179" y="748" width="138" height="17" rx="8.5"/><line class="cls-5" x1="1223" y1="692" x2="1223" y2="588"/><line class="cls-5" x1="1223" y1="620" x2="1242" y2="601"/><line class="cls-5" x1="1223" y1="658" x2="1242" y2="639"/><line class="cls-5" x1="1223" y1="639" x2="1204" y2="620"/><line class="cls-5" x1="1223" y1="677" x2="1204" y2="658"/><path class="cls-6" d="M569.27,500.84a1.5,1.5,0,0,0,0-3,1.5,1.5,0,0,0,0,3Z"/><path class="cls-7" d="M614.18,817.86l-2.93-58.27c-1.32-26.29-2.74-53.07-11.92-77.74-7.06-19-18.57-36.24-24-55.77s-2.92-43.47,13.33-55.56c17-12.65,43.1-6.36,57,9.62s17.61,38.7,15.87,59.83-8.21,41.55-12.16,62.38a264.56,264.56,0,0,0,6.26,123.9c-12.38-4.45-25.06-3.59-37.45-8C617.68,817.22,614.23,819,614.18,817.86Z"/><path class="cls-8" d="M697.74,706.78c2.47-10.13,4.9-21,1.08-30.76s-16.72-16.41-25.07-10.15c-9.27,7-5.25,21.39-7,32.85-3.06,19.6-24,30.67-34.48,47.5-13.91,22.31-7.82,51.13-1.28,76.6,8.68,33.82,38.68,24.28,41.64-5.48C676.28,780.25,688.93,743,697.74,706.78Z"/><path class="cls-2" d="M667.55,865h-50.1a8.25,8.25,0,0,1-7.83-5.64l-14.5-43.5A8.25,8.25,0,0,1,603,805h79.1a8.25,8.25,0,0,1,7.83,10.86l-14.5,43.5A8.25,8.25,0,0,1,667.55,865Z"/><rect class="cls-7" x="1204" y="692" width="37" height="56" rx="5.96"/><rect class="cls-2" x="823.25" y="346.5" width="249.5" height="499" rx="15.99"/><g class="cls-9"><circle class="cls-10" cx="858" cy="596" r="15"/><path class="cls-7" d="M869.58,365.18c-1,8.55-3.2,17-2.85,25.63.28,7,2.7,14.39,7.7,19.07a2.05,2.05,0,0,1-1.16,3.54c-33.12,3.66-67.86-25.33-56.88-60.51S873.87,327.78,869.58,365.18Z"/><path class="cls-8" d="M851,408.17c-.72,6.33-2.37,12.6-2.11,19a21.65,21.65,0,0,0,4.39,12.71,2.56,2.56,0,0,1-1.79,4.21c-23.81,1.22-47.75-19.73-39.87-45C819.73,373,854.14,380.49,851,408.17Z"/><path class="cls-7" d="M1015.81,367.3c1.38,5.87,5.07,10.88,7.69,16.31,8.52,17.66,4.08,40.42-9.65,54.21a2.8,2.8,0,0,0,2,4.79c13.6-.22,27.23-1.23,40.09-5.51,15.31-5.1,29.58-15.54,35.65-30.49,8.56-21.13-.43-62.14-21.8-74.18C1049,320.68,1009.75,341.35,1015.81,367.3Z"/><rect class="cls-10" x="893" y="468" width="109" height="68" transform="translate(-68.87 160.31) rotate(-9.33)"/></g><text class="cls-11" transform="translate(908.95 511.28) rotate(-8.44)">STOP<tspan class="cls-12"><tspan x="0.19" y="16.08">DEM</tspan><tspan class="cls-13" x="30.16" y="16.08">I</tspan><tspan class="cls-14" x="34.65" y="16.08">-</tspan><tspan class="cls-15" x="39.97" y="16.08">TOUR</tspan></tspan></text></g></g></svg>