<svg xmlns="http://www.w3.org/2000/svg" viewBox="0 0 1440 1024"><title>école-sansroute(entreprise&amp;gt;école)</title><g id="fond"><path d="M2321.89,690c-270.68-14.11-198.46-39.65-448.64-20.45-207.59,15.93-362.4-33.94-428-33-262.17,3.59-597.54,120.87-605.62,123.79-227.4,82.11,2501.67,142.79,3481.79,135.17V686.38C4074,725.66,2799.05,714.88,2321.89,690Z" style="fill:#e5eec9"/><path d="M1277.21,772.89c-3.53-2.92-40.2-37.21-43.63-40.29-18.29-16.4,91-85.18-.44-74.28-119.74,14.27-193.11,1.25-315.07,5.45-121.06,4.17-262.32,7.18-317,13.59s-154.3,12.5-259.58,15-229.3-52.31-339.57-55.9c-93.24-3-338.7-61-486.93,121.27,0,0,3.29,84.54,252.33,79.27C14.3,831.81,1451.83,917.16,1277.21,772.89Z" style="fill:#e5eec9"/><path d="M1440,762.72l748,17.95a950.79,950.79,0,0,1,116.45,8.18l587.75,77.8c-203.55,5.33-586,69.43-1050.5,69.51-1537.52.28-4060-83.28-4698.65-80.87-831.57,3.15-1488.29-52.62-1488.29-52.62s313.32-40.58,861.61-36.19,928.24-18,1348.6-10.4,696.94,7.25,696.94,7.25l294-35.39a730.9,730.9,0,0,1,133-3.8l535.63,35.55q15.21,1,30.45,1.21L0,762.72H1440" style="fill:#80bbde"/><path d="M1440,824c-318.24,3.16-845,.08-1438.91,0-1366.48-.2-3084.17,1-3404.51,27.17-142,11.61-696.57-15.57-1004.39,4.4S-4915.7,842.2-5162,835.33s-514.36,41.78-760.61,43.22-593.77-16.38-1086.28-23-946.53-20.19-946.53-20.19c-364.78,0-566.79,107-686.82,117.33v72.2l12963.66,1V868.19c-1.09.11-1428.14-1.64-1429.23-1.54C2792.09,876.37,1567.82,824,1440,824" style="fill:#c5e567"/></g><g id="ECOLE"><path d="M1304.25,896.1c-39.06-52.43-270.7-72.4-434.73-112.67-63.82-15.67-130.36,11.13-194.66-2.15-28.32-5.85-62.45-6.52-101.41,4.32-119.72,33.33-176.91,31.24-293.05,62.45-60.87,16.36-93.51,58.14-111,97-16.82,37.35,10.37,79.62,51.34,79.63l1068.83.23c47.1,0,73.44-54.34,44.25-91.3l-29.58-37.46Z" style="fill:#96969a"/><path d="M252.1,666.63s-10.53-1.27-14.09,20.42c-3.22,19.61,6.47,23.09,14.09,23.09Z" style="fill:#9db56b"/><path d="M252.1,666.63s10.53-1.27,14.09,20.42c3.22,19.61-6.47,23.09-14.09,23.09Z" style="fill:#b6c891"/><rect x="250.58" y="710.14" width="3.09" height="18.84" style="fill:#5e7e8f"/><path d="M1274.56,679.44s-13.4-1.62-17.94,26c-4.09,25,8.24,29.39,17.94,29.39Z" style="fill:#9db56b"/><path d="M1274.56,679.44s13.4-1.62,17.93,26c4.09,25-8.24,29.39-17.93,29.39Z" style="fill:#b6c891"/><rect x="1272.62" y="734.82" width="3.93" height="23.98" style="fill:#5e7e8f"/><path d="M1398.58,684.51s-10.53-1.27-14.09,20.43c-3.22,19.61,6.47,23.09,14.09,23.09Z" style="fill:#9db56b"/><path d="M1398.58,684.51s10.53-1.27,14.09,20.43c3.22,19.61-6.47,23.09-14.09,23.09Z" style="fill:#b6c891"/><rect x="1397.06" y="728.03" width="3.09" height="18.84" style="fill:#5e7e8f"/><path d="M1308.49,682.51s-9.17-1.1-12.28,17.81c-2.8,17.09,5.64,20.13,12.28,20.13Z" style="fill:#9db56b"/><path d="M1308.49,682.51s9.18-1.1,12.29,17.81c2.8,17.09-5.64,20.13-12.29,20.13Z" style="fill:#b6c891"/><rect x="1307.17" y="720.45" width="2.69" height="16.43" style="fill:#5e7e8f"/><path d="M1379.92,639.34s-5-.6-6.65,9.63c-1.52,9.25,3,10.9,6.65,10.9Z" style="fill:#9db56b"/><path d="M1379.92,639.34s5-.6,6.64,9.63c1.52,9.25-3,10.9-6.64,10.9Z" style="fill:#b6c891"/><rect x="1379.2" y="659.87" width="1.46" height="8.89" style="fill:#5e7e8f"/><path d="M1395.22,633.49s-5-.6-6.65,9.63c-1.52,9.26,3,10.9,6.65,10.9Z" style="fill:#9db56b"/><path d="M1395.22,633.49s5-.6,6.64,9.63c1.52,9.26-3,10.9-6.64,10.9Z" style="fill:#b6c891"/><rect x="1394.5" y="654.02" width="1.46" height="8.89" style="fill:#5e7e8f"/><path d="M1215.38,679.85s-5-.6-6.65,9.63c-1.51,9.25,3.06,10.9,6.65,10.9Z" style="fill:#9db56b"/><path d="M1215.38,679.85s5-.6,6.65,9.63c1.52,9.25-3,10.9-6.65,10.9Z" style="fill:#b6c891"/><rect x="1214.66" y="700.38" width="1.46" height="8.89" style="fill:#5e7e8f"/><path d="M1078.71,647s-5-.6-6.65,9.63c-1.52,9.25,3.06,10.9,6.65,10.9Z" style="fill:#9db56b"/><path d="M1078.71,647s5-.6,6.65,9.63c1.52,9.25-3.06,10.9-6.65,10.9Z" style="fill:#b6c891"/><rect x="1077.99" y="667.56" width="1.46" height="8.89" style="fill:#5e7e8f"/><path d="M1128.61,642.75s-5-.6-6.65,9.63c-1.52,9.26,3,10.9,6.65,10.9Z" style="fill:#9db56b"/><path d="M1128.61,642.75s5-.6,6.65,9.63c1.51,9.26-3.06,10.9-6.65,10.9Z" style="fill:#b6c891"/><rect x="1127.89" y="663.28" width="1.46" height="8.89" style="fill:#5e7e8f"/><path d="M978,640s-5-.6-6.64,9.64c-1.52,9.25,3,10.89,6.64,10.89Z" style="fill:#9db56b"/><path d="M978,640s5-.6,6.65,9.64c1.52,9.25-3,10.89-6.65,10.89Z" style="fill:#b6c891"/><rect x="977.29" y="660.5" width="1.46" height="8.89" style="fill:#5e7e8f"/><path d="M66,680.89s-10.19-1.23-13.64,19.76C49.27,719.62,58.64,723,66,723Z" style="fill:#9db56b"/><path d="M66,680.89s10.18-1.23,13.63,19.76C82.76,719.62,73.39,723,66,723Z" style="fill:#b6c891"/><rect x="64.54" y="722.99" width="2.99" height="18.23" style="fill:#5e7e8f"/><rect x="32.37" y="685.46" width="1.89" height="13.33" style="fill:#5e7e8f"/><polygon points="33.32 652.03 33.32 685.46 22.49 685.46 33.32 652.03" style="fill:#9db56b"/><polyline points="44.15 685.35 33.32 651.93 33.32 685.35" style="fill:#b6c891"/><rect x="1198.23" y="513.18" width="54.17" height="157.94" style="fill:#8dc2e2"/><rect id="fenetre" x="1203.74" y="520.96" width="7.56" height="13.53" style="fill:#cae2f1"/><rect id="fenetre-2" data-name="fenetre" x="1215.38" y="520.96" width="7.56" height="13.53" style="fill:#cae2f1"/><rect id="fenetre-3" data-name="fenetre" x="1227.02" y="520.96" width="7.56" height="13.53" style="fill:#cae2f1"/><rect id="fenetre-4" data-name="fenetre" x="1238.66" y="520.96" width="7.56" height="13.53" style="fill:#cae2f1"/><rect id="fenetre-5" data-name="fenetre" x="1203.74" y="539.13" width="7.56" height="13.53" style="fill:#cae2f1"/><rect id="fenetre-6" data-name="fenetre" x="1215.38" y="539.13" width="7.56" height="13.53" style="fill:#cae2f1"/><rect id="fenetre-7" data-name="fenetre" x="1227.02" y="539.13" width="7.56" height="13.53" style="fill:#cae2f1"/><rect id="fenetre-8" data-name="fenetre" x="1238.66" y="539.13" width="7.56" height="13.53" style="fill:#cae2f1"/><rect id="fenetre-9" data-name="fenetre" x="1203.74" y="557.31" width="7.56" height="13.53" style="fill:#cae2f1"/><rect id="fenetre-10" data-name="fenetre" x="1215.38" y="557.31" width="7.56" height="13.53" style="fill:#cae2f1"/><rect id="fenetre-11" data-name="fenetre" x="1227.02" y="557.31" width="7.56" height="13.53" style="fill:#cae2f1"/><rect id="fenetre-12" data-name="fenetre" x="1238.66" y="557.31" width="7.56" height="13.53" style="fill:#cae2f1"/><rect id="fenetre-13" data-name="fenetre" x="1203.74" y="575.49" width="7.56" height="13.53" style="fill:#cae2f1"/><rect id="fenetre-14" data-name="fenetre" x="1215.38" y="575.49" width="7.56" height="13.53" style="fill:#cae2f1"/><rect id="fenetre-15" data-name="fenetre" x="1227.02" y="575.49" width="7.56" height="13.53" style="fill:#cae2f1"/><rect id="fenetre-16" data-name="fenetre" x="1238.66" y="575.49" width="7.56" height="13.53" style="fill:#cae2f1"/><rect id="fenetre-17" data-name="fenetre" x="1203.74" y="593.67" width="7.56" height="13.53" style="fill:#cae2f1"/><rect id="fenetre-18" data-name="fenetre" x="1215.38" y="593.67" width="7.56" height="13.53" style="fill:#cae2f1"/><rect id="fenetre-19" data-name="fenetre" x="1227.02" y="593.67" width="7.56" height="13.53" style="fill:#cae2f1"/><rect id="fenetre-20" data-name="fenetre" x="1238.66" y="593.67" width="7.56" height="13.53" style="fill:#cae2f1"/><rect id="fenetre-21" data-name="fenetre" x="1203.74" y="611.84" width="7.56" height="13.53" style="fill:#cae2f1"/><rect id="fenetre-22" data-name="fenetre" x="1215.38" y="611.84" width="7.56" height="13.53" style="fill:#cae2f1"/><rect id="fenetre-23" data-name="fenetre" x="1227.02" y="611.84" width="7.56" height="13.53" style="fill:#cae2f1"/><rect id="fenetre-24" data-name="fenetre" x="1238.66" y="611.84" width="7.56" height="13.53" style="fill:#cae2f1"/><rect id="fenetre-25" data-name="fenetre" x="1203.74" y="630.02" width="7.56" height="13.53" style="fill:#cae2f1"/><rect id="fenetre-26" data-name="fenetre" x="1215.38" y="630.02" width="7.56" height="13.53" style="fill:#cae2f1"/><rect id="fenetre-27" data-name="fenetre" x="1227.02" y="630.02" width="7.56" height="13.53" style="fill:#cae2f1"/><rect id="fenetre-28" data-name="fenetre" x="1238.66" y="630.02" width="7.56" height="13.53" style="fill:#cae2f1"/><rect id="fenetre-29" data-name="fenetre" x="1203.74" y="648.2" width="7.56" height="13.53" style="fill:#cae2f1"/><rect id="fenetre-30" data-name="fenetre" x="1215.38" y="648.2" width="7.56" height="13.53" style="fill:#cae2f1"/><rect id="fenetre-31" data-name="fenetre" x="1227.02" y="648.2" width="7.56" height="13.53" style="fill:#cae2f1"/><rect id="fenetre-32" data-name="fenetre" x="1238.66" y="648.2" width="7.56" height="13.53" style="fill:#cae2f1"/><rect x="1312.03" y="511.67" width="54.17" height="157.94" style="fill:#8dc2e2"/><rect id="fenetre-33" data-name="fenetre" x="1317.55" y="519.44" width="7.56" height="13.53" style="fill:#cae2f1"/><rect id="fenetre-34" data-name="fenetre" x="1329.18" y="519.44" width="7.56" height="13.53" style="fill:#cae2f1"/><rect id="fenetre-35" data-name="fenetre" x="1340.82" y="519.44" width="7.56" height="13.53" style="fill:#cae2f1"/><rect id="fenetre-36" data-name="fenetre" x="1352.46" y="519.44" width="7.56" height="13.53" style="fill:#cae2f1"/><rect id="fenetre-37" data-name="fenetre" x="1317.55" y="537.62" width="7.56" height="13.53" style="fill:#cae2f1"/><rect id="fenetre-38" data-name="fenetre" x="1329.18" y="537.62" width="7.56" height="13.53" style="fill:#cae2f1"/><rect id="fenetre-39" data-name="fenetre" x="1340.82" y="537.62" width="7.56" height="13.53" style="fill:#cae2f1"/><rect id="fenetre-40" data-name="fenetre" x="1352.46" y="537.62" width="7.56" height="13.53" style="fill:#cae2f1"/><rect id="fenetre-41" data-name="fenetre" x="1317.55" y="555.8" width="7.56" height="13.53" style="fill:#cae2f1"/><rect id="fenetre-42" data-name="fenetre" x="1329.18" y="555.8" width="7.56" height="13.53" style="fill:#cae2f1"/><rect id="fenetre-43" data-name="fenetre" x="1340.82" y="555.8" width="7.56" height="13.53" style="fill:#cae2f1"/><rect id="fenetre-44" data-name="fenetre" x="1352.46" y="555.8" width="7.56" height="13.53" style="fill:#cae2f1"/><rect id="fenetre-45" data-name="fenetre" x="1317.55" y="573.98" width="7.56" height="13.53" style="fill:#cae2f1"/><rect id="fenetre-46" data-name="fenetre" x="1329.18" y="573.98" width="7.56" height="13.53" style="fill:#cae2f1"/><rect id="fenetre-47" data-name="fenetre" x="1340.82" y="573.98" width="7.56" height="13.53" style="fill:#cae2f1"/><rect id="fenetre-48" data-name="fenetre" x="1352.46" y="573.98" width="7.56" height="13.53" style="fill:#cae2f1"/><rect id="fenetre-49" data-name="fenetre" x="1317.55" y="592.15" width="7.56" height="13.53" style="fill:#cae2f1"/><rect id="fenetre-50" data-name="fenetre" x="1329.18" y="592.15" width="7.56" height="13.53" style="fill:#cae2f1"/><rect id="fenetre-51" data-name="fenetre" x="1340.82" y="592.15" width="7.56" height="13.53" style="fill:#cae2f1"/><rect id="fenetre-52" data-name="fenetre" x="1352.46" y="592.15" width="7.56" height="13.53" style="fill:#cae2f1"/><rect id="fenetre-53" data-name="fenetre" x="1317.55" y="610.33" width="7.56" height="13.53" style="fill:#cae2f1"/><rect id="fenetre-54" data-name="fenetre" x="1329.18" y="610.33" width="7.56" height="13.53" style="fill:#cae2f1"/><rect id="fenetre-55" data-name="fenetre" x="1340.82" y="610.33" width="7.56" height="13.53" style="fill:#cae2f1"/><rect id="fenetre-56" data-name="fenetre" x="1352.46" y="610.33" width="7.56" height="13.53" style="fill:#cae2f1"/><rect id="fenetre-57" data-name="fenetre" x="1317.55" y="628.51" width="7.56" height="13.53" style="fill:#cae2f1"/><rect id="fenetre-58" data-name="fenetre" x="1329.18" y="628.51" width="7.56" height="13.53" style="fill:#cae2f1"/><rect id="fenetre-59" data-name="fenetre" x="1340.82" y="628.51" width="7.56" height="13.53" style="fill:#cae2f1"/><rect id="fenetre-60" data-name="fenetre" x="1352.46" y="628.51" width="7.56" height="13.53" style="fill:#cae2f1"/><rect id="fenetre-61" data-name="fenetre" x="1317.55" y="646.68" width="7.56" height="13.53" style="fill:#cae2f1"/><rect id="fenetre-62" data-name="fenetre" x="1329.18" y="646.68" width="7.56" height="13.53" style="fill:#cae2f1"/><rect id="fenetre-63" data-name="fenetre" x="1340.82" y="646.68" width="7.56" height="13.53" style="fill:#cae2f1"/><rect id="fenetre-64" data-name="fenetre" x="1352.46" y="646.68" width="7.56" height="13.53" style="fill:#cae2f1"/><rect x="1240.85" y="438.6" width="87.21" height="239.71" style="fill:#b0d5eb"/><rect id="fenetre-65" data-name="fenetre" x="1249.73" y="450.4" width="12.18" height="20.54" style="fill:#cae2f1"/><rect id="fenetre-66" data-name="fenetre" x="1268.47" y="450.4" width="12.18" height="20.54" style="fill:#cae2f1"/><rect id="fenetre-67" data-name="fenetre" x="1287.2" y="450.4" width="12.18" height="20.54" style="fill:#cae2f1"/><rect id="fenetre-68" data-name="fenetre" x="1305.94" y="450.4" width="12.18" height="20.54" style="fill:#cae2f1"/><rect id="fenetre-69" data-name="fenetre" x="1249.73" y="477.99" width="12.18" height="20.54" style="fill:#cae2f1"/><rect id="fenetre-70" data-name="fenetre" x="1268.47" y="477.99" width="12.18" height="20.54" style="fill:#cae2f1"/><rect id="fenetre-71" data-name="fenetre" x="1287.2" y="477.99" width="12.18" height="20.54" style="fill:#cae2f1"/><rect id="fenetre-72" data-name="fenetre" x="1305.94" y="477.99" width="12.18" height="20.54" style="fill:#cae2f1"/><rect id="fenetre-73" data-name="fenetre" x="1249.73" y="505.58" width="12.18" height="20.54" style="fill:#cae2f1"/><rect id="fenetre-74" data-name="fenetre" x="1268.47" y="505.58" width="12.18" height="20.54" style="fill:#cae2f1"/><rect id="fenetre-75" data-name="fenetre" x="1287.2" y="505.58" width="12.18" height="20.54" style="fill:#cae2f1"/><rect id="fenetre-76" data-name="fenetre" x="1305.94" y="505.58" width="12.18" height="20.54" style="fill:#cae2f1"/><rect id="fenetre-77" data-name="fenetre" x="1249.73" y="533.17" width="12.18" height="20.54" style="fill:#cae2f1"/><rect id="fenetre-78" data-name="fenetre" x="1268.47" y="533.17" width="12.18" height="20.54" style="fill:#cae2f1"/><rect id="fenetre-79" data-name="fenetre" x="1287.2" y="533.17" width="12.18" height="20.54" style="fill:#cae2f1"/><rect id="fenetre-80" data-name="fenetre" x="1305.94" y="533.17" width="12.18" height="20.54" style="fill:#cae2f1"/><rect id="fenetre-81" data-name="fenetre" x="1249.73" y="560.75" width="12.18" height="20.54" style="fill:#cae2f1"/><rect id="fenetre-82" data-name="fenetre" x="1268.47" y="560.75" width="12.18" height="20.54" style="fill:#cae2f1"/><rect id="fenetre-83" data-name="fenetre" x="1287.2" y="560.75" width="12.18" height="20.54" style="fill:#cae2f1"/><rect id="fenetre-84" data-name="fenetre" x="1305.94" y="560.75" width="12.18" height="20.54" style="fill:#cae2f1"/><rect id="fenetre-85" data-name="fenetre" x="1249.73" y="588.34" width="12.18" height="20.54" style="fill:#cae2f1"/><rect id="fenetre-86" data-name="fenetre" x="1268.47" y="588.34" width="12.18" height="20.54" style="fill:#cae2f1"/><rect id="fenetre-87" data-name="fenetre" x="1287.2" y="588.34" width="12.18" height="20.54" style="fill:#cae2f1"/><rect id="fenetre-88" data-name="fenetre" x="1305.94" y="588.34" width="12.18" height="20.54" style="fill:#cae2f1"/><rect id="fenetre-89" data-name="fenetre" x="1249.73" y="615.93" width="12.18" height="20.54" style="fill:#cae2f1"/><rect id="fenetre-90" data-name="fenetre" x="1268.47" y="615.93" width="12.18" height="20.54" style="fill:#cae2f1"/><rect id="fenetre-91" data-name="fenetre" x="1287.2" y="615.93" width="12.18" height="20.54" style="fill:#cae2f1"/><rect id="fenetre-92" data-name="fenetre" x="1305.94" y="615.93" width="12.18" height="20.54" style="fill:#cae2f1"/><rect id="fenetre-93" data-name="fenetre" x="1249.73" y="643.52" width="12.18" height="20.54" style="fill:#cae2f1"/><rect id="fenetre-94" data-name="fenetre" x="1268.47" y="643.52" width="12.18" height="20.54" style="fill:#cae2f1"/><rect id="fenetre-95" data-name="fenetre" x="1287.2" y="643.52" width="12.18" height="20.54" style="fill:#cae2f1"/><rect id="fenetre-96" data-name="fenetre" x="1305.94" y="643.52" width="12.18" height="20.54" style="fill:#cae2f1"/><rect x="103.75" y="419.07" width="70.58" height="249.43" style="fill:#8dc2e2"/><rect id="fenetre-97" data-name="fenetre" x="114.77" y="438.53" width="11.85" height="218.59" style="fill:#cae2f1"/><rect id="fenetre-98" data-name="fenetre" x="132.99" y="438.53" width="11.85" height="218.59" style="fill:#cae2f1"/><rect id="fenetre-99" data-name="fenetre" x="151.22" y="438.53" width="11.85" height="218.59" style="fill:#cae2f1"/><rect x="65.93" y="526.13" width="54.17" height="157.94" style="fill:#8dc2e2"/><rect id="fenetre-100" data-name="fenetre" x="71.44" y="533.91" width="7.56" height="13.53" style="fill:#cae2f1"/><rect id="fenetre-101" data-name="fenetre" x="83.08" y="533.91" width="7.56" height="13.53" style="fill:#cae2f1"/><rect id="fenetre-102" data-name="fenetre" x="94.71" y="533.91" width="7.56" height="13.53" style="fill:#cae2f1"/><rect id="fenetre-103" data-name="fenetre" x="106.35" y="533.91" width="7.56" height="13.53" style="fill:#cae2f1"/><rect id="fenetre-104" data-name="fenetre" x="71.44" y="552.08" width="7.56" height="13.53" style="fill:#cae2f1"/><rect id="fenetre-105" data-name="fenetre" x="83.08" y="552.08" width="7.56" height="13.53" style="fill:#cae2f1"/><rect id="fenetre-106" data-name="fenetre" x="94.71" y="552.08" width="7.56" height="13.53" style="fill:#cae2f1"/><rect id="fenetre-107" data-name="fenetre" x="106.35" y="552.08" width="7.56" height="13.53" style="fill:#cae2f1"/><rect id="fenetre-108" data-name="fenetre" x="71.44" y="570.26" width="7.56" height="13.53" style="fill:#cae2f1"/><rect id="fenetre-109" data-name="fenetre" x="83.08" y="570.26" width="7.56" height="13.53" style="fill:#cae2f1"/><rect id="fenetre-110" data-name="fenetre" x="94.71" y="570.26" width="7.56" height="13.53" style="fill:#cae2f1"/><rect id="fenetre-111" data-name="fenetre" x="106.35" y="570.26" width="7.56" height="13.53" style="fill:#cae2f1"/><rect id="fenetre-112" data-name="fenetre" x="71.44" y="588.44" width="7.56" height="13.53" style="fill:#cae2f1"/><rect id="fenetre-113" data-name="fenetre" x="83.08" y="588.44" width="7.56" height="13.53" style="fill:#cae2f1"/><rect id="fenetre-114" data-name="fenetre" x="94.71" y="588.44" width="7.56" height="13.53" style="fill:#cae2f1"/><rect id="fenetre-115" data-name="fenetre" x="106.35" y="588.44" width="7.56" height="13.53" style="fill:#cae2f1"/><rect id="fenetre-116" data-name="fenetre" x="71.44" y="606.62" width="7.56" height="13.53" style="fill:#cae2f1"/><rect id="fenetre-117" data-name="fenetre" x="83.08" y="606.62" width="7.56" height="13.53" style="fill:#cae2f1"/><rect id="fenetre-118" data-name="fenetre" x="94.71" y="606.62" width="7.56" height="13.53" style="fill:#cae2f1"/><rect id="fenetre-119" data-name="fenetre" x="106.35" y="606.62" width="7.56" height="13.53" style="fill:#cae2f1"/><rect id="fenetre-120" data-name="fenetre" x="71.44" y="624.79" width="7.56" height="13.53" style="fill:#cae2f1"/><rect id="fenetre-121" data-name="fenetre" x="83.08" y="624.79" width="7.56" height="13.53" style="fill:#cae2f1"/><rect id="fenetre-122" data-name="fenetre" x="94.71" y="624.79" width="7.56" height="13.53" style="fill:#cae2f1"/><rect id="fenetre-123" data-name="fenetre" x="106.35" y="624.79" width="7.56" height="13.53" style="fill:#cae2f1"/><rect id="fenetre-124" data-name="fenetre" x="71.44" y="642.97" width="7.56" height="13.53" style="fill:#cae2f1"/><rect id="fenetre-125" data-name="fenetre" x="83.08" y="642.97" width="7.56" height="13.53" style="fill:#cae2f1"/><rect id="fenetre-126" data-name="fenetre" x="94.71" y="642.97" width="7.56" height="13.53" style="fill:#cae2f1"/><rect id="fenetre-127" data-name="fenetre" x="106.35" y="642.97" width="7.56" height="13.53" style="fill:#cae2f1"/><rect id="fenetre-128" data-name="fenetre" x="71.44" y="661.15" width="7.56" height="13.53" style="fill:#cae2f1"/><rect id="fenetre-129" data-name="fenetre" x="83.08" y="661.15" width="7.56" height="13.53" style="fill:#cae2f1"/><rect id="fenetre-130" data-name="fenetre" x="94.71" y="661.15" width="7.56" height="13.53" style="fill:#cae2f1"/><rect id="fenetre-131" data-name="fenetre" x="106.35" y="661.15" width="7.56" height="13.53" style="fill:#cae2f1"/><rect x="539.59" y="557.91" width="368.4" height="301.8" style="fill:#ffc441"/><rect x="558.13" y="576.6" width="38.32" height="100.75" style="fill:#fcf8f0"/><rect x="558.13" y="576.6" width="38.32" height="31.35" style="fill:#e3deca"/><rect x="553.08" y="677.36" width="48" height="5.58" style="fill:#e3deca"/><rect x="617.6" y="576.92" width="38.32" height="100.75" style="fill:#fcf8f0"/><rect x="617.6" y="576.92" width="38.32" height="31.35" style="fill:#e3deca"/><rect x="612.54" y="677.68" width="48" height="5.58" style="fill:#e3deca"/><rect x="674.89" y="576.92" width="38.32" height="100.75" style="fill:#fcf8f0"/><rect x="674.89" y="576.92" width="38.32" height="31.35" style="fill:#e3deca"/><rect x="669.84" y="677.68" width="48" height="5.58" style="fill:#e3deca"/><rect x="732.18" y="576.92" width="38.32" height="100.75" style="fill:#fcf8f0"/><rect x="732.18" y="576.92" width="38.32" height="31.35" style="fill:#e3deca"/><rect x="727.13" y="677.68" width="48" height="5.58" style="fill:#e3deca"/><rect x="789.47" y="576.92" width="38.32" height="100.75" style="fill:#fcf8f0"/><rect x="789.47" y="576.92" width="38.32" height="31.35" style="fill:#e3deca"/><rect x="784.42" y="677.68" width="48" height="5.58" style="fill:#e3deca"/><rect x="846.76" y="576.92" width="38.32" height="100.75" style="fill:#fcf8f0"/><rect x="846.76" y="576.92" width="38.32" height="31.35" style="fill:#e3deca"/><rect x="841.71" y="677.68" width="48" height="5.58" style="fill:#e3deca"/><rect x="558.13" y="737.02" width="38.32" height="100.75" style="fill:#fcf8f0"/><rect x="558.13" y="737.02" width="38.32" height="31.35" style="fill:#e3deca"/><rect x="553.55" y="837.35" width="48" height="5.58" style="fill:#e3deca"/><rect x="617.6" y="737.34" width="38.32" height="100.75" style="fill:#fcf8f0"/><rect x="617.6" y="737.34" width="38.32" height="31.35" style="fill:#e3deca"/><rect x="613.01" y="837.67" width="48" height="5.58" style="fill:#e3deca"/><rect x="788.44" y="737.02" width="38.32" height="100.75" style="fill:#fcf8f0"/><rect x="788.44" y="737.02" width="38.32" height="31.35" style="fill:#e3deca"/><rect x="783.86" y="837.35" width="48" height="5.58" style="fill:#e3deca"/><rect x="847.91" y="737.34" width="38.32" height="100.75" style="fill:#fcf8f0"/><rect x="847.91" y="737.34" width="38.32" height="31.35" style="fill:#e3deca"/><rect x="843.32" y="837.67" width="48" height="5.58" style="fill:#e3deca"/><rect x="688.5" y="737.02" width="70.58" height="122.69" style="fill:#fcf8f0"/><polygon points="519.72 563.65 924.44 563.65 888.85 534.67 561.48 534.67 519.72 563.65" style="fill:#f99a04"/><rect x="907.99" y="711.05" width="205.41" height="148.66" style="fill:#ffc441"/><rect x="929.38" y="737.02" width="38.32" height="100.75" style="fill:#fcf8f0"/><rect x="929.38" y="737.02" width="38.32" height="31.35" style="fill:#e3deca"/><rect x="924.33" y="837.77" width="48" height="5.58" style="fill:#e3deca"/><rect x="988.84" y="737.34" width="38.32" height="100.75" style="fill:#fcf8f0"/><rect x="988.84" y="737.34" width="38.32" height="31.35" style="fill:#e3deca"/><rect x="983.79" y="838.09" width="48" height="5.58" style="fill:#e3deca"/><rect x="1049.57" y="737.34" width="38.32" height="100.75" style="fill:#fcf8f0"/><rect x="1049.57" y="737.34" width="38.32" height="31.35" style="fill:#e3deca"/><rect x="1044.52" y="838.09" width="48" height="5.58" style="fill:#e3deca"/><polygon points="907.99 724.16 1128.47 724.16 1106.8 696.59 907.55 696.59 907.99 724.16" style="fill:#f99a04"/><rect id="facade_gauche" data-name="facade gauche" x="335.08" y="711.05" width="205.41" height="148.66" style="fill:#ffc441"/><rect id="fenetre-132" data-name="fenetre" x="356.47" y="737.02" width="38.32" height="100.75" style="fill:#fcf8f0"/><rect id="rideau" x="356.47" y="737.02" width="38.32" height="31.35" style="fill:#e3deca"/><rect id="rebord_f" data-name="rebord f" x="351.42" y="837.77" width="48" height="5.58" style="fill:#e3deca"/><rect id="fenetre-133" data-name="fenetre" x="415.93" y="737.34" width="38.32" height="100.75" style="fill:#fcf8f0"/><rect id="rideau-2" data-name="rideau" x="415.93" y="737.34" width="38.32" height="31.35" style="fill:#e3deca"/><rect id="rebord_f-2" data-name="rebord f" x="410.88" y="838.09" width="48" height="5.58" style="fill:#e3deca"/><rect id="fenetre-134" data-name="fenetre" x="476.66" y="737.34" width="38.32" height="100.75" style="fill:#fcf8f0"/><rect id="rideau-3" data-name="rideau" x="476.66" y="737.34" width="38.32" height="31.35" style="fill:#e3deca"/><rect id="rebord_f-3" data-name="rebord f" x="471.61" y="838.09" width="48" height="5.58" style="fill:#e3deca"/><polygon points="540.32 719.95 319.84 719.95 341.51 692.38 540.75 692.38 540.32 719.95" style="fill:#f99a04"/><rect x="660.55" y="696.59" width="128.92" height="27.9" style="fill:#fcf8f0"/><path d="M66,697.84s-31.08-3.75-41.58,60.27C14.86,816,43.46,826.28,66,826.28Z" style="fill:#9db56b"/><path d="M66,697.84s31.07-3.75,41.58,60.27C117,816,88.43,826.28,66,826.28Z" style="fill:#b6c891"/><rect x="61.46" y="826.28" width="9.12" height="55.62" style="fill:#5e7e8f"/><rect x="1096.75" y="662.83" width="1.69" height="11.94" style="fill:#5e7e8f"/><polygon points="1097.59 632.89 1097.59 662.83 1087.9 662.83 1097.59 632.89" style="fill:#9db56b"/><polyline points="1107.29 662.74 1097.59 632.8 1097.59 662.74" style="fill:#b6c891"/><rect x="1016.85" y="675.26" width="2.31" height="16.31" style="fill:#5e7e8f"/><polygon points="1018.01 634.38 1018.01 675.26 1004.77 675.26 1018.01 634.38" style="fill:#9db56b"/><polyline points="1031.25 675.13 1018.01 634.25 1018.01 675.13" style="fill:#b6c891"/><rect x="166.99" y="666.29" width="2.26" height="15.97" style="fill:#5e7e8f"/><polygon points="168.12 626.27 168.12 666.29 155.16 666.29 168.12 626.27" style="fill:#9db56b"/><polyline points="181.09 666.17 168.12 626.15 168.12 666.17" style="fill:#b6c891"/><path d="M149.72,651.48s-6.34-.76-8.48,12.29c-1.94,11.8,3.89,13.9,8.48,13.9Z" style="fill:#9db56b"/><path d="M149.72,651.48s6.33-.76,8.48,12.29c1.93,11.8-3.9,13.9-8.48,13.9Z" style="fill:#b6c891"/><rect x="148.8" y="677.67" width="1.86" height="11.34" style="fill:#5e7e8f"/><ellipse cx="296.18" cy="945.04" rx="112.86" ry="8.01" style="fill:#79787d"/><polyline points="238.73 819.14 238.73 899.23 243.96 912.87" style="fill:none;stroke:#00324e;stroke-miterlimit:10;stroke-width:1.59121100622546px"/><line x1="238.73" y1="899.23" x2="232.64" y2="912.86" style="fill:none;stroke:#00324e;stroke-miterlimit:10;stroke-width:1.59121100622546px"/><line x1="272.31" y1="900.56" x2="272.06" y2="819.14" style="fill:none;stroke:#00324e;stroke-miterlimit:10;stroke-width:1.59121100622546px"/><polyline points="266.78 912.87 272.31 900.56 277.33 912.87" style="fill:none;stroke:#00324e;stroke-miterlimit:10;stroke-width:1.59121100622546px"/><line x1="228.58" y1="913.32" x2="280.81" y2="912.86" style="fill:none;stroke:#00324e;stroke-linecap:round;stroke-linejoin:round;stroke-width:4px"/><path d="M203.82,943l11.34-103.1a29.78,29.78,0,0,1,4-12.27c2.47-4.09,6.36-8.24,12-8.51,6.19-.29,10.11,5.08,12.38,10a36,36,0,0,1,3,11.21L258,943" style="fill:none;stroke:#f99a04;stroke-linecap:round;stroke-linejoin:round;stroke-width:4.77363301867637px"/><path d="M324.13,943l11.33-103.1a30.07,30.07,0,0,1,4-12.27c2.48-4.09,6.37-8.24,12-8.51,6.19-.29,10.12,5.08,12.39,10a36,36,0,0,1,3,11.21L378.26,943" style="fill:none;stroke:#f99a04;stroke-linecap:round;stroke-linejoin:round;stroke-width:4.77363301867637px"/><polyline points="303.57 819.14 303.57 899.23 308.79 912.87" style="fill:none;stroke:#00324e;stroke-miterlimit:10;stroke-width:1.59121100622546px"/><line x1="303.57" y1="899.23" x2="297.48" y2="912.86" style="fill:none;stroke:#00324e;stroke-miterlimit:10;stroke-width:1.59121100622546px"/><line x1="337.15" y1="900.56" x2="336.9" y2="819.14" style="fill:none;stroke:#00324e;stroke-miterlimit:10;stroke-width:1.59121100622546px"/><polyline points="331.62 912.87 337.15 900.56 342.17 912.87" style="fill:none;stroke:#00324e;stroke-miterlimit:10;stroke-width:1.59121100622546px"/><line x1="294.22" y1="913.54" x2="346.45" y2="913.09" style="fill:none;stroke:#00324e;stroke-linecap:round;stroke-linejoin:round;stroke-width:4px"/><line x1="234.07" y1="819.14" x2="354.37" y2="819.14" style="fill:none;stroke:#f99a04;stroke-linecap:round;stroke-linejoin:round;stroke-width:4.77363301867637px"/></g><g id="bateau"><line x1="162.63" y1="795.87" x2="241.13" y2="795.87" style="fill:none;stroke:#f2f2f2;stroke-miterlimit:10"/><line x1="165.7" y1="800.94" x2="217.2" y2="800.94" style="fill:none;stroke:#f2f2f2;stroke-miterlimit:10"/><line x1="175.35" y1="790.11" x2="212.83" y2="790.11" style="fill:none;stroke:#f2f2f2;stroke-miterlimit:10"/><line x1="1272.78" y1="794.79" x2="1351.29" y2="794.79" style="fill:none;stroke:#f2f2f2;stroke-miterlimit:10"/><line x1="1275.86" y1="799.86" x2="1327.35" y2="799.86" style="fill:none;stroke:#f2f2f2;stroke-miterlimit:10"/><line x1="1285.51" y1="789.03" x2="1322.99" y2="789.03" style="fill:none;stroke:#f2f2f2;stroke-miterlimit:10"/></g><g id="borne"><rect x="-1438.06" y="0.57" width="1440" height="1024" style="fill:none"/></g></svg>