<?xml version="1.0" encoding="utf-8"?>
<!-- Generator: Adobe Illustrator 23.0.1, SVG Export Plug-In . SVG Version: 6.00 Build 0)  -->
<svg version="1.1" id="svg_agr" class="svg_logo" xmlns="http://www.w3.org/2000/svg" xmlns:xlink="http://www.w3.org/1999/xlink" x="0px" y="0px"
	 viewBox="0 0 166.58 176.55" style="enable-background:new 0 0 166.58 176.55;" xml:space="preserve">
<!-- <style type="text/css">
	.st0{fill:#FFFFFF;}
	.st1{fill:#997D4A;}
	.st2{fill:#E30613;}
	.st3{fill:none;}
	.st4{fill:#997D4A;stroke:#997D4A;stroke-width:0.25;stroke-miterlimit:10;}
</style> -->
<g>
	<path class="st0" d="M42.08,92.47c0.31,0,0.59,0.22,0.65,0.54c0.07,0.35-0.17,0.7-0.52,0.77c-0.08,0.02-7.61,1.56-9.16,4.98
		c-1.51,3.33-2.59,13.41,10.44,19.93c3.52,1.76,7.63,2.62,11.98,3.53c10.97,2.29,23.32,4.87,27.46,23.75
		c4.15-18.88,16.51-21.46,27.49-23.75c4.35-0.91,8.47-1.77,11.99-3.53c5.43-2.71,14.52-10.37,10-19.93
		c-1.54-3.26-7.32-4.65-8.47-4.9c-0.12-0.02-0.26-0.05-0.4-0.08c-0.35-0.08-0.57-0.42-0.51-0.77c0.07-0.35,0.4-0.58,0.76-0.52
		c0,0,0.15,0.03,0.43,0.09c0.76,0.14,1.53,0.22,2.28,0.22c3.01,0,5.74-1.2,7.88-3.47c3.23-3.41,4.88-8.87,4.55-14.98
		c-0.35-6.29-2.19-9.47-5.49-9.47c-4.21,0-9.37,4.9-9.42,4.95c-0.26,0.25-0.68,0.24-0.93-0.02c-0.25-0.26-0.25-0.67,0.01-0.93
		c13.81-13.64,11.13-29.89,6.62-35.56c-3.34-4.21-8.89-5.09-12.96-5.09c-2.82,0-5.84,0.41-8.99,1.21
		c-5.21,1.33-9.57,1.97-13.34,1.97c-5.04,0-8.91-1.2-11.51-3.58c-2.6,2.38-6.46,3.58-11.5,3.58c-3.76,0-8.13-0.64-13.34-1.97
		c-3.26-0.83-6.37-1.25-9.25-1.25c-4.07,0-9.58,0.89-12.66,5.12c-1.95,2.68-2.58,5.65-1.87,8.82c0.97,4.31,4.93,10.97,18.31,18.29
		l0.85,0.46c0.32,0.17,0.44,0.56,0.28,0.88c-0.16,0.32-0.55,0.45-0.87,0.3c-0.1-0.04-0.27-0.14-0.52-0.28l-0.37-0.2c0,0,0,0,0,0
		c-4.64-2.52-8.79-3.8-12.35-3.8c-6.11,0-9.99,3.9-11.54,11.6c-0.97,4.85-0.92,14.5,3.37,19.74c2.46,3,6,4.14,10.5,3.38
		C42.01,92.48,42.04,92.47,42.08,92.47z"/>
	<g>
		<path class="st1" d="M40.23,108.75h0.68v-4.12h-0.68v-0.91h2.49v0.91h-0.79v4.13h1.64v-0.84h0.99v1.75h-4.32V108.75z"/>
		<path class="st1" d="M44.48,106.07c0.57-0.45,0.85-0.89,0.87-1.14c-0.32-0.09-0.52-0.33-0.52-0.67c0-0.34,0.31-0.65,0.7-0.65
			c0.39,0,0.73,0.28,0.73,0.84c0,0.52-0.37,1.32-1.5,1.97L44.48,106.07z"/>
		<path class="st1" d="M46.89,108.75h0.68v-4.12h-0.68v-0.91h4.44v1.7h-0.98v-0.8h-1.76v1.59h1.8v0.87h-1.8v1.68h1.77v-0.8h0.98v1.7
			h-4.45V108.75z M48.79,102.89l0.99-1.36c0.14-0.17,0.32-0.28,0.5-0.28c0.24,0,0.44,0.2,0.44,0.46c0,0.17-0.09,0.35-0.28,0.5
			l-1.35,0.98L48.79,102.89z"/>
		<path class="st1" d="M52.02,106.69c0-1.79,1.39-3.08,3.13-3.08c1.38,0,2.31,0.72,2.31,1.44c0,0.43-0.28,0.73-0.65,0.73
			c-0.41,0-0.69-0.25-0.69-0.64c0-0.12,0.03-0.24,0.06-0.31c-0.17-0.14-0.52-0.27-1.06-0.27c-1.16,0-2.04,0.89-2.04,2.13
			c0,1.19,0.83,2.14,2.09,2.14c0.7,0,1.27-0.31,1.71-0.79l0.68,0.71c-0.58,0.64-1.44,1.03-2.39,1.03
			C53.33,109.78,52.02,108.54,52.02,106.69z"/>
		<path class="st1" d="M58.19,106.69c0-1.75,1.27-3.08,3.07-3.08c1.8,0,3.03,1.35,3.03,3.08c0,1.75-1.27,3.08-3.08,3.08
			C59.42,109.78,58.19,108.43,58.19,106.69z M63.24,106.69c0-1.24-0.84-2.13-1.99-2.13c-1.16,0-2,0.89-2,2.13
			c0,1.24,0.84,2.13,2,2.13C62.39,108.82,63.24,107.94,63.24,106.69z"/>
		<path class="st1" d="M65.05,108.75h0.68v-4.12h-0.68v-0.91h2.49v0.91h-0.79v4.13h1.64v-0.84h0.99v1.75h-4.32V108.75z"/>
		<path class="st1" d="M70.01,108.75h0.68v-4.12h-0.68v-0.91h4.44v1.7h-0.98v-0.8h-1.76v1.59h1.8v0.87h-1.8v1.68h1.77v-0.8h0.98v1.7
			h-4.45V108.75z"/>
		<path class="st1" d="M77.22,108.75h0.68v-4.12h-0.68v-0.91h2.25c2.15,0,3.43,1.12,3.43,2.92c0,1.82-1.2,3.03-3.54,3.03h-2.14
			V108.75z M79.51,108.75c1.54,0,2.33-0.83,2.33-2.11c0-1.3-0.92-2.02-2.41-2.02h-0.52v4.12H79.51z"/>
		<path class="st1" d="M83.66,108.75h0.68v-4.12h-0.68v-0.91h4.44v1.7h-0.98v-0.8h-1.76v1.59h1.8v0.87h-1.8v1.68h1.77v-0.8h0.98v1.7
			h-4.45V108.75z"/>
		<path class="st1" d="M90.87,108.75h0.68v-4.12h-0.68v-0.91h2.49v0.91h-0.79v4.13h1.64v-0.84h0.99v1.75h-4.32V108.75z"/>
		<path class="st1" d="M95.11,106.07c0.57-0.45,0.85-0.89,0.87-1.14c-0.31-0.09-0.52-0.33-0.52-0.67c0-0.34,0.31-0.65,0.7-0.65
			c0.39,0,0.73,0.28,0.73,0.84c0,0.52-0.37,1.32-1.5,1.97L95.11,106.07z"/>
		<path class="st1" d="M97.53,108.75h0.72v-4.12h-0.72v-0.91H100v0.91h-0.72v4.12H100v0.91h-2.47V108.75z"/>
		<path class="st1" d="M100.63,108.75h0.71l0.19-4.12h-0.74v-0.91h1.63l1.83,3.31l1.83-3.31h1.62v0.91h-0.74l0.19,4.12h0.71v0.91
			h-2.44v-0.91h0.72l-0.12-3.07l-1.7,2.99h-0.14l-1.7-2.99l-0.12,3.07h0.71v0.91h-2.42V108.75z"/>
		<path class="st1" d="M108.17,108.75h0.52l1.48-4.13h-0.65v-0.9h3.36v0.9h-0.65l1.48,4.13h0.51v0.91h-2.29v-0.91h0.69l-0.33-0.98
			h-2.23l-0.33,0.98h0.72v0.91h-2.29V108.75z M112.01,106.94l-0.83-2.34l-0.83,2.34H112.01z"/>
		<path class="st1" d="M114.58,106.71c0-1.84,1.39-3.1,3.13-3.1c1.38,0,2.31,0.72,2.31,1.44c0,0.43-0.28,0.73-0.65,0.73
			c-0.41,0-0.69-0.25-0.69-0.64c0-0.12,0.03-0.24,0.06-0.31c-0.17-0.14-0.51-0.27-1.06-0.27c-1.16,0-2.04,0.86-2.04,2.14
			c0,1.31,0.95,2.15,1.95,2.15c0.62,0,1.06-0.14,1.44-0.38v-1.02h-1.48v-0.87h2.49v3.08h-0.98v-0.44c-0.42,0.33-0.95,0.55-1.62,0.55
			C115.97,109.78,114.58,108.62,114.58,106.71z"/>
		<path class="st1" d="M121.07,108.75h0.68v-4.12h-0.68v-0.91h4.44v1.7h-0.98v-0.8h-1.76v1.59h1.8v0.87h-1.8v1.68h1.77v-0.8h0.98
			v1.7h-4.45V108.75z"/>
	</g>
	<path class="st1" d="M82.92,152.76L82.92,152.76c-1.57,0-2.88-1.13-3.11-2.68c-2.93-19.5-13.71-21.75-25.13-24.14
		c-4.4-0.92-8.94-1.87-12.9-3.85c-14.06-7.03-15-18.75-12.2-24.91c0.46-1,1.17-1.95,2.14-2.8c-1.19-0.76-2.26-1.72-3.19-2.86
		c-5.16-6.29-5.31-17.14-4.16-22.9c2.13-10.62,7.96-13.84,12.99-14.52c-3.65-3.64-5.92-7.39-6.77-11.16
		c-0.95-4.22-0.08-8.33,2.51-11.89c3.19-4.37,8.63-6.68,15.74-6.68c3.2,0,6.63,0.46,10.19,1.37c4.9,1.25,8.95,1.85,12.4,1.85
		c4.28,0,7.39-0.97,9.23-2.88c0.59-0.61,1.41-0.96,2.26-0.96c0.85,0,1.67,0.35,2.26,0.96c1.85,1.91,4.96,2.88,9.24,2.88
		c3.45,0,7.5-0.61,12.4-1.85c3.45-0.88,6.79-1.32,9.93-1.32c7.03,0,12.54,2.26,15.94,6.53c4.89,6.15,6.63,18.34,0.77,30.11
		c3.9,0.01,8.67,2.29,9.26,13.07c0.39,7.15-1.64,13.64-5.58,17.8c-0.97,1.03-2.04,1.9-3.19,2.59c0.82,0.8,1.45,1.67,1.89,2.6
		c2.52,5.34,3.31,17.44-11.74,24.96c-3.96,1.98-8.51,2.93-12.91,3.85c-11.42,2.38-22.22,4.64-25.15,24.14
		C85.81,151.61,84.47,152.76,82.92,152.76z M48.84,25.69c-6.67,0-11.74,2.12-14.67,6.14c-2.36,3.24-3.15,6.98-2.29,10.83
		c0.87,3.86,3.37,7.73,7.43,11.5c0.19,0.18,0.26,0.46,0.17,0.71c-0.09,0.25-0.32,0.42-0.59,0.43c-4.84,0.22-11.06,2.75-13.23,13.59
		c-1.1,5.51-0.98,15.86,3.88,21.8c1.04,1.27,2.26,2.29,3.63,3.03c0.2,0.11,0.33,0.31,0.34,0.53c0.02,0.22-0.08,0.44-0.26,0.57
		c-1.17,0.88-2.01,1.86-2.48,2.91c-2.59,5.7-1.64,16.57,11.59,23.18c3.81,1.9,8.27,2.84,12.58,3.74
		c11.88,2.48,23.1,4.82,26.16,25.23c0.14,0.9,0.9,1.56,1.81,1.56c0.9,0,1.68-0.67,1.81-1.56c3.07-20.41,14.3-22.75,26.18-25.23
		c4.32-0.9,8.78-1.83,12.59-3.74c14.14-7.07,13.47-18.28,11.14-23.22c-0.48-1.01-1.23-1.94-2.25-2.78
		c-0.17-0.14-0.26-0.36-0.24-0.58c0.02-0.22,0.16-0.41,0.35-0.52c1.33-0.69,2.57-1.63,3.67-2.79c3.69-3.9,5.6-10.03,5.23-16.82
		c-0.43-7.74-3.18-11.83-7.97-11.83c-0.33,0-0.67,0.02-1.01,0.06c-0.24,0.03-0.49-0.08-0.62-0.28c-0.14-0.2-0.15-0.47-0.04-0.68
		c6.22-11.59,4.66-23.72-0.1-29.71c-3.14-3.95-8.29-6.03-14.91-6.03c-3.03,0-6.26,0.43-9.61,1.28c-5,1.27-9.16,1.9-12.72,1.9
		c-4.65,0-8.08-1.1-10.19-3.28c-0.69-0.71-1.95-0.71-2.63,0c-2.1,2.18-5.53,3.28-10.18,3.28c-3.56,0-7.72-0.62-12.72-1.9
		C55.25,26.14,51.93,25.69,48.84,25.69z"/>
	<path class="st1" d="M82.92,150.27L82.92,150.27c-0.33,0-0.6-0.24-0.65-0.56c-3.18-21.21-15.33-23.75-27.08-26.2
		c-4.44-0.93-8.63-1.8-12.3-3.64c-5.91-2.96-9.83-7.06-11.36-11.88c-1.25-3.95-0.66-7.64,0.31-9.77c0.9-2,3.3-3.4,5.54-4.32
		c-2.8-0.41-5.12-1.74-6.94-3.95c-4.61-5.62-4.7-15.54-3.64-20.83c1.16-5.78,4.32-12.66,12.83-12.66c1.67,0,3.45,0.26,5.34,0.78
		c-6.74-4.77-10.83-9.82-11.95-14.82c-0.79-3.5-0.06-6.92,2.09-9.88c2.7-3.7,7.45-5.66,13.72-5.66c2.99,0,6.21,0.43,9.58,1.29
		c5.1,1.3,9.36,1.93,13.01,1.93c4.98,0,8.69-1.22,11.02-3.64c0.25-0.25,0.7-0.26,0.95,0c2.34,2.41,6.05,3.64,11.03,3.64
		c3.66,0,7.92-0.63,13.01-1.93c3.25-0.83,6.39-1.25,9.32-1.25c6.25,0,11.08,1.93,13.99,5.59c5.09,6.4,6.33,20.5-2.77,32.77
		c1.69-0.95,3.62-1.72,5.46-1.72c4.12,0,6.41,3.61,6.8,10.72c0.35,6.47-1.44,12.29-4.91,15.95c-1.92,2.03-4.26,3.29-6.85,3.72
		c2.04,0.9,4.17,2.26,5.11,4.25c2.16,4.58,2.73,15.01-10.6,21.67c-3.67,1.84-7.87,2.71-12.31,3.64c-11.76,2.45-23.91,4.99-27.1,26.2
		C83.53,150.03,83.25,150.27,82.92,150.27z M42.08,92.47c0.31,0,0.59,0.22,0.65,0.54c0.07,0.35-0.17,0.7-0.52,0.77
		c-0.08,0.02-7.61,1.56-9.16,4.98c-1.51,3.33-2.59,13.41,10.44,19.93c3.52,1.76,7.63,2.62,11.98,3.53
		c10.97,2.29,23.32,4.87,27.46,23.75c4.15-18.88,16.51-21.46,27.49-23.75c4.35-0.91,8.47-1.77,11.99-3.53
		c5.43-2.71,14.52-10.37,10-19.93c-1.54-3.26-7.32-4.65-8.47-4.9c-0.12-0.02-0.26-0.05-0.4-0.08c-0.35-0.08-0.57-0.42-0.51-0.77
		c0.07-0.35,0.4-0.58,0.76-0.52c0,0,0.15,0.03,0.43,0.09c0.76,0.14,1.53,0.22,2.28,0.22c3.01,0,5.74-1.2,7.88-3.47
		c3.23-3.41,4.88-8.87,4.55-14.98c-0.35-6.29-2.19-9.47-5.49-9.47c-4.21,0-9.37,4.9-9.42,4.95c-0.26,0.25-0.68,0.24-0.93-0.02
		c-0.25-0.26-0.25-0.67,0.01-0.93c13.81-13.64,11.13-29.89,6.62-35.56c-3.34-4.21-8.89-5.09-12.96-5.09c-2.82,0-5.84,0.41-8.99,1.21
		c-5.21,1.33-9.57,1.97-13.34,1.97c-5.04,0-8.91-1.2-11.51-3.58c-2.6,2.38-6.46,3.58-11.5,3.58c-3.76,0-8.13-0.64-13.34-1.97
		c-3.26-0.83-6.37-1.25-9.25-1.25c-4.07,0-9.58,0.89-12.66,5.12c-1.95,2.68-2.58,5.65-1.87,8.82c0.97,4.31,4.93,10.97,18.31,18.29
		l0.85,0.46c0.32,0.17,0.44,0.56,0.28,0.88c-0.16,0.32-0.55,0.45-0.87,0.3c-0.1-0.04-0.27-0.14-0.52-0.28l-0.37-0.2c0,0,0,0,0,0
		c-4.64-2.52-8.79-3.8-12.35-3.8c-6.11,0-9.99,3.9-11.54,11.6c-0.97,4.85-0.92,14.5,3.37,19.74c2.46,3,6,4.14,10.5,3.38
		C42.01,92.48,42.04,92.47,42.08,92.47z"/>
	<path class="st1" d="M58.22,76.63c1.65-5.29-1.72-11.8-5.04-14.38c-3.32,2.58-6.7,9.08-5.05,14.38H58.22z M53.18,64.03
		c2.47,2.46,4.74,7.21,4,11.27h-8.01C48.43,71.24,50.71,66.49,53.18,64.03z"/>
	<path class="st1" d="M61.04,76.36c1.37-6.48-2.74-13.8-6.71-16.55c-0.66-0.46-1.63-0.46-2.3,0c-3.98,2.75-8.08,10.07-6.72,16.55
		c-5.06,3.41-6.94,9.62-5.17,17.32c0.21,0.92,1.03,1.54,1.94,1.54c0.15,0,0.3-0.02,0.45-0.05c1.07-0.25,1.74-1.32,1.49-2.39
		c-0.86-3.72-1.41-10.33,4.16-13.5h9.98c5.55,3.18,5,9.79,4.15,13.51c-0.25,1.07,0.43,2.14,1.5,2.39c1.08,0.25,2.14-0.42,2.39-1.5
		C67.96,85.98,66.08,79.77,61.04,76.36z M64.9,93.38l-1.28-0.29c0.95-4.15,1.53-11.61-5.09-15.14H47.82
		c-6.64,3.53-6.05,10.99-5.1,15.14l-1.28,0.29c-1.73-7.51,0.24-13.45,5.4-16.4c-1.88-6.12,2.1-13.41,5.95-16.07l0.17-0.12h0.41
		l0.2,0.12c3.84,2.66,7.82,9.94,5.93,16.07C64.65,79.93,66.62,85.88,64.9,93.38z"/>
	<path class="st1" d="M95.82,76.48c-0.32-0.72-1.03-1.18-1.82-1.18H82.9c-1.1,0-1.99,0.89-1.99,1.99c0,1.1,0.89,1.99,1.99,1.99h9.74
		c1.06,3.32,0.53,6.98-1.45,9.43c-1.84,2.28-4.63,3.16-7.86,2.47c-0.27-0.06-0.55-0.06-0.83,0c-3.22,0.69-6.01-0.2-7.85-2.47
		c-2.21-2.74-2.61-7-1-10.61c0.23-0.52,0.23-1.11,0-1.63c-1.61-3.61-1.21-7.87,1-10.61c1.82-2.26,4.57-3.14,7.75-2.5
		c0.29,0.08,0.6,0.09,0.9,0.03c3.83-0.76,6.7,0.28,7.88,2.84c0.05,0.12,0.11,0.28,0.12,0.34c0.27,1.07,1.35,1.7,2.42,1.44
		c1.07-0.27,1.71-1.35,1.44-2.42c-0.02-0.09-0.15-0.55-0.37-1.03c-1.91-4.14-6.43-6.1-11.86-5.15c-4.55-0.84-8.67,0.59-11.39,3.94
		c-3.01,3.72-3.71,9.1-1.87,13.92c-1.84,4.82-1.13,10.2,1.87,13.92c2.71,3.35,6.83,4.78,11.36,3.95c0.84,0.15,1.68,0.23,2.48,0.23
		c3.54,0,6.68-1.45,8.88-4.18C97.47,87.28,98.07,81.49,95.82,76.48z M93.25,90.38c-1.94,2.4-4.72,3.68-7.86,3.68
		c-0.8,0-1.62-0.08-2.47-0.25c-4.13,0.84-7.89-0.41-10.33-3.43c-2.81-3.48-3.38-8.59-1.48-13.08c-1.9-4.5-1.34-9.61,1.48-13.08
		c2.44-3.02,6.2-4.27,10.34-3.43c4.98-0.95,8.96,0.68,10.66,4.35c0.17,0.38,0.27,0.76,0.28,0.8l-1.28,0.32c0,0-0.08-0.3-0.21-0.57
		c-1.44-3.12-4.93-4.46-9.35-3.59l-0.79,0.16v-0.26c-3.52-0.6-6.58,0.48-8.64,3.04c-2.56,3.17-3.02,7.87-1.18,11.99l0.12,0.27
		l-0.12,0.27c-1.84,4.11-1.38,8.82,1.18,11.99c2.17,2.69,5.43,3.73,9.17,2.94l0.14-0.03l0.14,0.03c3.74,0.79,6.99-0.25,9.17-2.94
		c2.48-3.07,2.99-7.58,1.35-11.6H82.9v-1.32h11.53l0.18,0.39C96.65,81.58,96.12,86.82,93.25,90.38z"/>
	<path class="st1" d="M120.55,74.62c1.74-1.43,2.55-3.23,2.35-5.2l-0.04-0.34l0.06-0.05c0.11-1.88-0.71-3.58-2.37-4.95
		c-3.67-3.01-10.67-3.89-16.82-2.15v14.85C109.88,78.51,116.89,77.63,120.55,74.62z M105.07,62.96c5.5-1.29,11.47-0.45,14.64,2.15
		c1.36,1.12,1.99,2.43,1.88,3.92c-0.03,0.17-0.03,0.35-0.02,0.53c0.16,1.54-0.47,2.89-1.87,4.04c-3.16,2.6-9.13,3.44-14.63,2.15
		V62.96z"/>
	<path class="st1" d="M115.19,79.81c2.75-0.57,5.2-1.63,7.04-3.13c2.36-1.93,3.53-4.51,3.33-7.28c0.23-2.8-0.94-5.41-3.32-7.36
		c-4.47-3.67-12.58-4.69-19.74-2.5c-0.83,0.26-1.41,1.03-1.41,1.9v15.66c-0.01,0.07,0,0.15,0,0.22c0,0,0,0.01,0,0.01
		c0,0.04,0,0.07,0,0.11v15.69c0,1.1,0.89,1.99,1.99,1.99c1.1,0,1.99-0.89,1.99-1.99V80.15c0.26,0.09,0.51,0.18,0.78,0.28
		c6.47,2.28,17.29,6.1,15.9,12.33c-0.24,1.07,0.44,2.14,1.51,2.38c0.15,0.03,0.29,0.05,0.43,0.05c0.91,0,1.74-0.63,1.94-1.56
		C127.13,86.93,121.41,82.68,115.19,79.81z M124.34,93.33l-1.28-0.29c1.64-7.38-9.43-11.29-16.76-13.87
		c-0.95-0.34-1.8-0.64-2.56-0.92v14.88h-1.32V60.95l0.46-0.14c6.65-2.04,14.43-1.1,18.5,2.25c2.09,1.71,3.06,3.9,2.83,6.32
		c0.21,2.4-0.77,4.56-2.83,6.26c-2.75,2.25-7.17,3.41-11.81,3.31C116.79,81.61,126.01,85.84,124.34,93.33z"/>
	<g>
		<path class="st2" d="M55.24,61.45c0,1.15-0.94,2.08-2.07,2.08c-1.14,0-2.08-0.93-2.08-2.08c0-1.14,0.94-2.07,2.08-2.07
			C54.3,59.38,55.24,60.31,55.24,61.45z"/>
	</g>
	<g>
		<path class="st2" d="M59.74,77.29c0,0.58-0.47,1.04-1.04,1.04c-0.56,0-1.04-0.46-1.04-1.04c0-0.56,0.48-1.04,1.04-1.04
			C59.27,76.25,59.74,76.73,59.74,77.29z"/>
	</g>
	<g>
		<path class="st2" d="M48.68,77.29c0,0.58-0.46,1.04-1.04,1.04c-0.57,0-1.03-0.46-1.03-1.04c0-0.56,0.46-1.04,1.03-1.04
			C48.22,76.25,48.68,76.73,48.68,77.29z"/>
	</g>
	<g>
		<path class="st2" d="M66.36,93.12c0,1.15-0.92,2.08-2.07,2.08c-1.14,0-2.07-0.93-2.07-2.08c0-1.14,0.93-2.07,2.07-2.07
			C65.44,91.06,66.36,91.98,66.36,93.12z"/>
	</g>
	<g>
		<path class="st2" d="M44.15,93.12c0,1.15-0.93,2.08-2.07,2.08c-1.15,0-2.08-0.93-2.08-2.08c0-1.14,0.93-2.07,2.08-2.07
			C43.22,91.06,44.15,91.98,44.15,93.12z"/>
	</g>
	<g>
		<path class="st2" d="M84.97,61.45c0,1.15-0.92,2.08-2.07,2.08c-1.14,0-2.07-0.93-2.07-2.08c0-1.14,0.93-2.07,2.07-2.07
			C84.05,59.38,84.97,60.31,84.97,61.45z"/>
	</g>
	<g>
		<path class="st2" d="M73.9,77.29c0,1.15-0.92,2.07-2.07,2.07c-1.15,0-2.07-0.93-2.07-2.07c0-1.14,0.92-2.07,2.07-2.07
			C72.98,75.22,73.9,76.15,73.9,77.29z"/>
	</g>
	<g>
		<path class="st2" d="M83.94,77.29c0,0.58-0.46,1.04-1.04,1.04c-0.57,0-1.03-0.46-1.03-1.04c0-0.56,0.46-1.04,1.03-1.04
			C83.48,76.25,83.94,76.73,83.94,77.29z"/>
	</g>
	<g>
		<path class="st2" d="M94.28,66.09c0,0.58-0.47,1.04-1.04,1.04c-0.57,0-1.04-0.46-1.04-1.04c0-0.57,0.47-1.03,1.04-1.03
			C93.81,65.06,94.28,65.52,94.28,66.09z"/>
	</g>
	<g>
		<path class="st2" d="M96.09,77.29c0,1.15-0.93,2.07-2.07,2.07c-1.15,0-2.07-0.93-2.07-2.07c0-1.14,0.93-2.07,2.07-2.07
			C95.16,75.22,96.09,76.15,96.09,77.29z"/>
	</g>
	<g>
		<path class="st2" d="M125.75,93.12c0,1.15-0.92,2.08-2.08,2.08c-1.14,0-2.07-0.93-2.07-2.08c0-1.14,0.93-2.07,2.07-2.07
			C124.82,91.06,125.75,91.98,125.75,93.12z"/>
	</g>
	<g>
		<path class="st2" d="M105.16,93.12c0,1.15-0.93,2.08-2.07,2.08c-1.15,0-2.08-0.93-2.08-2.08c0-1.14,0.93-2.07,2.08-2.07
			C104.23,91.06,105.16,91.98,105.16,93.12z"/>
	</g>
	<g>
		<path class="st2" d="M104.12,77.29c0,0.58-0.46,1.04-1.04,1.04c-0.57,0-1.03-0.46-1.03-1.04c0-0.56,0.46-1.04,1.03-1.04
			C103.66,76.25,104.12,76.73,104.12,77.29z"/>
	</g>
	<g>
		<path class="st2" d="M105.15,61.45c0,1.14-0.93,2.07-2.07,2.07c-1.14,0-2.07-0.93-2.07-2.07c0-1.14,0.93-2.07,2.07-2.07
			C104.22,59.38,105.15,60.31,105.15,61.45z"/>
	</g>
	<g>
		<path class="st2" d="M125.63,69.35c0,1.15-0.93,2.08-2.07,2.08c-1.15,0-2.08-0.93-2.08-2.08c0-1.14,0.93-2.07,2.08-2.07
			C124.7,67.28,125.63,68.2,125.63,69.35z"/>
	</g>
	<g>
		<path class="st2" d="M84.98,93.14c0,1.14-0.93,2.07-2.08,2.07c-1.14,0-2.07-0.93-2.07-2.07c0-1.14,0.93-2.08,2.07-2.08
			C84.04,91.06,84.98,92,84.98,93.14z"/>
	</g>
	<g>
		<path class="st4" d="M42.15,41.59v4.16h0.84v0.81h-2.52v-0.81h0.8v-4.96h-0.8v-0.81h1.58l3.56,4.64v-3.83h-0.84v-0.81h2.49v0.81
			h-0.77v5.79l-0.5,0.01L42.15,41.59z"/>
		<path class="st4" d="M47.75,45.75h0.6l1.83-4.97h-0.73v-0.8h3.3v0.8h-0.74l1.83,4.97h0.61v0.81h-2.34v-0.8h0.76l-0.49-1.39h-2.6
			l-0.49,1.39h0.8v0.8h-2.34V45.75z M52.12,43.61l-1.04-2.87l-1.04,2.87H52.12z"/>
		<path class="st4" d="M56.72,41.59v4.16h0.84v0.81h-2.52v-0.81h0.8v-4.96h-0.8v-0.81h1.58l3.56,4.64v-3.83h-0.84v-0.81h2.49v0.81
			h-0.77v5.79l-0.5,0.01L56.72,41.59z"/>
		<path class="st4" d="M63.97,45.75h0.86v-4.99h-1.47v1.05H62.5v-1.83h5.57v1.83h-0.86v-1.05h-1.47v4.99h0.86v0.81h-2.63V45.75z"/>
		<path class="st4" d="M68.84,45.75h0.8v-4.96h-0.8v-0.81h4.83v1.72h-0.86v-0.92h-2.26v2.04h2.08v0.78h-2.08v2.16h2.26v-0.92h0.87
			v1.72h-4.84V45.75z"/>
		<path class="st4" d="M74.58,45.24c0-0.42,0.25-0.69,0.6-0.69c0.36,0,0.6,0.27,0.6,0.55c0,0.18-0.05,0.31-0.13,0.43
			c0.23,0.2,0.67,0.35,1.2,0.35c0.8,0,1.31-0.39,1.31-1.04c0-0.62-0.6-0.91-1.3-1.17c-1.18-0.44-2.03-0.84-2.03-2.01
			c0-1.03,0.82-1.8,2.09-1.8c1.15,0,2.05,0.62,2.05,1.35c0,0.41-0.26,0.65-0.58,0.65c-0.38,0-0.61-0.28-0.61-0.58
			c0-0.16,0.05-0.26,0.11-0.35c-0.18-0.16-0.57-0.28-0.98-0.28c-0.73,0-1.17,0.39-1.17,0.94c0,0.63,0.59,0.9,1.34,1.19
			c1.13,0.42,1.98,0.83,1.98,1.99c0,1.2-0.94,1.91-2.23,1.91C75.54,46.68,74.58,45.95,74.58,45.24z"/>
		<path class="st4" d="M89,45.75h0.8v-4.96H89v-0.81h2.52c1.48,0,2.48,0.69,2.48,1.94c0,0.88-0.56,1.52-1.34,1.8l1.22,2.03h0.77
			v0.81h-1.39l-1.49-2.61c-0.13,0.01-0.26,0.02-0.39,0.02c-0.24,0-0.5-0.01-0.67-0.02v1.8h0.84v0.81H89V45.75z M93.07,41.95
			c0-0.77-0.63-1.16-1.6-1.16h-0.76v2.38c0.17,0.01,0.4,0.02,0.73,0.02C92.38,43.19,93.07,42.74,93.07,41.95z"/>
		<path class="st4" d="M95.19,45.75h0.8v-4.96h-0.8v-0.81h4.83v1.72h-0.86v-0.92H96.9v2.04h2.08v0.78H96.9v2.16h2.26v-0.92h0.87
			v1.72h-4.84V45.75z"/>
		<path class="st4" d="M102.7,41.59v4.16h0.84v0.81h-2.52v-0.81h0.8v-4.96h-0.8v-0.81h1.58l3.56,4.64v-3.83h-0.84v-0.81h2.49v0.81
			h-0.77v5.79l-0.5,0.01L102.7,41.59z"/>
		<path class="st4" d="M110.25,41.59v4.16h0.84v0.81h-2.52v-0.81h0.8v-4.96h-0.8v-0.81h1.58l3.56,4.64v-3.83h-0.84v-0.81h2.49v0.81
			h-0.77v5.79l-0.5,0.01L110.25,41.59z"/>
		<path class="st4" d="M116.12,45.75h0.8v-4.96h-0.8v-0.81h4.83v1.72h-0.86v-0.92h-2.26v2.04h2.08v0.78h-2.08v2.16h2.26v-0.92h0.87
			v1.72h-4.84V45.75z"/>
		<path class="st4" d="M121.86,45.24c0-0.42,0.25-0.69,0.6-0.69c0.36,0,0.6,0.27,0.6,0.55c0,0.18-0.05,0.31-0.13,0.43
			c0.23,0.2,0.67,0.35,1.2,0.35c0.8,0,1.31-0.39,1.31-1.04c0-0.62-0.6-0.91-1.3-1.17c-1.18-0.44-2.03-0.84-2.03-2.01
			c0-1.03,0.82-1.8,2.09-1.8c1.15,0,2.05,0.62,2.05,1.35c0,0.41-0.26,0.65-0.58,0.65c-0.38,0-0.61-0.28-0.61-0.58
			c0-0.16,0.05-0.26,0.11-0.35c-0.18-0.16-0.57-0.28-0.98-0.28c-0.73,0-1.17,0.39-1.17,0.94c0,0.63,0.59,0.9,1.34,1.19
			c1.13,0.42,1.98,0.83,1.98,1.99c0,1.2-0.94,1.91-2.23,1.91S121.86,45.95,121.86,45.24z"/>
	</g>
	<g>
		<path class="st2" d="M85.63,43.68c0,1.15-0.92,2.08-2.07,2.08c-1.14,0-2.07-0.93-2.07-2.08c0-1.14,0.93-2.07,2.07-2.07
			C84.71,41.61,85.63,42.54,85.63,43.68z"/>
	</g>
</g>
</svg>
