<svg width="120" height="147" viewBox="0 0 120 147" fill="none" xmlns="http://www.w3.org/2000/svg">
<g opacity="0.2">
<g clip-path="url(#clip0)">
<path d="M41.8383 55.0764L31.0542 57.622L33.6014 68.4131L44.3855 65.8675L41.8383 55.0764Z" stroke="#4B686E" stroke-width="2" stroke-miterlimit="10" stroke-linecap="round" stroke-linejoin="round"/>
<path d="M59.6217 50.8787L48.8376 53.4243L51.3848 64.2153L62.169 61.6697L59.6217 50.8787Z" stroke="#4B686E" stroke-width="2" stroke-miterlimit="10" stroke-linecap="round" stroke-linejoin="round"/>
<path d="M77.4051 46.6809L66.621 49.2265L69.1683 60.0175L79.9524 57.4719L77.4051 46.6809Z" stroke="#4B686E" stroke-width="2" stroke-miterlimit="10" stroke-linecap="round" stroke-linejoin="round"/>
<path d="M45.7571 71.678L34.973 74.2236L37.5202 85.0146L48.3043 82.4691L45.7571 71.678Z" stroke="#4B686E" stroke-width="2" stroke-miterlimit="10" stroke-linecap="round" stroke-linejoin="round"/>
<path d="M63.5405 67.4802L52.7564 70.0258L55.3036 80.8169L66.0878 78.2713L63.5405 67.4802Z" stroke="#4B686E" stroke-width="2" stroke-miterlimit="10" stroke-linecap="round" stroke-linejoin="round"/>
<path d="M81.3239 63.2825L70.5398 65.8281L73.087 76.6191L83.8711 74.0735L81.3239 63.2825Z" stroke="#4B686E" stroke-width="2" stroke-miterlimit="10" stroke-linecap="round" stroke-linejoin="round"/>
<path d="M49.6636 88.2277L38.8795 90.7733L41.4267 101.564L52.2109 99.0188L49.6636 88.2277Z" stroke="#4B686E" stroke-width="2" stroke-miterlimit="10" stroke-linecap="round" stroke-linejoin="round"/>
<path d="M67.4471 84.0299L56.663 86.5755L59.2102 97.3666L69.9943 94.821L67.4471 84.0299Z" stroke="#4B686E" stroke-width="2" stroke-miterlimit="10" stroke-linecap="round" stroke-linejoin="round"/>
<path d="M79.1735 102.403L54.3907 108.253L61.4935 138.344L86.2763 132.494L79.1735 102.403Z" stroke="#4B686E" stroke-width="2" stroke-miterlimit="10" stroke-linecap="round" stroke-linejoin="round"/>
<path d="M85.2305 79.8322L74.4464 82.3777L76.9936 93.1688L87.7777 90.6232L85.2305 79.8322Z" stroke="#4B686E" stroke-width="2" stroke-miterlimit="10" stroke-linecap="round" stroke-linejoin="round"/>
<path d="M37.9317 38.5267L27.1476 41.0723L29.6948 51.8633L40.4789 49.3178L37.9317 38.5267Z" stroke="#4B686E" stroke-width="2" stroke-miterlimit="10" stroke-linecap="round" stroke-linejoin="round"/>
<path d="M55.7152 34.329L44.9311 36.8745L47.4783 47.6656L58.2624 45.12L55.7152 34.329Z" stroke="#4B686E" stroke-width="2" stroke-miterlimit="10" stroke-linecap="round" stroke-linejoin="round"/>
<path d="M73.4986 30.1312L62.7145 32.6768L65.2617 43.4678L76.0458 40.9222L73.4986 30.1312Z" stroke="#4B686E" stroke-width="2" stroke-miterlimit="10" stroke-linecap="round" stroke-linejoin="round"/>
<path d="M113.023 118.732L104.572 120.726L82.1488 25.7342C81.3406 22.3101 77.8796 20.1694 74.4577 20.9772L21.7814 33.4114C18.3595 34.2191 16.2211 37.6815 17.0294 41.1056L39.4523 136.098L32.09 137.836C30.1717 138.289 28.9441 140.276 29.3972 142.196C29.8503 144.115 31.8372 145.344 33.7555 144.891L47.3394 141.685L100.067 129.239L114.74 125.775C116.658 125.322 117.886 123.335 117.433 121.415C116.98 119.495 114.993 118.267 113.023 118.732Z" stroke="#4B686E" stroke-width="2" stroke-miterlimit="10" stroke-linecap="round" stroke-linejoin="round"/>
<path d="M26.8329 15.6234L29.2239 18.5643L33.0275 18.2142L30.9956 21.4324L32.475 24.9171L28.8045 23.9761L25.9423 26.4592L25.7072 22.6807L22.4507 20.7109L25.9576 19.3354L26.8329 15.6234Z" stroke="#4B686E" stroke-width="2" stroke-miterlimit="10" stroke-linecap="round" stroke-linejoin="round"/>
<path d="M44.6163 11.4256L47.0592 14.3543L50.8109 14.0164L48.7791 17.2346L50.2585 20.7193L46.588 19.7783L43.7258 22.2614L43.4907 18.4829L40.2342 16.5131L43.741 15.1376L44.6163 11.4256Z" stroke="#4B686E" stroke-width="2" stroke-miterlimit="10" stroke-linecap="round" stroke-linejoin="round"/>
<path d="M62.3998 7.22788L64.8426 10.1566L68.5944 9.81868L66.5625 13.0368L68.0419 16.5216L64.3714 15.5806L61.5092 18.0636L61.2741 14.2852L58.0176 12.3153L61.5763 10.9276L62.3998 7.22788Z" stroke="#4B686E" stroke-width="2" stroke-miterlimit="10" stroke-linecap="round" stroke-linejoin="round"/>
</g>
</g>
<defs>
<clipPath id="clip0">
<rect y="21.1357" width="92" height="129" transform="rotate(-13.2815 0 21.1357)" fill="white"/>
</clipPath>
</defs>
</svg>
