<svg width="145" height="129" viewBox="0 0 145 129" fill="none" xmlns="http://www.w3.org/2000/svg">
<g opacity="0.2">
<path d="M116.462 119.643L140.911 52.2901C142.331 48.377 140.292 44.0132 136.379 42.5927L117.999 35.9209L88.3847 117.503L106.764 124.175C110.678 125.595 115.041 123.556 116.462 119.643Z" stroke="#4B686E" stroke-width="2" stroke-miterlimit="10" stroke-linecap="round" stroke-linejoin="round"/>
<path d="M38.7292 7.14584C34.8161 5.72538 30.4523 7.76482 29.0318 11.6779L4.58271 79.0307C3.16225 82.9438 5.20168 87.3076 9.11478 88.7281L27.4945 95.3999L57.1089 13.8177L38.7292 7.14584Z" stroke="#4B686E" stroke-width="2" stroke-miterlimit="10" stroke-linecap="round" stroke-linejoin="round"/>
<path d="M101.991 30.11L104.315 23.7067C105.736 19.7936 103.696 15.4298 99.7833 14.0093L87.6883 9.61882C83.7752 8.19837 79.4113 10.2378 77.9909 14.1509L75.6665 20.5542L61.7928 15.518L32.1784 97.1002L83.7009 115.803L113.315 34.2207L101.991 30.11ZM80.1132 22.1683L82.0502 16.8323C82.8035 14.7571 85.0662 13.6997 87.1413 14.4529L97.1019 18.0686C99.1771 18.8219 100.235 21.0846 99.4813 23.1598L97.5443 28.4958L80.1132 22.1683Z" stroke="#4B686E" stroke-width="2" stroke-miterlimit="10" stroke-linecap="round" stroke-linejoin="round"/>
<path d="M129.916 40.2468C129.631 41.2169 128.421 45.4748 130.595 50.0218C133.147 55.3769 138.294 56.9098 139.146 57.1518" stroke="#4B686E" stroke-width="2" stroke-miterlimit="10" stroke-linecap="round" stroke-linejoin="round"/>
<path d="M45.1917 9.49176C44.788 10.4189 42.985 14.4615 38.4003 16.555C33.0074 19.0261 28.0755 16.9003 27.2669 16.5397" stroke="#4B686E" stroke-width="2" stroke-miterlimit="10" stroke-linecap="round" stroke-linejoin="round"/>
<path d="M100.302 121.829C100.706 120.902 102.509 116.859 107.093 114.766C112.486 112.295 117.418 114.421 118.227 114.781" stroke="#4B686E" stroke-width="2" stroke-miterlimit="10" stroke-linecap="round" stroke-linejoin="round"/>
<path d="M15.5773 91.0739C15.8623 90.1037 17.0724 85.8459 14.8982 81.2989C12.3462 75.9438 7.19904 74.4109 6.34747 74.1689" stroke="#4B686E" stroke-width="2" stroke-miterlimit="10" stroke-linecap="round" stroke-linejoin="round"/>
</g>
</svg>
