<svg xmlns="http://www.w3.org/2000/svg" viewBox="0 0 1440 1024"><title>Planche1-Test-StyleInterne</title><g id="fond"><rect x="1267.06" y="776.99" width="2.05" height="17.08" style="fill:#3b6177"/><rect x="1204.8" y="664.38" width="54.37" height="117.01" style="fill:#8dc2e2"/><rect id="fenetre" x="1213.29" y="673.5" width="9.13" height="102.54" style="fill:#cae2f1"/><rect id="fenetre-2" data-name="fenetre" x="1227.33" y="673.5" width="9.13" height="102.54" style="fill:#cae2f1"/><rect id="fenetre-3" data-name="fenetre" x="1241.37" y="673.5" width="9.13" height="102.54" style="fill:#cae2f1"/><path d="M953.24,832.32s313.33-40.58,861.62-36.19,928.23-18,1348.59-10.4,584.84,12.77,1251.93-1c1136.77-23.38,1188,66.93,310.7,89.89s-1453,7.14-2284.54,10.28S953.24,832.32,953.24,832.32Z" style="fill:#80bbde"/><path d="M480.16,890.83c4.53-3,9-6.15,13.37-9.33,23.47-17,102.28-68.29,218.65-84.78,140.24-19.88,214.59,21.6,365.7-7.58s291.35.94,361.47,7.58S1699.06,856,1834.1,858.6s548.27-75.65,667.74-70.19,167.17,3.43,403.34,119.5c0,0-211.46,87.16-530.89,81.71C2057.51,984.21,256.18,1040.19,480.16,890.83Z" style="fill:#e5eec9"/><rect x="1103.4" y="525.21" width="92.92" height="270.96" style="fill:#8dc2e2"/><rect id="fenetre-4" data-name="fenetre" x="1112.86" y="538.55" width="12.98" height="23.22" style="fill:#cae2f1"/><rect id="fenetre-5" data-name="fenetre" x="1132.83" y="538.55" width="12.98" height="23.22" style="fill:#cae2f1"/><rect id="fenetre-6" data-name="fenetre" x="1152.79" y="538.55" width="12.98" height="23.22" style="fill:#cae2f1"/><rect id="fenetre-7" data-name="fenetre" x="1172.76" y="538.55" width="12.98" height="23.22" style="fill:#cae2f1"/><rect id="fenetre-8" data-name="fenetre" x="1112.86" y="569.73" width="12.98" height="23.22" style="fill:#cae2f1"/><rect id="fenetre-9" data-name="fenetre" x="1132.83" y="569.73" width="12.98" height="23.22" style="fill:#cae2f1"/><rect id="fenetre-10" data-name="fenetre" x="1152.79" y="569.73" width="12.98" height="23.22" style="fill:#cae2f1"/><rect id="fenetre-11" data-name="fenetre" x="1172.76" y="569.73" width="12.98" height="23.22" style="fill:#cae2f1"/><rect id="fenetre-12" data-name="fenetre" x="1112.86" y="600.91" width="12.98" height="23.22" style="fill:#cae2f1"/><rect id="fenetre-13" data-name="fenetre" x="1132.83" y="600.91" width="12.98" height="23.22" style="fill:#cae2f1"/><rect id="fenetre-14" data-name="fenetre" x="1152.79" y="600.91" width="12.98" height="23.22" style="fill:#cae2f1"/><rect id="fenetre-15" data-name="fenetre" x="1172.76" y="600.91" width="12.98" height="23.22" style="fill:#cae2f1"/><rect id="fenetre-16" data-name="fenetre" x="1112.86" y="632.1" width="12.98" height="23.22" style="fill:#cae2f1"/><rect id="fenetre-17" data-name="fenetre" x="1132.83" y="632.1" width="12.98" height="23.22" style="fill:#cae2f1"/><rect id="fenetre-18" data-name="fenetre" x="1152.79" y="632.1" width="12.98" height="23.22" style="fill:#cae2f1"/><rect id="fenetre-19" data-name="fenetre" x="1172.76" y="632.1" width="12.98" height="23.22" style="fill:#cae2f1"/><rect id="fenetre-20" data-name="fenetre" x="1112.86" y="663.28" width="12.98" height="23.22" style="fill:#cae2f1"/><rect id="fenetre-21" data-name="fenetre" x="1132.83" y="663.28" width="12.98" height="23.22" style="fill:#cae2f1"/><rect id="fenetre-22" data-name="fenetre" x="1152.79" y="663.28" width="12.98" height="23.22" style="fill:#cae2f1"/><rect id="fenetre-23" data-name="fenetre" x="1172.76" y="663.28" width="12.98" height="23.22" style="fill:#cae2f1"/><rect id="fenetre-24" data-name="fenetre" x="1112.86" y="694.47" width="12.98" height="23.22" style="fill:#cae2f1"/><rect id="fenetre-25" data-name="fenetre" x="1132.83" y="694.47" width="12.98" height="23.22" style="fill:#cae2f1"/><rect id="fenetre-26" data-name="fenetre" x="1152.79" y="694.47" width="12.98" height="23.22" style="fill:#cae2f1"/><rect id="fenetre-27" data-name="fenetre" x="1172.76" y="694.47" width="12.98" height="23.22" style="fill:#cae2f1"/><rect id="fenetre-28" data-name="fenetre" x="1112.86" y="725.65" width="12.98" height="23.22" style="fill:#cae2f1"/><rect id="fenetre-29" data-name="fenetre" x="1132.83" y="725.65" width="12.98" height="23.22" style="fill:#cae2f1"/><rect id="fenetre-30" data-name="fenetre" x="1152.79" y="725.65" width="12.98" height="23.22" style="fill:#cae2f1"/><rect id="fenetre-31" data-name="fenetre" x="1172.76" y="725.65" width="12.98" height="23.22" style="fill:#cae2f1"/><rect id="fenetre-32" data-name="fenetre" x="1112.86" y="756.83" width="12.98" height="23.22" style="fill:#cae2f1"/><rect id="fenetre-33" data-name="fenetre" x="1132.83" y="756.83" width="12.98" height="23.22" style="fill:#cae2f1"/><rect id="fenetre-34" data-name="fenetre" x="1152.79" y="756.83" width="12.98" height="23.22" style="fill:#cae2f1"/><rect id="fenetre-35" data-name="fenetre" x="1172.76" y="756.83" width="12.98" height="23.22" style="fill:#cae2f1"/><rect x="941.65" y="688.3" width="45.78" height="133.51" style="fill:#8dc2e2"/><rect id="fenetre-36" data-name="fenetre" x="946.31" y="694.87" width="6.39" height="11.44" style="fill:#cae2f1"/><rect id="fenetre-37" data-name="fenetre" x="956.15" y="694.87" width="6.39" height="11.44" style="fill:#cae2f1"/><rect id="fenetre-38" data-name="fenetre" x="965.98" y="694.87" width="6.39" height="11.44" style="fill:#cae2f1"/><rect id="fenetre-39" data-name="fenetre" x="975.82" y="694.87" width="6.39" height="11.44" style="fill:#cae2f1"/><rect id="fenetre-40" data-name="fenetre" x="946.31" y="710.23" width="6.39" height="11.44" style="fill:#cae2f1"/><rect id="fenetre-41" data-name="fenetre" x="956.15" y="710.23" width="6.39" height="11.44" style="fill:#cae2f1"/><rect id="fenetre-42" data-name="fenetre" x="965.98" y="710.23" width="6.39" height="11.44" style="fill:#cae2f1"/><rect id="fenetre-43" data-name="fenetre" x="975.82" y="710.23" width="6.39" height="11.44" style="fill:#cae2f1"/><rect id="fenetre-44" data-name="fenetre" x="946.31" y="725.6" width="6.39" height="11.44" style="fill:#cae2f1"/><rect id="fenetre-45" data-name="fenetre" x="956.15" y="725.6" width="6.39" height="11.44" style="fill:#cae2f1"/><rect id="fenetre-46" data-name="fenetre" x="965.98" y="725.6" width="6.39" height="11.44" style="fill:#cae2f1"/><rect id="fenetre-47" data-name="fenetre" x="975.82" y="725.6" width="6.39" height="11.44" style="fill:#cae2f1"/><rect id="fenetre-48" data-name="fenetre" x="946.31" y="740.96" width="6.39" height="11.44" style="fill:#cae2f1"/><rect id="fenetre-49" data-name="fenetre" x="956.15" y="740.96" width="6.39" height="11.44" style="fill:#cae2f1"/><rect id="fenetre-50" data-name="fenetre" x="965.98" y="740.96" width="6.39" height="11.44" style="fill:#cae2f1"/><rect id="fenetre-51" data-name="fenetre" x="975.82" y="740.96" width="6.39" height="11.44" style="fill:#cae2f1"/><rect id="fenetre-52" data-name="fenetre" x="946.31" y="756.33" width="6.39" height="11.44" style="fill:#cae2f1"/><rect id="fenetre-53" data-name="fenetre" x="956.15" y="756.33" width="6.39" height="11.44" style="fill:#cae2f1"/><rect id="fenetre-54" data-name="fenetre" x="965.98" y="756.33" width="6.39" height="11.44" style="fill:#cae2f1"/><rect id="fenetre-55" data-name="fenetre" x="975.82" y="756.33" width="6.39" height="11.44" style="fill:#cae2f1"/><rect id="fenetre-56" data-name="fenetre" x="946.31" y="771.69" width="6.39" height="11.44" style="fill:#cae2f1"/><rect id="fenetre-57" data-name="fenetre" x="956.15" y="771.69" width="6.39" height="11.44" style="fill:#cae2f1"/><rect id="fenetre-58" data-name="fenetre" x="965.98" y="771.69" width="6.39" height="11.44" style="fill:#cae2f1"/><rect id="fenetre-59" data-name="fenetre" x="975.82" y="771.69" width="6.39" height="11.44" style="fill:#cae2f1"/><rect id="fenetre-60" data-name="fenetre" x="946.31" y="787.06" width="6.39" height="11.44" style="fill:#cae2f1"/><rect id="fenetre-61" data-name="fenetre" x="956.15" y="787.06" width="6.39" height="11.44" style="fill:#cae2f1"/><rect id="fenetre-62" data-name="fenetre" x="965.98" y="787.06" width="6.39" height="11.44" style="fill:#cae2f1"/><rect id="fenetre-63" data-name="fenetre" x="975.82" y="787.06" width="6.39" height="11.44" style="fill:#cae2f1"/><rect id="fenetre-64" data-name="fenetre" x="946.31" y="802.42" width="6.39" height="11.44" style="fill:#cae2f1"/><rect id="fenetre-65" data-name="fenetre" x="956.15" y="802.42" width="6.39" height="11.44" style="fill:#cae2f1"/><rect id="fenetre-66" data-name="fenetre" x="965.98" y="802.42" width="6.39" height="11.44" style="fill:#cae2f1"/><rect id="fenetre-67" data-name="fenetre" x="975.82" y="802.42" width="6.39" height="11.44" style="fill:#cae2f1"/><rect x="1390.06" y="663.35" width="45.78" height="133.51" style="fill:#8dc2e2"/><rect id="fenetre-68" data-name="fenetre" x="1394.72" y="669.93" width="6.39" height="11.44" style="fill:#cae2f1"/><rect id="fenetre-69" data-name="fenetre" x="1404.56" y="669.93" width="6.39" height="11.44" style="fill:#cae2f1"/><rect id="fenetre-70" data-name="fenetre" x="1414.4" y="669.93" width="6.39" height="11.44" style="fill:#cae2f1"/><rect id="fenetre-71" data-name="fenetre" x="1424.24" y="669.93" width="6.39" height="11.44" style="fill:#cae2f1"/><rect id="fenetre-72" data-name="fenetre" x="1394.72" y="685.29" width="6.39" height="11.44" style="fill:#cae2f1"/><rect id="fenetre-73" data-name="fenetre" x="1404.56" y="685.29" width="6.39" height="11.44" style="fill:#cae2f1"/><rect id="fenetre-74" data-name="fenetre" x="1414.4" y="685.29" width="6.39" height="11.44" style="fill:#cae2f1"/><rect id="fenetre-75" data-name="fenetre" x="1424.24" y="685.29" width="6.39" height="11.44" style="fill:#cae2f1"/><rect id="fenetre-76" data-name="fenetre" x="1394.72" y="700.66" width="6.39" height="11.44" style="fill:#cae2f1"/><rect id="fenetre-77" data-name="fenetre" x="1404.56" y="700.66" width="6.39" height="11.44" style="fill:#cae2f1"/><rect id="fenetre-78" data-name="fenetre" x="1414.4" y="700.66" width="6.39" height="11.44" style="fill:#cae2f1"/><rect id="fenetre-79" data-name="fenetre" x="1424.24" y="700.66" width="6.39" height="11.44" style="fill:#cae2f1"/><rect id="fenetre-80" data-name="fenetre" x="1394.72" y="716.02" width="6.39" height="11.44" style="fill:#cae2f1"/><rect id="fenetre-81" data-name="fenetre" x="1404.56" y="716.02" width="6.39" height="11.44" style="fill:#cae2f1"/><rect id="fenetre-82" data-name="fenetre" x="1414.4" y="716.02" width="6.39" height="11.44" style="fill:#cae2f1"/><rect id="fenetre-83" data-name="fenetre" x="1424.24" y="716.02" width="6.39" height="11.44" style="fill:#cae2f1"/><rect id="fenetre-84" data-name="fenetre" x="1394.72" y="731.39" width="6.39" height="11.44" style="fill:#cae2f1"/><rect id="fenetre-85" data-name="fenetre" x="1404.56" y="731.39" width="6.39" height="11.44" style="fill:#cae2f1"/><rect id="fenetre-86" data-name="fenetre" x="1414.4" y="731.39" width="6.39" height="11.44" style="fill:#cae2f1"/><rect id="fenetre-87" data-name="fenetre" x="1424.24" y="731.39" width="6.39" height="11.44" style="fill:#cae2f1"/><rect id="fenetre-88" data-name="fenetre" x="1394.72" y="746.75" width="6.39" height="11.44" style="fill:#cae2f1"/><rect id="fenetre-89" data-name="fenetre" x="1404.56" y="746.75" width="6.39" height="11.44" style="fill:#cae2f1"/><rect id="fenetre-90" data-name="fenetre" x="1414.4" y="746.75" width="6.39" height="11.44" style="fill:#cae2f1"/><rect id="fenetre-91" data-name="fenetre" x="1424.24" y="746.75" width="6.39" height="11.44" style="fill:#cae2f1"/><rect id="fenetre-92" data-name="fenetre" x="1394.72" y="762.12" width="6.39" height="11.44" style="fill:#cae2f1"/><rect id="fenetre-93" data-name="fenetre" x="1404.56" y="762.12" width="6.39" height="11.44" style="fill:#cae2f1"/><rect id="fenetre-94" data-name="fenetre" x="1414.4" y="762.12" width="6.39" height="11.44" style="fill:#cae2f1"/><rect id="fenetre-95" data-name="fenetre" x="1424.24" y="762.12" width="6.39" height="11.44" style="fill:#cae2f1"/><rect id="fenetre-96" data-name="fenetre" x="1394.72" y="777.48" width="6.39" height="11.44" style="fill:#cae2f1"/><rect id="fenetre-97" data-name="fenetre" x="1404.56" y="777.48" width="6.39" height="11.44" style="fill:#cae2f1"/><rect id="fenetre-98" data-name="fenetre" x="1414.4" y="777.48" width="6.39" height="11.44" style="fill:#cae2f1"/><rect id="fenetre-99" data-name="fenetre" x="1424.24" y="777.48" width="6.39" height="11.44" style="fill:#cae2f1"/><rect x="1291.06" y="627.26" width="60.07" height="169.6" style="fill:#8dc2e2"/><rect id="fenetre-100" data-name="fenetre" x="1297.17" y="635.61" width="8.39" height="14.53" style="fill:#cae2f1"/><rect id="fenetre-101" data-name="fenetre" x="1310.08" y="635.61" width="8.39" height="14.53" style="fill:#cae2f1"/><rect id="fenetre-102" data-name="fenetre" x="1322.99" y="635.61" width="8.39" height="14.53" style="fill:#cae2f1"/><rect id="fenetre-103" data-name="fenetre" x="1335.9" y="635.61" width="8.39" height="14.53" style="fill:#cae2f1"/><rect id="fenetre-104" data-name="fenetre" x="1297.17" y="655.13" width="8.39" height="14.53" style="fill:#cae2f1"/><rect id="fenetre-105" data-name="fenetre" x="1310.08" y="655.13" width="8.39" height="14.53" style="fill:#cae2f1"/><rect id="fenetre-106" data-name="fenetre" x="1322.99" y="655.13" width="8.39" height="14.53" style="fill:#cae2f1"/><rect id="fenetre-107" data-name="fenetre" x="1335.9" y="655.13" width="8.39" height="14.53" style="fill:#cae2f1"/><rect id="fenetre-108" data-name="fenetre" x="1297.17" y="674.65" width="8.39" height="14.53" style="fill:#cae2f1"/><rect id="fenetre-109" data-name="fenetre" x="1310.08" y="674.65" width="8.39" height="14.53" style="fill:#cae2f1"/><rect id="fenetre-110" data-name="fenetre" x="1322.99" y="674.65" width="8.39" height="14.53" style="fill:#cae2f1"/><rect id="fenetre-111" data-name="fenetre" x="1335.9" y="674.65" width="8.39" height="14.53" style="fill:#cae2f1"/><rect id="fenetre-112" data-name="fenetre" x="1297.17" y="694.17" width="8.39" height="14.53" style="fill:#cae2f1"/><rect id="fenetre-113" data-name="fenetre" x="1310.08" y="694.17" width="8.39" height="14.53" style="fill:#cae2f1"/><rect id="fenetre-114" data-name="fenetre" x="1322.99" y="694.17" width="8.39" height="14.53" style="fill:#cae2f1"/><rect id="fenetre-115" data-name="fenetre" x="1335.9" y="694.17" width="8.39" height="14.53" style="fill:#cae2f1"/><rect id="fenetre-116" data-name="fenetre" x="1297.17" y="713.69" width="8.39" height="14.53" style="fill:#cae2f1"/><rect id="fenetre-117" data-name="fenetre" x="1310.08" y="713.69" width="8.39" height="14.53" style="fill:#cae2f1"/><rect id="fenetre-118" data-name="fenetre" x="1322.99" y="713.69" width="8.39" height="14.53" style="fill:#cae2f1"/><rect id="fenetre-119" data-name="fenetre" x="1335.9" y="713.69" width="8.39" height="14.53" style="fill:#cae2f1"/><rect id="fenetre-120" data-name="fenetre" x="1297.17" y="733.21" width="8.39" height="14.53" style="fill:#cae2f1"/><rect id="fenetre-121" data-name="fenetre" x="1310.08" y="733.21" width="8.39" height="14.53" style="fill:#cae2f1"/><rect id="fenetre-122" data-name="fenetre" x="1322.99" y="733.21" width="8.39" height="14.53" style="fill:#cae2f1"/><rect id="fenetre-123" data-name="fenetre" x="1335.9" y="733.21" width="8.39" height="14.53" style="fill:#cae2f1"/><rect id="fenetre-124" data-name="fenetre" x="1297.17" y="752.72" width="8.39" height="14.53" style="fill:#cae2f1"/><rect id="fenetre-125" data-name="fenetre" x="1310.08" y="752.72" width="8.39" height="14.53" style="fill:#cae2f1"/><rect id="fenetre-126" data-name="fenetre" x="1322.99" y="752.72" width="8.39" height="14.53" style="fill:#cae2f1"/><rect id="fenetre-127" data-name="fenetre" x="1335.9" y="752.72" width="8.39" height="14.53" style="fill:#cae2f1"/><rect id="fenetre-128" data-name="fenetre" x="1297.17" y="772.24" width="8.39" height="14.53" style="fill:#cae2f1"/><rect id="fenetre-129" data-name="fenetre" x="1310.08" y="772.24" width="8.39" height="14.53" style="fill:#cae2f1"/><rect id="fenetre-130" data-name="fenetre" x="1322.99" y="772.24" width="8.39" height="14.53" style="fill:#cae2f1"/><rect id="fenetre-131" data-name="fenetre" x="1335.9" y="772.24" width="8.39" height="14.53" style="fill:#cae2f1"/><rect x="992.88" y="627.26" width="70.58" height="151.88" style="fill:#8dc2e2"/><rect id="fenetre-132" data-name="fenetre" x="1003.89" y="639.11" width="11.85" height="133.1" style="fill:#cae2f1"/><rect id="fenetre-133" data-name="fenetre" x="1022.12" y="639.11" width="11.85" height="133.1" style="fill:#cae2f1"/><rect id="fenetre-134" data-name="fenetre" x="1040.34" y="639.11" width="11.85" height="133.1" style="fill:#cae2f1"/><path d="M11532.23,866.65c-100.14,9.72-1421.09,21-1548.91,21-158.45,0-810.14,7.5-932.62-5.73-724.86-78.35-3263.1-75.91-3814.12-30.84-142,11.61-696.57-15.57-1004.39,4.4S3724.3,842.2,3478,835.33s-514.36,41.78-760.61,43.22-593.77-16.38-1086.28-23-946.53-20.19-946.53-20.19c-364.78,0-566.79,107-686.82,117.33v72.2l12963.66,1V868.19C12960.37,868.3,11533.32,866.55,11532.23,866.65Z" style="fill:#c5e567"/><g id="ecole_batiment" data-name="ecole batiment"><rect x="608.66" y="761.85" width="107.76" height="88.28" style="fill:#ffc441"/><rect x="614.08" y="767.31" width="11.21" height="29.47" style="fill:#fcf8f0"/><rect x="614.08" y="767.31" width="11.21" height="9.17" style="fill:#e3deca"/><rect x="612.61" y="796.79" width="14.04" height="1.63" style="fill:#e3deca"/><rect x="631.48" y="767.41" width="11.21" height="29.47" style="fill:#fcf8f0"/><rect x="631.48" y="767.41" width="11.21" height="9.17" style="fill:#e3deca"/><rect x="630" y="796.88" width="14.04" height="1.63" style="fill:#e3deca"/><rect x="648.24" y="767.41" width="11.21" height="29.47" style="fill:#fcf8f0"/><rect x="648.24" y="767.41" width="11.21" height="9.17" style="fill:#e3deca"/><rect x="646.76" y="796.88" width="14.04" height="1.63" style="fill:#e3deca"/><rect x="664.99" y="767.41" width="11.21" height="29.47" style="fill:#fcf8f0"/><rect x="664.99" y="767.41" width="11.21" height="9.17" style="fill:#e3deca"/><rect x="663.52" y="796.88" width="14.04" height="1.63" style="fill:#e3deca"/><rect x="681.75" y="767.41" width="11.21" height="29.47" style="fill:#fcf8f0"/><rect x="681.75" y="767.41" width="11.21" height="9.17" style="fill:#e3deca"/><rect x="680.27" y="796.88" width="14.04" height="1.63" style="fill:#e3deca"/><rect x="698.51" y="767.41" width="11.21" height="29.47" style="fill:#fcf8f0"/><rect x="698.51" y="767.41" width="11.21" height="9.17" style="fill:#e3deca"/><rect x="697.03" y="796.88" width="14.04" height="1.63" style="fill:#e3deca"/><rect x="614.08" y="814.24" width="11.21" height="29.47" style="fill:#fcf8f0"/><rect x="614.08" y="814.24" width="11.21" height="9.17" style="fill:#e3deca"/><rect x="612.74" y="843.58" width="14.04" height="1.63" style="fill:#e3deca"/><rect x="631.48" y="814.33" width="11.21" height="29.47" style="fill:#fcf8f0"/><rect x="631.48" y="814.33" width="11.21" height="9.17" style="fill:#e3deca"/><rect x="630.14" y="843.68" width="14.04" height="1.63" style="fill:#e3deca"/><rect x="681.45" y="814.24" width="11.21" height="29.47" style="fill:#fcf8f0"/><rect x="681.45" y="814.24" width="11.21" height="9.17" style="fill:#e3deca"/><rect x="680.11" y="843.58" width="14.04" height="1.63" style="fill:#e3deca"/><rect x="698.85" y="814.33" width="11.21" height="29.47" style="fill:#fcf8f0"/><rect x="698.85" y="814.33" width="11.21" height="9.17" style="fill:#e3deca"/><rect x="697.5" y="843.68" width="14.04" height="1.63" style="fill:#e3deca"/><rect x="652.22" y="814.24" width="20.64" height="35.89" style="fill:#fcf8f0"/><polygon points="602.85 763.53 721.23 763.53 710.82 755.05 615.06 755.05 602.85 763.53" style="fill:#f99a04"/><rect x="716.42" y="806.64" width="60.08" height="43.48" style="fill:#ffc441"/><rect x="722.68" y="814.24" width="11.21" height="29.47" style="fill:#fcf8f0"/><rect x="722.68" y="814.24" width="11.21" height="9.17" style="fill:#e3deca"/><rect x="721.2" y="843.71" width="14.04" height="1.63" style="fill:#e3deca"/><rect x="740.07" y="814.33" width="11.21" height="29.47" style="fill:#fcf8f0"/><rect x="740.07" y="814.33" width="11.21" height="9.17" style="fill:#e3deca"/><rect x="738.59" y="843.8" width="14.04" height="1.63" style="fill:#e3deca"/><rect x="757.83" y="814.33" width="11.21" height="29.47" style="fill:#fcf8f0"/><rect x="757.83" y="814.33" width="11.21" height="9.17" style="fill:#e3deca"/><rect x="756.36" y="843.8" width="14.04" height="1.63" style="fill:#e3deca"/><polygon points="716.42 810.48 780.91 810.48 774.58 802.41 716.29 802.41 716.42 810.48" style="fill:#f99a04"/><rect id="facade_gauche" data-name="facade gauche" x="548.84" y="806.64" width="60.08" height="43.48" style="fill:#ffc441"/><rect id="fenetre-135" data-name="fenetre" x="555.1" y="814.24" width="11.21" height="29.47" style="fill:#fcf8f0"/><rect id="rideau" x="555.1" y="814.24" width="11.21" height="9.17" style="fill:#e3deca"/><rect id="rebord_f" data-name="rebord f" x="553.62" y="843.71" width="14.04" height="1.63" style="fill:#e3deca"/><rect id="fenetre-136" data-name="fenetre" x="572.49" y="814.33" width="11.21" height="29.47" style="fill:#fcf8f0"/><rect id="rideau-2" data-name="rideau" x="572.49" y="814.33" width="11.21" height="9.17" style="fill:#e3deca"/><rect id="rebord_f-2" data-name="rebord f" x="571.01" y="843.8" width="14.04" height="1.63" style="fill:#e3deca"/><rect id="fenetre-137" data-name="fenetre" x="590.25" y="814.33" width="11.21" height="29.47" style="fill:#fcf8f0"/><rect id="rideau-3" data-name="rideau" x="590.25" y="814.33" width="11.21" height="9.17" style="fill:#e3deca"/><rect id="rebord_f-3" data-name="rebord f" x="588.77" y="843.8" width="14.04" height="1.63" style="fill:#e3deca"/><polygon points="608.87 809.25 544.38 809.25 550.72 801.18 609 801.18 608.87 809.25" style="fill:#f99a04"/><rect x="644.04" y="802.41" width="37.71" height="8.16" style="fill:#fcf8f0"/><text transform="translate(650.77 809.19)" style="font-size:7.37313985824585px;font-family:AvantGarde-Book, ITC Avant Garde Gothic">ÉCOLE</text></g><g id="GRANDE_MAISOn" data-name="GRANDE MAISOn"><ellipse cx="1282.47" cy="799.32" rx="0.22" ry="0.42" transform="translate(313.93 1959.3) rotate(-82.07)" style="fill:#ccc8b8"/><ellipse cx="1356.6" cy="798.87" rx="0.26" ry="0.15" transform="translate(-108.33 222.2) rotate(-9.01)" style="fill:#ccc8b8"/></g><g id="petite_maison" data-name="petite maison"><ellipse cx="818.83" cy="903.78" rx="0.8" ry="1.54" transform="matrix(0.13, -0.99, 0.99, 0.13, -186.05, 1594.8)" style="fill:#ccc8b8"/><ellipse cx="997.95" cy="903" rx="1.33" ry="1.71" transform="translate(-221.48 1472.49) rotate(-67.17)" style="fill:#ccc8b8"/><polygon points="821.08 901.2 1000.01 901.2 1000.01 748.02 821.08 799.51 821.08 901.2" style="fill:#ffc441"/><path d="M805.44,801.47h3.39v8s0,1.26,4.16,1.89,9.11,1,9.11,9V899.5s-.08,3-1.82,4.62l-2.93-.69,1.15-1.84a6.66,6.66,0,0,0,.42-3.16c-.06-2.34-.21-80.66-.21-80.66s.25-3-3.3-3.45-9.92-1-10-4.24S805.44,801.47,805.44,801.47Z" style="fill:#e3deca"/><rect x="888.07" y="801.53" width="85.57" height="65.39" style="fill:#fcf8f0"/><rect x="883.22" y="866.92" width="92.98" height="3.58" style="fill:#f99a04"/><polygon points="1000.01 724.39 1000.01 901.2 1191.27 901.2 1191.27 778.79 1000.01 724.39" style="fill:#ffc441"/><path d="M983.37,728.77h3.68v13.58s0,2.15,4.54,3.22,9.92,1.79,9.92,15.37V895.71s-.09,5.11-2,7.87l-3.19-1.16,1.24-3.15s.53-1.41.46-5.38-.22-137.36-.22-137.36.26-5-3.6-5.88-10.8-1.68-10.85-7.21S983.37,728.77,983.37,728.77Z" style="fill:#e3deca"/><polygon points="971.97 727.43 1193.23 788.65 1193.59 773.14 973.4 711.8 971.97 727.43" style="fill:#fff"/><rect x="1008.68" y="801.53" width="40.22" height="99.67" style="fill:#fcf8f0"/><rect x="1015.81" y="809.06" width="8.48" height="82.29" style="fill:#ffc441"/><rect x="1010.53" y="847.32" width="2.03" height="11.43" style="fill:#f99a04"/><rect x="1011.54" y="849.99" width="8.53" height="1.01" style="fill:#f99a04"/><rect x="1095.27" y="818.82" width="55.4" height="42.34" style="fill:#fcf8f0"/><rect x="1092.13" y="861.15" width="63.32" height="2.32" style="fill:#f99a04"/><polygon points="1000.01 743.29 1000.01 754.53 786.25 814.3 782.62 809.19 779.51 804.59 1000.01 743.29" style="fill:#fff"/></g></g><g id="ECOLE"><rect x="455.47" y="818.23" width="10.94" height="76.91" style="fill:#5e7e8f"/><polygon points="460.94 625.44 460.94 818.23 398.31 818.23 460.94 625.44" style="fill:#9db56b"/><polyline points="523.58 817.63 460.94 624.84 460.94 817.63" style="fill:#b6c891"/><rect x="1207.75" y="787.9" width="2.11" height="15.66" style="fill:#5e7e8f"/><polygon points="1208.81 748.65 1208.81 787.9 1196.75 787.9 1208.81 748.65" style="fill:#9db56b"/><polyline points="1220.86 787.78 1208.81 748.53 1208.81 787.78" style="fill:#b6c891"/><rect x="1236.04" y="859.57" width="8.21" height="61" style="fill:#5e7e8f"/><polygon points="1240.14 706.66 1240.14 859.57 1193.16 859.57 1240.14 706.66" style="fill:#9db56b"/><polyline points="1287.12 859.1 1240.14 706.19 1240.14 859.1" style="fill:#b6c891"/><rect x="1377.97" y="776.77" width="1.82" height="13.52" style="fill:#5e7e8f"/><polygon points="1378.88 742.87 1378.88 776.77 1368.46 776.77 1378.88 742.87" style="fill:#9db56b"/><polyline points="1389.29 776.67 1378.88 742.77 1378.88 776.67" style="fill:#b6c891"/><path d="M1294.12,786.81s-24.82-3-33.21,48.14c-7.59,46.23,15.25,54.45,33.21,54.45Z" style="fill:#9db56b"/><path d="M1294.12,786.81s24.82-3,33.21,48.14c7.59,46.23-15.25,54.45-33.21,54.45Z" style="fill:#b6c891"/><rect x="1290.53" y="889.4" width="7.28" height="44.42" style="fill:#5e7e8f"/><path d="M1356.6,741.26s-11.75-1.41-15.72,22.79c-3.59,21.88,7.22,25.77,15.72,25.77Z" style="fill:#9db56b"/><path d="M1356.6,741.26s11.75-1.41,15.72,22.79c3.59,21.88-7.22,25.77-15.72,25.77Z" style="fill:#b6c891"/><rect x="1354.9" y="789.82" width="3.45" height="21.02" style="fill:#5e7e8f"/><path d="M1272.54,757.46s-5.64-.68-7.54,10.93c-1.73,10.51,3.46,12.37,7.54,12.37Z" style="fill:#9db56b"/><path d="M1272.54,757.46s5.64-.68,7.54,10.93c1.73,10.51-3.46,12.37-7.54,12.37Z" style="fill:#b6c891"/><rect x="1271.73" y="780.76" width="1.65" height="10.09" style="fill:#5e7e8f"/><path d="M760.92,763.58s-17.76-2.14-23.77,34.45c-5.43,33.09,10.91,39,23.77,39Z" style="fill:#9db56b"/><path d="M760.92,763.58s17.76-2.14,23.77,34.45c5.43,33.09-10.92,39-23.77,39Z" style="fill:#b6c891"/><rect x="758.35" y="837" width="5.21" height="31.79" style="fill:#5e7e8f"/></g></svg>