<svg viewBox="0 0 1440 1024" fill="none" preserveAspectRatio="none"
    xmlns="http://www.w3.org/2000/svg">
    <g clip-path="url(#clip0)">
        <path opacity="0.5" d="M-44.1294 517.704C-46.0881 665.673 -44.1295 636.274 -44.1296 717.822L-44.1292 1020H812.499H1480V442.16C1480 246.503 1180.68 652.885 1034.45 666.703C888.22 680.52 544.418 563.633 415.475 502.209C266.312 431.153 -42.0103 357.61 -44.1294 517.704Z" fill="#CFE7E7"/>
        <g opacity="0.5">
            <path d="M1072 339H968V649H1072V339Z" fill="#D4FCFF"/>
            <path d="M993.078 354.28H978.556V380.857H993.078V354.28Z" fill="#D1ECED"/>
            <path d="M1015.48 354.28H1000.95V380.857H1015.48V354.28Z" fill="#D1ECED"/>
            <path d="M1037.82 354.28H1023.3V380.857H1037.82V354.28Z" fill="#D1ECED"/>
            <path d="M1060.16 354.28H1045.64V380.857H1060.16V354.28Z" fill="#D1ECED"/>
            <path d="M993.078 389.953H978.556V416.53H993.078V389.953Z" fill="#D1ECED"/>
            <path d="M1015.48 389.953H1000.95V416.53H1015.48V389.953Z" fill="#D1ECED"/>
            <path d="M1037.82 389.953H1023.3V416.53H1037.82V389.953Z" fill="#D1ECED"/>
            <path d="M1060.16 389.953H1045.64V416.53H1060.16V389.953Z" fill="#D1ECED"/>
            <path d="M993.078 425.626H978.556V452.203H993.078V425.626Z" fill="#D1ECED"/>
            <path d="M1015.48 425.626H1000.95V452.203H1015.48V425.626Z" fill="#D1ECED"/>
            <path d="M1037.82 425.626H1023.3V452.203H1037.82V425.626Z" fill="#D1ECED"/>
            <path d="M1060.16 425.626H1045.64V452.203H1060.16V425.626Z" fill="#D1ECED"/>
            <path d="M993.078 461.3H978.556V487.876H993.078V461.3Z" fill="#D1ECED"/>
            <path d="M1015.48 461.3H1000.95V487.876H1015.48V461.3Z" fill="#D1ECED"/>
            <path d="M1037.82 461.3H1023.3V487.876H1037.82V461.3Z" fill="#D1ECED"/>
            <path d="M1060.16 461.3H1045.64V487.876H1060.16V461.3Z" fill="#D1ECED"/>
            <path d="M993.078 496.973H978.556V523.549H993.078V496.973Z" fill="#D1ECED"/>
            <path d="M1015.48 496.973H1000.95V523.549H1015.48V496.973Z" fill="#D1ECED"/>
            <path d="M1037.82 496.973H1023.3V523.549H1037.82V496.973Z" fill="#D1ECED"/>
            <path d="M1060.16 496.973H1045.64V523.549H1060.16V496.973Z" fill="#D1ECED"/>
            <path d="M993.078 532.646H978.556V559.223H993.078V532.646Z" fill="#D1ECED"/>
            <path d="M1015.48 532.646H1000.95V559.223H1015.48V532.646Z" fill="#D1ECED"/>
            <path d="M1037.82 532.646H1023.3V559.223H1037.82V532.646Z" fill="#D1ECED"/>
            <path d="M1060.16 532.646H1045.64V559.223H1060.16V532.646Z" fill="#D1ECED"/>
            <path d="M993.078 568.319H978.556V594.896H993.078V568.319Z" fill="#D1ECED"/>
            <path d="M1015.48 568.319H1000.95V594.896H1015.48V568.319Z" fill="#D1ECED"/>
            <path d="M1037.82 568.319H1023.3V594.896H1037.82V568.319Z" fill="#D1ECED"/>
            <path d="M1060.16 568.319H1045.64V594.896H1060.16V568.319Z" fill="#D1ECED"/>
            <path d="M993.078 603.992H978.556V630.569H993.078V603.992Z" fill="#D1ECED"/>
            <path d="M1015.48 603.992H1000.95V630.569H1015.48V603.992Z" fill="#D1ECED"/>
            <path d="M1037.82 603.992H1023.3V630.569H1037.82V603.992Z" fill="#D1ECED"/>
            <path d="M1060.16 603.992H1045.64V630.569H1060.16V603.992Z" fill="#D1ECED"/>
        </g>
        <g opacity="0.5">
            <path d="M957 429H865V626H957V429Z" fill="#D4FCFF"/>
            <path d="M894.846 444.383H879.385V617.045H894.846V444.383Z" fill="#FCF8F0"/>
            <path d="M918.615 444.383H903.154V617.045H918.615V444.383Z" fill="#FCF8F0"/>
            <path d="M942.308 444.383H926.846V617.045H942.308V444.383Z" fill="#FCF8F0"/>
        </g>
        <g opacity="0.4">
            <g clip-path="url(#clip1)">
                <path d="M1203.82 621.157C1215.12 621.157 1224.29 611.719 1224.29 600.078C1224.29 588.437 1215.12 579 1203.82 579C1192.51 579 1183.35 588.437 1183.35 600.078C1183.35 611.719 1192.51 621.157 1203.82 621.157Z" fill="#CCE595"/>
                <path d="M1205.77 623.164H1201.08V680.063H1205.77V623.164Z" fill="#2C4068"/>
                <path d="M1204 645.497C1220.02 645.497 1233 635.751 1233 623.729C1233 611.706 1220.02 601.96 1204 601.96C1187.98 601.96 1175 611.706 1175 623.729C1175 635.751 1187.98 645.497 1204 645.497Z" fill="#CCE595"/>
            </g>
        </g>
        <g opacity="0.5">
            <path d="M22.2107 669.43H14.3218V725H22.2107V669.43Z" fill="#2C4068"/>
            <path d="M22.7988 584.488C19.3842 582.801 15.2631 582.503 11.613 583.992C6.66777 585.976 -0.75014 590.938 -6.63737 603.937C-14.9972 622.097 -31.0105 656.034 -3.8115 670.621C9.3759 677.666 26.8021 677.468 38.9298 669.132C51.6462 660.4 60.948 641.546 37.6346 601.457C37.6346 601.357 32.5716 589.251 22.7988 584.488Z" fill="#D7F0BC"/>
        </g>
        <path d="M164 661.726C93.2 670.126 43.5 700.893 1 732.226V1031.5H639.5H1440V698.226H1370C1255.5 698.226 1190.5 661.726 1104.5 641.226C1018.5 620.726 898.5 614.726 799.5 617.726C700.5 620.726 591 625.226 463.5 661.726C336 698.226 252.5 651.226 164 661.726Z" fill="#E2F8CA"/>
        <g clip-path="url(#clip2)">
            <path d="M166.823 642.026C208.731 642.026 242.705 606.427 242.705 562.513C242.705 518.599 208.731 483 166.823 483C124.914 483 90.9402 518.599 90.9402 562.513C90.9402 606.427 124.914 642.026 166.823 642.026Z" fill="#CCE595"/>
            <path d="M174.049 649.599H156.66V864.237H174.049V649.599Z" fill="#2C4068"/>
            <path d="M167.5 733.845C226.871 733.845 275 697.08 275 651.729C275 606.377 226.871 569.612 167.5 569.612C108.129 569.612 60 606.377 60 651.729C60 697.08 108.129 733.845 167.5 733.845Z" fill="#CCE595"/>
        </g>
        <path d="M291.134 635.252H277.134V755H291.134V635.252Z" fill="#2C4068"/>
        <path d="M292.18 452.208C286.12 448.573 278.807 447.931 272.329 451.139C263.553 455.415 250.389 466.107 239.941 494.12C225.105 533.252 196.687 606.384 244.956 637.818C268.359 653 299.284 652.573 320.807 634.61C343.374 615.793 359.881 575.164 318.508 488.774C318.508 488.56 309.523 462.472 292.18 452.208Z" fill="#D7F0BC"/>
        <g clip-path="url(#clip3)">
            <path d="M1423.08 863.66H1394.5V1102.72H1423.08V863.66Z" fill="#2C4068"/>
            <path d="M1263 900.878H1541L1401.64 397L1263 900.878Z" fill="#CCE595"/>
        </g>
        <g opacity="0.6">
            <g clip-path="url(#clip4)">
                <path d="M1284.13 661.739C1306.94 661.739 1325.43 641.65 1325.43 616.87C1325.43 592.089 1306.94 572 1284.13 572C1261.33 572 1242.84 592.089 1242.84 616.87C1242.84 641.65 1261.33 661.739 1284.13 661.739Z" fill="#CCE595"/>
                <path d="M1288.06 666.012H1278.6V787.134H1288.06V666.012Z" fill="#2C4068"/>
                <path d="M1284.5 713.553C1316.81 713.553 1343 692.806 1343 667.214C1343 641.622 1316.81 620.876 1284.5 620.876C1252.19 620.876 1226 641.622 1226 667.214C1226 692.806 1252.19 713.553 1284.5 713.553Z" fill="#CCE595"/>
            </g>
        </g>
        <path d="M1127.46 587.86H1113.01V708H1127.46V587.86Z" fill="#2C4068"/>
        <path d="M1128.53 404.218C1122.28 400.571 1114.74 399.927 1108.05 403.145C1099 407.436 1085.42 418.163 1074.64 446.267C1059.33 485.527 1030.01 558.898 1079.81 590.435C1103.96 605.667 1135.86 605.238 1158.07 587.217C1181.35 568.338 1198.38 527.576 1155.7 440.904C1155.7 440.689 1146.43 414.516 1128.53 404.218Z" fill="#D7F0BC"/>
        <g clip-path="url(#clip5)">
            <path d="M356.71 720.241H340.154V822.306H356.71V720.241Z" fill="#2C4068"/>
            <path d="M264 736.131H425L344.293 521L264 736.131Z" fill="#CCE595"/>
        </g>
    </g>
    <defs>
        <clipPath id="clip0">
            <rect width="1440" height="1024" fill="white"/>
        </clipPath>
        <clipPath id="clip1">
            <rect x="1175" y="579" width="58" height="101" fill="white"/>
        </clipPath>
        <clipPath id="clip2">
            <rect x="60" y="483" width="215" height="381" fill="white"/>
        </clipPath>
        <clipPath id="clip3">
            <rect x="1263" y="397" width="278" height="705" fill="white"/>
        </clipPath>
        <clipPath id="clip4">
            <rect x="1226" y="572" width="117" height="215" fill="white"/>
        </clipPath>
        <clipPath id="clip5">
            <rect x="264" y="521" width="161" height="301" fill="white"/>
        </clipPath>
    </defs>
</svg>
