<svg id="Calque_1" data-name="Calque 1" xmlns="http://www.w3.org/2000/svg" viewBox="0 0 211.46 181.95">
    <defs>
        <style>
            .cls-1 {
                fill: #D8E7BC;
            }

            .cls-2 {
                fill: #0FF;
            }

            .cls-3 {
                fill: #EF7D64;
            }

            .cls-4 {
                fill: #FCF9F1;
            }

            .cls-5 {
                fill: #2c4068;
            }
        </style>
    </defs>
    <title>grande maison</title>
    <path class="cls-1" d="M143.44,158.21a97.16,97.16,0,0,1-33.8-.32,43.91,43.91,0,0,0-17.6.63c-20.79,4.88-30.69,4.68-50.88,9.14s-39,31.8-12.57,37.75S60.89,194.6,92,195.34s36.3,14.86,70.32,6.69,77.77-18.27,60.95-27.7C209.52,166.59,172.53,153,143.44,158.21Z" transform="translate(-15.56 -43.46)" />
    <path class="cls-2" d="M160.76,182.67c.33,2.81.58,6-1.17,8.17-2.9,3.69-9.69,2.82-11.85,7a26.8,26.8,0,0,0-1.1,3.46c-1.38,3.82-5.65,5.8-9.67,6.44s-8.2.35-12.08,1.58c-4.21,1.32-7.67,4.29-11,7.19-2.86,2.49-5.88,5.23-6.78,8.92l57-.19c-.74-1.44-1.27-4.87,1.92-5.95s11.06-3.45,11.85-6.84c1.24-5.28,10.17-5.31,11.25-8.39.38-1.08-1.34-4.55-1.68-5.65-.83-2.72,1.23-5.39,3.12-7.52s14.6-4.73,13.61-7.4" transform="translate(-15.56 -43.46)" />
    <rect id="facade_maison" data-name="facade maison" class="cls-3" x="13.86" y="64.99" width="127.64" height="74.48" />
    <rect id="fenetre" class="cls-4" x="77.85" y="103.72" width="22.4" height="36.49" />
    <rect id="fenetre-2" data-name="fenetre" class="cls-4" x="49.6" y="103.72" width="19.75" height="19.75" />
    <rect id="fenetre-3" data-name="fenetre" class="cls-4" x="110.29" y="103.7" width="19.75" height="19.75" />
    <polygon id="toit_maison" data-name="toit maison" class="cls-5" points="5.21 73.13 147.25 73.13 134.76 49.43 19.87 49.43 5.21 73.13" />
    <path id="feu_cheminé" data-name="feu cheminé" class="cls-4" d="M114.68,71.36c-2.35-4.55,2.75-10.18.92-15-.47-1.22-1.36-2.24-1.85-3.46a6.67,6.67,0,0,1,1.51-6.85A9.1,9.1,0,0,1,122,43.46c2.07,0,4.44.95,5,2.95.65,2.47-1.84,4.88-1.44,7.4.32,2,2.41,3.31,4.4,3.87s4.15.71,5.9,1.82a6.43,6.43,0,0,1,1.34,9.27c-1,1.08-2.26,1.82-3.13,3a9.71,9.71,0,0,0-1.52,4.76A74.84,74.84,0,0,0,132,87.08h-2.06c-1.95-5.61.73-7.44-5-10.6C121.54,74.63,116.74,75.34,114.68,71.36Z" transform="translate(-15.56 -43.46)" />
    <rect id="cheminé" class="cls-2" x="111.03" y="38.27" width="9.45" height="19.67" />
    <rect id="fenetre-4" data-name="fenetre" class="cls-4" x="20.61" y="103.72" width="19.75" height="19.75" />
    <rect id="fenetre-5" data-name="fenetre" class="cls-4" x="49.6" y="78.48" width="19.75" height="19.75" />
    <rect id="fenetre-6" data-name="fenetre" class="cls-4" x="20.61" y="78.48" width="19.75" height="19.75" />
    <rect id="fenetre-7" data-name="fenetre" class="cls-4" x="110.39" y="78.48" width="19.75" height="19.75" />
    <rect id="facade_garage" data-name="facade garage" class="cls-3" x="141.5" y="98.23" width="55.64" height="41.24" />
    <polygon id="toit_garage" data-name="toit garage" class="cls-5" points="134.54 105.64 200.56 105.64 194.75 90.82 141.35 90.82 134.54 105.64" />
    <rect id="porte_garage" data-name="porte garage" class="cls-4" x="145.36" y="113.58" width="43.56" height="25.9" />
    <rect id="fenetre-8" data-name="fenetre" class="cls-4" x="79.25" y="78.48" width="19.75" height="19.75" />
</svg>
