<svg xmlns="http://www.w3.org/2000/svg" viewBox="0 0 107.38721 121.76925"><title>bateau_persoFichier 7</title><g id="Calque_2" data-name="Calque 2"><g id="bateau"><polygon points="57.836 42.451 85.269 105.265 59.233 105.265 57.836 42.451" style="fill:#d3d3d3"/><polyline points="17.02 114.746 17.02 109.337 0.223 109.337 0.223 114.746" style="fill:none;stroke:#79787d;stroke-miterlimit:10;stroke-width:0.363178154234189px"/><line x1="8.62153" y1="109.33696" x2="8.62153" y2="114.74566" style="fill:none;stroke:#79787d;stroke-miterlimit:10;stroke-width:0.363178154234189px"/><path d="M85.78025,113.90744a14.81359,14.81359,0,0,1,11.63611-7.52308c8.6318-1.04967,13.27428-3.38472,6.63714,4.92057" style="fill:none;stroke:#79787d;stroke-miterlimit:10;stroke-width:0.371982504865735px"/><path d="M81.56934,113.48844l-5.55135-4.2835H24.176v5.4921S69.92466,114.697,81.56934,113.48844Z" style="fill:#0177be"/><polygon points="24.176 109.205 21.651 109.254 21.651 107.151 75.85 107.151 75.85 109.205 24.176 109.205" style="fill:#8dc2e2"/><rect x="27.71064" y="110.84018" width="5.38619" height="2.40226" style="fill:#85bee0"/><rect x="37.17005" y="110.84018" width="5.38619" height="2.40226" style="fill:#85bee0"/><rect x="46.62946" y="110.84018" width="5.38619" height="2.40226" style="fill:#85bee0"/><rect x="56.08887" y="110.84018" width="5.38619" height="2.40226" style="fill:#85bee0"/><rect x="55.14293" width="2.69309" height="107.82105" style="fill:#8dc2e2"/><polygon points="55.143 8.265 10.565 102.49 52.873 102.49 55.143 8.265" style="fill:#d3d3d3"/><polygon points="57.836 9.202 59.989 84.33 106.763 105.265 57.836 9.202" style="fill:#f2f2f2"/><path d="M0,114.61364s90.56313,1.00626,104.65072-3.77346c0,0-5.03128,10.5657-8.30162,10.81726s-88.04748,0-88.04748,0S3.08012,121.76925,0,114.61364Z" style="fill:#0177be"/></g></g></svg>