<svg width="1440" height="1024" viewBox="0 0 1440 1024" fill="none" xmlns="http://www.w3.org/2000/svg">
<rect width="1440" height="1024" fill="white"/>
<g clip-path="url(#clip0)">
<path d="M933.995 605.679H578.233V764.715H933.995V605.679Z" fill="#FF7F61"/>
<path d="M792.465 654.35H723.637V766.771H792.465V654.35Z" fill="#FCF8F0"/>
<path d="M676.688 653.664H616.065V714.445H676.688V653.664Z" fill="#FCF8F0"/>
<path d="M895.479 653.664H834.856V714.445H895.479V653.664Z" fill="#FCF8F0"/>
<path d="M560 623.502H952L917.586 550.382H600.34L560 623.502Z" fill="#2C4068"/>
<path d="M591.223 488.916C583.93 474.977 599.656 457.611 593.958 442.759C592.591 439.103 589.856 435.904 588.26 432.019C585.525 424.936 587.577 416.481 592.818 410.998C598.06 405.514 605.809 402.772 613.33 403C619.712 403 627.005 405.971 628.6 412.14C630.651 419.68 622.902 427.221 624.27 434.99C625.181 441.388 631.563 445.272 637.716 446.872C643.87 448.7 650.479 449.157 655.949 452.584C665.065 458.525 667.344 472.921 660.051 481.147C657.088 484.574 652.986 486.859 650.479 490.287C647.288 494.4 646.377 499.884 645.921 504.911C644.553 515.65 644.098 526.618 644.325 537.586C642.274 537.586 640.223 537.586 637.944 537.586C632.018 520.22 640.223 514.736 622.446 504.911C612.191 498.97 597.377 501.255 591.223 488.916Z" fill="#FCF8F0"/>
<path d="M652.986 523.876H630.423V584.429H652.986V523.876Z" fill="#E3DECA"/>
<rect x="914.808" y="558.715" width="27.7832" height="27.8453" fill="white" stroke="#2C4068"/>
<line x1="917.734" y1="573.198" x2="940.349" y2="573.198" stroke="#2C4068" stroke-width="3"/>
<line x1="928.57" y1="583.626" x2="928.57" y2="563.023" stroke="#2C4068" stroke-width="3"/>
</g>
<defs>
<clipPath id="clip0">
<rect x="560" y="403" width="392" height="364" fill="white"/>
</clipPath>
</defs>
</svg>
