<svg id="Calque_1" data-name="Calque 1" xmlns="http://www.w3.org/2000/svg" viewBox="0 0 209.77 123.4"><defs><style>.cls-1{fill:#d8e7bc;}.cls-2{fill:#ef7d64;}.cls-3{fill:#fcf9f1;}.cls-4{fill:#2c4068;}.cls-5{fill:#e2deca;}</style></defs><title>moyenne maison</title><path class="cls-1" d="M143.16,143.86a95.63,95.63,0,0,1-33.53-.31,43.23,43.23,0,0,0-17.46.63c-20.62,4.88-30.44,4.68-50.47,9.14S3,185.11,29.24,191.05s32-10.81,62.93-10.06,36,14.85,69.76,6.68,77.15-18.26,60.46-27.69C208.71,152.25,172,138.62,143.16,143.86Z" transform="translate(-16.31 -68.92)"/><rect id="facade" class="cls-2" x="62.73" y="52.15" width="91.81" height="40.9"/><rect id="porte" class="cls-3" x="100.25" y="64.7" width="17.76" height="28.94"/><rect id="fenetre" class="cls-3" x="72.48" y="64.51" width="15.66" height="15.66"/><rect id="fenetre-2" data-name="fenetre" class="cls-3" x="128.91" y="64.51" width="15.66" height="15.66"/><polygon id="toit" class="cls-4" points="58 56.75 159.16 56.75 150.27 37.95 68.44 37.95 58 56.75"/><path id="feu_chemine" data-name="feu chemine" class="cls-3" d="M82.35,91.05c-1.86-3.61,2.17-8.08.72-11.86-.37-1-1.07-1.79-1.46-2.75A5.31,5.31,0,0,1,82.81,71a7.23,7.23,0,0,1,5.31-2.08c1.65,0,3.53.75,4,2.34.52,2-1.46,3.87-1.14,5.87.25,1.62,1.91,2.63,3.49,3.07s3.29.56,4.67,1.44A5.1,5.1,0,0,1,100.17,89c-.76.86-1.8,1.45-2.49,2.36a7.61,7.61,0,0,0-1.2,3.78,60.3,60.3,0,0,0-.41,8.39H94.43c-1.54-4.45.58-5.9-4-8.41C87.79,93.64,84,94.21,82.35,91.05Z" transform="translate(-16.31 -68.92)"/><rect id="chemine" class="cls-5" x="76.2" y="31.09" width="5.8" height="15.6"/></svg>