<svg id="Calque_1" data-name="Calque 1" width="100vw" height="100vh" preserveAspectRatio="none" 
    xmlns="http://www.w3.org/2000/svg" viewBox="0 0 151.12 58.66">
    <title>2 nuages</title>
    <path d="M57.57,74.11a25.64,25.64,0,0,0,10.72,2.15h79.16s16.3-.07,15.65-11.06-16-10.1-16-10.1,3-8-9.11-12a25.05,25.05,0,0,0-16.92,0,40.39,40.39,0,0,0-28.85-7.58C75,37.76,70.7,44.55,68.53,52.13c0,0-17.57-.45-18,12.48C50.53,64.61,49.63,70.39,57.57,74.11Z" transform="translate(-12 -17.6)" style="fill:#d2eaec;opacity:0.5"/>
    <path d="M34.8,64.73h68.1a24.06,24.06,0,0,0,13.58-3.83c3.14-2.2,5.75-5.54,5.27-10.5,0,0-1.5-10.48-14.6-11.58,0,0-.75-6.89-12.35-4.41,0,0-2.62-5.51-11.6-3.3,0,0-1.13-13.51-21.34-13.51S40.9,30,40.9,30s-13.1-2.75-15.35,8.27c0,0-12,1.1-13.47,12.68-.8,6.2,4.63,9.71,9.84,11.63A37.22,37.22,0,0,0,34.8,64.73Z" transform="translate(-12 -17.6)" style="fill:#d2eaec;opacity:0.5"/>
</svg>
