<svg id="Calque_1" data-name="Calque 1" xmlns="http://www.w3.org/2000/svg" viewBox="0 0 841.89 595.28">
    <defs>
        <style>
            .cls-1 {
                fill: #d8e7bc;
            }

            .cls-2 {
                fill: #ef7d64;
            }

            .cls-qui-bug {
                fill: #660;
            }

            .cls-4 {
                fill: #2c4068;
            }

            .cls-5 {
                fill: #e2deca;
            }
        </style>
    </defs>
    <title>Plan de travail 1</title>
    <path class="cls-1" d="M488.23,343.25c-34.76,6.32-70.57,5.12-105.38-1a135.4,135.4,0,0,0-54.9,2C263.15,359.57,232.28,359,169.31,373s-121.76,99.93-39.18,118.6,100.71-34,197.82-31.62,113.22,46.68,219.3,21,242.51-57.39,190-87.05C694.29,369.6,579,326.76,488.23,343.25Z" />
    <rect id="facade" class="cls-2" x="286.67" y="271.6" width="288.61" height="128.58" />
    <rect id="kjhgfds" class="cls-2" x="386.67" y="271.6" width="288.61" height="128.58" />
    <rect id="porte" class="cls-qui-bug" x="404.62" y="311.05" width="55.84" height="89.13" />
    <rect id="fenetre" class="cls-qui-bug" x="317.34" y="310.46" width="49.23" height="49.23" />
    <rect id="fenetre-2" data-name="fenetre" class="cls-qui-bug" x="494.72" y="310.46" width="49.23" height="49.23" />
    <polygon id="toit" class="cls-4" points="271.82 286.05 589.82 286.05 561.85 226.97 304.62 226.97 271.82 286.05" />
    <path id="feu_chemine" data-name="feu chemine" class="cls-qui-bug" d="M297.08,177.22c-5.85-11.33,6.85-25.38,2.28-37.29-1.17-3-3.38-5.6-4.59-8.63-2.27-5.72-.48-12.61,3.76-17.08s10.55-6.63,16.71-6.56c5.18.07,11.09,2.37,12.42,7.37,1.64,6.15-4.57,12.15-3.58,18.44.81,5.09,6,8.26,11,9.65s10.34,1.78,14.7,4.53c7.48,4.73,9.18,16.47,3.35,23.12-2.37,2.7-5.64,4.53-7.81,7.39-2.54,3.36-3.27,7.71-3.77,11.89a187.48,187.48,0,0,0-1.32,26.38h-5.12c-4.87-14,1.81-18.56-12.49-26.44C314.19,185.37,302.21,187.16,297.08,177.22Z" />
    <rect id="chemine" class="cls-5" x="329.02" y="205.39" width="18.23" height="49.04" />
</svg>
