<?xml version="1.0" encoding="UTF-8" standalone="no"?>
<!-- Created with Inkscape (http://www.inkscape.org/) -->

<svg xmlns:dc="http://purl.org/dc/elements/1.1/" 
   xmlns:cc="http://creativecommons.org/ns#" 
   xmlns:rdf="http://www.w3.org/1999/02/22-rdf-syntax-ns#" 
   xmlns:svg="http://www.w3.org/2000/svg" 
   xmlns="http://www.w3.org/2000/svg" 
   xmlns:sodipodi="http://sodipodi.sourceforge.net/DTD/sodipodi-0.dtd" 
   xmlns:inkscape="http://www.inkscape.org/namespaces/inkscape" viewBox="0 0 5.3025188 5.3025181" version="1.1" id="svg845" inkscape:version="0.92.4 (5da689c313, 2019-01-14)" sodipodi:docname="plus-slider.svg">
   <defs id="defs839" />
   <sodipodi:namedview id="base" pagecolor="#ffffff" bordercolor="#666666" borderopacity="1.0" inkscape:pageopacity="0.0" inkscape:pageshadow="2" inkscape:zoom="5.6" inkscape:cx="-47.19394" inkscape:cy="4.5243754" inkscape:document-units="mm" inkscape:current-layer="layer1" showgrid="false" inkscape:window-width="1920" inkscape:window-height="1017" inkscape:window-x="-8" inkscape:window-y="-8" inkscape:window-maximized="1" />
   <metadata id="metadata842">
      <rdf:RDF>
         <cc:Work rdf:about="">
            <dc:format>image/svg+xml</dc:format>
            <dc:type rdf:resource="http://purl.org/dc/dcmitype/StillImage" />
            <dc:title></dc:title>
         </cc:Work>
      </rdf:RDF>
   </metadata>
   <g inkscape:label="Calque 1" inkscape:groupmode="layer" id="layer1" transform="translate(-97.55379,-170.7923)">
      <path style="opacity:1;fill:#000000;fill-opacity:1;stroke:none;stroke-width:0.37795275;stroke-linecap:round;stroke-linejoin:round;stroke-miterlimit:4;stroke-dasharray:none;stroke-opacity:1" d="m 21.589844,1.2480469 c -0.213334,0 -0.373802,0.080234 -0.480469,0.2402343 -0.106667,0.16 -0.160156,0.3472136 -0.160156,0.5605469 v 6.8007813 h -6.759766 c -0.213333,0 -0.400547,0.051536 -0.560547,0.1582031 -0.16,0.1066667 -0.240234,0.2671354 -0.240234,0.4804687 v 3.5996098 c 0,0.213333 0.08023,0.373802 0.240234,0.480468 0.16,0.106667 0.347214,0.160157 0.560547,0.160157 h 6.759766 v 6.759765 c 0,0.213334 0.05349,0.400547 0.160156,0.560547 0.106667,0.16 0.267135,0.240234 0.480469,0.240234 h 3.599609 c 0.213333,0 0.373802,-0.08023 0.480469,-0.240234 0.106667,-0.16 0.160156,-0.347213 0.160156,-0.560547 v -6.759765 h 6.798828 c 0.213334,0 0.400547,-0.05349 0.560547,-0.160157 0.16,-0.106666 0.240235,-0.267135 0.240235,-0.480468 V 9.4882812 c 0,-0.2133333 -0.08024,-0.373802 -0.240235,-0.4804687 -0.16,-0.1066667 -0.347213,-0.1582031 -0.560547,-0.1582031 H 25.830078 V 2.0488281 c 0,-0.2133333 -0.05349,-0.4005469 -0.160156,-0.5605469 C 25.563255,1.3282813 25.402786,1.2480469 25.189453,1.2480469 Z" id="path1416" transform="matrix(0.26458333,0,0,0.26458333,94.011371,170.46209)" inkscape:connector-curvature="0" />
   </g>
</svg>
