<?xml version="1.0" encoding="UTF-8" standalone="no"?>
<svg
   xmlns:dc="http://purl.org/dc/elements/1.1/"
   xmlns:cc="http://creativecommons.org/ns#"
   xmlns:rdf="http://www.w3.org/1999/02/22-rdf-syntax-ns#"
   xmlns:svg="http://www.w3.org/2000/svg"
   xmlns="http://www.w3.org/2000/svg"
   xmlns:sodipodi="http://sodipodi.sourceforge.net/DTD/sodipodi-0.dtd"
   xmlns:inkscape="http://www.inkscape.org/namespaces/inkscape"
   viewBox="0 0 48.330076 48.330077"
   version="1.1"
   id="svg10"
   sodipodi:docname="plus.svg"

   inkscape:version="0.92.4 (5da689c313, 2019-01-14)">
  <metadata
     id="metadata16">
    <rdf:RDF>
      <cc:Work
         rdf:about="">
        <dc:format>image/svg+xml</dc:format>
        <dc:type
           rdf:resource="http://purl.org/dc/dcmitype/StillImage" />
        <dc:title>bouton +Fichier 8</dc:title>
      </cc:Work>
    </rdf:RDF>
  </metadata>
  <defs
     id="defs14" />
  <sodipodi:namedview
     pagecolor="#ffffff"
     bordercolor="#666666"
     borderopacity="1"
     objecttolerance="10"
     gridtolerance="10"
     guidetolerance="10"
     inkscape:pageopacity="0"
     inkscape:pageshadow="2"
     inkscape:window-width="1920"
     inkscape:window-height="1017"
     id="namedview12"
     showgrid="false"
     inkscape:zoom="8.1351258"
     inkscape:cx="-2.4937013"
     inkscape:cy="28.109053"
     inkscape:window-x="-8"
     inkscape:window-y="-8"
     inkscape:window-maximized="1"
     inkscape:current-layer="g821" />
  <title
     id="title2">bouton +Fichier 8</title>
  <g
     id="Calque_2"
     data-name="Calque 2"
     transform="translate(22.363813,-3.8567802)" />
  <g
     inkscape:groupmode="layer"
     id="layer2"
     inkscape:label="Layer 2"
     transform="translate(22.363813,-2.4667802)">
    <ellipse
       style="opacity:1;fill:#ffffff;fill-opacity:1;stroke:none;stroke-width:0.28703767;stroke-linecap:round;stroke-linejoin:round;stroke-miterlimit:4;stroke-dasharray:none;stroke-opacity:1"
       id="path820"
       cx="3.3803999"
       cy="26.404802"
       rx="20.466803"
       ry="20.712648" />
  </g>
  <g
     inkscape:groupmode="layer"
     id="layer3"
     inkscape:label="Layer 3"
     transform="translate(22.363813,-2.4667802)">
    <g
       id="fond"
       transform="translate(-6.3920335,0.82262719)">
      <g
         inkscape:groupmode="layer"
         id="layer1"
         inkscape:label="Layer 1" />
      <g
         id="g821"
         transform="translate(-6.5149576)">
        <path
           style="fill:#004b78;stroke:none;stroke-miterlimit:10"
           d="m 0.46310021,1.644153 c -5.49568041,0 -9.91992241,4.424241 -9.91992241,9.919921 v 28.490235 c 0,5.49568 4.424242,9.919922 9.91992241,9.919922 H 28.953334 c 5.49568,0 9.919922,-4.424242 9.919922,-9.919922 V 11.564074 c 0,-5.49568 -4.424242,-9.919921 -9.919922,-9.919921 z M 12.242397,12.001574 h 4.800781 c 0.284541,0 0.498354,0.106906 0.640625,0.320312 0.142271,0.213406 0.212891,0.463506 0.212891,0.748047 v 9.070313 h 9.070312 c 0.284541,0 0.532688,0.07062 0.746094,0.21289 0.213406,0.142271 0.320312,0.356084 0.320312,0.640625 v 4.800783 c 0,0.284541 -0.106906,0.498354 -0.320312,0.640625 -0.213406,0.14227 -0.461553,0.21289 -0.746094,0.21289 h -9.070312 v 9.015625 c 0,0.284542 -0.07062,0.534641 -0.212891,0.748047 -0.142271,0.213406 -0.356084,0.320313 -0.640625,0.320313 h -4.800781 c -0.284542,0 -0.498355,-0.106907 -0.640625,-0.320313 -0.142271,-0.213406 -0.212891,-0.463505 -0.212891,-0.748047 V 28.648059 H 2.3713032 c -0.284541,0 -0.532688,-0.07062 -0.746094,-0.21289 -0.213406,-0.142271 -0.320312,-0.356084 -0.320312,-0.640625 v -4.800783 c 0,-0.284541 0.106906,-0.498354 0.320312,-0.640625 0.213406,-0.14227 0.461553,-0.21289 0.746094,-0.21289 h 9.0175778 v -9.070313 c 0,-0.284541 0.07062,-0.534641 0.212891,-0.748047 0.14227,-0.213406 0.356083,-0.320312 0.640625,-0.320312 z"
           id="rect4"
           inkscape:connector-curvature="0" />
      </g>
    </g>
  </g>
</svg>
