<svg id="Calque_1" data-name="Calque 1" xmlns="http://www.w3.org/2000/svg" viewBox="0 0 356.75 209.87"><title>Sans titre - 2</title><path d="M459.55,317.14c-18.81,3.42-38.19,2.77-57-.53a73.26,73.26,0,0,0-29.7,1.08c-35.06,8.28-51.76,7.95-85.83,15.53s-65.87,54.06-21.2,64.16,54.49-18.37,107-17.11,61.25,25.26,118.64,11.37,131.21-31.05,102.82-47.09C571,331.4,508.64,308.22,459.55,317.14Z" transform="translate(-243.82 -189.68)" style="fill:#d8e7bc"/><rect id="facade" x="106.68" y="88.7" width="156.15" height="69.56" style="fill:#ef7d64"/><rect id="porte" x="170.49" y="110.04" width="30.21" height="49.22" style="fill:#fcf9f1"/><rect id="fenetre" x="123.27" y="109.72" width="26.64" height="26.64" style="fill:#fcf9f1"/><rect id="fenetre-2" data-name="fenetre" x="219.24" y="109.72" width="26.64" height="26.64" style="fill:#fcf9f1"/><polygon id="toit" points="98.64 96.51 270.69 96.51 255.56 64.55 116.39 64.55 98.64 96.51" style="fill:#2c4068"/><path id="feu_chemine" data-name="feu chemine" d="M356.13,227.32c-3.17-6.13,3.7-13.73,1.23-20.18-.63-1.64-1.83-3-2.48-4.67a9,9,0,0,1,2-9.24,12.23,12.23,0,0,1,9-3.54c2.8,0,6,1.27,6.72,4,.89,3.33-2.47,6.57-1.93,10,.43,2.75,3.25,4.47,5.93,5.22s5.6,1,7.95,2.45a8.68,8.68,0,0,1,1.81,12.51c-1.28,1.46-3.05,2.45-4.22,4-1.38,1.81-1.77,4.17-2,6.43a101.51,101.51,0,0,0-.71,14.27h-2.78c-2.63-7.57,1-10-6.75-14.3C365.38,231.73,358.9,232.69,356.13,227.32Z" transform="translate(-243.82 -189.68)" style="fill:#fcf9f1"/><rect id="chemine" x="129.59" y="52.87" width="9.87" height="26.53" style="fill:#e2deca"/></svg>