<svg viewBox="0 0 1440 1024" fill="none" xmlns="http://www.w3.org/2000/svg">
<g clip-path="url(#clip0)">
<path d="M720.523 735.694C740.399 738.884 760.828 738.147 780.705 735.203C789.539 733.976 800.029 733.731 811.9 736.185C848.893 743.791 866.561 743.545 902.449 750.661C938.338 757.776 972.018 800.714 924.811 810.283C877.603 819.606 867.389 793.353 811.9 794.334C756.411 795.316 747.301 817.643 686.843 804.885C626.385 791.881 548.534 776.178 578.349 761.211C603.195 748.943 668.899 727.352 720.523 735.694Z" fill="#D7F0BC"/>
<path d="M612.305 593.632H896.1V764.401H612.305V593.632Z" fill="#FF7F61"/>
<path d="M663.929 645.893H738.743V766.609H663.929V645.893Z" fill="#FCF8F0"/>
<path d="M777.668 645.893H849.445V709.686H777.668V645.893Z" fill="#FCF8F0"/>
<path d="M918.185 612.77H596.294L624.452 550.94H885.057L918.185 612.77Z" fill="#2C4068"/>
<path d="M880.64 468.254C889.474 453.287 870.426 434.64 877.327 418.691C878.984 414.766 882.297 411.331 884.229 407.16C887.542 399.554 885.057 390.475 878.708 384.587C872.358 378.698 862.972 375.754 853.862 375.999C846.132 375.999 837.298 379.189 835.366 385.814C832.881 393.91 842.267 402.007 840.611 410.349C839.507 417.219 831.777 421.39 824.323 423.108C816.869 425.071 808.863 425.561 802.238 429.242C791.195 435.621 788.435 451.079 797.269 459.911C800.857 463.592 805.827 466.045 808.863 469.726C812.728 474.142 813.833 480.031 814.385 485.429C816.041 496.96 816.593 508.738 816.317 520.515C818.802 520.515 821.286 520.515 824.047 520.515C831.225 501.868 821.286 495.979 842.819 485.429C854.966 479.049 872.91 481.503 880.64 468.254Z" fill="#FCF8F0"/>
<path d="M805.551 505.794H832.881V570.814H805.551V505.794Z" fill="#E3DECA"/>
</g>
<defs>
<clipPath id="clip0">
<rect width="376" height="436" transform="matrix(-1 0 0 1 948 376)" fill="white"/>
</clipPath>
</defs>
</svg>
