<svg height="512" viewBox="0 0 64 64" width="512" xmlns="http://www.w3.org/2000/svg">
    <g id="Flat">
        <g id="Color_copy" data-name="Color copy">
            <g>
                <g>
                    <path d="m12 25h40v28h-40z" fill="#57b7eb" />
                    <path d="m18 34v-9h-6v28h40v-7h-22a12 12 0 0 1 -12-12z" fill="#4891d3" />
                    <path d="m25 25a3 3 0 0 0 3 3h18a3 3 0 0 1 3 3v10a3 3 0 0 0 3 3v-19z" fill="#aae1f9" />
                    <path d="m7 53h50a0 0 0 0 1 0 0v4a4 4 0 0 1 -4 4h-42a4 4 0 0 1 -4-4v-4a0 0 0 0 1 0 0z" fill="#d0d8da" />
                    <path d="m25 53h14v4h-14z" fill="#656b76" />
                    <path d="m13 58a3 3 0 0 1 -3-3v-2h-3v4a4 4 0 0 0 4 4h42a3.992 3.992 0 0 0 3.859-3z" fill="#93999a" />
                </g>
                <g>
                    <circle cx="22" cy="46" fill="#f9e109" r="3" />
                    <path d="m19 46a3 3 0 1 0 5.729-1.232 11.992 11.992 0 0 1 -2.638-1.759c-.031 0-.06-.009-.091-.009a3 3 0 0 0 -3 3z" fill="#fcbc04" />
                    <g>
                        <path d="m26 3h16a6 6 0 0 1 6 6v2a4 4 0 0 1 -4 4h-10a8 8 0 0 1 -8-8v-4a0 0 0 0 1 0 0z" fill="#57b7eb" />
                        <path d="m38.837 8.492a16.011 16.011 0 0 1 -11.282-5.492h-1.555v4a8 8 0 0 0 8 8h10a4 4 0 0 0 4-4v-2c0-.017 0-.033 0-.05z" fill="#4891d3" />
                        <path d="m32 23h10a6 6 0 0 1 6 6v10a0 0 0 0 1 0 0h-22a0 0 0 0 1 0 0v-10a6 6 0 0 1 6-6z" fill="#f89c8d" />
                        <path d="m34 20h6a0 0 0 0 1 0 0v5a3 3 0 0 1 -3 3 3 3 0 0 1 -3-3v-5a0 0 0 0 1 0 0z" fill="#fcbc04" />
                        <path d="m43 34v-5a3 3 0 0 0 -3 3v1.95a10 10 0 0 1 -9-9.95v-.91a6 6 0 0 0 -5 5.91v10h22v-5z" fill="#f8664f" />
                        <path d="m39 26a2.986 2.986 0 0 1 -2.383-1.2 6.987 6.987 0 0 0 3.383-1.939v-2.861h-6v5a2.992 2.992 0 0 0 5.86.86 2.983 2.983 0 0 1 -.86.14z" fill="#e59730" />
                        <path d="m37 23a7 7 0 0 1 -7-7v-7a18.949 18.949 0 0 0 8.472 2h5.528v5a7 7 0 0 1 -7 7z" fill="#f9e109" />
                        <path d="m38.472 11a18.946 18.946 0 0 1 -8.472-2v7a6.99 6.99 0 0 0 10.659 5.96c-.218.02-.436.04-.659.04a7 7 0 0 1 -7-7v-2.809a18.968 18.968 0 0 0 5.472.809h5.528v-2z" fill="#fcbc04" />
                        <circle cx="34" cy="15" fill="#4891d3" r="1" />
                        <circle cx="40" cy="15" fill="#4891d3" r="1" />
                        <path d="m37 20a3.971 3.971 0 0 1 -2.828-1.172 1 1 0 0 1 1.414-1.414 2.047 2.047 0 0 0 2.828 0 1 1 0 0 1 1.414 1.414 3.971 3.971 0 0 1 -2.828 1.172z" fill="#f8664f" />
                    </g>
                    <path d="m30 39h-14l1-14h12z" fill="#f9e109" />
                    <circle cx="32" cy="46" fill="#f89c8d" r="3" />
                    <circle cx="42" cy="46" fill="#f9e109" r="3" />
                    <path d="m29.74 36a10 10 0 0 1 -9.975-10.712l.021-.288h-2.786l-1 14h14l-.214-3z" fill="#fcbc04" />
                    <path d="m24 47a2.96 2.96 0 0 1 -2.86-3.86 2.992 2.992 0 1 0 3.72 3.72 2.983 2.983 0 0 1 -.86.14z" fill="#e59730" />
                    <path d="m19.1 39a11.926 11.926 0 0 1 -1.1-5v-9h-1l-1 14z" fill="#e59730" />
                    <path d="m32 49a3 3 0 0 0 3-3h-5c-.336 0-.666-.023-1-.05v.05a3 3 0 0 0 3 3z" fill="#f8664f" />
                    <path d="m42 49a3 3 0 0 0 3-3h-6a3 3 0 0 0 3 3z" fill="#fcbc04" />
                    <path d="m44 47a2.96 2.96 0 0 1 -2.86-3.86 2.992 2.992 0 1 0 3.72 3.72 2.983 2.983 0 0 1 -.86.14z" fill="#fcbc04" />
                    <path d="m34 47a2.96 2.96 0 0 1 -2.86-3.86 2.992 2.992 0 1 0 3.72 3.72 2.983 2.983 0 0 1 -.86.14z" fill="#f8664f" />
                    <path d="m42 49a2.99 2.99 0 0 0 2.86-2.14 2.9 2.9 0 0 1 -3.081-.86h-2.779a3 3 0 0 0 3 3z" fill="#e59730" />
                    <path d="m32 49a2.99 2.99 0 0 0 2.86-2.14 2.9 2.9 0 0 1 -3.081-.86h-1.779c-.336 0-.667-.023-1-.05v.05a3 3 0 0 0 3 3z" fill="#cc5144" />
                    <path d="m26 28a1 1 0 0 1 -1-1v-3a2 2 0 0 0 -4 0v3a1 1 0 0 1 -2 0v-3a4 4 0 0 1 8 0v3a1 1 0 0 1 -1 1z" fill="#f8664f" />
                    <path d="m26 34h-6a1 1 0 0 1 0-2h6a1 1 0 0 1 0 2z" fill="#f8664f" />
                    <path d="m20 34h3.752a10.046 10.046 0 0 1 -2.009-2h-1.743a1 1 0 0 0 0 2z" fill="#cc5144" />
                </g>
            </g>
        </g>
    </g>
</svg>
