<svg width="328" height="269" viewBox="0 0 328 269" fill="none" xmlns="http://www.w3.org/2000/svg">
<path d="M120.218 125.681L155.368 164.596C156.903 166.276 159.359 166.78 161.413 165.821C165.193 163.402 169.636 160.861 174.72 158.487C180.049 155.968 185.055 154.098 189.503 152.706C189.888 152.527 191.122 151.888 191.886 150.442C192.407 149.482 192.618 148.326 192.435 147.197L184.283 95.7084C183.888 93.1217 181.611 91.2583 178.973 91.3689C171.01 91.6619 159.07 93.2824 146.112 99.4879C133.898 105.346 125.47 113.016 120.227 118.733C118.461 120.71 118.425 123.716 120.218 125.681Z" fill="#CB563E" stroke="white" stroke-width="2" stroke-miterlimit="10"/>
<path d="M154.383 163.624C151.688 166.158 148.777 169.167 145.85 172.744C144.261 174.7 142.839 176.61 141.545 178.46C139.338 181.638 135.008 182.477 131.761 180.412C123.577 175.142 115.38 169.909 107.196 164.638C104.746 163.074 103.486 160.175 104.036 157.334C105.317 150.633 109.308 138.215 121.837 127.54L154.383 163.624Z" fill="#CB563E" stroke="white" stroke-width="2" stroke-miterlimit="10"/>
<path d="M192.493 146.048C196.156 145.521 200.322 145.133 204.945 145.123C207.467 145.097 209.858 145.195 212.109 145.328C215.952 145.588 219.352 142.756 219.741 138.9C220.765 129.237 221.777 119.549 222.827 109.874C223.137 106.99 221.672 104.187 219.102 102.834C213.075 99.6383 200.897 94.9876 184.709 98.0932L192.493 146.048Z" fill="#CB563E" stroke="white" stroke-width="2" stroke-miterlimit="10"/>
<path d="M108.874 165.754L115.332 193.25C116.302 197.405 121.879 198.164 123.949 194.426L131.761 180.412L108.874 165.754Z" fill="#CB563E" stroke="white" stroke-width="2" stroke-miterlimit="10"/>
<path d="M223.005 112.47L239.977 135.089C242.539 138.5 239.54 143.263 235.345 142.45L219.548 139.427L223.005 112.47Z" fill="#CB563E" stroke="white" stroke-width="2" stroke-miterlimit="10"/>
</svg>
