<svg width="78" height="81" viewBox="0 0 78 81" fill="none" xmlns="http://www.w3.org/2000/svg">
<path d="M71.3142 35.8972C71.3142 24.0716 61.7203 14.4765 49.8961 14.4765C47.3472 14.4765 44.9399 14.9368 42.6742 15.7157C38.9216 9.66129 32.2306 5.625 24.5838 5.625C12.8659 5.625 3.34277 15.1492 3.34277 26.8687C3.34277 36.1451 9.29027 44.0406 17.5743 46.9085C16.1582 49.5994 15.3794 52.6443 15.3794 55.9016C15.3794 66.6651 24.0882 75.375 34.8504 75.375C45.2939 75.375 53.7903 67.1608 54.2859 56.8576C64.0214 54.8395 71.3142 46.2358 71.3142 35.8972Z" fill="white" stroke="#CB563E" stroke-width="2" stroke-miterlimit="10"/>
<path d="M45.1287 48.375C51.5904 48.375 56.8287 43.0864 56.8287 36.5625C56.8287 30.0386 51.5904 24.75 45.1287 24.75C38.667 24.75 33.4287 30.0386 33.4287 36.5625C33.4287 43.0864 38.667 48.375 45.1287 48.375Z" fill="#CB563E"/>
<path d="M36.7715 36C36.7715 36 37.8351 28.8409 44.5715 28.125" stroke="white" stroke-width="2" stroke-miterlimit="10" stroke-linecap="round" stroke-linejoin="round"/>
</svg>
