<svg width="144" height="144" viewBox="0 0 144 144" fill="none" xmlns="http://www.w3.org/2000/svg">
<path d="M137.653 62.1093C136.902 56.9566 135.56 51.9966 133.697 47.3004C133.188 47.5068 132.608 47.2645 132.397 46.7566C130.196 41.4456 127.314 36.4881 123.861 31.9928C123.526 31.5568 123.606 30.9327 124.038 30.5951C120.855 26.5777 117.215 22.9382 113.198 19.7545C112.86 20.1872 112.236 20.2672 111.8 19.9323C107.305 16.4785 102.347 13.597 97.0364 11.3959C96.5285 11.1855 96.2862 10.6048 96.4925 10.0963C91.7963 8.23306 86.8363 6.89058 81.6837 6.14001C81.6088 6.6837 81.109 7.06598 80.5639 6.99494C77.7716 6.63109 74.9234 6.44336 72.0306 6.44336C69.1378 6.44336 66.2895 6.63109 63.4973 6.99494C62.9521 7.06598 62.4524 6.6837 62.3774 6.14001C57.2248 6.89058 52.2648 8.23305 47.5686 10.0963C47.7749 10.6048 47.5326 11.1854 47.0247 11.3959C41.7137 13.597 36.7562 16.4785 32.2609 19.9323C31.825 20.2672 31.2009 20.1872 30.8633 19.7545C26.8459 22.9382 23.2064 26.5777 20.0227 30.5951C20.4554 30.9327 20.5354 31.5568 20.2004 31.9928C16.7467 36.488 13.8651 41.4455 11.6641 46.7566C11.4536 47.2644 10.873 47.5068 10.3644 47.3004C8.50122 51.9966 7.15873 56.9566 6.40817 62.1093C6.95186 62.1842 7.33415 62.684 7.2631 63.2291C6.89926 66.0214 6.71151 68.8696 6.71151 71.7624L6.71151 80.0523C6.71151 80.6046 6.26381 81.0523 5.71151 81.0523L5.71151 95.632C6.26381 95.632 6.71151 96.0798 6.71151 96.632L6.71151 113.212C6.71151 113.764 6.2638 114.212 5.71151 114.212L5.71151 128.792C6.2638 128.792 6.71151 129.239 6.71151 129.792L6.71151 137.081L14.0014 137.081C14.5537 137.081 15.0014 137.529 15.0014 138.081L29.5812 138.081C29.5812 137.529 30.0289 137.081 30.5812 137.081L47.1609 137.081C47.7132 137.081 48.1609 137.529 48.1609 138.081L62.7407 138.081C62.7407 137.529 63.1884 137.081 63.7407 137.081L72.0306 137.081C74.9231 137.081 77.7711 136.894 80.5631 136.529C81.1083 136.458 81.6081 136.841 81.6831 137.384C86.835 136.633 91.7944 135.29 96.4901 133.426C96.2837 132.917 96.5258 132.336 97.0337 132.126C102.344 129.924 107.3 127.041 111.795 123.587C112.231 123.252 112.855 123.332 113.193 123.765C117.21 120.581 120.849 116.941 124.032 112.925C123.6 112.587 123.52 111.963 123.855 111.527C127.309 107.032 130.191 102.075 132.393 96.7652C132.604 96.2574 133.184 96.0153 133.693 96.2217C135.557 91.5254 136.901 86.5659 137.652 81.4148C137.108 81.3398 136.726 80.84 136.797 80.2949C137.162 77.5026 137.35 74.6546 137.35 71.7624C137.35 68.8696 137.162 66.0214 136.798 63.2291C136.727 62.684 137.109 62.1842 137.653 62.1093Z" stroke="#5A8D8C" stroke-width="2" stroke-linecap="round" stroke-linejoin="round" stroke-dasharray="20 20"/>
</svg>
