<svg width="256" height="256" viewBox="0 0 256 256" fill="none" xmlns="http://www.w3.org/2000/svg">
<path d="M117.713 10.1515C112.137 10.6313 106.672 11.4974 101.345 12.723C101.471 13.2588 101.14 13.7959 100.604 13.924C94.5744 15.3654 88.7259 17.2722 83.0986 19.6043C82.5897 19.8152 82.0064 19.5748 81.7936 19.0672C76.6791 21.238 71.7493 23.7583 67.034 26.5982C67.3199 27.0684 67.1722 27.6818 66.7027 27.97C61.4531 31.1925 56.4768 34.8168 51.8167 38.8002C51.3979 39.1582 50.7688 39.1099 50.4095 38.693C46.2366 42.3212 42.3207 46.2371 38.6926 50.41C39.1094 50.7693 39.1577 51.3984 38.7998 51.8171C34.8164 56.4773 31.192 61.4536 27.9695 66.7032C27.6813 67.1726 27.0679 67.3204 26.5977 67.0344C23.7578 71.7497 21.2375 76.6796 19.0668 81.794C19.5743 82.0069 19.8147 82.5902 19.6038 83.0991C17.2717 88.7264 15.3649 94.5749 13.9235 100.605C13.7954 101.141 13.2583 101.472 12.7225 101.346C11.4969 106.673 10.6308 112.138 10.151 117.713C10.6996 117.758 11.1091 118.238 11.0665 118.787C10.8306 121.827 10.7104 124.9 10.7104 128.001C10.7104 131.102 10.8306 134.174 11.0665 137.214C11.1091 137.763 10.6996 138.243 10.151 138.288C10.6308 143.864 11.4969 149.328 12.7225 154.655C13.2583 154.53 13.7954 154.861 13.9235 155.396C15.3649 161.426 17.2717 167.275 19.6038 172.902C19.8147 173.411 19.5743 173.994 19.0668 174.207C21.2375 179.322 23.7578 184.251 26.5977 188.967C27.0679 188.681 27.6813 188.829 27.9695 189.298C31.192 194.548 34.8163 199.524 38.7998 204.184C39.1577 204.603 39.1094 205.232 38.6926 205.591C42.3207 209.764 46.2366 213.68 50.4095 217.308C50.7688 216.891 51.3979 216.843 51.8166 217.201C56.4768 221.184 61.4531 224.809 66.7027 228.031C67.1721 228.319 67.3199 228.933 67.0339 229.403C71.7493 232.243 76.6791 234.763 81.7935 236.934C82.0064 236.426 82.5897 236.186 83.0986 236.397C88.7259 238.729 94.5744 240.636 100.604 242.077C101.14 242.205 101.471 242.742 101.345 243.278C106.672 244.504 112.137 245.37 117.713 245.85C117.758 245.301 118.238 244.892 118.787 244.934C121.827 245.17 124.899 245.29 128 245.29H137.858C138.41 245.29 138.858 245.738 138.858 246.29H156.573C156.573 245.738 157.02 245.29 157.573 245.29H177.287C177.84 245.29 178.287 245.738 178.287 246.29H196.002C196.002 245.738 196.45 245.29 197.002 245.29H216.717C217.27 245.29 217.717 245.738 217.717 246.29H235.432C235.432 245.738 235.88 245.29 236.432 245.29H245.29V236.433C245.29 235.88 245.737 235.433 246.29 235.433V217.718C245.737 217.718 245.29 217.27 245.29 216.718V197.003C245.29 196.451 245.737 196.003 246.29 196.003V178.288C245.737 178.288 245.29 177.84 245.29 177.288V157.573C245.29 157.021 245.737 156.573 246.29 156.573V138.858C245.737 138.858 245.29 138.41 245.29 137.858V128.001C245.29 124.9 245.169 121.828 244.933 118.788C244.891 118.239 245.3 117.759 245.849 117.714C245.369 112.139 244.502 106.675 243.275 101.348C242.74 101.474 242.202 101.143 242.074 100.607C240.632 94.5781 238.724 88.7303 236.391 83.1037C236.18 82.5949 236.42 82.0115 236.928 81.7986C234.756 76.6851 232.235 71.7562 229.394 67.0416C228.924 67.3277 228.311 67.18 228.022 66.7106C224.799 61.462 221.174 56.4865 217.191 51.827C216.833 51.4083 216.881 50.7792 217.298 50.4198C213.669 46.2475 209.754 42.332 205.581 38.7041C205.222 39.121 204.593 39.1692 204.174 38.8113C199.514 34.8278 194.538 31.2032 189.29 27.9802C188.82 27.692 188.673 27.0786 188.959 26.6084C184.244 23.7677 179.315 21.2466 174.202 19.075C173.989 19.5825 173.405 19.8227 172.897 19.6117C167.269 17.2781 161.422 15.3701 155.393 13.9275C154.858 13.7993 154.527 13.2622 154.653 12.7264C149.326 11.4996 143.861 10.6325 138.287 10.1522C138.242 10.7007 137.762 11.1102 137.213 11.0675C134.173 10.8313 131.101 10.7109 128 10.7109C124.899 10.7109 121.827 10.8311 118.787 11.067C118.238 11.1096 117.758 10.7001 117.713 10.1515Z" stroke="#5A8D8C" stroke-width="2" stroke-linecap="round" stroke-linejoin="round" stroke-dasharray="20 20"/>
</svg>
