<svg width="802" height="864" viewBox="0 0 802 864" fill="none" xmlns="http://www.w3.org/2000/svg">
<g clip-path="url(#clip0)">
<path d="M346.773 697.557C346.773 697.557 407.274 674.035 423.739 616.147C423.739 616.147 533.698 249.031 353.34 331.205C221.081 391.484 190.439 580.9 190.439 580.9" fill="#FDE8D5"/>
<path d="M580.767 617.022L382.959 615.874C365.935 615.774 352.041 601.77 352.061 584.725L354.312 141.564C354.402 124.549 368.406 110.672 385.46 110.703L583.267 111.851C600.292 111.951 614.185 125.955 614.166 143L611.984 586.191C611.895 603.206 597.891 617.083 580.767 617.022Z" fill="#426262"/>
<path d="M373.288 608.205C363.803 604.156 357.744 594.979 357.806 584.79L359.987 141.598C360.055 134.872 362.692 128.501 367.532 123.729C372.372 118.958 378.769 116.333 385.43 116.376L410.918 116.546C411.153 126.038 416.903 134.588 425.76 138.369C428.759 139.649 431.857 140.313 435.152 140.319L533.359 140.884C539.85 140.936 545.949 138.432 550.56 133.81C555.013 129.367 557.551 123.613 557.75 117.354L583.237 117.524C586.602 117.56 589.869 118.213 592.938 119.523C602.423 123.572 608.482 132.749 608.421 142.938L606.239 586.129C606.172 592.856 603.534 599.227 598.694 603.998C593.854 608.77 587.457 611.394 580.796 611.352L382.989 610.203C379.594 610.237 376.357 609.514 373.288 608.205Z" fill="white"/>
<path d="M590.707 124.749C598.03 127.875 602.742 134.994 602.745 142.904L600.564 586.095C600.573 591.289 598.462 596.237 594.744 599.923C591.027 603.608 586.023 605.674 580.856 605.61L383.019 604.531C380.4 604.484 377.891 603.99 375.519 602.978C368.196 599.852 363.484 592.733 363.481 584.822L365.662 141.631C365.752 130.795 374.598 122.049 385.37 122.116L405.86 122.212C407.857 131.633 414.323 139.665 423.529 143.595C427.226 145.173 431.08 145.994 435.122 145.99L533.329 146.555C547.706 146.678 559.764 136.585 562.787 123.129L583.207 123.195C585.826 123.242 588.335 123.737 590.707 124.749ZM595.169 114.296C591.472 112.718 587.478 111.837 583.197 111.822L552.035 111.619L552.034 116.643C551.942 126.902 543.544 135.18 533.319 135.182L435.112 134.617C432.563 134.6 430.153 134.065 427.921 133.113C421.226 130.255 416.505 123.544 416.551 115.902L416.622 110.907L385.46 110.703C368.435 110.603 354.361 124.45 354.312 141.564L352.131 584.755C352.093 597.591 359.898 608.667 371.057 613.43C374.754 615.008 378.748 615.889 383.029 615.904L580.866 616.983C597.891 617.083 611.964 603.236 612.014 586.122L614.165 143C614.202 130.165 606.328 119.059 595.169 114.296Z" fill="#426262"/>
<path d="M411.047 225.808C425.144 231.826 441.447 225.285 447.46 211.199C453.473 197.114 446.918 180.816 432.821 174.799C418.723 168.781 402.42 175.321 396.407 189.407C390.395 203.493 396.949 219.79 411.047 225.808Z" fill="#426262"/>
<path d="M564.863 467.301L401.992 466.401C396.964 466.397 392.875 462.262 392.946 457.267L393.746 294.492C393.748 289.467 397.882 285.383 402.88 285.457L565.751 286.357C570.779 286.361 574.868 290.495 574.797 295.49L573.997 458.266C574.026 463.221 569.891 467.305 564.863 467.301Z" fill="#CB563E"/>
<path d="M573.212 605.999L482.687 605.5L392.161 605.5L392.556 536.023C392.557 530.998 396.692 526.914 401.69 526.988L564.561 527.888C569.589 527.892 573.678 532.027 573.607 537.022L573.212 605.999Z" fill="#CB563E"/>
<path d="M392.785 479.277L433.157 479.54" stroke="#426262" stroke-width="4" stroke-miterlimit="10" stroke-linecap="round" stroke-linejoin="round"/>
<path d="M392.78 487.596L535.64 488.439" stroke="#426262" stroke-width="2" stroke-miterlimit="10" stroke-linecap="round" stroke-linejoin="round"/>
<path d="M392.745 495.984L557.01 496.902" stroke="#426262" stroke-width="2" stroke-miterlimit="10" stroke-linecap="round" stroke-linejoin="round"/>
<path d="M396.933 239.298L437.235 239.531" stroke="#426262" stroke-width="4" stroke-miterlimit="10" stroke-linecap="round" stroke-linejoin="round"/>
<path d="M448.5 156.353L510.5 156.353" stroke="#CB563E" stroke-width="4" stroke-miterlimit="10" stroke-linecap="round" stroke-linejoin="round"/>
<path d="M396.928 248.618L539.718 249.431" stroke="#426262" stroke-width="2" stroke-miterlimit="10" stroke-linecap="round" stroke-linejoin="round"/>
<path d="M392.67 504.272L565.906 505.229" stroke="#426262" stroke-width="2" stroke-miterlimit="10" stroke-linecap="round" stroke-linejoin="round"/>
<path d="M392.664 512.592L556.929 513.51" stroke="#426262" stroke-width="2" stroke-miterlimit="10" stroke-linecap="round" stroke-linejoin="round"/>
<path d="M465.815 330.726L460.54 378.66C460.322 380.742 461.476 382.738 463.39 383.564C467.363 384.685 471.823 386.186 476.561 388.23C481.548 390.354 485.892 392.653 489.565 394.86C489.924 395.015 491.117 395.473 492.578 395.114C493.556 394.887 494.479 394.325 495.144 393.509L525.554 356.451C527.091 354.599 526.981 351.895 525.293 350.15C520.227 344.856 511.819 337.638 499.637 332.522C488.149 327.706 477.728 326.599 470.595 326.488C468.157 326.481 466.07 328.293 465.815 330.726Z" fill="white" stroke="#CB563E" stroke-width="5" stroke-miterlimit="10"/>
<path d="M460.606 377.388C457.218 377.084 453.371 376.921 449.124 377.095C446.809 377.198 444.627 377.386 442.565 377.627C439.033 378.052 435.811 375.588 435.246 372.095C433.869 363.25 432.458 354.418 431.081 345.573C430.66 342.933 431.883 340.296 434.172 338.939C439.56 335.726 450.534 330.883 465.526 332.973L460.606 377.388Z" fill="white" stroke="#CB563E" stroke-width="5" stroke-miterlimit="10"/>
<path d="M495.968 392.846C498.568 395.042 501.38 397.668 504.212 400.84C505.769 402.558 507.163 404.261 508.447 405.889C510.616 408.69 514.64 409.296 517.528 407.208C524.795 402.009 532.073 396.786 539.364 391.597C541.537 390.048 542.568 387.329 541.928 384.735C540.443 378.641 536.199 367.429 524.175 358.199L495.968 392.846Z" fill="white" stroke="#CB563E" stroke-width="5" stroke-miterlimit="10"/>
<path d="M431.34 347.409L416.385 368.646C414.122 371.851 417.007 376.148 420.841 375.288L435.246 372.095L431.34 347.409Z" fill="white" stroke="#CB563E" stroke-width="5" stroke-miterlimit="10"/>
<path d="M537.691 393.305L532.511 418.789C531.731 422.634 526.626 423.482 524.621 420.103L517.049 407.397L537.691 393.305Z" fill="white" stroke="#CB563E" stroke-width="5" stroke-miterlimit="10"/>
<path d="M264.226 486.268C264.226 486.268 318.818 357.412 498.101 355.019C498.101 355.019 541.847 371.716 435.267 439.249C328.687 506.782 334.186 571.163 334.186 571.163L264.226 486.268Z" fill="#FDE8D5"/>
<path d="M498.329 355.749C490.054 363.82 467.891 376.02 445.435 360.251" stroke="#CB563E" stroke-width="2" stroke-linecap="round"/>
<path d="M72 716.498C103.6 646.098 164.167 598.165 190.5 582.998C273.3 602.998 329.667 668.331 347.5 698.498L341.5 716.498L72 716.498Z" fill="#71C0A0" stroke="#5A8D8C" stroke-width="2"/>
<path d="M484 196.998L499 196.998" stroke="#CB563E" stroke-width="4" stroke-linecap="round"/>
<path d="M523 197L538 197" stroke="#CB563E" stroke-width="4" stroke-linecap="round"/>
<path d="M561 197L576 197" stroke="#CB563E" stroke-width="4" stroke-linecap="round"/>
<circle cx="191" cy="607.998" r="11" fill="#5A8D8C"/>
<circle cx="238" cy="706" r="11" fill="#5A8D8C"/>
<circle cx="308" cy="695.998" r="11" fill="#5A8D8C"/>
<ellipse cx="202.5" cy="660.998" rx="10.5" ry="11" fill="#5A8D8C"/>
<circle cx="270" cy="646" r="11" fill="#5A8D8C"/>
<circle cx="141" cy="681.998" r="11" fill="#5A8D8C"/>
<rect x="394" y="259" width="182" height="18" rx="9" fill="#5A8D8C"/>
<path d="M352.741 391.958C337.526 400.188 302.53 424.228 284.259 454.54" stroke="#CB563E" stroke-width="2" stroke-linecap="round"/>
<g clip-path="url(#clip1)">
<mask id="mask0" mask-type="alpha" maskUnits="userSpaceOnUse" x="392" y="526" width="182" height="80">
<path d="M573.47 605.911L482.944 605.412L392.418 605.412L392.813 535.935C392.814 530.911 396.949 526.826 401.947 526.9L564.818 527.8C569.846 527.804 573.935 531.939 573.864 536.934L573.47 605.911Z" fill="#CB563E"/>
</mask>
<g mask="url(#mask0)">
<path d="M550.629 616.237C550.629 592.439 531.441 573.131 507.793 573.131C502.695 573.131 497.88 574.057 493.349 575.624C485.844 563.441 472.462 555.318 457.168 555.318C433.732 555.318 414.686 574.484 414.686 598.068C414.686 616.735 426.581 632.624 443.149 638.395C440.317 643.81 438.759 649.937 438.759 656.492C438.759 678.152 456.177 695.679 477.701 695.679C498.588 695.679 515.581 679.15 516.572 658.416C536.043 654.355 550.629 637.041 550.629 616.237Z" fill="white" stroke="#CB563E" stroke-width="2" stroke-miterlimit="10"/>
<path d="M498.257 641.344C511.181 641.344 521.657 630.702 521.657 617.574C521.657 604.445 511.181 593.803 498.257 593.803C485.334 593.803 474.857 604.445 474.857 617.574C474.857 630.702 485.334 641.344 498.257 641.344Z" fill="#CB563E"/>
<path d="M481.543 616.443C481.543 616.443 483.671 602.036 497.143 600.596" stroke="white" stroke-width="2" stroke-miterlimit="10" stroke-linecap="round" stroke-linejoin="round"/>
</g>
</g>
</g>
<defs>
<clipPath id="clip0">
<rect x="349.444" y="0.867188" width="492" height="888" transform="rotate(23.1159 349.444 0.867188)" fill="white"/>
</clipPath>
<clipPath id="clip1">
<rect x="408" y="543.998" width="156" height="163" fill="white"/>
</clipPath>
</defs>
</svg>
