<svg id="Calque_1" data-name="Calque 1" xmlns="http://www.w3.org/2000/svg" viewBox="0 0 1440 1024"><title>fond_fin</title><path d="M-.25,703.82v174C556.47,889.39,1099,894.93,1440,892.56V685.43C1240.49,711.74,549.65,713.73-.25,703.82Z" style="fill:#e5eecf"/><path d="M321.81,692.2s-5-.6-6.65,9.64c-1.52,9.25,3,10.89,6.65,10.89Z" style="fill:#9db583"/><path d="M321.81,692.2s5-.6,6.64,9.64c1.52,9.25-3.05,10.89-6.64,10.89Z" style="fill:#b6c8a3"/><rect x="321.09" y="712.73" width="1.46" height="8.89" style="fill:#677e8f"/><path d="M337.11,686.36s-5-.6-6.65,9.63c-1.52,9.25,3.05,10.9,6.65,10.9Z" style="fill:#9db583"/><path d="M337.11,686.36s5-.6,6.65,9.63c1.51,9.25-3.06,10.9-6.65,10.9Z" style="fill:#b6c8a3"/><rect x="336.39" y="706.89" width="1.46" height="8.89" style="fill:#677e8f"/><path d="M127.27,712.71s-5-.6-6.64,9.64c-1.52,9.25,3.05,10.89,6.64,10.89Z" style="fill:#9db583"/><path d="M127.27,712.71s5-.6,6.65,9.64c1.52,9.25-3,10.89-6.65,10.89Z" style="fill:#b6c8a3"/><rect x="126.55" y="733.24" width="1.46" height="8.89" style="fill:#677e8f"/><path d="M70.61,709.89s-5-.6-6.65,9.64c-1.52,9.25,3.05,10.89,6.65,10.89Z" style="fill:#9db583"/><path d="M70.61,709.89s5-.6,6.64,9.64c1.52,9.25-3,10.89-6.64,10.89Z" style="fill:#b6c8a3"/><rect x="69.89" y="730.42" width="1.46" height="8.89" style="fill:#677e8f"/><path d="M110.5,695.62s-5-.6-6.64,9.63c-1.52,9.25,3,10.9,6.64,10.9Z" style="fill:#9db583"/><path d="M110.5,695.62s5-.6,6.65,9.63c1.52,9.25-3.05,10.9-6.65,10.9Z" style="fill:#b6c8a3"/><rect x="109.79" y="716.15" width="1.46" height="8.89" style="fill:#677e8f"/><rect x="140.12" y="586.05" width="54.17" height="157.94" style="fill:#90c2e1"/><rect id="fenetre" x="145.64" y="593.82" width="7.56" height="13.53" style="fill:#cbe2f1"/><rect id="fenetre-2" x="157.27" y="593.82" width="7.56" height="13.53" style="fill:#cbe2f1"/><rect id="fenetre-3" x="168.91" y="593.82" width="7.56" height="13.53" style="fill:#cbe2f1"/><rect id="fenetre-4" x="180.55" y="593.82" width="7.56" height="13.53" style="fill:#cbe2f1"/><rect id="fenetre-5" x="145.64" y="612" width="7.56" height="13.53" style="fill:#cbe2f1"/><rect id="fenetre-6" x="157.27" y="612" width="7.56" height="13.53" style="fill:#cbe2f1"/><rect id="fenetre-7" x="168.91" y="612" width="7.56" height="13.53" style="fill:#cbe2f1"/><rect id="fenetre-8" x="180.55" y="612" width="7.56" height="13.53" style="fill:#cbe2f1"/><rect id="fenetre-9" x="145.64" y="630.18" width="7.56" height="13.53" style="fill:#cbe2f1"/><rect id="fenetre-10" x="157.27" y="630.18" width="7.56" height="13.53" style="fill:#cbe2f1"/><rect id="fenetre-11" x="168.91" y="630.18" width="7.56" height="13.53" style="fill:#cbe2f1"/><rect id="fenetre-12" x="180.55" y="630.18" width="7.56" height="13.53" style="fill:#cbe2f1"/><rect id="fenetre-13" x="145.64" y="648.36" width="7.56" height="13.53" style="fill:#cbe2f1"/><rect id="fenetre-14" x="157.27" y="648.36" width="7.56" height="13.53" style="fill:#cbe2f1"/><rect id="fenetre-15" x="168.91" y="648.36" width="7.56" height="13.53" style="fill:#cbe2f1"/><rect id="fenetre-16" x="180.55" y="648.36" width="7.56" height="13.53" style="fill:#cbe2f1"/><rect id="fenetre-17" x="145.64" y="666.53" width="7.56" height="13.53" style="fill:#cbe2f1"/><rect id="fenetre-18" x="157.27" y="666.53" width="7.56" height="13.53" style="fill:#cbe2f1"/><rect id="fenetre-19" x="168.91" y="666.53" width="7.56" height="13.53" style="fill:#cbe2f1"/><rect id="fenetre-20" x="180.55" y="666.53" width="7.56" height="13.53" style="fill:#cbe2f1"/><rect id="fenetre-21" x="145.64" y="684.71" width="7.56" height="13.53" style="fill:#cbe2f1"/><rect id="fenetre-22" x="157.27" y="684.71" width="7.56" height="13.53" style="fill:#cbe2f1"/><rect id="fenetre-23" x="168.91" y="684.71" width="7.56" height="13.53" style="fill:#cbe2f1"/><rect id="fenetre-24" x="180.55" y="684.71" width="7.56" height="13.53" style="fill:#cbe2f1"/><rect id="fenetre-25" x="145.64" y="702.89" width="7.56" height="13.53" style="fill:#cbe2f1"/><rect id="fenetre-26" x="157.27" y="702.89" width="7.56" height="13.53" style="fill:#cbe2f1"/><rect id="fenetre-27" x="168.91" y="702.89" width="7.56" height="13.53" style="fill:#cbe2f1"/><rect id="fenetre-28" x="180.55" y="702.89" width="7.56" height="13.53" style="fill:#cbe2f1"/><rect id="fenetre-29" x="145.64" y="721.07" width="7.56" height="13.53" style="fill:#cbe2f1"/><rect id="fenetre-30" x="157.27" y="721.07" width="7.56" height="13.53" style="fill:#cbe2f1"/><rect id="fenetre-31" x="168.91" y="721.07" width="7.56" height="13.53" style="fill:#cbe2f1"/><rect id="fenetre-32" x="180.55" y="721.07" width="7.56" height="13.53" style="fill:#cbe2f1"/><rect x="253.93" y="584.54" width="54.17" height="157.94" style="fill:#90c2e1"/><rect id="fenetre-33" x="259.44" y="592.31" width="7.56" height="13.53" style="fill:#cbe2f1"/><rect id="fenetre-34" x="271.08" y="592.31" width="7.56" height="13.53" style="fill:#cbe2f1"/><rect id="fenetre-35" x="282.72" y="592.31" width="7.56" height="13.53" style="fill:#cbe2f1"/><rect id="fenetre-36" x="294.35" y="592.31" width="7.56" height="13.53" style="fill:#cbe2f1"/><rect id="fenetre-37" x="259.44" y="610.49" width="7.56" height="13.53" style="fill:#cbe2f1"/><rect id="fenetre-38" x="271.08" y="610.49" width="7.56" height="13.53" style="fill:#cbe2f1"/><rect id="fenetre-39" x="282.72" y="610.49" width="7.56" height="13.53" style="fill:#cbe2f1"/><rect id="fenetre-40" x="294.35" y="610.49" width="7.56" height="13.53" style="fill:#cbe2f1"/><rect id="fenetre-41" x="259.44" y="628.67" width="7.56" height="13.53" style="fill:#cbe2f1"/><rect id="fenetre-42" x="271.08" y="628.67" width="7.56" height="13.53" style="fill:#cbe2f1"/><rect id="fenetre-43" x="282.72" y="628.67" width="7.56" height="13.53" style="fill:#cbe2f1"/><rect id="fenetre-44" x="294.35" y="628.67" width="7.56" height="13.53" style="fill:#cbe2f1"/><rect id="fenetre-45" x="259.44" y="646.84" width="7.56" height="13.53" style="fill:#cbe2f1"/><rect id="fenetre-46" x="271.08" y="646.84" width="7.56" height="13.53" style="fill:#cbe2f1"/><rect id="fenetre-47" x="282.72" y="646.84" width="7.56" height="13.53" style="fill:#cbe2f1"/><rect id="fenetre-48" x="294.35" y="646.84" width="7.56" height="13.53" style="fill:#cbe2f1"/><rect id="fenetre-49" x="259.44" y="665.02" width="7.56" height="13.53" style="fill:#cbe2f1"/><rect id="fenetre-50" x="271.08" y="665.02" width="7.56" height="13.53" style="fill:#cbe2f1"/><rect id="fenetre-51" x="282.72" y="665.02" width="7.56" height="13.53" style="fill:#cbe2f1"/><rect id="fenetre-52" x="294.35" y="665.02" width="7.56" height="13.53" style="fill:#cbe2f1"/><rect id="fenetre-53" x="259.44" y="683.2" width="7.56" height="13.53" style="fill:#cbe2f1"/><rect id="fenetre-54" x="271.08" y="683.2" width="7.56" height="13.53" style="fill:#cbe2f1"/><rect id="fenetre-55" x="282.72" y="683.2" width="7.56" height="13.53" style="fill:#cbe2f1"/><rect id="fenetre-56" x="294.35" y="683.2" width="7.56" height="13.53" style="fill:#cbe2f1"/><rect id="fenetre-57" x="259.44" y="701.38" width="7.56" height="13.53" style="fill:#cbe2f1"/><rect id="fenetre-58" x="271.08" y="701.38" width="7.56" height="13.53" style="fill:#cbe2f1"/><rect id="fenetre-59" x="282.72" y="701.38" width="7.56" height="13.53" style="fill:#cbe2f1"/><rect id="fenetre-60" x="294.35" y="701.38" width="7.56" height="13.53" style="fill:#cbe2f1"/><rect id="fenetre-61" x="259.44" y="719.55" width="7.56" height="13.53" style="fill:#cbe2f1"/><rect id="fenetre-62" x="271.08" y="719.55" width="7.56" height="13.53" style="fill:#cbe2f1"/><rect id="fenetre-63" x="282.72" y="719.55" width="7.56" height="13.53" style="fill:#cbe2f1"/><rect id="fenetre-64" x="294.35" y="719.55" width="7.56" height="13.53" style="fill:#cbe2f1"/><rect x="182.74" y="511.47" width="87.21" height="239.71" style="fill:#b2d5eb"/><rect id="fenetre-65" x="191.62" y="523.27" width="12.18" height="20.54" style="fill:#cbe2f1"/><rect id="fenetre-66" x="210.36" y="523.27" width="12.18" height="20.54" style="fill:#cbe2f1"/><rect id="fenetre-67" x="229.1" y="523.27" width="12.18" height="20.54" style="fill:#cbe2f1"/><rect id="fenetre-68" x="247.84" y="523.27" width="12.18" height="20.54" style="fill:#cbe2f1"/><rect id="fenetre-69" x="191.62" y="550.86" width="12.18" height="20.54" style="fill:#cbe2f1"/><rect id="fenetre-70" x="210.36" y="550.86" width="12.18" height="20.54" style="fill:#cbe2f1"/><rect id="fenetre-71" x="229.1" y="550.86" width="12.18" height="20.54" style="fill:#cbe2f1"/><rect id="fenetre-72" x="247.84" y="550.86" width="12.18" height="20.54" style="fill:#cbe2f1"/><rect id="fenetre-73" x="191.62" y="578.45" width="12.18" height="20.54" style="fill:#cbe2f1"/><rect id="fenetre-74" x="210.36" y="578.45" width="12.18" height="20.54" style="fill:#cbe2f1"/><rect id="fenetre-75" x="229.1" y="578.45" width="12.18" height="20.54" style="fill:#cbe2f1"/><rect id="fenetre-76" x="247.84" y="578.45" width="12.18" height="20.54" style="fill:#cbe2f1"/><rect id="fenetre-77" x="191.62" y="606.03" width="12.18" height="20.54" style="fill:#cbe2f1"/><rect id="fenetre-78" x="210.36" y="606.03" width="12.18" height="20.54" style="fill:#cbe2f1"/><rect id="fenetre-79" x="229.1" y="606.03" width="12.18" height="20.54" style="fill:#cbe2f1"/><rect id="fenetre-80" x="247.84" y="606.03" width="12.18" height="20.54" style="fill:#cbe2f1"/><rect id="fenetre-81" x="191.62" y="633.62" width="12.18" height="20.54" style="fill:#cbe2f1"/><rect id="fenetre-82" x="210.36" y="633.62" width="12.18" height="20.54" style="fill:#cbe2f1"/><rect id="fenetre-83" x="229.1" y="633.62" width="12.18" height="20.54" style="fill:#cbe2f1"/><rect id="fenetre-84" x="247.84" y="633.62" width="12.18" height="20.54" style="fill:#cbe2f1"/><rect id="fenetre-85" x="191.62" y="661.21" width="12.18" height="20.54" style="fill:#cbe2f1"/><rect id="fenetre-86" x="210.36" y="661.21" width="12.18" height="20.54" style="fill:#cbe2f1"/><rect id="fenetre-87" x="229.1" y="661.21" width="12.18" height="20.54" style="fill:#cbe2f1"/><rect id="fenetre-88" x="247.84" y="661.21" width="12.18" height="20.54" style="fill:#cbe2f1"/><rect id="fenetre-89" x="191.62" y="688.8" width="12.18" height="20.54" style="fill:#cbe2f1"/><rect id="fenetre-90" x="210.36" y="688.8" width="12.18" height="20.54" style="fill:#cbe2f1"/><rect id="fenetre-91" x="229.1" y="688.8" width="12.18" height="20.54" style="fill:#cbe2f1"/><rect id="fenetre-92" x="247.84" y="688.8" width="12.18" height="20.54" style="fill:#cbe2f1"/><rect id="fenetre-93" x="191.62" y="716.38" width="12.18" height="20.54" style="fill:#cbe2f1"/><rect id="fenetre-94" x="210.36" y="716.38" width="12.18" height="20.54" style="fill:#cbe2f1"/><rect id="fenetre-95" x="229.1" y="716.38" width="12.18" height="20.54" style="fill:#cbe2f1"/><rect id="fenetre-96" x="247.84" y="716.38" width="12.18" height="20.54" style="fill:#cbe2f1"/><rect x="88.64" y="698.69" width="1.69" height="11.94" style="fill:#677e8f"/><polygon points="89.49 668.76 89.49 698.7 79.79 698.7 89.49 668.76" style="fill:#9db583"/><polyline points="99.18 698.6 89.49 668.67 89.49 698.6" style="fill:#b6c8a3"/><rect x="1245.01" y="484.53" width="70.58" height="249.43" style="fill:#90c2e1"/><rect id="fenetre-97" x="1256.02" y="503.99" width="11.85" height="218.59" style="fill:#cbe2f1"/><rect id="fenetre-98" x="1274.25" y="503.99" width="11.85" height="218.59" style="fill:#cbe2f1"/><rect id="fenetre-99" x="1292.47" y="503.99" width="11.85" height="218.59" style="fill:#cbe2f1"/><rect x="1220.69" y="638.45" width="46.01" height="119.45" style="fill:#90c2e1"/><rect id="fenetre-100" x="1227.87" y="647.77" width="7.72" height="104.68" style="fill:#cbe2f1"/><rect id="fenetre-101" x="1239.75" y="647.77" width="7.72" height="104.68" style="fill:#cbe2f1"/><rect id="fenetre-102" x="1251.63" y="647.77" width="7.72" height="104.68" style="fill:#cbe2f1"/><rect x="1128.94" y="640.74" width="49.28" height="121.76" style="fill:#b2d5eb"/><rect id="fenetre-103" x="1133.95" y="646.73" width="6.88" height="10.43" style="fill:#cbe2f1"/><rect id="fenetre-104" x="1144.54" y="646.73" width="6.88" height="10.43" style="fill:#cbe2f1"/><rect id="fenetre-105" x="1155.13" y="646.73" width="6.88" height="10.43" style="fill:#cbe2f1"/><rect id="fenetre-106" x="1165.71" y="646.73" width="6.88" height="10.43" style="fill:#cbe2f1"/><rect id="fenetre-107" x="1133.95" y="660.75" width="6.88" height="10.43" style="fill:#cbe2f1"/><rect id="fenetre-108" x="1144.54" y="660.75" width="6.88" height="10.43" style="fill:#cbe2f1"/><rect id="fenetre-109" x="1155.13" y="660.75" width="6.88" height="10.43" style="fill:#cbe2f1"/><rect id="fenetre-110" x="1165.71" y="660.75" width="6.88" height="10.43" style="fill:#cbe2f1"/><rect id="fenetre-111" x="1133.95" y="674.76" width="6.88" height="10.43" style="fill:#cbe2f1"/><rect id="fenetre-112" x="1144.54" y="674.76" width="6.88" height="10.43" style="fill:#cbe2f1"/><rect id="fenetre-113" x="1155.13" y="674.76" width="6.88" height="10.43" style="fill:#cbe2f1"/><rect id="fenetre-114" x="1165.71" y="674.76" width="6.88" height="10.43" style="fill:#cbe2f1"/><rect id="fenetre-115" x="1133.95" y="688.77" width="6.88" height="10.43" style="fill:#cbe2f1"/><rect id="fenetre-116" x="1144.54" y="688.77" width="6.88" height="10.43" style="fill:#cbe2f1"/><rect id="fenetre-117" x="1155.13" y="688.77" width="6.88" height="10.43" style="fill:#cbe2f1"/><rect id="fenetre-118" x="1165.71" y="688.77" width="6.88" height="10.43" style="fill:#cbe2f1"/><rect id="fenetre-119" x="1133.95" y="702.78" width="6.88" height="10.43" style="fill:#cbe2f1"/><rect id="fenetre-120" x="1144.54" y="702.78" width="6.88" height="10.43" style="fill:#cbe2f1"/><rect id="fenetre-121" x="1155.13" y="702.78" width="6.88" height="10.43" style="fill:#cbe2f1"/><rect id="fenetre-122" x="1165.71" y="702.78" width="6.88" height="10.43" style="fill:#cbe2f1"/><rect id="fenetre-123" x="1133.95" y="716.8" width="6.88" height="10.43" style="fill:#cbe2f1"/><rect id="fenetre-124" x="1144.54" y="716.8" width="6.88" height="10.43" style="fill:#cbe2f1"/><rect id="fenetre-125" x="1155.13" y="716.8" width="6.88" height="10.43" style="fill:#cbe2f1"/><rect id="fenetre-126" x="1165.71" y="716.8" width="6.88" height="10.43" style="fill:#cbe2f1"/><rect id="fenetre-127" x="1133.95" y="730.81" width="6.88" height="10.43" style="fill:#cbe2f1"/><rect id="fenetre-128" x="1144.54" y="730.81" width="6.88" height="10.43" style="fill:#cbe2f1"/><rect id="fenetre-129" x="1155.13" y="730.81" width="6.88" height="10.43" style="fill:#cbe2f1"/><rect id="fenetre-130" x="1165.71" y="730.81" width="6.88" height="10.43" style="fill:#cbe2f1"/><rect id="fenetre-131" x="1133.95" y="744.82" width="6.88" height="10.43" style="fill:#cbe2f1"/><rect id="fenetre-132" x="1144.54" y="744.82" width="6.88" height="10.43" style="fill:#cbe2f1"/><rect id="fenetre-133" x="1155.13" y="744.82" width="6.88" height="10.43" style="fill:#cbe2f1"/><rect id="fenetre-134" x="1165.71" y="744.82" width="6.88" height="10.43" style="fill:#cbe2f1"/><rect x="1167.84" y="594.31" width="60.25" height="175.68" style="fill:#90c2e1"/><rect id="fenetre-135" x="1173.98" y="602.95" width="8.41" height="15.05" style="fill:#cbe2f1"/><rect id="fenetre-136" x="1186.92" y="602.95" width="8.41" height="15.05" style="fill:#cbe2f1"/><rect id="fenetre-137" x="1199.87" y="602.95" width="8.41" height="15.05" style="fill:#cbe2f1"/><rect id="fenetre-138" x="1212.81" y="602.95" width="8.41" height="15.05" style="fill:#cbe2f1"/><rect id="fenetre-139" x="1173.98" y="623.17" width="8.41" height="15.05" style="fill:#cbe2f1"/><rect id="fenetre-140" x="1186.92" y="623.17" width="8.41" height="15.05" style="fill:#cbe2f1"/><rect id="fenetre-141" x="1199.87" y="623.17" width="8.41" height="15.05" style="fill:#cbe2f1"/><rect id="fenetre-142" x="1212.81" y="623.17" width="8.41" height="15.05" style="fill:#cbe2f1"/><rect id="fenetre-143" x="1173.98" y="643.39" width="8.41" height="15.05" style="fill:#cbe2f1"/><rect id="fenetre-144" x="1186.92" y="643.39" width="8.41" height="15.05" style="fill:#cbe2f1"/><rect id="fenetre-145" x="1199.87" y="643.39" width="8.41" height="15.05" style="fill:#cbe2f1"/><rect id="fenetre-146" x="1212.81" y="643.39" width="8.41" height="15.05" style="fill:#cbe2f1"/><rect id="fenetre-147" x="1173.98" y="663.61" width="8.41" height="15.05" style="fill:#cbe2f1"/><rect id="fenetre-148" x="1186.92" y="663.61" width="8.41" height="15.05" style="fill:#cbe2f1"/><rect id="fenetre-149" x="1199.87" y="663.61" width="8.41" height="15.05" style="fill:#cbe2f1"/><rect id="fenetre-150" x="1212.81" y="663.61" width="8.41" height="15.05" style="fill:#cbe2f1"/><rect id="fenetre-151" x="1173.98" y="683.83" width="8.41" height="15.05" style="fill:#cbe2f1"/><rect id="fenetre-152" x="1186.92" y="683.83" width="8.41" height="15.05" style="fill:#cbe2f1"/><rect id="fenetre-153" x="1199.87" y="683.83" width="8.41" height="15.05" style="fill:#cbe2f1"/><rect id="fenetre-154" x="1212.81" y="683.83" width="8.41" height="15.05" style="fill:#cbe2f1"/><rect id="fenetre-155" x="1173.98" y="704.05" width="8.41" height="15.05" style="fill:#cbe2f1"/><rect id="fenetre-156" x="1186.92" y="704.05" width="8.41" height="15.05" style="fill:#cbe2f1"/><rect id="fenetre-157" x="1199.87" y="704.05" width="8.41" height="15.05" style="fill:#cbe2f1"/><rect id="fenetre-158" x="1212.81" y="704.05" width="8.41" height="15.05" style="fill:#cbe2f1"/><rect id="fenetre-159" x="1173.98" y="724.27" width="8.41" height="15.05" style="fill:#cbe2f1"/><rect id="fenetre-160" x="1186.92" y="724.27" width="8.41" height="15.05" style="fill:#cbe2f1"/><rect id="fenetre-161" x="1199.87" y="724.27" width="8.41" height="15.05" style="fill:#cbe2f1"/><rect id="fenetre-162" x="1212.81" y="724.27" width="8.41" height="15.05" style="fill:#cbe2f1"/><rect id="fenetre-163" x="1173.98" y="744.48" width="8.41" height="15.05" style="fill:#cbe2f1"/><rect id="fenetre-164" x="1186.92" y="744.48" width="8.41" height="15.05" style="fill:#cbe2f1"/><rect id="fenetre-165" x="1199.87" y="744.48" width="8.41" height="15.05" style="fill:#cbe2f1"/><rect id="fenetre-166" x="1212.81" y="744.48" width="8.41" height="15.05" style="fill:#cbe2f1"/><path d="M1361.81,711.28s-6.33-.76-8.48,12.29c-1.93,11.8,3.9,13.9,8.48,13.9Z" style="fill:#9db583"/><path d="M1361.81,711.28s6.34-.76,8.48,12.29c1.94,11.8-3.89,13.9-8.48,13.9Z" style="fill:#b6c8a3"/><rect x="1360.9" y="737.47" width="1.86" height="11.34" style="fill:#677e8f"/><path d="M1387.45,710.94s-4.4-.53-5.89,8.54c-1.35,8.2,2.7,9.66,5.89,9.66Z" style="fill:#9db583"/><path d="M1387.45,710.94s4.41-.53,5.89,8.54c1.35,8.2-2.7,9.66-5.89,9.66Z" style="fill:#b6c8a3"/><rect x="1386.81" y="729.14" width="1.29" height="7.88" style="fill:#677e8f"/><rect x="1095.02" y="716.21" width="2.57" height="18.15" style="fill:#677e8f"/><polygon points="1096.31 670.71 1096.31 716.21 1081.57 716.21 1096.31 670.71" style="fill:#9db583"/><polyline points="1111.05 716.07 1096.31 670.57 1096.31 716.07" style="fill:#b6c8a3"/><rect x="1338.75" y="697" width="2.57" height="18.15" style="fill:#677e8f"/><polygon points="1340.04 651.5 1340.04 697 1325.3 697 1340.04 651.5" style="fill:#9db583"/><polyline points="1354.77 696.86 1340.04 651.36 1340.04 696.86" style="fill:#b6c8a3"/><polygon points="10.39 863.54 0 861.91 -19.16 865 3.27 865.64 10.39 863.54" style="fill:#80bbde"/><path d="M8.89,863.33c-3.28.33-3.08,1.9-8.89,2.24v158.59l1440,.11V858.84C1328.57,858.79,9.94,863.22,8.89,863.33Z" style="fill:#c5e567"/></svg>