<svg xmlns="http://www.w3.org/2000/svg" viewBox="0 0 1440 1024"><title>Quizz-partie2</title><g id="fond"><path d="M-558.11,690c-270.68-14.11-198.46-39.65-448.64-20.45-207.59,15.93-362.4-33.94-428-33-262.17,3.59-597.54,120.87-605.62,123.79-227.4,82.11,2501.67,142.79,3481.79,135.17V686.38C1194,725.66-80.95,714.88-558.11,690Z" style="fill:#e5eec9"/><path d="M-7225.21,802.67s313.32-40.58,861.61-36.19,928.24-18,1348.6-10.4,696.94,7.25,696.94,7.25l294-35.39a730.9,730.9,0,0,1,133-3.8l535.63,35.55q15.21,1,30.45,1.21l626.86,8.49,1095.33,4.1,166,.62L-692,780.67a950.79,950.79,0,0,1,116.45,8.18l587.75,77.8c-203.55,5.33-586,69.43-1050.5,69.51-1537.52.28-4060-83.28-4698.65-80.87C-6568.49,858.44-7225.21,802.67-7225.21,802.67Z" style="fill:#80bbde"/><path d="M12.23,866.65c-100.14,9.72-1421.09,21-1548.91,21-158.45,0-810.14,7.5-932.62-5.73-120.29-13-207.71-64.34-410.7-62.32-1050.41,10.45-2943.84-6.11-3403.42,31.48-142,11.61-696.57-15.57-1004.39,4.4S-7795.7,842.2-8042,835.33s-514.36,41.78-760.61,43.22-593.77-16.38-1086.28-23-946.53-20.19-946.53-20.19c-364.78,0-566.79,107-686.82,117.33v72.2l12963.66,1V868.19C1440.37,868.3,13.32,866.55,12.23,866.65Z" style="fill:#c5e567"/></g></svg>