<svg xmlns="http://www.w3.org/2000/svg" viewBox="0 0 166.58 176.55"><title>logo agrFichier 1</title><g id="Calque_2" data-name="Calque 2"><g id="Calque_1-2" data-name="Calque 1"><path d="M42.08,92.47a.66.66,0,0,1,.13,1.31c-.08,0-7.61,1.56-9.16,5s-2.59,13.41,10.43,19.93c3.52,1.76,7.63,2.62,12,3.53,11,2.29,23.32,4.86,27.46,23.74,4.15-18.88,16.51-21.45,27.49-23.74,4.35-.91,8.47-1.77,12-3.53,5.43-2.72,14.51-10.38,10-19.93-1.54-3.26-7.32-4.66-8.47-4.9l-.4-.08a.66.66,0,0,1,.26-1.3l.42.09a12.73,12.73,0,0,0,2.28.21,10.66,10.66,0,0,0,7.89-3.46c3.22-3.41,4.88-8.87,4.55-15-.35-6.28-2.2-9.47-5.49-9.47-4.22,0-9.37,4.9-9.42,4.95a.67.67,0,0,1-.93,0,.66.66,0,0,1,0-.93c13.81-13.64,11.13-29.89,6.62-35.56-3.35-4.21-8.89-5.09-13-5.09a36.69,36.69,0,0,0-9,1.2,54.67,54.67,0,0,1-13.34,2c-5,0-8.91-1.21-11.51-3.58-2.59,2.37-6.46,3.58-11.49,3.58a54.67,54.67,0,0,1-13.34-2,37.72,37.72,0,0,0-9.25-1.25c-4.08,0-9.58.89-12.66,5.12a10.51,10.51,0,0,0-1.87,8.81c1,4.31,4.92,11,18.31,18.3l.85.46a.65.65,0,0,1,.28.87.66.66,0,0,1-.87.31l-.52-.28L52,61.56h0c-4.63-2.52-8.79-3.79-12.34-3.79-6.11,0-10,3.9-11.54,11.6-1,4.85-.92,14.51,3.37,19.74,2.46,3,6,4.13,10.5,3.37Z" style="fill:#fff"/><path d="M40.23,108.75h.68v-4.12h-.68v-.91h2.49v.91h-.79v4.13h1.64v-.84h1v1.75H40.23Z" style="fill:#997d4a"/><path d="M44.48,106.07a2.13,2.13,0,0,0,.87-1.14.67.67,0,0,1,.17-1.32.74.74,0,0,1,.73.84,2.52,2.52,0,0,1-1.5,2Z" style="fill:#997d4a"/><path d="M46.89,108.75h.68v-4.12h-.68v-.91h4.44v1.7h-1v-.8H48.59v1.59h1.8v.87h-1.8v1.68h1.78V108h1v1.7H46.89Zm1.9-5.86,1-1.35a.63.63,0,0,1,.5-.29.45.45,0,0,1,.44.47.62.62,0,0,1-.28.49l-1.35,1Z" style="fill:#997d4a"/><path d="M52,106.69a3,3,0,0,1,3.13-3.08c1.38,0,2.3.72,2.3,1.43a.67.67,0,0,1-.65.74.63.63,0,0,1-.69-.64.68.68,0,0,1,.07-.31,1.74,1.74,0,0,0-1.06-.27,2.13,2.13,0,0,0,0,4.26,2.26,2.26,0,0,0,1.71-.78l.68.7a3.18,3.18,0,0,1-2.39,1A3,3,0,0,1,52,106.69Z" style="fill:#997d4a"/><path d="M58.19,106.69a3,3,0,0,1,3.07-3.08,3.09,3.09,0,1,1-3.07,3.08Zm5.05,0a2,2,0,1,0-2,2.13A2,2,0,0,0,63.24,106.69Z" style="fill:#997d4a"/><path d="M65.05,108.75h.68v-4.12h-.68v-.91h2.49v.91h-.79v4.13h1.64v-.84h1v1.75H65.05Z" style="fill:#997d4a"/><path d="M70,108.75h.68v-4.12H70v-.91h4.44v1.7h-1v-.8H71.71v1.59h1.8v.87h-1.8v1.68h1.77V108h1v1.7H70Z" style="fill:#997d4a"/><path d="M77.22,108.75h.68v-4.12h-.68v-.91h2.25c2.16,0,3.43,1.12,3.43,2.92s-1.2,3-3.53,3H77.22Zm2.29,0c1.54,0,2.33-.83,2.33-2.11s-.92-2-2.4-2h-.52v4.12Z" style="fill:#997d4a"/><path d="M83.66,108.75h.68v-4.12h-.68v-.91H88.1v1.7h-1v-.8H85.36v1.59h1.8v.87h-1.8v1.68h1.77V108h1v1.7H83.66Z" style="fill:#997d4a"/><path d="M90.87,108.75h.68v-4.12h-.68v-.91h2.49v.91h-.79v4.13h1.64v-.84h1v1.75H90.87Z" style="fill:#997d4a"/><path d="M95.11,106.07c.57-.46.86-.89.87-1.14a.67.67,0,0,1,.18-1.32.75.75,0,0,1,.73.84,2.52,2.52,0,0,1-1.5,2Z" style="fill:#997d4a"/><path d="M97.53,108.75h.73v-4.12h-.73v-.91H100v.91h-.72v4.12H100v.92H97.53Z" style="fill:#997d4a"/><path d="M100.63,108.75h.7l.19-4.12h-.74v-.91h1.63l1.83,3.31,1.82-3.31h1.62v.91h-.74l.19,4.12h.71v.92h-2.45v-.92h.72l-.12-3.06-1.7,3h-.14l-1.7-3-.11,3.06h.71v.92h-2.42Z" style="fill:#997d4a"/><path d="M108.17,108.75h.51l1.48-4.13h-.65v-.9h3.37v.9h-.65l1.48,4.13h.52v.92h-2.29v-.91h.68l-.33-1h-2.23l-.33,1h.72v.91h-2.28Zm3.84-1.81-.83-2.35-.83,2.35Z" style="fill:#997d4a"/><path d="M114.58,106.71a3,3,0,0,1,3.13-3.1c1.39,0,2.31.72,2.31,1.43a.67.67,0,0,1-.65.74.63.63,0,0,1-.69-.64.85.85,0,0,1,.06-.31,1.68,1.68,0,0,0-1-.27,2.15,2.15,0,0,0-.1,4.29,2.46,2.46,0,0,0,1.44-.38v-1h-1.48v-.87H120v3.09h-1v-.45a2.55,2.55,0,0,1-1.62.56A2.91,2.91,0,0,1,114.58,106.71Z" style="fill:#997d4a"/><path d="M121.07,108.75h.68v-4.12h-.68v-.91h4.44v1.7h-1v-.8h-1.77v1.59h1.8v.87h-1.8v1.68h1.77V108h1v1.7h-4.45Z" style="fill:#997d4a"/><path d="M82.92,152.76h0a3.13,3.13,0,0,1-3.11-2.68c-2.93-19.5-13.71-21.75-25.13-24.14-4.4-.92-8.94-1.87-12.9-3.85-14.06-7-15-18.74-12.2-24.9a8.45,8.45,0,0,1,2.14-2.81,13.49,13.49,0,0,1-3.19-2.86c-5.16-6.29-5.31-17.14-4.16-22.9,2.13-10.61,8-13.84,13-14.51-3.65-3.64-5.92-7.39-6.77-11.17A14.35,14.35,0,0,1,33.1,31.06c3.19-4.38,8.63-6.68,15.74-6.68A41.5,41.5,0,0,1,59,25.75a51.46,51.46,0,0,0,12.4,1.85c4.28,0,7.38-1,9.23-2.88a3.15,3.15,0,0,1,4.53,0c1.84,1.91,5,2.88,9.24,2.88a51.46,51.46,0,0,0,12.4-1.85,40.37,40.37,0,0,1,9.93-1.33c7,0,12.54,2.26,15.94,6.53,4.89,6.15,6.62,18.34.77,30.11,3.9,0,8.67,2.3,9.26,13.07.39,7.15-1.65,13.64-5.59,17.81A15.62,15.62,0,0,1,134,94.53a9,9,0,0,1,1.89,2.6c2.52,5.35,3.31,17.44-11.74,25-4,2-8.51,2.93-12.91,3.85C99.76,128.33,89,130.58,86,150.08A3.17,3.17,0,0,1,82.92,152.76ZM48.84,25.69c-6.67,0-11.75,2.12-14.68,6.14a13.11,13.11,0,0,0-2.28,10.83c.86,3.85,3.36,7.72,7.43,11.49a.66.66,0,0,1-.42,1.14c-4.84.22-11.06,2.76-13.23,13.59-1.1,5.51-1,15.87,3.88,21.8a12.08,12.08,0,0,0,3.64,3,.67.67,0,0,1,.34.53.66.66,0,0,1-.26.58,7.67,7.67,0,0,0-2.48,2.91c-2.59,5.7-1.64,16.57,11.59,23.18,3.8,1.91,8.27,2.84,12.58,3.74,11.88,2.48,23.1,4.83,26.16,25.23a1.83,1.83,0,0,0,3.62,0c3.07-20.4,14.3-22.75,26.19-25.23,4.32-.9,8.78-1.83,12.59-3.74,14.14-7.07,13.47-18.28,11.14-23.22a8.15,8.15,0,0,0-2.25-2.77.67.67,0,0,1-.23-.58.66.66,0,0,1,.35-.52A13.89,13.89,0,0,0,136.19,91c3.69-3.9,5.59-10,5.22-16.82-.42-7.74-3.18-11.83-8-11.83a8.68,8.68,0,0,0-1,.06.63.63,0,0,1-.62-.28.64.64,0,0,1,0-.68c6.22-11.59,4.66-23.72-.1-29.71-3.14-3.95-8.29-6-14.91-6A39.25,39.25,0,0,0,107.15,27a52.09,52.09,0,0,1-12.72,1.9c-4.65,0-8.08-1.11-10.19-3.28a1.89,1.89,0,0,0-2.63,0c-2.11,2.17-5.53,3.28-10.18,3.28A52.09,52.09,0,0,1,58.71,27,40.29,40.29,0,0,0,48.84,25.69Z" style="fill:#997d4a"/><path d="M82.92,150.27h0a.66.66,0,0,1-.65-.56C79.09,128.5,66.94,126,55.19,123.51c-4.44-.93-8.63-1.81-12.3-3.64-5.91-3-9.83-7.07-11.35-11.88a14.21,14.21,0,0,1,.31-9.78c.9-2,3.3-3.4,5.54-4.32a10.73,10.73,0,0,1-6.94-4c-4.61-5.62-4.7-15.54-3.64-20.83C28,63.33,31.13,56.45,39.64,56.45a20.55,20.55,0,0,1,5.34.77c-6.75-4.77-10.84-9.81-12-14.82a12,12,0,0,1,2.09-9.88c2.7-3.7,7.45-5.66,13.73-5.66a39,39,0,0,1,9.58,1.3,53.47,53.47,0,0,0,13,1.93c5,0,8.69-1.23,11-3.64a.69.69,0,0,1,1,0c2.33,2.41,6,3.64,11,3.64a53.34,53.34,0,0,0,13-1.93,38,38,0,0,1,9.32-1.25c6.25,0,11.08,1.93,14,5.59,5.09,6.4,6.33,20.5-2.77,32.77a11.66,11.66,0,0,1,5.46-1.72c4.12,0,6.41,3.61,6.8,10.72.36,6.47-1.43,12.28-4.91,16a12,12,0,0,1-6.85,3.72c2,.9,4.17,2.26,5.11,4.26,2.16,4.58,2.73,15-10.6,21.67-3.68,1.83-7.87,2.71-12.31,3.64-11.76,2.45-23.91,5-27.1,26.2A.67.67,0,0,1,82.92,150.27ZM42.08,92.47a.66.66,0,0,1,.13,1.31c-.08,0-7.61,1.56-9.16,5s-2.59,13.41,10.43,19.93c3.52,1.76,7.63,2.62,12,3.53,11,2.29,23.32,4.86,27.46,23.74,4.15-18.88,16.51-21.45,27.49-23.74,4.35-.91,8.47-1.77,12-3.53,5.43-2.72,14.51-10.38,10-19.93-1.54-3.26-7.32-4.66-8.47-4.9l-.4-.08a.66.66,0,0,1,.26-1.3l.42.09a12.73,12.73,0,0,0,2.28.21,10.66,10.66,0,0,0,7.89-3.46c3.22-3.41,4.88-8.87,4.55-15-.35-6.28-2.2-9.47-5.49-9.47-4.22,0-9.37,4.9-9.42,4.95a.67.67,0,0,1-.93,0,.66.66,0,0,1,0-.93c13.81-13.64,11.13-29.89,6.62-35.56-3.35-4.21-8.89-5.09-13-5.09a36.69,36.69,0,0,0-9,1.2,54.67,54.67,0,0,1-13.34,2c-5,0-8.91-1.21-11.51-3.58-2.59,2.37-6.46,3.58-11.49,3.58a54.67,54.67,0,0,1-13.34-2,37.72,37.72,0,0,0-9.25-1.25c-4.08,0-9.58.89-12.66,5.12a10.51,10.51,0,0,0-1.87,8.81c1,4.31,4.92,11,18.31,18.3l.85.46a.65.65,0,0,1,.28.87.66.66,0,0,1-.87.31l-.52-.28L52,61.56h0c-4.63-2.52-8.79-3.79-12.34-3.79-6.11,0-10,3.9-11.54,11.6-1,4.85-.92,14.51,3.37,19.74,2.46,3,6,4.13,10.5,3.37Z" style="fill:#997d4a"/><path d="M58.22,76.63c1.65-5.29-1.72-11.79-5-14.38-3.33,2.59-6.7,9.09-5,14.38Zm-5-12.6c2.47,2.46,4.74,7.21,4,11.27h-8C48.43,71.24,50.71,66.49,53.18,64Z" style="fill:#997d4a"/><path d="M61,76.36c1.36-6.48-2.74-13.8-6.71-16.55a2.09,2.09,0,0,0-2.3,0c-4,2.75-8.08,10.07-6.72,16.55-5.06,3.41-6.94,9.62-5.17,17.32a2,2,0,0,0,1.94,1.54,1.73,1.73,0,0,0,.45,0A2,2,0,0,0,44,92.79c-.85-3.72-1.4-10.33,4.16-13.51h10c5.55,3.18,5,9.79,4.16,13.51a2,2,0,0,0,3.88.89C68,86,66.08,79.77,61,76.36Zm3.86,17-1.28-.29c.94-4.16,1.53-11.61-5.09-15.14H47.82c-6.64,3.53-6,11-5.09,15.14l-1.29.29c-1.73-7.5.24-13.45,5.4-16.4-1.88-6.13,2.1-13.41,5.95-16.07l.17-.12h.41l.2.12c3.84,2.66,7.82,9.94,5.94,16.07C64.65,79.93,66.62,85.88,64.9,93.38Z" style="fill:#997d4a"/><path d="M95.82,76.48A2,2,0,0,0,94,75.3H82.9a2,2,0,0,0,0,4h9.74a10.28,10.28,0,0,1-1.45,9.43,7.56,7.56,0,0,1-7.86,2.47,2.26,2.26,0,0,0-.82,0,7.57,7.57,0,0,1-7.86-2.47,10.46,10.46,0,0,1-1-10.61,1.91,1.91,0,0,0,0-1.62,10.46,10.46,0,0,1,1-10.61,7.55,7.55,0,0,1,7.75-2.49,2.15,2.15,0,0,0,.91,0c3.83-.76,6.69.27,7.88,2.83,0,.12.1.28.12.34a2,2,0,0,0,3.86-1,6.85,6.85,0,0,0-.37-1c-1.91-4.14-6.43-6.09-11.86-5.15a11.44,11.44,0,0,0-11.38,3.95,14.22,14.22,0,0,0-1.88,13.92,14.22,14.22,0,0,0,1.88,13.92,11.45,11.45,0,0,0,11.36,4,13.42,13.42,0,0,0,2.49.23,11.16,11.16,0,0,0,8.88-4.18A14.29,14.29,0,0,0,95.82,76.48Zm-2.57,13.9a9.86,9.86,0,0,1-7.86,3.68,12.5,12.5,0,0,1-2.47-.26,10.21,10.21,0,0,1-10.33-3.42,12.93,12.93,0,0,1-1.47-13.09,12.91,12.91,0,0,1,1.47-13.08,10.2,10.2,0,0,1,10.34-3.43c5-1,9,.68,10.66,4.35a4.89,4.89,0,0,1,.29.8l-1.28.33a4.3,4.3,0,0,0-.2-.58c-1.44-3.12-4.94-4.46-9.35-3.58l-.79.15V62a8.74,8.74,0,0,0-8.64,3,11.65,11.65,0,0,0-1.18,12l.12.27-.12.27a11.65,11.65,0,0,0,1.18,12c2.17,2.69,5.42,3.73,9.16,2.94l.14,0,.14,0c3.74.79,7-.25,9.16-2.94A11.57,11.57,0,0,0,93.57,78H82.9V76.63H94.43l.18.39A13,13,0,0,1,93.25,90.38Z" style="fill:#997d4a"/><path d="M120.55,74.62a5.8,5.8,0,0,0,2.35-5.2l0-.35.07,0a5.88,5.88,0,0,0-2.37-5c-3.67-3-10.67-3.89-16.82-2.14V76.77C109.88,78.51,116.89,77.63,120.55,74.62ZM105.07,63c5.5-1.29,11.47-.46,14.64,2.14A4.52,4.52,0,0,1,121.59,69a2.35,2.35,0,0,0,0,.53,4.46,4.46,0,0,1-1.87,4c-3.16,2.6-9.13,3.44-14.63,2.15Z" style="fill:#997d4a"/><path d="M115.19,79.81a16.38,16.38,0,0,0,7-3.14,8.48,8.48,0,0,0,3.33-7.28A8.48,8.48,0,0,0,122.24,62c-4.47-3.67-12.59-4.7-19.74-2.5a2,2,0,0,0-1.41,1.9V77.09a1.61,1.61,0,0,0,0,.22V93.13a2,2,0,0,0,4,0v-13l.79.28c6.46,2.28,17.28,6.1,15.9,12.32a2,2,0,0,0,1.51,2.38,2.18,2.18,0,0,0,.43.05,2,2,0,0,0,2-1.56C127.13,86.93,121.41,82.68,115.19,79.81Zm9.15,13.52L123.06,93c1.64-7.38-9.43-11.28-16.76-13.87-1-.33-1.8-.63-2.56-.92V93.13h-1.32V61l.47-.15c6.64-2,14.42-1.09,18.5,2.26a7.07,7.07,0,0,1,2.83,6.32,7.11,7.11,0,0,1-2.83,6.26c-2.75,2.25-7.18,3.41-11.81,3.31C116.79,81.61,126,85.84,124.34,93.33Z" style="fill:#997d4a"/><path d="M55.24,61.45a2.08,2.08,0,1,1-2.08-2.07A2.08,2.08,0,0,1,55.24,61.45Z" style="fill:#e30613"/><path d="M59.74,77.29a1,1,0,1,1-2.08,0,1,1,0,1,1,2.08,0Z" style="fill:#e30613"/><path d="M48.68,77.29a1,1,0,1,1-2.07,0,1,1,0,1,1,2.07,0Z" style="fill:#e30613"/><path d="M66.36,93.12a2.08,2.08,0,1,1-2.07-2.06A2.07,2.07,0,0,1,66.36,93.12Z" style="fill:#e30613"/><path d="M44.15,93.12a2.07,2.07,0,1,1-2.07-2.06A2.08,2.08,0,0,1,44.15,93.12Z" style="fill:#e30613"/><path d="M85,61.45a2.07,2.07,0,1,1-2.06-2.07A2.07,2.07,0,0,1,85,61.45Z" style="fill:#e30613"/><path d="M73.9,77.29a2.07,2.07,0,1,1-2.06-2.07A2.06,2.06,0,0,1,73.9,77.29Z" style="fill:#e30613"/><path d="M83.94,77.29a1,1,0,1,1-2.08,0,1,1,0,1,1,2.08,0Z" style="fill:#e30613"/><path d="M94.28,66.09a1,1,0,1,1-1-1A1,1,0,0,1,94.28,66.09Z" style="fill:#e30613"/><path d="M96.09,77.29A2.08,2.08,0,1,1,94,75.22,2.07,2.07,0,0,1,96.09,77.29Z" style="fill:#e30613"/><path d="M125.75,93.12a2.08,2.08,0,1,1-2.08-2.06A2.08,2.08,0,0,1,125.75,93.12Z" style="fill:#e30613"/><path d="M105.16,93.12a2.08,2.08,0,1,1-2.07-2.06A2.08,2.08,0,0,1,105.16,93.12Z" style="fill:#e30613"/><path d="M104.12,77.29a1,1,0,1,1-2.07,0,1,1,0,1,1,2.07,0Z" style="fill:#e30613"/><path d="M105.15,61.45a2.07,2.07,0,1,1-2.07-2.07A2.07,2.07,0,0,1,105.15,61.45Z" style="fill:#e30613"/><path d="M125.63,69.35a2.08,2.08,0,1,1-2.07-2.07A2.07,2.07,0,0,1,125.63,69.35Z" style="fill:#e30613"/><path d="M85,93.14a2.08,2.08,0,1,1-2.08-2.08A2.08,2.08,0,0,1,85,93.14Z" style="fill:#e30613"/><rect width="166.58" height="176.55" style="fill:none"/><path d="M42.15,41.59v4.16H43v.81H40.47v-.81h.8v-5h-.8V40h1.58l3.55,4.64V40.79h-.83V40h2.48v.81h-.77v5.79H46Z" style="fill:#997d4a;stroke:#997d4a;stroke-miterlimit:10;stroke-width:0.25px"/><path d="M47.75,45.75h.6l1.83-5h-.73V40h3.3v.8H52l1.82,5h.61v.81H52.11v-.8h.76l-.49-1.39h-2.6l-.49,1.39h.8v.8H47.75Zm4.37-2.14-1-2.87-1,2.87Z" style="fill:#997d4a;stroke:#997d4a;stroke-miterlimit:10;stroke-width:0.25px"/><path d="M56.72,41.59v4.16h.84v.81H55v-.81h.8v-5H55V40h1.58l3.55,4.64V40.79h-.83V40h2.48v.81h-.77v5.79h-.5Z" style="fill:#997d4a;stroke:#997d4a;stroke-miterlimit:10;stroke-width:0.25px"/><path d="M64,45.75h.86v-5H63.36v1.05H62.5V40h5.56v1.83h-.85V40.76H65.74v5h.86v.81H64Z" style="fill:#997d4a;stroke:#997d4a;stroke-miterlimit:10;stroke-width:0.25px"/><path d="M68.84,45.75h.8v-5h-.8V40h4.83V41.7h-.86v-.92H70.55v2h2.08v.78H70.55v2.16h2.26v-.92h.86v1.72H68.84Z" style="fill:#997d4a;stroke:#997d4a;stroke-miterlimit:10;stroke-width:0.25px"/><path d="M74.58,45.24a.62.62,0,0,1,.6-.69.57.57,0,0,1,.6.55.73.73,0,0,1-.13.43,1.9,1.9,0,0,0,1.2.35c.8,0,1.31-.39,1.31-1s-.6-.91-1.3-1.17c-1.18-.44-2-.84-2-2a1.87,1.87,0,0,1,2.09-1.8c1.15,0,2,.62,2,1.35a.59.59,0,0,1-.58.65.59.59,0,0,1-.5-.93,1.61,1.61,0,0,0-1-.28c-.73,0-1.17.39-1.17.94s.59.9,1.34,1.19c1.13.42,2,.83,2,2a2,2,0,0,1-2.23,1.91C75.54,46.68,74.58,46,74.58,45.24Z" style="fill:#997d4a;stroke:#997d4a;stroke-miterlimit:10;stroke-width:0.25px"/><path d="M89,45.75h.8v-5H89V40h2.52C93,40,94,40.67,94,41.92a1.89,1.89,0,0,1-1.34,1.8l1.22,2h.77v.81H93.26L91.77,44l-.39,0-.67,0v1.8h.84v.81H89ZM93.07,42c0-.77-.63-1.16-1.6-1.16h-.76v2.38l.73,0C92.38,43.19,93.07,42.74,93.07,42Z" style="fill:#997d4a;stroke:#997d4a;stroke-miterlimit:10;stroke-width:0.25px"/><path d="M95.19,45.75H96v-5h-.8V40H100V41.7h-.86v-.92H96.9v2H99v.78H96.9v2.16h2.26v-.92H100v1.72H95.19Z" style="fill:#997d4a;stroke:#997d4a;stroke-miterlimit:10;stroke-width:0.25px"/><path d="M102.7,41.59v4.16h.84v.81H101v-.81h.8v-5H101V40h1.58l3.56,4.64V40.79h-.84V40h2.48v.81H107v5.79h-.5Z" style="fill:#997d4a;stroke:#997d4a;stroke-miterlimit:10;stroke-width:0.25px"/><path d="M110.25,41.59v4.16h.84v.81h-2.52v-.81h.8v-5h-.8V40h1.58l3.56,4.64V40.79h-.84V40h2.48v.81h-.77v5.79h-.5Z" style="fill:#997d4a;stroke:#997d4a;stroke-miterlimit:10;stroke-width:0.25px"/><path d="M116.12,45.75h.8v-5h-.8V40h4.82V41.7h-.85v-.92h-2.26v2h2.08v.78h-2.08v2.16h2.26v-.92H121v1.72h-4.84Z" style="fill:#997d4a;stroke:#997d4a;stroke-miterlimit:10;stroke-width:0.25px"/><path d="M121.86,45.24a.62.62,0,0,1,.6-.69.57.57,0,0,1,.6.55.73.73,0,0,1-.13.43,1.9,1.9,0,0,0,1.2.35c.8,0,1.31-.39,1.31-1s-.6-.91-1.3-1.17c-1.18-.44-2-.84-2-2a1.87,1.87,0,0,1,2.09-1.8c1.15,0,2,.62,2,1.35a.59.59,0,0,1-.58.65.59.59,0,0,1-.5-.93,1.61,1.61,0,0,0-1-.28c-.73,0-1.17.39-1.17.94s.59.9,1.34,1.19c1.13.42,2,.83,2,2a2,2,0,0,1-2.23,1.91C122.82,46.68,121.86,46,121.86,45.24Z" style="fill:#997d4a;stroke:#997d4a;stroke-miterlimit:10;stroke-width:0.25px"/><path d="M85.63,43.68a2.07,2.07,0,1,1-2.07-2.07A2.06,2.06,0,0,1,85.63,43.68Z" style="fill:#e30613"/></g></g></svg>