<svg id="Calque_1" data-name="Calque 1" 
    xmlns="http://www.w3.org/2000/svg" 
    xmlns:xlink="http://www.w3.org/1999/xlink" viewBox="0 0 176 500">
    <defs>
        <linearGradient id="Dégradé_sans_nom_26" x1="88.37" y1="151.27" x2="86.9" y2="257.67" gradientUnits="userSpaceOnUse">
            <stop offset="0" stop-color="#fbc36b"/>
            <stop offset="1" stop-color="#faaf39"/>
        </linearGradient>
        <linearGradient id="Dégradé_sans_nom_26-2" x1="82.89" y1="98.74" x2="85.04" y2="175.15" xlink:href="#Dégradé_sans_nom_26"/>
        <linearGradient id="Dégradé_sans_nom_29" x1="81.81" y1="97.05" x2="82.41" y2="122.16" gradientUnits="userSpaceOnUse">
            <stop offset="0" stop-color="#fddd96"/>
            <stop offset="1" stop-color="#feedc8"/>
        </linearGradient>
        <linearGradient id="Dégradé_sans_nom_3" x1="81.58" y1="49.62" x2="79.92" y2="81.27" gradientUnits="userSpaceOnUse">
            <stop offset="0.11" stop-color="#00324e"/>
            <stop offset="1"/>
        </linearGradient>
        <linearGradient id="Dégradé_sans_nom_3-2" x1="133.19" y1="524.21" x2="133.19" y2="509.27" gradientTransform="matrix(1, -0.09, 0.08, 0.92, -90.94, -375.3)" xlink:href="#Dégradé_sans_nom_3"/>
        <linearGradient id="Dégradé_sans_nom_26-3" x1="82.1" y1="102.69" x2="82.1" y2="99" xlink:href="#Dégradé_sans_nom_26"/>
    </defs>
    <title>ptite-meuf</title>
    <path d="M86,436.25s2.65,1.47,3,5.89-1.94,6.71-3,10.42-1.9,6.48-3.84,7.36-7.29,1.83-11.18,1.83-8.48-.18-9.18-2.3-.71-3.71,1.41-6.54,8.3-11.23,7.77-14a47.58,47.58,0,0,1-.7-4.94Z"/>
    <path d="M137.09,434s-2.53,8-1.08,10.34,2.17,2,6.5,6.5,6.14,8.31,10.47,8.67,10.89.9,13.24,1.08,5.55-1.8,5.36-4.33-2.16-5.78-6-9.48-7.62-7.59-9.32-11.61l-1.7-4Z"/>
    <path d="M58.26,242.38S52,297.47,61.13,332c0,0,7.16,93.93,6.55,99.1l-.61,5.18H87.46l2.13-74.56-3.65-12.17,3.65-77.29s2.74-1.52,4.56.61,28,75.16,28,75.16a70.57,70.57,0,0,0,0,19.78c1.52,11.26,13.69,68.47,13.69,68.47s15.88-1.27,20.47-1.06.42,0,0-6.46c-.32-5-5.53-51.42-7.2-75.47a135.65,135.65,0,0,0-4.82-27.34c-1.5-5.28-2.78-11.18-2.78-15.82,0-11.05-15.22-61.92-19-66.3S58.26,242.38,58.26,242.38Z" style="fill:#00324e"/>
    <path d="M22,213.48c-5.62-8.15-6.92-32.08-7.12-33.43-.53-3.46,7.62.31,9.43-3,2.77-5,6.11,11.68,6.88,20.77,0,.31-.9,2.1-.9,1.8,0-15.4-2.65-36.79-.39-51.05a34.44,34.44,0,0,1,27.39-28.45c2-.39,3.51-.6,4.15-.74,2.45-.52,44.18-2.34,51-1.82s20.86,3.65,25.3,8.87,23.73,44.33,23.47,51.37-11.5,39-24.49,51.4c0,0-1.4-9.79-10.18-8.59,0,0,9.78-37.75,17.57-40.75,0,0-19.58-18.4-17.52-33.26,0,0-.63,70.05-1.48,80.58a62.5,62.5,0,0,0,1.2,18.61A163.74,163.74,0,0,1,87,249.23c-21.07-.85-31-2-31.61-5.41s4.71-24.56,4.61-31.11-8-54.53-10-60.31c0,0-.15,55.86-9.94,67.76C35.72,225.36,31.84,227.79,22,213.48Z" style="fill:url(#Dégradé_sans_nom_26)"/>
    <path d="M61.42,121.29c-1.5-2.28,2.39-2.38,3-4.76s-.4-5.36,3-6.15,24.81-4.17,27.59-4,4.37.2,6.16,2.39,3,6.37,4.17,7.54.17,2.71-.8,5c-1.69,3.94-6.58,10.28-9.16,10.62s-17,.23-21.15,0S64.47,126,61.42,121.29Z" style="fill:url(#Dégradé_sans_nom_26-2)"/>
    <path d="M95.35,110.73s-2.9,8.58-6.44,9.21-13.33.07-14.61-1.35S69,113.38,69,113.38V99h24.6S92.82,108.08,95.35,110.73Z" style="fill:url(#Dégradé_sans_nom_29)"/>
    <path d="M81.22,110.61c2.9,0,8-2.55,10.47-6.43a41.36,41.36,0,0,0,3.66-6.83V95.21s.56,1.54,1.62,0,2.23-7.3,1.75-9.25-1-3.18-2.23-2.77l.19-16.65S91.4,71,87.87,71s-10.73.68-11.69,0-1.29-2.89-2.73-3.4-4-.68-4.47.51-4.66,7.82-4.66,7.82v7.48s-2.08-1.75-2.08.82S62.76,97.56,66.75,96c0,0,1.09,5.43,2.23,7.28S75.92,110.61,81.22,110.61Z" style="fill:#fee7c3"/>
    <path d="M65.28,85.72s-2-12,1.14-11.92,1.48-4.55,5.16-4.1,1.22,2.43,5.17,3.23,2-1.27,5.42-.53,6.71,5.76,11.61,1.1c0,0,3.82,4.28,2.71,9.69,0,0,2.22-9.24,1.3-14.2s-2.58-10-6.64-13.36-14.27-2.93-16-2.49c-2.65.68-8.11,3.45-9.78,6.8-2.64,5.26-2.69,12.94-2.62,14.85C63.07,83.81,65.28,85.72,65.28,85.72Z" style="fill:url(#Dégradé_sans_nom_3)"/>
    <path d="M84.51,81.93c-1.12-1.34,3.93-1.71,5.13-1.58a10.34,10.34,0,0,1,3.27,1.58s-3.16-.13-4.2,0S85.5,83.12,84.51,81.93Z" style="fill:#00324e;stroke:#00324e;stroke-linecap:round;stroke-linejoin:round"/>
    <path d="M76.9,81.93c1-1.34-3.7-1.71-4.83-1.58A9.62,9.62,0,0,0,69,81.93a38.85,38.85,0,0,1,4,0C73.92,82.07,76,83.12,76.9,81.93Z" style="fill:#00324e;stroke:#00324e;stroke-linecap:round;stroke-linejoin:round"/>
    <path d="M84.14,81.41s-1.22,4.74-.88,6.22a10.38,10.38,0,0,1,.27,3.11c0,.73,1.69,1.49,1.45,2.38s-.78,1.37-2,1.84-1.73-.44-2.45-.45" style="fill:none;stroke-miterlimit:10;stroke-width:0.5px;stroke:url(#Dégradé_sans_nom_3-2)"/>
    <path d="M77.43,100.85S79.69,99,80.37,99s.86.33,1.8.27.26-.2,1.29-.27,2.15,1.32,3.07,1.32-1.13,2.18-2.18,2.31-4.15,0-5.27,0S77.43,100.85,77.43,100.85Z" style="opacity:0.30000000000000004;fill:url(#Dégradé_sans_nom_26-3)"/>
    <path d="M126.48,220.64l-1.3.49c0,.48,0,.87,0,2.31a23.78,23.78,0,0,1-.57,5.16c-.48,2.13-4.9,11.07-5.45,12.8s-2.49,7.09-2.33,9.49c.37,5.56,9.4,1.37,11.2.86,2.76-.8,4.47-8.84,4.47-11.06s1.23-11.05,4.05-12.13h0c-.38-5.9-6.5-9.76-10-7.94Z" style="fill:#fee7c3"/>
    <path d="M26,178.75c-.28-2.54-1.69-5.56-1.52-8.43.2-3.23.94-7.82,1-9,.05-2.22-.74-7.5-.6-9.1a18.63,18.63,0,0,1,.25-1.88.83.83,0,0,0-.92-1c-1.21.17-1.88,1.12-2.9,2.86-1.3,2.22.28,6.09-1.06,6.3a3.55,3.55,0,0,1-2.08-.05s-7.71-3.79-11.29-.57-4,9.55-2.78,14.54c1.06,4.39,9.07,3.17,10.7,4.1a2.69,2.69,0,0,1,1.2,2.84S26.29,181.64,26,178.75Z" style="fill:#fee7c3"/>
</svg>