<svg id="Calque_1" data-name="Calque 1" xmlns="http://www.w3.org/2000/svg" xmlns:xlink="http://www.w3.org/1999/xlink" viewBox="0 0 176 500"><defs><linearGradient id="Dégradé_sans_nom_29" x1="85.55" y1="77.19" x2="86.85" y2="126.63" gradientUnits="userSpaceOnUse"><stop offset="0" stop-color="#fddd96"/><stop offset="1" stop-color="#feedc8"/></linearGradient><linearGradient id="Dégradé_sans_nom_29-2" x1="133.72" y1="230.51" x2="128.21" y2="256.31" xlink:href="#Dégradé_sans_nom_29"/><linearGradient id="Dégradé_sans_nom_2" x1="72.03" y1="219.3" x2="126.45" y2="404.93" gradientUnits="userSpaceOnUse"><stop offset="0.12" stop-color="#00324e"/><stop offset="0.26" stop-color="#12252f"/><stop offset="0.58"/><stop offset="0.9" stop-color="#033049"/></linearGradient><linearGradient id="Dégradé_sans_nom_2-2" x1="79.66" y1="412.51" x2="112.23" y2="412.51" xlink:href="#Dégradé_sans_nom_2"/><linearGradient id="Dégradé_sans_nom_3" x1="81.39" y1="423.19" x2="97.07" y2="423.19" gradientUnits="userSpaceOnUse"><stop offset="0.11" stop-color="#00324e"/><stop offset="1"/></linearGradient><linearGradient id="Dégradé_sans_nom_26" x1="82.71" y1="72.99" x2="91.33" y2="72.99" gradientUnits="userSpaceOnUse"><stop offset="0" stop-color="#fbc36b"/><stop offset="1" stop-color="#faaf39"/></linearGradient><linearGradient id="Dégradé_sans_nom_26-2" x1="82.21" y1="72.99" x2="93.49" y2="72.99" xlink:href="#Dégradé_sans_nom_26"/><linearGradient id="Dégradé_sans_nom_26-3" x1="68.17" y1="72.99" x2="76.29" y2="72.99" xlink:href="#Dégradé_sans_nom_26"/><linearGradient id="Dégradé_sans_nom_26-4" x1="66.12" y1="72.99" x2="76.79" y2="72.99" xlink:href="#Dégradé_sans_nom_26"/><linearGradient id="Dégradé_sans_nom_2-3" x1="59.46" y1="425.07" x2="84.34" y2="425.07" xlink:href="#Dégradé_sans_nom_2"/><linearGradient id="Dégradé_sans_nom_3-2" x1="62.51" y1="438.89" x2="79.27" y2="438.89" xlink:href="#Dégradé_sans_nom_3"/><linearGradient id="Dégradé_sans_nom_26-5" x1="51" y1="93.55" x2="141.36" y2="93.55" xlink:href="#Dégradé_sans_nom_26"/><linearGradient id="Dégradé_sans_nom_26-6" x1="-134.2" y1="-777.44" x2="-130.96" y2="-777.44" gradientTransform="translate(79.48 868.07) rotate(9.49)" xlink:href="#Dégradé_sans_nom_26"/></defs><title>ptite-meuf</title><rect x="114.31" y="237.07" width="6.8" height="21.83" transform="matrix(1, 0, 0, 1, -1.19, 0.57)" style="fill:#d3d3d3"/><rect x="111.6" y="258.89" width="12.96" height="8.71" transform="translate(-1.26 0.57) rotate(-0.28)" style="fill:#d3d3d3"/><path d="M72.5,111.31s4.68-1,5-3.53-4.27-13-4.27-13,19.76-6.09,22-10.22c0,0-1,16.84,3.18,19.32s6.68,3.9,6.68,3.9L102.59,112,82.05,129.47l-14-7.35Z" style="fill:url(#Dégradé_sans_nom_29)"/><polygon points="69.92 114.64 99.96 113.77 80.24 128.96 69.92 114.64" style="fill:#fff"/><path d="M135.21,138.23c-.36-7-1.16-13.22-2.69-16.61a17.56,17.56,0,0,0-.88-1.66c-4.91-2.59-9.42-2.76-12.29-.23-3.9,3.44-2.64,11.5-2.64,11.5-.52,5.5.25,20.43-.62,32.41.51,6.1,1.53,12,3.35,16.54,0,0-3.19,22.06,4.61,61.32,0,0,5.89,2,8.1,1.48s.91-55.06,2.16-64.28C134.31,178.7,136.11,155.71,135.21,138.23Z" style="fill:#f98c8b"/><path d="M94.84,394s1,7.74-.15,12.14S80.94,423.88,80.3,426s2.37,3.05,6.09,2.86,12.62-6.58,15.68-10,8.73-10.92,8.77-14.58-4.18-6-4-8.59a4.81,4.81,0,0,0-1.66-4L94.84,394" style="fill:#fee7c3"/><path d="M71.49,53.69c5.32-2.63,16.24-2.43,20.57,9.72s6.86,21-3.9,32.69S66.94,85.94,65.42,80.42,58.06,60.31,71.49,53.69Z" style="fill:#fee7c3"/><path d="M125.25,241.27a23.38,23.38,0,0,0,3.6.23,5.71,5.71,0,0,1,3.3,1.48,72.76,72.76,0,0,0,0,9.49c.38,3.58,1.26,14.9,0,17.76s-2.64,9.55-3.72,10.37-1.79.33-2.27-.82c-3.34-8-2.11-19.59-2.11-19.59-.44-.32-.45.41-1,1.48-1.15,2.34-2,5.43-3,5.56s-1.1-1.63,0-5.32S123.85,241.25,125.25,241.27Z" style="fill:url(#Dégradé_sans_nom_29-2)"/><path d="M105,391.52s6.27-71.58-5.23-84.12-6.79-57.48-6.79-57.48L88.75,178.7l-21.81,2.06s1.84,9.19,0,13.33-8.8,56.16,5.25,94.21C86.51,327.1,94.64,394,94.64,394A11.12,11.12,0,0,0,105,391.52Z" style="fill:url(#Dégradé_sans_nom_2)"/><path d="M57.68,201.3s5.21,4.52,6.85,6.08c1.27,1.21,3.37,2.88,1.85,9.69s-2,3.47-3.16,6.61c-.42,1.12-3.92,13.07-5.5,13.07-2.68,0-1.87-5.12-2.07-7.75a28.71,28.71,0,0,1,2.57-13.07c2.13-4.78-3.14-7.67-3.14-7.67S56.74,201.11,57.68,201.3Z" style="fill:#fee7c3"/><path d="M105,391.52s-.09-1.6,1.14-1.35,1.61,3,1.86,4.24,2.28,3.43,2.81,4.42,2.13,4.45,1.14,10.75-3.83,18.17-3.83,18.17h-4.45v-3.44s-1,4.93-3.34,6.41-7.54,4.7-11.62,4.08-7.31-.6-8.26-3.34-.93-3.47-.35-5.33a7,7,0,0,1,1.33-2.55s-2.74,4.77,1.24,5.06a16.5,16.5,0,0,0,10.86-2.82c3.15-2.2,10.22-8,13.17-15.12S104.64,395.62,105,391.52Z" style="fill:url(#Dégradé_sans_nom_2-2)"/><path d="M85.39,418.2s3.39-4,11.68,6.11L91.61,429s-4.78-6.63-10.22-5.39Z" style="fill:url(#Dégradé_sans_nom_3)"/><path d="M57.71,138.18a25.36,25.36,0,0,0,.89-2.56A15.83,15.83,0,0,0,57.71,138.18Z" style="fill:#f98c8b"/><path d="M82.87,73.39c-1.13-1,3.95-1.3,5.16-1.2a12.13,12.13,0,0,1,3.3,1.2s-3.19-.1-4.23,0S83.86,74.28,82.87,73.39Z" style="stroke-miterlimit:10;fill:url(#Dégradé_sans_nom_26);stroke:url(#Dégradé_sans_nom_26-2)"/><path d="M76.14,73.39c1.06-1-3.73-1.3-4.87-1.2a10.93,10.93,0,0,0-3.1,1.2s3-.1,4,0S75.2,74.28,76.14,73.39Z" style="stroke-miterlimit:10;fill:url(#Dégradé_sans_nom_26-3);stroke:url(#Dégradé_sans_nom_26-4)"/><path d="M72.51,399.37s-2.17,15.38-2.26,17.94-2.18,15.41-4.6,18.95-6.16,6.32-5.17,7.69,1.52,1.18,4.57,1.38,5,.46,6.63,0a8.3,8.3,0,0,0,4.76-2.88c.71-1,4.39-9,4.48-10.82s1.75-7.57,1.81-9.93.47-3.44,0-6.58-2-8.67-.58-13.82-5-1.49-5-1.49l-4.6-.47" style="fill:#fee7c3"/><path d="M60.32,450.37c1.36,3.14,9.07,2.09,14.3,1.09s6.06-7.83,6.31-11,1.11-2,1.11-2,2.46-17.48,2.29-20.3a19.21,19.21,0,0,0-.7-5.46c-.63-2.28-1.61-8.74,0-13.39,0,0-1.54-2.55-2-1.27s.48,3.31.48,3.31-2.57,2.84-1.33,8a28.2,28.2,0,0,1,.24,12.75c-.7,3.64-1.4,17.95-6.78,22.25a17.6,17.6,0,0,1-7.55,1.12c-4.33-.3-6.93-.09-6.41-2.73A8.66,8.66,0,0,0,60.32,450.37Z" style="fill:url(#Dégradé_sans_nom_2-3)"/><path d="M62.51,440.09s8.85.39,11.77,4.24l.42.85,4.57-7.74s-9.29-6.21-12.12-4.56A53.5,53.5,0,0,1,62.51,440.09Z" style="fill:url(#Dégradé_sans_nom_3-2)"/><path d="M82.53,252.7C75.34,272,71.28,319.66,71.28,327s1.07,74.38,1.07,74.38c1.75,4.46,9.24,2,9.24,2,15.16-56.91,11.3-76.79,11.3-76.79C104.66,308.69,114.34,263,114.34,263c16.07-27.8,2.85-61.4,0-65.83s-4.08-16.55-4.08-16.55a91.71,91.71,0,0,0-37.91,0" style="fill:#00324e"/><path d="M73.31,300s7.76-53.79,12.22-64.88" style="fill:#00324e;stroke:#fff;stroke-linecap:round;stroke-linejoin:round;stroke-width:0.5px"/><path d="M105.08,107.81s-17.29,15.16-24.29,17-8.29-13.51-8.29-13.51c-9.66,2.86-23.73,8.41-30,17s-17,21.39-22.44,38.61,27.15,39.2,35.53,42c0,0,4.27-6.18,3-7.77-3.44-4.34-17.24-31.51-21.47-31.51,0,0,15.61-19,20.58-31.52a15.83,15.83,0,0,1,.89-2.56,25.36,25.36,0,0,1-.89,2.56c-.87,3.27-1.72,9.58.89,18.25,3.94,13.07-1.81,23.63,8.34,24.33s26.52,0,42.91-.39c3.94-.08,5.57-7.53,6.24-16.73.87-12,.1-26.91.62-32.41,0,0-1.26-8.06,2.64-11.5,2.87-2.53,7.38-2.36,12.29.23C125.5,109.62,109.63,107.46,105.08,107.81Z" style="fill:#f98c8b"/><path d="M133.7,143.34c8.69-5.16,9.48-16.17,4.91-25.18-1.2-2.36-6-11.84-5.08-15.17,2.73-9.54-4.09-15.68-8.86-20.3s-9-6.2-10.36-16.41C112.69,54.34,99.22,47.54,93,44.41c-4.6-2.3-10.32,1-10.32,1s-4.12-7.89-15.72-1.57S58.6,63.39,58.6,63.39a160.6,160.6,0,0,1-5,19c-3.16,9.16,5,13.89,5,13.89S51.34,98.76,51,107.78,53.35,120.25,62.91,124c10.58,4.18,10.74-6.5,10.74-6.5s-.92-2.92,3.44-8.76a7.68,7.68,0,0,0,1.28-4.86,10.82,10.82,0,0,0-3.74-7.64,15.44,15.44,0,0,1-2.55-2.91l-.29-.43a23.56,23.56,0,0,1-3.74-13.71c.06-1.7.06-3.87,0-6.65-.45-11.13,6.29-13.69,9.46-16.79s9.08,5.15,9.08,5.15c.4,7.16,5.06,10,7.07,15.56s-4.22,12.56-5.39,19.78c-1.11,6.86,5.09,12.6,10.68,13.15a5.13,5.13,0,0,1,2.39.78c1.27.85,2.82,2.63,2.5,6.1,0,0-1.1,3.75.1,11A19.49,19.49,0,0,0,112,140.44C116.59,143.55,124.36,148.88,133.7,143.34Z" style="fill:url(#Dégradé_sans_nom_26-5)"/><path d="M117.14,143.81A136.6,136.6,0,0,0,116,165.65" style="fill:none;stroke:#fff;stroke-linecap:round;stroke-linejoin:round;stroke-width:0.5px"/><path d="M76.74,73.14s.74,4.32-.29,7.24c-.87,2.47-1.69,2.16-1.72,3.78,0,1,1,1.3,2.74,1.27" style="fill:none;stroke-miterlimit:10;stroke-width:0.5px;stroke:url(#Dégradé_sans_nom_26-6)"/><path d="M74.65,90.16l2.72-1.74,1.25,1.4,1.6-1.4,3,1.9c.92.66-.22,1.73-1.15,2.33a4.56,4.56,0,0,1-3.11.87C75.08,93,74.65,90.16,74.65,90.16Z" style="fill:#f98c8b"/></svg>