<svg width="25" height="24" viewBox="0 0 25 24" fill="none" xmlns="http://www.w3.org/2000/svg">
<path d="M24.8004 21.349L22.3124 16.2644L17.8793 12.0054L24.2123 5.92123C24.8909 5.26935 24.8909 4.18289 24.2123 3.48755L21.0911 0.488909C20.4125 -0.16297 19.2364 -0.16297 18.5579 0.488909L12.2249 6.57311L6.7514 1.31462C5.25863 -0.119511 2.86115 -0.119511 1.41361 1.31462C0.689842 2.00996 0.282722 2.92259 0.282722 3.87868C0.282722 4.83477 0.689842 5.7474 1.36837 6.44274L6.88711 11.7447L0.5089 17.8723C-0.169633 18.5242 -0.169633 19.6107 0.5089 20.306L3.63015 23.3047C3.9468 23.6089 4.39916 23.8262 4.89675 23.8262C5.39434 23.8262 5.80146 23.6523 6.16334 23.3047L12.5415 17.177L16.9746 21.4359L22.2672 23.8262C22.5386 23.9565 22.81 24 23.0814 24C23.579 24 24.0766 23.8262 24.4385 23.435C25.0266 22.8701 25.1623 22.0444 24.8004 21.349ZM21.8601 21.0014C21.5434 21.3056 21.453 21.6967 21.4982 22.0444L18.1508 20.5233L18.9198 18.1765L21.3625 17.4378L22.9457 20.6537C22.5838 20.5668 22.1767 20.6971 21.8601 21.0014ZM3.90156 7.05115L5.12292 5.87777L17.6079 17.8723L17.0199 19.6541L3.90156 7.05115ZM20.4578 16.3513L18.5579 16.9163L6.11811 4.92168L7.33946 3.7483L20.4578 16.3513ZM14.9843 5.83431L15.6176 6.44274C15.7533 6.57311 15.9342 6.61657 16.1152 6.61657C16.2961 6.61657 16.477 6.57311 16.6127 6.44274C16.8842 6.18198 16.8842 5.79086 16.6127 5.5301L15.9795 4.92168L17.4722 3.48755L18.9198 4.87822C19.0555 5.0086 19.2364 5.05206 19.4174 5.05206C19.5983 5.05206 19.7792 5.0086 19.9149 4.87822C20.1864 4.61747 20.1864 4.22635 19.9149 3.9656L18.3769 2.53146L19.5078 1.445C19.6888 1.27116 19.9602 1.27116 20.0959 1.445L23.2171 4.44364C23.3981 4.61747 23.3981 4.87823 23.2171 5.0086L16.8842 11.0928L13.1748 7.5292L14.9843 5.83431ZM2.36356 2.22725C3.3135 1.31462 4.85151 1.31462 5.80146 2.22725L6.38952 2.79221L2.95162 6.09507L2.36356 5.5301C1.9112 5.09552 1.63979 4.4871 1.63979 3.87868C1.63979 3.27026 1.9112 2.66184 2.36356 2.22725ZM5.2134 22.3486C5.03245 22.5224 4.76104 22.5224 4.62533 22.3486L1.50408 19.3499C1.32314 19.1761 1.32314 18.9153 1.50408 18.785L2.72544 17.6116L4.17298 19.0023C4.30868 19.1326 4.48963 19.1761 4.67057 19.1761C4.85151 19.1761 5.03245 19.1326 5.16816 19.0023C5.43957 18.7415 5.43957 18.3504 5.16816 18.0896L3.72062 16.699L5.2134 15.2648L5.84669 15.8732C5.9824 16.0036 6.16334 16.0471 6.34428 16.0471C6.52523 16.0471 6.70617 16.0036 6.84187 15.8732C7.11329 15.6125 7.11329 15.2214 6.84187 14.9606L6.20858 14.3522L7.97276 12.6573L11.6821 16.2209L5.2134 22.3486Z" fill="#CB563E"/>
</svg>
