<svg width="119" height="129" viewBox="0 0 119 129" fill="none" xmlns="http://www.w3.org/2000/svg">
<g clip-path="url(#clip0)">
<path d="M18.3001 68.7C18.6001 68.7 18.9001 68.9 18.9001 69.2C19.0001 69.6 18.7001 69.9 18.4001 70C18.3001 70 10.8001 71.6 9.20006 75C7.70006 78.3 6.60006 88.4 19.6001 94.9C23.1001 96.7 27.2001 97.5 31.6001 98.4C42.6001 100.7 54.9001 103.3 59.1001 122.1C63.3001 103.2 75.6001 100.6 86.6001 98.4C91.0001 97.5 95.1001 96.6 98.6001 94.9C104 92.2 113.1 84.5 108.6 75C107.1 71.7 101.3 70.3 100.1 70.1C100 70.1 99.8001 70 99.7001 70C99.4001 69.9 99.1001 69.6 99.2001 69.2C99.3001 68.9 99.6001 68.6 100 68.7C100 68.7 100.2 68.7 100.4 68.8C101.2 68.9 101.9 69 102.7 69C105.7 69 108.4 67.8 110.6 65.5C113.8 62.1 115.5 56.6 115.2 50.5C114.9 44.2 113 41 109.7 41C105.5 41 100.3 45.9 100.3 46C100 46.3 99.6001 46.2 99.4001 46C99.1001 45.7 99.2001 45.3 99.4001 45.1C113.2 31.5 110.5 15.2 106 9.5C102.7 5.3 97.1001 4.4 93.0001 4.4C90.2001 4.4 87.2001 4.8 84.0001 5.6C78.8001 6.9 74.4001 7.6 70.7001 7.6C65.7001 7.6 61.8001 6.4 59.2001 4C56.6001 6.4 52.7001 7.6 47.7001 7.6C43.9001 7.6 39.6001 7 34.4001 5.6C31.1001 4.8 28.0001 4.3 25.1001 4.3C21.0001 4.3 15.5001 5.2 12.4001 9.4C10.4001 12.1 9.80006 15 10.5001 18.2C11.5001 22.5 15.4001 29.2 28.8001 36.5L29.7001 37C30.0001 37.2 30.1001 37.6 30.0001 37.9C29.8001 38.2 29.5001 38.4 29.1001 38.2C29.0001 38.2 28.8001 38.1 28.6001 37.9L28.2001 37.7C23.6001 35.2 19.4001 33.9 15.9001 33.9C9.80006 33.9 5.90006 37.8 4.40006 45.5C3.40006 50.4 3.50006 60 7.80006 65.2C10.3001 68.2 13.8001 69.3 18.3001 68.6C18.2001 68.7 18.3001 68.7 18.3001 68.7Z" fill="white"/>
<path d="M16.3999 85H17.0999V80.9H16.3999V80H18.8999V80.9H18.0999V85H19.6999V84.2H20.6999V85.9H16.3999V85Z" fill="#977C49"/>
<path d="M20.6997 82.2969C21.2997 81.7969 21.5997 81.3969 21.5997 81.1969C21.2997 81.0969 21.0997 80.8969 21.0997 80.4969C21.0997 80.1969 21.3997 79.7969 21.7997 79.7969C22.1997 79.7969 22.4997 80.0969 22.4997 80.5969C22.4997 81.0969 22.0997 81.8969 20.9997 82.5969L20.6997 82.2969Z" fill="#977C49"/>
<path d="M23.1 84.9984H23.8V80.8984H23.1V79.9984H27.5V81.6984H26.5V80.8984H24.7V82.4984H26.5V83.3984H24.7V84.9984H26.5V84.1984H27.5V85.8984H23V84.9984H23.1ZM25 79.0984L26 77.6984C26.1 77.4984 26.3 77.3984 26.5 77.3984C26.7 77.3984 26.9 77.5984 26.9 77.8984C26.9 78.0984 26.8 78.2984 26.6 78.3984L25.3 79.3984L25 79.0984Z" fill="#977C49"/>
<path d="M28.1997 82.8969C28.1997 81.0969 29.5997 79.7969 31.2997 79.7969C32.6997 79.7969 33.5997 80.4969 33.5997 81.1969C33.5997 81.5969 33.2997 81.8969 32.8997 81.8969C32.4997 81.8969 32.1997 81.5969 32.1997 81.2969C32.1997 81.1969 32.1997 81.0969 32.2997 80.9969C32.0997 80.8969 31.7997 80.6969 31.1997 80.6969C29.9997 80.6969 29.1997 81.5969 29.1997 82.7969C29.1997 83.9969 29.9997 84.8969 31.2997 84.8969C31.9997 84.8969 32.5997 84.5969 32.9997 84.0969L33.6997 84.7969C33.0997 85.3969 32.2997 85.7969 31.2997 85.7969C29.4997 85.9969 28.1997 84.7969 28.1997 82.8969Z" fill="#977C49"/>
<path d="M34.3999 82.8969C34.3999 81.1969 35.6999 79.7969 37.4999 79.7969C39.2999 79.7969 40.4999 81.0969 40.4999 82.8969C40.4999 84.5969 39.1999 85.9969 37.3999 85.9969C35.5999 85.9969 34.3999 84.6969 34.3999 82.8969ZM39.4999 82.8969C39.4999 81.6969 38.6999 80.7969 37.4999 80.7969C36.2999 80.7969 35.4999 81.6969 35.4999 82.8969C35.4999 84.0969 36.2999 84.9969 37.4999 84.9969C38.5999 85.0969 39.4999 84.1969 39.4999 82.8969Z" fill="#977C49"/>
<path d="M41.2998 85H41.9998V80.9H41.2998V80H43.7998V80.9H42.9998V85H44.5998V84.2H45.5998V85.9H41.2998V85Z" fill="#977C49"/>
<path d="M46.2001 85H46.9001V80.9H46.2001V80H50.6001V81.7H49.6001V80.9H47.8001V82.5H49.6001V83.4H47.8001V85H49.6001V84.2H50.6001V85.9H46.1001V85H46.2001Z" fill="#977C49"/>
<path d="M53.3999 85H54.0999V80.9H53.3999V80H55.6999C57.8999 80 59.0999 81.1 59.0999 82.9C59.0999 84.7 57.8999 85.9 55.5999 85.9H53.4999V85H53.3999ZM55.6999 85C57.1999 85 57.9999 84.2 57.9999 82.9C57.9999 81.6 57.0999 80.9 55.5999 80.9H55.0999V85H55.6999Z" fill="#977C49"/>
<path d="M59.8998 85H60.5998V80.9H59.8998V80H64.2998V81.7H63.2998V80.9H61.4998V82.5H63.2998V83.4H61.4998V85H63.2998V84.2H64.2998V85.9H59.7998V85H59.8998Z" fill="#977C49"/>
<path d="M67.1001 85H67.8001V80.9H67.1001V80H69.6001V80.9H68.8001V85H70.4001V84.2H71.4001V85.9H67.1001V85Z" fill="#977C49"/>
<path d="M71.2998 82.2969C71.8998 81.7969 72.1998 81.3969 72.1998 81.1969C71.8998 81.0969 71.6998 80.8969 71.6998 80.4969C71.6998 80.1969 71.9998 79.7969 72.3998 79.7969C72.7998 79.7969 73.0998 80.0969 73.0998 80.5969C73.0998 81.0969 72.6998 81.8969 71.5998 82.5969L71.2998 82.2969Z" fill="#977C49"/>
<path d="M73.6997 85H74.3997V80.9H73.6997V80H76.1997V80.9H75.4997V85H76.1997V85.9H73.6997V85Z" fill="#977C49"/>
<path d="M76.7998 85H77.4998L77.6998 80.9H76.9998V80H78.5998L80.3998 83.3L82.1998 80H83.7998V80.9H83.0998L83.2998 85H83.9998V85.9H81.5998V85H82.2998L82.1998 81.9L80.4998 84.9H80.3998L78.6998 81.9L78.5998 85H79.2998V85.9H76.8998V85H76.7998Z" fill="#977C49"/>
<path d="M84.3999 85H84.8999L86.3999 80.9H85.7999V80H89.1999V80.9H88.4999L89.9999 85H90.4999V85.9H88.1999V85H88.8999L88.5999 84H86.3999L86.0999 85H86.7999V85.9H84.4999V85H84.3999ZM88.1999 83.2L87.3999 80.9L86.5999 83.2H88.1999Z" fill="#977C49"/>
<path d="M90.7998 82.8969C90.7998 81.0969 92.1998 79.7969 93.8998 79.7969C95.2998 79.7969 96.1998 80.4969 96.1998 81.1969C96.1998 81.5969 95.8998 81.8969 95.4998 81.8969C95.0998 81.8969 94.7998 81.5969 94.7998 81.2969C94.7998 81.1969 94.7998 81.0969 94.8998 80.9969C94.6998 80.8969 94.3998 80.6969 93.7998 80.6969C92.5998 80.6969 91.7998 81.5969 91.7998 82.7969C91.7998 84.0969 92.7998 84.9969 93.7998 84.9969C94.3998 84.9969 94.8998 84.8969 95.1998 84.5969V83.5969H93.6998V82.6969H96.1998V85.7969H95.1998V85.3969C94.7998 85.6969 94.1998 85.9969 93.5998 85.9969C92.1998 85.9969 90.7998 84.8969 90.7998 82.8969Z" fill="#977C49"/>
<path d="M97.2998 85H97.9998V80.9H97.2998V80H101.7V81.7H100.7V80.9H98.9998V82.5H100.8V83.4H98.9998V85H100.8V84.2H101.8V85.9H97.2998V85Z" fill="#977C49"/>
<path d="M43.3997 21.1008V24.3008H44.0997V25.2008H41.6997V24.3008H42.3997V20.2008H41.6997V19.3008H43.1997L46.0997 23.0008V20.2008H45.3997V19.3008H47.7997V20.2008H47.0997V25.2008H46.4997L43.3997 21.1008Z" fill="#977C49"/>
<path d="M48.2998 24.3008H48.7998L50.2998 20.2008H49.5998V19.3008H52.9998V20.2008H52.2998L53.7998 24.3008H54.2998V25.2008H51.9998V24.3008H52.6998L52.3998 23.3008H50.1998L49.8998 24.3008H50.5998V25.2008H48.2998V24.3008ZM52.0998 22.5008L51.2998 20.2008L50.4998 22.5008H52.0998Z" fill="#977C49"/>
<path d="M56.4998 21.1008V24.3008H57.1998V25.2008H54.7998V24.3008H55.4998V20.2008H54.7998V19.3008H56.2998L59.1998 23.0008V20.2008H58.4998V19.3008H60.8998V20.2008H60.1998V25.2008H59.5998L56.4998 21.1008Z" fill="#977C49"/>
<path d="M62.6998 24.2992H63.3998V20.0992H62.2998V20.9992H61.2998V19.1992H66.4998V20.9992H65.4998V20.0992H64.3998V24.2992H65.0998V25.1992H62.5998V24.2992H62.6998Z" fill="#977C49"/>
<path d="M67.0995 24.3008H67.7995V20.2008H67.0995V19.3008H71.4995V21.0008H70.4995V20.2008H68.6995V21.8008H70.4995V22.7008H68.6995V24.4008H70.4995V23.6008H71.4995V25.3008H66.9995V24.3008H67.0995Z" fill="#977C49"/>
<path d="M72.1997 24.0008C72.1997 23.6008 72.4997 23.3008 72.7997 23.3008C73.1997 23.3008 73.4997 23.6008 73.4997 23.9008C73.4997 24.0008 73.4997 24.2008 73.3997 24.3008C73.5997 24.5008 73.9997 24.6008 74.2997 24.6008C74.9997 24.6008 75.3997 24.3008 75.3997 23.8008C75.3997 23.3008 74.8997 23.1008 74.2997 22.9008C73.1997 22.5008 72.3997 22.1008 72.3997 21.0008C72.3997 20.1008 73.1997 19.3008 74.3997 19.3008C75.4997 19.3008 76.3997 19.9008 76.3997 20.6008C76.3997 21.0008 76.0997 21.3008 75.7997 21.3008C75.3997 21.3008 75.0997 21.0008 75.0997 20.7008C75.0997 20.6008 75.0997 20.5008 75.1997 20.4008C74.9997 20.3008 74.7997 20.2008 74.3997 20.2008C73.7997 20.2008 73.4997 20.5008 73.4997 20.9008C73.4997 21.4008 73.9997 21.6008 74.5997 21.8008C75.6997 22.2008 76.4997 22.6008 76.4997 23.7008C76.4997 24.8008 75.5997 25.5008 74.3997 25.5008C73.1997 25.3008 72.1997 24.7008 72.1997 24.0008Z" fill="#977C49"/>
<path d="M59.0999 129C57.4999 129 56.1999 127.9 55.9999 126.3C53.0999 106.8 42.2999 104.5 30.8999 102.2C26.4999 101.3 21.9999 100.3 17.9999 98.4C3.89993 91.3 2.99993 79.6 5.79993 73.4C6.29993 72.4 6.99993 71.5 7.89993 70.6C6.69993 69.8 5.59993 68.9 4.69993 67.7C-0.50007 61.4 -0.60007 50.6 0.49993 44.8C2.59993 34.2 8.49993 31 13.4999 30.3C9.89993 26.7 7.69993 23 6.79993 19.2C5.89993 15 6.69993 10.8 9.29993 7.3C12.4999 2.9 17.8999 0.6 24.9999 0.6C28.1999 0.6 31.5999 1.1 35.1999 2C40.0999 3.2 44.1999 3.9 47.5999 3.9C51.8999 3.9 54.9999 2.9 56.7999 1C57.3999 0.4 58.1999 0 59.0999 0C59.8999 0 60.7999 0.3 61.3999 1C63.1999 2.9 66.3999 3.9 70.5999 3.9C73.9999 3.9 78.0999 3.3 82.9999 2C86.4999 1.1 89.7999 0.7 92.8999 0.7C99.8999 0.7 105.4 3 108.8 7.2C113.7 13.3 115.4 25.5 109.6 37.3C113.5 37.3 118.3 39.6 118.9 50.4C119.3 57.5 117.3 64 113.3 68.2C112.3 69.2 111.3 70.1 110.1 70.8C110.9 71.6 111.6 72.5 112 73.4C114.5 78.7 115.3 90.8 100.3 98.4C96.2999 100.4 91.7999 101.3 87.3999 102.2C75.9999 104.6 65.1999 106.8 62.2999 126.3C61.9999 127.8 60.6999 129 59.0999 129ZM25.0999 1.9C18.3999 1.9 13.3999 4 10.3999 8C7.99993 11.2 7.29993 15 8.09993 18.8C8.99993 22.7 11.4999 26.5 15.4999 30.3C15.6999 30.5 15.7999 30.8 15.6999 31C15.5999 31.2 15.3999 31.4 15.0999 31.4C10.2999 31.8 3.99993 34.3 1.89993 45.1C0.79993 50.6 0.89993 61 5.79993 66.9C6.79993 68.2 8.09993 69.2 9.39993 69.9C9.59993 70 9.69993 70.2 9.69993 70.4C9.69993 70.6 9.59993 70.8 9.39993 71C8.19993 71.9 7.39993 72.9 6.89993 73.9C4.29993 79.6 5.29993 90.5 18.4999 97.1C22.2999 99 26.7999 99.9 31.0999 100.8C42.9999 103.3 54.1999 105.6 57.2999 126C57.3999 126.9 58.1999 127.6 59.0999 127.6C59.9999 127.6 60.7999 126.9 60.8999 126C63.9999 105.6 75.1999 103.2 87.0999 100.8C91.3999 99.9 95.8999 99 99.6999 97.1C113.8 90 113.2 78.8 110.8 73.9C110.3 72.9 109.6 72 108.6 71.1C108.4 71 108.3 70.7 108.4 70.5C108.4 70.3 108.6 70.1 108.8 70C110.1 69.3 111.4 68.4 112.5 67.2C116.2 63.3 118.1 57.2 117.7 50.4C117.3 42.7 114.5 38.6 109.7 38.6C109.4 38.6 109 38.6 108.7 38.7C108.5 38.7 108.2 38.6 108.1 38.4C108 38.2 107.9 37.9 108.1 37.7C114.3 26.1 112.8 14 108 8C104.9 4.1 99.6999 2 93.0999 2C90.0999 2 86.7999 2.4 83.4999 3.3C78.4999 4.6 74.2999 5.2 70.7999 5.2C66.0999 5.2 62.6999 4.1 60.5999 1.9C59.8999 1.2 58.6999 1.2 57.9999 1.9C55.8999 4.1 52.4999 5.2 47.7999 5.2C44.1999 5.2 40.0999 4.6 35.0999 3.3C31.4999 2.4 28.0999 1.9 25.0999 1.9Z" fill="#977C49"/>
<path d="M59.1 126.502C58.8 126.502 58.5 126.302 58.4 125.902C55.2 104.702 43.1 102.202 31.3 99.7016C26.9 98.8016 22.7 97.9016 19 96.1016C13.1 93.1016 9.2 89.0016 7.6 84.2016C6.4 80.2016 6.9 76.6016 7.9 74.4016C8.8 72.4016 11.2 71.0016 13.4 70.1016C10.6 69.7016 8.3 68.4016 6.5 66.2016C2.1 60.6016 2 50.6016 3 45.4016C4.2 39.6016 7.3 32.7016 15.8 32.7016C17.5 32.7016 19.3 33.0016 21.1 33.5016C14.4 28.7016 10.3 23.7016 9.1 18.7016C8.3 15.2016 9 11.8016 11.2 8.80156C13.9 5.10156 18.6 3.10156 24.9 3.10156C27.9 3.10156 31.1 3.50156 34.5 4.40156C39.6 5.70156 43.9 6.30156 47.5 6.30156C52.5 6.30156 56.2 5.10156 58.5 2.70156C58.7 2.40156 59.2 2.40156 59.4 2.70156C61.7 5.10156 65.4 6.30156 70.4 6.30156C74.1 6.30156 78.3 5.70156 83.4 4.40156C86.9 3.60156 90 3.10156 93 3.10156C99.2 3.10156 104.1 5.00156 107 8.70156C112.1 15.1016 113.3 29.2016 104.2 41.5016C105.9 40.5016 107.8 39.8016 109.7 39.8016C113.8 39.8016 116.1 43.4016 116.5 50.5016C116.9 57.0016 115.1 62.8016 111.6 66.5016C109.7 68.5016 107.3 69.8016 104.8 70.2016C106.8 71.1016 109 72.5016 109.9 74.5016C112.1 79.1016 112.6 89.5016 99.3 96.2016C95.6 98.0016 91.4 98.9016 87 99.8016C75.2 102.302 63.1 104.802 59.9 126.002C59.7 126.302 59.5 126.502 59.1 126.502ZM18.3 68.7016C18.6 68.7016 18.9 68.9016 18.9 69.2016C19 69.6016 18.7 69.9016 18.4 70.0016C18.3 70.0016 10.8 71.6016 9.2 75.0016C7.7 78.3016 6.6 88.4016 19.6 94.9016C23.1 96.7016 27.2 97.5016 31.6 98.4016C42.6 100.702 54.9 103.302 59.1 122.102C63.3 103.202 75.6 100.602 86.6 98.4016C91 97.5016 95.1 96.6016 98.6 94.9016C104 92.2016 113.1 84.5016 108.6 75.0016C107.1 71.7016 101.3 70.3016 100.1 70.1016C100 70.1016 99.8 70.0016 99.7 70.0016C99.4 69.9016 99.1 69.6016 99.2 69.2016C99.3 68.9016 99.6 68.6016 100 68.7016C100 68.7016 100.2 68.7016 100.4 68.8016C101.2 68.9016 101.9 69.0016 102.7 69.0016C105.7 69.0016 108.4 67.8016 110.6 65.5016C113.8 62.1016 115.5 56.6016 115.2 50.5016C114.9 44.2016 113 41.0016 109.7 41.0016C105.5 41.0016 100.3 45.9016 100.3 46.0016C100 46.3016 99.6 46.2016 99.4 46.0016C99.1 45.7016 99.2 45.3016 99.4 45.1016C113.2 31.5016 110.5 15.2016 106 9.50156C102.7 5.30156 97.1 4.40156 93 4.40156C90.2 4.40156 87.2 4.80156 84 5.60156C78.8 6.90156 74.4 7.60156 70.7 7.60156C65.7 7.60156 61.8 6.40156 59.2 4.00156C56.6 6.40156 52.7 7.60156 47.7 7.60156C43.9 7.60156 39.6 7.00156 34.4 5.60156C31.1 4.80156 28 4.30156 25.1 4.30156C21 4.30156 15.5 5.20156 12.4 9.40156C10.4 12.1016 9.8 15.0016 10.5 18.2016C11.5 22.5016 15.4 29.2016 28.8 36.5016L29.7 37.0016C30 37.2016 30.1 37.6016 30 37.9016C29.8 38.2016 29.5 38.4016 29.1 38.2016C29 38.2016 28.8 38.1016 28.6 37.9016L28.2 37.7016C23.6 35.2016 19.4 33.9016 15.9 33.9016C9.8 33.9016 5.9 37.8016 4.4 45.5016C3.4 50.4016 3.5 60.0016 7.8 65.2016C10.3 68.2016 13.8 69.3016 18.3 68.6016C18.2 68.7016 18.3 68.7016 18.3 68.7016Z" fill="#977C49"/>
<path d="M34.4001 52.9C36.1001 47.6 32.7001 41.1 29.4001 38.5C26.1001 41.1 22.7001 47.6 24.4001 52.9H34.4001ZM29.4001 40.3C31.9001 42.8 34.1001 47.5 33.4001 51.6H25.4001C24.6001 47.5 26.9001 42.7 29.4001 40.3Z" fill="#977C49"/>
<path d="M37.3 52.6016C38.7 46.1016 34.6 38.8016 30.6 36.1016C29.9 35.6016 29 35.6016 28.3 36.1016C24.3 38.9016 20.2 46.2016 21.6 52.6016C16.5 56.0016 14.7 62.2016 16.4 69.9016C16.6 70.8016 17.4 71.4016 18.3 71.4016C18.4 71.4016 18.6 71.4016 18.7 71.3016C19.8 71.1016 20.4 70.0016 20.2 68.9016C19.3 65.2016 18.8 58.6016 24.4 55.4016H34.4C39.9 58.6016 39.4 65.2016 38.6 68.9016C38.4 70.0016 39 71.0016 40.1 71.3016C41.2 71.5016 42.2 70.9016 42.5 69.8016C44.2 62.2016 42.3 56.0016 37.3 52.6016ZM41.1 69.6016L39.8 69.3016C40.7 65.1016 41.3 57.7016 34.7 54.2016H24C17.4 57.7016 17.9 65.2016 18.9 69.3016L17.6 69.6016C15.9 62.1016 17.8 56.2016 23 53.2016C21.1 47.1016 25.1 39.8016 28.9 37.1016L29.1 37.0016H29.5L29.7 37.1016C33.5 39.8016 37.5 47.0016 35.6 53.2016C40.9 56.2016 42.8 62.1016 41.1 69.6016Z" fill="#977C49"/>
<path d="M71.9997 52.6981C71.6997 51.9981 70.9997 51.4981 70.1997 51.4981H59.0997C57.9997 51.4981 57.0997 52.3981 57.0997 53.4981C57.0997 54.5981 57.9997 55.4981 59.0997 55.4981H68.7997C69.8997 58.7981 69.2997 62.4981 67.3997 64.8981C65.5997 67.1981 62.7997 68.0981 59.4997 67.3981C59.1997 67.2981 58.8997 67.2981 58.6997 67.3981C55.4997 68.0981 52.6997 67.1981 50.7997 64.8981C48.5997 62.1981 48.1997 57.8981 49.7997 54.2981C49.9997 53.7981 49.9997 53.1981 49.7997 52.6981C48.1997 49.0981 48.5997 44.7981 50.7997 42.0981C52.5997 39.7981 55.3997 38.9981 58.4997 39.5981C58.7997 39.6981 59.0997 39.6981 59.3997 39.5981C63.1997 38.7981 66.0997 39.8981 67.2997 42.3981C67.3997 42.4981 67.3997 42.6981 67.3997 42.6981C67.6997 43.7981 68.6997 44.3981 69.7997 44.0981C70.8997 43.7981 71.4997 42.6981 71.1997 41.6981C71.1997 41.5981 71.0997 41.0981 70.7997 40.6981C68.8997 36.5981 64.3997 34.5981 58.8997 35.5981C54.3997 34.7981 50.1997 36.1981 47.4997 39.4981C44.4997 43.1981 43.7997 48.5981 45.5997 53.3981C43.7997 58.1981 44.4997 63.5981 47.4997 67.2981C50.1997 70.6981 54.2997 72.0981 58.8997 71.2981C59.6997 71.4981 60.5997 71.4981 61.3997 71.4981C64.8997 71.4981 68.0997 69.9981 70.2997 67.2981C73.6997 63.4981 74.2997 57.6981 71.9997 52.6981ZM69.4997 66.5981C67.5997 68.9981 64.7997 70.2981 61.5997 70.2981C60.7997 70.2981 59.9997 70.1981 59.0997 69.9981C54.9997 70.7981 51.1997 69.5981 48.7997 66.5981C45.9997 63.0981 45.3997 57.9981 47.2997 53.4981C45.3997 48.9981 45.9997 43.8981 48.7997 40.3981C51.1997 37.3981 54.9997 36.0981 59.0997 36.9981C64.0997 36.0981 68.0997 37.6981 69.7997 41.3981C69.9997 41.7981 70.0997 42.1981 70.0997 42.1981L68.7997 42.4981C68.7997 42.4981 68.6997 42.1981 68.5997 41.8981C67.1997 38.7981 63.6997 37.3981 59.2997 38.2981L58.4997 38.4981V38.1981C54.9997 37.5981 51.8997 38.6981 49.8997 41.1981C47.2997 44.3981 46.8997 49.0981 48.6997 53.1981L48.7997 53.4981L48.6997 53.7981C46.8997 57.8981 47.2997 62.5981 49.8997 65.7981C52.0997 68.4981 55.2997 69.4981 59.0997 68.6981H59.1997H59.2997C62.9997 69.4981 66.2997 68.3981 68.4997 65.7981C70.9997 62.6981 71.4997 58.1981 69.7997 54.1981H59.0997V52.8981H70.5997L70.7997 53.2981C72.8997 57.7981 72.2997 63.0981 69.4997 66.5981Z" fill="#977C49"/>
<path d="M96.8 50.8986C98.5 49.4986 99.4 47.6986 99.1 45.6986V45.3986L99.2 45.2986C99.3 43.3986 98.5 41.6986 96.8 40.3986C93.1 37.3986 86.1 36.4986 80 38.2986V52.9986C86.1 54.6986 93.1 53.8986 96.8 50.8986ZM81.3 39.1986C86.8 37.8986 92.8 38.6986 95.9 41.2986C97.3 42.3986 97.9 43.6986 97.8 45.1986C97.8 45.3986 97.8 45.5986 97.8 45.6986C98 47.1986 97.3 48.5986 95.9 49.6986C92.7 52.2986 86.8 53.0986 81.3 51.7986V39.1986Z" fill="#977C49"/>
<path d="M91.3998 55.9985C94.0998 55.3985 96.5998 54.3985 98.3998 52.8985C100.8 50.9985 101.9 48.3985 101.7 45.5985C101.9 42.7985 100.8 40.1985 98.3998 38.1985C93.8998 34.4985 85.7998 33.4985 78.6998 35.6985C77.8998 35.9985 77.2998 36.6985 77.2998 37.5985V53.2985C77.2998 53.3985 77.2998 53.3985 77.2998 53.4985V53.5985V69.2985C77.2998 70.3985 78.1998 71.2985 79.2998 71.2985C80.3998 71.2985 81.2998 70.3985 81.2998 69.2985V56.2985C81.5998 56.3985 81.7998 56.4985 82.0998 56.5985C88.4998 58.8985 99.3998 62.7985 97.9998 68.9985C97.7998 70.0985 98.3998 71.0985 99.4998 71.3985C99.5998 71.3985 99.7998 71.3985 99.8998 71.3985C100.8 71.3985 101.6 70.7985 101.8 69.7985C103.3 63.1985 97.5998 58.8985 91.3998 55.9985ZM100.6 69.5985L99.2998 69.2985C100.9 61.8985 89.8998 57.9985 82.4998 55.3985C81.5998 55.0985 80.6998 54.7985 79.8998 54.4985V69.3985H78.5998V37.1985L79.0998 37.0985C85.6998 35.0985 93.4998 35.9985 97.5998 39.3985C99.6998 41.0985 100.7 43.2985 100.4 45.6985C100.6 48.0985 99.5998 50.2985 97.5998 51.9985C94.8998 54.2985 90.3998 55.3985 85.7998 55.2985C92.9998 57.8985 102.2 62.0985 100.6 69.5985Z" fill="#977C49"/>
<path d="M31.4998 37.7016C31.4998 38.9016 30.5998 39.8016 29.3998 39.8016C28.2998 39.8016 27.2998 38.9016 27.2998 37.7016C27.2998 36.6016 28.1998 35.6016 29.3998 35.6016C30.4998 35.6016 31.4998 36.5016 31.4998 37.7016Z" fill="#E3000B"/>
<path d="M36 53.5C36 54.1 35.5 54.5 35 54.5C34.4 54.5 34 54 34 53.5C34 52.9 34.5 52.5 35 52.5C35.5 52.5 36 53 36 53.5Z" fill="#E3000B"/>
<path d="M24.8999 53.5C24.8999 54.1 24.3999 54.5 23.8999 54.5C23.2999 54.5 22.8999 54 22.8999 53.5C22.8999 52.9 23.3999 52.5 23.8999 52.5C24.3999 52.5 24.8999 53 24.8999 53.5Z" fill="#E3000B"/>
<path d="M42.5999 69.4008C42.5999 70.5008 41.6999 71.5008 40.4999 71.5008C39.3999 71.5008 38.3999 70.6008 38.3999 69.4008C38.3999 68.3008 39.2999 67.3008 40.4999 67.3008C41.6999 67.3008 42.5999 68.2008 42.5999 69.4008Z" fill="#E3000B"/>
<path d="M20.3997 69.4008C20.3997 70.5008 19.4997 71.5008 18.2997 71.5008C17.1997 71.5008 16.1997 70.6008 16.1997 69.4008C16.1997 68.3008 17.0997 67.3008 18.2997 67.3008C19.3997 67.3008 20.3997 68.2008 20.3997 69.4008Z" fill="#E3000B"/>
<path d="M61.2 37.7016C61.2 38.9016 60.3 39.8016 59.1 39.8016C58 39.8016 57 38.9016 57 37.7016C57 36.6016 57.9 35.6016 59.1 35.6016C60.3 35.6016 61.2 36.5016 61.2 37.7016Z" fill="#E3000B"/>
<path d="M50.0999 53.4984C50.0999 54.5984 49.1999 55.5984 47.9999 55.5984C46.8999 55.5984 45.8999 54.6984 45.8999 53.4984C45.8999 52.3984 46.7999 51.3984 47.9999 51.3984C49.1999 51.4984 50.0999 52.3984 50.0999 53.4984Z" fill="#E3000B"/>
<path d="M60.1997 53.5C60.1997 54.1 59.6997 54.5 59.1997 54.5C58.5997 54.5 58.1997 54 58.1997 53.5C58.1997 52.9 58.6997 52.5 59.1997 52.5C59.6997 52.5 60.1997 53 60.1997 53.5Z" fill="#E3000B"/>
<path d="M70.5 42.3008C70.5 42.9008 70 43.3008 69.5 43.3008C68.9 43.3008 68.5 42.8008 68.5 42.3008C68.5 41.7008 69 41.3008 69.5 41.3008C70 41.3008 70.5 41.8008 70.5 42.3008Z" fill="#E3000B"/>
<path d="M72.3001 53.4984C72.3001 54.5984 71.4001 55.5984 70.2001 55.5984C69.1001 55.5984 68.1001 54.6984 68.1001 53.4984C68.1001 52.3984 69.0001 51.3984 70.2001 51.3984C71.4001 51.4984 72.3001 52.3984 72.3001 53.4984Z" fill="#E3000B"/>
<path d="M102 69.4008C102 70.5008 101.1 71.5008 99.8998 71.5008C98.7998 71.5008 97.7998 70.6008 97.7998 69.4008C97.7998 68.3008 98.6998 67.3008 99.8998 67.3008C101 67.3008 102 68.2008 102 69.4008Z" fill="#E3000B"/>
<path d="M81.3997 69.4008C81.3997 70.5008 80.4997 71.5008 79.2997 71.5008C78.1997 71.5008 77.1997 70.6008 77.1997 69.4008C77.1997 68.3008 78.0997 67.3008 79.2997 67.3008C80.3997 67.3008 81.3997 68.2008 81.3997 69.4008Z" fill="#E3000B"/>
<path d="M80.2998 53.5C80.2998 54.1 79.7998 54.5 79.2998 54.5C78.6998 54.5 78.2998 54 78.2998 53.5C78.2998 52.9 78.7998 52.5 79.2998 52.5C79.8998 52.5 80.2998 53 80.2998 53.5Z" fill="#E3000B"/>
<path d="M81.3997 37.7016C81.3997 38.8016 80.4997 39.8016 79.2997 39.8016C78.1997 39.8016 77.1997 38.9016 77.1997 37.7016C77.1997 36.6016 78.0997 35.6016 79.2997 35.6016C80.3997 35.6016 81.3997 36.6016 81.3997 37.7016Z" fill="#E3000B"/>
<path d="M101.8 45.6C101.8 46.8 100.9 47.7 99.7001 47.7C98.6001 47.7 97.6001 46.8 97.6001 45.6C97.6001 44.5 98.5001 43.5 99.7001 43.5C100.9 43.5 101.8 44.4 101.8 45.6Z" fill="#E3000B"/>
<path d="M61.2 69.4008C61.2 70.5008 60.3 71.5008 59.1 71.5008C58 71.5008 57 70.6008 57 69.4008C57 68.3008 57.9 67.3008 59.1 67.3008C60.3 67.3008 61.2 68.2008 61.2 69.4008Z" fill="#E3000B"/>
</g>
<defs>
<clipPath id="clip0">
<rect width="119" height="129" fill="white"/>
</clipPath>
</defs>
</svg>
