<svg width="28" height="24" viewBox="0 0 28 24" fill="none" xmlns="http://www.w3.org/2000/svg">
<path d="M22.5714 12.9784V2.6187C22.5714 1.17986 21.4 0 19.9714 0H2.6C1.17143 0 0 1.17986 0 2.6187V12.9784C0 14.4173 1.17143 15.5971 2.6 15.5971H3.31429V18.705C3.31429 19.2806 3.8 19.7698 4.37143 19.7698C4.68571 19.7698 4.97143 19.6259 5.17143 19.3957L8.42857 15.5971H20C21.4286 15.5971 22.5714 14.4173 22.5714 12.9784ZM8.08571 14.1583C7.88571 14.1583 7.68571 14.2446 7.54286 14.4173L4.74286 17.6978V14.9065C4.74286 14.5036 4.42857 14.187 4.02857 14.187H2.6C1.94286 14.187 1.42857 13.6691 1.42857 13.0072V2.64748C1.42857 1.98561 1.94286 1.46763 2.6 1.46763H20C20.6571 1.46763 21.1714 1.98561 21.1714 2.64748V13.0072C21.1714 13.6691 20.6571 14.187 20 14.187H8.08571V14.1583ZM19.5714 19.8561H9.4C9 19.8561 8.68571 19.5396 8.68571 19.1367C8.68571 18.7338 9 18.4173 9.4 18.4173H19.9143C20.1143 18.4173 20.3143 18.5036 20.4571 18.6763L23.2571 21.9568V19.1655C23.2571 18.7626 23.5714 18.446 23.9714 18.446H25.4C26.0571 18.446 26.5714 17.9281 26.5714 17.2662V6.90647C26.5714 6.2446 26.0571 5.72662 25.4 5.72662C25 5.72662 24.6857 5.41007 24.6857 5.00719C24.6857 4.60432 25 4.28777 25.4 4.28777C26.8286 4.28777 28 5.46763 28 6.90647V17.2662C28 18.705 26.8286 19.8849 25.4 19.8849H24.6857V22.964C24.6857 23.4245 24.4286 23.7986 24 23.9424C23.8857 24 23.7429 24 23.6286 24C23.3429 24 23.0571 23.8849 22.8286 23.6259L19.5714 19.8561ZM12.2571 8.05755C12.2571 8.60432 11.8286 9.03597 11.2857 9.03597C10.7429 9.03597 10.3143 8.60432 10.3143 8.05755C10.3143 7.51079 10.7429 7.07914 11.2857 7.07914C11.8286 7.07914 12.2571 7.53957 12.2571 8.05755ZM15.4857 8.05755C15.4857 8.60432 15.0571 9.03597 14.5143 9.03597C13.9714 9.03597 13.5429 8.60432 13.5429 8.05755C13.5429 7.51079 13.9714 7.07914 14.5143 7.07914C15.0571 7.10791 15.4857 7.53957 15.4857 8.05755ZM9.02857 8.05755C9.02857 8.60432 8.6 9.03597 8.05714 9.03597C7.51429 9.03597 7.08571 8.60432 7.08571 8.05755C7.08571 7.51079 7.51429 7.07914 8.05714 7.07914C8.6 7.10791 9.02857 7.53957 9.02857 8.05755Z" fill="#CB563E"/>
</svg>
