<svg width="512" height="464" viewBox="0 0 512 464" fill="none" xmlns="http://www.w3.org/2000/svg">
<g clip-path="url(#clip0)">
<path d="M401.232 154.702C397.362 142.874 391.505 138.373 387.53 124.033C384.288 112.31 384.392 102.053 385.124 95.0399C385.334 92.8419 385.333 90.6438 385.333 88.4457C385.333 39.5651 345.691 -0.104675 296.845 -0.104675C249.776 -0.104675 211.285 36.739 208.565 83.2123C208.252 89.3878 207.415 95.4586 205.846 101.425C201.348 118.067 189.843 146.328 161.183 160.144C119.031 180.346 85.0369 212.688 69.975 266.384C61.921 295.377 42.1523 312.962 25.7306 322.905C23.9525 324.057 24.8939 326.778 26.9858 326.569C41.3155 325.104 58.3647 327.93 70.4979 344.886C95.2873 379.532 162.857 390.522 214.841 325.208C253.437 276.642 277.39 254.033 303.748 244.403C313.789 240.74 317.241 242.938 332.617 238.542C356.674 231.738 389.204 222.423 400.291 196.255C408.24 177.31 401.755 156.376 401.232 154.702Z" fill="#446A6F"/>
<path d="M41 302C46.8333 296.833 57.5 288 65 260C72.5345 231.871 89.5 207.5 95.5 203.5" stroke="url(#paint0_diamond)" stroke-linecap="round"/>
<path d="M409.992 171.908C409.941 171.637 409.68 171.458 409.408 171.508C409.137 171.559 408.958 171.82 409.008 172.092L409.992 171.908ZM389.3 221.4C393.687 218.11 399.962 211.706 404.59 203.15C409.221 194.59 412.218 183.848 409.992 171.908L409.008 172.092C411.182 183.752 408.262 194.26 403.71 202.675C399.155 211.094 392.98 217.39 388.7 220.6L389.3 221.4Z" fill="url(#paint1_diamond)"/>
<path d="M73.5 310C107 306 96 233 165 207.5C209.058 191.218 232 147.5 232.5 91.5" stroke="url(#paint2_diamond)"/>
<path d="M67.5 321C90 324 130 317 153 276C176 235 215.5 229 215.5 229" stroke="url(#paint3_diamond)"/>
<path d="M348.21 202.212C320.345 175.414 320.131 155.477 321.31 148.189L328.491 143.258C336.743 137.577 341.673 128.251 341.673 118.176V76.3722V41H254.862V76.3722V100.49C254.219 100.382 253.576 100.275 252.933 100.275C245.967 100.275 240.394 105.849 240.394 112.816C240.394 119.784 245.967 125.357 252.933 125.357C253.791 125.357 254.755 125.25 255.505 125.036C257.327 133.397 262.686 140.793 270.403 145.08L279.834 150.332C280.584 158.907 278.226 177.665 252.719 202.212C217.459 236.19 130.22 334.482 114.679 458.392H300.09H301.054H486.464C470.817 334.482 383.578 236.19 348.21 202.212Z" fill="#F9E9D7"/>
<path d="M347.246 202.212C343.495 198.567 340.28 195.137 337.493 191.814C328.598 202.962 314.879 210.036 299.554 210.036C284.228 210.036 270.51 202.962 261.614 191.814C258.828 195.137 255.613 198.674 251.861 202.212C216.494 236.19 129.255 334.375 113.715 458.392H299.125H300.09H485.5C469.745 334.482 382.506 236.19 347.246 202.212Z" fill="white" stroke="#5A8D8C" stroke-width="2" stroke-miterlimit="10" stroke-linecap="round" stroke-linejoin="round"/>
<path d="M238.358 310.043C238.358 310.043 203.312 391.078 203.312 458.392" stroke="#5A8D8C" stroke-width="2" stroke-miterlimit="10" stroke-linecap="round" stroke-linejoin="round"/>
<path d="M361.928 310.043C361.928 310.043 396.974 391.078 396.974 458.392" stroke="#5A8D8C" stroke-width="2" stroke-miterlimit="10" stroke-linecap="round" stroke-linejoin="round"/>
<circle cx="276.5" cy="248.5" r="4.5" fill="#5A8D8C"/>
<circle cx="332.5" cy="220.5" r="4.5" fill="#5A8D8C"/>
<circle cx="314.5" cy="291.5" r="4.5" fill="#5A8D8C"/>
<circle cx="207.5" cy="309.5" r="4.5" fill="#5A8D8C"/>
<circle cx="225.5" cy="257.5" r="4.5" fill="#5A8D8C"/>
<circle cx="264.5" cy="332.5" r="4.5" fill="#5A8D8C"/>
<circle cx="260.5" cy="291.5" r="4.5" fill="#5A8D8C"/>
<circle cx="341.5" cy="257.5" r="4.5" fill="#5A8D8C"/>
<circle cx="378.5" cy="309.5" r="4.5" fill="#5A8D8C"/>
<circle cx="378.5" cy="273.5" r="4.5" fill="#5A8D8C"/>
<circle cx="260.5" cy="220.5" r="4.5" fill="#5A8D8C"/>
<circle cx="319.5" cy="341.5" r="4.5" fill="#5A8D8C"/>
<circle cx="357.5" cy="375.5" r="4.5" fill="#5A8D8C"/>
<circle cx="292.5" cy="371.5" r="4.5" fill="#5A8D8C"/>
<circle cx="237.5" cy="391.5" r="4.5" fill="#5A8D8C"/>
<circle cx="285.5" cy="424.5" r="4.5" fill="#5A8D8C"/>
<circle cx="246.5" cy="443.5" r="4.5" fill="#5A8D8C"/>
<circle cx="336.5" cy="443.5" r="4.5" fill="#5A8D8C"/>
<circle cx="328.5" cy="396.5" r="4.5" fill="#5A8D8C"/>
<circle cx="374.5" cy="424.5" r="4.5" fill="#5A8D8C"/>
<circle cx="456.5" cy="433.5" r="4.5" fill="#5A8D8C"/>
<circle cx="416.5" cy="328.5" r="4.5" fill="#5A8D8C"/>
<circle cx="451.5" cy="370.5" r="4.5" fill="#5A8D8C"/>
<circle cx="401.5" cy="361.5" r="4.5" fill="#5A8D8C"/>
<circle cx="425.5" cy="400.5" r="4.5" fill="#5A8D8C"/>
<circle cx="171.5" cy="328.5" r="4.5" fill="#5A8D8C"/>
<circle cx="183.5" cy="443.5" r="4.5" fill="#5A8D8C"/>
<circle cx="147.5" cy="415.5" r="4.5" fill="#5A8D8C"/>
<circle cx="203.5" cy="361.5" r="4.5" fill="#5A8D8C"/>
<circle cx="167.5" cy="376.5" r="4.5" fill="#5A8D8C"/>
<circle cx="183.5" cy="404.5" r="4.5" fill="#5A8D8C"/>
<circle cx="126.5" cy="447.5" r="4.5" fill="#5A8D8C"/>
<circle cx="407.5" cy="448.5" r="4.5" fill="#5A8D8C"/>
<circle cx="247" cy="131" r="7" stroke="white" stroke-width="2"/>
<path d="M306.468 41.6585C306.468 41.6585 307.514 66.1511 298.1 73.2687C288.686 80.2815 280.737 74.9434 273.729 89.3878C266.721 103.937 253.856 99.5407 253.856 99.5407L229.799 100.169L243.919 34.2269H351.654V83.5263C351.654 83.6309 308.56 77.6648 306.468 41.6585Z" fill="#446A6F"/>
<path d="M307.5 131C305.5 131 303.333 132.333 302.5 133C302 132.333 300.4 131 298 131C295.6 131 293.667 132.333 293 133C293.5 135.333 296.1 140 302.5 140C308.9 140 311.833 135.333 312.5 133C311.667 132.333 309.5 131 307.5 131Z" fill="#426262"/>
</g>
<defs>
<radialGradient id="paint0_diamond" cx="0" cy="0" r="1" gradientUnits="userSpaceOnUse" gradientTransform="translate(68.25 252.75) rotate(90) scale(49.25 27.25)">
<stop stop-color="#426262"/>
<stop offset="1" stop-color="#426262" stop-opacity="0"/>
</radialGradient>
<radialGradient id="paint1_diamond" cx="0" cy="0" r="1" gradientUnits="userSpaceOnUse" gradientTransform="translate(399.621 196.5) rotate(90) scale(24.5 10.6211)">
<stop stop-color="#426262"/>
<stop offset="1" stop-color="#426262" stop-opacity="0"/>
</radialGradient>
<radialGradient id="paint2_diamond" cx="0" cy="0" r="1" gradientUnits="userSpaceOnUse" gradientTransform="translate(153 200.75) rotate(90) scale(109.25 79.5)">
<stop stop-color="white"/>
<stop offset="1" stop-color="#4592A0" stop-opacity="0"/>
</radialGradient>
<radialGradient id="paint3_diamond" cx="0" cy="0" r="1" gradientUnits="userSpaceOnUse" gradientTransform="translate(141.5 275.305) rotate(90) scale(46.3051 74)">
<stop stop-color="white"/>
<stop offset="1" stop-color="white" stop-opacity="0"/>
</radialGradient>
<clipPath id="clip0">
<rect width="512" height="464" fill="white"/>
</clipPath>
</defs>
</svg>
