<svg width="45" height="45" viewBox="0 0 45 45" fill="none" xmlns="http://www.w3.org/2000/svg">
<circle cx="22.5" cy="22.5" r="22.5" fill="white"/>
<path d="M22.81 34.18C22.27 34.18 21.82 34.03 21.46 33.73C21.12 33.41 20.95 32.96 20.95 32.38V20.8C20.95 20.22 21.12 19.78 21.46 19.48C21.82 19.18 22.27 19.03 22.81 19.03C23.35 19.03 23.8 19.18 24.16 19.48C24.52 19.78 24.7 20.22 24.7 20.8V32.38C24.7 32.96 24.52 33.41 24.16 33.73C23.8 34.03 23.35 34.18 22.81 34.18ZM22.81 16.36C22.13 16.36 21.59 16.18 21.19 15.82C20.79 15.44 20.59 14.95 20.59 14.35C20.59 13.75 20.79 13.27 21.19 12.91C21.59 12.55 22.13 12.37 22.81 12.37C23.47 12.37 24 12.55 24.4 12.91C24.82 13.27 25.03 13.75 25.03 14.35C25.03 14.95 24.83 15.44 24.43 15.82C24.03 16.18 23.49 16.36 22.81 16.36Z" fill="#426262"/>
</svg>
