<svg width="32" height="17" viewBox="0 0 32 17" fill="none" xmlns="http://www.w3.org/2000/svg">
<path d="M1.93146 13.934C1.09247 15.2658 2.04961 17 3.62368 17H26.4222C28.299 17 29.1422 14.6482 27.6931 13.4557L25.2976 11.4843C24.7085 10.9995 23.8949 10.8921 23.2002 11.2074L18.3158 13.424C17.512 13.7887 16.5641 13.5835 15.9833 12.9188L9.95638 6.02198C9.07537 5.0138 7.47181 5.13916 6.75817 6.272L1.93146 13.934Z" fill="#426262"/>
<path d="M21.5 7C23.433 7 25 5.433 25 3.5C25 1.567 23.433 0 21.5 0C19.567 0 18 1.567 18 3.5C18 5.433 19.567 7 21.5 7Z" fill="#426262"/>
</svg>
