<svg width="25" height="24" viewBox="0 0 25 24" fill="none" xmlns="http://www.w3.org/2000/svg">
<g clip-path="url(#clip0)">
<path fill-rule="evenodd" clip-rule="evenodd" d="M11.458 2C11.1817 2 10.9168 2.10536 10.7214 2.29289C10.5261 2.48043 10.4163 2.73478 10.4163 3V11.382L13.0755 10.1056C13.2201 10.0361 13.3796 10 13.5413 10H21.8747C22.1509 10 22.4159 9.89464 22.6112 9.70711C22.8066 9.51957 22.9163 9.26522 22.9163 9V3C22.9163 2.73478 22.8066 2.48043 22.6112 2.29289C22.4159 2.10536 22.1509 2 21.8747 2H11.458ZM9.2483 0.87868C9.83435 0.316071 10.6292 0 11.458 0H21.8747C22.7035 0 23.4983 0.316071 24.0844 0.87868C24.6704 1.44129 24.9997 2.20435 24.9997 3V9C24.9997 9.79565 24.6704 10.5587 24.0844 11.1213C23.4983 11.6839 22.7035 12 21.8747 12H13.7872L9.84052 13.8944C9.51762 14.0494 9.13414 14.0329 8.82704 13.8507C8.51994 13.6684 8.33301 13.3466 8.33301 13V3C8.33301 2.20435 8.66225 1.44129 9.2483 0.87868Z" fill="#426262"/>
<path fill-rule="evenodd" clip-rule="evenodd" d="M1.9568 2.87868C2.54285 2.31607 3.3377 2 4.1665 2H5.729C6.3043 2 6.77067 2.44772 6.77067 3C6.77067 3.55228 6.3043 4 5.729 4H4.1665C3.89024 4 3.62528 4.10536 3.42993 4.29289C3.23458 4.48043 3.12484 4.73478 3.12484 5V21C3.12484 21.2652 3.23458 21.5196 3.42993 21.7071C3.62529 21.8946 3.89024 22 4.1665 22H15.6248C15.9011 22 16.1661 21.8946 16.3614 21.7071C16.5568 21.5196 16.6665 21.2652 16.6665 21V15C16.6665 14.4477 17.1329 14 17.7082 14C18.2835 14 18.7498 14.4477 18.7498 15V21C18.7498 21.7957 18.4206 22.5587 17.8345 23.1213C17.2485 23.6839 16.4536 24 15.6248 24H4.1665C3.3377 24 2.54285 23.6839 1.9568 23.1213C1.37074 22.5587 1.0415 21.7957 1.0415 21V5C1.0415 4.20435 1.37074 3.44129 1.9568 2.87868Z" fill="#426262"/>
<ellipse cx="10.4167" cy="19" rx="1.04167" ry="1" fill="#426262"/>
</g>
<defs>
<clipPath id="clip0">
<path d="M0 0H25V24H0V0Z" fill="white"/>
</clipPath>
</defs>
</svg>
