<svg width="39" height="39" viewBox="0 0 39 39" fill="none" xmlns="http://www.w3.org/2000/svg">
<path d="M23.5883 13.857C23.4864 11.4116 24.862 9.27181 26.8999 8.30381C27.0782 8.22739 27.1036 7.97266 26.9253 7.87076C24.7855 6.52066 22.2637 5.73098 19.538 5.75646C12.2271 5.78193 6.16438 11.6918 5.90964 19.0027C5.65491 26.8995 12.0997 33.3698 19.9965 33.166C27.2055 32.9622 33.0899 27.1033 33.2937 19.8943C33.3192 19.4358 33.2937 18.9772 33.2682 18.5187C33.2428 18.3149 33.039 18.213 32.8607 18.3404C31.7653 19.1301 30.3897 19.5631 28.9123 19.4358C26.0338 19.2065 23.7157 16.7865 23.5883 13.857Z" fill="#4B686E"/>
<path d="M19.4873 39C8.73743 39 0 30.2371 0 19.4873C0 8.73743 8.73743 0 19.4873 0C30.2371 0 38.9745 8.73743 38.9745 19.4873C38.9745 30.2371 30.2371 39 19.4873 39ZM19.4873 2.03788C9.85826 2.03788 2.03788 9.85826 2.03788 19.4873C2.03788 29.1163 9.85826 36.9366 19.4873 36.9366C29.1163 36.9366 36.9366 29.1163 36.9366 19.4873C36.9366 9.85826 29.1163 2.03788 19.4873 2.03788Z" fill="#4B686E"/>
</svg>
