<svg width="798" height="576" viewBox="0 0 798 576" fill="none" xmlns="http://www.w3.org/2000/svg">
<path d="M560 338L625.85 242H796" stroke="#CB563E" stroke-width="3" stroke-linecap="round"/>
<path d="M288 0V191.978C341.049 191.978 384.089 234.951 384.089 288.067C384.089 341.183 341.116 384.156 288 384.156C234.884 384.156 191.911 341.183 191.911 288.067C191.911 278.591 193.312 269.383 195.848 260.708L11.8777 205.991C4.13716 231.948 0 259.507 0 288C0 447.081 128.919 576 288 576C447.081 576 576 447.081 576 288C576 128.919 447.081 0 288 0Z" fill="#CB563E"/>
<path d="M288 191.978V0C157.479 0 47.177 86.8804 11.8777 205.991L195.915 260.641C207.726 220.938 244.493 191.978 288 191.978Z" fill="#F9E9D7"/>
<path d="M243.235 463.678C246.583 464.596 249.148 466.27 250.93 468.7C252.766 471.13 253.684 474.1 253.684 477.61C253.684 482.632 251.794 486.574 248.014 489.436C244.234 492.244 238.996 493.648 232.3 493.648C225.604 493.648 220.366 492.244 216.586 489.436C212.806 486.574 210.916 482.632 210.916 477.61C210.916 474.1 211.834 471.13 213.67 468.7C215.506 466.216 218.098 464.542 221.446 463.678C218.584 462.598 216.343 460.924 214.723 458.656C213.103 456.334 212.293 453.634 212.293 450.556C212.293 445.804 214.075 442.051 217.639 439.297C221.203 436.543 226.09 435.166 232.3 435.166C238.51 435.166 243.397 436.543 246.961 439.297C250.525 442.051 252.307 445.804 252.307 450.556C252.307 453.688 251.497 456.415 249.877 458.737C248.257 461.059 246.043 462.706 243.235 463.678ZM232.3 443.347C225.55 443.347 222.175 446.101 222.175 451.609C222.175 454.363 223.012 456.469 224.686 457.927C226.414 459.331 228.952 460.033 232.3 460.033C235.648 460.033 238.159 459.331 239.833 457.927C241.561 456.469 242.425 454.363 242.425 451.609C242.425 446.101 239.05 443.347 232.3 443.347ZM232.3 485.467C240.022 485.467 243.883 482.578 243.883 476.8C243.883 471.022 240.022 468.133 232.3 468.133C224.578 468.133 220.717 471.022 220.717 476.8C220.717 482.578 224.578 485.467 232.3 485.467ZM280.868 493.729C274.118 493.729 268.961 491.245 265.397 486.277C261.833 481.255 260.051 473.965 260.051 464.407C260.051 454.903 261.833 447.667 265.397 442.699C268.961 437.677 274.118 435.166 280.868 435.166C287.618 435.166 292.775 437.677 296.339 442.699C299.903 447.667 301.685 454.903 301.685 464.407C301.685 473.911 299.903 481.174 296.339 486.196C292.775 491.218 287.618 493.729 280.868 493.729ZM280.868 485.548C284.54 485.548 287.213 483.874 288.887 480.526C290.561 477.124 291.398 471.751 291.398 464.407C291.398 457.009 290.561 451.663 288.887 448.369C287.213 445.021 284.54 443.347 280.868 443.347C277.196 443.347 274.523 445.021 272.849 448.369C271.175 451.717 270.338 457.063 270.338 464.407C270.338 471.751 271.175 477.124 272.849 480.526C274.523 483.874 277.196 485.548 280.868 485.548ZM332.029 491.866C331.543 492.73 330.949 493.378 330.247 493.81C329.545 494.242 328.843 494.458 328.141 494.458C327.169 494.458 326.305 494.107 325.549 493.405C324.847 492.703 324.496 491.812 324.496 490.732C324.496 489.814 324.766 488.896 325.306 487.978L354.79 437.029C355.276 436.165 355.87 435.517 356.572 435.085C357.274 434.653 357.976 434.437 358.678 434.437C359.65 434.437 360.487 434.788 361.189 435.49C361.945 436.192 362.323 437.083 362.323 438.163C362.323 439.081 362.053 439.999 361.513 440.917L332.029 491.866ZM323.038 469.996C318.502 469.996 314.965 468.511 312.427 465.541C309.889 462.571 308.62 458.224 308.62 452.5C308.62 446.83 309.889 442.51 312.427 439.54C314.965 436.57 318.502 435.085 323.038 435.085C327.574 435.085 331.111 436.57 333.649 439.54C336.241 442.51 337.537 446.83 337.537 452.5C337.537 458.224 336.241 462.571 333.649 465.541C331.111 468.511 327.574 469.996 323.038 469.996ZM323.038 463.435C325.09 463.435 326.575 462.598 327.493 460.924C328.465 459.196 328.951 456.388 328.951 452.5C328.951 448.72 328.465 445.966 327.493 444.238C326.521 442.51 325.036 441.646 323.038 441.646C321.04 441.646 319.555 442.51 318.583 444.238C317.665 445.912 317.206 448.666 317.206 452.5C317.206 456.388 317.665 459.196 318.583 460.924C319.555 462.598 321.04 463.435 323.038 463.435ZM363.781 493.567C359.245 493.567 355.708 492.082 353.17 489.112C350.632 486.142 349.363 481.768 349.363 475.99C349.363 470.32 350.632 466.027 353.17 463.111C355.762 460.141 359.299 458.656 363.781 458.656C368.317 458.656 371.854 460.141 374.392 463.111C376.93 466.081 378.199 470.401 378.199 476.071C378.199 481.795 376.93 486.142 374.392 489.112C371.854 492.082 368.317 493.567 363.781 493.567ZM363.781 487.006C365.779 487.006 367.264 486.169 368.236 484.495C369.208 482.767 369.694 479.959 369.694 476.071C369.694 472.291 369.208 469.537 368.236 467.809C367.264 466.081 365.779 465.217 363.781 465.217C361.783 465.217 360.298 466.081 359.326 467.809C358.354 469.537 357.868 472.291 357.868 476.071C357.868 479.959 358.354 482.767 359.326 484.495C360.298 486.169 361.783 487.006 363.781 487.006Z" fill="#E26046"/>
<path d="M122.338 164.576C125.578 164.576 127.198 165.953 127.198 168.707C127.198 171.569 125.578 173 122.338 173H91.558C90.154 173 89.047 172.595 88.237 171.785C87.427 170.921 87.022 169.868 87.022 168.626C87.022 167.006 87.643 165.548 88.885 164.252L107.353 144.407C109.621 141.923 111.268 139.655 112.294 137.603C113.374 135.497 113.914 133.418 113.914 131.366C113.914 128.828 113.185 126.884 111.727 125.534C110.269 124.184 108.19 123.509 105.49 123.509C103.276 123.509 101.116 123.941 99.01 124.805C96.958 125.615 94.879 126.749 92.773 128.207C92.233 128.585 91.693 128.909 91.153 129.179C90.613 129.395 90.073 129.503 89.533 129.503C88.615 129.503 87.805 129.071 87.103 128.207C86.455 127.343 86.131 126.317 86.131 125.129C86.131 124.319 86.266 123.617 86.536 123.023C86.86 122.429 87.346 121.862 87.994 121.322C90.37 119.432 93.151 117.947 96.337 116.867C99.523 115.733 102.709 115.166 105.895 115.166C111.457 115.166 115.885 116.57 119.179 119.378C122.527 122.186 124.201 125.966 124.201 130.718C124.201 134.012 123.499 137.117 122.095 140.033C120.691 142.895 118.315 146.108 114.967 149.672L100.954 164.576H122.338ZM154.947 173.729C148.197 173.729 143.04 171.245 139.476 166.277C135.912 161.255 134.13 153.965 134.13 144.407C134.13 134.903 135.912 127.667 139.476 122.699C143.04 117.677 148.197 115.166 154.947 115.166C161.697 115.166 166.854 117.677 170.418 122.699C173.982 127.667 175.764 134.903 175.764 144.407C175.764 153.911 173.982 161.174 170.418 166.196C166.854 171.218 161.697 173.729 154.947 173.729ZM154.947 165.548C158.619 165.548 161.292 163.874 162.966 160.526C164.64 157.124 165.477 151.751 165.477 144.407C165.477 137.009 164.64 131.663 162.966 128.369C161.292 125.021 158.619 123.347 154.947 123.347C151.275 123.347 148.602 125.021 146.928 128.369C145.254 131.717 144.417 137.063 144.417 144.407C144.417 151.751 145.254 157.124 146.928 160.526C148.602 163.874 151.275 165.548 154.947 165.548ZM206.108 171.866C205.622 172.73 205.028 173.378 204.326 173.81C203.624 174.242 202.922 174.458 202.22 174.458C201.248 174.458 200.384 174.107 199.628 173.405C198.926 172.703 198.575 171.812 198.575 170.732C198.575 169.814 198.845 168.896 199.385 167.978L228.869 117.029C229.355 116.165 229.949 115.517 230.651 115.085C231.353 114.653 232.055 114.437 232.757 114.437C233.729 114.437 234.566 114.788 235.268 115.49C236.024 116.192 236.402 117.083 236.402 118.163C236.402 119.081 236.132 119.999 235.592 120.917L206.108 171.866ZM197.117 149.996C192.581 149.996 189.044 148.511 186.506 145.541C183.968 142.571 182.699 138.224 182.699 132.5C182.699 126.83 183.968 122.51 186.506 119.54C189.044 116.57 192.581 115.085 197.117 115.085C201.653 115.085 205.19 116.57 207.728 119.54C210.32 122.51 211.616 126.83 211.616 132.5C211.616 138.224 210.32 142.571 207.728 145.541C205.19 148.511 201.653 149.996 197.117 149.996ZM197.117 143.435C199.169 143.435 200.654 142.598 201.572 140.924C202.544 139.196 203.03 136.388 203.03 132.5C203.03 128.72 202.544 125.966 201.572 124.238C200.6 122.51 199.115 121.646 197.117 121.646C195.119 121.646 193.634 122.51 192.662 124.238C191.744 125.912 191.285 128.666 191.285 132.5C191.285 136.388 191.744 139.196 192.662 140.924C193.634 142.598 195.119 143.435 197.117 143.435ZM237.86 173.567C233.324 173.567 229.787 172.082 227.249 169.112C224.711 166.142 223.442 161.768 223.442 155.99C223.442 150.32 224.711 146.027 227.249 143.111C229.841 140.141 233.378 138.656 237.86 138.656C242.396 138.656 245.933 140.141 248.471 143.111C251.009 146.081 252.278 150.401 252.278 156.071C252.278 161.795 251.009 166.142 248.471 169.112C245.933 172.082 242.396 173.567 237.86 173.567ZM237.86 167.006C239.858 167.006 241.343 166.169 242.315 164.495C243.287 162.767 243.773 159.959 243.773 156.071C243.773 152.291 243.287 149.537 242.315 147.809C241.343 146.081 239.858 145.217 237.86 145.217C235.862 145.217 234.377 146.081 233.405 147.809C232.433 149.537 231.947 152.291 231.947 156.071C231.947 159.959 232.433 162.767 233.405 164.495C234.377 166.169 235.862 167.006 237.86 167.006Z" fill="#FFF2E6"/>
</svg>
