<svg width="226" height="63" viewBox="0 0 226 63" fill="none" xmlns="http://www.w3.org/2000/svg">
<path d="M50.8498 26.2058L48.5898 17.369L56.6505 18.4355L52.8085 25.2917C56.6505 26.3582 59.9651 28.7959 62.3005 31.9954L65.5398 26.2058L68.1765 21.4827C69.6078 18.7403 68.6285 15.236 65.9165 13.7125C63.1291 12.1127 59.6638 13.103 58.0818 15.9216L58.0065 16.074L47.3091 14.3219C47.2338 14.3219 47.0831 14.2457 46.9325 14.2457C46.7818 14.2457 46.6311 14.2457 46.4805 14.3219C45.8778 14.5504 45.6518 15.236 45.8778 15.8455L48.2131 25.9773C48.1378 25.9773 48.0625 25.9773 47.9871 25.9773C38.9471 25.9773 31.5645 33.4428 31.5645 42.5843C31.5645 51.7258 38.9471 59.1913 47.9871 59.1913C57.0271 59.1913 64.4098 51.7258 64.4098 42.5843C64.4098 34.357 58.5338 27.577 50.8498 26.2058ZM47.9871 54.6967C41.3578 54.6967 36.0091 49.288 36.0091 42.5843C36.0091 35.8805 41.3578 30.4718 47.9871 30.4718C54.6165 30.4718 59.9651 35.8805 59.9651 42.5843C59.9651 49.288 54.6165 54.6967 47.9871 54.6967Z" fill="#426262"/>
<path d="M69.7585 12.6457C73.2239 12.6457 76.0112 9.82709 76.0112 6.32285C76.0112 2.81862 73.2239 0 69.7585 0C66.2932 0 63.5059 2.81862 63.5059 6.32285C63.5059 9.82709 66.2932 12.6457 69.7585 12.6457Z" fill="#426262"/>
<path d="M10.3208 17.8262C10.4715 17.9786 10.6221 18.131 10.7728 18.2833C10.9235 18.4357 11.1495 18.588 11.3755 18.8166C11.6015 18.9689 11.9028 19.1213 12.2041 19.3498C12.8068 19.6545 13.5601 20.0354 14.3888 20.1878C15.2175 20.3401 16.1968 20.4925 17.2515 20.3401C18.1555 20.1878 19.0595 20.0354 20.1141 19.8831C21.0935 19.7307 22.0728 19.6545 23.1275 19.5784C23.6548 19.5784 24.1821 19.5022 24.6341 19.5022L25.3875 19.426C25.6135 19.426 25.9148 19.426 26.1408 19.426C26.6681 19.426 27.1955 19.426 27.7228 19.426C28.2501 19.426 28.7775 19.426 29.2295 19.426C29.4555 19.426 29.7568 19.426 29.9828 19.426C30.2088 19.426 30.5101 19.426 30.7361 19.5022C30.9621 19.5022 31.2635 19.5022 31.4895 19.5784C31.7155 19.5784 32.0168 19.5784 32.2428 19.6545C32.6948 19.7307 33.2221 19.7307 33.6741 19.8069C34.1261 19.8831 34.5781 19.9592 35.0301 19.9592C35.4821 20.0354 35.9341 20.1116 36.3108 20.1878C36.7628 20.264 37.1395 20.3401 37.5161 20.4163C37.8928 20.4925 38.2695 20.5687 38.6461 20.6449C39.0228 20.721 39.3241 20.7972 39.6255 20.8734C40.2281 21.0258 40.8308 21.1781 41.2075 21.3305C41.6595 21.4828 42.0361 21.559 42.2621 21.6352C42.4881 21.7114 42.6388 21.7875 42.6388 21.7875C42.6388 21.7875 42.5635 21.7114 42.3375 21.559C42.2621 21.4828 42.1115 21.4066 41.9608 21.2543C41.8101 21.1781 41.6595 21.0258 41.4335 20.8734C41.0568 20.6449 40.5295 20.3401 39.9268 20.0354C39.6255 19.8831 39.3241 19.7307 38.9475 19.5784C38.6461 19.426 38.2695 19.2736 37.8928 19.1213C37.5161 18.9689 37.1395 18.8166 36.6875 18.6642C36.2355 18.5118 35.8588 18.3595 35.4068 18.2833C34.9548 18.131 34.5028 18.0548 33.9755 17.9024C33.5235 17.8262 32.9961 17.6739 32.4688 17.5977C31.9415 17.5215 31.4141 17.4453 30.8868 17.3692C30.6608 17.3692 30.3595 17.293 30.1335 17.293C29.8321 17.293 29.6061 17.293 29.3048 17.2168C28.7775 17.2168 28.2501 17.1406 27.6475 17.1406C27.1201 17.1406 26.5175 17.1406 25.9901 17.1406C25.6888 17.1406 25.4628 17.1406 25.1615 17.1406L24.3328 17.2168C23.8055 17.293 23.2781 17.293 22.7508 17.3692C22.2235 17.4453 21.6961 17.5215 21.1688 17.5977C20.9428 17.6739 20.6415 17.6739 20.4155 17.7501C20.1895 17.8262 19.8881 17.8262 19.6621 17.9024C19.1348 18.0548 18.6828 18.131 18.2308 18.2833C18.0048 18.3595 17.7788 18.4357 17.5528 18.4357C17.4021 18.4357 17.3268 18.5118 17.1761 18.5118H17.1008H17.0255L16.8748 18.588C16.4981 18.6642 16.1215 18.7404 15.7448 18.8166C15.3681 18.8927 14.9915 18.8927 14.6148 18.8166C13.8615 18.8166 13.1835 18.6642 12.5808 18.5118C12.2795 18.4357 11.9781 18.3595 11.7521 18.2071C11.5261 18.131 11.2248 18.0548 11.0741 17.9024C10.8481 17.8262 10.6975 17.7501 10.5468 17.6739C10.3961 17.5977 10.2455 17.5215 10.1701 17.4453C9.94412 17.293 9.79346 17.293 9.79346 17.293C9.79346 17.293 9.86879 17.3692 10.0195 17.5977C10.0948 17.5215 10.1701 17.6739 10.3208 17.8262Z" fill="#426262"/>
<path d="M16.6487 26.8908C16.95 26.8908 17.176 26.8908 17.4773 26.8908C18.0047 26.8908 18.6073 26.8908 19.1347 26.8908C19.662 26.8908 20.2647 26.8908 20.792 26.967C21.0933 26.967 21.3193 26.967 21.6207 26.967C21.922 26.967 22.148 26.967 22.4493 27.0432C22.7507 27.0432 22.9767 27.0432 23.278 27.1194C23.504 27.1194 23.8053 27.1194 24.0313 27.1956C24.5587 27.2717 25.086 27.3479 25.538 27.3479C26.0653 27.4241 26.5173 27.5003 26.9693 27.5765C27.1953 27.5765 27.4213 27.6526 27.6473 27.6526C27.8733 27.7288 28.0993 27.7288 28.3253 27.805C28.7773 27.8812 29.2293 27.9573 29.606 28.0335C29.9827 28.1097 30.4347 28.1859 30.8113 28.2621C31.188 28.3382 31.5647 28.4144 31.866 28.4906C32.544 28.643 33.1467 28.7953 33.5987 28.9477C34.0507 29.1 34.4273 29.1762 34.7287 29.3286C34.9547 29.4047 35.1053 29.4809 35.1053 29.4809C35.1053 29.4809 35.03 29.4047 34.804 29.2524C34.7287 29.1762 34.578 29.1 34.4273 28.9477C34.2767 28.7953 34.0507 28.7191 33.8247 28.5668C33.3727 28.2621 32.8453 27.9573 32.2427 27.6526C31.9413 27.5003 31.5647 27.3479 31.188 27.1956C30.8113 27.0432 30.4347 26.8908 30.058 26.7385C29.6813 26.5861 29.2293 26.4338 28.7773 26.2814C28.3253 26.129 27.8733 25.9767 27.4213 25.8243C26.9693 25.672 26.442 25.5196 25.9147 25.4434C25.3873 25.2911 24.86 25.2149 24.3327 25.1387C23.8053 25.0625 23.278 24.9864 22.6753 24.9102C22.374 24.9102 22.148 24.834 21.8467 24.834C21.5453 24.834 21.244 24.7578 21.018 24.7578C20.4153 24.7578 19.888 24.6816 19.2853 24.6816C18.6827 24.6816 18.1553 24.6816 17.5527 24.6816C17.2513 24.6816 16.95 24.6816 16.6487 24.6816L15.7447 24.7578C15.142 24.834 14.6147 24.834 14.012 24.9102C13.4093 24.9864 12.882 25.0625 12.3547 25.2149C12.0533 25.2911 11.8273 25.2911 11.526 25.3673C11.2247 25.4434 10.9987 25.4434 10.6973 25.5196C10.17 25.672 9.64267 25.7482 9.11533 25.9005C8.88933 25.9767 8.588 26.0529 8.362 26.129C8.21133 26.129 8.136 26.2052 7.98533 26.2052H7.91H7.83467L7.684 26.2814C7.30733 26.4338 6.85533 26.4338 6.40333 26.5099C5.95133 26.5861 5.57467 26.5861 5.198 26.5099C4.44467 26.5099 3.69133 26.3576 3.01333 26.129C2.712 26.0529 2.41067 25.9767 2.10933 25.8243C1.808 25.7482 1.582 25.5958 1.356 25.5196C1.13 25.4434 0.904 25.2911 0.753333 25.2149C0.602667 25.1387 0.452 25.0625 0.301333 24.9864C0.150667 24.6816 0 24.6055 0 24.6055C0 24.6055 0.0753333 24.6816 0.301333 24.9102C0.376667 24.9864 0.527333 25.1387 0.678 25.2911C0.828667 25.4434 0.979333 25.5958 1.20533 25.7482C1.28067 25.9005 1.50667 26.0529 1.808 26.2814C2.034 26.5099 2.33533 26.6623 2.63667 26.8147C3.31467 27.1956 4.068 27.5003 4.972 27.7288C5.876 27.9573 6.85533 28.0335 7.98533 27.8812C8.96467 27.7288 9.944 27.5764 10.9987 27.4241C12.0533 27.2717 13.108 27.1956 14.1627 27.0432C14.69 27.0432 15.2927 26.967 15.82 26.967L16.6487 26.8908Z" fill="#426262"/>
<path d="M30.3591 35.7287C30.2085 35.5764 29.9071 35.424 29.6811 35.1955C29.5305 35.1193 29.3798 35.0431 29.2291 34.8908C29.0785 34.8146 28.8525 34.7384 28.7018 34.5861C28.3251 34.4337 27.9485 34.2052 27.4965 34.0528C27.2705 33.9766 27.0445 33.9005 26.8185 33.8243C26.5925 33.7481 26.2911 33.6719 26.0651 33.5957C25.8391 33.5196 25.5378 33.5196 25.3118 33.4434C25.1611 33.4434 25.0105 33.3672 24.9351 33.3672C24.7845 33.3672 24.6338 33.3672 24.5585 33.291C24.2571 33.291 24.0311 33.2148 23.7298 33.2148C23.4285 33.2148 23.2025 33.2148 22.9011 33.2148C22.5998 33.2148 22.3738 33.2148 22.0725 33.291C21.7711 33.291 21.5451 33.3672 21.2438 33.3672C20.9425 33.4434 20.7165 33.4434 20.4151 33.5196C20.1891 33.5957 19.8878 33.5957 19.6618 33.6719C19.4358 33.7481 19.1345 33.8243 18.9085 33.9005C18.7578 33.9766 18.6825 33.9766 18.5318 34.0528L18.3811 34.129H18.3058H18.2305C17.9291 34.2813 17.5525 34.3575 17.2511 34.3575C16.9498 34.3575 16.5731 34.3575 16.2718 34.3575C15.9705 34.3575 15.7445 34.2813 15.5185 34.2052C15.4431 34.2052 15.2925 34.129 15.2171 34.129C15.1418 34.129 15.0665 34.0528 14.9911 34.0528C14.8405 33.9766 14.7651 33.9766 14.7651 33.9766C14.7651 33.9766 14.7651 34.0528 14.8405 34.129C14.9158 34.2052 14.9911 34.4337 15.2171 34.5861C15.3678 34.8146 15.5938 34.967 15.8951 35.1955C16.1965 35.424 16.5731 35.5764 17.0251 35.7287C17.4771 35.8811 18.0045 35.9573 18.5318 35.8811H18.6825H18.7578H18.6825H18.8331C18.9085 35.8811 19.0591 35.8811 19.1345 35.8811C19.3605 35.8811 19.5865 35.8049 19.8125 35.8049C20.2645 35.7287 20.7918 35.7287 21.2438 35.7287C21.4698 35.7287 21.6958 35.7287 21.9971 35.7287C22.2231 35.7287 22.5245 35.7287 22.7505 35.7287C22.9765 35.7287 23.2778 35.7287 23.5038 35.7287C23.7298 35.7287 24.0311 35.7287 24.2571 35.7287C24.7091 35.7287 25.2365 35.7287 25.6885 35.7287C25.9145 35.7287 26.1405 35.7287 26.3665 35.7287C26.5925 35.7287 26.8185 35.7287 27.0445 35.8049C27.2705 35.8049 27.4965 35.8049 27.6471 35.8811C27.8731 35.8811 28.0238 35.8811 28.2498 35.9573C28.6265 35.9573 29.0031 36.0335 29.3045 36.0335C29.6058 36.1096 29.9071 36.1096 30.1331 36.1096C30.5851 36.1858 30.8865 36.1858 30.8865 36.1858C30.8865 36.1858 30.8111 36.1096 30.7358 36.0335C30.7358 36.0335 30.5851 35.8811 30.3591 35.7287Z" fill="#426262"/>
<path d="M69.9093 34.3575C69.8339 34.3575 69.8339 34.3575 69.9093 34.3575C69.3066 33.6719 68.4026 33.2148 67.3479 33.2148H63.2046C64.4099 35.2717 65.3139 37.6332 65.6153 40.1471H67.3479C67.4233 40.1471 67.4986 40.1471 67.5739 40.1471L79.8533 54.2402C80.5313 55.3829 81.9626 55.7638 83.0926 55.0782C84.2226 54.3926 84.5993 52.9452 83.9213 51.8025L69.9093 34.3575Z" fill="#426262"/>
<path d="M93.7902 35.5749H85.4282V27.8809H81.9629V47.9921H85.4282V38.8506H93.7902V47.9921H97.2556V27.8809H93.7902V35.5749Z" fill="#426262"/>
<path d="M112.85 47.9927V35.4994L110.59 36.7944C109.61 35.6517 107.953 35.1185 105.693 35.1946C103.81 35.1946 102.303 35.8041 101.098 37.0991C99.8922 38.318 99.2896 39.9177 99.2896 41.746C99.2896 43.6505 99.8922 45.2503 101.098 46.5453C102.303 47.8403 103.81 48.4498 105.693 48.4498C107.124 48.4498 108.405 47.9927 109.384 47.0024V47.9927H112.85ZM108.556 44.4123C107.953 45.0979 107.049 45.4788 105.994 45.4788C105.09 45.4788 104.262 45.0979 103.659 44.2599C103.056 43.4981 102.755 42.6602 102.755 41.6699C102.755 40.6795 103.056 39.8416 103.734 39.0798C104.337 38.3942 105.166 38.0133 106.145 38.0133C107.124 38.0133 107.953 38.318 108.556 39.0036C109.158 39.6892 109.46 40.5272 109.46 41.5937C109.535 42.7364 109.234 43.6505 108.556 44.4123Z" fill="#426262"/>
<path d="M118.424 41.2135C118.424 39.1566 119.253 38.0901 120.91 38.0901C121.814 38.0901 122.417 38.3186 122.718 38.6995C122.944 39.0804 123.095 39.6899 123.095 40.604V47.9934H126.485V40.604C126.485 36.9474 124.602 35.1953 120.835 35.1953C119.178 35.2715 117.897 35.8809 116.842 37.0236L115.034 35.4238V47.9934H118.424V41.2135Z" fill="#426262"/>
<path d="M142.079 27.957H138.764V35.6511C138.011 35.1179 137.333 34.8131 136.73 34.737C136.203 34.6608 135.6 34.5846 134.997 34.5846C133.114 34.5846 131.532 35.2702 130.402 36.5653C129.272 37.8603 128.669 39.5362 128.669 41.5169C128.669 43.4214 129.272 45.0211 130.553 46.3162C131.758 47.6112 133.34 48.2968 135.148 48.2968C137.483 48.4492 139.216 47.8397 140.271 46.5447L142.079 48.0683V27.957ZM137.86 44.3355C137.257 45.0211 136.353 45.3258 135.299 45.3258C134.319 45.3258 133.491 44.9449 132.963 44.1831C132.361 43.4975 132.135 42.6596 132.135 41.5931C132.135 40.5266 132.436 39.6124 132.963 38.9268C133.566 38.165 134.395 37.7079 135.374 37.7079C136.504 37.7079 137.333 38.0888 137.935 38.7744C138.538 39.5362 138.839 40.4504 138.839 41.5169C138.839 42.7357 138.538 43.6499 137.86 44.3355Z" fill="#426262"/>
<path d="M148.105 28.5664H144.64V32.1468H148.105V28.5664Z" fill="#426262"/>
<path d="M148.181 35.1191H144.791V47.9934H148.181V35.1191Z" fill="#426262"/>
<path d="M157.296 35.1953C155.111 35.3477 153.605 35.9571 152.776 37.176L150.893 35.5V55.1542H154.283V47.3839C155.337 48.2981 156.618 48.8313 158.125 48.8313C159.933 48.8313 161.439 48.1457 162.645 46.7745C163.699 45.4795 164.302 43.8797 164.302 41.9752C164.302 40.0708 163.775 38.471 162.645 37.2521C161.439 35.8047 159.631 35.1953 157.296 35.1953ZM159.405 45.1748C159.029 45.4795 158.652 45.5557 158.275 45.6318C157.748 45.708 157.522 45.708 157.447 45.708C156.467 45.708 155.639 45.2509 155.111 44.4891C154.584 43.8035 154.283 42.8894 154.283 41.8229C154.283 40.8326 154.584 39.9184 155.187 39.2328C155.789 38.471 156.543 38.1663 157.522 38.1663C158.577 38.1663 159.405 38.5472 160.083 39.2328C160.686 39.9184 161.063 40.8326 161.063 41.8991C160.912 43.3465 160.385 44.4891 159.405 45.1748Z" fill="#426262"/>
<path d="M169.952 27.957H166.562V47.9921H170.027L169.952 27.957Z" fill="#426262"/>
<path d="M182.382 47.0024V47.9927H185.772V35.4994L183.512 36.7944C182.533 35.6517 180.875 35.1185 178.615 35.1946C176.732 35.1946 175.225 35.8041 174.02 37.0991C172.815 38.318 172.212 39.9177 172.212 41.746C172.212 43.6505 172.815 45.2503 174.02 46.5453C175.225 47.8403 176.732 48.4498 178.615 48.4498C180.122 48.4498 181.327 47.9927 182.382 47.0024ZM176.581 44.2599C175.979 43.4981 175.677 42.6602 175.677 41.6699C175.677 40.6795 175.979 39.8416 176.657 39.0798C177.259 38.3942 178.088 38.0133 179.067 38.0133C180.047 38.0133 180.875 38.318 181.478 39.0036C182.081 39.6892 182.382 40.5272 182.382 41.5937C182.382 42.7364 182.081 43.5743 181.403 44.3361C180.8 45.0217 179.896 45.4026 178.841 45.4026C178.013 45.4788 177.184 45.0979 176.581 44.2599Z" fill="#426262"/>
<path d="M193.682 35.1953C192.025 35.2715 190.744 35.8809 189.689 37.0236L187.881 35.4238V47.9934H191.271V41.2135C191.271 39.1566 192.1 38.0901 193.757 38.0901C194.661 38.0901 195.264 38.3186 195.565 38.6995C195.791 39.0804 195.942 39.6899 195.942 40.604V47.9934H199.332V40.604C199.407 36.9474 197.524 35.1953 193.682 35.1953Z" fill="#426262"/>
<path d="M213.42 47.5357C214.324 46.9262 215.077 46.2406 215.755 45.3265L212.968 44.0314C212.214 45.0979 210.934 45.6312 209.276 45.6312C206.79 45.4788 205.284 44.4885 204.832 42.584H216.433C216.433 40.5272 215.755 38.7751 214.324 37.1753C212.892 35.6517 211.084 34.89 208.9 34.9661C206.715 34.9661 204.982 35.7279 203.551 37.1753C202.12 38.6227 201.517 40.0701 201.668 41.5175C201.592 43.5744 202.12 45.1741 203.4 46.3168C204.606 47.688 206.564 48.3736 209.276 48.2975C211.16 48.3736 212.516 48.1451 213.42 47.5357ZM209.126 37.8609C211.084 38.0133 212.365 38.8513 213.118 40.451H204.832C205.585 38.9274 207.016 38.0133 209.126 37.8609Z" fill="#426262"/>
<path d="M223.665 35.1938V30.6992H220.275V35.1938L218.542 38.3171H220.275V47.9918H223.665V38.3171H226V35.1938H223.665Z" fill="#426262"/>
</svg>
