<svg width="65" height="64" viewBox="0 0 65 64" fill="none" xmlns="http://www.w3.org/2000/svg">
<path d="M32.5 61C48.7924 61 62 48.0163 62 32C62 15.9837 48.7924 3 32.5 3C16.2076 3 3 15.9837 3 32C3 48.0163 16.2076 61 32.5 61Z" stroke="black" stroke-width="6"/>
<path d="M22.1894 41C26.5334 41 30.1756 38.0219 31.1113 34.029H26.7338C25.9319 35.731 24.1942 36.9091 22.1892 36.9091C19.4156 36.9091 17.1768 34.7163 17.1768 31.9999C17.1768 29.2836 19.4156 27.0909 22.1892 27.0909C24.1941 27.0909 25.9319 28.2691 26.7338 29.9382H31.1113C30.1757 25.9782 26.5334 23 22.1894 23C17.1101 23 13 27.0255 13 31.9998C13 36.9745 17.1101 41 22.1894 41V41ZM42.078 41C46.4221 41 50.0644 38.0219 51 34.029H46.6226C45.8203 35.731 44.0829 36.9091 42.0779 36.9091C39.3042 36.9091 37.0653 34.7163 37.0653 31.9999C37.0653 29.2836 39.3042 27.0909 42.0779 27.0909C44.0827 27.0909 45.8203 28.2691 46.6226 29.9382H51C50.0645 25.9782 46.4221 23 42.078 23C36.9989 23 32.8888 27.0255 32.8888 31.9998C32.8887 36.9745 36.9988 41 42.078 41Z" fill="black"/>
</svg>
