<svg width="699" height="193" viewBox="0 0 699 193" fill="none" xmlns="http://www.w3.org/2000/svg">
<g clip-path="url(#clip0)">
<path d="M157.275 80.2805L150.285 53.2092L175.216 56.4764L163.333 77.48C175.216 80.7473 185.468 88.2152 192.691 98.0169L202.71 80.2805L210.865 65.8113C215.292 57.4099 212.263 46.6747 203.875 42.0072C195.254 37.1064 184.536 40.1402 179.643 48.7751L179.41 49.2418L146.324 43.8742C146.091 43.8742 145.625 43.6408 145.159 43.6408C144.693 43.6408 144.227 43.6408 143.761 43.8742C141.897 44.5743 141.198 46.6747 141.897 48.5417L149.12 79.5804C148.887 79.5804 148.654 79.5804 148.421 79.5804C120.461 79.5804 97.627 102.451 97.627 130.456C97.627 158.461 120.461 181.331 148.421 181.331C176.381 181.331 199.215 158.461 199.215 130.456C199.215 105.251 181.041 84.4812 157.275 80.2805ZM148.421 167.562C127.917 167.562 111.374 150.993 111.374 130.456C111.374 109.919 127.917 93.3494 148.421 93.3494C168.925 93.3494 185.468 109.919 185.468 130.456C185.468 150.993 168.925 167.562 148.421 167.562Z" fill="white"/>
<path d="M215.758 38.74C226.476 38.74 235.097 30.1052 235.097 19.37C235.097 8.63483 226.476 0 215.758 0C205.04 0 196.419 8.63483 196.419 19.37C196.419 30.1052 205.04 38.74 215.758 38.74Z" fill="white"/>
<path d="M31.921 54.6094C32.387 55.0761 32.853 55.5429 33.319 56.0096C33.785 56.4764 34.484 56.9431 35.183 57.6433C35.882 58.11 36.814 58.5767 37.746 59.2769C39.61 60.2104 41.94 61.3772 44.503 61.844C47.066 62.3107 50.095 62.7775 53.357 62.3107C56.153 61.844 58.949 61.3772 62.211 60.9105C65.24 60.4437 68.269 60.2104 71.531 59.977C73.162 59.977 74.793 59.7436 76.191 59.7436L78.521 59.5102C79.22 59.5102 80.152 59.5102 80.851 59.5102C82.482 59.5102 84.113 59.5102 85.744 59.5102C87.375 59.5102 89.006 59.5102 90.404 59.5102C91.103 59.5102 92.035 59.5102 92.734 59.5102C93.433 59.5102 94.365 59.5102 95.064 59.7436C95.763 59.7436 96.695 59.7436 97.394 59.977C98.093 59.977 99.025 59.977 99.724 60.2104C101.122 60.4437 102.753 60.4437 104.151 60.6771C105.549 60.9105 106.947 61.1439 108.345 61.1439C109.743 61.3772 111.141 61.6106 112.306 61.844C113.704 62.0774 114.869 62.3107 116.034 62.5441C117.199 62.7775 118.364 63.0108 119.529 63.2442C120.694 63.4776 121.626 63.711 122.558 63.9443C124.422 64.4111 126.286 64.8778 127.451 65.3446C128.849 65.8113 130.014 66.0447 130.713 66.2781C131.412 66.5115 131.878 66.7448 131.878 66.7448C131.878 66.7448 131.645 66.5115 130.946 66.0447C130.713 65.8113 130.247 65.578 129.781 65.1112C129.315 64.8778 128.849 64.4111 128.15 63.9443C126.985 63.2442 125.354 62.3107 123.49 61.3772C122.558 60.9105 121.626 60.4437 120.461 59.977C119.529 59.5102 118.364 59.0435 117.199 58.5767C116.034 58.11 114.869 57.6433 113.471 57.1765C112.073 56.7098 110.908 56.243 109.51 56.0096C108.112 55.5429 106.714 55.3095 105.083 54.8428C103.685 54.6094 102.054 54.1426 100.423 53.9093C98.792 53.6759 97.161 53.4425 95.53 53.2092C94.831 53.2092 93.899 52.9758 93.2 52.9758C92.268 52.9758 91.569 52.9758 90.637 52.7424C89.006 52.7424 87.375 52.509 85.511 52.509C83.88 52.509 82.016 52.509 80.385 52.509C79.453 52.509 78.754 52.509 77.822 52.509L75.259 52.7424C73.628 52.9758 71.997 52.9758 70.366 53.2092C68.735 53.4425 67.104 53.6759 65.473 53.9093C64.774 54.1426 63.842 54.1426 63.143 54.376C62.444 54.6094 61.512 54.6094 60.813 54.8428C59.182 55.3095 57.784 55.5429 56.386 56.0096C55.687 56.243 54.988 56.4764 54.289 56.4764C53.823 56.4764 53.59 56.7098 53.124 56.7098H52.891H52.658L52.192 56.9431C51.027 57.1765 49.862 57.4099 48.697 57.6433C47.532 57.8766 46.367 57.8766 45.202 57.6433C42.872 57.6433 40.775 57.1765 38.911 56.7098C37.979 56.4764 37.047 56.243 36.348 55.7763C35.649 55.5429 34.717 55.3095 34.251 54.8428C33.552 54.6094 33.086 54.376 32.62 54.1427C32.154 53.9093 31.688 53.6759 31.455 53.4425C30.756 52.9758 30.29 52.9758 30.29 52.9758C30.29 52.9758 30.523 53.2092 30.989 53.9093C31.222 53.6759 31.455 54.1426 31.921 54.6094Z" fill="white"/>
<path d="M51.493 82.3808C52.425 82.3808 53.124 82.3808 54.056 82.3808C55.687 82.3808 57.551 82.3808 59.182 82.3808C60.813 82.3808 62.677 82.3809 64.308 82.6142C65.24 82.6142 65.939 82.6142 66.871 82.6142C67.803 82.6142 68.502 82.6142 69.434 82.8476C70.366 82.8476 71.065 82.8476 71.997 83.081C72.696 83.081 73.628 83.081 74.327 83.3143C75.958 83.5477 77.589 83.7811 78.987 83.7811C80.618 84.0145 82.016 84.2478 83.414 84.4812C84.113 84.4812 84.812 84.7146 85.511 84.7146C86.21 84.948 86.909 84.948 87.608 85.1813C89.006 85.4147 90.404 85.6481 91.569 85.8815C92.734 86.1148 94.132 86.3482 95.297 86.5816C96.462 86.8149 97.627 87.0483 98.559 87.2817C100.656 87.7484 102.52 88.2152 103.918 88.6819C105.316 89.1487 106.481 89.3821 107.413 89.8488C108.112 90.0822 108.578 90.3156 108.578 90.3156C108.578 90.3156 108.345 90.0822 107.646 89.6154C107.413 89.3821 106.947 89.1487 106.481 88.6819C106.015 88.2152 105.316 87.9818 104.617 87.5151C103.219 86.5816 101.588 85.6481 99.724 84.7146C98.792 84.2478 97.627 83.7811 96.462 83.3143C95.297 82.8476 94.132 82.3808 92.967 81.9141C91.802 81.4474 90.404 80.9806 89.006 80.5139C87.608 80.0471 86.21 79.5804 84.812 79.1136C83.414 78.6469 81.783 78.1801 80.152 77.9468C78.521 77.48 76.89 77.2466 75.259 77.0133C73.628 76.7799 71.997 76.5465 70.133 76.3131C69.201 76.3131 68.502 76.0798 67.57 76.0798C66.638 76.0798 65.706 75.8464 65.007 75.8464C63.143 75.8464 61.512 75.613 59.648 75.613C57.784 75.613 56.153 75.613 54.289 75.613C53.357 75.613 52.425 75.613 51.493 75.613L48.697 75.8464C46.833 76.0798 45.202 76.0798 43.338 76.3131C41.474 76.5465 39.843 76.7799 38.212 77.2466C37.28 77.48 36.581 77.48 35.649 77.7134C34.717 77.9467 34.018 77.9467 33.086 78.1801C31.455 78.6469 29.824 78.8802 28.193 79.347C27.494 79.5804 26.562 79.8137 25.863 80.0471C25.397 80.0471 25.164 80.2805 24.698 80.2805H24.465H24.232L23.766 80.5139C22.601 80.9806 21.203 80.9806 19.805 81.214C18.407 81.4474 17.242 81.4474 16.077 81.214C13.747 81.214 11.417 80.7472 9.32 80.0471C8.388 79.8137 7.456 79.5804 6.524 79.1136C5.592 78.8802 4.893 78.4135 4.194 78.1801C3.495 77.9467 2.796 77.48 2.33 77.2466C1.864 77.0133 1.398 76.7799 0.932 76.5465C0.466 75.613 0 75.3796 0 75.3796C0 75.3796 0.233 75.613 0.932 76.3131C1.165 76.5465 1.631 77.0133 2.097 77.48C2.563 77.9468 3.029 78.4135 3.728 78.8802C3.961 79.347 4.66 79.8137 5.592 80.5139C6.291 81.214 7.223 81.6807 8.155 82.1475C10.252 83.3143 12.582 84.2478 15.378 84.948C18.174 85.6481 21.203 85.8814 24.698 85.4147C27.727 84.948 30.756 84.4812 34.018 84.0145C37.28 83.5477 40.542 83.3143 43.804 82.8476C45.435 82.8476 47.299 82.6142 48.93 82.6142L51.493 82.3808Z" fill="white"/>
<path d="M93.899 109.452C93.433 108.985 92.501 108.519 91.802 107.819C91.336 107.585 90.87 107.352 90.404 106.885C89.938 106.652 89.239 106.418 88.773 105.952C87.608 105.485 86.443 104.785 85.045 104.318C84.346 104.085 83.647 103.851 82.948 103.618C82.249 103.384 81.317 103.151 80.618 102.918C79.919 102.684 78.987 102.684 78.288 102.451C77.822 102.451 77.356 102.218 77.123 102.218C76.657 102.218 76.191 102.218 75.958 101.984C75.026 101.984 74.327 101.751 73.395 101.751C72.463 101.751 71.764 101.751 70.832 101.751C69.9 101.751 69.201 101.751 68.269 101.984C67.337 101.984 66.638 102.218 65.706 102.218C64.774 102.451 64.075 102.451 63.143 102.684C62.444 102.918 61.512 102.918 60.813 103.151C60.114 103.384 59.182 103.618 58.483 103.851C58.017 104.085 57.784 104.085 57.318 104.318L56.852 104.551H56.619H56.386C55.454 105.018 54.289 105.251 53.357 105.251C52.425 105.251 51.26 105.251 50.328 105.251C49.396 105.251 48.697 105.018 47.998 104.785C47.765 104.785 47.299 104.551 47.066 104.551C46.833 104.551 46.6 104.318 46.367 104.318C45.901 104.085 45.668 104.085 45.668 104.085C45.668 104.085 45.668 104.318 45.901 104.551C46.134 104.785 46.367 105.485 47.066 105.952C47.532 106.652 48.231 107.118 49.163 107.819C50.095 108.519 51.26 108.985 52.658 109.452C54.056 109.919 55.687 110.152 57.318 109.919H57.784H58.017H57.784H58.25C58.483 109.919 58.949 109.919 59.182 109.919C59.881 109.919 60.58 109.686 61.279 109.686C62.677 109.452 64.308 109.452 65.706 109.452C66.405 109.452 67.104 109.452 68.036 109.452C68.735 109.452 69.667 109.452 70.366 109.452C71.065 109.452 71.997 109.452 72.696 109.452C73.395 109.452 74.327 109.452 75.026 109.452C76.424 109.452 78.055 109.452 79.453 109.452C80.152 109.452 80.851 109.452 81.55 109.452C82.249 109.452 82.948 109.452 83.647 109.686C84.346 109.686 85.045 109.686 85.511 109.919C86.21 109.919 86.676 109.919 87.375 110.152C88.54 110.152 89.705 110.386 90.637 110.386C91.569 110.619 92.501 110.619 93.2 110.619C94.598 110.852 95.53 110.852 95.53 110.852C95.53 110.852 95.297 110.619 95.064 110.386C95.064 110.386 94.598 109.919 93.899 109.452Z" fill="white"/>
<path d="M216.224 105.251C215.991 105.251 215.991 105.251 216.224 105.251C214.36 103.151 211.564 101.751 208.302 101.751H195.487C199.215 108.052 202.011 115.287 202.943 122.988H208.302C208.535 122.988 208.768 122.988 209.001 122.988L246.98 166.162C249.077 169.663 253.504 170.829 256.999 168.729C260.494 166.629 261.659 162.195 259.562 158.694L216.224 105.251Z" fill="white"/>
<path d="M290.085 108.986H264.222V85.4148H253.504V147.025H264.222V119.021H290.085V147.025H300.803V85.4148H290.085V108.986Z" fill="white"/>
<path d="M349.034 147.025V108.752L342.044 112.719C339.015 109.219 333.889 107.585 326.899 107.819C321.074 107.819 316.414 109.686 312.686 113.653C308.958 117.387 307.094 122.288 307.094 127.889C307.094 133.723 308.958 138.624 312.686 142.591C316.414 146.559 321.074 148.426 326.899 148.426C331.326 148.426 335.287 147.025 338.316 143.992V147.025H349.034ZM335.753 136.057C333.889 138.157 331.093 139.324 327.831 139.324C325.035 139.324 322.472 138.157 320.608 135.59C318.744 133.256 317.812 130.689 317.812 127.655C317.812 124.622 318.744 122.054 320.841 119.721C322.705 117.62 325.268 116.453 328.297 116.453C331.326 116.453 333.889 117.387 335.753 119.487C337.617 121.588 338.549 124.155 338.549 127.422C338.782 130.923 337.85 133.723 335.753 136.057Z" fill="white"/>
<path d="M366.276 126.255C366.276 119.954 368.839 116.687 373.965 116.687C376.761 116.687 378.625 117.387 379.557 118.554C380.256 119.721 380.722 121.588 380.722 124.388V147.025H391.207V124.388C391.207 113.186 385.382 107.819 373.732 107.819C368.606 108.052 364.645 109.919 361.383 113.42L355.791 108.519V147.025H366.276V126.255Z" fill="white"/>
<path d="M439.438 85.6481H429.186V109.219C426.856 107.585 424.759 106.652 422.895 106.418C421.264 106.185 419.4 105.952 417.536 105.952C411.711 105.952 406.818 108.052 403.323 112.019C399.828 115.987 397.964 121.121 397.964 127.189C397.964 133.023 399.828 137.924 403.789 141.891C407.517 145.858 412.41 147.959 418.002 147.959C425.225 148.426 430.584 146.559 433.846 142.591L439.438 147.259V85.6481ZM426.39 135.823C424.526 137.924 421.73 138.857 418.468 138.857C415.439 138.857 412.876 137.69 411.245 135.357C409.381 133.256 408.682 130.689 408.682 127.422C408.682 124.155 409.614 121.354 411.245 119.254C413.109 116.92 415.672 115.52 418.701 115.52C422.196 115.52 424.759 116.687 426.623 118.787C428.487 121.121 429.419 123.921 429.419 127.189C429.419 130.923 428.487 133.723 426.39 135.823Z" fill="white"/>
<path d="M458.078 87.5151H447.36V98.4837H458.078V87.5151Z" fill="white"/>
<path d="M458.311 107.585H447.826V147.025H458.311V107.585Z" fill="white"/>
<path d="M486.504 107.819C479.747 108.285 475.087 110.152 472.524 113.886L466.699 108.752V168.963H477.184V145.158C480.446 147.959 484.407 149.592 489.067 149.592C494.659 149.592 499.319 147.492 503.047 143.291C506.309 139.324 508.173 134.423 508.173 128.589C508.173 122.755 506.542 117.854 503.047 114.12C499.319 109.686 493.727 107.819 486.504 107.819ZM493.028 138.391C491.863 139.324 490.698 139.557 489.533 139.791C487.902 140.024 487.203 140.024 486.97 140.024C483.941 140.024 481.378 138.624 479.747 136.29C478.116 134.19 477.184 131.389 477.184 128.122C477.184 125.088 478.116 122.288 479.98 120.187C481.844 117.854 484.174 116.92 487.203 116.92C490.465 116.92 493.028 118.087 495.125 120.187C496.989 122.288 498.154 125.088 498.154 128.355C497.688 132.79 496.057 136.29 493.028 138.391Z" fill="white"/>
<path d="M525.648 85.6481H515.163V147.025H525.881L525.648 85.6481Z" fill="white"/>
<path d="M564.093 143.992V147.025H574.578V108.752L567.588 112.719C564.559 109.219 559.433 107.585 552.443 107.819C546.618 107.819 541.958 109.686 538.23 113.653C534.502 117.387 532.638 122.288 532.638 127.889C532.638 133.723 534.502 138.624 538.23 142.591C541.958 146.559 546.618 148.426 552.443 148.426C557.103 148.426 560.831 147.025 564.093 143.992ZM546.152 135.59C544.288 133.256 543.356 130.689 543.356 127.655C543.356 124.622 544.288 122.054 546.385 119.721C548.249 117.62 550.812 116.453 553.841 116.453C556.87 116.453 559.433 117.387 561.297 119.487C563.161 121.588 564.093 124.155 564.093 127.422C564.093 130.923 563.161 133.49 561.064 135.823C559.2 137.924 556.404 139.091 553.142 139.091C550.579 139.324 548.016 138.157 546.152 135.59Z" fill="white"/>
<path d="M599.043 107.819C593.917 108.052 589.956 109.919 586.694 113.42L581.102 108.519V147.025H591.587V126.255C591.587 119.954 594.15 116.687 599.276 116.687C602.072 116.687 603.936 117.387 604.868 118.554C605.567 119.721 606.033 121.588 606.033 124.388V147.025H616.518V124.388C616.751 113.186 610.926 107.819 599.043 107.819Z" fill="white"/>
<path d="M660.089 145.625C662.885 143.758 665.215 141.658 667.312 138.857L658.691 134.89C656.361 138.157 652.4 139.791 647.274 139.791C639.585 139.324 634.925 136.29 633.527 130.456H669.409C669.409 124.155 667.312 118.787 662.885 113.886C658.458 109.219 652.866 106.885 646.109 107.118C639.352 107.118 633.993 109.452 629.566 113.886C625.139 118.32 623.275 122.755 623.741 127.189C623.508 133.49 625.139 138.391 629.1 141.891C632.828 146.092 638.886 148.192 647.274 147.959C653.099 148.192 657.293 147.492 660.089 145.625ZM646.808 115.987C652.866 116.453 656.827 119.021 659.157 123.921H633.527C635.857 119.254 640.284 116.453 646.808 115.987Z" fill="white"/>
<path d="M691.777 107.819V94.0496H681.292V107.819L675.933 117.387H681.292V147.025H691.777V117.387H699V107.819H691.777Z" fill="white"/>
<path d="M332.724 179.231C332.724 183.665 330.86 185.532 327.831 185.532C325.268 185.532 323.171 183.665 323.171 179.231V167.562H320.608V179.231C320.608 185.299 323.637 187.632 327.598 187.632C331.792 187.632 335.054 185.065 335.054 178.998V167.562H332.491V179.231H332.724Z" fill="white"/>
<path d="M346.704 172.697C344.374 172.697 342.743 174.097 342.044 175.264L341.811 172.93H339.481C339.481 174.097 339.714 175.264 339.714 176.664V186.932H342.277V178.531C342.277 178.064 342.277 177.597 342.51 177.364C342.976 175.964 344.374 174.797 346.005 174.797C348.335 174.797 349.267 176.664 349.267 178.998V187.166H351.83V178.764C351.597 173.863 348.568 172.697 346.704 172.697Z" fill="white"/>
<path d="M377.46 172.697C376.062 172.697 375.13 173.163 374.431 173.63C373.732 174.097 373.266 174.797 372.8 175.497C372.101 173.863 370.703 172.697 368.839 172.697C366.509 172.697 365.111 173.863 364.412 175.264L364.179 172.93H361.849C361.849 174.097 362.082 175.264 362.082 176.664V186.932H364.645V178.298C364.645 177.831 364.645 177.364 364.878 177.131C365.344 175.73 366.509 174.564 368.14 174.564C370.004 174.564 371.169 176.197 371.169 178.531V186.932H373.732V178.298C373.732 177.831 373.732 177.364 373.965 176.897C374.431 175.73 375.596 174.564 376.994 174.564C379.091 174.564 380.023 176.197 380.023 178.998V186.932H382.586V178.531C382.12 174.097 379.324 172.697 377.46 172.697Z" fill="white"/>
<path d="M392.372 172.697C388.411 172.697 385.382 175.497 385.382 180.164C385.382 184.599 388.411 187.399 392.139 187.399C395.634 187.399 399.129 185.065 399.129 179.931C399.129 175.73 396.333 172.697 392.372 172.697ZM392.139 185.765C389.576 185.765 387.945 183.432 387.945 180.398C387.945 177.597 389.343 174.797 392.372 174.797C395.401 174.797 396.566 177.831 396.566 180.164C396.566 183.432 394.702 185.765 392.139 185.765Z" fill="white"/>
<path d="M409.381 172.697C407.051 172.697 405.42 174.097 404.721 175.264L404.488 172.93H402.158C402.158 174.097 402.158 175.264 402.158 176.664V186.932H404.721V178.531C404.721 178.064 404.721 177.597 404.954 177.364C405.42 175.964 406.818 174.797 408.449 174.797C410.779 174.797 411.711 176.664 411.711 178.998V187.166H414.274V178.764C414.507 173.863 411.478 172.697 409.381 172.697Z" fill="white"/>
<path d="M430.817 166.395H428.254V175.03C427.555 173.863 426.157 172.93 424.06 172.93C420.565 172.93 417.769 175.73 417.769 180.631C417.769 184.832 420.332 187.866 423.827 187.866C426.157 187.866 427.788 186.699 428.72 185.065V187.632H431.05C431.05 186.699 431.05 185.299 431.05 183.898V166.395H430.817ZM428.254 181.331C428.254 181.798 428.254 182.031 428.021 182.498C427.555 184.365 425.924 185.532 424.293 185.532C421.497 185.532 420.099 183.198 420.099 180.398C420.099 177.364 421.73 175.03 424.293 175.03C426.157 175.03 427.555 176.43 428.021 178.064C428.021 178.297 428.254 178.764 428.254 179.231V181.331Z" fill="white"/>
<path d="M440.603 172.697C436.409 172.697 434.079 175.964 434.079 180.398C434.079 184.599 436.642 187.632 441.069 187.632C443.399 187.632 444.797 187.166 445.729 186.699L445.263 184.832C444.331 185.299 443.166 185.532 441.302 185.532C438.739 185.532 436.409 184.132 436.409 180.631H446.428C446.428 180.398 446.428 179.931 446.428 179.464C446.428 176.897 445.263 172.697 440.603 172.697ZM436.642 178.764C436.875 176.897 438.04 174.564 440.603 174.564C443.399 174.564 444.098 177.131 444.098 178.764H436.642Z" fill="white"/>
<path d="M465.767 178.531C465.767 175.73 464.602 172.697 460.408 172.697C458.544 172.697 456.913 173.163 455.748 173.863L456.447 175.497C457.379 174.797 458.777 174.33 460.175 174.33C462.971 174.33 463.437 176.431 463.437 177.597V177.831C458.078 177.831 455.049 179.698 455.049 183.198C455.049 185.299 456.447 187.166 459.476 187.166C461.573 187.166 462.971 186.232 463.903 185.065L464.136 186.932H466.466C466.233 185.999 466.233 184.832 466.233 183.432V178.531H465.767ZM463.437 182.498C463.437 182.732 463.437 182.965 463.204 183.432C462.738 184.599 461.573 185.765 459.709 185.765C458.311 185.765 457.379 185.065 457.379 183.198C457.379 180.398 460.641 179.931 463.437 179.931V182.498Z" fill="white"/>
<path d="M476.485 174.797C477.883 174.797 478.815 175.03 479.514 175.497L480.213 173.397C479.514 172.93 478.116 172.697 476.718 172.697C472.058 172.697 469.029 175.964 469.029 180.164C469.029 184.599 471.825 187.399 476.019 187.399C477.883 187.399 479.514 186.932 479.98 186.466L479.514 184.599C478.815 184.832 477.883 185.299 476.252 185.299C473.456 185.299 471.359 183.198 471.359 179.931C471.592 177.364 473.223 174.797 476.485 174.797Z" fill="white"/>
<path d="M489.533 174.797C490.931 174.797 491.863 175.03 492.562 175.497L493.261 173.397C492.562 172.93 491.164 172.697 489.766 172.697C485.106 172.697 482.077 175.964 482.077 180.164C482.077 184.599 484.873 187.399 489.067 187.399C490.931 187.399 492.562 186.932 493.028 186.466L492.562 184.599C491.863 184.832 490.931 185.299 489.3 185.299C486.504 185.299 484.407 183.198 484.407 179.931C484.407 177.364 486.271 174.797 489.533 174.797Z" fill="white"/>
<path d="M501.416 172.697C497.222 172.697 494.892 175.964 494.892 180.398C494.892 184.599 497.455 187.632 501.882 187.632C504.212 187.632 505.61 187.166 506.542 186.699L506.076 184.832C505.144 185.299 503.979 185.532 502.115 185.532C499.552 185.532 497.222 184.132 497.222 180.631H507.241C507.241 180.398 507.241 179.931 507.241 179.464C507.241 176.897 506.076 172.697 501.416 172.697ZM497.222 178.764C497.455 176.897 498.62 174.564 501.183 174.564C503.979 174.564 504.678 177.131 504.678 178.764H497.222Z" fill="white"/>
<path d="M514.93 178.998C513.066 178.298 512.134 177.831 512.134 176.664C512.134 175.497 513.066 174.797 514.464 174.797C515.862 174.797 516.794 175.264 517.26 175.73L517.959 173.863C517.26 173.397 515.862 172.93 514.464 172.93C511.435 172.93 509.571 174.797 509.571 177.131C509.571 178.764 510.736 180.165 513.299 181.098C515.163 181.798 515.862 182.498 515.862 183.665C515.862 184.832 514.93 185.765 513.066 185.765C511.668 185.765 510.503 185.299 509.571 184.832L508.872 186.699C509.804 187.399 511.202 187.632 512.833 187.632C516.095 187.632 518.192 185.765 518.192 183.432C518.658 181.098 517.493 179.931 514.93 178.998Z" fill="white"/>
<path d="M526.58 178.998C524.716 178.298 523.784 177.831 523.784 176.664C523.784 175.497 524.716 174.797 526.114 174.797C527.512 174.797 528.444 175.264 528.91 175.73L529.609 173.863C528.91 173.397 527.512 172.93 526.114 172.93C523.085 172.93 521.221 174.797 521.221 177.131C521.221 178.764 522.386 180.165 524.949 181.098C526.813 181.798 527.512 182.498 527.512 183.665C527.512 184.832 526.58 185.765 524.716 185.765C523.318 185.765 522.153 185.299 521.221 184.832L520.522 186.699C521.454 187.399 522.852 187.632 524.483 187.632C527.745 187.632 529.842 185.765 529.842 183.432C530.308 181.098 528.91 179.931 526.58 178.998Z" fill="white"/>
<path d="M536.133 173.163H533.57V187.399H536.133V173.163Z" fill="white"/>
<path d="M534.735 167.562C533.803 167.562 533.104 168.262 533.104 169.196C533.104 170.129 533.803 170.829 534.735 170.829C535.667 170.829 536.366 170.129 536.366 169.196C536.366 168.262 535.667 167.562 534.735 167.562Z" fill="white"/>
<path d="M547.783 172.696C545.453 172.696 543.822 173.63 542.89 175.264V166.395H540.327V183.432C540.327 184.599 540.327 186.232 540.094 187.166H542.424L542.657 184.832C543.822 186.699 545.453 187.399 547.317 187.399C550.579 187.399 553.608 184.832 553.608 179.931C553.841 175.73 551.278 172.696 547.783 172.696ZM546.851 185.532C544.987 185.532 543.589 184.365 542.89 182.498C542.89 182.265 542.657 181.798 542.657 181.565V178.998C542.657 178.531 542.657 178.297 542.89 177.831C543.356 175.964 544.987 174.563 546.851 174.563C549.647 174.563 551.045 176.897 551.045 179.931C551.045 183.432 549.647 185.532 546.851 185.532Z" fill="white"/>
<path d="M559.433 166.395H556.87V187.166H559.433V166.395Z" fill="white"/>
<path d="M569.452 172.697C565.258 172.697 562.928 175.964 562.928 180.398C562.928 184.599 565.491 187.632 569.918 187.632C572.248 187.632 573.646 187.166 574.578 186.699L574.112 184.832C573.18 185.299 572.015 185.532 570.151 185.532C567.588 185.532 565.258 184.132 565.258 180.631H575.277C575.277 180.398 575.277 179.931 575.277 179.464C575.277 176.897 574.112 172.697 569.452 172.697ZM565.258 178.764C565.491 176.897 566.656 174.564 569.219 174.564C572.015 174.564 572.714 177.131 572.714 178.764H565.258Z" fill="white"/>
<path d="M592.053 172.697C589.723 172.697 588.092 173.63 586.927 175.497L586.694 173.163H584.364C584.364 174.564 584.597 175.964 584.597 177.831V193.233H587.16V185.532C588.092 186.932 589.723 187.866 591.587 187.866C594.849 187.866 598.111 185.299 598.111 180.164C598.111 175.73 595.548 172.697 592.053 172.697ZM591.121 185.532C589.257 185.532 587.626 184.365 587.16 182.498C587.16 182.265 587.16 181.798 587.16 181.565V179.231C587.16 178.998 587.16 178.531 587.393 178.064C587.859 176.197 589.49 174.797 591.354 174.797C594.15 174.797 595.548 177.131 595.548 180.164C595.548 183.432 593.917 185.532 591.121 185.532Z" fill="white"/>
<path d="M607.198 172.697C603.237 172.697 600.208 175.497 600.208 180.164C600.208 184.599 603.237 187.399 606.965 187.399C610.46 187.399 613.955 185.065 613.955 179.931C613.955 175.73 611.392 172.697 607.198 172.697ZM607.198 185.765C604.635 185.765 603.004 183.432 603.004 180.398C603.004 177.597 604.402 174.797 607.431 174.797C610.46 174.797 611.625 177.831 611.625 180.164C611.392 183.432 609.528 185.765 607.198 185.765Z" fill="white"/>
<path d="M629.1 173.163H626.537V181.798C626.537 182.265 626.537 182.732 626.304 183.198C625.838 184.365 624.673 185.532 622.809 185.532C620.479 185.532 619.547 183.665 619.547 181.098V173.163H616.984V181.331C616.984 186.232 619.547 187.632 621.877 187.632C624.44 187.632 625.838 186.232 626.537 185.065L626.77 187.399H629.1C629.1 186.232 629.1 185.065 629.1 183.432V173.163Z" fill="white"/>
<path d="M635.624 175.964L635.391 173.163H633.061C633.061 174.563 633.294 175.964 633.294 177.597V187.399H635.857V179.698C635.857 179.231 635.857 178.764 636.09 178.531C636.323 176.664 637.721 175.264 639.585 175.264C639.818 175.264 640.284 175.264 640.517 175.264V172.93C640.284 172.93 640.051 172.93 639.818 172.93C637.954 172.696 636.323 174.097 635.624 175.964Z" fill="white"/>
<path d="M652.167 168.963L649.604 169.663V173.163H647.507V175.03H649.604V182.732C649.604 184.365 649.837 185.765 650.536 186.466C651.235 187.166 652.167 187.632 653.332 187.632C654.264 187.632 655.196 187.399 655.662 187.399L655.429 185.532C655.196 185.532 654.73 185.765 654.031 185.765C652.633 185.765 652.167 184.832 652.167 182.965V175.03H655.895V173.163H652.167V168.963Z" fill="white"/>
<path d="M664.516 172.697C660.555 172.697 657.526 175.497 657.526 180.164C657.526 184.599 660.555 187.399 664.283 187.399C667.778 187.399 671.273 185.065 671.273 179.931C671.506 175.73 668.71 172.697 664.516 172.697ZM664.516 185.765C661.953 185.765 660.322 183.432 660.322 180.398C660.322 177.597 661.72 174.797 664.749 174.797C667.778 174.797 668.943 177.831 668.943 180.164C668.71 183.432 666.846 185.765 664.516 185.765Z" fill="white"/>
<path d="M686.418 173.163H683.855V181.798C683.855 182.265 683.855 182.732 683.622 183.198C683.156 184.365 681.991 185.532 680.127 185.532C677.797 185.532 676.865 183.665 676.865 181.098V173.163H674.302V181.331C674.302 186.232 676.865 187.632 679.195 187.632C681.758 187.632 683.156 186.232 683.855 185.065L684.088 187.399H686.418C686.418 186.232 686.185 185.065 686.185 183.432V173.163H686.418Z" fill="white"/>
<path d="M695.272 178.998C693.408 178.298 692.476 177.831 692.476 176.664C692.476 175.497 693.408 174.797 694.806 174.797C696.204 174.797 697.136 175.264 697.602 175.73L698.301 173.863C697.602 173.397 696.204 172.93 694.806 172.93C691.777 172.93 689.913 174.797 689.913 177.131C689.913 178.764 691.078 180.165 693.641 181.098C695.505 181.798 696.204 182.498 696.204 183.665C696.204 184.832 695.272 185.765 693.408 185.765C692.01 185.765 690.845 185.299 689.913 184.832L689.68 186.699C690.612 187.399 692.01 187.632 693.641 187.632C696.903 187.632 699 185.765 699 183.432C699 181.098 697.835 179.931 695.272 178.998Z" fill="white"/>
</g>
<defs>
<clipPath id="clip0">
<rect width="699" height="193" fill="white"/>
</clipPath>
</defs>
</svg>
