<svg width="44" height="44" viewBox="0 0 44 44" fill="none" xmlns="http://www.w3.org/2000/svg">
<circle cx="22" cy="22" r="22" fill="white"/>
<path d="M20.6047 26.9899C20.3599 26.7138 20.2482 26.315 20.2472 25.801C20.2479 24.4894 20.4776 23.4078 20.9429 22.5025C21.4082 21.5973 22.0829 20.646 22.9657 19.5719C23.6574 18.7434 24.1634 18.0299 24.4916 17.4545C24.8198 16.8792 24.9821 16.2578 24.9851 15.5368C24.9947 14.762 24.6988 14.1178 24.1355 13.6423C23.5722 13.1668 22.7875 12.9215 21.8342 12.914C21.0007 12.8912 20.2079 13.0601 19.4335 13.4284C18.6814 13.7891 17.7818 14.3032 16.7571 14.9631C16.1696 15.293 15.6994 15.4542 15.3387 15.4236C14.9041 15.4697 14.5632 15.278 14.2645 14.9175C13.9658 14.5571 13.8383 14.1122 13.8149 13.6059C13.8337 12.9309 14.1171 12.3709 14.6729 11.9489C15.6346 11.1049 16.7871 10.4527 18.1081 9.99988C19.429 9.54706 20.7538 9.32435 22.1126 9.34711C23.5242 9.37752 24.7894 9.63808 25.8939 10.1595C26.9984 10.6809 27.8657 11.3864 28.4657 12.2607C29.0735 13.1581 29.3903 14.1552 29.3792 15.2905C29.3772 16.5255 29.0948 17.5994 28.5018 18.497C27.9088 19.3946 27.0774 20.3996 25.9628 21.5274C25.0182 22.4941 24.3041 23.3303 23.835 24.0054C23.3658 24.6805 23.0705 25.4246 22.9423 26.2915C22.8736 26.675 22.7207 26.9588 22.4612 27.1507C22.2241 27.3348 21.9107 27.4422 21.5354 27.4423C21.1746 27.4117 20.8495 27.266 20.6047 26.9899ZM19.7845 34.0855C19.3028 33.5563 19.0596 32.9197 19.0547 32.1756C19.0499 31.4315 19.3017 30.7795 19.7813 30.2808C20.2608 29.7821 20.8798 29.5442 21.6304 29.5441C22.3585 29.5516 22.9786 29.8276 23.4826 30.3491C23.9642 30.8783 24.2075 31.5149 24.2124 32.259C24.2251 33.026 23.9654 33.6551 23.4555 34.1384C22.9536 34.6448 22.357 34.875 21.6288 34.8675C20.8783 34.8677 20.2661 34.6146 19.7845 34.0855Z" fill="#CB563E"/>
</svg>
