<svg width="192" height="123" viewBox="0 0 192 123" fill="none" xmlns="http://www.w3.org/2000/svg">
<path d="M0 122.141V105.402V104.699H9.78151C11.6323 104.686 12.991 105.296 13.7657 106.379C14.5404 107.454 14.7311 108.815 14.7358 110.254C14.7311 110.983 14.7476 112.331 14.1048 113.585C13.4749 114.857 12.0326 115.925 9.68497 115.897H3.42376V122.141H0ZM3.42376 112.89H7.94954H8.05785C9.03624 112.894 9.80388 112.877 10.2772 112.745C10.7528 112.593 10.9094 112.478 11.1096 112.022C11.232 111.71 11.3144 111.209 11.3121 110.491C11.3274 108.98 11.1143 108.275 10.8894 108.077C10.7081 107.855 10.1394 107.694 8.90202 107.706H3.42376V112.89Z" fill="#094270"/>
<path d="M32.5723 104.574C34.8493 104.6 36.4858 104.926 37.6114 105.967C38.7299 107.025 39.0666 108.596 39.0666 110.663V116.375C39.0701 118.341 38.6733 119.885 37.5384 120.91C36.4046 121.921 34.7692 122.269 32.5664 122.273H30.1646C27.9605 122.269 26.3252 121.921 25.1902 120.91C24.0588 119.885 23.6632 118.341 23.6655 116.375V110.663C23.6655 108.596 24.0011 107.025 25.1172 105.967C26.244 104.926 27.8805 104.6 30.1646 104.573H32.5664L32.5723 104.574ZM30.1646 107.58C28.6988 107.568 27.9488 107.778 27.6415 108.102C27.3106 108.398 27.0799 109.14 27.0869 110.663V116.375C27.0881 117.907 27.3778 118.532 27.7357 118.811C28.0877 119.119 28.8848 119.264 30.1646 119.264H32.5593C33.8473 119.264 34.6432 119.119 34.9976 118.811C35.3532 118.532 35.6428 117.907 35.6428 116.375V110.663C35.6522 109.14 35.4179 108.398 35.0895 108.102C34.7833 107.778 34.031 107.568 32.5664 107.58H30.1646Z" fill="#094270"/>
<path d="M49.8296 122.145V104.703H53.2557V119.139H62.3355V122.145H49.8296Z" fill="#094270"/>
<path d="M75.3571 122.145V114.973L68.1729 104.704H72.2395L77.149 111.692L82.061 104.704H86.1994L78.7809 114.978V122.145H75.3571Z" fill="#094270"/>
<path d="M99.3589 122.145V107.709H93.584V104.704H108.556V107.711L102.783 107.709V121.446V122.145H99.3589Z" fill="#094270"/>
<path d="M118.122 122.145V104.703H130.981V107.71H121.547V111.76H130.58V114.66H121.547V119.139H130.981V122.145H118.122Z" fill="#094270"/>
<path d="M147.367 122.273H147.356C145.605 122.273 144.111 121.771 143.064 120.753C142.015 119.742 141.479 118.263 141.482 116.524V110.321C141.453 107.913 142.392 106.273 143.956 105.48C145.49 104.682 147.432 104.584 149.624 104.575H151.287C153.229 104.577 154.661 104.946 155.622 105.906C156.57 106.876 156.861 108.245 156.861 109.896V111.11H153.438V110.41V109.959C153.446 108.872 153.284 108.296 153.037 108.057C152.819 107.804 152.255 107.578 151.001 107.582H149.861C148.311 107.58 147.164 107.651 146.414 107.854C145.657 108.073 145.363 108.318 145.14 108.782C144.993 109.103 144.904 109.584 144.906 110.258V114.664C144.904 116.025 144.936 117.081 145.114 117.778C145.312 118.482 145.525 118.767 146.046 119.009C146.407 119.166 146.957 119.268 147.744 119.265H150.147C151.335 119.27 152.188 119.204 152.708 119.045C153.229 118.872 153.366 118.734 153.521 118.4C153.615 118.167 153.676 117.796 153.676 117.274V115.289H157.1V117.49C157.132 119.476 156.303 120.882 154.964 121.533C153.651 122.191 152.027 122.268 150.218 122.273H147.367Z" fill="#094270"/>
<path d="M179.841 122.145L179.84 114.767H170.808V122.145H167.384V104.703H170.809L170.808 111.76H179.84V104.703H183.263V122.145H179.841Z" fill="#094270"/>
<path d="M189.639 102.343C190.887 102.343 192 103.241 192 104.642C192 106.04 190.887 106.941 189.639 106.941C188.39 106.941 187.276 106.04 187.276 104.642C187.276 103.241 188.39 102.343 189.639 102.343ZM189.639 106.45C190.592 106.45 191.372 105.688 191.372 104.642C191.372 103.591 190.592 102.834 189.639 102.834C188.674 102.834 187.904 103.591 187.904 104.642C187.904 105.688 188.674 106.45 189.639 106.45ZM190.844 105.023C190.746 105.639 190.273 105.996 189.724 105.996C188.927 105.996 188.401 105.4 188.401 104.631C188.401 103.837 188.895 103.253 189.714 103.253C190.277 103.253 190.74 103.586 190.826 104.206H190.346C190.285 103.917 190.033 103.745 189.714 103.745C189.245 103.745 188.994 104.113 188.994 104.618C188.994 105.096 189.276 105.504 189.724 105.504C190.063 105.504 190.309 105.319 190.346 105.023H190.844Z" fill="#094270"/>
<path d="M91.5687 -0.000714388C70.4327 0.00399635 52.8194 15.0354 48.8223 34.994H66.664C67.9767 31.1852 70.136 27.7756 72.9381 24.9676C77.7335 20.1851 84.2667 17.2547 91.5687 17.25C98.8718 17.2547 105.405 20.1851 110.199 24.9676C114.983 29.7618 117.914 36.2961 117.918 43.5981C117.914 50.9025 114.983 57.4345 110.199 62.231C105.405 67.0123 98.8718 69.9439 91.5687 69.9474C84.2667 69.9439 77.7335 67.0123 72.9381 62.231C70.1619 59.4466 68.0156 56.0734 66.6981 52.3094L48.8611 52.3047V52.3094V74.2907C48.8611 93.0296 65.0769 91.9252 65.0769 91.9252L65.0863 78.2302C72.4272 83.8544 81.6059 87.1981 91.5687 87.1993C115.65 87.1934 135.164 67.681 135.169 43.5981C135.164 19.5152 115.65 0.00399635 91.5687 -0.000714388Z" fill="#00ADEF"/>
<path d="M147.614 95.131C147.66 95.131 147.701 95.1644 147.701 95.216C147.701 95.2676 147.66 95.3008 147.614 95.3008C147.568 95.3008 147.527 95.2676 147.527 95.216C147.527 95.1644 147.568 95.131 147.614 95.131ZM147.614 95.2826C147.649 95.2826 147.678 95.2548 147.678 95.216C147.678 95.1774 147.649 95.1492 147.614 95.1492C147.578 95.1492 147.55 95.1774 147.55 95.216C147.55 95.2548 147.578 95.2826 147.614 95.2826ZM147.658 95.23C147.655 95.2529 147.637 95.2661 147.617 95.2661C147.587 95.2661 147.568 95.2438 147.568 95.2156C147.568 95.1863 147.586 95.1649 147.617 95.1649C147.637 95.1649 147.654 95.177 147.658 95.1999H147.64L147.617 95.1829C147.599 95.1829 147.59 95.1965 147.59 95.215C147.59 95.2328 147.601 95.2479 147.617 95.2479L147.64 95.23H147.658Z" fill="white"/>
<path d="M143.846 95.6445V95.3165V95.3023H144.038C144.074 95.302 144.101 95.3142 144.116 95.3356C144.131 95.3564 144.135 95.3832 144.136 95.4113C144.135 95.4258 144.136 95.4521 144.123 95.4766C144.111 95.5015 144.082 95.5226 144.036 95.522H143.914V95.6445H143.846ZM143.914 95.4631H144.002H144.004C144.024 95.4631 144.039 95.4628 144.048 95.4599L144.064 95.4461C144.066 95.4399 144.068 95.4302 144.068 95.416C144.068 95.3864 144.064 95.3726 144.06 95.3683C144.056 95.3644 144.045 95.3613 144.021 95.3615H143.914V95.4631Z" fill="white"/>
<path d="M144.486 95.2973C144.53 95.298 144.562 95.3045 144.584 95.3246C144.606 95.3454 144.613 95.3766 144.613 95.4168V95.529C144.613 95.5673 144.605 95.5979 144.583 95.6181C144.561 95.6378 144.529 95.6445 144.485 95.6445H144.438C144.395 95.6445 144.363 95.6378 144.341 95.6181C144.318 95.5979 144.311 95.5673 144.311 95.529V95.4168C144.311 95.3766 144.317 95.3454 144.339 95.3246C144.361 95.3045 144.393 95.298 144.438 95.2973H144.485H144.486ZM144.438 95.3566C144.409 95.3563 144.395 95.3602 144.389 95.3662C144.382 95.3723 144.378 95.387 144.378 95.4168V95.529C144.378 95.5591 144.384 95.5712 144.391 95.5765C144.398 95.5825 144.413 95.5854 144.438 95.5854H144.485C144.51 95.5854 144.526 95.5825 144.533 95.5765C144.54 95.5712 144.546 95.5591 144.546 95.529V95.4168C144.546 95.387 144.541 95.3723 144.535 95.3662C144.529 95.3602 144.514 95.3563 144.485 95.3566H144.438Z" fill="white"/>
<path d="M144.824 95.6445V95.3023H144.891V95.5852H145.069V95.6445H144.824Z" fill="white"/>
<path d="M145.325 95.6445V95.5035L145.184 95.3023H145.263L145.36 95.4394L145.456 95.3023H145.537L145.392 95.5038V95.6445H145.325Z" fill="white"/>
<path d="M145.795 95.6445V95.3613H145.682V95.3023H145.976V95.3615L145.862 95.3613V95.6308V95.6445H145.795Z" fill="white"/>
<path d="M146.163 95.6445V95.3023H146.415V95.3615H146.23V95.4408H146.407V95.4975H146.23V95.5852H146.415V95.6445H146.163Z" fill="white"/>
<path d="M146.737 95.6445H146.736C146.702 95.6445 146.673 95.6347 146.652 95.615C146.632 95.5949 146.621 95.5658 146.621 95.5319V95.4099C146.621 95.3628 146.639 95.3309 146.67 95.3153C146.7 95.2996 146.738 95.2974 146.781 95.2973H146.814C146.852 95.2973 146.88 95.3046 146.899 95.3234C146.917 95.3425 146.923 95.3694 146.923 95.402V95.4258H146.856V95.4119V95.4032C146.856 95.3818 146.853 95.3705 146.848 95.3656C146.844 95.3609 146.833 95.3563 146.808 95.3566H146.786C146.755 95.3566 146.733 95.3579 146.718 95.3619C146.703 95.366 146.697 95.3708 146.693 95.3801L146.689 95.4088L146.688 95.4952C146.688 95.5218 146.689 95.5427 146.693 95.5566L146.711 95.5808C146.718 95.5837 146.729 95.5855 146.744 95.5854H146.791C146.815 95.5855 146.831 95.5843 146.841 95.5814L146.857 95.5687L146.86 95.5464V95.5076H146.927V95.5508C146.928 95.5897 146.912 95.617 146.886 95.6299C146.86 95.6432 146.828 95.6444 146.792 95.6445H146.737Z" fill="white"/>
<path d="M147.374 95.6445V95.4998H147.197V95.6445H147.129V95.3023H147.197V95.4408H147.374V95.3023H147.441V95.6445H147.374Z" fill="white"/>
</svg>
