<svg width="34" height="21" viewBox="0 0 34 21" fill="none" xmlns="http://www.w3.org/2000/svg">
<path d="M19.6032 0.172377C19.1475 0.19039 18.7224 0.536625 18.604 0.986364L13.574 18.596C13.3683 19.1621 13.718 19.8695 14.2862 20.0367C14.8545 20.2038 15.5192 19.7947 15.6399 19.2036L20.6699 1.59399C20.8693 0.927159 20.2857 0.149293 19.6032 0.172377ZM10.6885 3.47418C10.4676 3.46938 10.2474 3.57553 10.0822 3.65762L1.45934 9.16063C1.15011 9.35727 0.951172 9.72299 0.951172 10.095C0.951172 10.467 1.15011 10.8327 1.45934 11.0294L10.0822 16.5324C10.5613 16.8385 11.27 16.6719 11.5698 16.1827C11.8696 15.6935 11.7065 14.9698 11.2274 14.6636L4.06416 10.1007L11.2274 5.52635C11.633 5.28543 11.8481 4.75261 11.7266 4.2898C11.605 3.827 11.1577 3.47555 10.6885 3.47418ZM23.5441 3.48563C23.0835 3.49975 22.6519 3.84983 22.5343 4.30483C22.4166 4.75983 22.6226 5.28182 23.0164 5.52632L30.1797 10.1007L23.0164 14.6636C22.5373 14.9698 22.3742 15.6935 22.674 16.1827C22.9738 16.6719 23.6825 16.8385 24.1616 16.5324L32.7845 11.0294C33.0937 10.8327 33.2926 10.467 33.2926 10.095C33.2926 9.72299 33.0937 9.35727 32.7845 9.16063L24.1616 3.65762C23.979 3.53869 23.7606 3.47787 23.5441 3.48565V3.48563Z" fill="#CB563E"/>
</svg>
