<svg width="36" height="36" viewBox="0 0 36 36" fill="none" xmlns="http://www.w3.org/2000/svg">
<g clip-path="url(#clip0)">
<path fill-rule="evenodd" clip-rule="evenodd" d="M34.5 4.5C35.3284 4.5 36 5.17157 36 6V15C36 15.8284 35.3284 16.5 34.5 16.5H25.5C24.6716 16.5 24 15.8284 24 15C24 14.1716 24.6716 13.5 25.5 13.5H33V6C33 5.17157 33.6716 4.5 34.5 4.5Z" fill="white"/>
<path fill-rule="evenodd" clip-rule="evenodd" d="M19.6911 6.12285C17.1151 5.75746 14.4901 6.23921 12.2116 7.49551C9.93321 8.75181 8.12482 10.7146 7.05898 13.0881C5.99313 15.4616 5.72757 18.1172 6.30231 20.6547C6.87706 23.1923 8.26097 25.4743 10.2455 27.1569C12.23 28.8395 14.7077 29.8315 17.3051 29.9834C19.9024 30.1354 22.4788 29.439 24.646 27.9993C26.8132 26.5596 28.4538 24.4545 29.3205 22.0013C29.5965 21.2202 30.4534 20.8107 31.2345 21.0867C32.0156 21.3626 32.4251 22.2196 32.1492 23.0007C31.0658 26.0672 29.0151 28.6985 26.3061 30.4982C23.5971 32.2978 20.3766 33.1683 17.1299 32.9783C13.8831 32.7884 10.7861 31.5484 8.30541 29.4451C5.82474 27.3419 4.09485 24.4894 3.37642 21.3174C2.65799 18.1455 2.98994 14.826 4.32225 11.8591C5.65456 8.89226 7.91504 6.43878 10.7631 4.86841C13.6111 3.29803 16.8924 2.69584 20.1124 3.15258C23.3248 3.60823 26.3026 5.09312 28.5993 7.3842L35.5282 13.909C36.1313 14.4769 36.1598 15.4262 35.5919 16.0293C35.0239 16.6324 34.0746 16.661 33.4715 16.093L26.5265 9.55302C26.5154 9.54262 26.5046 9.53205 26.4938 9.52132C24.6546 7.68098 22.2671 6.48824 19.6911 6.12285Z" fill="white"/>
</g>
<defs>
<clipPath id="clip0">
<rect width="36" height="36" fill="white"/>
</clipPath>
</defs>
</svg>
