<svg width="40" height="40" viewBox="0 0 40 40" fill="none" xmlns="http://www.w3.org/2000/svg">
<circle cx="20" cy="20" r="19" stroke="#5A8D8C" stroke-width="2"/>
<path fill-rule="evenodd" clip-rule="evenodd" d="M19.4332 12.0987C19.7797 12.2652 20 12.6156 20 13V27C20 27.3844 19.7797 27.7348 19.4332 27.9013C19.0867 28.0678 18.6755 28.021 18.3753 27.7809L13.6492 24H10C9.44772 24 9 23.5523 9 23V17C9 16.4477 9.44772 16 10 16H13.6492L18.3753 12.2191C18.6755 11.979 19.0867 11.9322 19.4332 12.0987ZM18 15.0806L14.6247 17.7809C14.4474 17.9227 14.2271 18 14 18H11V22H14C14.2271 22 14.4474 22.0773 14.6247 22.2191L18 24.9194V15.0806Z" fill="#5A8D8C"/>
<path fill-rule="evenodd" clip-rule="evenodd" d="M26.363 12.2228C26.7536 11.8324 27.3867 11.8325 27.7772 12.2231C29.8394 14.2859 30.9978 17.0832 30.9978 20.0001C30.9978 22.9169 29.8394 25.7142 27.7772 27.7771C27.3867 28.1676 26.7536 28.1677 26.363 27.7773C25.9724 27.3868 25.9723 26.7536 26.3628 26.3631C28.05 24.6753 28.9978 22.3865 28.9978 20.0001C28.9978 17.6136 28.05 15.3248 26.3628 13.6371C25.9723 13.2465 25.9724 12.6133 26.363 12.2228ZM22.833 15.7528C23.2236 15.3624 23.8567 15.3625 24.2472 15.7531C25.372 16.8782 26.0039 18.4041 26.0039 19.9951C26.0039 21.586 25.372 23.1119 24.2472 24.2371C23.8567 24.6276 23.2236 24.6277 22.833 24.2373C22.4424 23.8468 22.4423 23.2136 22.8328 22.8231C23.5826 22.0729 24.0039 21.0557 24.0039 19.9951C24.0039 18.9344 23.5826 17.9172 22.8328 17.1671C22.4423 16.7765 22.4424 16.1433 22.833 15.7528Z" fill="#5A8D8C"/>
</svg>
