<svg width="40" height="40" viewBox="0 0 40 40" fill="none" xmlns="http://www.w3.org/2000/svg">
<circle cx="20" cy="20" r="19" stroke="white" stroke-width="2"/>
<path fill-rule="evenodd" clip-rule="evenodd" d="M19.4332 12.0987C19.7797 12.2652 20 12.6156 20 13V27C20 27.3844 19.7797 27.7348 19.4332 27.9013C19.0867 28.0678 18.6755 28.021 18.3753 27.7809L13.6492 24H10C9.44772 24 9 23.5523 9 23V17C9 16.4477 9.44772 16 10 16H13.6492L18.3753 12.2191C18.6755 11.979 19.0867 11.9322 19.4332 12.0987ZM18 15.0806L14.6247 17.7809C14.4474 17.9227 14.2271 18 14 18H11V22H14C14.2271 22 14.4474 22.0773 14.6247 22.2191L18 24.9194V15.0806Z" fill="white"/>
<path fill-rule="evenodd" clip-rule="evenodd" d="M31.7071 16.2929C32.0976 16.6834 32.0976 17.3166 31.7071 17.7071L25.7071 23.7071C25.3166 24.0976 24.6834 24.0976 24.2929 23.7071C23.9024 23.3166 23.9024 22.6834 24.2929 22.2929L30.2929 16.2929C30.6834 15.9024 31.3166 15.9024 31.7071 16.2929Z" fill="white"/>
<path fill-rule="evenodd" clip-rule="evenodd" d="M24.2929 16.2929C24.6834 15.9024 25.3166 15.9024 25.7071 16.2929L31.7071 22.2929C32.0976 22.6834 32.0976 23.3166 31.7071 23.7071C31.3166 24.0976 30.6834 24.0976 30.2929 23.7071L24.2929 17.7071C23.9024 17.3166 23.9024 16.6834 24.2929 16.2929Z" fill="white"/>
</svg>
