<svg width="40" height="40" viewBox="0 0 40 40" fill="none" xmlns="http://www.w3.org/2000/svg">
<circle cx="20" cy="20" r="19" stroke="white" stroke-width="2"/>
<path fill-rule="evenodd" clip-rule="evenodd" d="M19.4332 12.0987C19.7797 12.2652 20 12.6156 20 13V27C20 27.3844 19.7797 27.7348 19.4332 27.9013C19.0867 28.0678 18.6755 28.021 18.3753 27.7809L13.6492 24H10C9.44772 24 9 23.5523 9 23V17C9 16.4477 9.44772 16 10 16H13.6492L18.3753 12.2191C18.6755 11.979 19.0867 11.9322 19.4332 12.0987ZM18 15.0806L14.6247 17.7809C14.4474 17.9227 14.2271 18 14 18H11V22H14C14.2271 22 14.4474 22.0773 14.6247 22.2191L18 24.9194V15.0806Z" fill="white"/>
<path fill-rule="evenodd" clip-rule="evenodd" d="M26.363 12.2228C26.7536 11.8323 27.3867 11.8324 27.7772 12.223C29.8394 14.2858 30.9978 17.0832 30.9978 20C30.9978 22.9168 29.8394 25.7142 27.7772 27.777C27.3867 28.1676 26.7536 28.1677 26.363 27.7772C25.9724 27.3867 25.9723 26.7536 26.3628 26.363C28.05 24.6752 28.9978 22.3865 28.9978 20C28.9978 17.6135 28.05 15.3247 26.3628 13.637C25.9723 13.2464 25.9724 12.6132 26.363 12.2228ZM22.833 15.7528C23.2236 15.3623 23.8567 15.3624 24.2472 15.753C25.372 16.8782 26.0039 18.404 26.0039 19.995C26.0039 21.586 25.372 23.1118 24.2472 24.237C23.8567 24.6276 23.2236 24.6277 22.833 24.2372C22.4424 23.8467 22.4423 23.2136 22.8328 22.823C23.5826 22.0729 24.0039 21.0556 24.0039 19.995C24.0039 18.9343 23.5826 17.9171 22.8328 17.167C22.4423 16.7764 22.4424 16.1432 22.833 15.7528Z" fill="white"/>
</svg>
