<?xml version="1.0" encoding="utf-8"?>
<!-- Generator: Adobe Illustrator 23.1.1, SVG Export Plug-In . SVG Version: 6.00 Build 0)  -->
<svg version="1.1" xmlns="http://www.w3.org/2000/svg" xmlns:xlink="http://www.w3.org/1999/xlink" x="0px" y="0px"
	 viewBox="0 0 2932.4 2549.3" style="enable-background:new 0 0 2932.4 2549.3;" xml:space="preserve">
<style type="text/css">
	.st0{display:none;}
	.st1{display:inline;fill:#0E4138;}
	.st2{fill:#FFFFFF;stroke:#302E2F;stroke-width:4;stroke-miterlimit:10;}
	.st3{fill:#0E4138;stroke:#302E2F;stroke-width:4;stroke-linejoin:round;stroke-miterlimit:10;}
	.st4{fill:#17948A;stroke:#302E2F;stroke-width:4;stroke-miterlimit:10;}
	.st5{fill:none;stroke:#302E2F;stroke-width:4;stroke-miterlimit:10;}
	.st6{fill:#42B06F;stroke:#302E2F;stroke-width:4;stroke-miterlimit:10;}
	.st7{fill:#17948A;stroke:#302E2F;stroke-width:4;stroke-linecap:round;stroke-linejoin:round;stroke-miterlimit:10;}
	.st8{fill:#FFFFFF;stroke:#302E2F;stroke-width:4;stroke-linecap:round;stroke-linejoin:round;stroke-miterlimit:10;}
	.st9{fill:none;stroke:#302E2F;stroke-width:3;stroke-miterlimit:10;}
	.st10{display:inline;}
	.st11{fill:#FFFFFF;stroke:#302E2E;stroke-width:4;stroke-miterlimit:10;}
	.st12{fill:#0D57D1;stroke:#302E2E;stroke-width:3;stroke-miterlimit:10;}
	.st13{display:inline;fill:#FFFFFF;stroke:#302E2E;stroke-width:4;stroke-linecap:round;stroke-miterlimit:10;}
	.st14{fill:#42B06F;stroke:#302E2F;stroke-width:4;stroke-linecap:round;stroke-linejoin:round;stroke-miterlimit:10;}
	.st15{fill:none;stroke:#FFFFFF;stroke-miterlimit:10;}
	.st16{fill:#17948A;stroke:#302E2F;stroke-width:4;stroke-linejoin:round;stroke-miterlimit:10;}
	.st17{fill:#302E2F;stroke:#302E2F;stroke-width:4;stroke-linecap:round;stroke-linejoin:round;stroke-miterlimit:10;}
	.st18{fill:#0E4138;stroke:#302E2F;stroke-width:4;stroke-linecap:round;stroke-linejoin:round;stroke-miterlimit:10;}
	.st19{fill:#FFFFFF;stroke:#302E2F;stroke-width:4;stroke-linecap:round;stroke-miterlimit:10;}
	.st20{fill:#FFFFFF;}
</style>
<g id="couleurs_1_" class="st0">
	
		<image style="display:inline;overflow:visible;" width="79" height="77" id="Capture_d_x2019_écran_2020-01-17_à_14.35.14_xA0_Image_1_" xlink:href="156873A80081F1FA.png"  transform="matrix(2.5685 0 0 2.5685 3086.9221 2238.5796)">
	</image>
	
		<image style="display:inline;overflow:visible;" width="105" height="91" id="Capture_d_x2019_écran_2020-01-17_à_14.29.08_xA0_Image_1_" xlink:href="156873A80081F1F9.png"  transform="matrix(2.5685 0 0 2.5685 3050.9626 795.0547)">
	</image>
	
		<image style="display:inline;overflow:visible;" width="96" height="100" id="Capture_d_x2019_écran_2020-01-17_à_14.28.58_xA0_Image_1_" xlink:href="156873A80081F1E8.png"  transform="matrix(2.5685 0 0 2.5685 3063.8052 445.7319)">
	</image>
	<rect x="3020.1" y="116.7" class="st1" width="318.3" height="257.7"/>
	
		<image style="display:inline;overflow:visible;" width="100" height="71" id="Capture_d_x2019_écran_2020-01-17_à_14.29.25_xA0_Image_1_" xlink:href="156873A80081F1E9.png"  transform="matrix(2.5685 0 0 2.5685 3058.6682 1110.9863)">
	</image>
	
		<image style="display:inline;overflow:visible;" width="102" height="75" id="Capture_d_x2019_écran_2020-01-17_à_14.33.50_xA0_Image_1_" xlink:href="156873A80081F1EA.png"  transform="matrix(2.5685 0 0 2.5685 3056.0996 1370.4098)">
	</image>
	
		<image style="display:inline;overflow:visible;" width="88" height="88" id="Capture_d_x2019_écran_2020-01-17_à_14.35.00_xA0_Image_1_" xlink:href="156873A80081F1EF.png"  transform="matrix(2.5685 0 0 2.5685 3058.6682 1637.5389)">
	</image>
	
		<image style="display:inline;overflow:visible;" width="96" height="86" id="Capture_d_x2019_écran_2020-01-17_à_14.35.06_xA0_Image_1_" xlink:href="156873A80081F1EE.png"  transform="matrix(2.5685 0 0 2.5685 3063.8052 1956.0392)">
	</image>
	
		<image style="display:inline;overflow:visible;" width="622" height="472" xlink:href="156873A80081F1E5.png"  transform="matrix(1 0 0 1 3415.9861 1057.3533)">
	</image>
	
		<image style="display:inline;overflow:visible;" width="213" height="203" xlink:href="../../../../Capture d’écran 2020-02-08 à 14.12.24.png"  transform="matrix(2.0267 0 0 2.0267 4099.7817 1068.9536)">
	</image>
	
		<image style="display:inline;overflow:visible;" width="114" height="204" xlink:href="../../../../Capture d’écran 2020-02-08 à 14.12.05.png"  transform="matrix(2.4144 0 0 2.4144 3711.2129 1476.059)">
	</image>
</g>
<g id="cadre">
	<path class="st2" d="M843.6,1071.9c25.7-26.8-1.1-44.7-1.1-44.7l1.2-86.7l-116,18.8l0-0.6l-117.2,19l-0.6,46.5
		c0,0-27.2,17.2-2.2,44.7c0,0-28.3,24.2-11.1,49.3l1.1,9.5l9.1-0.3c0,0,21.2,15.4,47.3-11.3c0,0-1,24.7,63.2-0.1l8.2,0.2l7.3,0.1
		c63.6,26.4,63.2,1.6,63.2,1.6c25.4,27.4,47,12.5,47,12.5l9.1,0.5l1.4-9.5C871.3,1096.8,843.6,1071.9,843.6,1071.9z"/>
	<polygon class="st3" points="644.5,972.4 643,1085.9 807.4,1088.1 809.2,945.7 	"/>
	<path class="st4" d="M652.7,1086c0,0-4.7-35.2,38.3-53.7c42.9-18.6,23.9-71.3,23.9-71.3l75.3-12.2c1.5,16.4-12,38.4-24.8,46.4
		c-12.8,8-20.2,31.8-7.6,50.3c12.6,18.5,6,42.1,6,42.1L652.7,1086z"/>
</g>
<g id="cadre2">
	<polyline class="st5" points="1850.7,1074.3 1850.7,1373.1 1466.2,1373.1 1466.2,899.4 1728.4,899.4 	"/>
	<polyline class="st5" points="1819.3,1079.4 1819.3,1337.3 1498.9,1337.3 1498.9,932.6 1742.2,932.6 	"/>
	<path class="st3" d="M1498.9,1126.1c0,0,60.9-9.8,72.8,35.5c11.9,45.3,57.4,49.3,73.1,31.8c16.5-18.3,74.6-15.1,84.9,18.4
		c15.8,51.5,89.6,47.8,89.6,47.8v77.7h-320.4V1126.1z"/>
	<path class="st6" d="M1743.2,974.3c0,0-15.6-2.5-22.6-2.5c-32.3,0-57.3,24.6-57.3,56.8c0,12.5,4.9,26,11.6,35.5
		C1674.9,1064.1,1732.6,1035.9,1743.2,974.3z"/>
</g>
<g id="cadre3">
	<path class="st7" d="M417.9,487.6V263.8l61.2-9.4H718c0,0,4.9,7.2,3.8,21.4h-284v209L417.9,487.6z"/>
	<path class="st7" d="M1076.1,415.8l19.9-3.1v198H809.3c0,0-8.1-9.7-8.9-19.2h275.7V415.8z"/>
</g>
<g id="calque4">
	<path class="st5" d="M2332.9,992.2v203.8h224.6v-195.4c0,0-16.7-14-46.2-16.6C2477.8,981.1,2453,976.2,2332.9,992.2"/>
	<polyline class="st5" points="2353.7,989.5 2353.7,1173.4 2537.8,1173.4 2537.8,989.5 	"/>
	<path class="st6" d="M2353.7,1055.8l33.6-45.2c2.8-3.7,7.1-5.9,11.7-5.9h0c8.1,0,14.6,6.5,14.6,14.6l0,0c0,2.3-0.5,4.6-1.6,6.7
		l-26.6,52.1c-1.2,2.3-1.8,4.7-1.8,7.3l0,0c0,12.4,10.8,22.1,23.1,20.7h0c4.4-0.5,8.3-2.9,10.7-6.6l30.2-46.4
		c3.2-5,8.3-8.5,14.1-9.8v0c16.5-3.7,32.2,8.8,32.2,25.7l0,0c0,3.2-1,6.3-3,8.8l-31.8,41.9c-2,2.7-3.1,6-3,9.4l0,0
		c0.5,13.7,11.7,24.5,25.4,24.5l0,0c7.8,0,15.2-3.5,20.1-9.6l36.1-44.8v74.2h-184.1V1055.8z"/>
</g>
<g id="sol">
	<line class="st2" x1="303.1" y1="1866.4" x2="2631" y2="1866.4"/>
</g>
<g id="fleurs">
	<line class="st8" x1="2133.2" y1="1661.6" x2="2123.8" y2="1413.6"/>
	<line class="st8" x1="2140.3" y1="1647.7" x2="2094.8" y2="1445.8"/>
	<line class="st8" x1="2101.9" y1="1632.2" x2="2176" y2="1437.9"/>
	<line class="st8" x1="2131" y1="1604.4" x2="2095.7" y2="1340"/>
	<line class="st8" x1="2120.2" y1="1616.5" x2="2155.2" y2="1399.8"/>
	<circle class="st4" cx="2177.8" cy="1432" r="10.6"/>
	<circle class="st4" cx="2095.4" cy="1331.8" r="17.5"/>
	<circle class="st4" cx="2092" cy="1436.7" r="10.4"/>
	<circle class="st4" cx="2123.4" cy="1404" r="13"/>
	<circle class="st4" cx="2156.9" cy="1394.9" r="7.9"/>
</g>
<g id="bulles">
	<g id="bulle2">
		<path class="st5" d="M1378.1,503.8L1378.1,503.8c-6.3-27.5-38.4-45.7-71.9-40.5l-45.8,7.1c-4.6,0.6-4.8-3.6-4.3-5
			c0.5-1.4,3.1-1.9,3.1-1.9l0,0l18.3-2.8c24.6-3.8,40.8-23.3,36.2-43.5l0,0c-4.6-20.2-28.3-33.6-52.9-29.8l-286.4,44.2
			c-24.6,3.8-40.8,23.3-36.2,43.5l0,0c4.6,20.2,28.3,33.6,52.9,29.8l32.3-5c4.1-0.6,6.9,3.6,3.8,5.9c-0.1,0.1-0.3,0.2-0.4,0.3
			l-0.2,0.1c-0.5,0.3-1.1,0.5-1.7,0.6l-175.1,27c-33.4,5.2-55.5,31.7-49.2,59.2l0,0c6.3,27.5,38.5,45.7,71.9,40.5l88.1-13.6
			c0,0,11.3-2.1,12.3,3.5c1.5,8.4-11.5,10.3-11.5,10.3c-33.4,5.2-55.5,31.7-49.2,59.2l0,0c6.3,27.5,38.5,45.7,71.9,40.5l254.4-39.2
			c33.4-5.2,55.5-31.7,49.2-59.2l0,0c-6.3-27.5-38.5-46.8-71.9-41.7c-1.3,0.2-4.1,0.2-5.3-0.2c-4.2-1.2-11.5-9,4.3-12.4l0,0
			l114-17.6C1362.3,557.8,1384.4,531.3,1378.1,503.8z"/>
	</g>
	<g id="bulle3">
		<path class="st5" d="M295.5,392.8l89.3-12.7c2.6-0.4,15.2-2.9,12.6-12.8c-1.5-5.4-5.3-7.3-8.9-7.8c-1.6-0.2-3.2-0.2-4.8,0
			l-6.6,0.9c-29.8,4.2-56.8-12.3-60.3-36.9l0,0c-3.5-24.6,17.9-48,47.7-52.2l296.9-42.2c29.8-4.2,56.8,12.3,60.3,36.9l0,0
			c3.5,24.6-17.8,48-47.7,52.2l-105.5,13.2c-12.9,1.9-48.8,4.5-53.8,13.6c-3.3,6.1-1.8,15.6,23.9,13.1l12-1.7
			c36.8-5.2,70.2,15.1,74.5,45.5l0,0c4.3,30.4-22,59.2-58.9,64.5l-255.1,36.2c-36.8,5.2-70.2-15.1-74.5-45.5l0,0
			C232.3,426.8,258.7,398,295.5,392.8z"/>
	</g>
	<path class="st5" d="M2168.8,1023.6c0,0,316.6-77.1,388.2-23.9c71.6,53.1,73.9,122.4,73.9,122.4c-0.6,36.1,18.5,160.4-370.2,207.8
		c-72.8,8.9-77.2,32.8-77.9,41c-0.4,5.4-4.4,32.5,26.4,31.4c103.2-3.5,260.7-41.1,260.7-41.1l0,0l184.8-29.7
		c105.7-17,208.9,36.6,230.5,119.8c21.6,83.2-46.6,164.3-152.2,181.3l-370,59.5c-12.6,2.3-48.3,11.1-44.7,35.9
		c2.5,17.5,24.9,19.3,43.1,17.9l24.1-3.9l39.5-6.4c92.8-14.9,183.3,32.2,202.3,105.2c19,73-40.9,144.2-133.6,159.2l-164.5,26.4
		c0,0-48.2,14.9-34,46.8c5.1,11.4,14,18.2,23.3,22.2c10.8,3.8,22.7,5.6,34.8,5.4c70-1.6,133.4,36.5,147.9,92.3
		c16.2,62.5-35,123.5-114.4,136.3l-741.5,119.2c-79.4,12.8-157-27.5-173.2-90c-12.2-46.9,13.6-92.9,60.8-118.4
		c47-25.4,21.8-83.4-35-79.7c-1.5,0.1-3.1,0.2-4.7,0.3l-426.2,68.5c-92.8,14.9-183.3-32.2-202.3-105.1
		c-19-73,40.9-144.2,133.6-159.2l130.1-20.9c0,0,32.7-9,24.6-32.6c-8.1-23.6-37.9-18.8-37.9-18.8l-581.5,93.5
		c-105.7,17-208.9-36.6-230.5-119.8c-21.6-83.1,46.6-164.3,152.3-181.3l631.2-101.5c6.4-1,12-4.4,14.4-9.2c2-4.1,1.1-7.4-0.9-10.1
		c-3.6-4.8-11-7.1-17.9-6l-44.7,7.2c-121.1,19.5-374.8,33.6-399.2-128.6c-8.2-152,169.1-194.9,290.2-214.3l38.7-6.2
		c7.8-1.3,17.5-4.6,18.7-10.8c0.8-4.4-1.2-11.3-7.9-14.8c-3.3-1.7-7.6-0.9-9.3-0.6L530.2,1260c-90.9,14.6-179.6-31.5-198.1-103
		c-18.6-71.5,40-141.3,130.9-155.9l1080.6-173.7c90.9-14.6,179.6,31.5,198.1,103c18.6,71.5-40,141.3-130.9,155.9l-30.7,4.9
		c-6.3,1-12.2,3.5-16.6,7.3c-4.7,4.1-7.4,9.7,1.7,14.9c6.1,3.5,13.9,4.6,21.3,3.4l566.7-91.1
		C2158.4,1024.8,2163.6,1024.2,2168.8,1023.6l-73.9,11.8"/>
	<path class="st9" d="M1086.6,1583.6l-631.2,101.5c-105.7,17-173.9,98.2-152.3,181.3H2631c-0.1-8.5-1.2-17.1-3.5-25.7
		c-19-73-109.5-120.1-202.3-105.1l-39.5,6.4l-24.1,3.9c-18.3,1.5-40.6-0.4-43.1-17.9c-3.6-24.8,32.1-33.6,44.7-35.9l370-59.5
		c105.7-17,173.8-98.2,152.2-181.3c-21.6-83.1-124.8-136.8-230.5-119.8l-184.8,29.7c0,0-157.5,37.6-260.7,41.1
		c-30.8,1-26.9-26.1-26.4-31.4c0.7-8.2,5.1-32.1,77.9-41c388.7-47.3,369.6-171.7,370.2-207.8c0,0-2.3-69.3-73.9-122.4
		c-71.6-53.1-388.2,23.9-388.2,23.9c-5.2,0.5-10.4,1.2-15.6,2.1l-566.7,91.1c-7.4,1.2-15.2,0.1-21.3-3.4c-9.1-5.2-6.4-10.8-1.7-14.9
		c4.3-3.8,10.2-6.2,16.6-7.3l30.7-4.9c90.9-14.6,149.5-84.4,130.9-155.9c-18.6-71.5-107.3-117.6-198.1-103L463,1001.1
		c-90.9,14.6-149.5,84.4-130.9,155.9c18.6,71.5,107.3,117.6,198.1,103l438.4-69.9c1.8-0.3,6-1.1,9.3,0.6c6.7,3.5,8.7,10.5,7.9,14.8
		c-1.1,6.2-10.8,9.6-18.7,10.8l-38.7,6.2c-121.1,19.5-298.4,62.3-290.2,214.4c24.4,162.3,278.1,148.1,399.2,128.6l44.7-7.2
		c7-1.1,14.3,1.1,17.9,6c2,2.6,2.9,6,0.9,10.1C1098.6,1579.2,1093,1582.6,1086.6,1583.6z"/>
</g>
<g id="alex_dos" class="st0">
	<g id="haut_du_corps_2_" class="st10">
		<path class="st11" d="M2103.3,2374.9l-407.7,65.5v-248.5c0-81,55-149.8,127.5-156.8c1.4-0.1,2.9-0.3,4.4-0.4
			c15.1-1.1,79.7-3.5,119.7-5c34.9-1.3,69.6,8.4,99.3,29c1.2,0.8,2.4,1.7,3.6,2.6c33.5,24.6,53.2,66.9,53.2,111.6V2374.9z"/>
	</g>
	<g id="cheveux_2_" class="st10">
		<path class="st12" d="M1801.4,2014.5c0,0,112.8,67.7,194.8-8.2c0,0-6.2-135.3-90.2-145.6
			C1821.9,1850.5,1797.3,1987.9,1801.4,2014.5z"/>
	</g>
	<polyline class="st13" points="1801.9,2157.7 1771.6,2428.2 2020.5,2388.2 1997.1,2157.7 	"/>
</g>
<g id="vase">
	<path class="st3" d="M2065.4,1906.4h138.7c0,0,33.7-265.4-54.8-313.4c-55.1-29.9,54.8-59.9,54.8-59.9h-147.3c0,0,98.4,30,45.9,59.5
		C2019.6,1639.3,2065.4,1906.4,2065.4,1906.4z"/>
</g>
<g id="perso_1">
	<path class="st2" d="M1473.3,2067.9c0,0-25-221.2-10.7-310.4h62.4l-16.1,310.4H1473.3z"/>
	<path class="st2" d="M1682,2067.9c0,0-77.8-200.4-89.2-310.4h58.9l65.7,310.4H1682z"/>
	<path class="st3" d="M1485.1,1502.3h107.7c0,0,34.6,64.1,88.2,284.5h-98l-35.3-182.9c0,0-12.5,128.1-9,182.9h-98
		C1440.8,1786.9,1452.5,1607.3,1485.1,1502.3z"/>
	<polygon class="st2" points="1549.9,1323.8 1531.1,1295.4 1513.1,1284.9 1507.1,1325.5 	"/>
	<path class="st2" d="M1463.9,1496.3c0,0,6.3,0.7,5.8,11.8s-5,26.3,5.3,31.6l10.1-37.4l-7.4-18.5L1463.9,1496.3z"/>
	<path class="st2" d="M1673.8,1331.1c0,0,7.2-46.9,14.1-51.2c6.8-4.4,11.5,10.3,10,19.3c-1.5,8.9-7.7,14.7-8.7,31.9
		C1688,1348.4,1673.8,1331.1,1673.8,1331.1z"/>
	<path class="st6" d="M1485.1,1502.3h107.7c0,0-11.3-109.5,4-133.3c0,0,11.8-9.6,3.4-18c-8.4-8.4-19.3-28.7-55.5-36h-45.8
		c0,0-78,41.8-93.9,90.4c-2.7,8.2-2.9,16.9-0.6,25.2c4.5,15.6,17.5,43.5,55,74.9l19.9-23.7c0,0-45.1-46.8-36-56.8
		c9.1-10,27.9-36.2,27.9-36.2L1485.1,1502.3z"/>
	<path class="st14" d="M1560.9,1370.6c0,0,53,61,74.4,71.7c2.6,1.3,5.7,0.9,8.1-0.7c9.6-6.2,33.7-29.5,50.1-110.6H1668l-29.5,60.7
		c0,0-45.6-59.8-69-68.1"/>
	<path class="st15" d="M1481.6,1315.1"/>
	<path class="st2" d="M1511.1,1286.4c0,0,24.1,21.5,47.4,5.5s-5.7-58.5-13.8-65.2c-7.3-6.1-24.7-13.5-43.2-0.1
		S1485.5,1268.7,1511.1,1286.4z"/>
	<path class="st16" d="M1508.2,1284.2l16.7-19.7c0,0-9.3-6.5-2.9-12.3c7-6.3,13.5,3.6,13.5,3.6l18.6-17.7c0,0-9.8-20.5-33.7-18.8
		c-23.9,1.7-30,24.3-30,24.3S1484.4,1266.3,1508.2,1284.2z"/>
	<path class="st3" d="M1680.2,2062.1c0,0,16.9,13.1,37.2,0c0,0,4.8,20.8,15.2,24.9c4.6,1.8,11.8,1.4,19.3,1.8
		c14.1,0.8,25.1,12.5,25.1,26.6v0h-99.2L1680.2,2062.1z"/>
	<path class="st3" d="M1472.1,2060.1c0,0,15.8,11,37.5,0l5,54.1h-46.7L1472.1,2060.1z"/>
	<rect x="1677.9" y="2115.5" class="st2" width="99.2" height="9.5"/>
	<rect x="1467.8" y="2114.2" class="st2" width="46.7" height="10.7"/>
	<polygon class="st2" points="1684.4,1322 1670.7,1309.3 1682.6,1260.5 1696.4,1273.3 	"/>
</g>
<g id="perso_2">
	<path class="st17" d="M2013.8,1871.9c0,0,29.7-44.6,26-218.2h-34.3l-9.3,177.3L2013.8,1871.9z"/>
	<path class="st17" d="M1823.1,1871.9c0,0-29.7-44.6-26-218.2h34.3l9.3,177.3L1823.1,1871.9z"/>
	<polygon class="st17" points="1864.5,2251 1881.1,2299.8 1912.4,2281.5 1912.4,2238.7 	"/>
	<polygon class="st17" points="1929,2238.7 1936.9,2312 1966.5,2312 1972.6,2238.7 	"/>
	<path class="st14" d="M1855.7,1733.3h127.2c0,0,48.9,54.8,33.3,217.3s-37.2,317.1-37.2,317.1h-123.3l-35.2-328.9
		C1820.4,1938.9,1806.7,1780.3,1855.7,1733.3z"/>
	<path class="st2" d="M1936.9,2312c0,0-15.6,42.2-7.8,67.6h48c0,0-3.8-50.7-10.5-67.6H1936.9z"/>
	<path class="st2" d="M1876.1,2285.2c0,0,6.6,68.7,0,73.8c-6.6,5.1-20.8,8.1-22.8,20.6h31.8c0,0,10.8-74.3,49.5-88.9l-22.1-15.4
		L1876.1,2285.2z"/>
	<path class="st18" d="M1887.5,2379.6h35.5c0,0,28.5-90.2,10.1-88.9C1910.5,2292.4,1883.7,2363,1887.5,2379.6z"/>
	<line class="st17" x1="1919" y1="2267.7" x2="1919" y2="1891.9"/>
	<path class="st17" d="M1845.8,1524.7c0,0,46-4.5,51.4-12.6c5.4-8.1,10.4-21.7,10.4-21.7h31.8c0,0,6.1,20.3,8.7,22.8
		c3.7,3.5,44.7,11.5,44.7,11.5v104.1l-147.1,3.6V1524.7z"/>
	<path class="st2" d="M1986.5,1523.4c0,0-46.4,76.2-67.1,78.3c-20.7-2.1-67.1-78.3-67.1-78.3c-77.6,11.5-67.5,148.6-67.5,148.6h52
		l20.5,62.2h61.7h0.8h61.7l20.5-62.2h52C2054,1672,2064.1,1534.9,1986.5,1523.4z"/>
	<line class="st7" x1="2002" y1="1672" x2="1992" y2="1608.9"/>
	<line class="st19" x1="1836.8" y1="1672" x2="1851.3" y2="1608.9"/>
	<path class="st17" d="M1960.2,1467.6c-10,21.1-30.9,32.1-46.7,24.7c-15.8-7.5-25.4-28.5-15.4-49.6c10-21.1,35.7-34.3,51.5-26.8
		C1965.4,1423.4,1970.1,1446.5,1960.2,1467.6z"/>
	<path class="st16" d="M1927.3,1436.8l-20.4-16.6c0,0,27.4-28.2,59.7-11.9c46.2,23.5,22.2,180,22.2,180h-95l29-123.5
		c0,0,8.7-0.3,9.6-5.7c0.9-5.3-6.8-6.9-6.8-6.9L1927.3,1436.8z"/>
</g>
<g id="perso_3">
	<path class="st16" d="M959.4,1974.5l-37.6,40.4l42.6,41.5h39.3c0,0-3.9-11.6-24.9-21.6c0,0-5.8-24.3,11.5-60.3H959.4z"/>
	<path class="st16" d="M1141.8,1989.4v66.9l95.1,2.2c0,0,0-17.9-36.2-24.7c-6.4-1.2-12.2-4.5-16.5-9.4c-6.7-7.7-15.1-20.7-16.6-38.3
		L1141.8,1989.4z"/>
	<path class="st8" d="M990.2,1384.9c0,0,34.8-119.6,81.5-118.2s72.7,118.2,72.7,118.2H990.2z"/>
	<path class="st17" d="M1059.7,1338.7c0,0,0.8,28.3-21.4,41.2c-22.2,13-5.4,35.1-5.4,35.1l91.9-5.4l-17.8-42.2
		c0,0-23.2,1.8-24.3-28.8H1059.7z"/>
	<path class="st17" d="M1048.9,1319.6c0,0,4.8,25.9,25.9,23.1c21.1-2.7,19.7-53.1,19.7-53.1l-18.7-16.1l-15.3,16.1L1048.9,1319.6z"
		/>
	<polygon class="st8" points="1018,1393.2 1146.9,1393.2 1146.9,1500.4 1009,1500.4 	"/>
	<polyline class="st3" points="1048.9,1691.8 951.3,1919 930.1,1968.5 949.4,1979.2 1002.8,2008.8 1167.6,1582.3 1146.9,1500.4 
		1009,1500.4 990.2,1569.1 	"/>
	<path class="st3" d="M990.2,1569.1c0,0,60.1,312.7,134.6,439.6h70.3L1078,1586.2"/>
	<path class="st17" d="M1286.8,1452.6c0,0,23.3-31.7,74-36.2c2.1-0.2,5.3,4.5,4.1,6.2c-4,5.5-13.4,16.3-25.2,20.5
		c-15.7,5.6-45.7,14.3-45.7,14.3L1286.8,1452.6z"/>
	<path class="st16" d="M1048.9,1368c0,0-49.9-7.4-91.9,33.5s-77.5,64-67.4,80.2c8.7,14,72.3,77.6,72.3,77.6l14.7-47.2l-30.3-29.2
		l50.6-36l-45.1,145.3c0,0,20.5,17.5,57.3,18.6S1048.9,1368,1048.9,1368z"/>
	<path class="st16" d="M1099.9,1366.6c0,0,45.1-7.6,60.5,7.8s65.9,105.2,77,104.1s56.8-45.1,56.8-45.1l34,36.1
		c0,0-85,69.6-106.2,58.4c-21.2-11.2-54.4-60.5-54.4-60.5s35.3,138.1,34.2,143.4c-1.1,5.3-57.4,2.7-57.4,2.7L1099.9,1366.6z"/>
	<polygon class="st20" points="1018.8,1342.9 1071.7,1268.9 1087.7,1276.1 1097.9,1283.9 1050.8,1325.8 	"/>
	<path class="st8" d="M1029.5,1340.3c28-12.1,70.4-56.4,70.4-56.4"/>
</g>
<g id="Calque_14">
	<path class="st8" d="M888.9,1577.3c55.1,0.7,108.6-5.1,148.1-11.4l44.7-7.2c7-1.1,14.3,1.2,17.9,6c2,2.6,2.9,6,0.9,10.1
		c-2.4,4.8-8,8.2-14.4,9.2l-196.2,31.5"/>
	<path class="st8" d="M864.8,2124.7c-19-73,40.9-144.2,133.6-159.2l130.1-20.9c0,0,32.7-9,24.6-32.6c-8.1-23.6-37.9-18.8-37.9-18.8
		l-581.5,93.5"/>
</g>
</svg>
