<?xml version="1.0" encoding="utf-8"?>
<!-- Generator: Adobe Illustrator 24.0.3, SVG Export Plug-In . SVG Version: 6.00 Build 0)  -->
<svg version="1.1" id="Calque_1" xmlns="http://www.w3.org/2000/svg" xmlns:xlink="http://www.w3.org/1999/xlink" x="0px" y="0px"
	 viewBox="0 0 841.9 595.3" style="enable-background:new 0 0 841.9 595.3;" xml:space="preserve">
<style type="text/css">
	.st0{fill:#010202;}
	.st1{fill:#0F4239;}
	.st2{display:none;}
	.st3{display:inline;fill:#0E4239;stroke:#302E2F;stroke-width:2;stroke-linejoin:round;stroke-miterlimit:10;}
	.st4{display:inline;fill:#FFFFFF;stroke:#302E2F;stroke-width:2;stroke-miterlimit:10;}
	.st5{display:inline;fill:#43B06F;stroke:#302E2F;stroke-width:2;stroke-miterlimit:10;}
	.st6{display:inline;fill:none;stroke:#302E2F;stroke-width:2;stroke-miterlimit:10;}
	.st7{display:inline;fill:#0E4239;stroke:#302E2F;stroke-width:2;stroke-miterlimit:10;}
	.st8{display:inline;fill:#FAB431;stroke:#302E2F;stroke-width:2;stroke-miterlimit:10;}
	.st9{fill:#FFFFFF;stroke:#302E2F;stroke-width:2;stroke-miterlimit:10;}
	.st10{fill:#302E2F;stroke:#302E2F;stroke-width:2;stroke-linejoin:round;stroke-miterlimit:10;}
	.st11{fill:#FFFFFF;stroke:#302E2F;stroke-width:2;stroke-linejoin:round;stroke-miterlimit:10;}
	.st12{fill:#43B06F;stroke:#302E2F;stroke-width:2;stroke-miterlimit:10;}
	.st13{fill:none;stroke:#302E2F;stroke-width:2;stroke-linejoin:round;stroke-miterlimit:10;}
</style>
<g id="Calque_1_1_">
	<circle class="st0" cx="420.9" cy="145" r="2.2"/>
</g>
<g id="couleurs">
	
		<image style="overflow:visible;enable-background:new    ;" width="79" height="78" id="Capture_d_x2019_écran_2020-01-17_à_14.35.14_xA0_Image_2_" xlink:href="4E512058FA70B9D0.png"  transform="matrix(0.8466 0 0 0.8466 928.4373 653.3586)">
	</image>
	
		<image style="overflow:visible;enable-background:new    ;" width="107" height="92" id="Capture_d_x2019_écran_2020-01-17_à_14.29.08_xA0_Image_3_" xlink:href="4E512058FA70B9D1.png"  transform="matrix(0.8416 0 0 0.8416 915.9963 171.6875)">
	</image>
	
		<image style="overflow:visible;enable-background:new    ;" width="97" height="102" id="Capture_d_x2019_écran_2020-01-17_à_14.28.58_xA0_Image_2_" xlink:href="4E512058FA70B9D7.png"  transform="matrix(0.8408 0 0 0.8408 920.6712 54.7432)">
	</image>
	<rect x="905.7" y="-55.1" class="st1" width="106.3" height="86.1"/>
	
		<image style="overflow:visible;enable-background:new    ;" width="102" height="72" id="Capture_d_x2019_écran_2020-01-17_à_14.29.25_xA0_Image_2_" xlink:href="4E512058FA70B9D2.png"  transform="matrix(0.8408 0 0 0.8408 918.5692 277.0421)">
	</image>
	
		<image style="overflow:visible;enable-background:new    ;" width="104" height="76" id="Capture_d_x2019_écran_2020-01-17_à_14.33.50_xA0_Image_3_" xlink:href="4E512058FA70B9D3.png"  transform="matrix(0.8411 0 0 0.8411 917.7115 363.6825)">
	</image>
	
		<image style="overflow:visible;enable-background:new    ;" width="90" height="90" id="Capture_d_x2019_écran_2020-01-17_à_14.35.00_xA0_Image_2_" xlink:href="4E512058FA70B9DE.png"  transform="matrix(0.8385 0 0 0.8385 918.5692 452.6766)">
	</image>
	
		<image style="overflow:visible;enable-background:new    ;" width="97" height="86" id="Capture_d_x2019_écran_2020-01-17_à_14.35.06_xA0_Image_3_" xlink:href="4E512058FA70B9DF.png"  transform="matrix(0.8488 0 0 0.8488 920.2844 559.4011)">
	</image>
</g>
<g id="Calque_2_1_">
</g>
<g id="bureau">
</g>
<g id="écran">
</g>
<g id="Calque_6" class="st2">
	<polygon class="st3" points="53.6,303.2 892.9,303.2 782,264.4 162.3,264.4 	"/>
	<polygon class="st4" points="276.1,296 575.8,296 536.2,282.2 314.9,282.2 	"/>
	<rect x="277" y="41" class="st4" width="297.8" height="191.8"/>
	<path class="st4" d="M454,232.8h-29.6H423h-29.5c-2.9,23.4-18.4,41.5-18.4,41.5h42.6h12.1h42.6C472.3,274.3,457,256.2,454,232.8z"
		/>
	<rect x="277" y="57.1" class="st4" width="297.8" height="8.3"/>
	<circle class="st4" cx="283.2" cy="61.2" r="1.2"/>
	<circle class="st4" cx="290.1" cy="61.2" r="1.2"/>
	<circle class="st4" cx="297.1" cy="61.2" r="1.2"/>
	<rect x="277" y="41" class="st5" width="297.8" height="16.1"/>
	<rect x="277" y="216.6" class="st5" width="297.8" height="16.1"/>
	<polygon class="st4" points="727.7,257.8 776.5,185.9 782.5,188.9 756.6,262.3 	"/>
	<path class="st4" d="M765.1,277.6c-0.4-12.1-14.5-21.9-31.9-21.9s-31.6,9.8-31.9,21.9H765.1z"/>
	<line class="st6" x1="783.7" y1="187.3" x2="728.4" y2="125.6"/>
	<circle class="st7" cx="779.5" cy="187.6" r="4.2"/>
	<circle class="st7" cx="725.8" cy="128.5" r="4.2"/>
	<circle class="st8" cx="704.4" cy="158.4" r="12.5"/>
	<path class="st4" d="M731.5,177.9c9.7-15.1,5.8-35.1-9-45.1c-14.8-10-34.9-6.2-45.2,8.5L731.5,177.9z"/>
</g>
<g id="Calque_8">
	<polygon class="st9" points="778,264.9 816.5,554.7 735.9,264.7 	"/>
	<polygon class="st10" points="778,264.9 790.7,270.1 816.5,554.7 	"/>
	<polygon class="st9" points="153.1,264.9 114.7,554.7 195.2,264.7 	"/>
	<polygon class="st10" points="153.1,264.9 140.4,270.1 114.7,554.7 	"/>
	<polygon class="st11" points="45.7,302.9 892.6,302.9 780.7,263.8 240.6,263.8 155.4,263.8 	"/>
	<polygon class="st10" points="892.2,309 46.1,309 46.1,302.9 268,302.9 892.2,302.9 	"/>
	<polygon class="st12" points="849.5,309.6 882.7,614.5 786.3,309.6 	"/>
	<polygon class="st12" points="77.4,309.6 41,606.7 140.6,309.6 	"/>
	<path class="st10" d="M101.2,553.4"/>
	<polygon class="st9" points="270.2,295.6 572.6,295.6 532.6,281.7 309.4,281.7 	"/>
	<rect x="271.1" y="38.3" class="st9" width="300.5" height="193.5"/>
	<path class="st9" d="M449.8,231.8h-29.9h-1.4h-29.8c-3,23.6-18.5,41.9-18.5,41.9h42.9h12.2h42.9
		C468.2,273.7,452.7,255.4,449.8,231.8z"/>
	<rect x="271.1" y="54.5" class="st9" width="300.5" height="8.4"/>
	<circle class="st9" cx="277.4" cy="58.8" r="1.3"/>
	<circle class="st9" cx="284.4" cy="58.8" r="1.3"/>
	<circle class="st9" cx="291.4" cy="58.8" r="1.3"/>
	<rect x="271.1" y="38.3" class="st12" width="300.5" height="16.2"/>
	<rect x="271.1" y="215.6" class="st12" width="300.5" height="16.2"/>
	<path class="st10" d="M636.2,127.2l-9.6,13.5l19.9,11.2l-3.1,4.6H665l14.8-4.2l-31.8-28C644.2,121,639.1,123.7,636.2,127.2z"/>
	<path class="st11" d="M709.4,219.1c0,0-6.6-45.5-24.1-61.8l-38.2-33.6c0,0,0.9,3,0.6,8.8c-0.3,7-6.3,10.8-8.8,15.9
		c-3,6.2-2,11.1,7,7.3c16-6.8,16-6.6,13.9,1.5c-4.2,15.6,25.5,0,25.5,0"/>
	<path class="st11" d="M713.8,211.4c0,0,2.4-128.5-38.4-156.9"/>
	<path class="st13" d="M725.6,221.7c0,0,1.2-53.1,31.5-93.3"/>
	<path class="st11" d="M758.7,224.9L758.7,224.9c0-0.1-0.1-0.1-0.1-0.2c-0.6-1-1.2-2.1-1.9-3c-6.3-11.2-1-18.3-1-18.3h-75.5
		c5,5.8,1.3,14.4-1.1,18.8c-0.6,0.9-1.2,1.8-1.7,2.7c0,0.1-0.1,0.1-0.1,0.1h0c-4,6.9-6.3,14.9-6.3,23.4c0,26,21,43.6,47,43.6
		s47-17.6,47-43.6C765,239.8,762.7,231.8,758.7,224.9z"/>
	<path class="st13" d="M757.5,127.9c0,0,6.4-41.3,16.2-37.3C783.5,94.7,757.5,127.9,757.5,127.9z"/>
	<path class="st13" d="M757.4,128.2c0,0,26.3-32.6,32.7-24.1C796.5,112.4,757.4,128.2,757.4,128.2z"/>
	<path class="st13" d="M757.3,127.9c0,0,36.9-19.7,39.5-9.4C799.4,128.7,757.3,127.9,757.3,127.9z"/>
	<path class="st13" d="M757.5,127.9c0,0-10.3-40.5,0.3-40.6C768.4,87.2,757.5,127.9,757.5,127.9z"/>
	<path class="st11" d="M732.1,181.8c0,0-16.8-6.6-21.4-18.3C706.1,151.8,732.1,181.8,732.1,181.8z"/>
	<path class="st11" d="M737.9,163.9c0,0,17.6,4.1,28-3.1C776.3,153.7,737.9,163.9,737.9,163.9z"/>
	<path class="st13" d="M675.9,55c0,0-18.2-7.5-14-12C666.2,38.5,675.9,55,675.9,55z"/>
	<path class="st13" d="M708.8,135.7c0,0-17.2-2.3-11.9,3.1C699.7,141.7,708.8,135.7,708.8,135.7z"/>
	<path class="st13" d="M709.4,136.2c0,0,17.6-11.6,14.3-3.9C722,136.4,709.4,136.2,709.4,136.2z"/>
	<path class="st13" d="M679.9,58.2c0,0,3.8-12.5,14.8-14.8C705.9,41,679.9,58.2,679.9,58.2z"/>
	<path class="st13" d="M680.3,57.3c0,0-19,10.4-15.9,17.9C666,78.9,680.3,57.3,680.3,57.3z"/>
	<path class="st13" d="M705.7,122.3c0,0-8.3,10.1-19.3,8C675.1,128.2,705.7,122.3,705.7,122.3z"/>
	<path class="st13" d="M705,123c0,0,21.6-2.3,21.5-10.4C726.5,108.5,705,123,705,123z"/>
	<path class="st13" d="M688,68.2c0,0,13.2-18.1,28.3-15.6S688,68.2,688,68.2z"/>
	<path class="st13" d="M688.1,67.6c0,0-18.7,7.8-25.6,22.6S688.1,67.6,688.1,67.6z"/>
	<path class="st13" d="M694.7,80.4c0,0,24.2-21.3,40.5-18.3C751.3,65.1,694.7,80.4,694.7,80.4z"/>
	<path class="st13" d="M694.7,80c0,0-32.4,13.6-29.8,23.3C667.3,112.7,694.7,80,694.7,80z"/>
	<path class="st13" d="M704.8,111.9c0,0,31.1-6.3,32.1-16.3S704.8,111.9,704.8,111.9z"/>
	<path class="st11" d="M705.1,111.6c0,0-18.9-1.4-32.4,5.1c-4.8,2.3-1.5,9,3.7,7.5C682.4,122.5,697.8,117.6,705.1,111.6z"/>
	<path class="st13" d="M700.6,96.9c0,0,28.3-22.6,35.8-19.8C747.2,81.3,700.6,96.9,700.6,96.9z"/>
	<path class="st13" d="M700.6,97.5c0,0-21.6,1.3-22,9.4C678.4,111,700.6,97.5,700.6,97.5z"/>
</g>
</svg>
