<?xml version="1.0" encoding="utf-8"?>
<!-- Generator: Adobe Illustrator 23.1.1, SVG Export Plug-In . SVG Version: 6.00 Build 0)  -->
<svg version="1.1" id="Calque_1" xmlns="http://www.w3.org/2000/svg" xmlns:xlink="http://www.w3.org/1999/xlink" x="0px" y="0px"
	 viewBox="0 0 700 700" style="enable-background:new 0 0 700 700;" xml:space="preserve">
<style type="text/css">
	.st0{clip-path:url(#SVGID_2_);}
	.st1{clip-path:url(#SVGID_4_);fill:#2D59A5;}
	.st2{clip-path:url(#SVGID_4_);fill:none;stroke:#302E2E;stroke-width:4;stroke-miterlimit:10;}
	.st3{clip-path:url(#SVGID_6_);fill:#302E2E;}
	.st4{clip-path:url(#SVGID_6_);fill:none;stroke:#302E2E;stroke-width:5;stroke-miterlimit:10;}
	.st5{clip-path:url(#SVGID_8_);fill:#FFFFFF;}
	.st6{clip-path:url(#SVGID_8_);fill:none;stroke:#302E2E;stroke-width:5;stroke-miterlimit:10;}
	.st7{clip-path:url(#SVGID_8_);fill:#FAB430;}
	.st8{clip-path:url(#SVGID_10_);fill:#FFFFFF;}
	.st9{clip-path:url(#SVGID_10_);fill:none;stroke:#302E2E;stroke-width:5;stroke-miterlimit:10;}
	.st10{clip-path:url(#SVGID_10_);fill:#FAB430;}
	.st11{clip-path:url(#SVGID_10_);fill:#302E2E;}
	.st12{clip-path:url(#SVGID_12_);fill:#302E2E;}
	.st13{clip-path:url(#SVGID_12_);fill:none;stroke:#302E2E;stroke-width:5;stroke-miterlimit:10;}
	.st14{clip-path:url(#SVGID_14_);fill:#302E2E;}
	.st15{clip-path:url(#SVGID_14_);fill:none;stroke:#302E2E;stroke-width:5;stroke-miterlimit:10;}
	.st16{clip-path:url(#SVGID_16_);fill:#FFFFFF;}
	.st17{clip-path:url(#SVGID_16_);fill:#302E2E;}
	.st18{clip-path:url(#SVGID_18_);fill:#FFFFFF;}
	.st19{clip-path:url(#SVGID_18_);fill:none;stroke:#302E2E;stroke-width:4;stroke-miterlimit:10;}
	.st20{clip-path:url(#SVGID_20_);fill:#302E2E;}
	.st21{clip-path:url(#SVGID_22_);fill:#FFFFFF;}
	.st22{clip-path:url(#SVGID_22_);fill:none;stroke:#302E2E;stroke-width:4;stroke-miterlimit:10;}
	.st23{clip-path:url(#SVGID_24_);fill:#FFFFFF;}
	.st24{clip-path:url(#SVGID_24_);fill:none;stroke:#302E2E;stroke-width:4;stroke-miterlimit:10;}
	.st25{clip-path:url(#SVGID_26_);fill:#FFFFFF;}
	.st26{clip-path:url(#SVGID_26_);fill:none;stroke:#302E2E;stroke-width:4;stroke-miterlimit:10;}
	.st27{clip-path:url(#SVGID_28_);fill:#302E2E;}
	.st28{clip-path:url(#SVGID_30_);fill:#FFFFFF;}
	.st29{clip-path:url(#SVGID_30_);fill:#302E2E;}
	.st30{clip-path:url(#SVGID_32_);fill:#FFFFFF;}
	.st31{clip-path:url(#SVGID_32_);fill:#302E2E;}
	.st32{clip-path:url(#SVGID_34_);fill:#FFFFFF;}
	.st33{clip-path:url(#SVGID_34_);fill:none;stroke:#302E2E;stroke-width:4;stroke-miterlimit:10;}
	.st34{clip-path:url(#SVGID_36_);fill:#2D59A5;}
	.st35{clip-path:url(#SVGID_36_);fill:#302E2E;}
	.st36{clip-path:url(#SVGID_38_);fill:#2D59A5;}
	.st37{clip-path:url(#SVGID_38_);fill:#302E2E;}
	.st38{fill:none;stroke:#302E2E;stroke-width:4;stroke-linecap:round;stroke-miterlimit:10;}
</style>
<g>
	<g>
		<defs>
			<rect id="SVGID_1_" x="-173.3" y="220" width="1046.7" height="1180.1"/>
		</defs>
		<clipPath id="SVGID_2_">
			<use xlink:href="#SVGID_1_"  style="overflow:visible;"/>
		</clipPath>
		<g class="st0">
			<defs>
				<rect id="SVGID_3_" x="-173.3" y="220" width="1046.7" height="1180.1"/>
			</defs>
			<clipPath id="SVGID_4_">
				<use xlink:href="#SVGID_3_"  style="overflow:visible;"/>
			</clipPath>
			<path class="st1" d="M303,469.5l128-2c0,0-21-103.4-67-102C316,367,303,469.5,303,469.5"/>
			<path class="st2" d="M303,469.5l128-2c0,0-21-103.4-67-102C316,367,303,469.5,303,469.5z"/>
		</g>
		<g class="st0">
			<defs>
				<rect id="SVGID_5_" x="-173.3" y="220" width="1046.7" height="1180.1"/>
			</defs>
			<clipPath id="SVGID_6_">
				<use xlink:href="#SVGID_5_"  style="overflow:visible;"/>
			</clipPath>
			<path class="st3" d="M520.5,977.1c0,35.8-109.8,54.4-192.4,54.4s-147.3-8.4-141.8-43.8c6.4-42,93.5-97.5,176.1-97.5
				C445,890.2,520.5,941.3,520.5,977.1"/>
			<path class="st4" d="M520.5,977.1c0,35.8-109.8,54.4-192.4,54.4s-147.3-8.4-141.8-43.8c6.4-42,93.5-97.5,176.1-97.5
				C445,890.2,520.5,941.3,520.5,977.1z"/>
		</g>
		<g class="st0">
			<defs>
				<rect id="SVGID_7_" x="-173.3" y="220" width="1046.7" height="1180.1"/>
			</defs>
			<clipPath id="SVGID_8_">
				<use xlink:href="#SVGID_7_"  style="overflow:visible;"/>
			</clipPath>
			<path class="st5" d="M257,1196.9l-15.2,56.3c-2.2,8.9-10.1,15.7-19.2,15.5c-0.6,0-1.2,0-1.9-0.1c-11.4-0.8-17.4-12.4-15.8-23.7
				l7.9-59.5c2.1-14.8,19.1-22,31.2-13.3l5.5,4C255.9,1180.7,259,1189,257,1196.9"/>
			<path class="st6" d="M257,1196.9l-15.2,56.3c-2.2,8.9-10.1,15.7-19.2,15.5c-0.6,0-1.2,0-1.9-0.1c-11.4-0.8-17.4-12.4-15.8-23.7
				l7.9-59.5c2.1-14.8,19.1-22,31.2-13.3l5.5,4C255.9,1180.7,259,1189,257,1196.9z"/>
			<polygon class="st7" points="146.5,1202.6 272.3,1202.6 362.3,664.5 275.1,664.9 			"/>
			<polygon class="st6" points="146.5,1202.6 272.3,1202.6 362.3,664.5 275.1,664.9 			"/>
		</g>
		<g class="st0">
			<defs>
				<rect id="SVGID_9_" x="-173.3" y="220" width="1046.7" height="1180.1"/>
			</defs>
			<clipPath id="SVGID_10_">
				<use xlink:href="#SVGID_9_"  style="overflow:visible;"/>
			</clipPath>
			<path class="st8" d="M422.3,1181.6l1.6,58.3c0.4,9.1-5.2,17.9-14,20.3c-0.6,0.2-1.2,0.3-1.8,0.5c-11.2,2.5-20.3-6.9-22-18.2
				l-9.6-59.3c-2.2-14.7,12-26.6,26.1-21.7l6.4,2.2C416.7,1166.4,421.9,1173.5,422.3,1181.6"/>
			<path class="st9" d="M422.3,1181.6l1.6,58.3c0.4,9.1-5.2,17.9-14,20.3c-0.6,0.2-1.2,0.3-1.8,0.5c-11.2,2.5-20.3-6.9-22-18.2
				l-9.6-59.3c-2.2-14.7,12-26.6,26.1-21.7l6.4,2.2C416.7,1166.4,421.9,1173.5,422.3,1181.6z"/>
			<polygon class="st10" points="328,778 329.8,1210.8 457.9,1210.8 419.9,673.1 334.7,673.1 			"/>
			<polyline class="st10" points="328,778 329.8,1210.8 457.9,1210.8 419.9,673.1 			"/>
			<path class="st11" d="M325.8,778l0.2,43.1l0.4,103.5c0.2,41.6,0.4,83.1,0.5,124.7c0.2,36.1,0.3,72.1,0.5,108.2
				c0,11.9,0.1,23.8,0.1,35.7c0,5.5-0.6,11.4,0.1,16.9c0,0.3,0,0.5,0,0.8c0,1.2,1,2.2,2.2,2.2H442h15.9c1.2,0,2.3-1,2.2-2.2
				l-3.8-53.5c-3-42.8-6.1-85.7-9.1-128.5c-3.7-51.8-7.3-103.6-11-155.4c-3.2-44.8-6.3-89.5-9.5-134.3c-1-14.7-2.1-29.5-3.1-44.2
				c-0.5-6.9-0.6-14-1.5-20.8c0-0.3,0-0.6-0.1-0.9c-0.2-2.9-4.7-2.9-4.5,0c1.3,17.8,2.5,35.7,3.8,53.5c3,42.8,6.1,85.7,9.1,128.5
				c3.7,51.8,7.3,103.6,11,155.4c3.2,44.8,6.3,89.5,9.5,134.3c1,14.7,2.1,29.5,3.1,44.2l1,13.6c0.2,2.1-0.2,5.2,0.5,7.2
				c0.1,0.3,0,0.6,0.1,0.9l2.2-2.2H345.7h-15.9l2.2,2.2l-0.2-43.1l-0.4-103.5c-0.2-41.6-0.4-83.1-0.5-124.7
				c-0.2-36.1-0.3-72.1-0.5-108.2c-0.1-11.9-0.1-23.8-0.2-35.7c0-5.5,0.6-11.4-0.1-16.9c0-0.3,0-0.5,0-0.8
				C330.3,775.1,325.8,775.1,325.8,778"/>
		</g>
		<g class="st0">
			<defs>
				<rect id="SVGID_11_" x="-173.3" y="220" width="1046.7" height="1180.1"/>
			</defs>
			<clipPath id="SVGID_12_">
				<use xlink:href="#SVGID_11_"  style="overflow:visible;"/>
			</clipPath>
			<path class="st12" d="M381,1293.3h56.2c0,0,6.4-18.7-2.9-32.2c-6.3-9.1-7.9-15.6-8.3-18.8c-0.2-1.4-1.3-2.4-2.7-2.4h-39.6
				c0,0,0.3,17.6-4.8,23.6C372.4,1271.2,376.1,1287.4,381,1293.3"/>
			<path class="st13" d="M381,1293.3h56.2c0,0,6.4-18.7-2.9-32.2c-6.3-9.1-7.9-15.6-8.3-18.8c-0.2-1.4-1.3-2.4-2.7-2.4h-39.6
				c0,0,0.3,17.6-4.8,23.6C372.4,1271.2,376.1,1287.4,381,1293.3z"/>
		</g>
		<g class="st0">
			<defs>
				<rect id="SVGID_13_" x="-173.3" y="220" width="1046.7" height="1180.1"/>
			</defs>
			<clipPath id="SVGID_14_">
				<use xlink:href="#SVGID_13_"  style="overflow:visible;"/>
			</clipPath>
			<path class="st14" d="M122.3,1293.3h116c0,0,15.2-24.6,6.9-46.7c0,0-20.4,7.4-40.4-1.7c0,0-19.1,20.9-32.8,23.8
				C158.2,1271.6,124.3,1272.1,122.3,1293.3"/>
			<path class="st15" d="M122.3,1293.3h116c0,0,15.2-24.6,6.9-46.7c0,0-20.4,7.4-40.4-1.7c0,0-19.1,20.9-32.8,23.8
				C158.2,1271.6,124.3,1272.1,122.3,1293.3z"/>
		</g>
		<g class="st0">
			<defs>
				<rect id="SVGID_15_" x="-173.3" y="220" width="1046.7" height="1180.1"/>
			</defs>
			<clipPath id="SVGID_16_">
				<use xlink:href="#SVGID_15_"  style="overflow:visible;"/>
			</clipPath>
			<path class="st16" d="M223.9,773.3L209,875.6c0,0-9.6-10.4-8.5-28.2c1.1-17.8,6.4-14.8,5.3-31.2c-1.1-16.3-2.1-49-2.1-49
				S223.9,758.4,223.9,773.3"/>
			<path class="st17" d="M207.6,878.1c-0.4-0.5-10.5-11.6-9.4-30.9c0.5-9,2.2-13.3,3.5-16.7c1.4-3.6,2.4-6.2,1.9-13.9
				c-1.1-16.2-2.1-48.8-2.1-49.1l-0.1-2.4l1.6-0.7c1.4-0.6,14.2-6,20.1,0.1c2,2,3,5.1,3,8.8l-15.7,107.9L207.6,878.1z M220.5,769.4
				c-2.8-2.8-9.8-1.5-14.5,0.2c0.3,7.9,1.2,32.9,2,46.4c0.6,9.6-0.8,13.4-2.4,17.4c-1.2,3.2-2.5,6.6-3,14.3
				c-0.6,10.1,2.5,17.5,5,21.6l14-96.4C221.6,770.9,221,770,220.5,769.4"/>
		</g>
		<g class="st0">
			<defs>
				<rect id="SVGID_17_" x="-173.3" y="220" width="1046.7" height="1180.1"/>
			</defs>
			<clipPath id="SVGID_18_">
				<use xlink:href="#SVGID_17_"  style="overflow:visible;"/>
			</clipPath>
			<path class="st18" d="M290.7,506.2c0,0-35.3,7.5-58.3,97.4c-18.2,71.3-43.3,181.7-43.3,181.7h82.6c0,0,22.8-77.1,20.5-117.2
				C289.8,628,334.7,492.1,290.7,506.2"/>
			<path class="st19" d="M290.7,506.2c0,0-35.3,7.5-58.3,97.4c-18.2,71.3-43.3,181.7-43.3,181.7h82.6c0,0,22.8-77.1,20.5-117.2
				C289.8,628,334.7,492.1,290.7,506.2z"/>
		</g>
		<g class="st0">
			<defs>
				<rect id="SVGID_19_" x="-173.3" y="220" width="1046.7" height="1180.1"/>
			</defs>
			<clipPath id="SVGID_20_">
				<use xlink:href="#SVGID_19_"  style="overflow:visible;"/>
			</clipPath>
			<path class="st20" d="M443.8,695.4H258.3c0,0,3.6-83.7,11.8-133.4c8.2-49.7,44.1-71,44.1-71s-39.4,17.5,0,0
				c39.4-17.5,89.5-9.2,89.5-9.2S445.7,548.4,443.8,695.4"/>
		</g>
		<g class="st0">
			<defs>
				<rect id="SVGID_21_" x="-173.3" y="220" width="1046.7" height="1180.1"/>
			</defs>
			<clipPath id="SVGID_22_">
				<use xlink:href="#SVGID_21_"  style="overflow:visible;"/>
			</clipPath>
			<path class="st21" d="M351,448.5c0,0,0,19-8,34c-5.3,9.9,14.3,18.1,29.4,14.7c9.8-2.2,15.9-11.8,9.6-19.7
				c-4.1-5.1-10.5-16.3-12-32C367,413.5,352,437.5,351,448.5"/>
			<path class="st22" d="M351,448.5c0,0,0,19-8,34c-5.3,9.9,14.3,18.1,29.4,14.7c9.8-2.2,15.9-11.8,9.6-19.7
				c-4.1-5.1-10.5-16.3-12-32C367,413.5,352,437.5,351,448.5z"/>
		</g>
		<g class="st0">
			<defs>
				<rect id="SVGID_23_" x="-173.3" y="220" width="1046.7" height="1180.1"/>
			</defs>
			<clipPath id="SVGID_24_">
				<use xlink:href="#SVGID_23_"  style="overflow:visible;"/>
			</clipPath>
			<path class="st23" d="M400.7,477.2c0,0,52.7,3.6,69.5,20.8c16.8,17.2,16.5,325.5,49.5,475.8c0,0-17.2-60.1-119-56.6
				c0,0,2.2-162.9,1.3-212.2c0,0-35.3-65.1-27.2-126.8C383,516.5,400.7,477.2,400.7,477.2"/>
			<path class="st24" d="M400.7,477.2c0,0,52.7,3.6,69.5,20.8c16.8,17.2,16.5,325.5,49.5,475.8c0,0-17.2-60.1-119-56.6
				c0,0,2.2-162.9,1.3-212.2c0,0-35.3-65.1-27.2-126.8C383,516.5,400.7,477.2,400.7,477.2z"/>
			<path class="st23" d="M402,704.9c0,0,5.3-73.1,20.3-105.7c2.4-5.3,1.5-11.6-2.5-15.9c-7.6-8.3-19.7-21.6-28.8-30.5
				c-4.3-4.2-3.1-11.5,2.3-14.1c7.8-3.8,18.6-8.8,29.4-12.7c4.1-1.5,7.2-4.8,8.4-9c2.6-9,7.5-24.7,12.2-33.1c1.3-2.4,0-5.3-2.7-5.8
				c-10.1-1.7-30.2-4.4-39.8-1.9c0,0-24.1,62.5-25.9,102.1C374.9,578.2,361.4,648,402,704.9"/>
			<path class="st24" d="M402,704.9c0,0,5.3-73.1,20.3-105.7c2.4-5.3,1.5-11.6-2.5-15.9c-7.6-8.3-19.7-21.6-28.8-30.5
				c-4.3-4.2-3.1-11.5,2.3-14.1c7.8-3.8,18.6-8.8,29.4-12.7c4.1-1.5,7.2-4.8,8.4-9c2.6-9,7.5-24.7,12.2-33.1c1.3-2.4,0-5.3-2.7-5.8
				c-10.1-1.7-30.2-4.4-39.8-1.9c0,0-24.1,62.5-25.9,102.1C374.9,578.2,361.4,648,402,704.9z"/>
		</g>
		<g class="st0">
			<defs>
				<rect id="SVGID_25_" x="-173.3" y="220" width="1046.7" height="1180.1"/>
			</defs>
			<clipPath id="SVGID_26_">
				<use xlink:href="#SVGID_25_"  style="overflow:visible;"/>
			</clipPath>
			<path class="st25" d="M304.6,920.7c0,0-11.5-112.2-1.6-211.9c0,0-28.6-147.8,15.1-218.7c1.2-1.9-0.7-4.3-2.8-3.6
				c-14.1,4.8-47.3,19.3-56.5,53.3c-9.9,36.3-72.6,447.8-72.6,447.8S239.3,920.7,304.6,920.7"/>
			<path class="st26" d="M304.6,920.7c0,0-11.5-112.2-1.6-211.9c0,0-28.6-147.8,15.1-218.7c1.2-1.9-0.7-4.3-2.8-3.6
				c-14.1,4.8-47.3,19.3-56.5,53.3c-9.9,36.3-72.6,447.8-72.6,447.8S239.3,920.7,304.6,920.7z"/>
		</g>
		<g class="st0">
			<defs>
				<rect id="SVGID_27_" x="-173.3" y="220" width="1046.7" height="1180.1"/>
			</defs>
			<clipPath id="SVGID_28_">
				<use xlink:href="#SVGID_27_"  style="overflow:visible;"/>
			</clipPath>
			<path class="st27" d="M424,732.8c16,21.5,21,44.9,11.2,52.2c-9.8,7.3-30.8-4.2-46.7-25.8c-16-21.5-21-44.9-11.2-52.2
				C387.1,699.8,408.1,711.3,424,732.8"/>
		</g>
		<g class="st0">
			<defs>
				<rect id="SVGID_29_" x="-173.3" y="220" width="1046.7" height="1180.1"/>
			</defs>
			<clipPath id="SVGID_30_">
				<use xlink:href="#SVGID_29_"  style="overflow:visible;"/>
			</clipPath>
			<path class="st28" d="M422.4,709.2L342.9,795c0,0,13.3,14.8,39.7-14.5c26.4-29.3,47.2-42.6,64-43
				C463.5,737,449,684.6,422.4,709.2"/>
			<path class="st29" d="M420.8,707.6c-23.2,25-46.3,50-69.5,75c-3.3,3.6-6.7,7.2-10,10.8c-0.9,0.9-0.8,2.3,0,3.2
				c5,5.5,14,5.1,20.3,2.7c9.6-3.6,17.1-11.2,23.9-18.7c8.3-9,17-17.8,26.7-25.4c7.1-5.5,14.9-10.7,23.5-13.5c3-1,6.1-1.7,9.2-1.9
				c2.4-0.2,4.6-0.2,6.6-1.7c7.9-5.6,4.3-19.4,0.6-26.3c-2.7-5-7-9.6-12.7-11C432.5,699.1,425.9,703.1,420.8,707.6
				c-2.2,1.9,1,5.1,3.2,3.2c4.2-3.8,9.9-7.4,15.7-5.3c4.3,1.6,7.3,5.6,9.2,9.6c2.5,5.2,6.1,19-2.6,20.1
				c-13.6,1.7-24.7,7.3-35.6,15.6c-7.3,5.6-14.1,11.9-20.5,18.4c-7.7,7.8-14.5,16.8-23.9,22.7c-5.8,3.6-16.2,7.4-21.7,1.4v3.2
				c23.2-25,46.3-50,69.5-75c3.3-3.6,6.7-7.2,10-10.8C426,708.7,422.8,705.5,420.8,707.6"/>
		</g>
		<g class="st0">
			<defs>
				<rect id="SVGID_31_" x="-173.3" y="220" width="1046.7" height="1180.1"/>
			</defs>
			<clipPath id="SVGID_32_">
				<use xlink:href="#SVGID_31_"  style="overflow:visible;"/>
			</clipPath>
			<path class="st30" d="M466.4,498.7c0,0,7.6-0.2,30.3,35.5c22.7,35.7,43.1,82.3,39.9,105.5c-3.2,23.2-24.8,67.5-54.7,97
				C452,766.3,438.7,778,438.7,778s7.4-30.2-19.1-49.1c-26.5-18.9-40.7-19.8-40.7-19.8s14.3-20.5,47.7-30.2l43.6-28.4
				C470.3,650.5,452.5,565.8,466.4,498.7"/>
			<path class="st31" d="M468.8,499.5c9.5,11.5,18.2,23.9,26.3,36.5c15.2,23.5,29.4,49,36.2,76.4c3,12.1,4.5,24.9,2,37.2
				c-2.5,12.1-7.9,23.5-14,34.2c-13.4,23.2-31.1,43.8-49.7,62.9c-10.9,11.2-22.1,22.2-34.1,32.3c1.1,0.8,2.2,1.7,3.3,2.5
				c7.3-16,1.1-35-10.7-47c-9.6-9.8-22-17.8-34.7-22.8c-5-2-10.5-3.8-15.9-4.1c0.5,1.2,1,2.4,1.5,3.6c6.2-6.9,13.7-13.1,21.4-18.2
				c10.3-6.9,22.1-10,32.9-15.9c20.1-10.8,38.7-24.8,56.8-38.6c4.8-3.6,9.5-7.3,14.2-11c2.1-1.7-0.9-4.6-3-3
				c-12.7,10.2-25.8,19.9-39.1,29.3c-9.5,6.7-19.2,13.2-29.3,18.8c-10.5,5.8-22,8.8-32.2,15.2c-9,5.7-17.6,12.6-24.7,20.5
				c-1.2,1.4-0.4,3.5,1.5,3.6c16.4,0.8,33.5,12.7,45,23.1c12,10.8,19.5,29.4,12.7,44.4c-1,2.2,1.4,4.1,3.3,2.5
				c10.4-8.7,20.2-18.2,29.7-27.8c18.9-19,36.8-39.5,51.1-62.2c13.4-21.4,22.3-44,18.4-69.5c-4.4-28.5-18.4-55.4-33.3-79.7
				c-9.8-16-20.6-31.7-32.5-46.2C470,494.4,467,497.4,468.8,499.5"/>
			<path class="st30" d="M470.3,650.5c0,0-5.5-27.3-6.1-77"/>
			<path class="st31" d="M472.3,649.9c-5-24.9-5.7-51.1-6-76.4c0-2.7-4.2-2.7-4.2,0c0.3,25.7,1,52.3,6.1,77.6
				C468.8,653.7,472.8,652.6,472.3,649.9"/>
		</g>
		<g class="st0">
			<defs>
				<rect id="SVGID_33_" x="-173.3" y="220" width="1046.7" height="1180.1"/>
			</defs>
			<clipPath id="SVGID_34_">
				<use xlink:href="#SVGID_33_"  style="overflow:visible;"/>
			</clipPath>
			<path class="st32" d="M391,421.5c0,21-12.5,38-28,38c-15.5,0-28-17-28-38s12.5-38,28-38C378.5,383.5,391,400.5,391,421.5"/>
			<ellipse class="st33" cx="363" cy="421.5" rx="28" ry="38"/>
		</g>
		<g class="st0">
			<defs>
				<rect id="SVGID_35_" x="-173.3" y="220" width="1046.7" height="1180.1"/>
			</defs>
			<clipPath id="SVGID_36_">
				<use xlink:href="#SVGID_35_"  style="overflow:visible;"/>
			</clipPath>
			<path class="st34" d="M363,376.4c0,0,8.5,29.6,37.5,41.6c0,0,3-22-13-32C371.5,376,370.5,371.8,363,376.4"/>
			<path class="st35" d="M362.7,382.5c7.6,14.1,18.9,28.1,33,35.8c1.7,0.9,3.2-1.7,1.5-2.6c-13.7-7.5-24.6-21.1-32-34.8
				C364.4,379.3,361.8,380.8,362.7,382.5"/>
		</g>
		<g class="st0">
			<defs>
				<rect id="SVGID_37_" x="-173.3" y="220" width="1046.7" height="1180.1"/>
			</defs>
			<clipPath id="SVGID_38_">
				<use xlink:href="#SVGID_37_"  style="overflow:visible;"/>
			</clipPath>
			<path class="st36" d="M364,376.5c0,0-9,41-39,60c0,0-2-40,15-51C357,374.5,364,376.5,364,376.5"/>
			<path class="st37" d="M362.6,379.1c-4.1,21.5-19.7,41.3-35.6,55.3c-1.5,1.3,0.7,3.4,2.1,2.1c16.3-14.3,32.2-34.7,36.4-56.7
				C365.8,378,362.9,377.2,362.6,379.1"/>
		</g>
	</g>
</g>
<line class="st38" x1="125.8" y1="698" x2="563.2" y2="698"/>
</svg>
