<?xml version="1.0" encoding="utf-8"?>
<!-- Generator: Adobe Illustrator 23.0.1, SVG Export Plug-In . SVG Version: 6.00 Build 0)  -->
<svg version="1.1" id="Calque_1" xmlns="http://www.w3.org/2000/svg" xmlns:xlink="http://www.w3.org/1999/xlink" x="0px" y="0px"
	 viewBox="0 0 360 650" style="enable-background:new 0 0 360 650;" xml:space="preserve">
<style type="text/css">
	.st0{fill:#312F2F;}
	.st1{fill:#2E5AA6;}
	.st2{fill:#FFFFFF;}
	.st3{fill:#FAB532;}
</style>
<g>
	<path class="st0" d="M270.68,284.83l44.73,54.27c0,0,4.65-10.4-1.86-20.51c-6.51-10.11-9.98-6-14.27-16.17
		c-4.28-10.17-13.73-30.04-13.73-30.04S265.99,276.01,270.68,284.83z"/>
	<path class="st0" d="M211.31,127.1c0,0,67.93,111.88,98.89,145.84c0,0-34.96,13.98-39.96,32.96l-73.28-140.2L211.31,127.1z"/>
	<path class="st1" d="M186.33,26.21c0,0,15.54-4.25,32.96,18.98c14.98,19.98,16.98,41.95,16.98,41.95s-19.98,13.98-43.95,6.99
		C164.45,86.01,186.33,26.21,186.33,26.21z"/>
	<path class="st0" d="M206.2,98.2c-4.55,0-9.41-0.59-14.46-2.06c-5.41-1.58-9.48-5.01-12.11-10.22
		c-9.96-19.69,4.14-58.77,4.75-60.42l0.37-1.01l1.04-0.28c0.69-0.19,17.11-4.35,35.18,19.74c15.16,20.22,17.31,42.09,17.39,43.01
		l0.11,1.2l-0.99,0.69C236.8,89.32,223.86,98.2,206.2,98.2z M187.89,28.05c-2.22,6.51-12.82,39.65-4.55,55.99
		c2.12,4.19,5.25,6.84,9.56,8.1c19.69,5.74,36.84-3.44,41.14-6.04c-0.68-4.85-3.98-23.07-16.42-39.66
		C203.71,27.87,191.46,27.64,187.89,28.05z"/>
	<path class="st2" d="M165.36,97.14c0,0,9.99-4.99,3-27.97c0,0,20.98-3,22.97,16.98c0,0-1,9.99,3,26.97L165.36,97.14z"/>
	<path class="st0" d="M197.42,117.2l-36.53-20.16l3.51-1.76c0.29-0.17,8.18-5.09,1.96-25.52l-0.7-2.32l2.4-0.34
		c0.43-0.06,10.62-1.44,18.07,4.4c4.19,3.29,6.64,8.14,7.27,14.44l0.02,0.2l-0.02,0.21c-0.01,0.1-0.9,9.92,2.95,26.29L197.42,117.2z
		 M168.94,96.74l22.38,12.35c-2.66-13.29-2.19-21.45-2.08-22.92c-0.54-5.02-2.44-8.84-5.66-11.37c-4.03-3.17-9.31-3.7-12.4-3.7
		c-0.04,0-0.08,0-0.12,0C175.07,86.12,171.69,93.48,168.94,96.74z"/>
	<path class="st2" d="M177.34,75.16c0,0,8.99,11.99,23.97,15.98c14.98,4,15.98-15.98,14.98-21.98c-1-5.99-5.99-23.97-9.99-26.97
		C202.32,39.2,179.34,58.18,177.34,75.16z"/>
	<path class="st0" d="M204.99,93.74c-1.27,0-2.66-0.18-4.21-0.59c-15.5-4.13-24.72-16.23-25.1-16.74l-0.5-0.67l0.1-0.83
		c1.76-14.97,18.16-30.7,26.5-34.28c2.49-1.07,4.44-1.11,5.78-0.1c5.13,3.85,10.11,24.22,10.79,28.29c0.8,4.79,0.48,16.48-5.6,22.01
		C211.16,92.28,208.64,93.74,204.99,93.74z M179.53,74.55c2.07,2.47,10.2,11.35,22.33,14.58c3.42,0.91,6.07,0.46,8.1-1.38
		c4.45-4.04,5-14.04,4.3-18.24c-1.16-6.97-6.04-22.95-9.06-25.55c-0.52-0.04-2.65,0.53-6.47,3.34
		C190.26,53.53,181.11,64.76,179.53,74.55z M205.27,43.97L205.27,43.97L205.27,43.97z"/>
	<path class="st1" d="M131.39,92.14h37.92h9.02c0,0-4-12.99,4.99-20.98c8.99-7.99,22.97-19.98,22.97-28.97s-6.99-16.98-20.98-16.98
		c-13.98,0-23.97,4.99-36.96,19.98S131.39,92.14,131.39,92.14z"/>
	<path class="st0" d="M181.16,94.22h-52.12l0.29-2.34c0.17-1.33,4.23-32.77,17.47-48.05c13.07-15.09,23.52-20.7,38.53-20.7
		c15.93,0,23.06,9.57,23.06,19.06c0,9.53-12.98,21.04-22.46,29.45l-1.21,1.08c-7.9,7.02-4.42,18.69-4.39,18.81L181.16,94.22z
		 M133.8,90.06h41.95c-0.76-4.56-1.17-13.9,6.2-20.45l1.22-1.08c8.39-7.44,21.06-18.67,21.06-26.33c0-6.87-4.95-14.9-18.9-14.9
		c-13.8,0-23.06,5.04-35.39,19.26C139.51,58.6,135,82.51,133.8,90.06z"/>
	<path class="st0" d="M213.3,132.1c0,0,33.96,63.93,58.94,159.83c11.4,43.79,25.59,89.64,37.96,119.87c0,0-76.92-2-115.87,8.99
		s-94.9,31.97-129.86,0l-3-3L213.3,132.1z"/>
	<path class="st2" d="M250.22,586.29l5.74,20.87c0,0,15.64,5.17,18.99-5.72c3.34-10.89-4.37-32.32-4.37-32.32
		S250.62,566.93,250.22,586.29z"/>
	<path class="st0" d="M263.85,610.46c-4.45,0-8.3-1.25-8.54-1.33l-1.06-0.35l-6.11-22.24l0.01-0.3c0.13-6.19,2.13-11.03,5.94-14.38
		c6.65-5.84,16.31-4.85,16.72-4.81l1.29,0.14l0.44,1.22c0.32,0.9,7.91,22.22,4.4,33.63c-0.95,3.1-2.83,5.39-5.57,6.81
		C269.02,610.07,266.34,610.46,263.85,610.46z M257.65,605.47c2.31,0.59,7.94,1.69,11.81-0.31c1.73-0.9,2.88-2.32,3.49-4.33
		c2.65-8.62-2.33-24.98-3.89-29.7c-2.5-0.03-8.25,0.34-12.26,3.87c-2.83,2.5-4.35,6.21-4.5,11.03L257.65,605.47z"/>
	<path class="st3" d="M190.33,382.82l32.96,205.77h86.9l-54.94-215.76C255.26,372.84,212.3,347.86,190.33,382.82z"/>
	<path class="st0" d="M312.87,590.68h-91.35l-33.37-208.3l0.42-0.66c22.78-36.24,67.28-10.94,67.73-10.68l0.75,0.44L312.87,590.68z
		 M225.07,586.52h82.46l-54.06-212.3c-5.8-3.14-41.51-20.8-60.95,9.06L225.07,586.52z"/>
	<path class="st2" d="M64.05,554.61l-14.57,16.01c0,0,4,15.98,14.98,12.99s24.97-20.98,24.97-20.98S80.61,544.59,64.05,554.61z"/>
	<path class="st0" d="M61.78,586.06c-1.93,0-3.77-0.51-5.5-1.52c-6.32-3.7-8.72-13.03-8.82-13.42l-0.27-1.08l15.78-17.21
		c5.3-3.2,10.46-4.11,15.33-2.67c8.48,2.49,12.82,11.19,13,11.56l0.57,1.17l-0.8,1.02c-0.59,0.76-14.54,18.56-26.07,21.71
		C63.91,585.91,62.83,586.06,61.78,586.06z M51.81,571.15c0.74,2.26,2.82,7.61,6.58,9.81c1.68,0.98,3.49,1.19,5.53,0.64
		c8.71-2.38,19.86-15.33,23.01-19.17c-1.33-2.15-4.71-6.79-9.82-8.28c-3.62-1.05-7.57-0.35-11.73,2.1L51.81,571.15z"/>
	<path class="st3" d="M155.37,377.83c0,0-42.95,77.91-118.87,151.83l73.92,66.93c0,0,98.89-110.88,104.89-213.77
		C215.3,382.82,179.34,356.85,155.37,377.83z"/>
	<path class="st0" d="M110.57,599.54l-77.12-69.82l1.59-1.54c74.8-72.84,118.07-150.57,118.5-151.35l0.18-0.32l0.28-0.24
		c10.38-9.08,24.55-11.09,40.97-5.78c12.16,3.93,21.18,10.38,21.56,10.66l0.92,0.67l-0.07,1.14
		c-5.96,102.43-104.41,213.92-105.41,215.03L110.57,599.54z M39.53,529.61l70.71,64.02c11.9-13.85,96.79-115.69,102.91-209.75
		c-5.66-3.74-35.79-22.14-56.15-4.71C153.86,384.76,111.35,459.2,39.53,529.61z"/>
	<path class="st0" d="M251.26,601.59l25.97-2c0,0,2.85,7.41,24.97,8.99c27.97,2,23.97,9.99,23.97,9.99l-74.92,7.99
		C251.26,626.56,248.26,614.57,251.26,601.59z"/>
	<path class="st0" d="M46.76,568.8l20.59,15.95c0,0-2.86,7.41,12.47,23.43c19.39,20.26,11.06,23.5,11.06,23.5L30,587.31
		C30,587.31,35.83,576.42,46.76,568.8z"/>
	<path class="st2" d="M272.24,381.83c0,0-8.99-165.82-40.96-229.75s-66.93-62.93-74.92-49.95c-7.99,12.99-7.99,131.86-38.96,192.79
		s-53.94,87.9-55.94,122.87c0,0,3-16.98,56.94-18.98C172.35,396.81,224.29,404.8,272.24,381.83z"/>
	<path class="st0" d="M63.51,418.2l-4.11-0.53c1.42-24.79,12.98-45.3,30.49-76.35c7.62-13.51,16.25-28.82,25.67-47.34
		c20.2-39.76,27.18-104.99,31.79-148.16c2.57-24.05,4.27-39.94,7.25-44.78c3.3-5.36,9.96-8.34,17.86-8.01
		c9.72,0.43,35.1,6.95,60.69,58.12c13.36,26.72,24.35,73.66,32.67,139.52c6.18,48.95,8.48,90.63,8.5,91.05l0.08,1.39l-1.25,0.6
		c-36.66,17.57-74.98,17.25-115.58,16.91c-12.75-0.11-25.94-0.22-39.07,0.27C67.64,402.77,63.54,418.04,63.51,418.2z M171.22,97.16
		c-5.88,0-10.73,2.22-13.09,6.06c-2.49,4.04-4.42,22.12-6.65,43.05c-4.65,43.47-11.67,109.16-32.22,149.6
		c-9.45,18.6-18.11,33.95-25.75,47.5c-15.35,27.21-26.05,46.19-29.17,66.86c6.37-5.5,20.89-12.27,53.99-13.49
		c13.24-0.49,26.47-0.38,39.26-0.27c39.62,0.33,77.07,0.64,112.49-15.91c-0.97-16.18-10.8-167.81-40.66-227.54
		c-6.39-12.79-29.41-54.6-57.15-55.82C171.92,97.17,171.57,97.16,171.22,97.16z"/>
	<path class="st2" d="M163.36,286.93l13.98,68.92c0,0,8.99-6.99,7.99-18.98c-1-11.99-5.99-9.99-4.99-20.98c1-10.99,2-32.96,2-32.96
		S163.36,276.94,163.36,286.93z"/>
	<path class="st0" d="M175.97,359.56l-14.69-72.63c0-2.52,0.98-4.58,2.83-5.94c5.56-4.08,17.5-0.47,18.85-0.04l1.53,0.48l-0.07,1.6
		c-0.01,0.22-1.01,22.15-2,33.06c-0.47,5.21,0.45,6.96,1.74,9.38c1.22,2.31,2.75,5.18,3.25,11.23c1.08,12.96-8.38,20.48-8.78,20.79
		L175.97,359.56z M165.44,286.74l13.16,64.89c2.29-2.8,5.22-7.8,4.66-14.57c-0.43-5.21-1.63-7.45-2.78-9.63
		c-1.44-2.71-2.8-5.27-2.21-11.71c0.82-9.08,1.66-25.93,1.91-31.23c-4.45-1.17-11.01-2.03-13.61-0.13
		C166.06,284.72,165.49,285.32,165.44,286.74z"/>
	<path class="st2" d="M178.34,111.12c0.39-6.61-5.37-11.99-11.99-11.99c-3.24,0-6.17,1.29-8.33,3.38l0,0c0,0-0.02,0.02-0.05,0.05
		c-0.49,0.48-0.94,1.01-1.34,1.57c-5.04,6.37-21.94,32.31-20.24,91.89c2,69.92,5.99,64.93,5.99,105.88c0,0,17.98-11.99,51.94-10.99
		C194.32,290.93,175.34,162.07,178.34,111.12z"/>
	<path class="st0" d="M140.3,305.8v-3.89c0-19.37-0.91-28.49-2.06-40.04c-1.29-12.94-2.89-29.03-3.94-65.78
		c-1.72-60.07,15.4-86.55,20.69-93.24c0.43-0.61,0.96-1.23,1.52-1.77l1.06-1.03l0.08,0.03c2.48-1.96,5.52-3.02,8.7-3.02
		c3.95,0,7.77,1.64,10.47,4.51c2.53,2.68,3.8,6.12,3.59,9.68l0,0c-2.95,50.15,15.77,178.09,15.96,179.38l0.36,2.45l-2.48-0.07
		c-32.93-0.97-50.56,10.52-50.73,10.64L140.3,305.8z M159.32,104.15c-0.39,0.41-0.71,0.79-1.01,1.2
		c-5.12,6.48-21.53,31.95-19.85,90.62c1.05,36.6,2.64,52.62,3.92,65.49c1.09,10.93,1.96,19.72,2.07,36.9
		c6.45-3.3,22.42-9.89,47.47-9.56c-2.59-18.04-18.4-131.09-15.65-177.8l0,0c0.14-2.41-0.74-4.74-2.47-6.58
		c-1.92-2.04-4.63-3.2-7.44-3.2c-2.58,0-5.02,0.99-6.88,2.79L159.32,104.15z"/>
</g>
</svg>
