<svg width="18" height="18" viewBox="0 0 18 18" fill="none" xmlns="http://www.w3.org/2000/svg">
<path d="M8.16989 0.0357917C6.46775 0.193694 4.84577 0.833018 3.49367 1.87898C2.14158 2.92494 1.11528 4.33429 0.534818 5.94217C-0.0456386 7.55004 -0.156248 9.28997 0.215927 10.9584C0.588103 12.6268 1.42768 14.1548 2.63643 15.3636C3.84519 16.5723 5.37316 17.4119 7.0416 17.7841C8.71003 18.1562 10.45 18.0456 12.0578 17.4652C13.6657 16.8847 15.0751 15.8584 16.121 14.5063C17.167 13.1542 17.8063 11.5322 17.9642 9.83011C18.0817 8.51443 17.909 7.18898 17.4584 5.94731C17.0077 4.70564 16.2901 3.578 15.356 2.64397C14.422 1.70993 13.2944 0.992265 12.0527 0.541607C10.811 0.0909487 9.48557 -0.0817177 8.16989 0.0357917ZM13.8343 6.97754L8.49994 12.2562C8.33988 12.412 8.12535 12.4992 7.90199 12.4992C7.67863 12.4992 7.4641 12.412 7.30404 12.2562L4.16 9.2536C3.99573 9.09587 3.90085 8.87934 3.89623 8.65165C3.89161 8.42396 3.97762 8.20376 4.13536 8.03949C4.29309 7.87522 4.50962 7.78034 4.73731 7.77571C4.965 7.77109 5.1852 7.85711 5.34947 8.01484L7.88699 10.4495L12.6363 5.75808C12.7993 5.6049 13.0157 5.52149 13.2393 5.52565C13.4629 5.52982 13.6761 5.62122 13.8333 5.78036C13.9904 5.93949 14.0792 6.15376 14.0806 6.37743C14.082 6.6011 13.9959 6.81646 13.8407 6.97754H13.8343Z" fill="white"/>
</svg>
